<svg width="65" height="45" viewBox="0 0 65 45" fill="none" xmlns="http://www.w3.org/2000/svg">
<g clip-path="url(#clip0_1278_33950)">
<path d="M12.7695 0H4.46484V6.34836H12.7695V0Z" fill="#FBBE73"/>
<path d="M4.46069 6.75846e-06C3.27764 6.75846e-06 2.14305 0.470807 1.30651 1.30884C0.469964 2.14687 0 3.28348 0 4.46863L0 6.34836H8.92914V4.46863C8.92914 3.88115 8.8135 3.29943 8.58885 2.75676C8.36419 2.2141 8.03492 1.72114 7.61989 1.30609C7.20485 0.891033 6.71219 0.562039 6.1701 0.337927C5.62801 0.113815 5.04713 -0.00101495 4.46069 6.75846e-06Z" fill="#D3872C"/>
<path d="M65.0005 4.46862V43.0736C65.0006 43.4007 64.9174 43.7223 64.7589 44.0082C64.6003 44.294 64.3716 44.5347 64.0944 44.7073C63.8172 44.88 63.5006 44.9791 63.1746 44.9951C62.8485 45.0111 62.5238 44.9436 62.231 44.7989L38.8338 33.2388C38.2527 32.9512 37.6132 32.8016 36.9651 32.8016C36.317 32.8016 35.6776 32.9512 35.0965 33.2388L11.6992 44.7989C11.4064 44.9436 11.0817 45.0111 10.7557 44.9951C10.4296 44.9791 10.113 44.88 9.8358 44.7073C9.55859 44.5347 9.32991 44.294 9.17136 44.0082C9.01281 43.7223 8.92963 43.4007 8.92969 43.0736V4.22404e-07H60.5379C61.1239 -0.000254791 61.7041 0.115141 62.2455 0.339596C62.787 0.564051 63.2789 0.893167 63.6934 1.30814C64.1078 1.72312 64.4365 2.21582 64.6608 2.75811C64.8851 3.30039 65.0005 3.88163 65.0005 4.46862Z" fill="url(#paint0_linear_1278_33950)"/>
</g>
<defs>
<linearGradient id="paint0_linear_1278_33950" x1="29.5005" y1="-30" x2="36.9651" y2="44.9974" gradientUnits="userSpaceOnUse">
<stop stop-color="#FBBF76"/>
<stop offset="1" stop-color="#FF8A15"/>
</linearGradient>
<clipPath id="clip0_1278_33950">
<rect width="65" height="45" fill="white"/>
</clipPath>
</defs>
</svg>
