<svg width="60" height="60" viewBox="0 0 60 60" fill="none" xmlns="http://www.w3.org/2000/svg">
<g clip-path="url(#clip0_1217_53625)">
<path d="M30 60C46.5685 60 60 46.5685 60 30C60 13.4315 46.5685 0 30 0C13.4315 0 0 13.4315 0 30C0 46.5685 13.4315 60 30 60Z" fill="#60B0FF"/>
<path d="M60.0004 30.0008C60.0004 29.036 59.9529 28.0824 59.864 27.1409L48.9145 16.1914L32.3573 25.6572L27.8118 24.5462L11.1367 42.1553L28.9622 59.9809C29.3071 59.9926 29.6527 60.0007 30.0004 60.0007C46.5688 60.0008 60.0004 46.5692 60.0004 30.0008Z" fill="#4190DD"/>
<path d="M39.4346 17.599C31.4398 14.7796 30.002 20.8445 30.002 20.8445C30.002 20.8445 28.6115 14.7797 20.6168 17.599C12.6222 20.4183 11.1367 19.4348 11.1367 19.4348V42.1532C11.1367 42.1532 12.622 43.1366 20.6167 40.3175C28.6115 37.498 30.0019 43.563 30.0019 43.563C30.0019 43.563 31.4397 37.4982 39.4345 40.3175C47.4292 43.1368 48.9145 42.1532 48.9145 42.1532V19.4348C48.9145 19.4348 47.4291 20.4182 39.4346 17.599Z" fill="#FFC268"/>
<path d="M39.4339 17.599C31.4392 14.7796 30.0014 20.8445 30.0014 20.8445C30.0014 20.8445 30.0008 20.8421 30 20.8383V43.5568C30.0011 43.5606 30.0014 43.563 30.0014 43.563C30.0014 43.563 31.4392 37.4982 39.4339 40.3175C47.4287 43.1368 48.9139 42.1532 48.9139 42.1532V19.4348C48.9139 19.4348 47.4287 20.4182 39.4339 17.599Z" fill="#F0A93E"/>
<path d="M39.4346 14.3529C31.4398 11.5335 30.002 17.5984 30.002 17.5984C30.002 17.5984 28.6115 11.5336 20.6168 14.3529C12.6222 17.1722 11.1367 16.1887 11.1367 16.1887V38.9072C11.1367 38.9072 12.622 39.8907 20.6167 37.0715C28.6115 34.2521 30.0019 40.317 30.0019 40.317C30.0019 40.317 31.4397 34.2522 39.4345 37.0715C47.4292 39.8908 48.9145 38.9072 48.9145 38.9072V16.1889C48.9145 16.1889 47.4291 17.1723 39.4346 14.3529Z" fill="#FFF8E3"/>
<path d="M48.9125 38.911C48.9125 38.911 47.4273 39.8944 39.4325 37.0752C31.4378 34.2558 30 40.3207 30 40.3207V17.6023C30 17.6023 31.4378 11.5375 39.4325 14.3568C47.4273 17.1761 48.9125 16.1925 48.9125 16.1925V38.911Z" fill="#E8DDBC"/>
</g>
<defs>
<clipPath id="clip0_1217_53625">
<rect width="60" height="60" fill="white"/>
</clipPath>
</defs>
</svg>
