<svg width="60" height="60" viewBox="0 0 60 60" fill="none" xmlns="http://www.w3.org/2000/svg">
<g clip-path="url(#clip0_1227_26741)">
<path d="M60 30C60 46.5688 46.5688 60 30 60C13.4312 60 0 46.5688 0 30C0 13.4312 13.4312 0 30 0C46.5688 0 60 13.4312 60 30Z" fill="#FFD29A"/>
<path d="M39.8758 58.3347C51.5913 54.2506 59.9982 43.1086 59.9982 30.001C59.9982 25.8102 59.1376 21.8208 57.5853 18.1976L48.7276 9.33984L11.25 14.632L22.1118 25.4939L15.6976 30.7041L22.3686 37.3751L22.2258 40.7823L39.8758 58.3347Z" fill="#E4AC67"/>
<path d="M34.5101 43.7865V40.7812H25.4866V43.7865C25.4866 45.1483 24.6347 46.3651 23.3553 46.8311L9.48047 51.8839C14.8459 56.9165 22.0616 60 29.9984 60C37.9351 60 45.1508 56.9165 50.5162 51.8839L36.6414 46.8311C35.362 46.3651 34.5101 45.1483 34.5101 43.7865Z" fill="#F4D4B0"/>
<path d="M50.5175 51.8839L36.6426 46.8311C35.3632 46.3651 34.5113 45.1483 34.5113 43.7865V40.7812H29.9492V59.9995C29.9662 59.9995 29.9826 60 29.9996 60C37.9363 60 45.152 56.9165 50.5175 51.8839Z" fill="#F6C59A"/>
<path d="M22.4579 28.1137C22.4579 30.2542 20.723 31.9896 18.5825 31.9896C16.442 31.9896 14.707 30.2542 14.707 28.1137C14.707 25.9737 16.442 24.2383 18.5825 24.2383C20.723 24.2383 22.4579 25.9737 22.4579 28.1137Z" fill="#FFE1BE"/>
<path d="M45.661 28.1137C45.661 30.2542 43.9261 31.9896 41.7856 31.9896C39.6451 31.9896 37.9102 30.2542 37.9102 28.1137C37.9102 25.9737 39.6451 24.2383 41.7856 24.2383C43.9261 24.2383 45.661 25.9737 45.661 28.1137Z" fill="#FAC48E"/>
<path d="M35.1598 42.6228L32.572 43.9522C30.9575 44.7816 29.0422 44.7816 27.4277 43.9522L24.8399 42.6228C21.0048 40.6526 18.5938 36.7035 18.5938 32.3918V22.305C18.5938 16.0052 23.7001 10.8984 29.9998 10.8984C36.2996 10.8984 41.4059 16.0052 41.4059 22.3045V32.3918C41.4059 36.7035 38.9949 40.6526 35.1598 42.6228Z" fill="#FFE1BE"/>
<path d="M29.9996 10.8984C29.9826 10.8984 29.9662 10.8989 29.9492 10.8989V44.5724C30.8483 44.5807 31.7491 44.3747 32.5717 43.9522L35.1595 42.6228C38.9946 40.6526 41.4057 36.7035 41.4057 32.3918V22.3045C41.4057 16.0052 36.2993 10.8984 29.9996 10.8984Z" fill="#FFD2AA"/>
<path d="M40.1641 22.3242H42.5078V32.5195H40.1641V22.3242Z" fill="#E2AD78"/>
<path d="M17.4727 22.3242H19.8164V32.5195H17.4727V22.3242Z" fill="#E2AD78"/>
<path d="M42.5096 27.3299L29.9911 29.405L17.4727 27.3299V12.9648H42.5096V27.3299Z" fill="#4190DD"/>
<path d="M29.9023 12.9648V29.3903L29.9907 29.405L42.5092 27.3299V12.9648H29.9023Z" fill="#2882CD"/>
<path d="M46.0742 12.9648H47.4232V27.4238H46.0742V12.9648Z" fill="#555A66"/>
<path d="M46.7148 12.9648H47.4267V27.4238H46.7148V12.9648Z" fill="#414952"/>
<path d="M48.7488 31.9882H44.7539L45.6337 26.7084C45.7248 26.1623 46.1977 25.7617 46.7516 25.7617C47.3055 25.7617 47.7779 26.1623 47.869 26.7084L48.7488 31.9882Z" fill="#FF8D2A"/>
<path d="M47.8698 26.7084C47.7787 26.1623 47.3063 25.7617 46.7524 25.7617C46.7396 25.7617 46.7277 25.7626 46.7148 25.7631V31.9878H48.7496L47.8698 26.7084Z" fill="#FFAB61"/>
<path d="M11.2539 9.33984H48.731V14.632H11.2539V9.33984Z" fill="#2882CD"/>
<path d="M29.9023 9.33984H48.7292V14.632H29.9023V9.33984Z" fill="#1E639D"/>
<path d="M8.36719 50.7834C13.8008 56.4377 21.4295 59.9661 29.7805 59.9986V56.25L19.1045 46.7578L8.36719 50.7834Z" fill="#1E639D"/>
<path d="M51.633 50.7834C46.1993 56.4377 38.5707 59.9661 30.1172 59.9986V56.25L40.8957 46.7578L51.633 50.7834Z" fill="#1E639D"/>
</g>
<defs>
<clipPath id="clip0_1227_26741">
<rect width="60" height="60" fill="white"/>
</clipPath>
</defs>
</svg>
