<svg width="1822" height="786" viewBox="0 0 1822 786" fill="none" xmlns="http://www.w3.org/2000/svg">
<g opacity="0.03">
<path d="M17.0084 582.825C130.586 561.765 254.594 555.575 379.331 566.132C431.784 570.577 485.946 577.93 538.334 585.03C660.352 601.593 786.52 618.716 900.207 600.315C998.321 584.438 1078.21 544.746 1144.46 478.987C1200.46 423.394 1239.57 356.682 1278 287.48C1342.09 172.028 1454.62 17.2285 1690.97 5.87085C1734.38 3.79305 1777.8 6.85768 1821.1 13.4137L1821.82 8.30422C1777.76 1.63878 1733.47 -1.4654 1689.06 0.668355C1448.49 12.2286 1334.61 168.57 1269.88 285.175C1202.02 407.413 1117.58 559.54 896.942 595.253C785.127 613.346 660 596.371 538.972 579.939C486.415 572.804 432.065 565.425 379.25 560.959C248.375 549.873 118.287 557.077 0.000652428 580.401L17.0084 582.825Z" fill="#1173BF"/>
<path d="M62.2831 589.277C89.4122 584.555 117.002 580.63 144.937 577.58C218.338 569.621 292.802 567.644 366.231 571.704C419.518 574.575 475.104 580.606 528.872 586.45C551.719 588.933 575.322 591.492 598.664 593.805C707.15 604.564 796.961 609.088 882.643 596.172C978.761 581.599 1058.3 546.704 1125.8 489.502C1193.12 432.869 1239.98 361.661 1277.61 304.455C1309.9 255.637 1340.56 217.184 1374.14 183.429C1466.67 89.8526 1574.74 40.0094 1704.53 31.038C1730.35 29.2539 1757.31 29.1364 1784.66 30.6832C1795.87 31.3087 1807.06 32.236 1818.25 33.3807L1818.96 28.3838C1807.38 27.1832 1795.79 26.2307 1784.19 25.5801C1756.28 23.9964 1728.77 24.1181 1702.4 25.9394C1570.28 35.0687 1460.51 85.5688 1366.82 180.307C1333.04 214.252 1302.21 252.902 1269.79 301.95C1232.29 358.935 1185.61 429.876 1118.79 486.099C1052.25 542.488 973.99 576.855 879.544 591.175C795.159 603.9 706.265 599.412 598.776 588.743C575.519 586.443 551.935 583.876 529.122 581.398C475.182 575.539 419.391 569.48 365.74 566.598C291.603 562.5 216.441 564.493 142.333 572.528C109.359 576.125 76.8761 580.919 45.0534 586.821L62.2831 589.277Z" fill="#106FB8"/>
<path d="M104.434 595.285C116.151 593.309 127.919 591.465 139.749 589.797C210.537 579.899 282.326 575.681 353.115 577.264C408.34 578.5 464.044 582.97 523.017 587.707C541.688 589.208 560.996 590.758 580.182 592.186C673.802 599.176 772.926 604.912 865.064 592.008C962.02 578.275 1043.57 545.86 1114.4 492.904C1179.9 443.931 1226.88 386.249 1277.2 321.395C1312.78 275.952 1345.98 239.761 1381.64 207.504C1481.53 117.16 1591.57 67.6497 1718.09 56.176C1743.6 53.8674 1770.14 53.0728 1796.97 53.8256C1803.08 53.985 1809.17 54.2469 1815.25 54.5599L1815.95 49.6142C1809.35 49.259 1802.74 48.9857 1796.12 48.8045C1768.78 48.0426 1741.74 48.8486 1715.73 51.2018C1587.19 62.8567 1475.62 112.933 1374.63 204.28C1338.79 236.72 1305.44 273.079 1269.7 318.707C1219.57 383.327 1172.8 440.766 1107.77 489.389C1037.89 541.624 957.554 573.584 862.143 587.099C771.212 599.841 672.884 594.135 579.953 587.201C560.801 585.778 541.528 584.223 522.874 582.724C463.695 577.968 407.802 573.482 352.195 572.233C280.73 570.637 208.275 574.886 136.829 584.878C120.221 587.223 103.689 589.892 87.2916 592.832L104.436 595.275L104.434 595.285Z" fill="#106AB0"/>
<path d="M142.359 600.685C208.423 589.623 274.865 583.598 339.987 582.807C398.396 582.094 458.279 585.215 521.669 588.513C534.904 589.198 548.241 589.897 561.705 590.562C651.474 595.018 753.221 600.062 847.473 587.835C945.549 574.91 1029.12 544.966 1102.97 496.307C1175.74 448.369 1229.41 389.906 1276.76 338.326C1314.44 297.278 1351.2 262.357 1389.09 231.557C1496.43 144.374 1608.46 95.2201 1731.62 81.3241C1756.8 78.4886 1782.93 77.0194 1809.27 76.9704C1810.19 76.9661 1811.12 76.9822 1812.04 76.9779L1812.74 72.063C1811.17 72.0592 1809.61 72.0452 1808.04 72.0517C1781.26 72.1015 1754.68 73.5997 1729.07 76.4895C1604.16 90.5851 1490.77 140.235 1382.43 228.277C1344.35 259.219 1307.45 294.287 1269.61 335.489C1222.43 386.874 1168.96 445.115 1096.72 492.709C1023.82 540.753 941.367 570.302 844.709 583.043C751.522 595.129 654.736 590.322 561.148 585.677C547.701 585.014 534.381 584.318 521.147 583.623C457.55 580.316 397.46 577.186 338.633 577.892C270.303 578.727 200.553 585.242 131.309 597.251C129.381 597.593 127.468 597.947 125.538 598.299L142.358 600.696L142.359 600.685Z" fill="#0F66A9"/>
<path d="M175.179 605.365C226.035 596.471 276.056 590.864 326.888 588.361C390.394 585.229 456.983 586.851 527.473 588.57L543.222 588.955C551.097 589.147 559.006 589.344 566.932 589.544C653.713 591.756 743.444 594.033 829.908 583.694C929.105 571.576 1014.68 544.114 1091.55 499.738C1167.78 455.731 1227.96 400.046 1276.32 355.306C1317.16 317.518 1356.49 284.928 1396.57 255.661C1513.52 170.267 1624.29 122.866 1745.16 106.471C1765.87 103.666 1787.18 101.761 1808.66 100.695L1809.37 95.7185C1786.73 96.7758 1764.25 98.796 1742.42 101.755C1620.04 118.343 1508.15 166.169 1390.25 252.253C1350.02 281.633 1310.55 314.34 1269.57 352.254C1221.39 396.831 1161.42 452.308 1085.73 496.015C1009.77 539.862 925.231 567.002 827.328 578.96C741.713 589.2 652.435 586.925 566.103 584.735C558.16 584.533 550.251 584.336 542.376 584.143L526.627 583.759C455.893 582.036 389.081 580.403 325.136 583.556C269.45 586.287 214.788 592.706 158.973 603.056L175.179 605.365Z" fill="#0E61A2"/>
<path d="M202.474 609.255C239.809 602.289 276.668 597.199 313.778 593.889C379.078 588.056 447.949 587.465 524.727 587.322C542.066 587.296 559.983 587.373 577.289 587.457C654.623 587.811 734.601 588.176 812.312 579.536C910.839 568.576 1000.94 542.875 1080.1 503.152C1154.43 465.843 1212.73 421.8 1275.85 372.258C1319.89 337.684 1361.82 307.427 1404.04 279.73C1489.98 223.349 1607.95 155.568 1758.7 131.615C1773.77 129.228 1789.31 127.274 1805.1 125.689L1805.8 120.723C1788.75 122.368 1771.99 124.451 1755.77 127.029C1603.42 151.244 1484.58 219.486 1398.06 276.246C1355.72 304.02 1313.68 334.365 1269.53 369.027C1206.64 418.393 1148.57 462.271 1074.73 499.326C996.408 538.626 907.307 564.051 809.893 574.887C732.836 583.464 653.206 583.096 576.221 582.74C558.879 582.661 540.963 582.584 523.572 582.602C446.498 582.745 377.349 583.338 311.59 589.21C270.089 592.918 228.904 598.813 187.052 607.057L202.474 609.255Z" fill="#0E5D9A"/>
<path d="M224.036 612.327C249.779 607.074 275.245 602.784 300.667 599.417C367.425 590.564 438.932 587.591 506.23 585.699C532.512 584.963 558.791 584.623 586.605 584.251C654.928 583.352 725.587 582.42 794.751 575.373C894.221 565.247 986.376 542.085 1068.65 506.546C1147.64 472.419 1211.51 431.562 1275.37 389.198C1322.7 357.799 1367.23 329.857 1411.5 303.8C1510.25 245.648 1630.33 182.703 1772.23 156.757C1781.86 154.995 1791.57 153.433 1801.35 151.974L1802.07 146.947C1790.98 148.553 1780.02 150.314 1769.12 152.302C1625.94 178.493 1505.14 241.776 1405.87 300.238C1361.52 326.358 1316.91 354.341 1269.49 385.8C1205.84 428.016 1142.22 468.721 1063.72 502.647C982.229 537.848 890.957 560.791 792.459 570.815C723.79 577.808 653.393 578.735 585.315 579.627C557.449 579.991 531.135 580.337 504.766 581.071C437.152 582.981 365.295 585.967 298.04 594.885C268.697 598.779 239.321 603.881 209.519 610.259L224.036 612.327Z" fill="#0D5893"/>
<path d="M240.09 614.613C256.047 610.973 271.859 607.742 287.542 604.931C342.379 595.089 404.127 588.656 487.736 584.064C522.855 582.142 558.536 581.168 596.315 580.126C655.604 578.494 716.903 576.803 777.191 571.217C877.57 561.921 971.781 541.309 1057.2 509.937C1142.07 478.78 1211.27 441.575 1274.89 406.125C1326.71 377.258 1372.48 352.386 1418.97 327.846C1529.32 269.603 1648.55 210.359 1785.74 181.894C1789.61 181.088 1793.51 180.348 1797.42 179.588L1798.14 174.488C1792.9 175.486 1787.69 176.509 1782.49 177.586C1644.24 206.277 1524.49 265.77 1413.69 324.241C1367.16 348.796 1321.34 373.692 1269.48 402.585C1206.08 437.911 1137.13 474.983 1052.74 505.968C968.016 537.074 874.576 557.524 775.044 566.742C715.092 572.292 653.985 573.979 594.888 575.608C557.039 576.65 521.287 577.635 486.01 579.566C401.945 584.187 339.806 590.669 284.541 600.585C265.41 604.023 246.124 608.055 226.578 612.698L240.089 614.623L240.09 614.613Z" fill="#0C548C"/>
<path d="M250.955 616.164C258.795 614.157 266.605 612.24 274.398 610.436C329.63 597.705 391.539 588.798 469.206 582.419C513.039 578.834 558.42 577.09 606.461 575.244C656.601 573.32 708.457 571.329 759.613 567.043C860.795 558.582 957.066 540.499 1045.72 513.308C1133.78 486.303 1207.64 453.963 1274.36 423.039C1322.93 400.53 1374.08 376.582 1426.42 351.894L1442.1 344.485C1546.61 295.096 1664.83 239.219 1793.3 208.455L1794.04 203.294C1663.14 234.025 1543.14 290.756 1437.21 340.832L1421.53 348.241C1369.22 372.933 1318.07 396.871 1269.52 419.372C1203.03 450.192 1129.42 482.412 1041.79 509.289C953.731 536.294 858.14 554.255 757.645 562.657C706.719 566.912 655.003 568.903 604.985 570.823C556.821 572.672 511.318 574.42 467.257 578.025C389.079 584.446 326.725 593.415 271.044 606.249C260.19 608.766 249.343 611.473 238.417 614.377L250.955 616.164Z" fill="#0C5084"/>
<path d="M257.352 617.075C258.659 616.697 259.951 616.307 261.256 615.939C316.745 600.058 376.94 588.891 450.711 580.786C503.101 575.046 558.515 572.517 617.172 569.822C658.046 567.947 700.304 566.009 742.085 562.894C843.949 555.272 942.276 539.729 1034.29 516.694C1111.85 497.282 1183.51 474.333 1273.88 439.969C1329.27 418.902 1381.64 397.958 1433.93 375.948C1454.29 367.379 1474.75 358.572 1496.4 349.257C1585.63 310.823 1685.97 267.66 1789 238.621L1789.75 233.388C1684.67 262.565 1582.52 306.524 1491.77 345.588C1470.13 354.906 1449.7 363.705 1429.35 372.266C1377.14 394.245 1324.86 415.161 1269.53 436.193C1179.45 470.443 1108.06 493.315 1030.81 512.646C939.303 535.555 841.528 551.01 740.209 558.594C698.601 561.712 656.414 563.64 615.61 565.515C556.779 568.205 501.206 570.754 448.48 576.529C374.181 584.684 313.501 595.949 257.523 611.97C253.603 613.093 249.696 614.25 245.769 615.425L257.352 617.075Z" fill="#0B4B7D"/>
<path d="M259.894 617.437C311.488 600.427 366.616 588.182 432.147 579.143C492.971 570.772 558.794 567.5 628.491 564.039C659.904 562.477 692.387 560.858 724.489 558.736C826.789 551.96 927.157 538.954 1022.79 520.06C1107.38 503.352 1187 483.273 1273.32 456.866C1332.15 438.87 1387.13 420.262 1441.34 399.989C1478.59 386.074 1516.51 370.875 1556.64 354.78C1630.79 325.062 1707.06 294.518 1784.54 269.923L1785.29 264.649C1705.99 289.56 1628.04 320.794 1552.32 351.135C1512.21 367.212 1474.33 382.395 1437.17 396.282C1383.08 416.5 1328.26 435.056 1269.55 453.017C1183.49 479.335 1104.14 499.349 1019.84 516.013C924.595 534.827 824.652 547.779 722.774 554.532C690.758 556.656 658.311 558.269 626.95 559.828C557.024 563.309 490.99 566.592 429.724 575.016C360.783 584.53 303.245 597.57 249.232 615.918L259.894 617.437Z" fill="#0A4776"/>
<path d="M259.28 617.35C306.091 599.95 355.819 587.124 413.619 577.496C482.755 566.004 559.471 562.143 640.674 558.065C662.359 556.976 684.799 555.849 706.947 554.565C809.106 548.657 911.516 538.177 1011.34 523.4C1107.46 509.172 1190.54 493.388 1272.79 473.737C1334.85 458.906 1392.43 442.644 1448.81 424.017C1505.09 405.428 1562.69 383.401 1623.66 360.089C1675 340.462 1727.59 320.354 1779.94 302.228L1780.69 296.945C1726.7 315.525 1672.45 336.264 1619.54 356.494C1558.65 379.784 1501.12 401.78 1444.99 420.317C1388.81 438.879 1331.43 455.086 1269.59 469.863C1187.56 489.454 1104.72 505.198 1008.86 519.38C909.327 534.114 807.216 544.574 705.339 550.46C683.226 551.738 660.822 552.86 639.154 553.951C557.652 558.05 480.656 561.923 410.985 573.505C350.243 583.623 298.332 597.235 249.352 615.935L259.28 617.35Z" fill="#0A426E"/>
<path d="M256.021 616.886C298.414 599.222 343.453 585.957 395.072 575.855C472.452 560.743 560.616 556.549 653.966 552.113C665.742 551.555 677.571 550.995 689.404 550.403C789.723 545.435 894.176 537.471 999.877 526.74C1113.4 515.211 1194.87 504.411 1272.27 490.597C1337.49 478.966 1397.68 465.039 1456.29 448.035C1534.63 425.308 1618.11 394.005 1698.85 363.742C1724.04 354.304 1749.66 344.707 1775.22 335.332L1775.97 330.079C1748.83 340.003 1721.61 350.207 1694.86 360.227C1614.23 390.454 1530.88 421.702 1452.79 444.351C1394.46 461.278 1334.54 475.139 1269.6 486.717C1192.43 500.48 1111.18 511.259 997.886 522.758C892.344 533.47 788.049 541.425 687.907 546.377C676.092 546.96 664.281 547.523 652.488 548.078C558.787 552.528 470.29 556.737 392.266 571.977C338.064 582.609 291.053 596.647 246.741 615.563L256.021 616.886Z" fill="#093E67"/>
<path d="M250.58 616.11C288.991 598.297 329.952 584.691 376.493 574.2C462.122 554.936 562.432 550.77 668.623 546.366L671.826 546.237C785.494 541.52 891.16 535.673 988.419 530.07C1098.44 523.715 1183.16 518.383 1271.75 507.448C1340.1 499.01 1402.91 487.442 1463.76 472.064C1564.01 446.722 1668.69 407.575 1770.42 369L1771.16 363.819C1668.14 402.889 1561.99 442.779 1460.61 468.397C1400.09 483.696 1337.61 495.208 1269.62 503.592C1181.32 514.484 1096.75 519.817 986.889 526.153C889.681 531.764 784.051 537.606 670.471 542.315L667.267 542.443C560.638 546.868 459.945 551.042 373.542 570.478C324.733 581.503 282.009 595.87 241.931 614.878L250.58 616.11Z" fill="#093A60"/>
<path d="M243.227 615.062C277.977 597.166 314.938 583.544 357.93 572.548C443.472 550.721 546.918 545.675 654.284 542.066C787.114 537.603 892.665 534.759 976.966 533.369C992.616 533.112 1008.02 532.883 1023.24 532.661C1109.11 531.389 1190.23 530.193 1271.25 524.27C1342.71 519.044 1408.13 509.812 1471.24 496.061C1569.12 474.739 1671.67 439.029 1765.57 403.036L1766.29 397.967C1671.41 434.446 1567.42 470.872 1468.41 492.441C1405.68 506.11 1340.67 515.285 1269.61 520.475C1188.88 526.385 1107.9 527.58 1022.17 528.841C1006.94 529.063 991.541 529.292 975.892 529.548C891.523 530.929 785.919 533.776 653.036 538.242C545.164 541.863 441.173 546.946 354.837 568.972C309.82 580.496 271.361 594.865 235.158 613.912L243.227 615.062Z" fill="#083558"/>
<path d="M234.544 613.825C266.101 595.985 300.028 582.161 339.349 570.903C420.093 547.818 516.636 541.015 636.739 537.915C753.472 534.899 867.173 534.47 965.562 536.695C992.888 537.309 1019.77 538.079 1045.79 538.82C1123.35 541.034 1196.61 543.116 1270.76 541.105C1345.32 539.078 1413.35 532.203 1478.73 520.081C1575.68 502.106 1674.53 469.891 1760.71 437.184L1761.41 432.259C1674.51 465.437 1574.32 498.319 1476.22 516.507C1411.29 528.546 1343.71 535.38 1269.6 537.388C1195.71 539.394 1122.59 537.311 1045.17 535.107C1019.15 534.366 992.233 533.601 964.873 532.982C866.327 530.755 752.472 531.173 635.598 534.2C514.83 537.321 417.687 544.184 336.146 567.489C295.027 579.265 259.763 593.808 226.936 612.741L234.544 613.825Z" fill="#073151"/>
<path d="M224.667 612.417C253.406 594.688 284.619 580.728 320.751 569.255C409.327 541.164 521.315 535.539 619.197 533.744C734.268 531.64 850.089 533.801 954.161 539.992C988.955 542.066 1023.11 544.458 1056.15 546.784C1129.78 551.949 1199.34 556.836 1270.3 557.912C1347.95 559.094 1418.58 554.565 1486.22 544.081C1579.82 529.568 1673.38 501.591 1755.87 471.118L1756.55 466.367C1673.38 497.318 1578.68 525.883 1484.01 540.559C1416.83 550.972 1346.69 555.467 1269.56 554.296C1198.86 553.226 1129.43 548.346 1055.93 543.19C1022.87 540.872 988.685 538.465 953.839 536.393C849.526 530.179 733.445 528.012 618.146 530.125C519.671 531.93 406.929 537.594 317.458 565.986C279.702 577.98 247.259 592.632 217.417 611.384L224.667 612.417Z" fill="#072C49"/>
<path d="M213.698 610.854C239.943 593.282 268.799 579.257 302.155 567.598C393.262 535.793 510.082 530.574 601.656 529.572C746.954 527.994 867.35 536.156 942.761 543.288C982.828 547.075 1022.14 551.392 1060.19 555.571C1132.14 563.475 1200.13 570.938 1269.85 574.721C1351.69 579.163 1422.83 577.047 1493.73 568.084C1586.98 556.278 1675.73 531.597 1751.05 504.908L1751.7 500.372C1675.9 527.474 1586.13 552.689 1491.78 564.63C1421.42 573.533 1350.78 575.628 1269.5 571.212C1200.03 567.445 1132.19 559.992 1060.35 552.105C1022.29 547.924 982.922 543.609 942.787 539.812C867.136 532.657 746.395 524.467 600.694 526.061C508.51 527.07 390.865 532.338 298.789 564.475C263.985 576.638 234.058 591.346 206.875 609.882L213.698 610.854Z" fill="#062842"/>
<path d="M201.962 609.182C226.002 591.817 252.671 577.742 283.54 565.948C354.754 538.778 450.266 525.895 584.112 525.411C697.95 525.001 821.275 532.515 931.395 546.589C975.378 552.209 1018.65 558.573 1060.48 564.734C1132.08 575.271 1199.75 585.227 1269.43 591.522C1354.37 599.207 1428.02 599.381 1501.22 592.073C1580.13 584.199 1664.18 565.524 1746.31 538.217L1746.92 533.886C1664.06 561.725 1579.16 580.749 1499.56 588.692C1426.91 595.942 1353.78 595.759 1269.42 588.136C1200 581.858 1132.47 571.921 1060.99 561.411C1019.1 555.253 975.801 548.874 931.714 543.249C821.218 529.132 697.461 521.589 583.241 521.996C448.419 522.487 352.087 535.504 280.099 562.981C247.942 575.261 220.293 589.98 195.428 608.251L201.962 609.182Z" fill="#05233B"/>
<path d="M189.406 607.392C211.481 590.26 236.25 576.207 264.924 564.308C336.901 534.468 432.754 520.777 566.586 521.252C681.143 521.656 806.7 531.828 920.047 549.882C967.104 557.382 1013.5 565.843 1058.39 574.026C1130.51 587.177 1198.64 599.591 1269.05 608.32C1357.08 619.235 1433.25 621.7 1508.77 616.07C1584.36 610.43 1664.41 594.59 1741.67 570.779L1742.25 566.673C1664.38 590.951 1583.57 607.089 1507.33 612.762C1432.38 618.348 1356.76 615.898 1269.33 605.058C1199.17 596.355 1131.17 583.96 1059.18 570.837C1014.25 562.649 967.787 554.178 920.645 546.666C806.839 528.536 680.816 518.328 565.807 517.923C430.948 517.448 334.238 531.289 261.465 561.465C231.624 573.855 205.984 588.526 183.18 606.505L189.406 607.392Z" fill="#051F33"/>
<path d="M176.305 605.525C196.636 588.656 219.609 574.629 246.292 562.656C317.783 530.605 416.804 515.693 549.044 517.081C664.461 518.286 792.2 531.109 908.701 553.165C958.223 562.541 1007.25 573.1 1054.63 583.311C1127.82 599.08 1196.95 613.978 1268.64 625.103C1359.73 639.243 1438.44 643.993 1516.26 640.05C1589.16 636.345 1664.66 623.461 1737.06 603.074L1737.62 599.173C1664.69 619.965 1588.56 633.114 1515.09 636.841C1437.84 640.763 1359.73 636.057 1269.21 621.997C1197.77 610.908 1128.76 596.037 1055.7 580.299C1008.25 570.078 959.196 559.504 909.554 550.11C792.561 527.963 664.274 515.083 548.37 513.871C415.069 512.479 315.12 527.551 242.828 559.968C215.087 572.407 191.317 587.021 170.351 604.677L176.305 605.525Z" fill="#041B2C"/>
<path d="M162.555 603.566C181.334 586.967 202.762 573.033 227.658 561.014C299.751 526.207 399.149 510.482 531.517 512.922C647.24 514.797 777.177 530.264 897.388 556.463C948.977 567.701 1000.18 580.336 1049.71 592.556C1121.12 610.171 1194.95 628.382 1268.3 641.906C1362.48 659.276 1443.68 666.304 1523.83 664.039C1593.58 662.058 1664.62 651.841 1732.56 634.673L1733.08 631.018C1664.71 648.521 1593.12 658.931 1522.85 660.921C1443.3 663.166 1362.64 656.176 1269.08 638.924C1195.96 625.444 1125.54 608.075 1050.97 589.675C1001.39 577.447 950.121 564.803 898.432 553.53C777.699 527.214 647.161 511.683 530.919 509.796C397.439 507.334 297.092 523.248 224.177 558.449C196.514 571.808 174.595 586.988 156.909 602.761L162.555 603.566Z" fill="#031625"/>
<path d="M148.465 601.558C164.544 586.559 184.315 572.159 209.025 559.372C280.209 522.513 382.822 505.481 513.992 508.753C630.867 511.461 763.022 529.563 886.093 559.753C939.405 572.825 992.508 587.486 1043.87 601.669C1117 621.87 1192.64 642.752 1267.96 658.699C1365.2 679.284 1448.91 688.602 1531.38 688.025C1596.94 687.558 1663.97 679.496 1728.23 665.084L1728.72 661.634C1664.11 676.329 1596.6 684.543 1530.57 684.996C1448.7 685.573 1365.55 676.305 1268.91 655.846C1193.83 639.954 1118.32 619.101 1045.29 598.935C993.875 584.735 940.705 570.053 887.292 556.957C763.666 526.635 630.896 508.446 513.449 505.729C381.133 502.43 277.536 519.656 205.525 556.94C179.89 570.233 159.515 585.205 143.04 600.785L148.465 601.558Z" fill="#03121D"/>
<path d="M133.931 599.487C148.941 584.659 167.378 570.456 190.358 557.725C261.538 518.327 364.515 500.448 496.451 504.582C614.495 508.115 748.866 528.872 874.782 563.031C929.395 577.844 984.012 594.466 1036.83 610.539C1112.08 633.444 1189.9 657.123 1267.61 675.479C1367.47 699.269 1453.68 710.875 1538.91 711.989C1601 712.814 1663.75 706.911 1723.93 695.25L1724.39 691.983C1663.91 703.871 1600.77 709.898 1538.31 709.073C1453.67 707.96 1368.01 696.432 1268.74 672.778C1191.27 654.477 1113.56 630.835 1038.43 607.967C985.564 591.877 930.897 575.248 876.167 560.397C749.681 526.084 614.664 505.224 496.013 501.667C362.899 497.501 258.917 515.593 186.925 555.429C163.08 568.621 144.094 583.373 128.728 598.745L133.931 599.487Z" fill="#020D16"/>
<path d="M118.884 597.343C133.873 581.687 151.317 568.104 171.707 556.081C242.778 514.149 346.138 495.416 478.925 500.413C598.156 504.783 734.743 528.186 863.504 566.323C919.467 582.897 975.6 601.458 1029.91 619.404C1107.27 644.972 1187.25 671.414 1267.3 692.277C1368.58 718.798 1459.89 733.095 1546.47 735.968C1604.94 737.801 1663.51 733.768 1719.74 724.617L1720.18 721.534C1663.71 730.871 1604.82 734.994 1546.04 733.158C1460.03 730.294 1369.27 716.085 1268.54 689.706C1188.71 668.905 1108.84 642.5 1031.59 616.97C977.255 599.009 921.055 580.427 864.973 563.827C735.612 525.51 598.379 501.994 478.524 497.608C344.541 492.576 240.159 511.52 168.272 553.92C147.234 566.342 129.254 580.391 113.903 596.633L118.884 597.343Z" fill="#01090F"/>
<path d="M103.685 595.177C117.639 579.822 133.98 566.407 153.055 554.447C223.948 509.982 327.706 490.407 461.418 496.246C581.507 501.429 720.309 527.488 852.26 569.621C908.985 587.817 966.122 608.121 1021.37 627.748C1101.37 656.167 1184.09 685.559 1267.02 709.077C1373.09 739.217 1464.3 755.391 1554.06 759.96C1608.76 762.677 1663.24 760.318 1715.64 753.42L1716.05 750.512C1663.44 757.547 1608.72 759.987 1553.75 757.241C1464.56 752.702 1373.88 736.623 1268.34 706.633C1185.63 683.187 1103.01 653.83 1023.13 625.448C967.827 605.804 910.64 585.483 853.799 567.249C721.249 524.926 581.767 498.749 461.055 493.541C326.116 487.642 221.35 507.45 149.656 552.406C129.988 564.741 113.2 578.605 98.9256 594.498L103.685 595.177Z" fill="#010407"/>
<path d="M88.4004 592.998C100.886 578.543 115.969 565.042 134.369 552.808C297.053 444.625 616.705 496.028 840.982 572.913C899.147 592.851 957.919 615.122 1014.74 636.665C1188.86 702.651 1368.91 770.893 1561.62 783.928C1612.36 787.366 1662.73 786.49 1711.63 781.558L1712.06 778.558C1663.25 783.691 1612.57 784.794 1561.45 781.334C1369.79 768.365 1190.22 700.306 1016.56 634.491C959.692 612.94 900.889 590.644 842.625 570.671C755.485 540.806 654.066 514.778 552.889 500.359C392.023 477.435 231.831 483.859 131.058 550.884C112.08 563.505 96.6063 577.431 83.8456 592.349L88.4004 592.998Z" fill="black"/>
</g>
</svg>
