<svg width="60" height="60" viewBox="0 0 60 60" fill="none" xmlns="http://www.w3.org/2000/svg">
<g clip-path="url(#clip0_1286_55196)">
<path d="M30 60C46.5685 60 60 46.5685 60 30C60 13.4315 46.5685 0 30 0C13.4315 0 0 13.4315 0 30C0 46.5685 13.4315 60 30 60Z" fill="#60B0FF"/>
<path d="M59.2183 23.1618L51.7322 15.6758C51.7322 15.6758 45.4113 26.1484 44.8598 26.4461L34.0697 15.6758C34.0697 15.6758 26.4193 23.068 27.5583 24.0506C26.9707 24.285 25.7447 24.1442 25.1932 24.4421L16.4072 15.6758L3.21484 32.6907L13.2565 42.6417C13.0362 43.2658 11.7534 46.1327 11.7534 46.1327L25.2416 59.621C26.792 59.8681 28.3816 59.9983 30.0016 59.9983C46.5701 59.9983 60.0016 46.5669 60.0016 29.9983C60.0014 27.6464 59.7302 25.3579 59.2183 23.1618Z" fill="#4190DD"/>
<path d="M55.1298 25.7053C53.6713 23.9153 49.3039 22.3242 47.663 22.3242C46.0222 22.3242 41.6548 23.9154 40.1964 25.7053C38.8861 27.3135 38.5391 28.5627 38.5391 29.7786V32.6913H56.7873C56.7873 32.6913 56.7873 30.9945 56.7873 29.7786C56.7871 28.5627 56.4402 27.3135 55.1298 25.7053Z" fill="#FFA300"/>
<path d="M47.663 24.5213C50.6223 24.5213 53.0212 22.1223 53.0212 19.163C53.0212 16.2037 50.6223 13.8047 47.663 13.8047C44.7037 13.8047 42.3047 16.2037 42.3047 19.163C42.3047 22.1223 44.7037 24.5213 47.663 24.5213Z" fill="white"/>
<path d="M19.8057 25.7053C18.3471 23.9153 13.9798 22.3242 12.3389 22.3242C10.6981 22.3242 6.33086 23.9154 4.87223 25.7053C3.56184 27.3135 3.21484 28.5627 3.21484 29.7786V32.6913H21.463C21.463 32.6913 21.463 30.9945 21.463 29.7786C21.463 28.5627 21.1161 27.3135 19.8057 25.7053Z" fill="#FFCE00"/>
<path d="M12.3387 24.5213C15.298 24.5213 17.697 22.1223 17.697 19.163C17.697 16.2037 15.298 13.8047 12.3387 13.8047C9.37945 13.8047 6.98047 16.2037 6.98047 19.163C6.98047 22.1223 9.37945 24.5213 12.3387 24.5213Z" fill="white"/>
<path d="M37.4697 25.7053C36.0112 23.9153 31.6439 22.3242 30.003 22.3242C28.3621 22.3242 23.9948 23.9154 22.5363 25.7053C21.2259 27.3135 20.8789 28.5627 20.8789 29.7786V32.6913H39.1271C39.1271 32.6913 39.1271 30.9945 39.1271 29.7786C39.1271 28.5627 38.78 27.3135 37.4697 25.7053Z" fill="#FFCE00"/>
<path d="M39.1242 29.7785V32.6918H30V22.3242C30.7641 22.3242 32.1211 22.6687 33.498 23.2195C35.0789 23.85 36.6879 24.7488 37.4672 25.7051C38.7773 27.3129 39.1242 28.5621 39.1242 29.7785Z" fill="#FFA300"/>
<path d="M30.0028 24.5213C32.9621 24.5213 35.3611 22.1223 35.3611 19.163C35.3611 16.2037 32.9621 13.8047 30.0028 13.8047C27.0435 13.8047 24.6445 16.2037 24.6445 19.163C24.6445 22.1223 27.0435 24.5213 30.0028 24.5213Z" fill="white"/>
<path d="M46.5946 39.1467C45.1361 37.3567 40.7688 35.7656 39.1279 35.7656C37.487 35.7656 33.1198 37.3568 31.6612 39.1467C30.3509 40.7549 30.0039 42.0041 30.0039 43.22C30.0039 44.436 30.0039 46.1327 30.0039 46.1327H48.2521C48.2521 46.1327 48.2521 44.4359 48.2521 43.22C48.2521 42.0042 47.905 40.7549 46.5946 39.1467Z" fill="#FFA300"/>
<path d="M39.1278 37.9627C42.0871 37.9627 44.4861 35.5637 44.4861 32.6044C44.4861 29.6451 42.0871 27.2461 39.1278 27.2461C36.1685 27.2461 33.7695 29.6451 33.7695 32.6044C33.7695 35.5637 36.1685 37.9627 39.1278 37.9627Z" fill="white"/>
<path d="M28.3446 39.1467C26.8861 37.3567 22.5188 35.7656 20.878 35.7656C19.2371 35.7656 14.8699 37.3568 13.4113 39.1467C12.1009 40.7549 11.7539 42.0041 11.7539 43.22C11.7539 44.436 11.7539 46.1327 11.7539 46.1327H30.002C30.002 46.1327 30.002 44.4359 30.002 43.22C30.002 42.0042 29.655 40.7549 28.3446 39.1467Z" fill="#FFCE00"/>
<path d="M20.8778 37.9627C23.8371 37.9627 26.2361 35.5637 26.2361 32.6044C26.2361 29.6451 23.8371 27.2461 20.8778 27.2461C17.9185 27.2461 15.5195 29.6451 15.5195 32.6044C15.5195 35.5637 17.9185 37.9627 20.8778 37.9627Z" fill="white"/>
<path d="M35.3578 19.1625C35.3578 20.7844 34.6371 22.2387 33.498 23.2207C32.5594 24.0305 31.3359 24.5203 30 24.5203V13.8047C32.959 13.8047 35.3578 16.2035 35.3578 19.1625Z" fill="#D0D0D0"/>
</g>
<defs>
<clipPath id="clip0_1286_55196">
<rect width="60" height="60" fill="white"/>
</clipPath>
</defs>
</svg>
