<svg width="945" height="579" viewBox="0 0 945 579" fill="none" xmlns="http://www.w3.org/2000/svg">
<g opacity="0.03">
<path d="M8.19623 439.17C65.9314 422.985 127.613 417.678 188.302 424.688C213.822 427.64 239.95 432.721 265.224 437.627C324.087 449.073 384.953 460.906 442.527 446.677C492.215 434.399 534.833 404.709 572.827 355.922C604.94 314.678 629.622 265.355 654.164 214.203C695.102 128.866 763.115 14.2836 880.638 4.49162C902.223 2.69921 923.4 4.69041 944.23 9.25145L945.002 5.48754C923.802 0.850667 902.201 -1.16442 880.119 0.675217C760.495 10.6419 691.691 126.367 650.347 212.556C607.002 302.91 553.063 415.355 441.325 442.972C384.699 456.964 324.335 445.233 265.95 433.878C240.595 428.947 214.377 423.848 188.679 420.883C125.004 413.52 60.2419 419.61 0.000765462 437.49L8.19623 439.17Z" fill="#1173BF"/>
<path d="M30.0128 443.643C43.7785 440.004 57.7071 436.949 71.7357 434.535C108.592 428.233 145.489 426.326 181.389 428.867C207.448 430.656 234.385 434.756 260.441 438.73C271.513 440.418 282.951 442.157 294.281 443.718C346.936 450.975 390.881 453.759 434.196 443.735C482.794 432.429 524.851 406.27 562.772 363.772C600.556 321.694 629.419 269.015 652.605 226.695C672.472 190.58 690.704 162.1 709.997 137.06C763.2 67.6462 820.542 30.3161 885.296 22.927C898.18 21.4575 911.491 21.2073 924.86 22.1794C930.339 22.5716 935.789 23.1858 941.215 23.9602L941.969 20.2792C936.354 19.4661 930.71 18.8358 925.038 18.4275C911.4 17.4316 897.814 17.6883 884.658 19.1885C818.737 26.7079 760.506 64.5317 706.638 134.807C687.231 159.989 668.9 188.614 648.947 224.9C625.847 267.057 597.092 319.537 559.585 361.311C522.208 403.205 480.823 428.967 433.07 440.077C390.411 449.952 346.915 447.19 294.744 439.993C283.456 438.441 272.028 436.696 260.972 435.011C234.833 431.028 207.796 426.908 181.559 425.114C145.313 422.548 108.07 424.471 70.8584 430.834C54.3 433.68 37.887 437.405 21.7104 441.941L30.0128 443.643Z" fill="#106FB8"/>
<path d="M50.3245 447.805C56.2648 446.28 62.2194 444.852 68.1904 443.553C103.914 435.84 139.673 432.3 174.47 433.036C201.617 433.61 228.739 436.56 257.452 439.687C266.542 440.678 275.943 441.702 285.294 442.636C330.919 447.21 379.36 450.829 425.86 440.775C474.803 430.082 517.654 405.736 556.874 366.342C593.14 329.91 620.975 287.184 651.034 239.16C672.255 205.507 691.554 178.676 711.754 154.726C768.325 87.6453 826.612 50.5485 889.958 41.338C902.733 39.4844 915.888 38.7386 929.068 39.1296C932.066 39.2099 935.05 39.3655 938.025 39.559L938.772 35.9157C935.545 35.6944 932.306 35.5334 929.053 35.4403C915.626 35.0457 902.22 35.803 889.198 37.6924C824.837 47.0484 765.751 84.5712 708.557 152.396C688.252 176.483 668.867 203.437 647.55 237.227C617.603 285.078 589.891 327.625 553.884 363.796C515.193 402.654 472.978 426.658 424.815 437.181C378.924 447.109 330.873 443.507 285.583 438.97C276.249 438.039 266.866 437.011 257.783 436.022C228.97 432.882 201.756 429.92 174.422 429.339C139.293 428.599 103.203 432.165 67.1471 439.951C58.7638 441.777 50.3918 443.842 42.0648 446.104L50.3261 447.797L50.3245 447.805Z" fill="#106AB0"/>
<path d="M68.5997 451.549C102.086 443.008 135.353 438.172 167.546 437.194C196.421 436.315 225.713 438.248 256.722 440.29C263.196 440.713 269.72 441.147 276.309 441.554C320.238 444.288 370.03 447.382 417.518 437.813C466.949 427.707 510.594 405.167 550.96 368.916C590.728 333.202 621.926 289.86 649.449 251.621C671.354 221.19 692.308 195.272 713.49 172.379C773.482 107.58 832.72 70.7328 894.603 59.7604C907.26 57.5211 920.268 56.2815 933.268 56.0855C933.724 56.0767 934.177 56.0831 934.632 56.0743L935.375 52.4537C934.602 52.4605 933.831 52.4597 933.058 52.474C919.843 52.6731 906.607 53.9369 893.736 56.2186C830.973 67.3485 771.024 104.569 710.464 170.006C689.184 193.004 668.148 219.031 646.151 249.577C618.726 287.672 587.647 330.849 548.163 366.307C508.319 402.099 465.257 424.342 416.541 434.303C369.59 443.762 322.227 440.812 276.428 437.963C269.847 437.557 263.332 437.126 256.859 436.695C225.749 434.648 196.355 432.709 167.275 433.586C133.495 434.615 98.5571 439.833 63.425 449.089C62.446 449.352 61.4736 449.624 60.4931 449.895L68.5982 451.557L68.5997 451.549Z" fill="#0F66A9"/>
<path d="M84.4138 454.795C110.222 447.942 135.354 443.513 160.635 441.362C192.219 438.672 224.941 439.462 259.58 440.298L267.319 440.486C271.189 440.579 275.075 440.676 278.969 440.775C321.606 441.876 365.692 443.007 409.185 434.874C459.104 425.356 503.543 404.629 545.048 371.512C586.206 338.669 620.394 297.331 647.863 264.119C671.062 236.067 693.098 211.849 715.233 190.072C779.824 126.529 838.299 90.9799 899.255 78.1826C909.7 75.9929 920.369 74.4624 931.05 73.5473L931.801 69.8814C920.547 70.7969 909.293 72.4198 898.284 74.7295C836.569 87.6778 777.506 123.547 712.39 187.602C690.169 209.464 668.055 233.769 644.777 261.914C617.41 295.006 583.348 336.189 542.476 368.807C501.463 401.531 457.562 422.014 408.294 431.406C365.228 439.461 321.365 438.329 278.948 437.242C275.046 437.141 271.16 437.044 267.29 436.951L259.551 436.763C224.792 435.925 191.961 435.129 160.158 437.837C132.464 440.185 104.977 445.24 76.6047 453.194L84.4138 454.795Z" fill="#0E61A2"/>
<path d="M97.5661 457.491C116.548 452.139 135.144 448.17 153.72 445.509C186.408 440.821 220.434 439.968 258.326 439.397C266.883 439.272 275.716 439.22 284.247 439.177C322.373 438.968 361.802 438.751 400.839 431.922C450.334 423.259 496.86 403.802 539.122 374.094C578.805 346.191 611.124 313.43 646.265 276.595C670.781 250.889 693.908 228.371 716.974 207.736C763.925 165.729 827.599 115.141 903.907 96.6011C911.533 94.753 919.359 93.2213 927.275 91.9595L928.025 88.3012C919.481 89.6151 911.043 91.2494 902.831 93.2443C825.71 111.987 761.571 162.92 714.305 205.208C691.176 225.901 667.985 248.484 643.404 274.256C608.392 310.96 576.202 343.598 536.781 371.311C494.968 400.702 448.957 419.951 400.022 428.516C361.312 435.294 322.055 435.507 284.101 435.712C275.552 435.76 266.718 435.812 258.137 435.931C220.099 436.504 185.936 437.36 153.018 442.08C132.244 445.06 111.448 449.647 90.135 455.968L97.5661 457.491Z" fill="#0E5D9A"/>
<path d="M107.956 459.621C121.081 455.599 133.991 452.288 146.805 449.657C180.456 442.737 215.976 440.115 249.331 438.315C262.357 437.614 275.35 437.204 289.103 436.761C322.883 435.685 357.82 434.57 392.512 428.965C442.404 420.911 489.74 403.309 533.2 376.66C574.927 351.071 609.735 320.62 644.66 289.062C670.543 265.671 694.771 244.842 718.714 225.4C772.124 182.014 836.451 134.97 908.552 115.018C913.446 113.663 918.363 112.455 923.306 111.322L924.065 107.619C918.464 108.868 912.917 110.23 907.378 111.759C834.622 131.899 769.918 179.196 716.221 222.814C692.234 242.302 667.965 263.162 642.03 286.597C607.222 318.046 572.548 348.382 531.084 373.821C488.035 400.216 441.154 417.652 391.749 425.625C357.305 431.187 322.498 432.297 288.839 433.367C275.061 433.804 262.051 434.218 248.982 434.919C215.47 436.734 179.776 439.368 145.875 446.338C131.084 449.381 116.179 453.313 100.961 458.187L107.956 459.621Z" fill="#0D5893"/>
<path d="M115.693 461.203C123.86 458.429 131.922 455.955 139.886 453.791C167.735 446.217 198.719 441.109 240.339 437.222C257.821 435.595 275.504 434.661 294.226 433.665C323.61 432.104 353.989 430.488 384.184 426.012C434.458 418.562 482.602 402.824 527.279 379.223C571.666 355.782 608.808 327.988 643.058 301.518C670.955 279.963 695.544 261.384 720.46 243.046C779.603 199.522 843.207 155.207 913.19 133.429C915.166 132.813 917.15 132.245 919.137 131.662L919.907 127.905C917.24 128.671 914.587 129.456 911.934 130.28C841.411 152.229 777.528 196.731 718.145 240.426C693.209 258.776 668.591 277.372 640.673 298.946C606.545 325.323 569.534 353.019 525.397 376.33C481.086 399.731 433.336 415.346 383.486 422.733C353.459 427.18 323.175 428.793 293.887 430.35C275.13 431.346 257.411 432.288 239.851 433.923C198.003 437.834 166.822 442.98 138.756 450.612C129.04 453.258 119.2 456.341 109.181 459.876L115.692 461.211L115.693 461.203Z" fill="#0C548C"/>
<path d="M120.928 462.28C124.958 460.756 128.965 459.298 132.956 457.924C161.233 448.221 192.496 441.291 231.329 436.126C253.244 433.222 275.775 431.663 299.626 430.013C324.518 428.294 350.263 426.513 375.848 423.049C426.451 416.21 475.407 402.32 521.342 381.775C566.965 361.37 606.018 337.126 641.43 313.968C667.207 297.111 694.379 279.18 722.194 260.697L730.526 255.151C786.074 218.176 848.912 176.345 914.776 152.929L915.556 149.127C848.494 172.533 784.711 215.004 728.408 252.492L720.075 258.038C692.276 276.525 665.107 294.448 639.339 311.299C604.045 334.38 565.131 358.534 519.724 378.841C474.101 399.246 425.49 413.042 375.231 419.834C349.762 423.274 324.086 425.053 299.254 426.769C275.342 428.423 252.752 429.985 230.722 432.905C191.633 438.104 160.146 445.082 131.639 454.863C126.081 456.781 120.511 458.839 114.886 461.042L120.928 462.28Z" fill="#0C5084"/>
<path d="M124.01 462.912C124.686 462.626 125.354 462.331 126.028 462.052C154.686 450.03 185.286 441.448 222.336 435.037C248.647 430.496 276.19 428.298 305.347 425.959C325.665 424.332 346.67 422.648 367.535 420.103C418.406 413.877 468.173 401.843 515.429 384.335C555.26 369.581 592.465 352.261 639.826 326.427C668.855 310.591 696.38 294.862 723.955 278.35C734.695 271.921 745.496 265.317 756.933 258.332C804.059 229.51 857.043 197.143 910.221 175.15L911.011 171.296C856.816 193.402 802.871 226.366 754.945 255.661C743.517 262.647 732.725 269.246 721.995 275.669C694.459 292.157 666.982 307.864 637.984 323.676C590.777 349.423 553.712 366.686 514.039 381.378C467.042 398.79 417.556 410.755 366.956 416.951C346.177 419.498 325.207 421.172 304.925 422.799C275.682 425.136 248.058 427.349 221.579 431.919C184.264 438.37 153.417 447.027 124.506 459.155C122.482 460.005 120.461 460.88 118.429 461.768L124.01 462.912Z" fill="#0B4B7D"/>
<path d="M125.235 463.163C152.063 450.334 180.249 440.989 213.31 433.941C243.994 427.412 276.733 424.605 311.399 421.635C327.023 420.295 343.18 418.907 359.189 417.15C410.208 411.544 460.776 401.364 509.485 386.882C552.566 374.075 593.468 358.817 638.185 338.863C668.665 325.265 697.289 311.24 725.674 295.994C745.173 285.529 765.107 274.116 786.206 262.03C825.189 239.713 865.284 216.776 905.494 198.209L906.29 194.324C865.157 213.134 824.176 236.59 784.369 259.374C763.281 271.446 743.367 282.848 723.915 293.291C695.598 308.496 667.051 322.482 636.637 336.054C592.053 355.941 551.29 371.149 508.353 383.922C459.845 398.344 409.491 408.481 358.682 414.068C342.715 415.825 326.577 417.209 310.978 418.546C276.198 421.532 243.354 424.349 212.447 430.919C177.666 438.338 148.226 448.282 120.097 462.11L125.235 463.163Z" fill="#0A4776"/>
<path d="M124.939 463.103C149.439 450.016 175.008 440.276 204.302 432.841C239.338 423.966 277.499 420.659 317.892 417.165C328.678 416.233 339.84 415.267 350.871 414.188C401.75 409.22 453.122 400.888 503.562 389.409C552.133 378.356 594.396 366.239 636.565 351.28C668.379 339.991 698.099 327.676 727.421 313.628C756.686 299.608 786.882 283.052 818.843 265.529C845.757 250.776 873.327 235.662 900.615 222.007L901.413 218.115C873.275 232.114 844.837 247.702 817.102 262.909C785.178 280.415 755.021 296.948 725.833 310.929C696.616 324.927 666.998 337.201 635.295 348.449C593.247 363.362 551.102 375.449 502.666 386.466C452.37 397.912 401.147 406.228 350.409 411.177C339.396 412.252 328.252 413.214 317.474 414.148C276.933 417.658 238.632 420.976 203.324 429.921C172.539 437.735 145.83 448.065 120.155 462.122L124.939 463.103Z" fill="#0A426E"/>
<path d="M123.369 462.781C145.71 449.526 169.001 439.493 195.284 431.747C234.68 420.158 278.516 416.537 324.93 412.705C330.785 412.224 336.666 411.739 342.552 411.233C392.447 406.967 444.624 400.474 497.639 391.936C554.579 382.764 595.643 374.323 634.946 363.689C668.063 354.734 698.882 344.122 729.17 331.255C769.656 314.057 813.369 290.518 855.646 267.76C868.836 260.663 882.247 253.446 895.616 246.393L896.41 242.524C882.219 249.99 867.969 257.664 853.961 265.199C811.742 287.928 768.096 311.427 727.742 328.565C697.595 341.375 666.915 351.937 633.943 360.85C594.759 371.446 553.802 379.869 496.978 389.018C444.043 397.541 391.945 404.027 342.138 408.279C336.262 408.78 330.389 409.266 324.526 409.746C277.938 413.589 233.937 417.223 194.212 428.91C166.613 437.062 142.286 447.677 118.897 461.864L123.369 462.781Z" fill="#093E67"/>
<path d="M120.747 462.243C141.135 448.903 162.443 438.644 186.251 430.642C230.052 415.947 279.878 412.273 332.625 408.388L334.216 408.274C390.677 404.113 443.281 399.169 491.718 394.455C546.511 389.111 588.741 384.674 633.329 376.09C667.733 369.467 699.655 360.574 730.917 348.889C782.42 329.635 837.228 300.195 890.532 271.194L891.315 267.378C837.334 296.751 781.745 326.745 729.659 346.21C698.564 357.835 666.813 366.685 632.589 373.266C588.145 381.817 545.992 386.254 491.279 391.583C442.866 396.302 390.28 401.241 333.864 405.396L332.273 405.51C279.308 409.413 229.292 413.095 185.095 427.921C160.125 436.329 137.886 447.16 116.579 461.389L120.747 462.243Z" fill="#093A60"/>
<path d="M117.204 461.517C135.793 448.138 155.127 437.891 177.226 429.539C221.191 412.96 272.635 408.619 325.898 405.311C391.792 401.221 444.097 398.487 485.801 396.952C493.542 396.669 501.159 396.407 508.69 396.151C551.157 394.693 591.277 393.321 631.724 388.471C667.404 384.192 700.425 377.002 732.668 366.501C782.68 350.218 836.162 323.321 885.392 296.267L886.158 292.533C836.399 319.95 782.156 347.383 731.566 363.854C699.515 374.292 666.7 381.438 631.224 385.688C590.916 390.528 550.865 391.898 508.468 393.346C500.938 393.602 493.321 393.864 485.579 394.148C443.842 395.676 391.511 398.413 325.591 402.505C272.077 405.824 220.362 410.196 175.988 426.927C152.849 435.679 132.714 446.485 113.316 460.72L117.204 461.517Z" fill="#083558"/>
<path d="M113.02 460.659C130.029 447.341 147.883 436.964 168.192 428.441C209.891 410.965 258.071 405.374 317.577 402.363C375.412 399.435 431.543 398.429 479.906 399.469C493.338 399.755 506.541 400.159 519.318 400.546C557.403 401.704 593.379 402.791 630.127 400.861C667.075 398.917 701.191 393.445 734.425 384.129C783.709 370.314 835.082 346.011 880.235 321.423L880.979 317.794C835.428 342.734 783.344 367.536 733.479 381.514C700.473 390.767 666.577 396.205 629.855 398.133C593.237 400.058 557.33 398.969 519.312 397.817C506.535 397.43 493.314 397.031 479.865 396.742C431.426 395.701 375.219 396.7 317.313 399.637C257.478 402.666 208.997 408.306 166.887 425.949C145.65 434.863 127.078 445.777 109.354 459.908L113.02 460.659Z" fill="#073151"/>
<path d="M108.26 459.683C123.87 446.464 140.396 436.003 159.149 427.342C205.116 406.135 260.821 401.316 309.259 399.401C366.201 397.154 423.169 398.041 474.015 401.964C491.014 403.279 507.672 404.832 523.783 406.342C559.696 409.696 593.617 412.869 628.542 413.23C666.757 413.628 701.97 409.867 736.185 401.742C783.537 390.495 831.952 369.342 875.111 346.42L875.828 342.92C832.297 366.198 783.269 387.791 735.378 399.164C701.397 407.234 666.429 410.967 628.47 410.574C593.672 410.216 559.811 407.047 523.965 403.699C507.845 402.195 491.171 400.631 474.146 399.318C423.183 395.379 366.087 394.49 309.032 396.745C260.301 398.671 204.221 403.523 157.788 424.956C138.192 434.01 121.003 444.988 104.767 458.967L108.26 459.683Z" fill="#072C49"/>
<path d="M102.975 458.6C117.342 445.511 132.71 435.016 150.108 426.235C197.624 402.28 255.68 397.731 300.941 396.438C372.754 394.394 431.495 399.669 468.125 404.458C487.587 407.002 506.634 409.94 525.067 412.783C559.931 418.162 592.87 423.24 626.965 425.6C666.981 428.372 702.251 426.383 737.953 419.357C784.914 410.105 830.693 391.406 870.008 371.311L870.693 367.97C831.109 388.371 784.786 407.469 737.273 416.828C701.837 423.806 666.819 425.777 627.074 423.021C593.105 420.671 560.234 415.599 525.427 410.232C506.986 407.387 487.913 404.451 468.418 401.901C431.671 397.096 372.763 391.802 300.75 393.86C255.188 395.162 196.72 399.753 148.699 423.958C130.546 433.119 114.594 444.122 99.6868 457.926L102.975 458.6Z" fill="#062842"/>
<path d="M97.3195 457.44C110.581 444.518 124.875 434 141.057 425.134C178.384 404.711 226.546 394.651 292.621 393.483C348.818 392.49 409.057 397.27 462.25 406.956C483.497 410.824 504.33 415.245 524.473 419.523C558.948 426.842 591.528 433.757 625.399 437.965C666.685 443.104 703.008 442.784 739.715 436.963C779.28 430.69 822.255 416.439 864.978 395.849L865.632 392.658C822.502 413.645 779.08 428.158 739.169 434.485C702.738 440.261 666.673 440.57 625.669 435.474C591.925 431.276 559.411 424.375 524.992 417.075C504.823 412.799 483.975 408.368 462.677 404.497C409.301 394.781 348.853 389.982 292.467 390.975C225.91 392.155 177.333 402.318 139.599 422.973C122.742 432.203 107.913 443.201 94.1712 456.795L97.3195 457.44Z" fill="#05233B"/>
<path d="M91.2693 456.2C103.543 443.46 116.897 432.97 132.004 424.041C169.924 401.648 218.32 390.992 284.31 390.529C340.796 390.13 401.921 396.852 456.386 409.448C478.997 414.681 501.206 420.625 522.692 426.373C557.21 435.611 589.822 444.332 623.858 450.327C666.408 457.824 703.786 459.175 741.501 454.574C779.252 449.965 820.021 437.824 860.061 419.835L860.681 416.81C820.304 435.147 779.13 447.511 741.056 452.148C703.631 456.714 666.517 455.37 624.256 447.925C590.345 441.948 557.799 433.24 523.337 424.022C501.834 418.27 479.593 412.319 456.94 407.078C402.255 394.429 340.903 387.684 284.194 388.085C217.697 388.554 168.867 399.325 130.527 421.97C114.805 431.267 100.971 442.218 88.269 455.585L91.2693 456.2Z" fill="#051F33"/>
<path d="M84.9562 454.906C96.3486 442.371 108.815 431.91 122.945 422.938C160.804 398.922 210.861 387.349 275.992 387.566C332.838 387.752 394.825 396.412 450.523 411.933C474.199 418.531 497.534 426.003 520.087 433.228C554.923 444.386 587.83 454.928 622.302 462.678C666.1 472.529 704.55 475.546 743.264 472.172C779.529 469.003 817.816 459.065 855.184 443.625L855.773 440.751C818.112 456.493 779.493 466.63 742.941 469.819C704.514 473.173 666.358 470.185 622.831 460.39C588.482 452.664 555.632 442.141 520.86 431.005C498.273 423.773 474.924 416.29 451.191 409.68C395.257 394.095 333.004 385.397 275.918 385.209C210.264 384.994 159.736 396.691 121.453 420.982C106.763 430.303 93.8562 441.199 82.0874 454.318L84.9562 454.906Z" fill="#041B2C"/>
<path d="M78.3308 453.548C88.9353 441.22 100.631 430.838 113.885 421.843C152.262 395.795 202.571 383.621 267.68 384.613C324.623 385.29 387.482 395.881 444.675 414.428C469.221 422.384 493.461 431.369 516.914 440.06C550.724 452.587 585.681 465.538 620.778 475.044C665.84 487.253 705.337 491.93 745.06 489.777C779.631 487.896 815.506 479.947 850.412 466.903L850.964 464.21C815.818 477.504 779.656 485.598 744.827 487.489C705.398 489.624 666.171 484.97 621.4 472.845C586.416 463.37 553.076 451.018 517.77 437.932C494.292 429.237 470.019 420.244 445.427 412.263C387.985 393.634 324.836 382.999 267.637 382.317C201.982 381.315 151.189 393.634 112.374 419.977C97.6478 429.975 85.6088 441.277 75.61 452.99L78.3308 453.548Z" fill="#031625"/>
<path d="M71.5408 452.156C80.6843 441.022 91.6007 430.307 104.824 420.748C142.919 393.196 194.919 380.041 259.371 381.652C316.814 382.935 380.555 395.451 438.837 416.917C464.085 426.212 489.101 436.677 513.296 446.801C547.746 461.22 583.382 476.126 619.255 487.402C665.567 501.957 706.117 508.305 746.848 507.38C779.232 506.639 812.952 500.299 845.82 489.305L846.341 486.763C813.276 497.969 779.309 504.422 746.695 505.156C706.257 506.078 665.982 499.763 619.953 485.297C584.191 474.059 548.62 459.175 514.216 444.781C489.997 434.644 464.95 424.165 439.654 414.853C381.108 393.293 317.072 380.716 259.346 379.43C194.332 377.806 141.83 391.11 103.293 418.98C89.573 428.917 78.3125 440.056 68.9268 451.62L71.5408 452.156Z" fill="#03121D"/>
<path d="M64.5376 450.72C73.1399 439.719 83.3826 429.157 95.7472 419.65C134.045 390.229 186.294 376.449 251.053 378.689C309.007 380.572 373.626 395.029 432.992 419.398C458.741 429.966 484.346 441.864 509.106 453.369C544.384 469.766 580.868 486.716 617.726 499.751C665.073 516.649 706.669 524.665 748.63 524.967C779.197 525.196 810.633 520.472 841.264 511.527L841.758 509.12C810.954 518.235 779.319 523.052 748.572 522.825C706.903 522.52 665.571 514.558 618.503 497.756C581.757 484.761 545.328 467.837 510.104 451.468C485.321 439.95 459.692 428.046 433.888 417.451C374.253 392.973 309.324 378.444 251.072 376.547C185.734 374.29 132.972 388.233 94.2392 417.981C81.4099 427.833 70.8524 438.802 62.0304 450.206L64.5376 450.72Z" fill="#020D16"/>
<path d="M57.287 449.234C65.9458 437.623 75.6481 427.524 86.678 418.553C125.127 387.269 177.633 372.858 242.743 375.728C301.215 378.22 366.714 394.61 427.162 421.889C453.435 433.744 479.632 447.06 504.976 459.935C541.08 478.277 578.409 497.248 616.22 512.112C664.048 531.011 707.942 540.976 750.428 542.564C779.124 543.558 808.346 540.235 836.829 533.16L837.295 530.889C808.68 538.102 779.29 541.494 750.44 540.499C708.236 538.914 664.603 529.01 617.038 510.213C579.329 495.393 542.055 476.449 506.005 458.134C480.646 445.248 454.418 431.917 428.089 420.043C367.358 392.636 301.55 376.166 242.771 373.667C177.074 370.778 124.047 385.35 85.1581 416.984C73.776 426.252 63.7712 436.698 54.8867 448.742L57.287 449.234Z" fill="#01090F"/>
<path d="M49.9631 447.732C58.0867 436.35 67.2315 426.38 77.6078 417.464C116.173 384.318 168.943 369.284 234.441 372.769C293.272 375.853 359.649 394.184 421.349 424.383C447.866 437.428 474.418 452.02 500.093 466.125C537.269 486.55 575.707 507.674 614.722 524.475C664.622 546.007 708.319 557.354 752.232 560.171C779 561.838 806.071 559.772 832.48 554.378L832.919 552.236C806.395 557.732 779.2 559.859 752.299 558.172C708.665 555.374 665.22 544.094 615.572 522.669C576.657 505.92 538.266 484.821 501.144 464.423C475.446 450.305 448.872 435.7 422.3 422.629C360.319 392.293 293.616 373.88 234.481 370.78C168.382 367.259 115.095 382.47 76.0955 415.983C65.3964 425.179 55.995 435.481 47.6697 447.262L49.9631 447.732Z" fill="#010407"/>
<path d="M42.598 446.223C49.9248 435.51 58.4556 425.485 68.5211 416.372C157.515 335.785 311.073 371.666 415.519 426.875C442.607 441.191 469.806 457.221 496.101 472.727C576.68 520.222 660.002 569.339 754.031 577.761C778.784 579.982 803.708 579.031 828.231 575.106L828.684 572.896C804.19 576.969 779.095 578.088 754.156 575.853C660.642 567.474 577.541 518.488 497.177 471.116C470.856 455.605 443.644 439.557 416.51 425.215C375.929 403.77 327.992 385.234 279.238 375.24C201.722 359.349 122.17 365.048 67.0427 414.976C56.661 424.378 47.9029 434.719 40.4032 445.773L42.598 446.223Z" fill="black"/>
</g>
</svg>
