<svg width="60" height="60" viewBox="0 0 60 60" fill="none" xmlns="http://www.w3.org/2000/svg">
<g clip-path="url(#clip0_1286_55141)">
<path d="M60 30C60 46.5688 46.5688 60 30 60C13.4312 60 0 46.5688 0 30C0 13.4312 13.4312 0 30 0C46.5688 0 60 13.4312 60 30Z" fill="#60B0FF"/>
<path d="M59.9982 29.9972C59.9982 28.6033 59.9011 27.2318 59.7166 25.8883L45.8739 9.99609L14.4141 50.2967L25.881 59.7147C27.2273 59.8992 28.6011 59.9972 29.9982 59.9972C46.5669 59.9972 59.9982 46.5659 59.9982 29.9972Z" fill="#4190DD"/>
<path d="M43.1247 51.2495H16.8765C14.8587 51.2495 13.2227 49.6139 13.2227 47.596V12.3995C13.2227 10.3817 14.8587 8.74609 16.8765 8.74609H43.1247C45.1425 8.74609 46.7786 10.3817 46.7786 12.3995V47.596C46.7786 49.6139 45.1425 51.2495 43.1247 51.2495Z" fill="#FFC268"/>
<path d="M43.1237 8.74609H29.9492V51.2495H43.1237C45.1415 51.2495 46.7775 49.6139 46.7775 47.596V12.3995C46.7775 10.3817 45.1415 8.74609 43.1237 8.74609Z" fill="#EEA333"/>
<path d="M17.082 12.4805H42.9164V45.6445H17.082V12.4805Z" fill="white"/>
<path d="M29.9531 12.4805H42.9156V45.6445H29.9531V12.4805Z" fill="#FBFBFA"/>
<path d="M19.4883 24.707H40.5152V28.2227H19.4883V24.707Z" fill="#C5E2FF"/>
<path d="M19.4883 30.7578H40.5152V34.2734H19.4883V30.7578Z" fill="#C5E2FF"/>
<path d="M19.4883 36.8086H40.5152V40.3242H19.4883V36.8086Z" fill="#C5E2FF"/>
<path d="M29.9531 24.707H40.5119V28.2227H29.9531V24.707Z" fill="#94BAE0"/>
<path d="M29.9531 30.7617H40.5119V34.2773H29.9531V30.7617Z" fill="#94BAE0"/>
<path d="M29.9531 36.8086H40.5119V40.3242H29.9531V36.8086Z" fill="#94BAE0"/>
<path d="M40.5125 20.3371L37.1566 18.1696L33.8008 20.3371V12.4805H40.5125V20.3371Z" fill="#4190DD"/>
<path d="M40.5117 12.4805H37.1562V18.17L40.5117 20.3371V12.4805Z" fill="#2882CD"/>
</g>
<defs>
<clipPath id="clip0_1286_55141">
<rect width="60" height="60" fill="white"/>
</clipPath>
</defs>
</svg>
