<svg width="566" height="308" viewBox="0 0 566 308" fill="none" xmlns="http://www.w3.org/2000/svg">
<g clip-path="url(#clip0_1227_26953)">
<path fill-rule="evenodd" clip-rule="evenodd" d="M427.464 4.66222C427.049 4.06712 426.448 4.28352 426.822 1.70836C428.221 -2.50928 426.439 2.50038 426.605 1.7841C426.811 3.0284 427.575 2.42248 428.043 2.35539C427.899 2.9137 427.706 3.81393 427.464 4.66222Z" fill="#0D71C7" fill-opacity="0.15"/>
<path fill-rule="evenodd" clip-rule="evenodd" d="M516.317 262.736C519.553 257.358 522.192 251.444 524.781 246.168C526.159 248.293 530.106 271.545 535.559 308.002H523.761C520.188 281.24 517.531 264.644 516.317 262.736Z" fill="#0D71C7" fill-opacity="0.15"/>
<path fill-rule="evenodd" clip-rule="evenodd" d="M526.419 247.308C529.035 242.315 531.465 237.561 533.924 233.949C535.262 235.886 540.039 264.386 546.605 307.999H535.941C531.17 272.2 527.701 249.357 526.419 247.308Z" fill="#0D71C7" fill-opacity="0.15"/>
<path fill-rule="evenodd" clip-rule="evenodd" d="M535.1 232.5C537.305 229.36 539.409 226.378 541.487 223.543C543.948 237.771 546.439 251.811 548.83 265.765C551.263 279.935 553.663 294.033 556 307.969L555.843 307.997H546.256C542.683 283.2 538.889 257.948 535.1 232.498V232.5Z" fill="#0D71C7" fill-opacity="0.15"/>
<path fill-rule="evenodd" clip-rule="evenodd" d="M542.352 222.068C544.193 219.131 545.949 216.519 547.62 214.059C550.788 229.678 553.952 245.127 556.998 260.279C560.073 275.585 563.091 290.716 566 305.553V306.161C563.237 306.682 560.397 307.199 557.481 307.671C555.103 293.625 552.588 279.357 550.051 264.967C547.557 250.818 544.902 236.534 542.352 222.068Z" fill="#0D71C7" fill-opacity="0.15"/>
<path fill-rule="evenodd" clip-rule="evenodd" d="M548.451 212.97C550.027 210.618 551.267 208.244 552.364 205.723C556.219 222.517 560.121 239.165 563.731 255.551L566 265.854V299.052C563.424 286.091 560.75 272.943 558.047 259.658C554.931 244.324 551.709 228.698 548.449 212.972L548.451 212.97Z" fill="#0D71C7" fill-opacity="0.15"/>
<path fill-rule="evenodd" clip-rule="evenodd" d="M553.166 204.769C554.502 202.657 555.701 200.651 556.759 198.441C559.864 211.027 562.96 223.505 566 235.859V260.782L564.694 254.995C560.989 238.558 557.114 221.752 553.166 204.771V204.769Z" fill="#0D71C7" fill-opacity="0.15"/>
<path fill-rule="evenodd" clip-rule="evenodd" d="M557.351 197.519C558.408 195.775 559.131 193.726 559.849 191.688C561.922 199.452 563.972 207.171 566 214.838V232.275C563.136 220.815 560.229 209.222 557.351 197.522V197.519Z" fill="#0D71C7" fill-opacity="0.15"/>
<path fill-rule="evenodd" clip-rule="evenodd" d="M560.621 191.142C561.337 189.37 561.983 187.552 562.442 185.797L566 198.452V211.339C564.224 204.643 562.431 197.907 560.621 191.142Z" fill="#0D71C7" fill-opacity="0.15"/>
<path fill-rule="evenodd" clip-rule="evenodd" d="M562.734 184.404C563.308 182.695 563.763 181.059 564.159 179.594L566 185.88V195.99L562.734 184.404Z" fill="#0D71C7" fill-opacity="0.15"/>
<path fill-rule="evenodd" clip-rule="evenodd" d="M564.285 178.682C564.616 177.132 564.764 175.574 564.973 174.07L566 177.479V184.499L564.285 178.682Z" fill="#0D71C7" fill-opacity="0.15"/>
<path fill-rule="evenodd" clip-rule="evenodd" d="M565.058 173.504C565.204 172.021 565.106 170.357 564.953 168.777L566 172.151V176.615L565.058 173.504Z" fill="#0D71C7" fill-opacity="0.15"/>
<path fill-rule="evenodd" clip-rule="evenodd" d="M564.892 167.69C564.877 166.435 564.614 164.97 564.351 163.418L566 168.711V171.245L564.892 167.69Z" fill="#0D71C7" fill-opacity="0.15"/>
<path fill-rule="evenodd" clip-rule="evenodd" d="M564.323 163.022C564.075 161.7 563.657 160.428 563.176 158.984L565.996 168.06V168.361L564.321 163.022H564.323Z" fill="#0D71C7" fill-opacity="0.15"/>
<path fill-rule="evenodd" clip-rule="evenodd" d="M562.904 158.132C562.321 156.877 561.676 155.503 561.226 154.43C562.812 159.569 564.407 164.709 566 169.837V168.089C564.96 164.771 563.924 161.456 562.904 158.132Z" fill="#0D71C7" fill-opacity="0.15"/>
<path fill-rule="evenodd" clip-rule="evenodd" d="M560.732 153.612C560.048 152.42 559.139 151.078 558.234 149.812C560.827 158.298 563.428 166.778 566.004 175.235V170.691C564.241 164.999 562.477 159.297 560.734 153.612H560.732Z" fill="#0D71C7" fill-opacity="0.15"/>
<path fill-rule="evenodd" clip-rule="evenodd" d="M425.502 307.999C431.776 301.905 437.738 296.236 443.395 290.449C446.877 296.169 450.517 302.07 454.148 307.999H425.502Z" fill="#0D71C7" fill-opacity="0.15"/>
<path fill-rule="evenodd" clip-rule="evenodd" d="M446.623 287.527C453.098 280.723 459.106 275.084 464.759 269.875C471.145 278.674 477.064 287.215 483.309 296.683C480.517 300.102 477.666 303.941 474.683 308.003H459.426C455.126 300.976 450.861 294.183 446.623 287.527Z" fill="#0D71C7" fill-opacity="0.15"/>
<path fill-rule="evenodd" clip-rule="evenodd" d="M467.405 267.085C473.006 262.086 477.939 257.334 482.728 252.762C488.327 260.264 494.071 268.267 499.672 276.161C495.396 281.625 490.677 287.213 485.822 293.386C479.651 284.464 473.741 275.815 467.405 267.085Z" fill="#0D71C7" fill-opacity="0.15"/>
<path fill-rule="evenodd" clip-rule="evenodd" d="M485.049 250.658C489.466 246.791 493.7 242.865 497.665 239.219C502.628 245.791 507.777 252.175 512.992 258.985C509.361 263.466 505.657 268.197 501.71 273.518C496.151 265.855 490.53 257.95 485.047 250.658H485.049Z" fill="#0D71C7" fill-opacity="0.15"/>
<path fill-rule="evenodd" clip-rule="evenodd" d="M511.425 225.804C514.465 222.794 517.457 220.109 520.347 217.512C524.444 222.361 528.92 227.696 533.004 232.852C530.689 235.964 528.001 239.288 525.323 243.075C520.671 236.986 516.127 231.675 511.425 225.804Z" fill="#0D71C7" fill-opacity="0.15"/>
<path fill-rule="evenodd" clip-rule="evenodd" d="M522.025 216.622C524.608 214.094 527.221 211.8 529.493 209.238C533.157 213.56 537 218.013 540.57 222.335C538.623 225.254 536.451 228.18 534.184 231.298C530.222 226.442 525.998 221.376 522.025 216.622Z" fill="#0D71C7" fill-opacity="0.15"/>
<path fill-rule="evenodd" clip-rule="evenodd" d="M531.139 207.76C533.239 205.438 535.252 203.324 537.18 201.223C540.528 205.033 543.982 209.061 547.156 212.815C545.618 215.224 543.801 217.665 541.897 220.352C538.329 216.076 534.553 211.794 531.137 207.76H531.139Z" fill="#0D71C7" fill-opacity="0.15"/>
<path fill-rule="evenodd" clip-rule="evenodd" d="M538.391 200.053C540.225 198.252 541.857 196.378 543.6 194.641C546.501 197.906 549.56 201.252 552.465 204.517C551.242 206.869 549.812 209.181 548.498 211.667C545.13 207.884 541.616 203.874 538.391 200.053Z" fill="#0D71C7" fill-opacity="0.15"/>
<path fill-rule="evenodd" clip-rule="evenodd" d="M544.276 193.732C545.81 192.078 547.207 190.159 548.41 188.449C551.111 191.362 553.65 194.231 556.535 197.332C555.349 199.423 554.15 201.399 552.882 203.545C550.047 200.382 547.116 197.099 544.274 193.732H544.276Z" fill="#0D71C7" fill-opacity="0.15"/>
<path fill-rule="evenodd" clip-rule="evenodd" d="M549.186 187.106C550.491 185.585 551.612 184.141 552.783 182.652C555.287 185.368 557.759 188.162 559.922 190.542C559.202 192.423 558.222 194.189 557.428 196.21C554.737 193.176 551.945 190.053 549.184 187.106H549.186Z" fill="#0D71C7" fill-opacity="0.15"/>
<path fill-rule="evenodd" clip-rule="evenodd" d="M553.251 182.18C554.289 180.697 555.136 179.09 556.043 177.789C558.036 179.862 560.049 182.156 562.012 184.372C561.429 186.092 560.906 187.921 560.193 189.693C557.904 187.172 555.625 184.649 553.251 182.18Z" fill="#0D71C7" fill-opacity="0.15"/>
<path fill-rule="evenodd" clip-rule="evenodd" d="M556.428 176.911C557.327 175.667 557.862 174.23 558.393 172.895C560.123 174.701 561.926 176.593 563.617 178.439C563.286 180.018 562.771 181.574 562.444 183.438C560.486 181.319 558.349 178.934 556.426 176.911H556.428Z" fill="#0D71C7" fill-opacity="0.15"/>
<path fill-rule="evenodd" clip-rule="evenodd" d="M558.784 172.315C559.188 170.924 559.658 169.753 560.063 168.441C561.599 170.043 562.966 171.612 564.578 173.304C564.365 174.741 564.156 176.29 563.825 177.786C562.071 175.855 560.389 174.027 558.784 172.317V172.315Z" fill="#0D71C7" fill-opacity="0.15"/>
<path fill-rule="evenodd" clip-rule="evenodd" d="M560.25 167.507C560.476 166.223 560.764 165.087 560.809 163.73C562.215 165.252 563.442 166.583 564.611 167.82C564.763 169.422 564.726 170.824 564.641 172.393C563.275 170.904 561.667 169.099 560.25 167.509V167.507Z" fill="#0D71C7" fill-opacity="0.15"/>
<path fill-rule="evenodd" clip-rule="evenodd" d="M539.548 132.236C537.772 131.282 536.106 130.384 534.278 129.652C534.28 129.914 534.226 130.072 534.06 130.055C536.001 130.964 538.057 132.167 539.672 133.03C539.665 132.678 539.665 132.576 539.548 132.236Z" fill="#0D71C7" fill-opacity="0.15"/>
<path fill-rule="evenodd" clip-rule="evenodd" d="M561.027 159.118C560.787 157.898 560.613 156.727 560.33 155.699C561.048 156.409 562.01 157.448 562.798 158.339C563.22 159.72 563.638 161.07 564.066 162.468C562.909 161.241 562.054 160.259 561.029 159.118H561.027Z" fill="#0D71C7" fill-opacity="0.15"/>
<path fill-rule="evenodd" clip-rule="evenodd" d="M560.004 154.775C559.604 153.645 559.154 152.498 558.703 151.395C559.419 152.219 559.959 152.933 560.677 153.729C561.425 155.054 562.006 156.313 562.594 157.7C561.682 156.627 560.96 155.792 560.002 154.775H560.004Z" fill="#0D71C7" fill-opacity="0.15"/>
<path fill-rule="evenodd" clip-rule="evenodd" d="M551.516 141.418C550.48 140.338 549.394 139.345 548.256 138.453C548.545 138.856 548.837 139.278 549.07 139.617C550.328 140.736 551.529 141.775 552.68 142.844C552.273 142.396 552.038 142.061 551.516 141.418Z" fill="#0D71C7" fill-opacity="0.15"/>
<path fill-rule="evenodd" clip-rule="evenodd" d="M361.011 297.92C371.971 290.543 381.46 283.556 391.363 277.133C397.268 287.152 403.406 297.057 409.605 308.002H366.405C364.623 304.605 362.825 301.244 361.011 297.92Z" fill="#0D71C7" fill-opacity="0.15"/>
<path fill-rule="evenodd" clip-rule="evenodd" d="M395.801 274.286C404.512 268.147 412.658 262.267 420.198 256.879C426.521 266.29 432.783 275.667 439.02 285.623C431.7 292.399 424.208 299.943 415.646 307.268C409.081 295.731 402.257 284.963 395.801 274.286Z" fill="#0D71C7" fill-opacity="0.15"/>
<path fill-rule="evenodd" clip-rule="evenodd" d="M423.806 254.367C431.03 250.186 437.423 245.575 443.64 241.281C449.375 248.959 455.3 257.009 461.027 265.408C455.196 270.872 449.214 276.448 442.51 282.845C436.122 272.826 430.151 263.387 423.806 254.367Z" fill="#0D71C7" fill-opacity="0.15"/>
<path fill-rule="evenodd" clip-rule="evenodd" d="M446.469 238.996C452.458 235.14 457.917 231.232 463.176 227.949C468.44 234.521 474.04 241.972 479.387 249.572C474.491 253.872 469.273 258.068 463.642 262.885C458.13 254.861 452.244 246.886 446.469 238.996Z" fill="#0D71C7" fill-opacity="0.15"/>
<path fill-rule="evenodd" clip-rule="evenodd" d="M465.684 226.348C470.693 223.376 475.219 220.213 479.707 217.629C484.699 223.496 489.484 229.596 494.582 236.151C490.574 239.643 486.163 243.205 481.738 247.163C476.446 240.223 470.96 232.872 465.684 226.348Z" fill="#0D71C7" fill-opacity="0.15"/>
<path fill-rule="evenodd" clip-rule="evenodd" d="M525.382 126.309C526.546 126.19 527.599 126.065 528.539 125.883C530.467 127.781 532.236 129.551 534.125 131.351C533.183 131.481 532.295 131.788 531.294 132.022C529.349 130.187 527.471 128.278 525.382 126.309Z" fill="#0D71C7" fill-opacity="0.15"/>
<path fill-rule="evenodd" clip-rule="evenodd" d="M495.406 207.044C498.95 204.925 502.16 202.681 505.458 200.621C509.545 205.477 513.753 210.357 517.883 215.319C514.939 217.689 511.886 220.311 508.6 222.947C504.251 217.598 499.888 212.365 495.406 207.044Z" fill="#0D71C7" fill-opacity="0.15"/>
<path fill-rule="evenodd" clip-rule="evenodd" d="M507.298 199.961C510.237 197.899 513.203 196.042 516.023 194.145C519.533 198.189 523.204 202.42 526.727 206.691C524.329 209.083 521.781 211.348 519.13 213.813C515.238 209.314 511.273 204.629 507.298 199.961Z" fill="#0D71C7" fill-opacity="0.15"/>
<path fill-rule="evenodd" clip-rule="evenodd" d="M517.779 193.024C520.427 191.417 522.56 189.536 524.914 188.004C528.258 191.735 531.633 195.426 534.797 199.107C532.869 201.124 530.73 203.093 528.437 205.303C524.792 200.862 521.234 196.868 517.781 193.024H517.779Z" fill="#0D71C7" fill-opacity="0.15"/>
<path fill-rule="evenodd" clip-rule="evenodd" d="M526.246 186.978C528.452 185.433 530.456 183.866 532.563 182.656C535.485 185.82 538.555 189.114 541.66 192.816C539.98 194.56 538.22 196.263 536.255 198.246C533.028 194.593 529.59 190.624 526.246 186.978Z" fill="#0D71C7" fill-opacity="0.15"/>
<path fill-rule="evenodd" clip-rule="evenodd" d="M533.309 181.993C535.154 180.528 536.925 179.295 538.444 177.875C541.12 180.773 543.881 183.776 546.547 186.598C545.156 188.238 543.755 190.052 542.093 191.828C539.179 188.42 536.233 185.207 533.309 181.991V181.993Z" fill="#0D71C7" fill-opacity="0.15"/>
<path fill-rule="evenodd" clip-rule="evenodd" d="M539.526 176.905C541.147 175.849 542.455 174.44 543.756 173.23C546.308 175.888 548.885 178.684 551.422 181.529C550.062 182.763 549.004 184.41 547.753 185.909C545.086 182.951 542.2 179.826 539.526 176.907V176.905Z" fill="#0D71C7" fill-opacity="0.15"/>
<path fill-rule="evenodd" clip-rule="evenodd" d="M544.473 172.85C545.885 171.822 546.808 170.452 547.965 169.277C550.15 171.55 552.411 173.969 554.504 176.276C553.473 177.565 552.561 179.007 551.521 180.496C549.173 177.94 546.842 175.378 544.473 172.85Z" fill="#0D71C7" fill-opacity="0.15"/>
<path fill-rule="evenodd" clip-rule="evenodd" d="M554.376 161.489C554.848 160.364 555.266 159.364 555.625 158.332C557.124 159.916 558.449 161.318 559.84 162.803C559.614 164.006 559.263 165.114 559.157 166.523C557.455 164.768 555.936 163.114 554.374 161.491L554.376 161.489Z" fill="#0D71C7" fill-opacity="0.15"/>
<path fill-rule="evenodd" clip-rule="evenodd" d="M556.013 157.968C556.133 156.764 556.494 155.94 556.56 154.934C557.693 156.115 558.892 157.392 560.035 158.636C560.093 159.783 559.982 160.982 559.867 162.125C558.596 160.733 557.332 159.318 556.013 157.968Z" fill="#0D71C7" fill-opacity="0.15"/>
<path fill-rule="evenodd" clip-rule="evenodd" d="M556.381 150.982C556.287 150.233 556.013 149.13 555.809 148.301C556.574 149.147 557.406 150.101 558.115 150.88C558.679 152.051 559.072 153.163 559.414 154.289C558.404 153.261 557.447 152.131 556.383 150.984L556.381 150.982Z" fill="#0D71C7" fill-opacity="0.15"/>
<path fill-rule="evenodd" clip-rule="evenodd" d="M554.45 145.324C554.028 144.597 553.375 143.506 552.496 142.422C552.964 143.034 553.549 143.694 553.789 144.166C554.842 145.428 555.612 146.432 556.445 147.568C555.853 146.865 555.092 146.047 554.448 145.324H554.45Z" fill="#0D71C7" fill-opacity="0.15"/>
<path fill-rule="evenodd" clip-rule="evenodd" d="M548.513 137.808C547.71 136.922 546.859 136.137 546.069 135.434C546.583 136.098 547.042 136.728 547.553 137.273C548.522 138.171 549.494 139.143 550.352 139.92C549.66 139.147 549.144 138.563 548.511 137.808H548.513Z" fill="#0D71C7" fill-opacity="0.15"/>
<path fill-rule="evenodd" clip-rule="evenodd" d="M550.605 142.291C550.47 141.616 550.165 140.889 550.031 140.207C550.84 141.161 551.708 142.12 552.52 142.983C552.824 143.773 553.251 144.637 553.566 145.489C552.633 144.496 551.588 143.434 550.605 142.291Z" fill="#0D71C7" fill-opacity="0.15"/>
<path fill-rule="evenodd" clip-rule="evenodd" d="M179.839 194.214C197.708 190.453 214.128 186.746 229.592 183.219C235.552 192.829 241.635 202.007 247.332 211.855C232.331 216.029 215.781 221.409 197.456 226.888C191.494 215.547 185.714 204.818 179.837 194.214H179.839Z" fill="#0D71C7" fill-opacity="0.15"/>
<path fill-rule="evenodd" clip-rule="evenodd" d="M282.886 183.363C295.36 180.598 306.336 177.871 317.259 175.809C322.616 183.062 328.449 190.576 334.266 198.453C323.608 201.69 312.422 205.165 300.4 209.011C294.799 200.372 288.702 191.5 282.886 183.361V183.363Z" fill="#0D71C7" fill-opacity="0.15"/>
<path fill-rule="evenodd" clip-rule="evenodd" d="M297.563 126.906C307.498 126.507 316.794 125.906 325.763 125.43C330.809 130.939 335.748 136.312 340.496 141.896C331.797 142.685 322.558 143.69 312.729 145.126C307.825 138.834 302.929 132.74 297.563 126.906Z" fill="#0D71C7" fill-opacity="0.15"/>
<path fill-rule="evenodd" clip-rule="evenodd" d="M244.775 307.998C257.511 301.244 269.429 294.856 280.652 288.699C283.859 295.003 287.073 301.432 290.25 307.998H244.778H244.775Z" fill="#0D71C7" fill-opacity="0.15"/>
<path fill-rule="evenodd" clip-rule="evenodd" d="M288.278 284.749C302.9 276.974 315.783 269.478 328.388 262.77C335.001 274.208 341.775 286.511 348.516 298.789C344.39 301.841 340.191 304.9 335.884 308.001H299.627C295.787 300.055 292.011 292.332 288.278 284.749Z" fill="#0D71C7" fill-opacity="0.15"/>
<path fill-rule="evenodd" clip-rule="evenodd" d="M334.217 259.76C345.63 254.16 356.166 248.958 365.844 243.801C372.081 253.268 378.724 263.43 384.723 273.915C375.294 280.446 365.152 287.148 354.001 294.367C347.558 282.275 340.832 271.041 334.217 259.76Z" fill="#0D71C7" fill-opacity="0.15"/>
<path fill-rule="evenodd" clip-rule="evenodd" d="M371.144 242.361C380.573 237.54 389.165 233.324 397.312 229.297C402.928 237.278 408.853 245.536 414.809 253.934C406.986 259.262 398.422 265.135 389.403 271.313C383.214 260.891 377.246 251.673 371.144 242.359V242.361Z" fill="#0D71C7" fill-opacity="0.15"/>
<path fill-rule="evenodd" clip-rule="evenodd" d="M402.338 226.359C409.866 222.888 416.975 219.504 423.707 216.137C429.08 223.02 434.476 230.285 439.879 237.749C433.506 242.161 426.836 246.376 419.556 250.585C413.914 242.605 408.08 234.438 402.338 226.362V226.359Z" fill="#0D71C7" fill-opacity="0.15"/>
<path fill-rule="evenodd" clip-rule="evenodd" d="M427.597 214.166C433.716 210.708 439.573 208.156 445.385 205.629C450.442 212.065 455.632 218.641 460.965 225.287C455.468 228.37 449.722 231.95 443.93 235.925C438.564 228.569 432.959 221.197 427.597 214.166Z" fill="#0D71C7" fill-opacity="0.15"/>
<path fill-rule="evenodd" clip-rule="evenodd" d="M447.93 204.921C453.093 202.422 458.191 200.072 463.155 197.992C467.55 203.536 472.2 209.061 476.789 214.588C472.283 217.377 467.511 220.381 462.672 223.601C457.693 217.273 452.667 210.942 447.932 204.921H447.93Z" fill="#0D71C7" fill-opacity="0.15"/>
<path fill-rule="evenodd" clip-rule="evenodd" d="M480.731 189.718C484.833 188.229 488.414 186.56 491.972 184.918C495.799 189.229 499.779 193.756 503.445 198.021C500.214 200.105 497.072 202.349 493.216 204.325C489.173 199.462 484.996 194.55 480.731 189.716V189.718Z" fill="#0D71C7" fill-opacity="0.15"/>
<path fill-rule="evenodd" clip-rule="evenodd" d="M493.866 184.147C497.321 182.511 500.441 180.881 503.511 179.676C507.076 183.543 510.374 187.308 514.062 191.489C511.251 193.318 508.357 195.083 505.365 197.107C501.447 192.716 497.765 188.395 493.866 184.147Z" fill="#0D71C7" fill-opacity="0.15"/>
<path fill-rule="evenodd" clip-rule="evenodd" d="M505.038 179.074C507.839 177.756 510.38 176.389 513.017 175.246C516.366 178.83 519.693 182.346 522.672 185.895C520.498 187.497 517.941 189.031 515.422 190.678C511.845 186.72 508.422 182.885 505.04 179.074H505.038Z" fill="#0D71C7" fill-opacity="0.15"/>
<path fill-rule="evenodd" clip-rule="evenodd" d="M514.941 174.746C517.496 173.599 519.787 172.519 522.006 171.281C524.661 174.149 527.812 177.518 530.508 180.602C528.584 181.993 526.4 183.378 524.191 184.947C521.206 181.482 517.998 178.07 514.941 174.746Z" fill="#0D71C7" fill-opacity="0.15"/>
<path fill-rule="evenodd" clip-rule="evenodd" d="M523.233 170.656C525.366 169.708 527.492 168.771 529.363 167.816C531.965 170.578 534.468 173.309 537.055 176.007C535.416 177.245 533.525 178.388 531.741 179.915C528.923 176.734 526.188 173.696 523.233 170.658V170.656Z" fill="#0D71C7" fill-opacity="0.15"/>
<path fill-rule="evenodd" clip-rule="evenodd" d="M529.908 167.288C531.768 166.403 533.378 165.414 535.156 164.613C537.408 166.92 539.793 169.458 542.195 171.951C540.711 173.064 539.277 174.319 537.656 175.598C535.132 172.821 532.51 170.106 529.908 167.288Z" fill="#0D71C7" fill-opacity="0.15"/>
<path fill-rule="evenodd" clip-rule="evenodd" d="M535.925 163.832C537.339 162.787 538.742 161.804 540.142 161.066C542.448 163.486 544.535 165.684 546.637 167.926C545.538 169.108 544.313 170.205 543.02 171.374C540.618 168.794 538.235 166.336 535.925 163.83V163.832Z" fill="#0D71C7" fill-opacity="0.15"/>
<path fill-rule="evenodd" clip-rule="evenodd" d="M540.955 160.543C542.228 159.851 543.436 159.124 544.465 158.215C546.419 160.281 548.203 162.151 550.301 164.389C549.396 165.395 548.484 166.377 547.45 167.392C545.351 165.211 543.266 163.064 540.955 160.543Z" fill="#0D71C7" fill-opacity="0.15"/>
<path fill-rule="evenodd" clip-rule="evenodd" d="M346.091 152.943C354.408 151.8 362.332 150.824 370.024 149.621C374.822 155.375 379.655 160.924 384.742 166.699C377.412 168.244 369.609 169.703 361.297 171.754C356.192 165.319 351.074 159.123 346.089 152.943H346.091Z" fill="#0D71C7" fill-opacity="0.15"/>
<path fill-rule="evenodd" clip-rule="evenodd" d="M500.419 123.315C502.682 123.332 504.827 123.336 506.855 123.371C509.231 125.751 511.681 128.073 513.973 130.384C511.993 130.35 510.276 130.681 508.109 130.759C505.606 128.259 503.063 125.766 500.417 123.312L500.419 123.315Z" fill="#0D71C7" fill-opacity="0.15"/>
<path fill-rule="evenodd" clip-rule="evenodd" d="M500.777 115.922C502.829 116.171 504.775 116.359 506.659 116.513C508.965 118.677 511.17 120.756 513.328 122.799C511.594 122.81 509.803 122.788 507.956 122.715C505.641 120.512 503.18 118.188 500.777 115.922Z" fill="#0D71C7" fill-opacity="0.15"/>
<path fill-rule="evenodd" clip-rule="evenodd" d="M106.669 308C112.733 305.445 118.658 302.928 124.437 300.441C125.408 302.924 126.361 305.445 127.301 308H106.667H106.669Z" fill="#0D71C7" fill-opacity="0.15"/>
<path fill-rule="evenodd" clip-rule="evenodd" d="M350.554 98.6367C357.726 99.0111 364.537 99.34 371.023 99.6473C375.022 103.612 378.98 107.632 383.062 111.471C376.574 111.51 370.081 111.419 363.096 111.324C359.045 107.031 354.756 102.833 350.556 98.6367H350.554Z" fill="#0D71C7" fill-opacity="0.15"/>
<path fill-rule="evenodd" clip-rule="evenodd" d="M211.294 263.924C229.546 256.467 246.283 249.873 262.211 243.777C268.416 255.238 275.059 267.553 281.117 280.747C265.481 288.914 249.103 297.207 230.793 306.079C224.602 291.742 217.915 277.538 211.296 263.924H211.294Z" fill="#0D71C7" fill-opacity="0.15"/>
<path fill-rule="evenodd" clip-rule="evenodd" d="M314.629 223.292C326.177 219.003 337.17 215.188 347.362 211.434C353.298 219.919 359.347 228.914 365.23 238.01C355.489 242.991 344.759 248.051 333.795 253.169C327.406 243.149 321.031 232.836 314.632 223.294L314.629 223.292Z" fill="#0D71C7" fill-opacity="0.15"/>
<path fill-rule="evenodd" clip-rule="evenodd" d="M384.707 199.237C392.686 196.538 399.966 194.074 406.899 191.535C411.925 197.72 417.185 204.439 422.23 211.347C415.629 214.532 408.403 217.912 401.107 221.405C395.832 213.731 390.151 206.211 384.705 199.237H384.707Z" fill="#0D71C7" fill-opacity="0.15"/>
<path fill-rule="evenodd" clip-rule="evenodd" d="M410.859 190.304C417.468 188.088 423.658 186.129 429.592 184.34C434.562 190.202 439.386 196.153 444.355 202.072C438.711 204.48 432.96 206.9 426.739 209.91C421.349 202.998 416.186 196.341 410.859 190.304Z" fill="#0D71C7" fill-opacity="0.15"/>
<path fill-rule="evenodd" clip-rule="evenodd" d="M432.15 183.691C437.651 181.919 442.988 180.175 448.226 178.402C452.589 183.57 456.953 188.649 461.414 193.918C456.59 196.076 451.496 198.497 446.313 200.83C441.461 194.985 436.67 189.209 432.152 183.689L432.15 183.691Z" fill="#0D71C7" fill-opacity="0.15"/>
<path fill-rule="evenodd" clip-rule="evenodd" d="M451.682 177.355C456.375 175.942 460.973 174.583 465.173 173.23C469.559 178.115 473.724 182.659 477.832 187.543C473.894 189.095 469.655 190.854 465.014 193.07C460.636 187.511 456.023 182.302 451.682 177.355Z" fill="#0D71C7" fill-opacity="0.15"/>
<path fill-rule="evenodd" clip-rule="evenodd" d="M467.231 172.793C471.498 171.618 475.321 170.272 479.164 169.168C482.928 173.23 486.767 177.597 490.344 181.827C486.873 183.344 483.305 185.03 479.162 186.435C475.315 182.044 471.23 177.289 467.233 172.793H467.231Z" fill="#0D71C7" fill-opacity="0.15"/>
<path fill-rule="evenodd" clip-rule="evenodd" d="M481.211 168.507C484.888 167.518 488.35 166.661 491.618 165.707C495.067 169.466 498.616 173.164 501.891 176.845C498.899 177.981 495.62 179.321 492.364 180.929C488.724 176.668 484.977 172.615 481.211 168.507Z" fill="#0D71C7" fill-opacity="0.15"/>
<path fill-rule="evenodd" clip-rule="evenodd" d="M493.124 165.234C496.24 164.377 499.221 163.468 502.074 162.473C505.261 165.903 508.479 169.322 511.484 172.656C508.973 173.86 506.201 175.054 503.355 176.173C499.95 172.572 496.584 168.869 493.122 165.234H493.124Z" fill="#0D71C7" fill-opacity="0.15"/>
<path fill-rule="evenodd" clip-rule="evenodd" d="M504.028 162.13C506.787 161.295 509.237 160.354 511.605 159.609C514.536 162.546 517.421 165.556 520.273 168.475C518.174 169.776 515.767 170.951 513.163 172.003C510.092 168.64 507.107 165.398 504.026 162.13H504.028Z" fill="#0D71C7" fill-opacity="0.15"/>
<path fill-rule="evenodd" clip-rule="evenodd" d="M513.346 159.465C515.639 158.675 517.92 158.01 520.131 157.402C522.548 159.93 525.216 162.691 527.668 165.377C525.681 166.195 523.743 167.125 521.615 168.034C518.938 165.227 516.162 162.406 513.346 159.462V159.465Z" fill="#0D71C7" fill-opacity="0.15"/>
<path fill-rule="evenodd" clip-rule="evenodd" d="M520.733 156.945C522.641 156.166 524.534 155.445 526.479 154.805C528.79 157.196 531.286 159.871 533.566 162.286C531.847 163.149 530.181 164.069 528.386 164.956C525.875 162.299 523.261 159.685 520.731 156.947L520.733 156.945Z" fill="#0D71C7" fill-opacity="0.15"/>
<path fill-rule="evenodd" clip-rule="evenodd" d="M527.368 154.266C529.124 153.612 530.699 153.035 532.327 152.539C534.583 154.77 536.794 156.951 538.961 159.276C537.507 159.975 536.104 160.821 534.635 161.747C532.235 159.289 529.853 156.744 527.37 154.266H527.368Z" fill="#0D71C7" fill-opacity="0.15"/>
<path fill-rule="evenodd" clip-rule="evenodd" d="M399.537 146.592C405.769 145.956 411.768 145.473 417.521 144.844C421.775 149.421 426.114 154.108 430.441 158.73C424.891 159.661 419.349 160.775 413.125 162.035C408.586 156.787 404.095 151.567 399.537 146.592Z" fill="#0D71C7" fill-opacity="0.15"/>
<path fill-rule="evenodd" clip-rule="evenodd" d="M420.132 144.429C425.556 143.747 430.857 143.286 435.618 142.652C439.787 146.928 443.91 151.302 447.781 155.584C443.068 156.498 438.205 157.419 432.952 158.259C428.783 153.773 424.388 148.991 420.132 144.429Z" fill="#0D71C7" fill-opacity="0.15"/>
<path fill-rule="evenodd" clip-rule="evenodd" d="M437.98 142.39C442.928 141.913 447.365 141.491 451.669 141.078C455.396 144.861 459.307 148.916 463.027 152.801C458.889 153.58 454.609 154.367 450.102 155.322C446.181 150.903 442.045 146.54 437.98 142.39Z" fill="#0D71C7" fill-opacity="0.15"/>
<path fill-rule="evenodd" clip-rule="evenodd" d="M453.699 140.844C457.912 140.441 461.911 140.196 465.73 139.844C469.227 143.371 472.945 147.273 476.32 150.744C472.684 151.356 468.872 151.811 464.966 152.425C461.4 148.705 457.425 144.65 453.697 140.844H453.699Z" fill="#0D71C7" fill-opacity="0.15"/>
<path fill-rule="evenodd" clip-rule="evenodd" d="M467.6 139.705C471.286 139.296 474.73 138.796 478.188 138.66C481.436 141.891 484.763 145.254 488.047 148.729C484.948 149.264 481.65 149.876 478.092 150.536C474.669 146.883 471.04 143.226 467.6 139.705Z" fill="#0D71C7" fill-opacity="0.15"/>
<path fill-rule="evenodd" clip-rule="evenodd" d="M479.791 138.606C483.011 138.299 485.981 138.015 488.995 137.816C492.165 140.878 495.351 144.029 498.105 146.955C495.464 147.483 492.635 148.028 489.511 148.42C486.332 145.029 483.168 141.826 479.793 138.606H479.791Z" fill="#0D71C7" fill-opacity="0.15"/>
<path fill-rule="evenodd" clip-rule="evenodd" d="M490.35 137.712C493.238 137.418 496.051 137.23 498.571 136.957C501.484 139.792 504.352 142.715 507.188 145.539C504.814 146.096 502.092 146.379 499.535 146.756C496.545 143.797 493.584 140.774 490.35 137.714V137.712Z" fill="#0D71C7" fill-opacity="0.15"/>
<path fill-rule="evenodd" clip-rule="evenodd" d="M500.021 137.004C502.582 136.777 504.967 136.55 507.228 136.34C509.704 138.902 512.313 141.479 514.941 143.99C512.781 144.353 510.489 144.905 508.307 145.392C505.585 142.564 502.876 139.878 500.021 137.004Z" fill="#0D71C7" fill-opacity="0.15"/>
<path fill-rule="evenodd" clip-rule="evenodd" d="M508.614 136.19C510.803 136.036 512.759 135.781 514.763 135.684C517.15 137.949 519.548 140.306 521.957 142.697C520.108 143.039 518.367 143.452 516.395 143.777C513.823 141.26 511.154 138.687 508.614 136.188V136.19Z" fill="#0D71C7" fill-opacity="0.15"/>
<path fill-rule="evenodd" clip-rule="evenodd" d="M515.911 135.479C517.795 135.252 519.449 135.048 521.207 134.895C523.49 137.121 525.785 139.279 528.035 141.596C526.49 141.971 524.828 142.243 523.102 142.681C520.748 140.272 518.294 137.846 515.909 135.479H515.911Z" fill="#0D71C7" fill-opacity="0.15"/>
<path fill-rule="evenodd" clip-rule="evenodd" d="M521.95 134.856C523.538 134.594 524.896 134.258 526.306 133.992C528.369 136.054 530.497 138.145 532.414 140.082C531.169 140.452 529.751 140.809 528.441 141.246C526.304 139.11 524.065 136.942 521.95 134.856Z" fill="#0D71C7" fill-opacity="0.15"/>
<path fill-rule="evenodd" clip-rule="evenodd" d="M527.205 133.81C528.441 133.566 529.786 133.492 530.904 133.191C532.858 135.117 534.825 137.026 536.629 138.865C535.621 139.205 534.61 139.575 533.426 139.893C531.455 137.963 529.322 135.963 527.203 133.81H527.205Z" fill="#0D71C7" fill-opacity="0.15"/>
<path fill-rule="evenodd" clip-rule="evenodd" d="M541.255 134.973C541.635 134.649 541.955 134.144 542.227 133.785C543.526 135.159 544.825 136.369 545.909 137.585C545.928 138.182 545.72 138.71 545.456 139.221C544.033 137.812 542.726 136.466 541.257 134.973H541.255Z" fill="#0D71C7" fill-opacity="0.15"/>
<path fill-rule="evenodd" clip-rule="evenodd" d="M515.922 123.755C512.815 123.097 509.762 122.437 506.256 121.744C505.432 121.324 504.655 121.132 503.663 120.762C507.384 121.671 510.769 122.391 514.042 123.164C514.808 123.681 515.319 123.443 515.922 123.755Z" fill="#0D71C7" fill-opacity="0.15"/>
<path fill-rule="evenodd" clip-rule="evenodd" d="M494.766 120.284C490.366 119.903 485.914 119.914 481.068 119.694C480.159 119.609 479.132 119.533 478.07 119.211C483.131 119.694 487.768 119.585 492.242 119.854C493.295 120.245 494.098 120.105 494.766 120.286V120.284Z" fill="#0D71C7" fill-opacity="0.15"/>
<path fill-rule="evenodd" clip-rule="evenodd" d="M406.573 129.428C412.185 129.071 417.753 128.871 422.782 128.547C426.812 132.578 430.793 136.679 434.68 140.854C429.708 141.353 424.409 141.836 419.133 142.448C414.972 137.956 410.668 133.498 406.576 129.425L406.573 129.428Z" fill="#0D71C7" fill-opacity="0.15"/>
<path fill-rule="evenodd" clip-rule="evenodd" d="M425.23 128.406C430.252 128.326 435.02 128.224 439.496 128.031C443.127 131.758 447.122 135.659 450.641 139.379C446.406 139.795 441.806 140.117 437.056 140.505C433.209 136.443 429.156 132.338 425.23 128.408V128.406Z" fill="#0D71C7" fill-opacity="0.15"/>
<path fill-rule="evenodd" clip-rule="evenodd" d="M441.65 128.015C446.085 127.907 450.252 127.914 454.362 127.816C457.852 131.138 461.333 134.672 464.715 138.312C460.855 138.522 456.862 138.801 452.699 139.288C449.235 135.585 445.295 131.666 441.648 128.013L441.65 128.015Z" fill="#0D71C7" fill-opacity="0.15"/>
<path fill-rule="evenodd" clip-rule="evenodd" d="M456.278 127.696C460.193 127.616 463.842 127.685 467.384 127.57C470.733 130.78 473.99 133.978 477.156 137.152C473.821 137.3 470.33 137.719 466.592 138.124C463.185 134.649 459.705 131.059 456.278 127.696Z" fill="#0D71C7" fill-opacity="0.15"/>
<path fill-rule="evenodd" clip-rule="evenodd" d="M469.09 127.489C472.6 127.556 475.655 127.391 478.855 127.422C482.01 130.466 485.078 133.397 488.051 136.379C485.098 136.645 482.017 136.896 478.753 137.099C475.589 133.868 472.371 130.813 469.09 127.489Z" fill="#0D71C7" fill-opacity="0.15"/>
<path fill-rule="evenodd" clip-rule="evenodd" d="M480.321 127.315C483.454 127.28 486.294 127.27 489.129 127.168C492.036 129.973 494.848 132.745 497.672 135.573C495.139 136.062 492.391 136.185 489.514 136.384C486.429 133.322 483.533 130.364 480.319 127.315H480.321Z" fill="#0D71C7" fill-opacity="0.15"/>
<path fill-rule="evenodd" clip-rule="evenodd" d="M490.454 127.199C493.1 127.199 495.789 127.318 498.083 127.255C500.737 129.738 503.457 132.395 506.145 134.94C503.836 135.076 501.46 135.269 498.951 135.565C496.238 132.754 493.307 129.999 490.454 127.199Z" fill="#0D71C7" fill-opacity="0.15"/>
<path fill-rule="evenodd" clip-rule="evenodd" d="M392.515 114.473C398.418 114.535 404.115 114.62 409.437 114.752C413.321 118.643 417.194 122.384 421.02 126.243C415.784 126.418 410.277 126.68 404.748 126.918C400.603 122.733 396.445 118.489 392.515 114.475V114.473Z" fill="#0D71C7" fill-opacity="0.15"/>
<path fill-rule="evenodd" clip-rule="evenodd" d="M411.92 114.926C417.116 114.943 422.144 115.17 426.822 115.324C430.5 118.897 434.203 122.469 437.77 126.018C433.22 125.973 428.343 126.047 423.43 126.274C419.675 122.327 415.836 118.628 411.92 114.926Z" fill="#0D71C7" fill-opacity="0.15"/>
<path fill-rule="evenodd" clip-rule="evenodd" d="M429.19 115.363C433.796 115.454 438.257 115.636 442.469 115.824C445.827 119.051 449.245 122.379 452.668 125.878C448.632 125.906 444.399 125.986 440.035 126.053C436.477 122.453 432.774 118.813 429.192 115.363H429.19Z" fill="#0D71C7" fill-opacity="0.15"/>
<path fill-rule="evenodd" clip-rule="evenodd" d="M444.404 115.848C448.595 116.086 452.213 116.159 456.036 116.376C459.431 119.529 462.512 122.556 465.773 125.707C462.131 125.724 458.425 125.685 454.456 125.763C451.249 122.413 447.824 119.085 444.404 115.848Z" fill="#0D71C7" fill-opacity="0.15"/>
<path fill-rule="evenodd" clip-rule="evenodd" d="M457.995 116.543C461.477 116.61 464.887 116.707 468.279 116.907C471.421 119.934 474.428 122.808 477.344 125.636C474.304 125.79 471.034 125.811 467.474 125.733C464.325 122.57 461.175 119.605 457.995 116.543Z" fill="#0D71C7" fill-opacity="0.15"/>
<path fill-rule="evenodd" clip-rule="evenodd" d="M469.946 116.957C473.264 117.184 476.182 117.31 478.982 117.422C481.948 120.153 484.981 122.908 487.699 125.578C484.927 125.624 482.029 125.715 478.85 125.635C475.932 122.817 472.977 119.95 469.946 116.957Z" fill="#0D71C7" fill-opacity="0.15"/>
<path fill-rule="evenodd" clip-rule="evenodd" d="M480.729 117.75C483.68 117.995 486.291 118.131 488.952 118.289C491.666 120.855 494.503 123.502 497.125 126.151C494.621 125.958 491.985 125.923 489.235 125.811C486.509 123.249 483.797 120.689 480.729 117.752V117.75Z" fill="#0D71C7" fill-opacity="0.15"/>
<path fill-rule="evenodd" clip-rule="evenodd" d="M399.409 102.449C404.812 102.757 409.925 102.966 414.869 103.369C418.533 106.862 422.071 110.242 425.648 113.882C420.77 113.553 415.892 113.518 410.604 113.364C407.012 109.718 403.26 106.078 399.411 102.449H399.409Z" fill="#0D71C7" fill-opacity="0.15"/>
<path fill-rule="evenodd" clip-rule="evenodd" d="M417.343 103.715C422.183 103.936 426.63 104.351 431.117 104.823C434.527 107.958 437.83 111.155 441.211 114.409C436.853 114.046 432.61 114.035 427.896 113.888C424.345 110.417 420.777 106.885 417.343 103.715Z" fill="#0D71C7" fill-opacity="0.15"/>
<path fill-rule="evenodd" clip-rule="evenodd" d="M433.189 105C437.449 105.329 441.398 105.749 445.398 106.182C448.635 109.112 451.762 112.163 455.02 115.223C451.164 114.831 447.378 114.751 443.143 114.439C439.969 111.373 436.594 108.209 433.189 105Z" fill="#0D71C7" fill-opacity="0.15"/>
<path fill-rule="evenodd" clip-rule="evenodd" d="M447.346 106.324C451.115 106.66 454.664 106.863 458.187 107.198C461.229 110.038 464.181 112.844 467.199 115.722C463.809 115.547 460.465 115.398 456.711 115.229C453.504 112.208 450.532 109.272 447.346 106.324Z" fill="#0D71C7" fill-opacity="0.15"/>
<path fill-rule="evenodd" clip-rule="evenodd" d="M459.936 107.41C463.117 107.62 466.285 107.921 469.545 108.382C472.406 110.994 475.272 113.716 478.055 116.322C475.091 116.179 472.019 115.884 468.859 115.804C465.78 112.924 462.819 110.193 459.936 107.41Z" fill="#0D71C7" fill-opacity="0.15"/>
<path fill-rule="evenodd" clip-rule="evenodd" d="M479.282 110.41C482.08 110.756 484.761 111.074 487.222 111.291C489.75 113.613 492.448 116.073 495.051 118.516C492.577 118.296 490.029 118.237 487.487 118.079C484.904 115.545 482.113 112.985 479.282 110.412V110.41Z" fill="#0D71C7" fill-opacity="0.15"/>
<path fill-rule="evenodd" clip-rule="evenodd" d="M488.733 111.422C491.131 111.632 493.418 111.785 495.637 112.065C497.961 114.302 500.304 116.393 502.539 118.578C500.576 118.55 498.335 118.39 496.196 118.323C493.807 116.096 491.216 113.67 488.733 111.422Z" fill="#0D71C7" fill-opacity="0.15"/>
<path fill-rule="evenodd" clip-rule="evenodd" d="M405.256 92.543C410.117 93.1164 414.804 93.6683 419.528 94.2309C422.874 97.3427 426.14 100.359 429.578 103.523C424.943 102.922 420.594 102.66 415.635 102.125C412.247 98.8489 408.726 95.763 405.256 92.543Z" fill="#0D71C7" fill-opacity="0.15"/>
<path fill-rule="evenodd" clip-rule="evenodd" d="M421.696 94.4592C426.024 94.9309 430.372 95.5434 434.504 96.0606C437.57 98.9517 440.764 101.871 443.965 104.864C439.918 104.416 436.01 104.102 431.643 103.738C428.211 100.525 424.934 97.5364 421.696 94.457V94.4592Z" fill="#0D71C7" fill-opacity="0.15"/>
<path fill-rule="evenodd" clip-rule="evenodd" d="M436.481 96.293C440.324 96.7301 444.093 97.2473 447.957 97.8272C450.901 100.589 453.714 103.116 456.789 105.944C453.271 105.609 449.678 105.326 445.899 105.074C442.759 102.064 439.512 99.0759 436.481 96.293Z" fill="#0D71C7" fill-opacity="0.15"/>
<path fill-rule="evenodd" clip-rule="evenodd" d="M449.639 98.0898C453.051 98.6114 456.461 99.0615 459.699 99.4986C462.512 102.078 465.454 104.666 468.25 107.207C465.038 106.878 461.877 106.532 458.543 106.155C455.46 103.366 452.542 100.726 449.639 98.0898Z" fill="#0D71C7" fill-opacity="0.15"/>
<path fill-rule="evenodd" clip-rule="evenodd" d="M470.137 101.715C473.072 102.187 475.79 102.511 478.342 102.84C480.979 105.253 483.64 107.629 486.141 110.059C483.63 109.797 481.06 109.538 478.209 109.174C475.557 106.709 472.915 104.29 470.137 101.717V101.715Z" fill="#0D71C7" fill-opacity="0.15"/>
<path fill-rule="evenodd" clip-rule="evenodd" d="M480.233 103.569C482.832 103.915 485.147 104.278 487.508 104.715C489.962 106.901 492.371 109.065 494.949 111.394C492.734 111.104 490.338 110.922 487.943 110.723C485.434 108.325 482.884 105.951 480.231 103.566L480.233 103.569Z" fill="#0D71C7" fill-opacity="0.15"/>
<path fill-rule="evenodd" clip-rule="evenodd" d="M394.825 81.0451C399.95 81.848 404.789 82.5643 409.441 83.3671C412.783 86.1457 415.954 89.0022 419.383 92.1313C414.694 91.415 409.959 90.9043 405.122 90.2789C401.673 87.0935 398.268 84.0704 394.828 81.043L394.825 81.0451Z" fill="#0D71C7" fill-opacity="0.15"/>
<path fill-rule="evenodd" clip-rule="evenodd" d="M411.651 83.5977C416.231 84.3854 420.605 84.9999 424.896 85.7422C427.868 88.497 430.982 91.1543 434.137 94.0411C429.974 93.4395 425.677 92.9115 421.331 92.2515C418.148 89.3604 414.967 86.5429 411.651 83.5977Z" fill="#0D71C7" fill-opacity="0.15"/>
<path fill-rule="evenodd" clip-rule="evenodd" d="M399.785 73.3633C404.444 74.1834 408.909 75.0837 413.274 75.8973C416.414 78.6737 419.484 81.3376 422.559 84.0102C418.44 83.3047 413.968 82.623 409.277 81.8267C406.178 79.0719 402.945 76.2241 399.783 73.3633H399.785Z" fill="#0D71C7" fill-opacity="0.15"/>
<path fill-rule="evenodd" clip-rule="evenodd" d="M349.112 76.2773C355.814 77.2014 362.054 78.0605 367.99 78.6772C371.939 82.0769 375.556 85.5652 379.055 88.8372C373.293 88.3546 367.157 87.6621 360.651 86.9632C356.95 83.4337 353.1 79.8566 349.114 76.2795L349.112 76.2773Z" fill="#0D71C7" fill-opacity="0.15"/>
<path fill-rule="evenodd" clip-rule="evenodd" d="M529.968 142.24C531.391 141.849 532.694 141.433 533.939 141.098C535.871 143.006 537.869 144.954 539.762 147.096C538.8 147.596 537.666 148.198 536.47 148.743C534.402 146.659 532.179 144.38 529.968 142.24Z" fill="#0D71C7" fill-opacity="0.15"/>
<path fill-rule="evenodd" clip-rule="evenodd" d="M524.636 143.586C526.305 143.194 527.852 142.768 529.338 142.383C531.608 144.677 533.775 146.882 535.84 148.977C534.639 149.634 533.316 150.249 531.871 150.879C529.521 148.442 527.071 145.949 524.636 143.586Z" fill="#0D71C7" fill-opacity="0.15"/>
<path fill-rule="evenodd" clip-rule="evenodd" d="M518.44 144.989C520.355 144.649 522.096 144.177 523.774 143.699C526.319 146.272 528.77 148.709 531.059 151.089C529.492 151.596 527.917 152.191 526.047 152.663C523.534 150.096 520.921 147.517 518.438 144.989H518.44Z" fill="#0D71C7" fill-opacity="0.15"/>
<path fill-rule="evenodd" clip-rule="evenodd" d="M510.53 146.566C512.769 146.083 514.942 145.572 517.101 145.23C519.64 147.747 522.301 150.569 524.871 153.233C522.928 153.761 521.033 154.533 519.072 155.3C516.283 152.3 513.337 149.45 510.53 146.563V146.566Z" fill="#0D71C7" fill-opacity="0.15"/>
<path fill-rule="evenodd" clip-rule="evenodd" d="M501.939 147.986C504.556 147.595 507.161 147.203 509.354 146.703C512.218 149.542 515.162 152.429 518.008 155.405C515.795 156.125 513.46 156.751 511.049 157.432C508.164 154.342 505.126 151.219 501.939 147.986Z" fill="#0D71C7" fill-opacity="0.15"/>
<path fill-rule="evenodd" clip-rule="evenodd" d="M492.139 149.858C495.153 149.392 497.921 148.869 500.562 148.312C503.861 151.658 506.951 154.872 509.836 157.916C507.412 158.609 504.788 159.472 502.094 160.284C498.71 156.711 495.581 153.428 492.139 149.855V149.858Z" fill="#0D71C7" fill-opacity="0.15"/>
<path fill-rule="evenodd" clip-rule="evenodd" d="M481.075 152.179C484.502 151.594 487.685 150.934 490.79 150.305C494.11 153.832 497.413 157.227 500.738 160.737C497.892 161.664 494.852 162.566 491.739 163.475C488.218 159.64 484.552 155.797 481.075 152.179Z" fill="#0D71C7" fill-opacity="0.15"/>
<path fill-rule="evenodd" clip-rule="evenodd" d="M467.076 154.205C471.01 153.421 474.776 152.835 478.279 152.324C481.874 155.903 485.521 159.82 489.094 163.644C485.78 164.434 482.203 165.284 478.634 166.462C474.704 162.151 470.964 158.148 467.073 154.205H467.076Z" fill="#0D71C7" fill-opacity="0.15"/>
<path fill-rule="evenodd" clip-rule="evenodd" d="M452.684 156.751C457.117 155.887 461.481 154.911 465.311 154.156C469.236 158.274 473.21 162.334 476.961 166.543C473.181 167.696 469.182 168.956 464.817 169.986C460.818 165.543 456.786 161.233 452.684 156.753V156.751Z" fill="#0D71C7" fill-opacity="0.15"/>
<path fill-rule="evenodd" clip-rule="evenodd" d="M435.573 159.801C440.706 158.91 445.798 158.137 450.196 156.871C454.336 161.433 458.569 166.033 462.496 170.513C458.131 171.775 453.547 173.058 448.692 174.278C444.253 169.303 440.004 164.594 435.571 159.801H435.573Z" fill="#0D71C7" fill-opacity="0.15"/>
<path fill-rule="evenodd" clip-rule="evenodd" d="M416.188 163.898C422.22 162.653 427.766 161.541 432.98 160.359C437.456 165.272 441.977 170.18 446.395 175.297C440.955 176.801 435.937 178.678 430.18 180.147C425.423 174.683 420.721 169.243 416.188 163.898Z" fill="#0D71C7" fill-opacity="0.15"/>
<path fill-rule="evenodd" clip-rule="evenodd" d="M393.781 169.02C400.835 167.64 407.087 166.335 413.391 164.965C418.095 170.36 422.788 175.852 427.488 181.221C421.602 183.164 415.368 185.066 408.828 187.014C403.653 180.714 398.736 174.792 393.781 169.02Z" fill="#0D71C7" fill-opacity="0.15"/>
<path fill-rule="evenodd" clip-rule="evenodd" d="M160.576 137.836C165.017 134.292 169.365 130.715 173.338 127.449C179.757 131.078 186.148 134.458 192.602 138.291C189 142.045 185.434 145.982 181.124 150.009C174.165 145.902 167.211 141.818 160.579 137.836H160.576Z" fill="#0D71C7" fill-opacity="0.15"/>
<path fill-rule="evenodd" clip-rule="evenodd" d="M378.419 130.56C380.186 128.783 381.911 127.13 383.706 125.715C386.206 127.463 388.811 129.327 391.383 131.099C389.786 132.78 388.278 134.587 386.657 136.619C383.889 134.553 381.128 132.501 378.417 130.56H378.419Z" fill="#0D71C7" fill-opacity="0.15"/>
<path fill-rule="evenodd" clip-rule="evenodd" d="M448.34 64.9223C449.027 63.8749 449.658 62.7842 450.239 61.6914C452.489 63.5503 454.891 65.5628 457.25 67.5234C456.882 68.7807 456.362 69.9298 455.775 71.1611C453.307 69.0901 450.798 66.9846 448.342 64.9223H448.34Z" fill="#0D71C7" fill-opacity="0.15"/>
<path fill-rule="evenodd" clip-rule="evenodd" d="M83.0876 246.62C88.6384 242.281 93.8737 238.124 98.9588 234.465C105.58 236.499 112.077 238.908 118.895 241.206C113.951 245.205 109.085 249.526 104.085 254.183C96.9743 251.513 89.7002 249.106 83.0854 246.618L83.0876 246.62Z" fill="#0D71C7" fill-opacity="0.15"/>
<path fill-rule="evenodd" clip-rule="evenodd" d="M432.498 78.9963C433.044 78.3969 433.475 77.8126 433.904 77.25C435.366 78.3104 436.837 79.3512 438.258 80.39C437.929 81.0327 437.59 81.7879 437.209 82.4198C435.636 81.2837 434.121 80.1563 432.498 78.9942V78.9963Z" fill="#0D71C7" fill-opacity="0.15"/>
<path fill-rule="evenodd" clip-rule="evenodd" d="M382.11 51.5712C383.429 51.0108 384.677 50.5152 385.913 50.0586C387.778 51.3245 389.641 52.6338 391.547 54.0144C390.507 54.6398 389.364 55.1959 388.065 55.9144C386.124 54.4017 384.116 52.9887 382.11 51.5734V51.5712Z" fill="#0D71C7" fill-opacity="0.15"/>
<path fill-rule="evenodd" clip-rule="evenodd" d="M101.667 102.927C106.893 100.78 111.752 98.9064 116.369 97.1406C122.34 99.6119 127.993 101.979 133.402 104.49C129.231 106.569 124.838 108.699 119.923 111.317C113.612 108.38 107.481 105.468 101.667 102.927Z" fill="#0D71C7" fill-opacity="0.15"/>
<path fill-rule="evenodd" clip-rule="evenodd" d="M403.486 48.2278C404.282 47.8535 404.878 47.3622 405.509 46.9922C407.028 47.9833 408.475 49.1021 409.938 50.1819C409.402 50.6558 408.908 51.2163 408.262 51.6491C406.806 50.539 405.148 49.3639 403.486 48.2278Z" fill="#0D71C7" fill-opacity="0.15"/>
<path fill-rule="evenodd" clip-rule="evenodd" d="M436.712 40.0493C437.134 39.742 437.595 39.5061 438.011 39.2227C439.106 40.0688 440.304 40.943 441.355 41.7502C440.992 42.0791 440.677 42.4124 440.352 42.7933C439.153 41.8909 437.909 40.9712 436.712 40.0493Z" fill="#0D71C7" fill-opacity="0.15"/>
<path fill-rule="evenodd" clip-rule="evenodd" d="M516.934 123.377C517.113 122.923 517.348 122.468 517.47 122.031C518.344 122.629 519.16 123.31 520.035 123.933C519.968 124.461 519.846 124.961 519.724 125.461C518.738 124.762 517.861 124.07 516.934 123.377Z" fill="#0D71C7" fill-opacity="0.15"/>
<path fill-rule="evenodd" clip-rule="evenodd" d="M79.073 173.372C82.7938 171.595 85.8053 169.918 88.9822 168.312C93.6473 169.63 98.1145 170.823 102.566 172.112C99.8356 173.759 96.7437 175.679 93.4711 177.497C88.5949 176.172 83.8187 174.731 79.073 173.372Z" fill="#0D71C7" fill-opacity="0.15"/>
<path fill-rule="evenodd" clip-rule="evenodd" d="M352.89 42.9766C354.195 42.5915 355.529 42.3274 356.658 41.9336C358.475 43.1173 360.394 44.3465 362.113 45.4869C361.019 45.9673 359.994 46.3763 358.784 46.8264C356.976 45.5864 354.861 44.2188 352.89 42.9766Z" fill="#0D71C7" fill-opacity="0.15"/>
<path fill-rule="evenodd" clip-rule="evenodd" d="M400.998 13.7135C401.827 13.5598 402.656 13.4278 403.47 13.3867C404.836 14.2523 406.138 15.2413 407.445 16.1891C406.671 16.3233 405.892 16.4704 405.111 16.6414C403.714 15.62 402.356 14.6483 400.998 13.7135Z" fill="#0D71C7" fill-opacity="0.15"/>
<path fill-rule="evenodd" clip-rule="evenodd" d="M421.639 49.5603C422.392 49.3223 423.134 49.1535 423.828 48.9414C424.997 49.781 426.32 50.7029 427.547 51.5339C426.848 51.7806 426.204 52.01 425.502 52.261C424.179 51.3434 422.958 50.48 421.637 49.5603H421.639Z" fill="#0D71C7" fill-opacity="0.15"/>
<path fill-rule="evenodd" clip-rule="evenodd" d="M548.625 146.547C548.838 146.201 548.997 145.928 549.212 145.582C549.902 146.054 550.589 146.53 551.223 146.973C551.068 147.331 550.968 147.666 550.753 147.956C550.061 147.508 549.312 147.025 548.625 146.547Z" fill="#0D71C7" fill-opacity="0.15"/>
<path fill-rule="evenodd" clip-rule="evenodd" d="M439.377 68.8721C440.13 68.6254 440.835 68.3419 441.527 68.1602C442.628 68.9067 443.838 69.7074 445 70.4518C444.302 70.6985 443.603 70.9582 442.952 71.2525C441.797 70.467 440.585 69.6771 439.377 68.8721Z" fill="#0D71C7" fill-opacity="0.15"/>
<path fill-rule="evenodd" clip-rule="evenodd" d="M322.251 79.1974C323.885 78.7711 325.452 78.3361 326.958 77.9336C328.94 79.0004 330.87 80.0154 332.961 81.132C331.414 81.4847 329.895 81.9673 328.378 82.4152C326.407 81.3159 324.249 80.2253 322.251 79.1974Z" fill="#0D71C7" fill-opacity="0.15"/>
<path fill-rule="evenodd" clip-rule="evenodd" d="M553.902 139.063C554.104 138.711 554.368 138.405 554.572 138.133C555.249 138.563 555.873 139.014 556.5 139.518C556.298 139.819 556.091 140.132 555.889 140.483C555.205 140 554.524 139.518 553.902 139.063Z" fill="#0D71C7" fill-opacity="0.15"/>
<path fill-rule="evenodd" clip-rule="evenodd" d="M457.609 85.7659C458.308 85.5214 459.013 85.1989 459.655 84.9414C460.736 85.662 461.711 86.322 462.742 87.0253C462.155 87.298 461.563 87.6053 460.914 87.9342C459.831 87.1855 458.743 86.5319 457.609 85.7637V85.7659Z" fill="#0D71C7" fill-opacity="0.15"/>
<path fill-rule="evenodd" clip-rule="evenodd" d="M448.744 57.1241C449.356 56.9661 449.954 56.9055 450.561 56.793C451.451 57.3989 452.385 58.0762 453.281 58.6454C452.781 58.7536 452.172 58.9094 451.662 59.0825C450.675 58.4008 449.737 57.743 448.744 57.1262V57.1241Z" fill="#0D71C7" fill-opacity="0.15"/>
<path fill-rule="evenodd" clip-rule="evenodd" d="M-0.000928879 213.245C4.96452 211.752 10.215 209.98 15.522 208.441C20.4374 209.493 25.7467 210.242 30.7383 211.162C25.9665 212.62 20.7987 214.33 16.0247 216.024C10.4478 215.087 5.28873 214.224 -0.000928879 213.248V213.245Z" fill="#0D71C7" fill-opacity="0.15"/>
<path fill-rule="evenodd" clip-rule="evenodd" d="M381.598 22.6367C382.693 22.68 383.678 22.6908 384.664 22.6995C385.819 23.4331 387.025 24.1991 388.27 25.0193C387.288 24.9738 386.39 25.0561 385.399 25.0474C384.155 24.2294 382.908 23.4028 381.6 22.6367H381.598Z" fill="#0D71C7" fill-opacity="0.15"/>
<path fill-rule="evenodd" clip-rule="evenodd" d="M540.279 143.389C540.614 143.14 540.949 142.883 541.169 142.645C541.794 143.043 542.477 143.497 543.047 143.861C542.827 144.127 542.551 144.354 542.274 144.64C541.591 144.179 540.962 143.794 540.279 143.391V143.389Z" fill="#0D71C7" fill-opacity="0.15"/>
<path fill-rule="evenodd" clip-rule="evenodd" d="M245.231 116.866C247.703 116.264 250.351 115.905 252.873 115.359C255.357 116.223 257.618 116.978 259.84 117.865C257.551 118.285 255.072 118.876 252.485 119.467C250.068 118.575 247.585 117.718 245.233 116.866H245.231Z" fill="#0D71C7" fill-opacity="0.15"/>
<path fill-rule="evenodd" clip-rule="evenodd" d="M253.672 161.697C255.902 160.305 258.108 158.92 260.328 157.715C263.435 158.907 266.603 160.309 269.793 161.662C267.728 163.036 265.676 164.376 263.602 165.938C260.145 164.371 256.87 163.058 253.672 161.694V161.697Z" fill="#0D71C7" fill-opacity="0.15"/>
<path fill-rule="evenodd" clip-rule="evenodd" d="M547.324 154.737C547.537 154.125 547.692 153.499 547.848 152.965C548.721 153.59 549.654 154.283 550.59 155.003C550.496 155.629 550.401 156.339 550.253 156.979C549.313 156.241 548.318 155.49 547.324 154.735V154.737Z" fill="#0D71C7" fill-opacity="0.15"/>
<path fill-rule="evenodd" clip-rule="evenodd" d="M307.675 106.336C309.685 105.189 311.539 104.166 313.26 103.168C315.906 104.633 318.663 106.189 321.418 107.773C319.686 108.835 318.139 110.112 316.209 111.209C313.28 109.567 310.484 107.933 307.675 106.336Z" fill="#0D71C7" fill-opacity="0.15"/>
</g>
<defs>
<clipPath id="clip0_1227_26953">
<rect width="566" height="308" fill="white" transform="matrix(-1 0 0 1 566 0)"/>
</clipPath>
</defs>
</svg>
