<svg width="566" height="308" viewBox="0 0 566 308" fill="none" xmlns="http://www.w3.org/2000/svg">
<g clip-path="url(#clip0_1227_26778)">
<path fill-rule="evenodd" clip-rule="evenodd" d="M138.536 4.66222C138.951 4.06712 139.552 4.28352 139.178 1.70836C137.779 -2.50928 139.561 2.50038 139.395 1.7841C139.189 3.0284 138.425 2.42248 137.957 2.35539C138.101 2.9137 138.294 3.81393 138.536 4.66222Z" fill="#0D71C7" fill-opacity="0.15"/>
<path fill-rule="evenodd" clip-rule="evenodd" d="M49.6831 262.736C46.4475 257.358 43.8081 251.444 41.2187 246.168C39.8414 248.293 35.8943 271.545 30.4414 308.002H42.2392C45.8121 281.24 48.4689 264.644 49.6831 262.736Z" fill="#0D71C7" fill-opacity="0.15"/>
<path fill-rule="evenodd" clip-rule="evenodd" d="M39.5805 247.308C36.9651 242.315 34.5346 237.561 32.0758 233.949C30.7376 235.886 25.9615 264.386 19.3945 307.999H30.0587C34.8305 272.2 38.2989 249.357 39.5805 247.308Z" fill="#0D71C7" fill-opacity="0.15"/>
<path fill-rule="evenodd" clip-rule="evenodd" d="M30.8997 232.5C28.6955 229.36 26.5914 226.378 24.5134 223.543C22.0524 237.771 19.561 251.811 17.1697 265.765C14.737 279.935 12.3369 294.033 10 307.969L10.1567 307.997H19.7438C23.3166 283.2 27.1114 257.948 30.8997 232.498V232.5Z" fill="#0D71C7" fill-opacity="0.15"/>
<path fill-rule="evenodd" clip-rule="evenodd" d="M23.6479 222.068C21.8071 219.131 20.0511 216.519 18.38 214.059C15.2118 229.678 12.0481 245.127 9.00178 260.279C5.9272 275.585 2.9092 290.716 0 305.553V306.161C2.76342 306.682 5.60299 307.199 8.51872 307.671C10.897 293.625 13.4124 279.357 15.9495 264.967C18.4431 250.818 21.0977 236.534 23.6479 222.068Z" fill="#0D71C7" fill-opacity="0.15"/>
<path fill-rule="evenodd" clip-rule="evenodd" d="M17.5488 212.97C15.9734 210.618 14.7331 208.244 13.6365 205.723C9.78076 222.517 5.87933 239.165 2.26948 255.551L0 265.854V299.052C2.57629 286.091 5.25049 272.943 7.95298 259.658C11.0689 244.324 14.2914 228.698 17.551 212.972L17.5488 212.97Z" fill="#0D71C7" fill-opacity="0.15"/>
<path fill-rule="evenodd" clip-rule="evenodd" d="M12.8336 204.769C11.4976 202.657 10.2986 200.651 9.24113 198.441C6.13609 211.027 3.03976 223.505 0 235.859V260.782L1.30555 254.995C5.01114 238.558 8.88645 221.752 12.8336 204.771V204.769Z" fill="#0D71C7" fill-opacity="0.15"/>
<path fill-rule="evenodd" clip-rule="evenodd" d="M8.64928 197.519C7.59178 195.775 6.86938 193.726 6.15132 191.688C4.07767 199.452 2.02796 207.171 0 214.838V232.275C2.86351 220.815 5.77054 209.222 8.64928 197.522V197.519Z" fill="#0D71C7" fill-opacity="0.15"/>
<path fill-rule="evenodd" clip-rule="evenodd" d="M5.37887 191.142C4.66299 189.37 4.01675 187.552 3.55763 185.797L0 198.452V211.339C1.77555 204.643 3.56851 197.907 5.37887 191.142Z" fill="#0D71C7" fill-opacity="0.15"/>
<path fill-rule="evenodd" clip-rule="evenodd" d="M3.26605 184.404C2.69161 182.695 2.23684 181.059 1.84083 179.594L0 185.88V195.99L3.26605 184.404Z" fill="#0D71C7" fill-opacity="0.15"/>
<path fill-rule="evenodd" clip-rule="evenodd" d="M1.71462 178.682C1.38388 177.132 1.23592 175.574 1.02703 174.07L0 177.479V184.499L1.71462 178.682Z" fill="#0D71C7" fill-opacity="0.15"/>
<path fill-rule="evenodd" clip-rule="evenodd" d="M0.942173 173.504C0.796386 172.021 0.894303 170.357 1.04662 168.777L0 172.151V176.615L0.942173 173.504Z" fill="#0D71C7" fill-opacity="0.15"/>
<path fill-rule="evenodd" clip-rule="evenodd" d="M1.10754 167.69C1.12277 166.435 1.38606 164.97 1.64935 163.418L0 168.711V171.245L1.10754 167.69Z" fill="#0D71C7" fill-opacity="0.15"/>
<path fill-rule="evenodd" clip-rule="evenodd" d="M1.67719 163.022C1.92524 161.7 2.34302 160.428 2.8239 158.984L0.00390625 168.06V168.361L1.67936 163.022H1.67719Z" fill="#0D71C7" fill-opacity="0.15"/>
<path fill-rule="evenodd" clip-rule="evenodd" d="M3.09633 158.132C3.67948 156.877 4.32355 155.503 4.77397 154.43C3.18772 159.569 1.59277 164.709 0 169.837V168.089C1.04009 164.771 2.07583 161.456 3.09633 158.132Z" fill="#0D71C7" fill-opacity="0.15"/>
<path fill-rule="evenodd" clip-rule="evenodd" d="M5.26834 153.612C5.95158 152.42 6.86112 151.078 7.7663 149.812C5.1726 158.298 2.57238 166.778 -0.00390625 175.235V170.691C1.75859 164.999 3.52326 159.297 5.26617 153.612H5.26834Z" fill="#0D71C7" fill-opacity="0.15"/>
<path fill-rule="evenodd" clip-rule="evenodd" d="M140.498 307.999C134.224 301.905 128.262 296.236 122.605 290.449C119.123 296.169 115.483 302.07 111.852 307.999H140.498Z" fill="#0D71C7" fill-opacity="0.15"/>
<path fill-rule="evenodd" clip-rule="evenodd" d="M119.377 287.527C112.902 280.723 106.894 275.084 101.241 269.875C94.8548 278.674 88.9363 287.215 82.6914 296.683C85.4831 300.102 88.3336 303.941 91.3168 308.003H106.574C110.874 300.976 115.139 294.183 119.377 287.527Z" fill="#0D71C7" fill-opacity="0.15"/>
<path fill-rule="evenodd" clip-rule="evenodd" d="M98.5948 267.085C92.994 262.086 88.0612 257.334 83.272 252.762C77.6734 260.264 71.9289 268.267 66.3281 276.161C70.6038 281.625 75.3234 287.213 80.1778 293.386C86.3488 284.464 92.2585 275.815 98.5948 267.085Z" fill="#0D71C7" fill-opacity="0.15"/>
<path fill-rule="evenodd" clip-rule="evenodd" d="M80.951 250.658C76.5338 246.791 72.2995 242.865 68.335 239.219C63.3717 245.791 58.2235 252.175 53.0078 258.985C56.6394 263.466 60.3428 268.197 64.2899 273.518C69.8494 265.855 75.4698 257.95 80.9531 250.658H80.951Z" fill="#0D71C7" fill-opacity="0.15"/>
<path fill-rule="evenodd" clip-rule="evenodd" d="M54.5747 225.804C51.5349 222.794 48.543 220.109 45.6534 217.512C41.5562 222.361 37.0803 227.696 32.9961 232.852C35.3113 235.964 37.9985 239.288 40.6771 243.075C45.3292 236.986 49.8725 231.675 54.5747 225.804Z" fill="#0D71C7" fill-opacity="0.15"/>
<path fill-rule="evenodd" clip-rule="evenodd" d="M43.975 216.622C41.3922 214.094 38.7789 211.8 36.5073 209.238C32.843 213.56 29.0004 218.013 25.4297 222.335C27.3771 225.254 29.5487 228.18 31.816 231.298C35.7784 226.442 40.0018 221.376 43.975 216.622Z" fill="#0D71C7" fill-opacity="0.15"/>
<path fill-rule="evenodd" clip-rule="evenodd" d="M34.8607 207.76C32.7609 205.438 30.7482 203.324 28.8203 201.223C25.4716 205.033 22.0184 209.061 18.8438 212.815C20.3821 215.224 22.199 217.665 24.1029 220.352C27.6715 216.076 31.4467 211.794 34.8629 207.76H34.8607Z" fill="#0D71C7" fill-opacity="0.15"/>
<path fill-rule="evenodd" clip-rule="evenodd" d="M27.609 200.053C25.7747 198.252 24.1428 196.378 22.3999 194.641C19.4994 197.906 16.44 201.252 13.5352 204.517C14.758 206.869 16.1876 209.181 17.5019 211.667C20.8702 207.884 24.3843 203.874 27.609 200.053Z" fill="#0D71C7" fill-opacity="0.15"/>
<path fill-rule="evenodd" clip-rule="evenodd" d="M21.724 193.732C20.1899 192.078 18.793 190.159 17.5897 188.449C14.8894 191.362 12.3501 194.231 9.46484 197.332C10.6507 199.423 11.8497 201.399 13.1182 203.545C15.9534 200.382 18.8844 197.099 21.7261 193.732H21.724Z" fill="#0D71C7" fill-opacity="0.15"/>
<path fill-rule="evenodd" clip-rule="evenodd" d="M16.8141 187.106C15.5086 185.585 14.388 184.141 13.2173 182.652C10.7128 185.368 8.24099 188.162 6.07812 190.542C6.79835 192.423 7.77752 194.189 8.57173 196.21C11.2633 193.176 14.055 190.053 16.8163 187.106H16.8141Z" fill="#0D71C7" fill-opacity="0.15"/>
<path fill-rule="evenodd" clip-rule="evenodd" d="M12.7485 182.18C11.7106 180.697 10.8642 179.09 9.95683 177.789C7.96368 179.862 5.95096 182.156 3.98828 184.372C4.57143 186.092 5.09365 187.921 5.80735 189.693C8.09642 187.172 10.3746 184.649 12.7485 182.18Z" fill="#0D71C7" fill-opacity="0.15"/>
<path fill-rule="evenodd" clip-rule="evenodd" d="M9.57205 176.911C8.67339 175.667 8.13812 174.23 7.60719 172.895C5.87734 174.701 4.0735 176.593 2.38281 178.439C2.71355 180.018 3.22925 181.574 3.55563 183.438C5.51396 181.319 7.65071 178.934 9.57422 176.911H9.57205Z" fill="#0D71C7" fill-opacity="0.15"/>
<path fill-rule="evenodd" clip-rule="evenodd" d="M7.21635 172.315C6.81163 170.924 6.34163 169.753 5.93691 168.441C4.40071 170.043 3.03423 171.612 1.42188 173.304C1.63512 174.741 1.844 176.29 2.17474 177.786C3.92853 175.855 5.61052 174.027 7.21635 172.317V172.315Z" fill="#0D71C7" fill-opacity="0.15"/>
<path fill-rule="evenodd" clip-rule="evenodd" d="M5.74989 167.507C5.52359 166.223 5.23637 165.087 5.19068 163.73C3.78503 165.252 2.55781 166.583 1.38935 167.82C1.23703 169.422 1.27402 170.824 1.35888 172.393C2.72536 170.904 4.33336 169.099 5.74989 167.509V167.507Z" fill="#0D71C7" fill-opacity="0.15"/>
<path fill-rule="evenodd" clip-rule="evenodd" d="M26.4522 132.236C28.2277 131.282 29.8945 130.384 31.7222 129.652C31.7201 129.914 31.7744 130.072 31.9398 130.055C29.9989 130.964 27.9427 132.167 26.3281 133.03C26.3347 132.678 26.3347 132.576 26.4522 132.236Z" fill="#0D71C7" fill-opacity="0.15"/>
<path fill-rule="evenodd" clip-rule="evenodd" d="M4.97335 159.118C5.2127 157.898 5.38678 156.727 5.66965 155.699C4.95159 156.409 3.98984 157.448 3.20215 158.339C2.78003 159.72 2.36225 161.07 1.93359 162.468C3.09118 161.241 3.94632 160.259 4.97118 159.118H4.97335Z" fill="#0D71C7" fill-opacity="0.15"/>
<path fill-rule="evenodd" clip-rule="evenodd" d="M5.99559 154.775C6.39596 153.645 6.84638 152.498 7.29679 151.395C6.58092 152.219 6.04129 152.933 5.32323 153.729C4.57472 155.054 3.99375 156.313 3.40625 157.7C4.31796 156.627 5.04037 155.792 5.99777 154.775H5.99559Z" fill="#0D71C7" fill-opacity="0.15"/>
<path fill-rule="evenodd" clip-rule="evenodd" d="M14.4844 141.418C15.5202 140.338 16.606 139.345 17.744 138.453C17.4546 138.856 17.163 139.278 16.9302 139.617C15.6725 140.736 14.4714 141.775 13.3203 142.844C13.7272 142.396 13.9622 142.061 14.4844 141.418Z" fill="#0D71C7" fill-opacity="0.15"/>
<path fill-rule="evenodd" clip-rule="evenodd" d="M204.989 297.92C194.029 290.543 184.54 283.556 174.637 277.133C168.732 287.152 162.594 297.057 156.395 308.002H199.595C201.377 304.605 203.175 301.244 204.989 297.92Z" fill="#0D71C7" fill-opacity="0.15"/>
<path fill-rule="evenodd" clip-rule="evenodd" d="M170.199 274.286C161.488 268.147 153.342 262.267 145.802 256.879C139.479 266.29 133.217 275.667 126.98 285.623C134.3 292.399 141.792 299.943 150.354 307.268C156.919 295.731 163.743 284.963 170.199 274.286Z" fill="#0D71C7" fill-opacity="0.15"/>
<path fill-rule="evenodd" clip-rule="evenodd" d="M142.194 254.367C134.97 250.186 128.577 245.575 122.36 241.281C116.625 248.959 110.7 257.009 104.973 265.408C110.804 270.872 116.786 276.448 123.49 282.845C129.878 272.826 135.849 263.387 142.194 254.367Z" fill="#0D71C7" fill-opacity="0.15"/>
<path fill-rule="evenodd" clip-rule="evenodd" d="M119.531 238.996C113.542 235.14 108.083 231.232 102.824 227.949C97.5603 234.521 91.9595 241.972 86.6133 249.572C91.5091 253.872 96.727 258.068 102.358 262.885C107.87 254.861 113.756 246.886 119.531 238.996Z" fill="#0D71C7" fill-opacity="0.15"/>
<path fill-rule="evenodd" clip-rule="evenodd" d="M100.316 226.348C95.3074 223.376 90.7815 220.213 86.2925 217.629C81.301 223.496 76.5161 229.596 71.418 236.151C75.426 239.643 79.8366 243.205 84.2624 247.163C89.5543 240.223 95.0397 232.872 100.316 226.348Z" fill="#0D71C7" fill-opacity="0.15"/>
<path fill-rule="evenodd" clip-rule="evenodd" d="M40.6178 126.309C39.4537 126.19 38.4006 126.065 37.4606 125.883C35.5327 127.781 33.7637 129.551 31.875 131.351C32.8172 131.481 33.7049 131.788 34.7059 132.022C36.6511 130.187 38.529 128.278 40.6178 126.309Z" fill="#0D71C7" fill-opacity="0.15"/>
<path fill-rule="evenodd" clip-rule="evenodd" d="M70.5944 207.044C67.0499 204.925 63.8404 202.681 60.5417 200.621C56.4553 205.477 52.2471 210.357 48.1172 215.319C51.0612 217.689 54.114 220.311 57.3997 222.947C61.7493 217.598 66.112 212.365 70.5944 207.044Z" fill="#0D71C7" fill-opacity="0.15"/>
<path fill-rule="evenodd" clip-rule="evenodd" d="M58.7022 199.961C55.7625 197.899 52.7968 196.042 49.9768 194.145C46.467 198.189 42.7963 202.42 39.2734 206.691C41.6713 209.083 44.2193 211.348 46.8696 213.813C50.7623 209.314 54.7268 204.629 58.7022 199.961Z" fill="#0D71C7" fill-opacity="0.15"/>
<path fill-rule="evenodd" clip-rule="evenodd" d="M48.221 193.024C45.5729 191.417 43.4405 189.536 41.0862 188.004C37.7418 191.735 34.3669 195.426 31.2031 199.107C33.131 201.124 35.2699 203.093 37.5633 205.303C41.208 200.862 44.7656 196.868 48.2188 193.024H48.221Z" fill="#0D71C7" fill-opacity="0.15"/>
<path fill-rule="evenodd" clip-rule="evenodd" d="M39.7541 186.978C37.5477 185.433 35.5436 183.866 33.4374 182.656C30.5151 185.82 27.4449 189.114 24.3398 192.816C26.0197 194.56 27.78 196.263 29.7448 198.246C32.9717 194.593 36.4097 190.624 39.7541 186.978Z" fill="#0D71C7" fill-opacity="0.15"/>
<path fill-rule="evenodd" clip-rule="evenodd" d="M32.6914 181.993C30.8462 180.528 29.075 179.295 27.5562 177.875C24.8799 180.773 22.1186 183.776 19.4531 186.598C20.8435 188.238 22.2448 190.052 23.9072 191.828C26.8208 188.42 29.767 185.207 32.6914 181.991V181.993Z" fill="#0D71C7" fill-opacity="0.15"/>
<path fill-rule="evenodd" clip-rule="evenodd" d="M26.4739 176.905C24.8528 175.849 23.5451 174.44 22.2439 173.23C19.6915 175.888 17.1152 178.684 14.5781 181.529C15.9381 182.763 16.9956 184.41 18.2467 185.909C20.9144 182.951 23.7997 179.826 26.4739 176.907V176.905Z" fill="#0D71C7" fill-opacity="0.15"/>
<path fill-rule="evenodd" clip-rule="evenodd" d="M21.5271 172.85C20.1149 171.822 19.1923 170.452 18.0347 169.277C15.8501 171.55 13.5893 173.969 11.4961 176.276C12.5275 177.565 13.4392 179.007 14.4793 180.496C16.8271 177.94 19.1575 175.378 21.5271 172.85Z" fill="#0D71C7" fill-opacity="0.15"/>
<path fill-rule="evenodd" clip-rule="evenodd" d="M11.6239 161.489C11.1517 160.364 10.7339 159.364 10.3749 158.332C8.8757 159.916 7.55057 161.318 6.16016 162.803C6.38645 164.006 6.73677 165.114 6.84339 166.523C8.54496 164.768 10.0638 163.114 11.6261 161.491L11.6239 161.489Z" fill="#0D71C7" fill-opacity="0.15"/>
<path fill-rule="evenodd" clip-rule="evenodd" d="M9.98656 157.968C9.86688 156.764 9.50568 155.94 9.4404 154.934C8.30675 156.115 7.10782 157.392 5.96546 158.636C5.90671 159.783 6.01768 160.982 6.13301 162.125C7.40374 160.733 8.66795 159.318 9.98656 157.968Z" fill="#0D71C7" fill-opacity="0.15"/>
<path fill-rule="evenodd" clip-rule="evenodd" d="M9.61917 150.982C9.71273 150.233 9.9869 149.13 10.1914 148.301C9.42551 149.147 8.59431 150.101 7.88496 150.88C7.3214 152.051 6.92756 153.163 6.58594 154.289C7.59556 153.261 8.55297 152.131 9.61699 150.984L9.61917 150.982Z" fill="#0D71C7" fill-opacity="0.15"/>
<path fill-rule="evenodd" clip-rule="evenodd" d="M11.55 145.324C11.9721 144.597 12.6249 143.506 13.504 142.422C13.0362 143.034 12.4508 143.694 12.2115 144.166C11.1583 145.428 10.3881 146.432 9.55469 147.568C10.1465 146.865 10.9081 146.047 11.5522 145.324H11.55Z" fill="#0D71C7" fill-opacity="0.15"/>
<path fill-rule="evenodd" clip-rule="evenodd" d="M17.4871 137.808C18.29 136.922 19.1408 136.137 19.9306 135.434C19.4171 136.098 18.958 136.728 18.4467 137.273C17.4784 138.171 16.5057 139.143 15.6484 139.92C16.3404 139.147 16.8561 138.563 17.4893 137.808H17.4871Z" fill="#0D71C7" fill-opacity="0.15"/>
<path fill-rule="evenodd" clip-rule="evenodd" d="M15.395 142.291C15.5299 141.616 15.8346 140.889 15.9695 140.207C15.16 141.161 14.2918 142.12 13.4802 142.983C13.1756 143.773 12.7491 144.637 12.4336 145.489C13.3671 144.496 14.4115 143.434 15.395 142.291Z" fill="#0D71C7" fill-opacity="0.15"/>
<path fill-rule="evenodd" clip-rule="evenodd" d="M386.161 194.214C368.292 190.453 351.872 186.746 336.408 183.219C330.448 192.829 324.365 202.007 318.668 211.855C333.669 216.029 350.219 221.409 368.544 226.888C374.506 215.547 380.286 204.818 386.163 194.214H386.161Z" fill="#0D71C7" fill-opacity="0.15"/>
<path fill-rule="evenodd" clip-rule="evenodd" d="M283.114 183.363C270.64 180.598 259.664 177.871 248.741 175.809C243.384 183.062 237.551 190.576 231.734 198.453C242.392 201.69 253.578 205.165 265.6 209.011C271.201 200.372 277.298 191.5 283.114 183.361V183.363Z" fill="#0D71C7" fill-opacity="0.15"/>
<path fill-rule="evenodd" clip-rule="evenodd" d="M268.437 126.906C258.502 126.507 249.206 125.906 240.237 125.43C235.191 130.939 230.252 136.312 225.504 141.896C234.203 142.685 243.442 143.69 253.271 145.126C258.175 138.834 263.071 132.74 268.437 126.906Z" fill="#0D71C7" fill-opacity="0.15"/>
<path fill-rule="evenodd" clip-rule="evenodd" d="M321.225 307.998C308.489 301.244 296.571 294.856 285.348 288.699C282.141 295.003 278.927 301.432 275.75 307.998H321.222H321.225Z" fill="#0D71C7" fill-opacity="0.15"/>
<path fill-rule="evenodd" clip-rule="evenodd" d="M277.722 284.749C263.1 276.974 250.217 269.478 237.612 262.77C230.999 274.208 224.225 286.511 217.484 298.789C221.61 301.841 225.809 304.9 230.116 308.001H266.373C270.213 300.055 273.989 292.332 277.722 284.749Z" fill="#0D71C7" fill-opacity="0.15"/>
<path fill-rule="evenodd" clip-rule="evenodd" d="M231.783 259.76C220.37 254.16 209.834 248.958 200.156 243.801C193.919 253.268 187.276 263.43 181.277 273.915C190.706 280.446 200.848 287.148 211.999 294.367C218.442 282.275 225.168 271.041 231.783 259.76Z" fill="#0D71C7" fill-opacity="0.15"/>
<path fill-rule="evenodd" clip-rule="evenodd" d="M194.856 242.361C185.427 237.54 176.835 233.324 168.688 229.297C163.072 237.278 157.147 245.536 151.191 253.934C159.014 259.262 167.578 265.135 176.597 271.313C182.786 260.891 188.754 251.673 194.856 242.359V242.361Z" fill="#0D71C7" fill-opacity="0.15"/>
<path fill-rule="evenodd" clip-rule="evenodd" d="M163.662 226.359C156.134 222.888 149.025 219.504 142.293 216.137C136.92 223.02 131.524 230.285 126.121 237.749C132.494 242.161 139.164 246.376 146.444 250.585C152.086 242.605 157.92 234.438 163.662 226.362V226.359Z" fill="#0D71C7" fill-opacity="0.15"/>
<path fill-rule="evenodd" clip-rule="evenodd" d="M138.403 214.166C132.284 210.708 126.427 208.156 120.615 205.629C115.558 212.065 110.368 218.641 105.035 225.287C110.532 228.37 116.278 231.95 122.07 235.925C127.436 228.569 133.041 221.197 138.403 214.166Z" fill="#0D71C7" fill-opacity="0.15"/>
<path fill-rule="evenodd" clip-rule="evenodd" d="M118.07 204.921C112.907 202.422 107.809 200.072 102.845 197.992C98.4499 203.536 93.8 209.061 89.2109 214.588C93.7173 217.377 98.4891 220.381 103.328 223.601C108.307 217.273 113.333 210.942 118.068 204.921H118.07Z" fill="#0D71C7" fill-opacity="0.15"/>
<path fill-rule="evenodd" clip-rule="evenodd" d="M85.2691 189.718C81.1675 188.229 77.5859 186.56 74.0283 184.918C70.2009 189.229 66.2211 193.756 62.5547 198.021C65.7859 200.105 68.9279 202.349 72.7837 204.325C76.8265 199.462 81.0043 194.55 85.2691 189.716V189.718Z" fill="#0D71C7" fill-opacity="0.15"/>
<path fill-rule="evenodd" clip-rule="evenodd" d="M72.1344 184.147C68.679 182.511 65.5588 180.881 62.4885 179.676C58.9244 183.543 55.6257 187.308 51.9375 191.489C54.7488 193.318 57.6428 195.083 60.6347 197.107C64.5535 192.716 68.2351 188.395 72.1344 184.147Z" fill="#0D71C7" fill-opacity="0.15"/>
<path fill-rule="evenodd" clip-rule="evenodd" d="M60.9618 179.074C58.1614 177.756 55.6199 176.389 52.9827 175.246C49.6339 178.83 46.307 182.346 43.3281 185.895C45.5019 187.497 48.0586 189.031 50.5783 190.678C54.1555 186.72 57.5782 182.885 60.9596 179.074H60.9618Z" fill="#0D71C7" fill-opacity="0.15"/>
<path fill-rule="evenodd" clip-rule="evenodd" d="M51.0587 174.746C48.5042 173.599 46.2129 172.519 43.9935 171.281C41.3389 174.149 38.1882 177.518 35.4922 180.602C37.4157 181.993 39.6003 183.378 41.8089 184.947C44.7942 181.482 48.0015 178.07 51.0587 174.746Z" fill="#0D71C7" fill-opacity="0.15"/>
<path fill-rule="evenodd" clip-rule="evenodd" d="M42.7668 170.656C40.6343 169.708 38.5085 168.771 36.6372 167.816C34.0348 170.578 31.5325 173.309 28.9453 176.007C30.5838 177.245 32.4747 178.388 34.2589 179.915C37.0767 176.734 39.8119 173.696 42.7668 170.658V170.656Z" fill="#0D71C7" fill-opacity="0.15"/>
<path fill-rule="evenodd" clip-rule="evenodd" d="M36.0921 167.288C34.2317 166.403 32.6215 165.414 30.8438 164.613C28.5917 166.92 26.2069 169.458 23.8047 171.951C25.2887 173.064 26.7226 174.319 28.3437 175.598C30.8677 172.821 33.4897 170.106 36.0921 167.288Z" fill="#0D71C7" fill-opacity="0.15"/>
<path fill-rule="evenodd" clip-rule="evenodd" d="M30.0753 163.832C28.661 162.787 27.2575 161.804 25.8584 161.066C23.5519 163.486 21.4652 165.684 19.3633 167.926C20.4621 169.108 21.6872 170.205 22.9797 171.374C25.3819 168.794 27.7645 166.336 30.0753 163.83V163.832Z" fill="#0D71C7" fill-opacity="0.15"/>
<path fill-rule="evenodd" clip-rule="evenodd" d="M25.0448 160.543C23.7719 159.851 22.5642 159.124 21.535 158.215C19.5811 160.281 17.7968 162.151 15.6992 164.389C16.6044 165.395 17.5161 166.377 18.5497 167.392C20.6494 165.211 22.734 163.064 25.0448 160.543Z" fill="#0D71C7" fill-opacity="0.15"/>
<path fill-rule="evenodd" clip-rule="evenodd" d="M219.909 152.943C211.592 151.8 203.668 150.824 195.976 149.621C191.178 155.375 186.345 160.924 181.258 166.699C188.588 168.244 196.391 169.703 204.703 171.754C209.808 165.319 214.926 159.123 219.911 152.943H219.909Z" fill="#0D71C7" fill-opacity="0.15"/>
<path fill-rule="evenodd" clip-rule="evenodd" d="M65.5811 123.315C63.3182 123.332 61.1727 123.336 59.1448 123.371C56.7687 125.751 54.3186 128.073 52.0273 130.384C54.0074 130.35 55.7242 130.681 57.8914 130.759C60.3937 128.259 62.9374 125.766 65.5833 123.312L65.5811 123.315Z" fill="#0D71C7" fill-opacity="0.15"/>
<path fill-rule="evenodd" clip-rule="evenodd" d="M65.2226 115.922C63.1707 116.171 61.2254 116.359 59.3411 116.513C57.0346 118.677 54.8304 120.756 52.6719 122.799C54.4061 122.81 56.1969 122.788 58.0442 122.715C60.3594 120.512 62.8204 118.188 65.2226 115.922Z" fill="#0D71C7" fill-opacity="0.15"/>
<path fill-rule="evenodd" clip-rule="evenodd" d="M459.331 308C453.267 305.445 447.342 302.928 441.563 300.441C440.592 302.924 439.639 305.445 438.699 308H459.333H459.331Z" fill="#0D71C7" fill-opacity="0.15"/>
<path fill-rule="evenodd" clip-rule="evenodd" d="M215.446 98.6367C208.274 99.0111 201.463 99.34 194.977 99.6473C190.978 103.612 187.02 107.632 182.938 111.471C189.426 111.51 195.919 111.419 202.904 111.324C206.955 107.031 211.244 102.833 215.444 98.6367H215.446Z" fill="#0D71C7" fill-opacity="0.15"/>
<path fill-rule="evenodd" clip-rule="evenodd" d="M354.706 263.924C336.454 256.467 319.717 249.873 303.789 243.777C297.584 255.238 290.941 267.553 284.883 280.747C300.519 288.914 316.897 297.207 335.207 306.079C341.398 291.742 348.085 277.538 354.704 263.924H354.706Z" fill="#0D71C7" fill-opacity="0.15"/>
<path fill-rule="evenodd" clip-rule="evenodd" d="M251.371 223.292C239.823 219.003 228.83 215.188 218.638 211.434C212.702 219.919 206.653 228.914 200.77 238.01C210.511 242.991 221.241 248.051 232.205 253.169C238.594 243.149 244.969 232.836 251.368 223.294L251.371 223.292Z" fill="#0D71C7" fill-opacity="0.15"/>
<path fill-rule="evenodd" clip-rule="evenodd" d="M181.293 199.237C173.314 196.538 166.034 194.074 159.101 191.535C154.075 197.72 148.815 204.439 143.77 211.347C150.371 214.532 157.597 217.912 164.893 221.405C170.168 213.731 175.849 206.211 181.295 199.237H181.293Z" fill="#0D71C7" fill-opacity="0.15"/>
<path fill-rule="evenodd" clip-rule="evenodd" d="M155.141 190.304C148.532 188.088 142.342 186.129 136.408 184.34C131.438 190.202 126.614 196.153 121.645 202.072C127.289 204.48 133.04 206.9 139.261 209.91C144.651 202.998 149.814 196.341 155.141 190.304Z" fill="#0D71C7" fill-opacity="0.15"/>
<path fill-rule="evenodd" clip-rule="evenodd" d="M133.85 183.691C128.349 181.919 123.012 180.175 117.774 178.402C113.411 183.57 109.047 188.649 104.586 193.918C109.41 196.076 114.504 198.497 119.687 200.83C124.539 194.985 129.33 189.209 133.848 183.689L133.85 183.691Z" fill="#0D71C7" fill-opacity="0.15"/>
<path fill-rule="evenodd" clip-rule="evenodd" d="M114.318 177.355C109.625 175.942 105.027 174.583 100.827 173.23C96.4408 178.115 92.2761 182.659 88.168 187.543C92.1064 189.095 96.3451 190.854 100.986 193.07C105.364 187.511 109.977 182.302 114.318 177.355Z" fill="#0D71C7" fill-opacity="0.15"/>
<path fill-rule="evenodd" clip-rule="evenodd" d="M98.7689 172.793C94.5019 171.618 90.6788 170.272 86.8361 169.168C83.0718 173.23 79.2335 177.597 75.6562 181.827C79.1268 183.344 82.6953 185.03 86.8383 186.435C90.6853 182.044 94.7695 177.289 98.7667 172.793H98.7689Z" fill="#0D71C7" fill-opacity="0.15"/>
<path fill-rule="evenodd" clip-rule="evenodd" d="M84.7893 168.507C81.112 167.518 77.6501 166.661 74.3819 165.707C70.9331 169.466 67.3841 173.164 64.1094 176.845C67.1013 177.981 70.3804 179.321 73.6355 180.929C77.2759 176.668 81.0228 172.615 84.7893 168.507Z" fill="#0D71C7" fill-opacity="0.15"/>
<path fill-rule="evenodd" clip-rule="evenodd" d="M72.876 165.234C69.7601 164.377 66.7791 163.468 63.9265 162.473C60.7388 165.903 57.5206 169.322 54.5156 172.656C57.0266 173.86 59.7988 175.054 62.6449 176.173C66.0502 172.572 69.4163 168.869 72.8782 165.234H72.876Z" fill="#0D71C7" fill-opacity="0.15"/>
<path fill-rule="evenodd" clip-rule="evenodd" d="M61.972 162.13C59.2129 161.295 56.7628 160.354 54.3954 159.609C51.4645 162.546 48.5792 165.556 45.7266 168.475C47.8263 169.776 50.2329 170.951 52.8375 172.003C55.9077 168.64 58.893 165.398 61.9741 162.13H61.972Z" fill="#0D71C7" fill-opacity="0.15"/>
<path fill-rule="evenodd" clip-rule="evenodd" d="M52.6539 159.465C50.3605 158.675 48.0801 158.01 45.8694 157.402C43.452 159.93 40.7843 162.691 38.332 165.377C40.3186 166.195 42.2574 167.125 44.3854 168.034C47.0618 165.227 49.8383 162.406 52.6539 159.462V159.465Z" fill="#0D71C7" fill-opacity="0.15"/>
<path fill-rule="evenodd" clip-rule="evenodd" d="M45.2672 156.945C43.3589 156.166 41.4658 155.445 39.5206 154.805C37.2097 157.196 34.714 159.871 32.4336 162.286C34.1526 163.149 35.8193 164.069 37.6145 164.956C40.1255 162.299 42.7387 159.685 45.2693 156.947L45.2672 156.945Z" fill="#0D71C7" fill-opacity="0.15"/>
<path fill-rule="evenodd" clip-rule="evenodd" d="M38.6324 154.266C36.8764 153.612 35.301 153.035 33.6734 152.539C31.417 154.77 29.2063 156.951 27.0391 159.276C28.4926 159.975 29.896 160.821 31.3648 161.747C33.7648 159.289 36.1475 156.744 38.6302 154.266H38.6324Z" fill="#0D71C7" fill-opacity="0.15"/>
<path fill-rule="evenodd" clip-rule="evenodd" d="M166.463 146.592C160.231 145.956 154.232 145.473 148.479 144.844C144.225 149.421 139.886 154.108 135.559 158.73C141.109 159.661 146.651 160.775 152.875 162.035C157.414 156.787 161.905 151.567 166.463 146.592Z" fill="#0D71C7" fill-opacity="0.15"/>
<path fill-rule="evenodd" clip-rule="evenodd" d="M145.868 144.429C140.444 143.747 135.143 143.286 130.382 142.652C126.213 146.928 122.09 151.302 118.219 155.584C122.932 156.498 127.795 157.419 133.048 158.259C137.217 153.773 141.612 148.991 145.868 144.429Z" fill="#0D71C7" fill-opacity="0.15"/>
<path fill-rule="evenodd" clip-rule="evenodd" d="M128.02 142.39C123.072 141.913 118.635 141.491 114.331 141.078C110.604 144.861 106.693 148.916 102.973 152.801C107.111 153.58 111.391 154.367 115.898 155.322C119.819 150.903 123.955 146.54 128.02 142.39Z" fill="#0D71C7" fill-opacity="0.15"/>
<path fill-rule="evenodd" clip-rule="evenodd" d="M112.301 140.844C108.088 140.441 104.089 140.196 100.27 139.844C96.7732 143.371 93.0545 147.273 89.6797 150.744C93.3156 151.356 97.1279 151.811 101.034 152.425C104.6 148.705 108.575 144.65 112.303 140.844H112.301Z" fill="#0D71C7" fill-opacity="0.15"/>
<path fill-rule="evenodd" clip-rule="evenodd" d="M98.4002 139.705C94.7142 139.296 91.2697 138.796 87.8122 138.66C84.5636 141.891 81.2366 145.254 77.9531 148.729C81.0516 149.264 84.3503 149.876 87.908 150.536C91.3307 146.883 94.9601 143.226 98.4002 139.705Z" fill="#0D71C7" fill-opacity="0.15"/>
<path fill-rule="evenodd" clip-rule="evenodd" d="M86.2092 138.606C82.9889 138.299 80.0187 138.015 77.0051 137.816C73.8348 140.878 70.6492 144.029 67.8945 146.955C70.5361 147.483 73.3648 148.028 76.4894 148.42C79.6684 145.029 82.8322 141.826 86.2071 138.606H86.2092Z" fill="#0D71C7" fill-opacity="0.15"/>
<path fill-rule="evenodd" clip-rule="evenodd" d="M75.6498 137.712C72.7623 137.418 69.9489 137.23 67.4291 136.957C64.5156 139.792 61.6477 142.715 58.8125 145.539C61.1864 146.096 63.9085 146.379 66.4652 146.756C69.4549 143.797 72.4163 140.774 75.6498 137.714V137.712Z" fill="#0D71C7" fill-opacity="0.15"/>
<path fill-rule="evenodd" clip-rule="evenodd" d="M65.9789 137.004C63.4178 136.777 61.033 136.55 58.7722 136.34C56.296 138.902 53.6871 141.479 51.0586 143.99C53.2193 144.353 55.5105 144.905 57.693 145.392C60.415 142.564 63.1241 139.878 65.9789 137.004Z" fill="#0D71C7" fill-opacity="0.15"/>
<path fill-rule="evenodd" clip-rule="evenodd" d="M57.3857 136.19C55.1967 136.036 53.2406 135.781 51.2366 135.684C48.8496 137.949 46.4517 140.306 44.043 142.697C45.8925 143.039 47.6332 143.452 49.6046 143.777C52.1766 141.26 54.8464 138.687 57.3857 136.188V136.19Z" fill="#0D71C7" fill-opacity="0.15"/>
<path fill-rule="evenodd" clip-rule="evenodd" d="M50.0891 135.479C48.2047 135.252 46.551 135.048 44.7929 134.895C42.5103 137.121 40.2147 139.279 37.9648 141.596C39.5097 141.971 41.1721 142.243 42.8977 142.681C45.252 140.272 47.7064 137.846 50.0912 135.479H50.0891Z" fill="#0D71C7" fill-opacity="0.15"/>
<path fill-rule="evenodd" clip-rule="evenodd" d="M44.0499 134.856C42.4615 134.594 41.1037 134.258 39.6937 133.992C37.631 136.054 35.5029 138.145 33.5859 140.082C34.8306 140.452 36.2493 140.809 37.5592 141.246C39.6959 139.11 41.9349 136.942 44.0499 134.856Z" fill="#0D71C7" fill-opacity="0.15"/>
<path fill-rule="evenodd" clip-rule="evenodd" d="M38.795 133.81C37.5591 133.566 36.2144 133.492 35.0959 133.191C33.142 135.117 31.1749 137.026 29.3711 138.865C30.3785 139.205 31.3903 139.575 32.574 139.893C34.5454 137.963 36.6778 135.963 38.7972 133.81H38.795Z" fill="#0D71C7" fill-opacity="0.15"/>
<path fill-rule="evenodd" clip-rule="evenodd" d="M24.7454 134.973C24.3646 134.649 24.0448 134.144 23.7728 133.785C22.4737 135.159 21.1747 136.369 20.0911 137.585C20.0715 138.182 20.2804 138.71 20.5437 139.221C21.9668 137.812 23.2745 136.466 24.7432 134.973H24.7454Z" fill="#0D71C7" fill-opacity="0.15"/>
<path fill-rule="evenodd" clip-rule="evenodd" d="M50.0781 123.755C53.1853 123.097 56.2382 122.437 59.7436 121.744C60.5682 121.324 61.345 121.132 62.3373 120.762C58.6164 121.671 55.2307 122.391 51.9581 123.164C51.1922 123.681 50.6809 123.443 50.0781 123.755Z" fill="#0D71C7" fill-opacity="0.15"/>
<path fill-rule="evenodd" clip-rule="evenodd" d="M71.2344 120.284C75.6341 119.903 80.086 119.914 84.9318 119.694C85.8413 119.609 86.8684 119.533 87.9302 119.211C82.869 119.694 78.2321 119.585 73.7584 119.854C72.7053 120.245 71.9024 120.105 71.2344 120.286V120.284Z" fill="#0D71C7" fill-opacity="0.15"/>
<path fill-rule="evenodd" clip-rule="evenodd" d="M159.427 129.428C153.815 129.071 148.247 128.871 143.218 128.547C139.188 132.578 135.207 136.679 131.32 140.854C136.292 141.353 141.591 141.836 146.867 142.448C151.028 137.956 155.332 133.498 159.424 129.425L159.427 129.428Z" fill="#0D71C7" fill-opacity="0.15"/>
<path fill-rule="evenodd" clip-rule="evenodd" d="M140.77 128.406C135.748 128.326 130.98 128.224 126.504 128.031C122.873 131.758 118.878 135.659 115.359 139.379C119.594 139.795 124.194 140.117 128.944 140.505C132.791 136.443 136.844 132.338 140.77 128.408V128.406Z" fill="#0D71C7" fill-opacity="0.15"/>
<path fill-rule="evenodd" clip-rule="evenodd" d="M124.35 128.015C119.915 127.907 115.748 127.914 111.638 127.816C108.148 131.138 104.667 134.672 101.285 138.312C105.145 138.522 109.138 138.801 113.301 139.288C116.765 135.585 120.705 131.666 124.352 128.013L124.35 128.015Z" fill="#0D71C7" fill-opacity="0.15"/>
<path fill-rule="evenodd" clip-rule="evenodd" d="M109.722 127.696C105.807 127.616 102.158 127.685 98.6158 127.57C95.2671 130.78 92.0097 133.978 88.8438 137.152C92.1794 137.3 95.6696 137.719 99.4078 138.124C102.815 134.649 106.295 131.059 109.722 127.696Z" fill="#0D71C7" fill-opacity="0.15"/>
<path fill-rule="evenodd" clip-rule="evenodd" d="M96.9102 127.489C93.4004 127.556 90.3454 127.391 87.1446 127.422C83.9896 130.466 80.9215 133.397 77.9492 136.379C80.9019 136.645 83.983 136.896 87.2469 137.099C90.4107 133.868 93.6289 130.813 96.9102 127.489Z" fill="#0D71C7" fill-opacity="0.15"/>
<path fill-rule="evenodd" clip-rule="evenodd" d="M85.6789 127.315C82.5456 127.28 79.706 127.27 76.8708 127.168C73.9638 129.973 71.1525 132.745 68.3281 135.573C70.8609 136.062 73.6091 136.185 76.4856 136.384C79.5711 133.322 82.4672 130.364 85.6811 127.315H85.6789Z" fill="#0D71C7" fill-opacity="0.15"/>
<path fill-rule="evenodd" clip-rule="evenodd" d="M75.546 127.199C72.9001 127.199 70.2107 127.318 67.9173 127.255C65.2626 129.738 62.5427 132.395 59.8555 134.94C62.1641 135.076 64.5402 135.269 67.0491 135.565C69.7624 132.754 72.6934 129.999 75.546 127.199Z" fill="#0D71C7" fill-opacity="0.15"/>
<path fill-rule="evenodd" clip-rule="evenodd" d="M173.485 114.473C167.582 114.535 161.885 114.62 156.563 114.752C152.679 118.643 148.806 122.384 144.98 126.243C150.216 126.418 155.723 126.68 161.252 126.918C165.397 122.733 169.555 118.489 173.485 114.475V114.473Z" fill="#0D71C7" fill-opacity="0.15"/>
<path fill-rule="evenodd" clip-rule="evenodd" d="M154.08 114.926C148.884 114.943 143.856 115.17 139.178 115.324C135.5 118.897 131.797 122.469 128.23 126.018C132.78 125.973 137.657 126.047 142.57 126.274C146.325 122.327 150.164 118.628 154.08 114.926Z" fill="#0D71C7" fill-opacity="0.15"/>
<path fill-rule="evenodd" clip-rule="evenodd" d="M136.81 115.363C132.204 115.454 127.743 115.636 123.531 115.824C120.173 119.051 116.755 122.379 113.332 125.878C117.368 125.906 121.601 125.986 125.965 126.053C129.523 122.453 133.226 118.813 136.808 115.363H136.81Z" fill="#0D71C7" fill-opacity="0.15"/>
<path fill-rule="evenodd" clip-rule="evenodd" d="M121.596 115.848C117.405 116.086 113.787 116.159 109.964 116.376C106.569 119.529 103.488 122.556 100.227 125.707C103.869 125.724 107.575 125.685 111.544 125.763C114.751 122.413 118.176 119.085 121.596 115.848Z" fill="#0D71C7" fill-opacity="0.15"/>
<path fill-rule="evenodd" clip-rule="evenodd" d="M108.005 116.543C104.523 116.61 101.113 116.707 97.7211 116.907C94.5791 119.934 91.572 122.808 88.6562 125.636C91.696 125.79 94.9664 125.811 98.5262 125.733C101.675 122.57 104.825 119.605 108.005 116.543Z" fill="#0D71C7" fill-opacity="0.15"/>
<path fill-rule="evenodd" clip-rule="evenodd" d="M96.0541 116.957C92.7358 117.184 89.8179 117.31 87.0175 117.422C84.0517 120.153 81.0185 122.908 78.3008 125.578C81.0729 125.624 83.9712 125.715 87.1502 125.635C90.0681 122.817 93.023 119.95 96.0541 116.957Z" fill="#0D71C7" fill-opacity="0.15"/>
<path fill-rule="evenodd" clip-rule="evenodd" d="M85.2706 117.75C82.32 117.995 79.7089 118.131 77.0478 118.289C74.3344 120.855 71.497 123.502 68.875 126.151C71.3795 125.958 74.0145 125.923 76.7649 125.811C79.4913 123.249 82.2025 120.689 85.2706 117.752V117.75Z" fill="#0D71C7" fill-opacity="0.15"/>
<path fill-rule="evenodd" clip-rule="evenodd" d="M166.591 102.449C161.188 102.757 156.075 102.966 151.131 103.369C147.467 106.862 143.929 110.242 140.352 113.882C145.23 113.553 150.108 113.518 155.396 113.364C158.988 109.718 162.74 106.078 166.589 102.449H166.591Z" fill="#0D71C7" fill-opacity="0.15"/>
<path fill-rule="evenodd" clip-rule="evenodd" d="M148.657 103.715C143.817 103.936 139.37 104.351 134.883 104.823C131.473 107.958 128.17 111.155 124.789 114.409C129.147 114.046 133.39 114.035 138.104 113.888C141.655 110.417 145.223 106.885 148.657 103.715Z" fill="#0D71C7" fill-opacity="0.15"/>
<path fill-rule="evenodd" clip-rule="evenodd" d="M132.811 105C128.551 105.329 124.602 105.749 120.602 106.182C117.365 109.112 114.238 112.163 110.98 115.223C114.836 114.831 118.622 114.751 122.857 114.439C126.031 111.373 129.406 108.209 132.811 105Z" fill="#0D71C7" fill-opacity="0.15"/>
<path fill-rule="evenodd" clip-rule="evenodd" d="M118.654 106.324C114.885 106.66 111.336 106.863 107.813 107.198C104.771 110.038 101.819 112.844 98.8008 115.722C102.191 115.547 105.535 115.398 109.289 115.229C112.496 112.208 115.468 109.272 118.654 106.324Z" fill="#0D71C7" fill-opacity="0.15"/>
<path fill-rule="evenodd" clip-rule="evenodd" d="M106.064 107.41C102.883 107.62 99.7149 107.921 96.4553 108.382C93.594 110.994 90.7283 113.716 87.9453 116.322C90.9089 116.179 93.9813 115.884 97.1407 115.804C100.22 112.924 103.181 110.193 106.064 107.41Z" fill="#0D71C7" fill-opacity="0.15"/>
<path fill-rule="evenodd" clip-rule="evenodd" d="M86.7181 110.41C83.9199 110.756 81.2391 111.074 78.7782 111.291C76.2498 113.613 73.5516 116.073 70.9492 118.516C73.4232 118.296 75.9712 118.237 78.5127 118.079C81.0955 115.545 83.8872 112.985 86.7181 110.412V110.41Z" fill="#0D71C7" fill-opacity="0.15"/>
<path fill-rule="evenodd" clip-rule="evenodd" d="M77.2671 111.422C74.8693 111.632 72.5824 111.785 70.363 112.065C68.0391 114.302 65.6956 116.393 63.4609 118.578C65.4236 118.55 67.6648 118.39 69.8037 118.323C72.1929 116.096 74.7844 113.67 77.2671 111.422Z" fill="#0D71C7" fill-opacity="0.15"/>
<path fill-rule="evenodd" clip-rule="evenodd" d="M160.744 92.543C155.883 93.1164 151.196 93.6683 146.472 94.2309C143.126 97.3427 139.86 100.359 136.422 103.523C141.057 102.922 145.406 102.66 150.365 102.125C153.753 98.8489 157.274 95.763 160.744 92.543Z" fill="#0D71C7" fill-opacity="0.15"/>
<path fill-rule="evenodd" clip-rule="evenodd" d="M144.304 94.4592C139.976 94.9309 135.628 95.5434 131.496 96.0606C128.43 98.9517 125.236 101.871 122.035 104.864C126.082 104.416 129.99 104.102 134.357 103.738C137.789 100.525 141.066 97.5364 144.304 94.457V94.4592Z" fill="#0D71C7" fill-opacity="0.15"/>
<path fill-rule="evenodd" clip-rule="evenodd" d="M129.519 96.293C125.676 96.7301 121.907 97.2473 118.043 97.8272C115.099 100.589 112.286 103.116 109.211 105.944C112.729 105.609 116.322 105.326 120.101 105.074C123.241 102.064 126.488 99.0759 129.519 96.293Z" fill="#0D71C7" fill-opacity="0.15"/>
<path fill-rule="evenodd" clip-rule="evenodd" d="M116.361 98.0898C112.949 98.6114 109.539 99.0615 106.301 99.4986C103.488 102.078 100.546 104.666 97.75 107.207C100.962 106.878 104.123 106.532 107.457 106.155C110.54 103.366 113.458 100.726 116.361 98.0898Z" fill="#0D71C7" fill-opacity="0.15"/>
<path fill-rule="evenodd" clip-rule="evenodd" d="M95.8633 101.715C92.9279 102.187 90.2102 102.511 87.6579 102.84C85.0207 105.253 82.3595 107.629 79.8594 110.059C82.3704 109.797 84.9401 109.538 87.7906 109.174C90.443 106.709 93.0846 104.29 95.8633 101.717V101.715Z" fill="#0D71C7" fill-opacity="0.15"/>
<path fill-rule="evenodd" clip-rule="evenodd" d="M85.7665 103.569C83.1685 103.915 80.8533 104.278 78.4924 104.715C76.038 106.901 73.6292 109.065 71.0508 111.394C73.2659 111.104 75.6616 110.922 78.0572 110.723C80.5661 108.325 83.1163 105.951 85.7687 103.566L85.7665 103.569Z" fill="#0D71C7" fill-opacity="0.15"/>
<path fill-rule="evenodd" clip-rule="evenodd" d="M171.175 81.0451C166.05 81.848 161.211 82.5643 156.559 83.3671C153.217 86.1457 150.046 89.0022 146.617 92.1313C151.306 91.415 156.041 90.9043 160.878 90.2789C164.327 87.0935 167.732 84.0704 171.172 81.043L171.175 81.0451Z" fill="#0D71C7" fill-opacity="0.15"/>
<path fill-rule="evenodd" clip-rule="evenodd" d="M154.349 83.5977C149.769 84.3854 145.395 84.9999 141.104 85.7422C138.132 88.497 135.018 91.1543 131.863 94.0411C136.026 93.4395 140.323 92.9115 144.669 92.2515C147.852 89.3604 151.033 86.5429 154.349 83.5977Z" fill="#0D71C7" fill-opacity="0.15"/>
<path fill-rule="evenodd" clip-rule="evenodd" d="M166.215 73.3633C161.556 74.1834 157.091 75.0837 152.726 75.8973C149.586 78.6737 146.516 81.3376 143.441 84.0102C147.56 83.3047 152.032 82.623 156.723 81.8267C159.822 79.0719 163.055 76.2241 166.217 73.3633H166.215Z" fill="#0D71C7" fill-opacity="0.15"/>
<path fill-rule="evenodd" clip-rule="evenodd" d="M216.888 76.2773C210.186 77.2014 203.946 78.0605 198.01 78.6772C194.061 82.0769 190.444 85.5652 186.945 88.8372C192.707 88.3546 198.843 87.6621 205.349 86.9632C209.05 83.4337 212.9 79.8566 216.886 76.2795L216.888 76.2773Z" fill="#0D71C7" fill-opacity="0.15"/>
<path fill-rule="evenodd" clip-rule="evenodd" d="M36.0321 142.24C34.609 141.849 33.3057 141.433 32.061 141.098C30.1288 143.006 28.1313 144.954 26.2383 147.096C27.2 147.596 28.3337 148.198 29.5304 148.743C31.5976 146.659 33.8214 144.38 36.0321 142.24Z" fill="#0D71C7" fill-opacity="0.15"/>
<path fill-rule="evenodd" clip-rule="evenodd" d="M41.364 143.586C39.695 143.194 38.148 142.768 36.6618 142.383C34.3923 144.677 32.2251 146.882 30.1602 148.977C31.3613 149.634 32.6842 150.249 34.129 150.879C36.479 148.442 38.9291 145.949 41.364 143.586Z" fill="#0D71C7" fill-opacity="0.15"/>
<path fill-rule="evenodd" clip-rule="evenodd" d="M47.5596 144.989C45.6448 144.649 43.904 144.177 42.2264 143.699C39.6806 146.272 37.2305 148.709 34.9414 151.089C36.5081 151.596 38.0834 152.191 39.9525 152.663C42.4657 150.096 45.079 147.517 47.5617 144.989H47.5596Z" fill="#0D71C7" fill-opacity="0.15"/>
<path fill-rule="evenodd" clip-rule="evenodd" d="M55.4704 146.566C53.2314 146.083 51.0576 145.572 48.8991 145.23C46.3598 147.747 43.6987 150.569 41.1289 153.233C43.072 153.761 44.9672 154.533 46.9277 155.3C49.7173 152.3 52.6635 149.45 55.4704 146.563V146.566Z" fill="#0D71C7" fill-opacity="0.15"/>
<path fill-rule="evenodd" clip-rule="evenodd" d="M64.0613 147.986C61.4437 147.595 58.8391 147.203 56.6458 146.703C53.7823 149.542 50.8383 152.429 47.9922 155.405C50.2051 156.125 52.5399 156.751 54.9508 157.432C57.836 154.342 60.8736 151.219 64.0613 147.986Z" fill="#0D71C7" fill-opacity="0.15"/>
<path fill-rule="evenodd" clip-rule="evenodd" d="M73.8608 149.858C70.8472 149.392 68.0794 148.869 65.4378 148.312C62.1391 151.658 59.0493 154.872 56.1641 157.916C58.588 158.609 61.2122 159.472 63.906 160.284C67.2895 156.711 70.4185 153.428 73.8608 149.855V149.858Z" fill="#0D71C7" fill-opacity="0.15"/>
<path fill-rule="evenodd" clip-rule="evenodd" d="M84.9255 152.179C81.4984 151.594 78.3151 150.934 75.21 150.305C71.8896 153.832 68.5865 157.227 65.2617 160.737C68.1078 161.664 71.1476 162.566 74.2613 163.475C77.782 159.64 81.4484 155.797 84.9255 152.179Z" fill="#0D71C7" fill-opacity="0.15"/>
<path fill-rule="evenodd" clip-rule="evenodd" d="M98.9244 154.205C94.9903 153.421 91.2238 152.835 87.7206 152.324C84.126 155.903 80.4791 159.82 76.9062 163.644C80.2202 164.434 83.7974 165.284 87.3659 166.462C91.2956 162.151 95.036 158.148 98.9266 154.205H98.9244Z" fill="#0D71C7" fill-opacity="0.15"/>
<path fill-rule="evenodd" clip-rule="evenodd" d="M113.316 156.751C108.883 155.887 104.519 154.911 100.689 154.156C96.7636 158.274 92.7903 162.334 89.0391 166.543C92.8186 167.696 96.818 168.956 101.183 169.986C105.182 165.543 109.214 161.233 113.316 156.753V156.751Z" fill="#0D71C7" fill-opacity="0.15"/>
<path fill-rule="evenodd" clip-rule="evenodd" d="M130.427 159.801C125.294 158.91 120.202 158.137 115.804 156.871C111.664 161.433 107.431 166.033 103.504 170.513C107.869 171.775 112.453 173.058 117.308 174.278C121.747 169.303 125.996 164.594 130.429 159.801H130.427Z" fill="#0D71C7" fill-opacity="0.15"/>
<path fill-rule="evenodd" clip-rule="evenodd" d="M149.812 163.898C143.78 162.653 138.234 161.541 133.02 160.359C128.544 165.272 124.023 170.18 119.605 175.297C125.045 176.801 130.063 178.678 135.82 180.147C140.577 174.683 145.279 169.243 149.812 163.898Z" fill="#0D71C7" fill-opacity="0.15"/>
<path fill-rule="evenodd" clip-rule="evenodd" d="M172.219 169.02C165.165 167.64 158.913 166.335 152.609 164.965C147.905 170.36 143.212 175.852 138.512 181.221C144.398 183.164 150.632 185.066 157.172 187.014C162.347 180.714 167.264 174.792 172.219 169.02Z" fill="#0D71C7" fill-opacity="0.15"/>
<path fill-rule="evenodd" clip-rule="evenodd" d="M405.424 137.836C400.983 134.292 396.635 130.715 392.662 127.449C386.243 131.078 379.852 134.458 373.398 138.291C377 142.045 380.566 145.982 384.876 150.009C391.835 145.902 398.789 141.818 405.421 137.836H405.424Z" fill="#0D71C7" fill-opacity="0.15"/>
<path fill-rule="evenodd" clip-rule="evenodd" d="M187.581 130.56C185.814 128.783 184.089 127.13 182.294 125.715C179.794 127.463 177.189 129.327 174.617 131.099C176.214 132.78 177.722 134.587 179.343 136.619C182.111 134.553 184.872 132.501 187.583 130.56H187.581Z" fill="#0D71C7" fill-opacity="0.15"/>
<path fill-rule="evenodd" clip-rule="evenodd" d="M117.66 64.9223C116.973 63.8749 116.342 62.7842 115.761 61.6914C113.511 63.5503 111.109 65.5628 108.75 67.5234C109.118 68.7807 109.638 69.9298 110.225 71.1611C112.693 69.0901 115.202 66.9846 117.658 64.9223H117.66Z" fill="#0D71C7" fill-opacity="0.15"/>
<path fill-rule="evenodd" clip-rule="evenodd" d="M482.912 246.62C477.362 242.281 472.126 238.124 467.041 234.465C460.42 236.499 453.923 238.908 447.105 241.206C452.049 245.205 456.915 249.526 461.915 254.183C469.026 251.513 476.3 249.106 482.915 246.618L482.912 246.62Z" fill="#0D71C7" fill-opacity="0.15"/>
<path fill-rule="evenodd" clip-rule="evenodd" d="M133.502 78.9963C132.956 78.3969 132.525 77.8126 132.096 77.25C130.634 78.3104 129.163 79.3512 127.742 80.39C128.071 81.0327 128.41 81.7879 128.791 82.4198C130.364 81.2837 131.879 80.1563 133.502 78.9942V78.9963Z" fill="#0D71C7" fill-opacity="0.15"/>
<path fill-rule="evenodd" clip-rule="evenodd" d="M183.89 51.5712C182.571 51.0108 181.323 50.5152 180.087 50.0586C178.222 51.3245 176.359 52.6338 174.453 54.0144C175.493 54.6398 176.636 55.1959 177.935 55.9144C179.876 54.4017 181.884 52.9887 183.89 51.5734V51.5712Z" fill="#0D71C7" fill-opacity="0.15"/>
<path fill-rule="evenodd" clip-rule="evenodd" d="M464.333 102.927C459.107 100.78 454.248 98.9064 449.631 97.1406C443.66 99.6119 438.007 101.979 432.598 104.49C436.769 106.569 441.162 108.699 446.077 111.317C452.388 108.38 458.519 105.468 464.333 102.927Z" fill="#0D71C7" fill-opacity="0.15"/>
<path fill-rule="evenodd" clip-rule="evenodd" d="M162.514 48.2278C161.718 47.8535 161.122 47.3622 160.491 46.9922C158.972 47.9833 157.525 49.1021 156.062 50.1819C156.598 50.6558 157.092 51.2163 157.738 51.6491C159.194 50.539 160.852 49.3639 162.514 48.2278Z" fill="#0D71C7" fill-opacity="0.15"/>
<path fill-rule="evenodd" clip-rule="evenodd" d="M129.288 40.0493C128.866 39.742 128.405 39.5061 127.989 39.2227C126.894 40.0688 125.696 40.943 124.645 41.7502C125.008 42.0791 125.323 42.4124 125.648 42.7933C126.847 41.8909 128.091 40.9712 129.288 40.0493Z" fill="#0D71C7" fill-opacity="0.15"/>
<path fill-rule="evenodd" clip-rule="evenodd" d="M49.0655 123.377C48.8871 122.923 48.6521 122.468 48.5303 122.031C47.6555 122.629 46.8396 123.31 45.9648 123.933C46.0323 124.461 46.1541 124.961 46.276 125.461C47.2617 124.762 48.1386 124.07 49.0655 123.377Z" fill="#0D71C7" fill-opacity="0.15"/>
<path fill-rule="evenodd" clip-rule="evenodd" d="M486.927 173.372C483.206 171.595 480.195 169.918 477.018 168.312C472.353 169.63 467.886 170.823 463.434 172.112C466.164 173.759 469.256 175.679 472.529 177.497C477.405 176.172 482.181 174.731 486.927 173.372Z" fill="#0D71C7" fill-opacity="0.15"/>
<path fill-rule="evenodd" clip-rule="evenodd" d="M213.11 42.9766C211.805 42.5915 210.471 42.3274 209.342 41.9336C207.525 43.1173 205.606 44.3465 203.887 45.4869C204.981 45.9673 206.006 46.3763 207.216 46.8264C209.024 45.5864 211.139 44.2188 213.11 42.9766Z" fill="#0D71C7" fill-opacity="0.15"/>
<path fill-rule="evenodd" clip-rule="evenodd" d="M165.002 13.7135C164.173 13.5598 163.344 13.4278 162.53 13.3867C161.164 14.2523 159.862 15.2413 158.555 16.1891C159.329 16.3233 160.108 16.4704 160.889 16.6414C162.286 15.62 163.644 14.6483 165.002 13.7135Z" fill="#0D71C7" fill-opacity="0.15"/>
<path fill-rule="evenodd" clip-rule="evenodd" d="M144.361 49.5603C143.608 49.3223 142.866 49.1535 142.172 48.9414C141.003 49.781 139.68 50.7029 138.453 51.5339C139.152 51.7806 139.796 52.01 140.498 52.261C141.821 51.3434 143.042 50.48 144.363 49.5603H144.361Z" fill="#0D71C7" fill-opacity="0.15"/>
<path fill-rule="evenodd" clip-rule="evenodd" d="M17.3754 146.547C17.1621 146.201 17.0033 145.928 16.7879 145.582C16.0981 146.054 15.4105 146.53 14.7773 146.973C14.9318 147.331 15.0319 147.666 15.2473 147.956C15.9393 147.508 16.6878 147.025 17.3754 146.547Z" fill="#0D71C7" fill-opacity="0.15"/>
<path fill-rule="evenodd" clip-rule="evenodd" d="M126.623 68.8721C125.87 68.6254 125.165 68.3419 124.473 68.1602C123.372 68.9067 122.162 69.7074 121 70.4518C121.698 70.6985 122.397 70.9582 123.048 71.2525C124.203 70.467 125.415 69.6771 126.623 68.8721Z" fill="#0D71C7" fill-opacity="0.15"/>
<path fill-rule="evenodd" clip-rule="evenodd" d="M243.749 79.1974C242.115 78.7711 240.548 78.3361 239.042 77.9336C237.06 79.0004 235.13 80.0154 233.039 81.132C234.586 81.4847 236.105 81.9673 237.622 82.4152C239.593 81.3159 241.751 80.2253 243.749 79.1974Z" fill="#0D71C7" fill-opacity="0.15"/>
<path fill-rule="evenodd" clip-rule="evenodd" d="M12.098 139.063C11.8957 138.711 11.6324 138.405 11.4279 138.133C10.7512 138.563 10.1267 139.014 9.5 139.518C9.70236 139.819 9.90907 140.132 10.1114 140.483C10.7947 140 11.4757 139.518 12.098 139.063Z" fill="#0D71C7" fill-opacity="0.15"/>
<path fill-rule="evenodd" clip-rule="evenodd" d="M108.391 85.7659C107.692 85.5214 106.987 85.1989 106.345 84.9414C105.264 85.662 104.289 86.322 103.258 87.0253C103.845 87.298 104.437 87.6053 105.086 87.9342C106.169 87.1855 107.257 86.5319 108.391 85.7637V85.7659Z" fill="#0D71C7" fill-opacity="0.15"/>
<path fill-rule="evenodd" clip-rule="evenodd" d="M117.256 57.1241C116.644 56.9661 116.046 56.9055 115.439 56.793C114.549 57.3989 113.615 58.0762 112.719 58.6454C113.219 58.7536 113.828 58.9094 114.338 59.0825C115.325 58.4008 116.263 57.743 117.256 57.1262V57.1241Z" fill="#0D71C7" fill-opacity="0.15"/>
<path fill-rule="evenodd" clip-rule="evenodd" d="M566.001 213.245C561.035 211.752 555.785 209.98 550.478 208.441C545.563 209.493 540.253 210.242 535.262 211.162C540.034 212.62 545.201 214.33 549.975 216.024C555.552 215.087 560.711 214.224 566.001 213.248V213.245Z" fill="#0D71C7" fill-opacity="0.15"/>
<path fill-rule="evenodd" clip-rule="evenodd" d="M184.402 22.6367C183.307 22.68 182.322 22.6908 181.336 22.6995C180.181 23.4331 178.975 24.1991 177.73 25.0193C178.712 24.9738 179.61 25.0561 180.601 25.0474C181.845 24.2294 183.092 23.4028 184.4 22.6367H184.402Z" fill="#0D71C7" fill-opacity="0.15"/>
<path fill-rule="evenodd" clip-rule="evenodd" d="M25.7209 143.389C25.3858 143.14 25.0507 142.883 24.8309 142.645C24.2065 143.043 23.5232 143.497 22.9531 143.861C23.1729 144.127 23.4492 144.354 23.7256 144.64C24.4088 144.179 25.0377 143.794 25.7209 143.391V143.389Z" fill="#0D71C7" fill-opacity="0.15"/>
<path fill-rule="evenodd" clip-rule="evenodd" d="M320.769 116.866C318.297 116.264 315.649 115.905 313.127 115.359C310.643 116.223 308.382 116.978 306.16 117.865C308.449 118.285 310.928 118.876 313.515 119.467C315.932 118.575 318.415 117.718 320.767 116.866H320.769Z" fill="#0D71C7" fill-opacity="0.15"/>
<path fill-rule="evenodd" clip-rule="evenodd" d="M312.328 161.697C310.098 160.305 307.892 158.92 305.672 157.715C302.565 158.907 299.397 160.309 296.207 161.662C298.272 163.036 300.324 164.376 302.398 165.938C305.855 164.371 309.13 163.058 312.328 161.694V161.697Z" fill="#0D71C7" fill-opacity="0.15"/>
<path fill-rule="evenodd" clip-rule="evenodd" d="M18.6762 154.737C18.463 154.125 18.3085 153.499 18.1518 152.965C17.2793 153.59 16.3458 154.283 15.4102 155.003C15.5037 155.629 15.5995 156.339 15.7474 156.979C16.6874 156.241 17.6818 155.49 18.6762 154.735V154.737Z" fill="#0D71C7" fill-opacity="0.15"/>
<path fill-rule="evenodd" clip-rule="evenodd" d="M258.325 106.336C256.315 105.189 254.461 104.166 252.74 103.168C250.094 104.633 247.337 106.189 244.582 107.773C246.314 108.835 247.861 110.112 249.791 111.209C252.72 109.567 255.516 107.933 258.325 106.336Z" fill="#0D71C7" fill-opacity="0.15"/>
</g>
<defs>
<clipPath id="clip0_1227_26778">
<rect width="566" height="308" fill="white"/>
</clipPath>
</defs>
</svg>
