<svg width="1279" height="573" viewBox="0 0 1279 573" fill="none" xmlns="http://www.w3.org/2000/svg">
<g opacity="0.03">
<path d="M1269.09 566.993C1193.18 550.3 1114.7 521.659 1040.15 482.448C1008.81 465.955 977.162 447.213 946.552 429.092C875.262 386.87 801.547 343.214 726.266 324.845C661.296 308.989 601.385 312.668 543.099 336.074C493.833 355.865 452.119 386.97 410.18 419.798C340.219 474.57 229.93 541.043 80.4664 486.184C53.0171 476.103 26.905 462.83 1.78903 447.429L-0.000435657 450.405C25.5627 466.076 52.2004 479.599 80.2842 489.907C232.418 545.747 343.949 478.672 414.605 423.352C488.679 365.361 580.858 293.188 726.963 328.837C801.004 346.907 874.113 390.199 944.823 432.081C975.529 450.267 1007.28 469.075 1038.85 485.675C1117.06 526.822 1199.58 556.427 1279 572.95L1269.09 566.993Z" fill="#1173BF"/>
<path d="M1242.72 551.137C1224.67 546.958 1206.54 542.165 1188.43 536.739C1140.85 522.448 1094.18 504.172 1049.73 482.425C1017.46 466.69 984.583 448.394 952.788 430.69C939.277 423.168 925.319 415.4 911.457 407.853C847.035 372.773 792.555 346.447 736.066 332.012C672.675 315.872 614.239 316.669 557.419 334.444C500.863 351.915 453.172 383.778 414.863 409.378C382.069 431.18 352.992 446.983 323.338 459.109C241.48 492.874 161.443 495.464 78.6545 467.034C62.1823 461.377 45.4415 454.389 28.8952 446.268C22.1129 442.945 15.4148 439.437 8.78198 435.798L7.03196 438.709C13.8933 442.485 20.8308 446.112 27.8523 449.555C44.7309 457.843 61.8184 464.975 78.6381 470.752C162.917 499.695 244.176 497.143 327.056 462.961C356.884 450.769 386.117 434.889 419.056 412.979C457.223 387.481 504.734 355.736 560.877 338.391C616.884 320.866 674.39 320.062 736.679 335.921C792.313 350.135 846.234 376.197 910.062 410.961C923.874 418.478 937.819 426.245 951.31 433.756C983.208 451.514 1016.2 469.881 1048.7 485.718C1093.58 507.674 1140.68 526.124 1188.72 540.552C1210.1 546.959 1231.49 552.495 1252.76 557.171L1242.72 551.137Z" fill="#106FB8"/>
<path d="M1218.17 536.372C1210.39 534.528 1202.62 532.589 1194.85 530.525C1148.38 518.12 1102.78 501.933 1059.32 482.413C1025.42 467.183 992.062 449.824 956.751 431.443C945.571 425.623 934.01 419.605 922.493 413.695C866.298 384.845 806.363 355.329 745.876 339.196C682.186 322.316 623.151 321.048 565.38 335.319C511.959 348.52 467.733 371.967 419.561 398.985C385.608 417.833 355.554 431.57 325 442.222C239.431 472.058 158.259 473.924 76.8379 447.901C60.4193 442.65 43.765 436.193 27.329 428.698C23.5875 427 19.8819 425.243 16.1942 423.456L14.462 426.337C18.4586 428.285 22.4839 430.186 26.5414 432.033C43.287 439.665 60.2582 446.248 76.9945 451.601C159.72 478.043 241.985 476.225 328.499 446.055C359.214 435.338 389.402 421.535 423.506 402.616C471.5 375.693 515.533 352.341 568.572 339.236C625.562 325.161 683.726 326.392 746.4 343.004C806.097 358.921 865.546 388.209 921.33 416.845C932.827 422.743 944.365 428.755 955.534 434.569C990.968 453.016 1024.44 470.434 1058.57 485.771C1102.45 505.478 1148.47 521.82 1195.37 534.338C1206.28 537.234 1217.22 539.91 1228.16 542.382L1218.17 536.378L1218.17 536.372Z" fill="#106AB0"/>
<path d="M1196.08 523.095C1152.24 512.649 1109.48 498.983 1068.91 482.418C1032.52 467.562 996.22 449.944 957.795 431.299C949.771 427.408 941.688 423.482 933.517 419.543C879.045 393.272 817.303 363.498 755.683 346.392C691.51 328.717 631.874 325.39 573.353 336.206C515.699 346.862 467.122 369.04 424.267 388.61C390.16 404.182 358.231 416.199 326.677 425.364C237.317 451.289 155.008 452.415 75.0365 428.773C58.6815 423.934 42.1038 418.002 25.7645 411.134C25.1913 410.895 24.6252 410.644 24.0519 410.404L22.3306 413.267C23.3002 413.68 24.2662 414.098 25.2394 414.505C41.8486 421.487 58.7169 427.52 75.3498 432.437C156.46 456.414 239.741 455.337 329.951 429.144C361.652 419.937 393.708 407.866 427.955 392.24C470.656 372.748 519.048 350.653 576.289 340.075C634.055 329.39 692.896 332.668 756.141 350.086C817.064 367 875.793 395.328 932.583 422.717C940.743 426.649 948.817 430.57 956.837 434.466C995.389 453.172 1031.81 470.85 1068.46 485.819C1111.03 503.197 1155.97 517.426 1202.03 528.117C1203.31 528.411 1204.59 528.692 1205.88 528.98L1196.08 523.089L1196.08 523.095Z" fill="#0F66A9"/>
<path d="M1176.96 511.598C1143.11 503.791 1110.64 494.166 1078.48 482.405C1038.3 467.714 997.45 449.269 954.21 429.742L944.549 425.379C939.719 423.198 934.869 421.004 930.009 418.805C876.801 394.706 821.782 369.794 765.484 353.557C700.828 335.089 640.593 329.697 581.328 337.07C522.559 344.383 470.672 363.134 428.982 378.199C393.773 390.924 360.859 400.822 328.354 408.465C233.504 430.764 152.434 431.133 73.2269 409.64C59.6551 405.954 45.9457 401.552 32.357 396.589L30.6141 399.488C44.9224 404.761 59.3844 409.397 73.6898 413.28C153.882 435.048 235.758 434.71 331.378 412.233C364.01 404.56 397.04 394.626 432.369 381.859C473.904 366.848 525.6 348.168 583.962 340.902C642.523 333.619 702.03 338.938 765.843 357.168C821.589 373.243 876.328 398.035 929.263 422.002C934.133 424.208 938.983 426.401 943.814 428.583L953.474 432.946C996.864 452.539 1037.85 471.049 1078.31 485.842C1113.54 498.733 1149.1 509.071 1186.4 517.274L1176.96 511.598Z" fill="#0E61A2"/>
<path d="M1161.06 502.039C1136.1 496.578 1111.92 490.08 1088.05 482.412C1046.05 468.925 1003.21 451.254 955.585 431.235C944.832 426.71 933.747 421.97 923.043 417.385C875.204 396.912 825.729 375.74 775.301 360.743C711.363 341.732 648.789 334.065 589.32 337.953C533.48 341.61 485.81 353.64 433.711 367.814C397.362 377.71 363.453 385.483 330.03 391.592C261.998 404.03 171.126 415.143 71.4178 390.508C61.4551 388.042 51.31 385.183 41.1107 382.03L39.3714 384.923C50.3686 388.368 61.3034 391.467 72.0338 394.119C172.805 419.011 264.334 407.838 332.823 395.317C366.338 389.191 400.342 381.393 436.787 371.474C488.694 357.347 536.177 345.36 591.648 341.731C650.483 337.885 712.367 345.462 775.582 364.258C825.589 379.123 874.847 400.206 922.469 420.589C933.197 425.18 944.282 429.92 955.065 434.463C1002.87 454.56 1045.89 472.302 1088.18 485.885C1114.88 494.456 1141.95 501.589 1170.05 507.44L1161.06 502.039Z" fill="#0E5D9A"/>
<path d="M1148.5 494.487C1131.17 491.001 1114.26 486.991 1097.63 482.419C1053.93 470.423 1008.83 453.538 966.625 437.085C950.142 430.658 933.766 423.987 916.429 416.933C873.847 399.597 829.808 381.669 785.095 367.923C720.791 348.148 657.607 338.368 597.305 338.848C539.408 339.311 489.121 347.908 438.447 357.441C400.89 364.507 365.969 370.162 331.707 374.719C255.276 384.9 164.361 392.464 69.6185 371.383C63.1869 369.952 56.7603 368.378 50.3162 366.72L48.5554 369.649C55.8495 371.558 63.1008 373.335 70.3778 374.958C165.983 396.224 257.426 388.637 334.268 378.402C368.594 373.827 403.573 368.167 441.205 361.089C491.709 351.591 541.802 343.025 599.338 342.555C659.068 342.081 721.647 351.764 785.321 371.348C829.714 384.998 873.589 402.86 916.018 420.137C933.384 427.209 949.784 433.886 966.32 440.337C1008.73 456.862 1054.05 473.83 1098.07 485.916C1117.27 491.188 1136.82 495.719 1156.96 499.571L1148.5 494.487Z" fill="#0D5893"/>
<path d="M1139.15 488.867C1128.31 486.944 1117.66 484.805 1107.21 482.441C1070.64 474.179 1030.68 461.994 977.661 442.943C955.391 434.937 933.021 426.196 909.332 416.947C872.157 402.432 833.721 387.426 794.892 375.099C730.242 354.571 666.452 342.673 605.29 339.745C544.527 336.829 491.895 341.766 443.179 347.076C403.499 351.396 368.617 354.825 333.376 357.859C249.729 365.058 160.315 370.552 67.8295 352.265C65.2171 351.75 62.6062 351.187 59.9882 350.636L58.2024 353.607C61.7126 354.361 65.2102 355.092 68.7158 355.787C161.917 374.211 251.72 368.699 335.706 361.477C370.974 358.442 405.896 355.014 445.607 350.688C494.15 345.396 546.596 340.476 607.018 343.374C667.676 346.284 730.946 358.08 795.051 378.434C833.663 390.696 871.979 405.654 909.034 420.122C932.765 429.388 955.182 438.141 977.553 446.183C1030.87 465.335 1071.08 477.592 1107.93 485.92C1120.69 488.8 1133.7 491.351 1147.03 493.593L1139.16 488.861L1139.15 488.867Z" fill="#0C548C"/>
<path d="M1132.82 485.059C1127.44 484.25 1122.1 483.392 1116.79 482.47C1079.23 475.896 1038.52 465.202 988.713 448.815C960.607 439.557 932.023 428.753 901.763 417.316C870.183 405.376 837.52 393.029 804.692 382.288C739.763 361.033 675.359 347.028 613.288 340.662C551.638 334.338 497.387 335.037 447.936 336.731C411.94 337.963 373.961 339.408 335.055 341.002L323.398 341.488C245.689 344.729 157.778 348.399 70.0971 333.821L68.2897 336.827C157.47 352.062 246.704 348.328 325.474 345.034L337.13 344.548C376.017 342.942 413.991 341.503 449.974 340.271C499.259 338.583 553.318 337.89 614.674 344.183C676.324 350.507 740.275 364.41 804.763 385.522C837.441 396.222 870.016 408.532 901.52 420.442C931.856 431.91 960.517 442.743 988.771 452.049C1038.91 468.544 1079.9 479.315 1117.78 485.943C1125.16 487.226 1132.59 488.389 1140.13 489.451L1132.82 485.059Z" fill="#0C5084"/>
<path d="M1129.1 482.819C1128.19 482.711 1127.29 482.615 1126.38 482.501C1087.83 477.811 1047.59 468.968 999.749 454.671C965.774 444.508 930.766 431.563 893.705 417.87C867.88 408.328 841.181 398.462 814.469 389.45C749.338 367.496 684.323 351.378 621.259 341.557C568.105 333.277 517.682 328.734 452.668 326.364C412.818 324.913 374.878 324.181 336.704 324.128C321.837 324.105 306.853 324.207 290.991 324.309C225.619 324.761 152.129 325.237 80.6618 316.25L78.8293 319.298C151.596 328.733 226.422 328.24 292.899 327.795C308.752 327.687 323.722 327.585 338.576 327.608C376.695 327.661 414.572 328.388 454.377 329.844C519.179 332.207 569.413 336.726 622.355 344.977C685.073 354.744 749.722 370.772 814.505 392.606C841.111 401.571 867.763 411.425 893.545 420.949C930.713 434.689 965.825 447.664 1000.02 457.893C1048.2 472.298 1088.76 481.207 1127.65 485.939C1130.38 486.269 1133.1 486.575 1135.84 486.876L1129.1 482.819Z" fill="#0B4B7D"/>
<path d="M1127.62 481.929C1091.18 478.96 1053.81 472.111 1010.82 460.551C970.933 449.81 929.279 434.599 885.174 418.491C865.295 411.232 844.739 403.728 824.286 396.636C759.106 374.043 693.491 355.819 629.267 342.482C572.464 330.684 517.857 322.277 457.442 316.038C416.262 311.783 377.317 308.919 338.403 307.285C311.674 306.155 284.192 305.645 255.103 305.11C201.36 304.109 146.087 303.065 91.6245 298.018L89.7777 301.089C145.451 306.418 201.947 307.475 256.825 308.5C285.898 309.041 313.352 309.551 340.018 310.675C378.836 312.31 417.677 315.167 458.769 319.411C519.002 325.638 573.424 334.015 630.039 345.764C693.999 359.047 759.335 377.194 824.248 399.691C844.648 406.759 865.181 414.257 885.027 421.504C929.279 437.66 971.066 452.919 1011.25 463.743C1056.47 475.902 1095.54 482.889 1133.83 485.663L1127.62 481.929Z" fill="#0A4776"/>
<path d="M1127.97 482.144C1094.4 480.669 1060.22 475.595 1021.88 466.425C976.017 455.441 927.457 437.742 876.059 419.003C862.333 413.998 848.13 408.82 834.066 403.815C769.2 380.722 702.982 360.396 637.243 343.413C573.941 327.057 518.314 315.082 462.185 305.719C419.838 298.658 379.891 293.658 340.065 290.435C300.317 287.219 258.848 285.786 214.954 284.267C177.992 282.986 140.129 281.675 102.939 279.2L101.088 282.278C139.42 284.902 178.475 286.256 216.564 287.574C260.408 289.087 301.823 290.52 341.466 293.73C381.151 296.94 420.96 301.923 463.159 308.96C519.127 318.298 574.599 330.238 637.724 346.552C703.274 363.487 769.302 383.747 833.987 406.781C848.028 411.78 862.208 416.952 875.924 421.95C927.512 440.755 976.249 458.52 1022.46 469.587C1062.76 479.225 1098.5 484.383 1133.76 485.621L1127.97 482.144Z" fill="#0A426E"/>
<path d="M1129.87 483.285C1098.97 483.13 1067.58 479.557 1032.94 472.298C981.025 461.4 925.282 440.909 866.261 419.21C858.817 416.472 851.338 413.721 843.849 410.989C780.37 387.795 713.544 365.375 645.22 344.344C571.838 321.757 518.518 307.116 466.925 295.406C423.454 285.533 382.502 278.402 341.724 273.592C287.214 267.16 227.274 264.699 169.306 262.31C151.221 261.562 132.832 260.803 114.532 259.918L112.693 262.977C132.113 263.935 151.653 264.737 170.858 265.533C228.749 267.916 288.595 270.377 342.925 276.791C383.515 281.577 424.282 288.679 467.562 298.509C518.997 310.189 572.18 324.789 645.412 347.333C713.632 368.335 780.357 390.719 843.723 413.877C851.198 416.609 858.667 419.354 866.121 422.098C925.362 443.88 981.315 464.449 1033.67 475.438C1070.04 483.043 1102.86 486.654 1135.28 486.535L1129.87 483.285Z" fill="#093E67"/>
<path d="M1133.04 485.191C1104.57 486.172 1075.62 483.877 1044.02 478.19C985.906 467.704 922.643 444.016 855.672 418.934L853.653 418.175C781.966 391.329 714.943 367.279 653.194 345.28C583.339 320.405 529.431 301.521 471.662 285.098C427.087 272.427 385.127 263.146 343.386 256.742C274.616 246.195 199.48 243.041 126.324 240.307L124.509 243.325C198.594 246.09 274.832 249.166 344.378 259.84C385.897 266.208 427.632 275.434 471.973 288.046C529.554 304.421 583.366 323.263 653.117 348.109C714.836 370.09 781.836 394.133 853.466 420.961L855.485 421.72C922.733 446.904 986.236 470.688 1044.88 481.27C1078.02 487.22 1108.26 489.504 1138.08 488.22L1133.04 485.191Z" fill="#093A60"/>
<path d="M1137.32 487.766C1111.1 489.757 1084.62 488.52 1055.1 484.076C996.361 475.201 930.924 451.236 863.433 425.354C779.936 393.332 713.771 367.452 661.156 346.235C651.39 342.296 641.784 338.404 632.288 334.554C578.734 312.854 528.141 292.349 476.377 274.803C430.716 259.326 387.751 247.915 345.037 239.911C278.786 227.491 205.868 222.764 138.244 220.482L136.469 223.434C204.835 225.675 278.824 230.332 345.84 242.895C388.299 250.851 430.996 262.19 476.397 277.583C527.983 295.064 578.49 315.533 631.954 337.203C641.449 341.053 651.055 344.945 660.822 348.884C713.476 370.125 779.675 396.017 863.205 428.051C931.013 454.058 996.798 478.143 1056.08 487.102C1087 491.75 1114.6 492.916 1142.02 490.592L1137.32 487.766Z" fill="#083558"/>
<path d="M1142.38 490.807C1118.15 493.599 1093.5 493.282 1066.18 489.962C1010.09 483.123 948.473 462.055 873.22 432.522C800.079 403.819 729.495 374.307 669.096 347.16C652.32 339.623 635.858 332.104 619.925 324.83C572.435 303.147 527.575 282.67 481.087 264.495C434.345 246.225 390.382 232.671 346.686 223.061C281.887 208.811 212.178 202.887 150.203 200.591L148.479 203.46C211.028 205.655 281.737 211.514 347.3 225.932C390.698 235.476 434.376 248.94 480.831 267.103C527.156 285.212 571.93 305.652 619.336 327.294C635.269 334.568 651.755 342.093 668.551 349.642C729.046 376.831 799.724 406.391 872.955 435.123C948.624 464.818 1010.63 486.006 1067.27 492.916C1095.84 496.387 1121.51 496.609 1146.81 493.471L1142.38 490.807Z" fill="#073151"/>
<path d="M1148.14 494.266C1125.68 497.728 1102.68 498.206 1077.28 495.854C1015.02 490.067 944.139 464.224 883.001 439.702C811.128 410.869 739.908 379.196 677.026 348.103C656.004 337.705 635.46 327.277 615.594 317.184C571.306 294.697 529.478 273.453 485.775 254.2C437.957 233.13 392.992 217.439 348.327 206.224C286.51 190.705 221.198 183.543 162.088 180.825L160.424 183.593C220.079 186.192 286.256 193.288 348.776 208.987C393.137 220.125 437.787 235.708 485.286 256.634C528.828 275.815 570.584 297.023 614.788 319.468C634.668 329.561 655.228 340.007 676.283 350.418C739.309 381.589 810.689 413.333 882.704 442.22C944.212 466.891 1015.57 492.907 1078.46 498.743C1105.01 501.197 1128.95 500.613 1152.36 496.805L1148.14 494.266Z" fill="#072C49"/>
<path d="M1154.52 498.108C1133.66 502.126 1112.1 503.261 1088.37 501.751C1023.57 497.603 949.8 470.243 892.78 446.881C802.311 409.806 729.827 373.216 684.955 349.046C661.113 336.205 637.878 323.233 615.392 310.679C572.862 286.935 532.68 264.504 490.454 243.899C440.897 219.713 396.249 202.393 349.958 189.38C289.069 172.275 227.596 164.328 173.922 161.143L172.333 163.785C226.411 166.839 288.653 174.721 350.259 192.03C396.205 204.941 440.533 222.141 489.754 246.165C531.823 266.694 571.922 289.082 614.383 312.785C636.879 325.344 660.147 338.328 684.029 351.193C729.043 375.441 801.733 412.139 892.457 449.31C949.856 472.827 1024.15 500.372 1089.64 504.569C1114.4 506.145 1136.8 504.867 1158.5 500.497L1154.52 498.108Z" fill="#062842"/>
<path d="M1161.36 502.218C1141.91 506.684 1121.7 508.424 1099.48 507.649C1048.22 505.838 985.649 488.809 902.564 454.055C831.9 424.495 757.431 387.539 692.864 349.976C667.075 334.974 641.924 319.697 617.608 304.923C575.99 279.639 536.659 255.748 495.119 233.597C444.486 206.588 398.882 187.191 351.596 172.548C300.627 156.763 243.643 146.326 185.588 141.741L184.071 144.264C242.722 148.712 300.325 159.156 351.739 175.079C398.67 189.614 443.947 208.879 494.235 235.697C535.62 257.77 574.87 281.614 616.423 306.849C640.772 321.636 665.939 336.93 691.791 351.963C756.58 389.651 831.309 426.738 902.209 456.4C985.901 491.405 1049.02 508.566 1100.83 510.389C1123.98 511.2 1144.97 509.318 1165.17 504.506L1161.36 502.218Z" fill="#05233B"/>
<path d="M1168.67 506.615C1150.51 511.453 1131.47 513.676 1110.58 513.541C1058.16 513.185 995.162 496.568 912.338 461.223C841.441 430.97 766.284 391.783 700.76 350.907C673.558 333.935 647.016 316.539 621.338 299.711C580.084 272.673 541.108 247.135 499.751 223.284C448.048 193.464 401.488 171.989 353.204 155.699C304.873 139.397 251.114 128.252 196.991 122.775L195.553 125.167C250.174 130.512 304.49 141.676 353.232 158.127C401.145 174.292 447.376 195.617 498.727 225.234C539.931 249.002 578.828 274.492 620.016 301.482C645.714 318.322 672.295 335.742 699.547 352.744C765.336 393.787 840.772 433.118 911.949 463.49C995.41 499.104 1058.98 515.853 1111.98 516.209C1133.72 516.345 1153.46 513.967 1172.3 508.796L1168.67 506.615Z" fill="#051F33"/>
<path d="M1176.31 511.204C1159.29 516.334 1141.37 519.012 1121.7 519.445C1069 520.586 1003.72 503.895 922.118 468.402C850.897 437.428 775.083 396.026 708.652 351.844C680.414 333.063 652.794 313.679 626.1 294.941C584.867 266 545.919 238.659 504.399 212.988C451.647 180.369 404.106 156.811 354.838 138.873C308.684 122.077 258.518 110.291 208.302 103.964L206.936 106.236C257.585 112.45 308.211 124.237 354.728 141.17C403.633 158.971 450.811 182.343 503.235 214.765C544.607 240.347 583.489 267.639 624.645 296.527C651.38 315.289 679.015 334.691 707.323 353.514C774.036 397.881 850.175 439.462 921.695 470.568C1003.95 506.342 1069.85 523.177 1123.14 522.017C1143.59 521.573 1162.15 518.741 1179.77 513.289L1176.31 511.204Z" fill="#041B2C"/>
<path d="M1184.31 516.019C1168.33 521.389 1151.4 524.414 1132.82 525.342C1079.02 528.035 1013.29 511.749 931.892 475.57C860.658 444.1 784.173 400.484 716.528 352.763C687.496 332.286 659.072 311.046 631.57 290.499C591.923 260.879 550.932 230.256 509.011 202.663C455.189 167.232 406.699 141.609 356.432 122.024C312.684 104.985 265.976 92.7116 219.369 85.558L218.088 87.6872C265.051 94.7456 312.15 107.043 356.225 124.213C406.118 143.656 454.276 169.111 507.751 204.309C549.536 231.812 588.633 261.02 630.033 291.954C657.564 312.519 686.028 333.783 715.112 354.307C783.051 402.237 859.891 446.051 931.444 477.664C1013.53 514.148 1079.89 530.566 1134.3 527.844C1154.95 526.809 1172.51 523.141 1187.6 517.997L1184.31 516.019Z" fill="#031625"/>
<path d="M1192.52 520.954C1178.63 526.039 1162.6 529.786 1143.94 531.24C1090.16 535.442 1022.1 519.125 941.662 482.744C869.932 450.456 792.763 404.626 724.39 353.682C694.771 331.618 665.697 308.623 637.578 286.381C597.542 254.708 556.126 221.954 513.619 192.343C458.744 154.119 409.298 126.419 358.037 105.18C317.278 88.2988 273.623 75.7413 230.019 67.8441L228.811 69.854C272.708 77.668 316.697 90.2555 357.742 107.268C408.636 128.352 457.744 155.873 512.285 193.864C554.661 223.379 596 256.079 635.984 287.704C664.129 309.97 693.239 332.995 722.915 355.101C791.597 406.272 869.124 452.317 941.207 484.76C1022.35 521.458 1091.07 537.913 1145.47 533.664C1164.84 532.139 1181.39 528.195 1195.68 522.854L1192.52 520.954Z" fill="#03121D"/>
<path d="M1200.99 526.044C1187.8 531.303 1172.65 535.278 1155.08 537.15C1100.64 542.927 1032.13 527.039 951.442 489.923C879.203 456.818 801.356 408.761 732.259 354.613C702.289 331.128 672.791 306.522 644.266 282.728C603.623 248.823 561.591 213.765 518.234 182.036C462.572 141.138 412.179 111.367 359.644 88.3545C321.377 71.5824 280.937 58.8066 240.584 50.2733L239.44 52.1759C280.045 60.6497 320.755 73.4496 359.248 90.3174C411.417 113.174 461.492 142.754 516.824 183.413C560.049 215.047 602.019 250.051 642.599 283.902C671.151 307.72 700.679 332.344 730.711 355.882C800.121 410.276 878.341 458.566 950.95 491.844C1032.36 529.289 1101.55 545.308 1156.6 539.472C1174.84 537.541 1190.47 533.37 1204.02 527.866L1200.99 526.044Z" fill="#020D16"/>
<path d="M1209.75 531.314C1196.36 537.092 1181.99 540.941 1166.21 543.054C1111.17 550.429 1042.21 534.971 961.212 497.097C888.457 463.162 809.93 412.885 740.111 355.526C709.766 330.597 679.836 304.391 650.877 279.045C609.624 242.938 566.974 205.6 522.822 171.705C466.995 128.742 414.146 95.9676 361.235 71.5109C325.478 55.0629 288.12 42.2238 250.869 33.1677L249.79 34.963C287.236 43.9655 324.819 56.8346 360.768 73.3663C413.327 97.6676 465.861 130.245 521.382 172.974C565.415 206.775 608.003 244.059 649.194 280.112C678.169 305.476 708.135 331.711 738.547 356.688C808.69 414.316 887.588 464.832 960.726 498.941C1042.45 537.149 1112.11 552.745 1167.77 545.293C1184.06 543.103 1198.88 539.104 1212.65 533.058L1209.75 531.314Z" fill="#01090F"/>
<path d="M1218.6 536.637C1205.93 542.499 1192.29 546.534 1177.34 548.951C1121.75 557.944 1052.32 542.902 970.972 504.265C897.897 469.601 818.693 417.098 747.944 356.426C717.552 330.292 687.455 302.744 658.351 276.109C616.21 237.543 572.639 197.663 527.401 161.367C469.55 114.907 417.251 80.9928 362.819 54.6554C329.627 38.6449 295.24 25.8378 260.957 16.3902L259.938 18.084C294.388 27.502 328.944 40.3211 362.299 56.4212C416.385 82.5913 468.383 116.308 525.94 162.536C571.064 198.729 614.582 238.562 656.661 277.075C685.791 303.733 715.914 331.305 746.369 357.493C817.44 418.44 897.035 471.194 970.488 506.037C1052.58 545.033 1122.7 560.194 1178.91 551.107C1194.33 548.612 1208.37 544.416 1221.38 538.304L1218.6 536.637Z" fill="#010407"/>
<path d="M1227.51 541.99C1215.98 547.68 1203.1 552.097 1188.49 554.861C1059.33 579.306 874.668 463.73 755.796 357.339C724.967 329.749 694.373 300.553 664.797 272.319C574.159 185.819 480.439 96.3694 364.406 37.8178C333.861 22.4 302.41 9.75028 270.811 0.000356561L269.761 1.74789C301.354 11.3486 333.058 23.9389 363.832 39.4702C479.23 97.7051 572.702 186.916 663.097 273.189C692.703 301.441 723.31 330.66 754.191 358.299C800.379 399.631 856.422 442.325 915.355 477.759C1009.06 534.098 1110.03 572.07 1190.04 556.921C1205.11 554.068 1218.34 549.489 1230.16 543.585L1227.51 541.99Z" fill="black"/>
</g>
</svg>
