<svg preserveAspectRatio="none" width="100%" height="100%" overflow="visible" style="display: block;" viewBox="0 0 19.5996 19.5996" fill="none" xmlns="http://www.w3.org/2000/svg">
<path id="Vector" d="M9.7998 0C15.2122 0 19.5996 4.38741 19.5996 9.7998C19.5996 15.2122 15.2122 19.5996 9.7998 19.5996C4.38741 19.5996 0 15.2122 0 9.7998C0 4.38741 4.38741 0 9.7998 0ZM1.63965 10.5996C1.98052 14.1205 4.54743 16.9871 7.91602 17.7793C6.06381 15.2946 5.21774 12.8586 5.03809 10.5996H1.63965ZM14.5615 10.5996C14.3819 12.8588 13.5351 15.2944 11.6826 17.7793C15.0517 16.9874 17.6191 14.1208 17.96 10.5996H14.5615ZM6.64355 10.5996C6.84055 12.7387 7.73685 15.1094 9.7998 17.583C11.8628 15.1094 12.7591 12.7387 12.9561 10.5996H6.64355ZM11.8525 1.85938C12.9977 3.35181 14.046 5.3597 14.4375 7.71094C14.5075 8.1314 14.5563 8.56144 14.5811 9H17.96C17.6248 5.53799 15.138 2.70627 11.8525 1.85938ZM9.7998 1.91309C8.52818 3.24558 7.17182 5.38169 6.74023 7.97363C6.68469 8.30721 6.64493 8.64963 6.62207 9H12.9775C12.9547 8.64963 12.9149 8.30721 12.8594 7.97363C12.4278 5.38169 11.0714 3.24558 9.7998 1.91309ZM7.74609 1.85938C4.46107 2.70656 1.97479 5.53832 1.63965 9H5.01855C5.04332 8.56144 5.0921 8.1314 5.16211 7.71094C5.55356 5.35995 6.60111 3.35176 7.74609 1.85938Z" fill="var(--fill-0, white)"/>
</svg>
