<svg width="566" height="308" viewBox="0 0 566 308" fill="none" xmlns="http://www.w3.org/2000/svg">
<g clip-path="url(#clip0_1278_46422)">
<path fill-rule="evenodd" clip-rule="evenodd" d="M138.536 4.66222C138.951 4.06712 139.552 4.28352 139.178 1.70836C137.779 -2.50928 139.561 2.50038 139.395 1.7841C139.189 3.0284 138.425 2.42248 137.957 2.35539C138.101 2.9137 138.294 3.81393 138.536 4.66222Z" fill="#0D71C7" fill-opacity="0.15"/>
<path fill-rule="evenodd" clip-rule="evenodd" d="M49.6831 262.732C46.4475 257.354 43.8081 251.44 41.2187 246.164C39.8414 248.289 35.8943 271.541 30.4414 307.998H42.2392C45.8121 281.236 48.4689 264.64 49.6831 262.732Z" fill="#0D71C7" fill-opacity="0.15"/>
<path fill-rule="evenodd" clip-rule="evenodd" d="M39.5805 247.308C36.9651 242.315 34.5346 237.561 32.0758 233.949C30.7376 235.886 25.9615 264.386 19.3945 307.999H30.0587C34.8305 272.2 38.2989 249.357 39.5805 247.308Z" fill="#0D71C7" fill-opacity="0.15"/>
<path fill-rule="evenodd" clip-rule="evenodd" d="M30.8997 232.5C28.6955 229.36 26.5914 226.378 24.5134 223.543C22.0524 237.771 19.561 251.811 17.1697 265.765C14.737 279.935 12.3369 294.033 10 307.969L10.1567 307.997H19.7438C23.3166 283.2 27.1114 257.948 30.8997 232.498V232.5Z" fill="#0D71C7" fill-opacity="0.15"/>
<path fill-rule="evenodd" clip-rule="evenodd" d="M23.6479 222.068C21.8071 219.131 20.0511 216.519 18.38 214.059C15.2118 229.678 12.0481 245.127 9.00178 260.279C5.9272 275.585 2.9092 290.716 0 305.553V306.161C2.76342 306.682 5.60299 307.199 8.51872 307.671C10.897 293.625 13.4124 279.357 15.9495 264.967C18.4431 250.818 21.0977 236.534 23.6479 222.068Z" fill="#0D71C7" fill-opacity="0.15"/>
<path fill-rule="evenodd" clip-rule="evenodd" d="M17.5488 212.966C15.9734 210.614 14.7331 208.24 13.6365 205.719C9.78076 222.514 5.87933 239.161 2.26948 255.547L0 265.85V299.048C2.57629 286.088 5.25049 272.939 7.95298 259.654C11.0689 244.32 14.2914 228.694 17.551 212.968L17.5488 212.966Z" fill="#0D71C7" fill-opacity="0.15"/>
<path fill-rule="evenodd" clip-rule="evenodd" d="M12.8336 204.769C11.4976 202.657 10.2986 200.651 9.24113 198.441C6.13609 211.027 3.03976 223.505 0 235.859V260.782L1.30555 254.995C5.01114 238.558 8.88645 221.752 12.8336 204.771V204.769Z" fill="#0D71C7" fill-opacity="0.15"/>
<path fill-rule="evenodd" clip-rule="evenodd" d="M8.64928 197.519C7.59178 195.775 6.86938 193.726 6.15132 191.688C4.07767 199.452 2.02796 207.171 0 214.838V232.275C2.86351 220.815 5.77054 209.222 8.64928 197.522V197.519Z" fill="#0D71C7" fill-opacity="0.15"/>
<path fill-rule="evenodd" clip-rule="evenodd" d="M5.37887 191.142C4.66299 189.37 4.01675 187.552 3.55763 185.797L0 198.452V211.339C1.77555 204.643 3.56851 197.907 5.37887 191.142Z" fill="#0D71C7" fill-opacity="0.15"/>
<path fill-rule="evenodd" clip-rule="evenodd" d="M3.26605 184.404C2.69161 182.695 2.23684 181.059 1.84083 179.594L0 185.88V195.99L3.26605 184.404Z" fill="#0D71C7" fill-opacity="0.15"/>
<path fill-rule="evenodd" clip-rule="evenodd" d="M1.71462 178.682C1.38388 177.132 1.23592 175.574 1.02703 174.07L0 177.479V184.499L1.71462 178.682Z" fill="#0D71C7" fill-opacity="0.15"/>
<path fill-rule="evenodd" clip-rule="evenodd" d="M0.942173 173.5C0.796386 172.017 0.894303 170.353 1.04662 168.773L0 172.147V176.611L0.942173 173.5Z" fill="#0D71C7" fill-opacity="0.15"/>
<path fill-rule="evenodd" clip-rule="evenodd" d="M1.10754 167.69C1.12277 166.435 1.38606 164.97 1.64935 163.418L0 168.711V171.245L1.10754 167.69Z" fill="#0D71C7" fill-opacity="0.15"/>
<path fill-rule="evenodd" clip-rule="evenodd" d="M1.67719 163.022C1.92524 161.7 2.34302 160.428 2.8239 158.984L0.00390625 168.06V168.361L1.67936 163.022H1.67719Z" fill="#0D71C7" fill-opacity="0.15"/>
<path fill-rule="evenodd" clip-rule="evenodd" d="M3.09633 158.132C3.67948 156.877 4.32355 155.503 4.77397 154.43C3.18772 159.569 1.59277 164.709 0 169.837V168.089C1.04009 164.771 2.07583 161.456 3.09633 158.132Z" fill="#0D71C7" fill-opacity="0.15"/>
<path fill-rule="evenodd" clip-rule="evenodd" d="M5.26834 153.612C5.95158 152.42 6.86112 151.078 7.7663 149.812C5.1726 158.298 2.57238 166.778 -0.00390625 175.235V170.691C1.75859 164.999 3.52326 159.297 5.26617 153.612H5.26834Z" fill="#0D71C7" fill-opacity="0.15"/>
<path fill-rule="evenodd" clip-rule="evenodd" d="M140.498 307.999C134.224 301.905 128.262 296.236 122.605 290.449C119.123 296.169 115.483 302.07 111.852 307.999H140.498Z" fill="#0D71C7" fill-opacity="0.15"/>
<path fill-rule="evenodd" clip-rule="evenodd" d="M119.377 287.527C112.902 280.723 106.894 275.084 101.241 269.875C94.8548 278.674 88.9363 287.215 82.6914 296.683C85.4831 300.102 88.3336 303.941 91.3168 308.003H106.574C110.874 300.976 115.139 294.183 119.377 287.527Z" fill="#0D71C7" fill-opacity="0.15"/>
<path fill-rule="evenodd" clip-rule="evenodd" d="M98.5948 267.085C92.994 262.086 88.0612 257.334 83.272 252.762C77.6734 260.264 71.9289 268.267 66.3281 276.161C70.6038 281.625 75.3234 287.213 80.1778 293.386C86.3488 284.464 92.2585 275.815 98.5948 267.085Z" fill="#0D71C7" fill-opacity="0.15"/>
<path fill-rule="evenodd" clip-rule="evenodd" d="M80.951 250.658C76.5338 246.791 72.2995 242.865 68.335 239.219C63.3717 245.791 58.2235 252.175 53.0078 258.985C56.6394 263.466 60.3428 268.197 64.2899 273.518C69.8494 265.855 75.4698 257.95 80.9531 250.658H80.951Z" fill="#0D71C7" fill-opacity="0.15"/>
<path fill-rule="evenodd" clip-rule="evenodd" d="M54.5747 225.804C51.5349 222.794 48.543 220.109 45.6534 217.512C41.5562 222.361 37.0803 227.696 32.9961 232.852C35.3113 235.964 37.9985 239.288 40.6771 243.075C45.3292 236.986 49.8725 231.675 54.5747 225.804Z" fill="#0D71C7" fill-opacity="0.15"/>
<path fill-rule="evenodd" clip-rule="evenodd" d="M43.975 216.618C41.3922 214.09 38.7789 211.797 36.5073 209.234C32.843 213.556 29.0004 218.009 25.4297 222.331C27.3771 225.25 29.5487 228.176 31.816 231.294C35.7784 226.438 40.0018 221.372 43.975 216.618Z" fill="#0D71C7" fill-opacity="0.15"/>
<path fill-rule="evenodd" clip-rule="evenodd" d="M34.8607 207.764C32.7609 205.442 30.7482 203.328 28.8203 201.227C25.4716 205.037 22.0184 209.065 18.8438 212.819C20.3821 215.228 22.199 217.669 24.1029 220.356C27.6715 216.08 31.4467 211.798 34.8629 207.764H34.8607Z" fill="#0D71C7" fill-opacity="0.15"/>
<path fill-rule="evenodd" clip-rule="evenodd" d="M27.609 200.053C25.7747 198.252 24.1428 196.378 22.3999 194.641C19.4994 197.906 16.44 201.252 13.5352 204.517C14.758 206.869 16.1876 209.181 17.5019 211.667C20.8702 207.884 24.3843 203.874 27.609 200.053Z" fill="#0D71C7" fill-opacity="0.15"/>
<path fill-rule="evenodd" clip-rule="evenodd" d="M21.724 193.732C20.1899 192.078 18.793 190.159 17.5897 188.449C14.8894 191.362 12.3501 194.231 9.46484 197.332C10.6507 199.423 11.8497 201.399 13.1182 203.545C15.9534 200.382 18.8844 197.099 21.7261 193.732H21.724Z" fill="#0D71C7" fill-opacity="0.15"/>
<path fill-rule="evenodd" clip-rule="evenodd" d="M16.8141 187.102C15.5086 185.581 14.388 184.137 13.2173 182.648C10.7128 185.364 8.24099 188.158 6.07812 190.538C6.79835 192.419 7.77752 194.185 8.57173 196.206C11.2633 193.172 14.055 190.049 16.8163 187.102H16.8141Z" fill="#0D71C7" fill-opacity="0.15"/>
<path fill-rule="evenodd" clip-rule="evenodd" d="M12.7485 182.18C11.7106 180.697 10.8642 179.09 9.95683 177.789C7.96368 179.862 5.95096 182.156 3.98828 184.372C4.57143 186.092 5.09365 187.921 5.80735 189.693C8.09642 187.172 10.3746 184.649 12.7485 182.18Z" fill="#0D71C7" fill-opacity="0.15"/>
<path fill-rule="evenodd" clip-rule="evenodd" d="M9.57205 176.911C8.67339 175.667 8.13812 174.23 7.60719 172.895C5.87734 174.701 4.0735 176.593 2.38281 178.439C2.71355 180.018 3.22925 181.574 3.55563 183.438C5.51396 181.319 7.65071 178.934 9.57422 176.911H9.57205Z" fill="#0D71C7" fill-opacity="0.15"/>
<path fill-rule="evenodd" clip-rule="evenodd" d="M7.21635 172.315C6.81163 170.924 6.34163 169.753 5.93691 168.441C4.40071 170.043 3.03423 171.612 1.42188 173.304C1.63512 174.741 1.844 176.29 2.17474 177.786C3.92853 175.855 5.61052 174.027 7.21635 172.317V172.315Z" fill="#0D71C7" fill-opacity="0.15"/>
<path fill-rule="evenodd" clip-rule="evenodd" d="M5.74989 167.503C5.52359 166.219 5.23637 165.083 5.19068 163.727C3.78503 165.248 2.55781 166.579 1.38935 167.817C1.23703 169.418 1.27402 170.82 1.35888 172.389C2.72536 170.9 4.33336 169.095 5.74989 167.505V167.503Z" fill="#0D71C7" fill-opacity="0.15"/>
<path fill-rule="evenodd" clip-rule="evenodd" d="M26.4522 132.24C28.2277 131.286 29.8945 130.388 31.7222 129.656C31.7201 129.918 31.7744 130.076 31.9398 130.059C29.9989 130.968 27.9427 132.171 26.3281 133.034C26.3347 132.682 26.3347 132.58 26.4522 132.24Z" fill="#0D71C7" fill-opacity="0.15"/>
<path fill-rule="evenodd" clip-rule="evenodd" d="M4.97335 159.122C5.2127 157.902 5.38678 156.731 5.66965 155.703C4.95159 156.413 3.98984 157.452 3.20215 158.343C2.78003 159.724 2.36225 161.074 1.93359 162.472C3.09118 161.245 3.94632 160.263 4.97118 159.122H4.97335Z" fill="#0D71C7" fill-opacity="0.15"/>
<path fill-rule="evenodd" clip-rule="evenodd" d="M5.99559 154.779C6.39596 153.649 6.84638 152.502 7.29679 151.398C6.58092 152.223 6.04129 152.937 5.32323 153.733C4.57472 155.058 3.99375 156.317 3.40625 157.704C4.31796 156.631 5.04037 155.796 5.99777 154.779H5.99559Z" fill="#0D71C7" fill-opacity="0.15"/>
<path fill-rule="evenodd" clip-rule="evenodd" d="M14.4844 141.418C15.5202 140.338 16.606 139.345 17.744 138.453C17.4546 138.856 17.163 139.278 16.9302 139.617C15.6725 140.736 14.4714 141.775 13.3203 142.844C13.7272 142.396 13.9622 142.061 14.4844 141.418Z" fill="#0D71C7" fill-opacity="0.15"/>
<path fill-rule="evenodd" clip-rule="evenodd" d="M204.989 297.92C194.029 290.543 184.54 283.556 174.637 277.133C168.732 287.152 162.594 297.057 156.395 308.002H199.595C201.377 304.605 203.175 301.244 204.989 297.92Z" fill="#0D71C7" fill-opacity="0.15"/>
<path fill-rule="evenodd" clip-rule="evenodd" d="M170.199 274.286C161.488 268.147 153.342 262.267 145.802 256.879C139.479 266.29 133.217 275.667 126.98 285.623C134.3 292.399 141.792 299.943 150.354 307.268C156.919 295.731 163.743 284.963 170.199 274.286Z" fill="#0D71C7" fill-opacity="0.15"/>
<path fill-rule="evenodd" clip-rule="evenodd" d="M142.194 254.367C134.97 250.186 128.577 245.575 122.36 241.281C116.625 248.959 110.7 257.009 104.973 265.408C110.804 270.872 116.786 276.448 123.49 282.845C129.878 272.826 135.849 263.387 142.194 254.367Z" fill="#0D71C7" fill-opacity="0.15"/>
<path fill-rule="evenodd" clip-rule="evenodd" d="M119.531 239C113.542 235.144 108.083 231.236 102.824 227.953C97.5603 234.525 91.9595 241.976 86.6133 249.576C91.5091 253.876 96.727 258.072 102.358 262.889C107.87 254.865 113.756 246.89 119.531 239Z" fill="#0D71C7" fill-opacity="0.15"/>
<path fill-rule="evenodd" clip-rule="evenodd" d="M100.316 226.352C95.3074 223.38 90.7815 220.217 86.2925 217.633C81.301 223.499 76.5161 229.6 71.418 236.154C75.426 239.647 79.8366 243.209 84.2624 247.167C89.5543 240.227 95.0397 232.876 100.316 226.352Z" fill="#0D71C7" fill-opacity="0.15"/>
<path fill-rule="evenodd" clip-rule="evenodd" d="M40.6178 126.309C39.4537 126.19 38.4006 126.065 37.4606 125.883C35.5327 127.781 33.7637 129.551 31.875 131.351C32.8172 131.481 33.7049 131.788 34.7059 132.022C36.6511 130.187 38.529 128.278 40.6178 126.309Z" fill="#0D71C7" fill-opacity="0.15"/>
<path fill-rule="evenodd" clip-rule="evenodd" d="M70.5944 207.048C67.0499 204.929 63.8404 202.685 60.5417 200.625C56.4553 205.481 52.2471 210.361 48.1172 215.323C51.0612 217.692 54.114 220.315 57.3997 222.951C61.7493 217.602 66.112 212.369 70.5944 207.048Z" fill="#0D71C7" fill-opacity="0.15"/>
<path fill-rule="evenodd" clip-rule="evenodd" d="M58.7022 199.961C55.7625 197.899 52.7968 196.042 49.9768 194.145C46.467 198.189 42.7963 202.42 39.2734 206.691C41.6713 209.083 44.2193 211.348 46.8696 213.813C50.7623 209.314 54.7268 204.629 58.7022 199.961Z" fill="#0D71C7" fill-opacity="0.15"/>
<path fill-rule="evenodd" clip-rule="evenodd" d="M48.221 193.02C45.5729 191.413 43.4405 189.532 41.0862 188C37.7418 191.731 34.3669 195.423 31.2031 199.103C33.131 201.12 35.2699 203.09 37.5633 205.299C41.208 200.858 44.7656 196.864 48.2188 193.02H48.221Z" fill="#0D71C7" fill-opacity="0.15"/>
<path fill-rule="evenodd" clip-rule="evenodd" d="M39.7541 186.978C37.5477 185.433 35.5436 183.866 33.4374 182.656C30.5151 185.82 27.4449 189.114 24.3398 192.816C26.0197 194.56 27.78 196.263 29.7448 198.246C32.9717 194.593 36.4097 190.624 39.7541 186.978Z" fill="#0D71C7" fill-opacity="0.15"/>
<path fill-rule="evenodd" clip-rule="evenodd" d="M32.6914 181.993C30.8462 180.528 29.075 179.295 27.5562 177.875C24.8799 180.773 22.1186 183.776 19.4531 186.598C20.8435 188.238 22.2448 190.052 23.9072 191.828C26.8208 188.42 29.767 185.207 32.6914 181.991V181.993Z" fill="#0D71C7" fill-opacity="0.15"/>
<path fill-rule="evenodd" clip-rule="evenodd" d="M26.4739 176.901C24.8528 175.845 23.5451 174.436 22.2439 173.227C19.6915 175.884 17.1152 178.68 14.5781 181.525C15.9381 182.759 16.9956 184.406 18.2467 185.905C20.9144 182.947 23.7997 179.822 26.4739 176.903V176.901Z" fill="#0D71C7" fill-opacity="0.15"/>
<path fill-rule="evenodd" clip-rule="evenodd" d="M21.5271 172.846C20.1149 171.818 19.1923 170.448 18.0347 169.273C15.8501 171.546 13.5893 173.965 11.4961 176.272C12.5275 177.562 13.4392 179.003 14.4793 180.492C16.8271 177.936 19.1575 175.374 21.5271 172.846Z" fill="#0D71C7" fill-opacity="0.15"/>
<path fill-rule="evenodd" clip-rule="evenodd" d="M11.6239 161.489C11.1517 160.364 10.7339 159.364 10.3749 158.332C8.8757 159.916 7.55057 161.318 6.16016 162.803C6.38645 164.006 6.73677 165.114 6.84339 166.523C8.54496 164.768 10.0638 163.114 11.6261 161.491L11.6239 161.489Z" fill="#0D71C7" fill-opacity="0.15"/>
<path fill-rule="evenodd" clip-rule="evenodd" d="M9.98656 157.968C9.86688 156.764 9.50568 155.94 9.4404 154.934C8.30675 156.115 7.10782 157.392 5.96546 158.636C5.90671 159.783 6.01768 160.982 6.13301 162.125C7.40374 160.733 8.66795 159.318 9.98656 157.968Z" fill="#0D71C7" fill-opacity="0.15"/>
<path fill-rule="evenodd" clip-rule="evenodd" d="M9.61917 150.982C9.71273 150.233 9.9869 149.13 10.1914 148.301C9.42551 149.147 8.59431 150.101 7.88496 150.88C7.3214 152.051 6.92756 153.163 6.58594 154.289C7.59556 153.261 8.55297 152.131 9.61699 150.984L9.61917 150.982Z" fill="#0D71C7" fill-opacity="0.15"/>
<path fill-rule="evenodd" clip-rule="evenodd" d="M11.55 145.324C11.9721 144.597 12.6249 143.506 13.504 142.422C13.0362 143.034 12.4508 143.694 12.2115 144.166C11.1583 145.428 10.3881 146.432 9.55469 147.568C10.1465 146.865 10.9081 146.047 11.5522 145.324H11.55Z" fill="#0D71C7" fill-opacity="0.15"/>
<path fill-rule="evenodd" clip-rule="evenodd" d="M17.4871 137.811C18.29 136.926 19.1408 136.141 19.9306 135.438C19.4171 136.102 18.958 136.732 18.4467 137.277C17.4784 138.175 16.5057 139.147 15.6484 139.923C16.3404 139.151 16.8561 138.567 17.4893 137.811H17.4871Z" fill="#0D71C7" fill-opacity="0.15"/>
<path fill-rule="evenodd" clip-rule="evenodd" d="M15.395 142.291C15.5299 141.616 15.8346 140.889 15.9695 140.207C15.16 141.161 14.2918 142.12 13.4802 142.983C13.1756 143.773 12.7491 144.637 12.4336 145.489C13.3671 144.496 14.4115 143.434 15.395 142.291Z" fill="#0D71C7" fill-opacity="0.15"/>
<path fill-rule="evenodd" clip-rule="evenodd" d="M386.161 194.214C368.292 190.453 351.872 186.746 336.408 183.219C330.448 192.829 324.365 202.007 318.668 211.855C333.669 216.029 350.219 221.409 368.544 226.888C374.506 215.547 380.286 204.818 386.163 194.214H386.161Z" fill="#0D71C7" fill-opacity="0.15"/>
<path fill-rule="evenodd" clip-rule="evenodd" d="M283.114 183.363C270.64 180.598 259.664 177.871 248.741 175.809C243.384 183.062 237.551 190.576 231.734 198.453C242.392 201.69 253.578 205.165 265.6 209.011C271.201 200.372 277.298 191.5 283.114 183.361V183.363Z" fill="#0D71C7" fill-opacity="0.15"/>
<path fill-rule="evenodd" clip-rule="evenodd" d="M268.437 126.906C258.502 126.507 249.206 125.906 240.237 125.43C235.191 130.939 230.252 136.312 225.504 141.896C234.203 142.685 243.442 143.69 253.271 145.126C258.175 138.834 263.071 132.74 268.437 126.906Z" fill="#0D71C7" fill-opacity="0.15"/>
<path fill-rule="evenodd" clip-rule="evenodd" d="M321.225 308.002C308.489 301.248 296.571 294.86 285.348 288.703C282.141 295.007 278.927 301.436 275.75 308.002H321.222H321.225Z" fill="#0D71C7" fill-opacity="0.15"/>
<path fill-rule="evenodd" clip-rule="evenodd" d="M277.722 284.745C263.1 276.97 250.217 269.474 237.612 262.766C230.999 274.205 224.225 286.507 217.484 298.785C221.61 301.837 225.809 304.897 230.116 307.998H266.373C270.213 300.051 273.989 292.328 277.722 284.745Z" fill="#0D71C7" fill-opacity="0.15"/>
<path fill-rule="evenodd" clip-rule="evenodd" d="M231.783 259.756C220.37 254.156 209.834 248.954 200.156 243.797C193.919 253.264 187.276 263.427 181.277 273.911C190.706 280.442 200.848 287.144 211.999 294.363C218.442 282.271 225.168 271.037 231.783 259.756Z" fill="#0D71C7" fill-opacity="0.15"/>
<path fill-rule="evenodd" clip-rule="evenodd" d="M194.856 242.361C185.427 237.54 176.835 233.324 168.688 229.297C163.072 237.278 157.147 245.536 151.191 253.934C159.014 259.262 167.578 265.135 176.597 271.313C182.786 260.891 188.754 251.673 194.856 242.359V242.361Z" fill="#0D71C7" fill-opacity="0.15"/>
<path fill-rule="evenodd" clip-rule="evenodd" d="M163.662 226.363C156.134 222.892 149.025 219.508 142.293 216.141C136.92 223.024 131.524 230.289 126.121 237.753C132.494 242.165 139.164 246.38 146.444 250.589C152.086 242.609 157.92 234.442 163.662 226.366V226.363Z" fill="#0D71C7" fill-opacity="0.15"/>
<path fill-rule="evenodd" clip-rule="evenodd" d="M138.403 214.166C132.284 210.708 126.427 208.156 120.615 205.629C115.558 212.065 110.368 218.641 105.035 225.287C110.532 228.37 116.278 231.95 122.07 235.925C127.436 228.569 133.041 221.197 138.403 214.166Z" fill="#0D71C7" fill-opacity="0.15"/>
<path fill-rule="evenodd" clip-rule="evenodd" d="M118.07 204.921C112.907 202.422 107.809 200.072 102.845 197.992C98.4499 203.536 93.8 209.061 89.2109 214.588C93.7173 217.377 98.4891 220.381 103.328 223.601C108.307 217.273 113.333 210.942 118.068 204.921H118.07Z" fill="#0D71C7" fill-opacity="0.15"/>
<path fill-rule="evenodd" clip-rule="evenodd" d="M85.2691 189.714C81.1675 188.225 77.5859 186.557 74.0283 184.914C70.2009 189.225 66.2211 193.752 62.5547 198.017C65.7859 200.101 68.9279 202.345 72.7837 204.321C76.8265 199.458 81.0043 194.546 85.2691 189.712V189.714Z" fill="#0D71C7" fill-opacity="0.15"/>
<path fill-rule="evenodd" clip-rule="evenodd" d="M72.1344 184.143C68.679 182.507 65.5588 180.877 62.4885 179.672C58.9244 183.539 55.6257 187.304 51.9375 191.485C54.7488 193.314 57.6428 195.08 60.6347 197.103C64.5535 192.712 68.2351 188.391 72.1344 184.143Z" fill="#0D71C7" fill-opacity="0.15"/>
<path fill-rule="evenodd" clip-rule="evenodd" d="M60.9618 179.07C58.1614 177.752 55.6199 176.385 52.9827 175.242C49.6339 178.826 46.307 182.342 43.3281 185.891C45.5019 187.493 48.0586 189.027 50.5783 190.674C54.1555 186.716 57.5782 182.881 60.9596 179.07H60.9618Z" fill="#0D71C7" fill-opacity="0.15"/>
<path fill-rule="evenodd" clip-rule="evenodd" d="M51.0587 174.746C48.5042 173.599 46.2129 172.519 43.9935 171.281C41.3389 174.149 38.1882 177.518 35.4922 180.602C37.4157 181.993 39.6003 183.378 41.8089 184.947C44.7942 181.482 48.0015 178.07 51.0587 174.746Z" fill="#0D71C7" fill-opacity="0.15"/>
<path fill-rule="evenodd" clip-rule="evenodd" d="M42.7668 170.656C40.6343 169.708 38.5085 168.771 36.6372 167.816C34.0348 170.578 31.5325 173.309 28.9453 176.007C30.5838 177.245 32.4747 178.388 34.2589 179.915C37.0767 176.734 39.8119 173.696 42.7668 170.658V170.656Z" fill="#0D71C7" fill-opacity="0.15"/>
<path fill-rule="evenodd" clip-rule="evenodd" d="M36.0921 167.288C34.2317 166.403 32.6215 165.414 30.8438 164.613C28.5917 166.92 26.2069 169.458 23.8047 171.951C25.2887 173.064 26.7226 174.319 28.3437 175.598C30.8677 172.821 33.4897 170.106 36.0921 167.288Z" fill="#0D71C7" fill-opacity="0.15"/>
<path fill-rule="evenodd" clip-rule="evenodd" d="M30.0753 163.836C28.661 162.791 27.2575 161.808 25.8584 161.07C23.5519 163.49 21.4652 165.688 19.3633 167.93C20.4621 169.112 21.6872 170.209 22.9797 171.377C25.3819 168.798 27.7645 166.34 30.0753 163.834V163.836Z" fill="#0D71C7" fill-opacity="0.15"/>
<path fill-rule="evenodd" clip-rule="evenodd" d="M25.0448 160.539C23.7719 159.847 22.5642 159.12 21.535 158.211C19.5811 160.278 17.7968 162.147 15.6992 164.385C16.6044 165.391 17.5161 166.374 18.5497 167.388C20.6494 165.207 22.734 163.06 25.0448 160.539Z" fill="#0D71C7" fill-opacity="0.15"/>
<path fill-rule="evenodd" clip-rule="evenodd" d="M219.909 152.939C211.592 151.796 203.668 150.82 195.976 149.617C191.178 155.371 186.345 160.92 181.258 166.695C188.588 168.241 196.391 169.699 204.703 171.751C209.808 165.315 214.926 159.119 219.911 152.939H219.909Z" fill="#0D71C7" fill-opacity="0.15"/>
<path fill-rule="evenodd" clip-rule="evenodd" d="M65.5811 123.315C63.3182 123.332 61.1727 123.336 59.1448 123.371C56.7687 125.751 54.3186 128.073 52.0273 130.384C54.0074 130.35 55.7242 130.681 57.8914 130.759C60.3937 128.259 62.9374 125.766 65.5833 123.312L65.5811 123.315Z" fill="#0D71C7" fill-opacity="0.15"/>
<path fill-rule="evenodd" clip-rule="evenodd" d="M65.2226 115.922C63.1707 116.171 61.2254 116.359 59.3411 116.513C57.0346 118.677 54.8304 120.756 52.6719 122.799C54.4061 122.81 56.1969 122.788 58.0442 122.715C60.3594 120.512 62.8204 118.188 65.2226 115.922Z" fill="#0D71C7" fill-opacity="0.15"/>
<path fill-rule="evenodd" clip-rule="evenodd" d="M459.331 308C453.267 305.445 447.342 302.928 441.563 300.441C440.592 302.924 439.639 305.445 438.699 308H459.333H459.331Z" fill="#0D71C7" fill-opacity="0.15"/>
<path fill-rule="evenodd" clip-rule="evenodd" d="M215.446 98.6367C208.274 99.0111 201.463 99.34 194.977 99.6473C190.978 103.612 187.02 107.632 182.938 111.471C189.426 111.51 195.919 111.419 202.904 111.324C206.955 107.031 211.244 102.833 215.444 98.6367H215.446Z" fill="#0D71C7" fill-opacity="0.15"/>
<path fill-rule="evenodd" clip-rule="evenodd" d="M354.706 263.928C336.454 256.471 319.717 249.877 303.789 243.781C297.584 255.242 290.941 267.557 284.883 280.751C300.519 288.918 316.897 297.21 335.207 306.083C341.398 291.746 348.085 277.542 354.704 263.928H354.706Z" fill="#0D71C7" fill-opacity="0.15"/>
<path fill-rule="evenodd" clip-rule="evenodd" d="M251.371 223.296C239.823 219.007 228.83 215.192 218.638 211.438C212.702 219.923 206.653 228.918 200.77 238.014C210.511 242.995 221.241 248.055 232.205 253.172C238.594 243.153 244.969 232.839 251.368 223.298L251.371 223.296Z" fill="#0D71C7" fill-opacity="0.15"/>
<path fill-rule="evenodd" clip-rule="evenodd" d="M181.293 199.233C173.314 196.534 166.034 194.07 159.101 191.531C154.075 197.716 148.815 204.435 143.77 211.343C150.371 214.528 157.597 217.908 164.893 221.401C170.168 213.727 175.849 206.207 181.295 199.233H181.293Z" fill="#0D71C7" fill-opacity="0.15"/>
<path fill-rule="evenodd" clip-rule="evenodd" d="M155.141 190.308C148.532 188.092 142.342 186.133 136.408 184.344C131.438 190.206 126.614 196.157 121.645 202.076C127.289 204.484 133.04 206.903 139.261 209.914C144.651 203.002 149.814 196.345 155.141 190.308Z" fill="#0D71C7" fill-opacity="0.15"/>
<path fill-rule="evenodd" clip-rule="evenodd" d="M133.85 183.691C128.349 181.919 123.012 180.175 117.774 178.402C113.411 183.57 109.047 188.649 104.586 193.918C109.41 196.076 114.504 198.497 119.687 200.83C124.539 194.985 129.33 189.209 133.848 183.689L133.85 183.691Z" fill="#0D71C7" fill-opacity="0.15"/>
<path fill-rule="evenodd" clip-rule="evenodd" d="M114.318 177.351C109.625 175.938 105.027 174.579 100.827 173.227C96.4408 178.111 92.2761 182.655 88.168 187.539C92.1064 189.091 96.3451 190.85 100.986 193.066C105.364 187.507 109.977 182.298 114.318 177.351Z" fill="#0D71C7" fill-opacity="0.15"/>
<path fill-rule="evenodd" clip-rule="evenodd" d="M98.7689 172.789C94.5019 171.614 90.6788 170.268 86.8361 169.164C83.0718 173.226 79.2335 177.593 75.6562 181.823C79.1268 183.34 82.6953 185.026 86.8383 186.431C90.6853 182.04 94.7695 177.286 98.7667 172.789H98.7689Z" fill="#0D71C7" fill-opacity="0.15"/>
<path fill-rule="evenodd" clip-rule="evenodd" d="M84.7893 168.511C81.112 167.522 77.6501 166.665 74.3819 165.711C70.9331 169.47 67.3841 173.168 64.1094 176.849C67.1013 177.985 70.3804 179.325 73.6355 180.933C77.2759 176.672 81.0228 172.618 84.7893 168.511Z" fill="#0D71C7" fill-opacity="0.15"/>
<path fill-rule="evenodd" clip-rule="evenodd" d="M72.876 165.238C69.7601 164.381 66.7791 163.472 63.9265 162.477C60.7388 165.907 57.5206 169.326 54.5156 172.66C57.0266 173.864 59.7988 175.058 62.6449 176.177C66.0502 172.576 69.4163 168.873 72.8782 165.238H72.876Z" fill="#0D71C7" fill-opacity="0.15"/>
<path fill-rule="evenodd" clip-rule="evenodd" d="M61.972 162.13C59.2129 161.295 56.7628 160.354 54.3954 159.609C51.4645 162.546 48.5792 165.556 45.7266 168.475C47.8263 169.776 50.2329 170.951 52.8375 172.003C55.9077 168.64 58.893 165.398 61.9741 162.13H61.972Z" fill="#0D71C7" fill-opacity="0.15"/>
<path fill-rule="evenodd" clip-rule="evenodd" d="M52.6539 159.469C50.3605 158.679 48.0801 158.014 45.8694 157.406C43.452 159.934 40.7843 162.695 38.332 165.381C40.3186 166.199 42.2574 167.129 44.3854 168.038C47.0618 165.231 49.8383 162.409 52.6539 159.466V159.469Z" fill="#0D71C7" fill-opacity="0.15"/>
<path fill-rule="evenodd" clip-rule="evenodd" d="M45.2672 156.945C43.3589 156.166 41.4658 155.445 39.5206 154.805C37.2097 157.196 34.714 159.871 32.4336 162.286C34.1526 163.149 35.8193 164.069 37.6145 164.956C40.1255 162.299 42.7387 159.685 45.2693 156.947L45.2672 156.945Z" fill="#0D71C7" fill-opacity="0.15"/>
<path fill-rule="evenodd" clip-rule="evenodd" d="M38.6324 154.266C36.8764 153.612 35.301 153.035 33.6734 152.539C31.417 154.77 29.2063 156.951 27.0391 159.276C28.4926 159.975 29.896 160.821 31.3648 161.747C33.7648 159.289 36.1475 156.744 38.6302 154.266H38.6324Z" fill="#0D71C7" fill-opacity="0.15"/>
<path fill-rule="evenodd" clip-rule="evenodd" d="M166.463 146.592C160.231 145.956 154.232 145.473 148.479 144.844C144.225 149.421 139.886 154.108 135.559 158.73C141.109 159.661 146.651 160.775 152.875 162.035C157.414 156.787 161.905 151.567 166.463 146.592Z" fill="#0D71C7" fill-opacity="0.15"/>
<path fill-rule="evenodd" clip-rule="evenodd" d="M145.868 144.425C140.444 143.743 135.143 143.282 130.382 142.648C126.213 146.925 122.09 151.298 118.219 155.581C122.932 156.494 127.795 157.416 133.048 158.255C137.217 153.769 141.612 148.987 145.868 144.425Z" fill="#0D71C7" fill-opacity="0.15"/>
<path fill-rule="evenodd" clip-rule="evenodd" d="M128.02 142.39C123.072 141.913 118.635 141.491 114.331 141.078C110.604 144.861 106.693 148.916 102.973 152.801C107.111 153.58 111.391 154.367 115.898 155.322C119.819 150.903 123.955 146.54 128.02 142.39Z" fill="#0D71C7" fill-opacity="0.15"/>
<path fill-rule="evenodd" clip-rule="evenodd" d="M112.301 140.844C108.088 140.441 104.089 140.196 100.27 139.844C96.7732 143.371 93.0545 147.273 89.6797 150.744C93.3156 151.356 97.1279 151.811 101.034 152.425C104.6 148.705 108.575 144.65 112.303 140.844H112.301Z" fill="#0D71C7" fill-opacity="0.15"/>
<path fill-rule="evenodd" clip-rule="evenodd" d="M98.4002 139.709C94.7142 139.3 91.2697 138.8 87.8122 138.664C84.5636 141.895 81.2366 145.258 77.9531 148.733C81.0516 149.268 84.3503 149.88 87.908 150.54C91.3307 146.887 94.9601 143.23 98.4002 139.709Z" fill="#0D71C7" fill-opacity="0.15"/>
<path fill-rule="evenodd" clip-rule="evenodd" d="M86.2092 138.606C82.9889 138.299 80.0187 138.015 77.0051 137.816C73.8348 140.878 70.6492 144.029 67.8945 146.955C70.5361 147.483 73.3648 148.028 76.4894 148.42C79.6684 145.029 82.8322 141.826 86.2071 138.606H86.2092Z" fill="#0D71C7" fill-opacity="0.15"/>
<path fill-rule="evenodd" clip-rule="evenodd" d="M75.6498 137.716C72.7623 137.422 69.9489 137.234 67.4291 136.961C64.5156 139.796 61.6477 142.719 58.8125 145.543C61.1864 146.1 63.9085 146.383 66.4652 146.76C69.4549 143.801 72.4163 140.778 75.6498 137.718V137.716Z" fill="#0D71C7" fill-opacity="0.15"/>
<path fill-rule="evenodd" clip-rule="evenodd" d="M65.9789 137.004C63.4178 136.777 61.033 136.55 58.7722 136.34C56.296 138.902 53.6871 141.479 51.0586 143.99C53.2193 144.353 55.5105 144.905 57.693 145.392C60.415 142.564 63.1241 139.878 65.9789 137.004Z" fill="#0D71C7" fill-opacity="0.15"/>
<path fill-rule="evenodd" clip-rule="evenodd" d="M57.3857 136.194C55.1967 136.04 53.2406 135.785 51.2366 135.688C48.8496 137.953 46.4517 140.31 44.043 142.701C45.8925 143.043 47.6332 143.456 49.6046 143.781C52.1766 141.264 54.8464 138.691 57.3857 136.192V136.194Z" fill="#0D71C7" fill-opacity="0.15"/>
<path fill-rule="evenodd" clip-rule="evenodd" d="M50.0891 135.483C48.2047 135.256 46.551 135.052 44.7929 134.898C42.5103 137.125 40.2147 139.283 37.9648 141.6C39.5097 141.975 41.1721 142.247 42.8977 142.685C45.252 140.276 47.7064 137.85 50.0912 135.483H50.0891Z" fill="#0D71C7" fill-opacity="0.15"/>
<path fill-rule="evenodd" clip-rule="evenodd" d="M44.0499 134.856C42.4615 134.594 41.1037 134.258 39.6937 133.992C37.631 136.054 35.5029 138.145 33.5859 140.082C34.8306 140.452 36.2493 140.809 37.5592 141.246C39.6959 139.11 41.9349 136.942 44.0499 134.856Z" fill="#0D71C7" fill-opacity="0.15"/>
<path fill-rule="evenodd" clip-rule="evenodd" d="M38.795 133.81C37.5591 133.566 36.2144 133.492 35.0959 133.191C33.142 135.117 31.1749 137.026 29.3711 138.865C30.3785 139.205 31.3903 139.575 32.574 139.893C34.5454 137.963 36.6778 135.963 38.7972 133.81H38.795Z" fill="#0D71C7" fill-opacity="0.15"/>
<path fill-rule="evenodd" clip-rule="evenodd" d="M24.7454 134.969C24.3646 134.645 24.0448 134.14 23.7728 133.781C22.4737 135.155 21.1747 136.365 20.0911 137.581C20.0715 138.179 20.2804 138.707 20.5437 139.217C21.9668 137.808 23.2745 136.462 24.7432 134.969H24.7454Z" fill="#0D71C7" fill-opacity="0.15"/>
<path fill-rule="evenodd" clip-rule="evenodd" d="M50.0781 123.751C53.1853 123.093 56.2382 122.433 59.7436 121.74C60.5682 121.32 61.345 121.128 62.3373 120.758C58.6164 121.667 55.2307 122.387 51.9581 123.16C51.1922 123.677 50.6809 123.439 50.0781 123.751Z" fill="#0D71C7" fill-opacity="0.15"/>
<path fill-rule="evenodd" clip-rule="evenodd" d="M71.2344 120.284C75.6341 119.903 80.086 119.914 84.9318 119.694C85.8413 119.609 86.8684 119.533 87.9302 119.211C82.869 119.694 78.2321 119.585 73.7584 119.854C72.7053 120.245 71.9024 120.105 71.2344 120.286V120.284Z" fill="#0D71C7" fill-opacity="0.15"/>
<path fill-rule="evenodd" clip-rule="evenodd" d="M159.427 129.428C153.815 129.071 148.247 128.871 143.218 128.547C139.188 132.578 135.207 136.679 131.32 140.854C136.292 141.353 141.591 141.836 146.867 142.448C151.028 137.956 155.332 133.498 159.424 129.425L159.427 129.428Z" fill="#0D71C7" fill-opacity="0.15"/>
<path fill-rule="evenodd" clip-rule="evenodd" d="M140.77 128.406C135.748 128.326 130.98 128.224 126.504 128.031C122.873 131.758 118.878 135.659 115.359 139.379C119.594 139.795 124.194 140.117 128.944 140.505C132.791 136.443 136.844 132.338 140.77 128.408V128.406Z" fill="#0D71C7" fill-opacity="0.15"/>
<path fill-rule="evenodd" clip-rule="evenodd" d="M124.35 128.012C119.915 127.903 115.748 127.91 111.638 127.812C108.148 131.134 104.667 134.668 101.285 138.308C105.145 138.518 109.138 138.797 113.301 139.284C116.765 135.581 120.705 131.662 124.352 128.009L124.35 128.012Z" fill="#0D71C7" fill-opacity="0.15"/>
<path fill-rule="evenodd" clip-rule="evenodd" d="M109.722 127.696C105.807 127.616 102.158 127.685 98.6158 127.57C95.2671 130.78 92.0097 133.978 88.8438 137.152C92.1794 137.3 95.6696 137.719 99.4078 138.124C102.815 134.649 106.295 131.059 109.722 127.696Z" fill="#0D71C7" fill-opacity="0.15"/>
<path fill-rule="evenodd" clip-rule="evenodd" d="M96.9102 127.493C93.4004 127.56 90.3454 127.395 87.1446 127.426C83.9896 130.47 80.9215 133.4 77.9492 136.382C80.9019 136.649 83.983 136.9 87.2469 137.103C90.4107 133.872 93.6289 130.817 96.9102 127.493Z" fill="#0D71C7" fill-opacity="0.15"/>
<path fill-rule="evenodd" clip-rule="evenodd" d="M85.6789 127.315C82.5456 127.28 79.706 127.27 76.8708 127.168C73.9638 129.973 71.1525 132.745 68.3281 135.573C70.8609 136.062 73.6091 136.185 76.4856 136.384C79.5711 133.322 82.4672 130.364 85.6811 127.315H85.6789Z" fill="#0D71C7" fill-opacity="0.15"/>
<path fill-rule="evenodd" clip-rule="evenodd" d="M75.546 127.199C72.9001 127.199 70.2107 127.318 67.9173 127.255C65.2626 129.738 62.5427 132.395 59.8555 134.94C62.1641 135.076 64.5402 135.269 67.0491 135.565C69.7624 132.754 72.6934 129.999 75.546 127.199Z" fill="#0D71C7" fill-opacity="0.15"/>
<path fill-rule="evenodd" clip-rule="evenodd" d="M173.485 114.473C167.582 114.535 161.885 114.62 156.563 114.752C152.679 118.643 148.806 122.384 144.98 126.243C150.216 126.418 155.723 126.68 161.252 126.918C165.397 122.733 169.555 118.489 173.485 114.475V114.473Z" fill="#0D71C7" fill-opacity="0.15"/>
<path fill-rule="evenodd" clip-rule="evenodd" d="M154.08 114.93C148.884 114.947 143.856 115.174 139.178 115.328C135.5 118.901 131.797 122.473 128.23 126.022C132.78 125.977 137.657 126.05 142.57 126.278C146.325 122.331 150.164 118.632 154.08 114.93Z" fill="#0D71C7" fill-opacity="0.15"/>
<path fill-rule="evenodd" clip-rule="evenodd" d="M136.81 115.367C132.204 115.458 127.743 115.64 123.531 115.828C120.173 119.055 116.755 122.383 113.332 125.882C117.368 125.91 121.601 125.99 125.965 126.057C129.523 122.456 133.226 118.817 136.808 115.367H136.81Z" fill="#0D71C7" fill-opacity="0.15"/>
<path fill-rule="evenodd" clip-rule="evenodd" d="M121.596 115.848C117.405 116.086 113.787 116.159 109.964 116.376C106.569 119.529 103.488 122.556 100.227 125.707C103.869 125.724 107.575 125.685 111.544 125.763C114.751 122.413 118.176 119.085 121.596 115.848Z" fill="#0D71C7" fill-opacity="0.15"/>
<path fill-rule="evenodd" clip-rule="evenodd" d="M108.005 116.539C104.523 116.606 101.113 116.704 97.7211 116.903C94.5791 119.93 91.572 122.804 88.6562 125.632C91.696 125.786 94.9664 125.807 98.5262 125.73C101.675 122.566 104.825 119.601 108.005 116.539Z" fill="#0D71C7" fill-opacity="0.15"/>
<path fill-rule="evenodd" clip-rule="evenodd" d="M96.0541 116.953C92.7358 117.18 89.8179 117.306 87.0175 117.418C84.0517 120.149 81.0185 122.904 78.3008 125.574C81.0729 125.62 83.9712 125.711 87.1502 125.631C90.0681 122.813 93.023 119.946 96.0541 116.953Z" fill="#0D71C7" fill-opacity="0.15"/>
<path fill-rule="evenodd" clip-rule="evenodd" d="M85.2706 117.75C82.32 117.995 79.7089 118.131 77.0478 118.289C74.3344 120.855 71.497 123.502 68.875 126.151C71.3795 125.958 74.0145 125.923 76.7649 125.811C79.4913 123.249 82.2025 120.689 85.2706 117.752V117.75Z" fill="#0D71C7" fill-opacity="0.15"/>
<path fill-rule="evenodd" clip-rule="evenodd" d="M166.591 102.445C161.188 102.753 156.075 102.963 151.131 103.365C147.467 106.858 143.929 110.238 140.352 113.878C145.23 113.549 150.108 113.514 155.396 113.361C158.988 109.714 162.74 106.074 166.589 102.445H166.591Z" fill="#0D71C7" fill-opacity="0.15"/>
<path fill-rule="evenodd" clip-rule="evenodd" d="M148.657 103.719C143.817 103.939 139.37 104.355 134.883 104.827C131.473 107.962 128.17 111.159 124.789 114.413C129.147 114.05 133.39 114.039 138.104 113.892C141.655 110.421 145.223 106.889 148.657 103.719Z" fill="#0D71C7" fill-opacity="0.15"/>
<path fill-rule="evenodd" clip-rule="evenodd" d="M132.811 105C128.551 105.329 124.602 105.749 120.602 106.182C117.365 109.112 114.238 112.163 110.98 115.223C114.836 114.831 118.622 114.751 122.857 114.439C126.031 111.373 129.406 108.209 132.811 105Z" fill="#0D71C7" fill-opacity="0.15"/>
<path fill-rule="evenodd" clip-rule="evenodd" d="M118.654 106.32C114.885 106.656 111.336 106.859 107.813 107.195C104.771 110.034 101.819 112.84 98.8008 115.719C102.191 115.543 105.535 115.394 109.289 115.225C112.496 112.204 115.468 109.268 118.654 106.32Z" fill="#0D71C7" fill-opacity="0.15"/>
<path fill-rule="evenodd" clip-rule="evenodd" d="M106.064 107.406C102.883 107.616 99.7149 107.917 96.4553 108.378C93.594 110.99 90.7283 113.712 87.9453 116.318C90.9089 116.175 93.9813 115.88 97.1407 115.8C100.22 112.92 103.181 110.189 106.064 107.406Z" fill="#0D71C7" fill-opacity="0.15"/>
<path fill-rule="evenodd" clip-rule="evenodd" d="M86.7181 110.414C83.9199 110.76 81.2391 111.078 78.7782 111.295C76.2498 113.617 73.5516 116.077 70.9492 118.52C73.4232 118.3 75.9712 118.241 78.5127 118.083C81.0955 115.549 83.8872 112.989 86.7181 110.416V110.414Z" fill="#0D71C7" fill-opacity="0.15"/>
<path fill-rule="evenodd" clip-rule="evenodd" d="M77.2671 111.422C74.8693 111.632 72.5824 111.785 70.363 112.065C68.0391 114.302 65.6956 116.393 63.4609 118.578C65.4236 118.55 67.6648 118.39 69.8037 118.323C72.1929 116.096 74.7844 113.67 77.2671 111.422Z" fill="#0D71C7" fill-opacity="0.15"/>
<path fill-rule="evenodd" clip-rule="evenodd" d="M160.744 92.543C155.883 93.1164 151.196 93.6683 146.472 94.2309C143.126 97.3427 139.86 100.359 136.422 103.523C141.057 102.922 145.406 102.66 150.365 102.125C153.753 98.8489 157.274 95.763 160.744 92.543Z" fill="#0D71C7" fill-opacity="0.15"/>
<path fill-rule="evenodd" clip-rule="evenodd" d="M144.304 94.4592C139.976 94.9309 135.628 95.5434 131.496 96.0606C128.43 98.9517 125.236 101.871 122.035 104.864C126.082 104.416 129.99 104.102 134.357 103.738C137.789 100.525 141.066 97.5364 144.304 94.457V94.4592Z" fill="#0D71C7" fill-opacity="0.15"/>
<path fill-rule="evenodd" clip-rule="evenodd" d="M129.519 96.2891C125.676 96.7262 121.907 97.2434 118.043 97.8233C115.099 100.585 112.286 103.112 109.211 105.941C112.729 105.605 116.322 105.322 120.101 105.071C123.241 102.06 126.488 99.072 129.519 96.2891Z" fill="#0D71C7" fill-opacity="0.15"/>
<path fill-rule="evenodd" clip-rule="evenodd" d="M116.361 98.0859C112.949 98.6075 109.539 99.0576 106.301 99.4947C103.488 102.074 100.546 104.662 97.75 107.203C100.962 106.874 104.123 106.528 107.457 106.151C110.54 103.362 113.458 100.722 116.361 98.0859Z" fill="#0D71C7" fill-opacity="0.15"/>
<path fill-rule="evenodd" clip-rule="evenodd" d="M95.8633 101.719C92.9279 102.191 90.2102 102.515 87.6579 102.844C85.0207 105.257 82.3595 107.633 79.8594 110.063C82.3704 109.801 84.9401 109.542 87.7906 109.178C90.443 106.713 93.0846 104.294 95.8633 101.721V101.719Z" fill="#0D71C7" fill-opacity="0.15"/>
<path fill-rule="evenodd" clip-rule="evenodd" d="M85.7665 103.565C83.1685 103.911 80.8533 104.274 78.4924 104.712C76.038 106.897 73.6292 109.061 71.0508 111.39C73.2659 111.1 75.6616 110.918 78.0572 110.719C80.5661 108.321 83.1163 105.947 85.7687 103.562L85.7665 103.565Z" fill="#0D71C7" fill-opacity="0.15"/>
<path fill-rule="evenodd" clip-rule="evenodd" d="M171.175 81.049C166.05 81.8519 161.211 82.5682 156.559 83.371C153.217 86.1496 150.046 89.0061 146.617 92.1352C151.306 91.4189 156.041 90.9082 160.878 90.2828C164.327 87.0974 167.732 84.0743 171.172 81.0469L171.175 81.049Z" fill="#0D71C7" fill-opacity="0.15"/>
<path fill-rule="evenodd" clip-rule="evenodd" d="M154.349 83.6016C149.769 84.3893 145.395 85.0038 141.104 85.7461C138.132 88.5009 135.018 91.1582 131.863 94.045C136.026 93.4434 140.323 92.9154 144.669 92.2554C147.852 89.3643 151.033 86.5468 154.349 83.6016Z" fill="#0D71C7" fill-opacity="0.15"/>
<path fill-rule="evenodd" clip-rule="evenodd" d="M166.215 73.3594C161.556 74.1795 157.091 75.0798 152.726 75.8934C149.586 78.6698 146.516 81.3337 143.441 84.0063C147.56 83.3008 152.032 82.6191 156.723 81.8228C159.822 79.068 163.055 76.2202 166.217 73.3594H166.215Z" fill="#0D71C7" fill-opacity="0.15"/>
<path fill-rule="evenodd" clip-rule="evenodd" d="M216.888 76.2773C210.186 77.2014 203.946 78.0605 198.01 78.6772C194.061 82.0769 190.444 85.5652 186.945 88.8372C192.707 88.3546 198.843 87.6621 205.349 86.9632C209.05 83.4337 212.9 79.8566 216.886 76.2795L216.888 76.2773Z" fill="#0D71C7" fill-opacity="0.15"/>
<path fill-rule="evenodd" clip-rule="evenodd" d="M36.0321 142.24C34.609 141.849 33.3057 141.433 32.061 141.098C30.1288 143.006 28.1313 144.954 26.2383 147.096C27.2 147.596 28.3337 148.198 29.5304 148.743C31.5976 146.659 33.8214 144.38 36.0321 142.24Z" fill="#0D71C7" fill-opacity="0.15"/>
<path fill-rule="evenodd" clip-rule="evenodd" d="M41.364 143.586C39.695 143.194 38.148 142.768 36.6618 142.383C34.3923 144.677 32.2251 146.882 30.1602 148.977C31.3613 149.634 32.6842 150.249 34.129 150.879C36.479 148.442 38.9291 145.949 41.364 143.586Z" fill="#0D71C7" fill-opacity="0.15"/>
<path fill-rule="evenodd" clip-rule="evenodd" d="M47.5596 144.993C45.6448 144.653 43.904 144.181 42.2264 143.703C39.6806 146.276 37.2305 148.713 34.9414 151.093C36.5081 151.6 38.0834 152.195 39.9525 152.666C42.4657 150.1 45.079 147.52 47.5617 144.993H47.5596Z" fill="#0D71C7" fill-opacity="0.15"/>
<path fill-rule="evenodd" clip-rule="evenodd" d="M55.4704 146.57C53.2314 146.087 51.0576 145.576 48.8991 145.234C46.3598 147.751 43.6987 150.573 41.1289 153.237C43.072 153.765 44.9672 154.537 46.9277 155.303C49.7173 152.304 52.6635 149.454 55.4704 146.567V146.57Z" fill="#0D71C7" fill-opacity="0.15"/>
<path fill-rule="evenodd" clip-rule="evenodd" d="M64.0613 147.986C61.4437 147.595 58.8391 147.203 56.6458 146.703C53.7823 149.542 50.8383 152.429 47.9922 155.405C50.2051 156.125 52.5399 156.751 54.9508 157.432C57.836 154.342 60.8736 151.219 64.0613 147.986Z" fill="#0D71C7" fill-opacity="0.15"/>
<path fill-rule="evenodd" clip-rule="evenodd" d="M73.8608 149.858C70.8472 149.392 68.0794 148.869 65.4378 148.312C62.1391 151.658 59.0493 154.872 56.1641 157.916C58.588 158.609 61.2122 159.472 63.906 160.284C67.2895 156.711 70.4185 153.428 73.8608 149.855V149.858Z" fill="#0D71C7" fill-opacity="0.15"/>
<path fill-rule="evenodd" clip-rule="evenodd" d="M84.9255 152.179C81.4984 151.594 78.3151 150.934 75.21 150.305C71.8896 153.832 68.5865 157.227 65.2617 160.737C68.1078 161.664 71.1476 162.566 74.2613 163.475C77.782 159.64 81.4484 155.797 84.9255 152.179Z" fill="#0D71C7" fill-opacity="0.15"/>
<path fill-rule="evenodd" clip-rule="evenodd" d="M98.9244 154.209C94.9903 153.425 91.2238 152.839 87.7206 152.328C84.126 155.907 80.4791 159.824 76.9062 163.648C80.2202 164.438 83.7974 165.288 87.3659 166.466C91.2956 162.155 95.036 158.151 98.9266 154.209H98.9244Z" fill="#0D71C7" fill-opacity="0.15"/>
<path fill-rule="evenodd" clip-rule="evenodd" d="M113.316 156.751C108.883 155.887 104.519 154.911 100.689 154.156C96.7636 158.274 92.7903 162.334 89.0391 166.543C92.8186 167.696 96.818 168.956 101.183 169.986C105.182 165.543 109.214 161.233 113.316 156.753V156.751Z" fill="#0D71C7" fill-opacity="0.15"/>
<path fill-rule="evenodd" clip-rule="evenodd" d="M130.427 159.805C125.294 158.913 120.202 158.141 115.804 156.875C111.664 161.437 107.431 166.037 103.504 170.517C107.869 171.778 112.453 173.062 117.308 174.282C121.747 169.307 125.996 164.598 130.429 159.805H130.427Z" fill="#0D71C7" fill-opacity="0.15"/>
<path fill-rule="evenodd" clip-rule="evenodd" d="M149.812 163.898C143.78 162.653 138.234 161.541 133.02 160.359C128.544 165.272 124.023 170.18 119.605 175.297C125.045 176.801 130.063 178.678 135.82 180.147C140.577 174.683 145.279 169.243 149.812 163.898Z" fill="#0D71C7" fill-opacity="0.15"/>
<path fill-rule="evenodd" clip-rule="evenodd" d="M172.219 169.02C165.165 167.64 158.913 166.335 152.609 164.965C147.905 170.36 143.212 175.852 138.512 181.221C144.398 183.164 150.632 185.066 157.172 187.014C162.347 180.714 167.264 174.792 172.219 169.02Z" fill="#0D71C7" fill-opacity="0.15"/>
<path fill-rule="evenodd" clip-rule="evenodd" d="M405.424 137.833C400.983 134.288 396.635 130.711 392.662 127.445C386.243 131.074 379.852 134.455 373.398 138.287C377 142.041 380.566 145.978 384.876 150.005C391.835 145.898 398.789 141.814 405.421 137.833H405.424Z" fill="#0D71C7" fill-opacity="0.15"/>
<path fill-rule="evenodd" clip-rule="evenodd" d="M187.581 130.556C185.814 128.779 184.089 127.126 182.294 125.711C179.794 127.459 177.189 129.323 174.617 131.095C176.214 132.776 177.722 134.583 179.343 136.615C182.111 134.549 184.872 132.497 187.583 130.556H187.581Z" fill="#0D71C7" fill-opacity="0.15"/>
<path fill-rule="evenodd" clip-rule="evenodd" d="M117.66 64.9223C116.973 63.8749 116.342 62.7842 115.761 61.6914C113.511 63.5503 111.109 65.5628 108.75 67.5234C109.118 68.7807 109.638 69.9298 110.225 71.1611C112.693 69.0901 115.202 66.9846 117.658 64.9223H117.66Z" fill="#0D71C7" fill-opacity="0.15"/>
<path fill-rule="evenodd" clip-rule="evenodd" d="M482.912 246.62C477.362 242.281 472.126 238.124 467.041 234.465C460.42 236.499 453.923 238.908 447.105 241.206C452.049 245.205 456.915 249.526 461.915 254.183C469.026 251.513 476.3 249.106 482.915 246.618L482.912 246.62Z" fill="#0D71C7" fill-opacity="0.15"/>
<path fill-rule="evenodd" clip-rule="evenodd" d="M133.502 78.9963C132.956 78.3969 132.525 77.8126 132.096 77.25C130.634 78.3104 129.163 79.3512 127.742 80.39C128.071 81.0327 128.41 81.7879 128.791 82.4198C130.364 81.2837 131.879 80.1563 133.502 78.9942V78.9963Z" fill="#0D71C7" fill-opacity="0.15"/>
<path fill-rule="evenodd" clip-rule="evenodd" d="M183.89 51.5751C182.571 51.0147 181.323 50.5191 180.087 50.0625C178.222 51.3284 176.359 52.6377 174.453 54.0183C175.493 54.6437 176.636 55.1998 177.935 55.9183C179.876 54.4057 181.884 52.9926 183.89 51.5773V51.5751Z" fill="#0D71C7" fill-opacity="0.15"/>
<path fill-rule="evenodd" clip-rule="evenodd" d="M464.333 102.927C459.107 100.78 454.248 98.9064 449.631 97.1406C443.66 99.6119 438.007 101.979 432.598 104.49C436.769 106.569 441.162 108.699 446.077 111.317C452.388 108.38 458.519 105.468 464.333 102.927Z" fill="#0D71C7" fill-opacity="0.15"/>
<path fill-rule="evenodd" clip-rule="evenodd" d="M162.514 48.2278C161.718 47.8535 161.122 47.3622 160.491 46.9922C158.972 47.9833 157.525 49.1021 156.062 50.1819C156.598 50.6558 157.092 51.2163 157.738 51.6491C159.194 50.539 160.852 49.3639 162.514 48.2278Z" fill="#0D71C7" fill-opacity="0.15"/>
<path fill-rule="evenodd" clip-rule="evenodd" d="M129.288 40.0532C128.866 39.7459 128.405 39.51 127.989 39.2266C126.894 40.0727 125.696 40.9469 124.645 41.7541C125.008 42.083 125.323 42.4163 125.648 42.7972C126.847 41.8948 128.091 40.9751 129.288 40.0532Z" fill="#0D71C7" fill-opacity="0.15"/>
<path fill-rule="evenodd" clip-rule="evenodd" d="M49.0655 123.377C48.8871 122.923 48.6521 122.468 48.5303 122.031C47.6555 122.629 46.8396 123.31 45.9648 123.933C46.0323 124.461 46.1541 124.961 46.276 125.461C47.2617 124.762 48.1386 124.07 49.0655 123.377Z" fill="#0D71C7" fill-opacity="0.15"/>
<path fill-rule="evenodd" clip-rule="evenodd" d="M486.927 173.372C483.206 171.595 480.195 169.918 477.018 168.312C472.353 169.63 467.886 170.823 463.434 172.112C466.164 173.759 469.256 175.679 472.529 177.497C477.405 176.172 482.181 174.731 486.927 173.372Z" fill="#0D71C7" fill-opacity="0.15"/>
<path fill-rule="evenodd" clip-rule="evenodd" d="M213.11 42.9766C211.805 42.5915 210.471 42.3274 209.342 41.9336C207.525 43.1173 205.606 44.3465 203.887 45.4869C204.981 45.9673 206.006 46.3763 207.216 46.8264C209.024 45.5864 211.139 44.2188 213.11 42.9766Z" fill="#0D71C7" fill-opacity="0.15"/>
<path fill-rule="evenodd" clip-rule="evenodd" d="M165.002 13.7135C164.173 13.5598 163.344 13.4278 162.53 13.3867C161.164 14.2523 159.862 15.2413 158.555 16.1891C159.329 16.3233 160.108 16.4704 160.889 16.6414C162.286 15.62 163.644 14.6483 165.002 13.7135Z" fill="#0D71C7" fill-opacity="0.15"/>
<path fill-rule="evenodd" clip-rule="evenodd" d="M144.361 49.5642C143.608 49.3262 142.866 49.1574 142.172 48.9453C141.003 49.7849 139.68 50.7068 138.453 51.5378C139.152 51.7845 139.796 52.0139 140.498 52.2649C141.821 51.3474 143.042 50.4839 144.363 49.5642H144.361Z" fill="#0D71C7" fill-opacity="0.15"/>
<path fill-rule="evenodd" clip-rule="evenodd" d="M17.3754 146.543C17.1621 146.197 17.0033 145.924 16.7879 145.578C16.0981 146.05 15.4105 146.526 14.7773 146.97C14.9318 147.327 15.0319 147.662 15.2473 147.952C15.9393 147.504 16.6878 147.022 17.3754 146.543Z" fill="#0D71C7" fill-opacity="0.15"/>
<path fill-rule="evenodd" clip-rule="evenodd" d="M126.623 68.8682C125.87 68.6215 125.165 68.338 124.473 68.1562C123.372 68.9028 122.162 69.7035 121 70.4479C121.698 70.6946 122.397 70.9543 123.048 71.2486C124.203 70.4631 125.415 69.6732 126.623 68.8682Z" fill="#0D71C7" fill-opacity="0.15"/>
<path fill-rule="evenodd" clip-rule="evenodd" d="M243.749 79.1935C242.115 78.7672 240.548 78.3322 239.042 77.9297C237.06 78.9965 235.13 80.0115 233.039 81.1281C234.586 81.4808 236.105 81.9634 237.622 82.4113C239.593 81.312 241.751 80.2214 243.749 79.1935Z" fill="#0D71C7" fill-opacity="0.15"/>
<path fill-rule="evenodd" clip-rule="evenodd" d="M12.098 139.063C11.8957 138.711 11.6324 138.405 11.4279 138.133C10.7512 138.563 10.1267 139.014 9.5 139.518C9.70236 139.819 9.90907 140.132 10.1114 140.483C10.7947 140 11.4757 139.518 12.098 139.063Z" fill="#0D71C7" fill-opacity="0.15"/>
<path fill-rule="evenodd" clip-rule="evenodd" d="M108.391 85.7698C107.692 85.5253 106.987 85.2028 106.345 84.9453C105.264 85.6659 104.289 86.3259 103.258 87.0292C103.845 87.3019 104.437 87.6092 105.086 87.9381C106.169 87.1894 107.257 86.5359 108.391 85.7676V85.7698Z" fill="#0D71C7" fill-opacity="0.15"/>
<path fill-rule="evenodd" clip-rule="evenodd" d="M117.256 57.1241C116.644 56.9661 116.046 56.9055 115.439 56.793C114.549 57.3989 113.615 58.0762 112.719 58.6454C113.219 58.7536 113.828 58.9094 114.338 59.0825C115.325 58.4008 116.263 57.743 117.256 57.1262V57.1241Z" fill="#0D71C7" fill-opacity="0.15"/>
<path fill-rule="evenodd" clip-rule="evenodd" d="M566.001 213.242C561.035 211.748 555.785 209.976 550.478 208.438C545.563 209.489 540.253 210.238 535.262 211.158C540.034 212.616 545.201 214.326 549.975 216.02C555.552 215.083 560.711 214.22 566.001 213.244V213.242Z" fill="#0D71C7" fill-opacity="0.15"/>
<path fill-rule="evenodd" clip-rule="evenodd" d="M184.402 22.6367C183.307 22.68 182.322 22.6908 181.336 22.6995C180.181 23.4331 178.975 24.1991 177.73 25.0193C178.712 24.9738 179.61 25.0561 180.601 25.0474C181.845 24.2294 183.092 23.4028 184.4 22.6367H184.402Z" fill="#0D71C7" fill-opacity="0.15"/>
<path fill-rule="evenodd" clip-rule="evenodd" d="M25.7209 143.389C25.3858 143.14 25.0507 142.883 24.8309 142.645C24.2065 143.043 23.5232 143.497 22.9531 143.861C23.1729 144.127 23.4492 144.354 23.7256 144.64C24.4088 144.179 25.0377 143.794 25.7209 143.391V143.389Z" fill="#0D71C7" fill-opacity="0.15"/>
<path fill-rule="evenodd" clip-rule="evenodd" d="M320.769 116.866C318.297 116.264 315.649 115.905 313.127 115.359C310.643 116.223 308.382 116.978 306.16 117.865C308.449 118.285 310.928 118.876 313.515 119.467C315.932 118.575 318.415 117.718 320.767 116.866H320.769Z" fill="#0D71C7" fill-opacity="0.15"/>
<path fill-rule="evenodd" clip-rule="evenodd" d="M312.328 161.701C310.098 160.309 307.892 158.924 305.672 157.719C302.565 158.911 299.397 160.313 296.207 161.666C298.272 163.04 300.324 164.38 302.398 165.942C305.855 164.375 309.13 163.062 312.328 161.698V161.701Z" fill="#0D71C7" fill-opacity="0.15"/>
<path fill-rule="evenodd" clip-rule="evenodd" d="M18.6762 154.733C18.463 154.121 18.3085 153.495 18.1518 152.961C17.2793 153.586 16.3458 154.279 15.4102 154.999C15.5037 155.625 15.5995 156.335 15.7474 156.975C16.6874 156.237 17.6818 155.486 18.6762 154.731V154.733Z" fill="#0D71C7" fill-opacity="0.15"/>
<path fill-rule="evenodd" clip-rule="evenodd" d="M258.325 106.332C256.315 105.185 254.461 104.162 252.74 103.164C250.094 104.629 247.337 106.185 244.582 107.769C246.314 108.832 247.861 110.108 249.791 111.205C252.72 109.563 255.516 107.929 258.325 106.332Z" fill="#0D71C7" fill-opacity="0.15"/>
</g>
<defs>
<clipPath id="clip0_1278_46422">
<rect width="566" height="308" fill="white"/>
</clipPath>
</defs>
</svg>
