<svg width="65" height="45" viewBox="0 0 65 45" fill="none" xmlns="http://www.w3.org/2000/svg">
<g clip-path="url(#clip0_1278_32736)">
<path d="M12.7695 0H4.46484V6.34836H12.7695V0Z" fill="#FBBE73"/>
<path d="M4.46069 6.75846e-06C3.27764 6.75846e-06 2.14305 0.470807 1.30651 1.30884C0.469964 2.14687 0 3.28348 0 4.46863L0 6.34836H8.92914V4.46863C8.92914 3.88115 8.8135 3.29943 8.58885 2.75676C8.36419 2.2141 8.03492 1.72114 7.61989 1.30609C7.20485 0.891033 6.71219 0.562039 6.1701 0.337927C5.62801 0.113815 5.04713 -0.00101495 4.46069 6.75846e-06Z" fill="#D3872C"/>
<path d="M64.9996 4.46862V43.0736C64.9996 43.4007 64.9164 43.7223 64.7579 44.0082C64.5994 44.294 64.3707 44.5347 64.0935 44.7073C63.8162 44.88 63.4997 44.9791 63.1736 44.9951C62.8476 45.0111 62.5228 44.9436 62.2301 44.7989L38.8328 33.2388C38.2517 32.9512 37.6123 32.8016 36.9641 32.8016C36.316 32.8016 35.6766 32.9512 35.0955 33.2388L11.6982 44.7989C11.4055 44.9436 11.0807 45.0111 10.7547 44.9951C10.4286 44.9791 10.112 44.88 9.83483 44.7073C9.55761 44.5347 9.32893 44.294 9.17038 44.0082C9.01183 43.7223 8.92866 43.4007 8.92871 43.0736V4.22404e-07H60.5369C61.1229 -0.000254791 61.7032 0.115141 62.2446 0.339596C62.786 0.564051 63.278 0.893167 63.6924 1.30814C64.1068 1.72312 64.4355 2.21582 64.6598 2.75811C64.8841 3.30039 64.9996 3.88163 64.9996 4.46862Z" fill="url(#paint0_linear_1278_32736)"/>
<path d="M23.59 22.5625V12.1325H25.76V16.6405H29.82V12.1325H31.99V22.5625H29.82V18.5305H25.76V22.5625H23.59ZM39.0659 22.7305C38.2819 22.7305 37.5539 22.5952 36.8819 22.3245C36.2099 22.0538 35.6219 21.6758 35.1179 21.1905C34.6233 20.6958 34.2359 20.1218 33.9559 19.4685C33.6759 18.8152 33.5359 18.1058 33.5359 17.3405C33.5359 16.5752 33.6713 15.8658 33.9419 15.2125C34.2219 14.5592 34.6093 13.9898 35.1039 13.5045C35.6079 13.0192 36.1959 12.6412 36.8679 12.3705C37.5399 12.0998 38.2726 11.9645 39.0659 11.9645C39.8593 11.9645 40.5919 12.0998 41.2639 12.3705C41.9359 12.6412 42.5193 13.0192 43.0139 13.5045C43.5179 13.9898 43.9053 14.5592 44.1759 15.2125C44.4559 15.8658 44.5959 16.5752 44.5959 17.3405C44.5959 18.1058 44.4559 18.8152 44.1759 19.4685C43.8959 20.1218 43.5039 20.6958 42.9999 21.1905C42.5053 21.6758 41.9219 22.0538 41.2499 22.3245C40.5779 22.5952 39.8499 22.7305 39.0659 22.7305ZM39.0659 20.7705C39.5419 20.7705 39.9806 20.6865 40.3819 20.5185C40.7926 20.3505 41.1519 20.1172 41.4599 19.8185C41.7679 19.5105 42.0059 19.1465 42.1739 18.7265C42.3419 18.3065 42.4259 17.8445 42.4259 17.3405C42.4259 16.8365 42.3419 16.3792 42.1739 15.9685C42.0059 15.5485 41.7679 15.1845 41.4599 14.8765C41.1519 14.5685 40.7926 14.3352 40.3819 14.1765C39.9806 14.0085 39.5419 13.9245 39.0659 13.9245C38.5899 13.9245 38.1466 14.0085 37.7359 14.1765C37.3346 14.3352 36.9799 14.5685 36.6719 14.8765C36.3639 15.1845 36.1259 15.5485 35.9579 15.9685C35.7899 16.3792 35.7059 16.8365 35.7059 17.3405C35.7059 17.8445 35.7899 18.3065 35.9579 18.7265C36.1259 19.1465 36.3639 19.5105 36.6719 19.8185C36.9799 20.1172 37.3346 20.3505 37.7359 20.5185C38.1466 20.6865 38.5899 20.7705 39.0659 20.7705ZM47.5871 22.5625V14.0225H44.9411V12.1325H52.3611V14.0225H49.7571V22.5625H47.5871Z" fill="white"/>
</g>
<defs>
<linearGradient id="paint0_linear_1278_32736" x1="29.4995" y1="-30" x2="36.9641" y2="44.9974" gradientUnits="userSpaceOnUse">
<stop stop-color="#FBBF76"/>
<stop offset="1" stop-color="#FF8A15"/>
</linearGradient>
<clipPath id="clip0_1278_32736">
<rect width="65" height="45" fill="white"/>
</clipPath>
</defs>
</svg>
