<svg preserveAspectRatio="none" width="100%" height="100%" overflow="visible" style="display: block;" viewBox="0 0 32 32" fill="none" xmlns="http://www.w3.org/2000/svg">
<g id="Group">
<path id="Vector" d="M19.75 20.75C19.75 18.6823 18.0678 17 16 17C13.9323 17 12.25 18.6823 12.25 20.75C12.25 22.8178 13.9323 24.5 16 24.5C18.0678 24.5 19.75 22.8178 19.75 20.75ZM16 22C15.3108 22 14.75 21.4393 14.75 20.75C14.75 20.0608 15.3108 19.5 16 19.5C16.6893 19.5 17.25 20.0608 17.25 20.75C17.25 21.4393 16.6893 22 16 22ZM19.75 3.75C19.75 1.68225 18.0678 0 16 0C13.9323 0 12.25 1.68225 12.25 3.75C12.25 5.81775 13.9323 7.5 16 7.5C18.0678 7.5 19.75 5.81775 19.75 3.75ZM16 5C15.3108 5 14.75 4.43925 14.75 3.75C14.75 3.06075 15.3108 2.5 16 2.5C16.6893 2.5 17.25 3.06075 17.25 3.75C17.25 4.43925 16.6893 5 16 5ZM28.25 12.5H22.1243C21.5436 9.65069 19.0183 7.5 16 7.5C12.9818 7.5 10.4564 9.65069 9.87569 12.5H3.75C1.68225 12.5 0 14.1823 0 16.25V26C0 28.0678 1.68225 29.75 3.75 29.75H7.56637V27.25H3.75C3.06075 27.25 2.5 26.6893 2.5 26V16.25C2.5 15.5608 3.06075 15 3.75 15H28.25C28.9393 15 29.5 15.5608 29.5 16.25V26C29.5 26.6893 28.9393 27.25 28.25 27.25H24.4336V29.75H28.25C30.3178 29.75 32 28.0678 32 26V16.25C32 14.1823 30.3178 12.5 28.25 12.5ZM12.465 12.5C12.981 11.0451 14.3704 10 16 10C17.6296 10 19.0189 11.0451 19.535 12.5H12.465ZM16 24.5C12.5538 24.5 9.75 27.3038 9.75 30.75V32H22.25V30.75C22.25 27.3038 19.4463 24.5 16 24.5ZM12.4642 29.5C12.9801 28.0449 14.3703 27 16 27C17.6297 27 19.0199 28.0449 19.5358 29.5H12.4642Z" fill="url(#paint0_linear_0_9)"/>
</g>
<defs>
<linearGradient id="paint0_linear_0_9" x1="16" y1="32" x2="16" y2="0" gradientUnits="userSpaceOnUse">
<stop stop-color="#0B5393"/>
<stop offset="1" stop-color="#187CD0"/>
</linearGradient>
</defs>
</svg>
