<svg preserveAspectRatio="none" width="100%" height="100%" overflow="visible" style="display: block;" viewBox="0 0 32 32" fill="none" xmlns="http://www.w3.org/2000/svg">
<g id="checklist 1">
<path id="Vector" d="M28.2917 0H3.70831C3.01794 0 2.45831 0.559625 2.45831 1.25V30.75C2.45831 31.4404 3.01794 32 3.70831 32H28.2916C28.982 32 29.5416 31.4404 29.5416 30.75V1.25C29.5417 0.559625 28.9821 0 28.2917 0ZM12.3333 2.5H19.6666V4.91669H12.3333V2.5ZM27.0417 29.5H4.95831V2.5H9.83331V6.16669C9.83331 6.85706 10.3929 7.41669 11.0833 7.41669H20.9166C21.607 7.41669 22.1666 6.85706 22.1666 6.16669V2.5H27.0416V29.5H27.0417ZM22.4911 10.1994C22.9792 9.71125 23.7707 9.71125 24.2589 10.1994C24.747 10.6876 24.747 11.4791 24.2589 11.9672L21.812 14.4141C21.3238 14.9022 20.5323 14.9022 20.0442 14.4141L18.8064 13.1763C18.3183 12.6881 18.3183 11.8967 18.8064 11.4086C19.2946 10.9204 20.0861 10.9204 20.5742 11.4086L20.9281 11.7624L22.4911 10.1994ZM16.0208 12.3068C16.0208 12.9972 15.4612 13.5568 14.7708 13.5568H8.625C7.93462 13.5568 7.375 12.9972 7.375 12.3068C7.375 11.6164 7.93462 11.0568 8.625 11.0568H14.7708C15.4612 11.0568 16.0208 11.6164 16.0208 12.3068ZM24.2588 16.351C24.747 16.8391 24.7471 17.6306 24.2589 18.1187L21.812 20.5657C21.3239 21.0537 20.5321 21.0536 20.0442 20.5657L18.8064 19.3279C18.3183 18.8398 18.3183 18.0483 18.8064 17.5602C19.2946 17.072 20.0861 17.072 20.5742 17.5602L20.9281 17.9141L22.4911 16.351C22.9792 15.8628 23.7707 15.8628 24.2588 16.351ZM16.0208 18.4469C16.0208 19.1372 15.4612 19.6969 14.7708 19.6969H8.625C7.93462 19.6969 7.375 19.1372 7.375 18.4469C7.375 17.7565 7.93462 17.1969 8.625 17.1969H14.7708C15.4612 17.1969 16.0208 17.7565 16.0208 18.4469ZM16.0208 24.5984C16.0208 25.2888 15.4612 25.8484 14.7708 25.8484H8.625C7.93462 25.8484 7.375 25.2888 7.375 24.5984C7.375 23.9081 7.93462 23.3484 8.625 23.3484H14.7708C15.4612 23.3484 16.0208 23.9081 16.0208 24.5984Z" fill="url(#paint0_linear_0_11)"/>
</g>
<defs>
<linearGradient id="paint0_linear_0_11" x1="2.45831" y1="16" x2="29.5417" y2="16" gradientUnits="userSpaceOnUse">
<stop stop-color="#187DD2"/>
<stop offset="1" stop-color="#0A5191"/>
</linearGradient>
</defs>
</svg>
