<svg width="28" height="28" viewBox="0 0 28 28" fill="none" xmlns="http://www.w3.org/2000/svg">
<path fill-rule="evenodd" clip-rule="evenodd" d="M5.33439 3.73438C5.34504 3.73438 5.35571 3.73438 5.36641 3.73438L6.57392 3.73438C7.84609 3.73437 8.85785 3.73436 9.67414 3.80106C10.51 3.86935 11.2228 4.01221 11.8754 4.34474C12.738 4.78425 13.4686 5.43808 13.9997 6.23886C14.5309 5.43808 15.2615 4.78425 16.1241 4.34474C16.7767 4.01221 17.4895 3.86935 18.3254 3.80106C19.1416 3.73436 20.1534 3.73437 21.4256 3.73438L22.6651 3.73438C22.9642 3.73435 23.2423 3.73433 23.4753 3.75337C23.7276 3.77398 24.0082 3.82147 24.2865 3.96326C24.6816 4.1646 25.0029 4.48586 25.2042 4.881C25.346 5.15928 25.3935 5.43985 25.4141 5.69211C25.4331 5.92516 25.4331 6.20319 25.4331 6.50229V19.1665C25.4331 19.4656 25.4331 19.7436 25.4141 19.9766C25.3935 20.2289 25.346 20.5095 25.2042 20.7878C25.0029 21.1829 24.6816 21.5042 24.2865 21.7055C24.0082 21.8473 23.7276 21.8948 23.4753 21.9154C23.2423 21.9344 22.9642 21.9344 22.6651 21.9344L19.1953 21.9344C18.5329 21.9344 18.3138 21.9377 18.109 21.9742C17.9107 22.0096 17.7172 22.0681 17.5326 22.1487C17.342 22.232 17.1578 22.3507 16.6067 22.7181L14.5175 24.111C14.204 24.32 13.7955 24.32 13.482 24.111L11.3928 22.7181C10.8417 22.3507 10.6575 22.232 10.4669 22.1487C10.2823 22.0681 10.0888 22.0096 9.89045 21.9742C9.68568 21.9377 9.46655 21.9344 8.8042 21.9344L5.33441 21.9344C5.03527 21.9344 4.75722 21.9344 4.52414 21.9154C4.27188 21.8948 3.99131 21.8473 3.71303 21.7055C3.31789 21.5042 2.99663 21.1829 2.7953 20.7878C2.6535 20.5095 2.60601 20.2289 2.5854 19.9766C2.56636 19.7436 2.56638 19.4655 2.56641 19.1664L2.56641 6.53438C2.56641 6.52368 2.56641 6.51301 2.56641 6.50236C2.56638 6.20323 2.56636 5.92518 2.5854 5.69211C2.60601 5.43985 2.6535 5.15928 2.7953 4.881C2.99663 4.48586 3.31789 4.1646 3.71303 3.96326C3.99131 3.82147 4.27188 3.77398 4.52414 3.75337C4.75721 3.73433 5.03526 3.73435 5.33439 3.73438ZM23.447 5.63075C23.4342 5.62752 23.3981 5.61995 23.3233 5.61384C23.1756 5.60177 22.9752 5.60105 22.6331 5.60105H21.4664C20.1442 5.60105 19.2087 5.60177 18.4774 5.66153C17.7569 5.72039 17.3171 5.83185 16.9715 6.00795C16.269 6.36588 15.6979 6.93701 15.34 7.63948C15.1639 7.98511 15.0524 8.42487 14.9936 9.14532C14.9338 9.87668 14.9331 10.8122 14.9331 12.1344V21.5904L15.5712 21.165C15.5925 21.1508 15.6136 21.1368 15.6343 21.1229C16.0981 20.8136 16.4252 20.5954 16.7858 20.438C17.1047 20.2988 17.4389 20.1976 17.7815 20.1365C18.1688 20.0675 18.562 20.0676 19.1195 20.0677C19.1444 20.0677 19.1697 20.0677 19.1953 20.0677H22.6331C22.9752 20.0677 23.1756 20.067 23.3233 20.0549C23.3981 20.0488 23.4342 20.0412 23.447 20.038C23.4846 20.017 23.5157 19.9859 23.5367 19.9483C23.5399 19.9355 23.5475 19.8994 23.5536 19.8246C23.5657 19.6769 23.5664 19.4765 23.5664 19.1344V6.53438C23.5664 6.19228 23.5657 5.99184 23.5536 5.84412C23.5475 5.76939 23.5399 5.73322 23.5367 5.72046C23.5157 5.68284 23.4846 5.65179 23.447 5.63075ZM23.5351 19.9539L23.5355 19.9526L23.5351 19.9539ZM13.0664 21.5904V12.1344C13.0664 10.8122 13.0657 9.87668 13.0059 9.14532C12.9471 8.42487 12.8356 7.98511 12.6595 7.63948C12.3016 6.93701 11.7304 6.36588 11.028 6.00795C10.6824 5.83185 10.2426 5.72039 9.52213 5.66153C8.79078 5.60177 7.85527 5.60105 6.53308 5.60105H5.36641C5.02431 5.60105 4.82387 5.60177 4.67615 5.61384C4.60141 5.61995 4.56524 5.62752 4.55248 5.63075C4.51487 5.65179 4.48382 5.68284 4.46278 5.72045C4.45955 5.73321 4.45198 5.76938 4.44587 5.84412C4.4338 5.99184 4.43308 6.19228 4.43308 6.53438V19.1344C4.43308 19.4765 4.4338 19.6769 4.44587 19.8246C4.45198 19.8994 4.45955 19.9355 4.46278 19.9483C4.48382 19.9859 4.51487 20.017 4.55248 20.038C4.56524 20.0412 4.60141 20.0488 4.67615 20.0549C4.82387 20.067 5.02431 20.0677 5.36641 20.0677H8.8042C8.82981 20.0677 8.85507 20.0677 8.88001 20.0677C9.43749 20.0676 9.83071 20.0675 10.218 20.1365C10.5606 20.1976 10.8948 20.2988 11.2137 20.438C11.5743 20.5954 11.9014 20.8136 12.3652 21.1229C12.3859 21.1368 12.4069 21.1508 12.4282 21.165L13.0664 21.5904ZM23.4513 5.63193L23.4526 5.63233L23.4513 5.63193Z" fill="#707070"/>
</svg>
