<svg width="28" height="28" viewBox="0 0 28 28" fill="none" xmlns="http://www.w3.org/2000/svg">
<path d="M4.43263 20.766C4.43263 21.4347 4.43314 21.8809 4.46111 22.2231C4.48819 22.5542 4.53637 22.7059 4.58529 22.8019C4.71951 23.0653 4.93373 23.2795 5.19711 23.4137C5.29313 23.4627 5.4448 23.5108 5.77589 23.5379C6.11815 23.5659 6.56429 23.5664 7.23308 23.5664H20.766C21.4348 23.5664 21.8809 23.5659 22.2232 23.5379C22.5542 23.5108 22.7059 23.4627 22.8019 23.4137C23.0653 23.2795 23.2795 23.0653 23.4137 22.8019C23.4627 22.7059 23.5109 22.5542 23.5379 22.2231C23.5659 21.8809 23.5664 21.4347 23.5664 20.766H4.43263ZM23.5664 13.0664C23.5664 12.3976 23.5659 11.9515 23.5379 11.6092C23.5109 11.2781 23.4627 11.1265 23.4137 11.0304C23.2795 10.7671 23.0653 10.5528 22.8019 10.4186C22.7059 10.3697 22.5542 10.3215 22.2232 10.2944C21.8809 10.2665 21.4348 10.266 20.766 10.266H15.5091L17.168 13.5825L17.2056 13.6691C17.3737 14.1116 17.1823 14.6184 16.7498 14.8346C16.2889 15.0648 15.7282 14.8774 15.4977 14.4165L13.9995 11.4201L12.5013 14.4165C12.2709 14.8774 11.7102 15.0648 11.2492 14.8346C10.7883 14.6042 10.6009 14.0435 10.8311 13.5825L12.4899 10.266H7.23308C6.56429 10.266 6.11815 10.2665 5.77589 10.2944C5.4448 10.3215 5.29313 10.3697 5.19711 10.4186C4.93373 10.5528 4.71951 10.7671 4.58529 11.0304C4.53637 11.1265 4.48819 11.2781 4.46111 11.6092C4.43314 11.9515 4.43263 12.3976 4.43263 13.0664V18.8997H23.5664V13.0664ZM21.2331 6.41618C21.2331 5.89017 21.024 5.38562 20.652 5.01367C20.2801 4.64172 19.7755 4.43262 19.2495 4.43262C17.7269 4.43262 16.6588 5.50721 15.9113 6.86621C15.6169 7.40153 15.397 7.94293 15.238 8.39974H19.2495C19.7755 8.39974 20.2801 8.19063 20.652 7.81869C21.024 7.44674 21.2331 6.94219 21.2331 6.41618ZM6.77621 6.61214C6.82129 7.06619 7.02155 7.49322 7.34701 7.81869C7.71896 8.19063 8.22351 8.39974 8.74952 8.39974H12.7611C12.6021 7.94293 12.3822 7.40153 12.0877 6.86621C11.3403 5.50721 10.2722 4.43262 8.74952 4.43262C8.22351 4.43262 7.71896 4.64172 7.34701 5.01367C6.97507 5.38562 6.76596 5.89017 6.76596 6.41618L6.77621 6.61214ZM23.0993 6.41618C23.0993 7.14107 22.894 7.84421 22.5171 8.44987C22.9119 8.49149 23.2896 8.5718 23.6496 8.75521C24.2641 9.06837 24.764 9.56823 25.0772 10.1828C25.2825 10.5858 25.3619 11.0109 25.3984 11.4577C25.4341 11.8936 25.4326 12.4284 25.4326 13.0664V20.766C25.4326 21.4039 25.4341 21.9388 25.3984 22.3747C25.3619 22.8215 25.2825 23.2465 25.0772 23.6496C24.764 24.2641 24.2641 24.764 23.6496 25.0772C23.2465 25.2825 22.8215 25.3619 22.3747 25.3984C21.9388 25.434 21.4039 25.4326 20.766 25.4326H7.23308C6.59512 25.4326 6.06025 25.434 5.62436 25.3984C5.17755 25.3619 4.75252 25.2825 4.34945 25.0772C3.73491 24.764 3.23505 24.2641 2.92188 23.6496C2.71651 23.2465 2.6371 22.8215 2.60059 22.3747C2.56498 21.9388 2.56641 21.4039 2.56641 20.766V13.0664C2.56641 12.4284 2.56498 11.8936 2.60059 11.4577C2.6371 11.0109 2.71651 10.5858 2.92188 10.1828C3.23505 9.56823 3.73491 9.06838 4.34945 8.75521C4.70907 8.57198 5.08643 8.49153 5.4808 8.44987C5.13734 7.89779 4.93697 7.26435 4.9043 6.60758L4.89975 6.41618C4.89975 5.3951 5.30566 4.41635 6.02768 3.69434C6.74969 2.97232 7.72844 2.56641 8.74952 2.56641L8.9865 2.57096C11.4067 2.68043 12.8938 4.45714 13.7238 5.96615C13.8232 6.14683 13.9145 6.32753 13.9995 6.50505C14.0845 6.32753 14.1759 6.14683 14.2752 5.96615C15.132 4.4085 16.6889 2.56641 19.2495 2.56641C20.2706 2.56641 21.2493 2.97232 21.9714 3.69434C22.6934 4.41635 23.0993 5.3951 23.0993 6.41618Z" fill="#707070"/>
</svg>
