<svg width="1765" height="798" viewBox="0 0 1765 798" fill="none" xmlns="http://www.w3.org/2000/svg">
<g opacity="0.03">
<path d="M17.1632 733.261C128.487 702.254 251.516 685.145 376.75 684.659C429.412 684.461 484.034 687.01 536.866 689.463C659.921 695.203 787.16 701.135 898.826 672.769C995.197 648.291 1071.31 601.688 1131.53 530.313C1182.42 469.974 1215.51 400.044 1247.7 327.692C1301.38 206.988 1399.86 42.8 1634.39 10.6298C1677.46 4.72938 1721 3.95211 1764.72 6.66572L1765 1.50978C1720.5 -1.24512 1676.1 -0.430971 1632.03 5.61344C1393.32 38.3582 1293.62 204.202 1239.41 326.111C1182.57 453.91 1111.84 612.957 895.126 668.012C785.298 695.907 659.109 690.031 537.053 684.334C484.05 681.861 429.238 679.302 376.213 679.512C244.816 680.011 115.817 698.667 0.000871745 732.346L17.1632 733.261Z" fill="#1173BF"/>
<path d="M62.8493 735.696C89.4672 728.597 116.615 722.252 144.183 716.747C216.627 702.341 290.656 693.8 364.188 691.368C417.542 689.528 473.466 690.633 527.562 691.713C550.549 692.172 574.295 692.639 597.76 692.885C706.817 694.035 796.714 690.62 880.959 670.189C975.456 647.187 1051.64 605.396 1113.86 542.438C1175.95 480.063 1216.36 404.969 1248.82 344.642C1276.68 293.147 1303.84 252.121 1334.33 215.521C1418.28 114.108 1521.58 54.9034 1650.12 34.5131C1675.69 30.457 1702.55 27.9612 1729.94 27.0897C1741.16 26.7242 1752.4 26.6603 1763.65 26.8142L1763.92 21.7719C1752.28 21.5969 1740.64 21.6707 1729.02 22.0461C1701.07 22.9296 1673.66 25.4786 1647.55 29.62C1516.69 50.374 1411.76 110.382 1326.76 213.056C1296.09 249.864 1268.78 291.099 1240.8 342.836C1208.46 402.931 1168.2 477.743 1106.57 539.666C1045.24 601.729 970.282 642.88 877.429 665.484C794.461 685.609 705.481 688.98 597.425 687.831C574.047 687.59 550.318 687.113 527.366 686.657C473.097 685.577 416.966 684.461 363.248 686.323C289.008 688.78 214.283 697.397 141.142 711.943C108.601 718.436 76.6541 726.08 45.4631 734.769L62.8493 735.696Z" fill="#106FB8"/>
<path d="M105.383 737.962C116.885 734.958 128.449 732.083 140.091 729.377C209.759 713.268 280.926 702.731 351.607 698.064C406.749 694.423 462.653 693.962 521.839 693.48C540.577 693.328 559.955 693.17 579.2 692.9C673.11 691.605 772.395 688.577 863.073 667.588C958.479 645.349 1036.89 605.852 1102.8 546.832C1163.75 492.25 1205.48 430.625 1249.9 361.558C1281.34 313.134 1311.23 274.139 1343.93 238.849C1435.49 140.007 1540.78 80.9605 1665.85 58.3645C1691.07 53.8129 1717.44 50.68 1744.25 49.0625C1750.35 48.6828 1756.44 48.4065 1762.53 48.1819L1762.79 43.1913C1756.19 43.4194 1749.58 43.7302 1742.96 44.134C1715.65 45.7869 1688.77 48.9758 1663.06 53.6154C1535.99 76.5709 1429.23 136.316 1336.66 236.254C1303.8 271.743 1273.78 310.917 1242.18 359.54C1197.93 428.357 1156.39 489.724 1095.88 543.914C1030.85 602.132 953.615 641.069 859.729 662.954C770.239 683.674 671.751 686.663 578.531 687.953C559.321 688.224 539.978 688.375 521.257 688.527C461.864 689.009 405.77 689.469 350.247 693.131C278.89 697.846 207.063 708.472 136.747 724.733C120.404 728.535 104.165 732.654 88.084 737.029L105.384 737.951L105.383 737.962Z" fill="#106AB0"/>
<path d="M143.652 740C208.509 723.147 274.188 711.281 339.013 704.748C397.157 698.883 457.106 696.711 520.566 694.405C533.815 693.92 547.168 693.44 560.643 692.914C650.492 689.434 752.329 685.485 845.174 664.985C941.768 643.451 1022.4 606.239 1091.71 551.233C1159.99 497.043 1208.32 434.049 1250.95 378.471C1284.88 334.241 1318.43 296.198 1353.47 262.162C1452.74 165.814 1560.05 106.947 1681.55 82.234C1706.4 77.186 1732.3 73.4169 1758.55 71.044C1759.47 70.9583 1760.39 70.8932 1761.31 70.8075L1761.57 65.8479C1760.01 65.9823 1758.45 66.1064 1756.89 66.2511C1730.21 68.6631 1703.85 72.5014 1678.58 77.641C1555.35 102.708 1446.74 162.188 1346.54 259.482C1311.33 293.675 1277.65 331.877 1243.57 376.275C1201.09 431.643 1152.95 494.398 1085.16 548.2C1016.75 602.508 937.194 639.228 841.998 660.453C750.201 680.719 653.329 684.467 559.657 688.095C546.199 688.621 532.864 689.102 519.615 689.577C455.947 691.893 395.79 694.075 337.231 699.969C269.212 706.83 200.281 719.476 132.338 737.552C130.446 738.063 128.571 738.585 126.679 739.105L143.652 740.01L143.652 740Z" fill="#0F66A9"/>
<path d="M176.771 741.767C226.665 728.418 276.017 718.417 326.452 711.437C389.46 702.714 455.959 698.456 526.356 693.949L542.084 692.943C549.948 692.44 557.847 691.939 565.763 691.439C652.437 685.986 742.056 680.339 827.306 662.408C925.088 641.58 1007.95 606.663 1080.63 555.66C1152.71 505.081 1207.77 444.28 1252.01 395.43C1289.38 354.171 1325.7 318.224 1363.05 285.523C1472.06 190.108 1578.26 133.1 1697.26 106.098C1717.65 101.475 1738.73 97.6975 1760.03 94.74L1760.3 89.7184C1737.83 92.7694 1715.61 96.7658 1694.12 101.641C1573.63 128.967 1466.35 186.498 1356.45 282.685C1318.95 315.512 1282.5 351.587 1245.01 392.985C1200.94 441.657 1146.07 502.231 1074.5 552.463C1002.68 602.859 920.824 637.364 824.317 657.917C739.905 675.676 650.736 681.285 564.512 686.719C556.579 687.219 548.681 687.72 540.816 688.223L525.088 689.229C454.449 693.754 387.725 698.021 324.282 706.804C269.031 714.439 215.125 725.658 160.418 740.896L176.771 741.767Z" fill="#0E61A2"/>
<path d="M204.314 743.235C240.904 733 277.186 724.676 313.874 718.103C378.433 706.53 447.011 699.865 523.509 692.948C540.786 691.392 558.646 689.888 575.9 688.446C652.996 681.975 732.727 675.283 809.404 659.817C906.621 640.202 994.137 606.642 1069.52 560.073C1140.3 516.336 1194.51 467.302 1253.04 412.364C1293.88 374.026 1332.99 340.175 1372.62 308.85C1453.28 245.082 1564.87 167.129 1712.98 129.96C1727.78 126.252 1743.09 122.934 1758.69 119.962L1758.95 114.951C1742.11 118.094 1725.59 121.648 1709.65 125.648C1559.96 163.221 1447.56 241.71 1366.35 305.905C1326.61 337.318 1287.39 371.266 1246.45 409.702C1188.14 464.445 1134.14 513.293 1063.83 556.734C989.249 602.806 902.702 636.004 806.584 655.397C730.552 670.742 651.168 677.401 574.419 683.838C557.131 685.29 539.27 686.794 521.941 688.347C445.149 695.289 376.293 701.981 311.281 713.634C270.252 720.99 229.73 730.498 188.752 742.406L204.314 743.235Z" fill="#0E5D9A"/>
<path d="M226.072 744.395C251.261 736.889 276.261 730.367 301.297 724.769C367.041 710.057 438.037 700.785 504.933 692.963C531.059 689.91 557.216 687.253 584.901 684.428C652.906 677.504 723.237 670.342 791.538 657.217C889.768 638.351 979.558 607.139 1058.41 564.465C1134.12 523.488 1194.16 477.138 1254.06 429.288C1298.45 393.822 1340.36 362.049 1382.18 332.176C1475.45 265.516 1589.56 192.195 1728.67 153.82C1738.12 151.215 1747.65 148.802 1757.27 146.485L1757.54 141.412C1746.63 143.991 1735.87 146.712 1725.18 149.656C1584.81 188.388 1470.02 262.108 1376.25 329.125C1334.36 359.066 1292.37 390.887 1247.89 426.42C1188.19 474.105 1128.38 520.281 1053.16 561.014C975.051 603.283 886.122 634.198 788.851 652.877C721.039 665.904 650.969 673.039 583.207 679.934C555.47 682.756 529.279 685.422 503.066 688.48C435.856 696.348 364.513 705.664 298.28 720.484C269.382 726.954 240.558 734.629 211.423 743.614L226.072 744.395Z" fill="#0D5893"/>
<path d="M242.271 745.256C257.852 740.222 273.324 735.606 288.703 731.421C342.481 716.776 403.447 704.918 486.359 692.965C521.186 687.951 556.657 683.832 594.212 679.461C653.15 672.603 714.087 665.51 773.671 654.625C872.88 636.505 964.944 607.653 1047.3 568.854C1129.13 530.317 1194.8 487.137 1255.07 446.198C1304.17 412.859 1347.58 384.036 1391.74 355.48C1496.57 287.705 1610.15 218.148 1744.36 177.678C1748.14 176.533 1751.97 175.452 1755.79 174.35L1756.06 169.204C1750.93 170.661 1745.82 172.14 1740.74 173.672C1605.5 214.46 1491.42 284.311 1386.16 352.354C1341.97 380.928 1298.5 409.78 1249.37 443.148C1189.31 483.943 1123.87 526.97 1042.5 565.293C960.819 603.765 869.509 632.388 771.137 650.355C711.884 661.175 651.138 668.248 592.391 675.085C554.766 679.462 519.226 683.599 484.242 688.635C400.877 700.657 339.527 712.598 285.329 727.356C266.568 732.469 247.706 738.189 228.637 744.54L242.271 745.266L242.271 745.256Z" fill="#0C548C"/>
<path d="M253.236 745.843C260.871 743.152 268.485 740.553 276.092 738.067C330.008 720.507 390.916 706.169 467.749 692.96C511.113 685.521 556.182 679.779 603.892 673.7C653.688 667.36 705.188 660.8 755.787 652.016C855.87 634.658 950.21 608.145 1036.16 573.226C1121.52 538.546 1192.28 499.802 1256.04 463.1C1302.45 436.384 1351.31 408.007 1401.29 378.787L1416.26 370.021C1516.05 311.583 1628.93 245.471 1754.23 203.48L1754.51 198.272C1626.78 240.445 1512.2 307.565 1411.06 366.812L1396.09 375.578C1346.15 404.799 1297.28 433.167 1250.89 459.873C1187.35 496.452 1116.84 535.053 1031.88 569.569C946.516 604.249 852.842 630.58 753.439 647.819C703.066 656.553 651.706 663.1 602.031 669.425C554.199 675.518 509.009 681.274 465.419 688.753C388.08 702.05 326.735 716.488 272.38 734.191C261.786 737.657 251.216 741.311 240.584 745.169L253.236 745.843Z" fill="#0C5084"/>
<path d="M259.691 746.187C260.96 745.695 262.213 745.192 263.481 744.71C317.376 723.989 376.376 707.55 449.174 692.965C500.875 682.623 555.872 675.213 614.088 667.353C654.654 661.879 696.593 656.218 737.955 649.429C838.79 632.846 935.404 608.682 1025.07 577.609C1100.64 551.422 1170.02 522.231 1257.05 480.013C1310.39 454.133 1360.72 428.642 1410.89 402.095C1430.43 391.759 1450.03 381.178 1470.79 369.985C1556.32 323.812 1652.5 271.948 1752.61 233.919L1752.89 228.639C1650.76 266.985 1552.84 319.803 1465.86 366.738C1445.12 377.932 1425.53 388.503 1406.01 398.83C1355.91 425.339 1305.67 450.793 1252.38 476.635C1165.64 518.712 1096.52 547.803 1021.24 573.882C932.073 604.784 836.002 628.812 735.706 645.309C694.518 652.087 652.648 657.731 612.151 663.198C553.763 671.07 498.608 678.513 446.576 688.92C373.255 703.601 313.781 720.181 259.411 741.084C255.604 742.55 251.812 744.047 248.003 745.564L259.691 746.187Z" fill="#0B4B7D"/>
<path d="M262.256 746.324C312.17 724.82 366.025 707.754 430.53 692.966C490.403 679.257 555.709 670.189 624.857 660.591C656.023 656.263 688.25 651.784 720.053 646.837C821.398 631.059 920.269 609.243 1013.91 581.977C1096.72 557.865 1174.29 530.831 1257.98 496.901C1315.02 473.777 1368.16 450.384 1420.4 425.398C1456.29 408.245 1492.73 389.754 1531.31 370.174C1602.58 334.018 1675.89 296.851 1750.93 265.506L1751.21 260.184C1674.39 292.004 1599.46 330.007 1526.68 366.923C1488.13 386.483 1451.72 404.955 1415.92 422.071C1363.8 446.991 1310.81 470.32 1253.89 493.398C1170.45 527.217 1093.14 554.161 1010.6 578.206C917.352 605.357 818.9 627.082 717.972 642.799C686.256 647.74 654.064 652.211 622.95 656.531C553.575 666.169 488.061 675.267 427.751 689.067C359.89 704.63 303.703 722.701 251.497 745.75L262.256 746.324Z" fill="#0A4776"/>
<path d="M261.636 746.291C306.749 724.821 355.172 707.653 411.921 692.958C479.802 675.407 555.91 664.791 636.47 653.563C657.984 650.565 680.246 647.462 702.204 644.228C803.486 629.327 904.614 609.849 1002.78 586.317C1097.31 563.658 1178.71 540.599 1258.95 513.759C1319.48 493.505 1375.42 472.22 1429.97 448.683C1484.41 425.193 1539.86 398.162 1598.56 369.552C1647.99 345.463 1698.63 320.786 1749.19 298.105L1749.48 292.773C1697.31 316.053 1645.08 341.505 1594.14 366.332C1535.51 394.915 1480.13 421.908 1425.83 445.334C1371.48 468.787 1315.73 490 1255.41 510.182C1175.4 536.941 1094.23 559.939 999.963 582.529C902.075 605.994 801.242 625.426 700.24 640.279C678.316 643.504 656.09 646.599 634.593 649.598C553.737 660.873 477.351 671.525 408.944 689.215C349.307 704.656 298.778 722.801 251.618 745.757L261.636 746.291Z" fill="#0A426E"/>
<path d="M258.348 746.115C299.035 724.773 342.746 707.581 393.294 692.96C469.071 671.074 556.558 659.116 649.192 646.459C660.877 644.865 672.615 643.262 684.355 641.629C783.886 627.827 887.272 610.676 991.658 590.656C1103.77 569.152 1184 551.202 1259.91 530.607C1323.88 513.262 1382.63 494.074 1439.53 471.958C1515.6 442.399 1596.03 403.839 1673.82 366.558C1698.09 354.931 1722.76 343.107 1747.41 331.51L1747.69 326.209C1721.52 338.492 1695.31 351.062 1669.53 363.408C1591.85 400.642 1511.54 439.136 1435.73 468.595C1379.09 490.61 1320.6 509.709 1256.91 526.976C1181.23 547.5 1101.21 565.409 989.322 586.863C885.094 606.85 781.864 623.978 682.507 637.749C670.786 639.372 659.065 640.975 647.362 642.569C554.38 655.27 466.563 667.272 390.155 689.343C337.081 704.72 291.473 722.857 248.984 745.616L258.348 746.115Z" fill="#093E67"/>
<path d="M252.857 745.823C289.563 724.683 329.181 707.511 374.634 692.95C458.265 666.198 557.857 653.196 663.29 639.439L666.471 639.028C779.326 624.299 884.108 609.15 980.534 594.985C1089.61 578.945 1173.57 566.157 1260.88 547.445C1328.25 533.006 1389.82 515.937 1449.1 495.244C1546.76 461.146 1647.63 412.9 1745.6 365.483L1745.88 360.255C1646.66 408.279 1544.41 457.394 1445.64 491.868C1386.67 512.454 1325.44 529.437 1258.42 543.791C1171.38 562.435 1087.58 575.211 978.663 591.217C882.289 605.385 777.542 620.526 664.774 635.239L661.593 635.65C555.726 649.467 455.752 662.51 371.365 689.502C323.698 704.794 282.391 722.881 244.13 745.358L252.857 745.823Z" fill="#093A60"/>
<path d="M245.437 745.427C278.488 724.527 314.118 707.692 355.99 692.941C439.308 663.643 541.948 649.489 648.622 636.419C780.595 620.253 885.527 608.106 969.412 599.283C984.984 597.647 1000.31 596.06 1015.47 594.495C1100.92 585.651 1181.66 577.303 1261.87 564.253C1332.62 552.74 1396.99 537.769 1458.67 518.498C1554.32 488.615 1653.38 443.981 1743.77 399.828L1744.04 394.714C1652.7 439.438 1552.3 484.911 1455.53 515.139C1394.23 534.295 1330.25 549.174 1259.9 560.615C1179.97 573.628 1099.38 581.963 1014.06 590.783C998.904 592.348 983.576 593.935 968.004 595.571C884.051 604.391 779.066 616.545 647.041 632.719C539.864 645.844 436.684 660.084 352.592 689.651C308.749 705.106 271.691 722.818 237.295 744.993L245.437 745.427Z" fill="#083558"/>
<path d="M236.676 744.96C266.549 724.399 299.137 707.629 337.329 692.941C415.755 662.813 511.36 647.516 630.772 633.831C746.832 620.526 860.098 610.067 958.341 603.604C985.626 601.805 1012.49 600.201 1038.48 598.643C1115.96 594.007 1189.15 589.618 1262.87 581.072C1336.99 572.474 1404.17 559.621 1468.25 541.774C1563.28 515.307 1658.95 474.483 1741.93 434.287L1742.2 429.317C1658.53 470.046 1561.59 511.653 1465.44 538.432C1401.8 556.158 1335.05 568.931 1261.39 577.47C1187.93 585.989 1114.88 590.364 1037.54 594.997C1011.54 596.555 984.646 598.168 957.326 599.965C858.928 606.44 745.506 616.901 629.307 630.23C509.235 643.994 413.036 659.404 333.835 689.822C293.899 705.185 260.04 722.788 228.998 744.551L236.676 744.96Z" fill="#073151"/>
<path d="M226.709 744.429C253.783 724.226 283.656 707.561 318.65 692.94C404.439 657.132 515.54 641.646 612.923 631.221C727.407 618.972 843.015 610.907 947.271 607.895C982.126 606.893 1016.37 606.262 1049.5 605.665C1123.34 604.316 1193.08 603.049 1263.89 597.861C1341.37 592.188 1411.36 581.443 1477.83 565.029C1569.83 542.307 1660.59 506.174 1740.11 468.529L1740.36 463.735C1660.21 501.916 1568.36 538.737 1475.32 561.714C1409.3 578.017 1339.8 588.685 1262.83 594.323C1192.28 599.494 1122.66 600.757 1048.96 602.103C1015.82 602.71 981.539 603.328 946.632 604.338C842.134 607.348 726.267 615.43 611.556 627.708C513.583 638.195 401.735 653.786 315.08 689.973C278.514 705.256 247.476 722.719 219.393 744.039L226.709 744.429Z" fill="#072C49"/>
<path d="M215.64 743.839C240.244 724.012 267.761 707.491 299.973 692.929C387.956 653.197 503.909 637.69 595.074 628.612C739.728 614.22 860.424 611.732 936.201 612.185C976.463 612.425 1016.02 613.258 1054.3 614.066C1126.71 615.593 1195.11 617.032 1264.93 614.65C1346.87 611.858 1417.57 603.472 1487.44 588.285C1579.32 568.293 1665.59 535.868 1738.29 502.627L1738.53 498.049C1665.39 531.744 1578.16 564.791 1485.19 585.015C1415.86 600.095 1345.65 608.415 1264.27 611.185C1194.71 613.56 1126.44 612.118 1054.16 610.597C1015.86 609.789 976.25 608.963 935.92 608.72C859.901 608.264 738.859 610.755 593.806 625.198C502.033 634.336 385.263 649.966 296.342 690.114C262.733 705.306 234.208 722.603 208.755 743.472L215.64 743.839Z" fill="#062842"/>
<path d="M203.797 743.208C226.221 723.783 251.556 707.404 281.277 692.927C349.845 659.569 443.888 638.304 577.225 626.013C690.63 615.562 814.188 612.169 925.166 616.478C969.492 618.198 1013.17 620.723 1055.4 623.17C1127.68 627.354 1195.99 631.306 1265.98 631.431C1351.31 631.595 1424.72 625.27 1497.02 611.53C1574.96 596.721 1657.07 570.696 1736.5 536.238L1736.73 531.868C1656.61 566.921 1573.69 593.369 1495.07 608.307C1423.31 621.941 1350.42 628.211 1265.68 628.057C1195.95 627.926 1127.78 623.981 1055.62 619.814C1013.33 617.374 969.619 614.837 925.189 613.122C813.832 608.803 689.842 612.204 576.056 622.687C441.747 635.071 346.899 656.542 277.586 690.275C246.625 705.349 220.371 722.456 197.204 742.857L203.797 743.208Z" fill="#05233B"/>
<path d="M191.128 742.533C211.614 723.512 235.057 707.323 262.581 692.936C331.674 656.85 425.985 634.749 559.393 623.415C673.586 613.71 799.603 612.769 914.148 620.76C961.703 624.083 1008.69 628.421 1054.14 632.615C1127.16 639.357 1196.15 645.718 1267.09 648.203C1355.78 651.314 1431.89 647.05 1506.66 634.777C1581.49 622.487 1659.86 599.64 1734.75 569.096L1734.97 564.953C1659.51 596.016 1580.4 619.228 1504.93 631.608C1430.74 643.787 1355.16 648.017 1267.08 644.928C1196.4 642.446 1127.55 636.093 1054.64 629.368C1009.15 625.171 962.101 620.829 914.46 617.503C799.451 609.477 672.967 610.424 558.323 620.167C423.892 631.591 328.74 653.916 258.883 690.407C230.24 705.387 205.984 722.269 184.845 742.198L191.128 742.533Z" fill="#051F33"/>
<path d="M177.907 741.828C196.68 723.224 218.335 707.219 243.868 692.933C312.282 654.687 409.643 631.091 541.544 620.806C656.665 611.824 785.09 613.333 903.131 625.033C953.308 630.008 1003.09 636.205 1051.21 642.199C1125.54 651.456 1195.74 660.202 1268.17 664.964C1360.18 671.019 1439.04 668.807 1516.24 658.012C1588.56 647.888 1662.66 628.388 1733.01 601.685L1733.22 597.748C1662.38 624.902 1587.68 644.722 1514.78 654.919C1438.15 665.641 1359.9 667.843 1268.46 661.819C1196.29 657.071 1126.2 648.341 1052.02 639.103C1003.83 633.104 954.009 626.895 903.712 621.914C785.172 610.166 656.196 608.649 540.589 617.667C407.63 628.041 309.359 651.878 240.179 690.561C213.632 705.404 191.235 722.063 171.9 741.508L177.907 741.828Z" fill="#041B2C"/>
<path d="M164.033 741.089C181.282 722.89 201.405 707.114 225.155 692.941C293.925 651.895 391.589 627.455 523.712 618.208C639.196 609.867 770.045 613.816 892.148 629.318C944.549 635.965 996.684 644.039 1047.12 651.846C1119.84 663.099 1195.02 674.733 1269.31 681.739C1364.69 690.739 1446.23 690.578 1525.9 681.25C1595.23 673.122 1665.12 656.673 1731.31 633.571L1731.51 629.882C1664.92 653.357 1594.49 670.047 1524.64 678.23C1445.57 687.486 1364.58 687.635 1269.82 678.699C1195.77 671.716 1124.06 660.62 1048.13 648.864C997.637 641.054 945.433 632.976 892.93 626.303C770.296 610.731 638.843 606.771 522.839 615.146C389.608 624.469 291.015 649.18 221.46 690.692C195.071 706.445 174.568 723.506 158.335 740.785L164.033 741.089Z" fill="#031625"/>
<path d="M149.814 740.331C164.514 723.965 182.945 707.871 206.441 692.949C274.126 649.938 374.878 623.912 505.88 615.6C622.586 607.987 755.878 614.366 881.183 633.593C935.462 641.916 989.674 651.841 1042.11 661.443C1116.77 675.121 1193.99 689.257 1270.45 698.503C1369.17 710.437 1453.41 712.337 1535.53 704.487C1600.83 698.237 1666.91 684.289 1729.68 664.258L1729.86 660.776C1666.77 681.121 1600.23 695.262 1534.47 701.539C1452.93 709.338 1369.26 707.437 1271.14 695.576C1194.92 686.364 1117.83 672.246 1043.28 658.594C990.793 648.978 936.513 639.039 882.131 630.701C756.261 611.392 622.349 604.98 505.071 612.635C372.926 621.02 271.209 647.327 202.739 690.834C178.366 706.342 159.383 723.06 144.34 740.039L149.814 740.331Z" fill="#03121D"/>
<path d="M135.148 739.549C148.798 723.449 165.918 707.668 187.694 692.955C255.15 647.414 356.191 620.512 488.031 612.991C605.976 606.097 741.71 614.927 870.201 637.857C925.93 647.801 981.823 659.546 1035.87 670.903C1112.88 687.089 1192.52 703.82 1271.58 715.256C1373.19 730.153 1460.12 734.113 1545.16 727.703C1607.1 723.046 1669.11 711.627 1728.05 694.698L1728.23 691.402C1669 708.585 1606.62 720.161 1544.31 724.849C1459.86 731.208 1373.48 727.277 1272.47 712.464C1193.65 701.062 1114.13 684.358 1037.24 668.199C983.142 656.829 927.198 645.081 871.348 635.11C742.276 612.076 605.889 603.201 487.338 610.125C354.32 617.718 252.297 644.92 184.071 690.969C161.472 706.219 143.855 722.595 129.898 739.269L135.148 739.549Z" fill="#020D16"/>
<path d="M119.965 738.74C133.52 721.816 149.705 706.742 168.963 692.961C236.087 644.906 337.434 617.118 470.199 610.382C589.4 604.218 727.576 615.489 859.252 642.133C916.483 653.711 974.058 667.256 1029.76 680.348C1109.11 699.001 1191.15 718.295 1272.76 732.022C1376.02 749.515 1468.28 755.706 1554.81 750.931C1613.23 747.599 1671.24 738.412 1726.47 724.332L1726.64 721.221C1671.19 735.508 1612.86 744.813 1554.13 748.169C1468.17 752.903 1376.47 746.751 1273.76 729.351C1192.37 715.666 1110.45 696.399 1031.22 677.774C975.491 664.669 917.847 651.111 860.497 639.516C728.205 612.746 589.377 601.419 469.552 607.623C335.592 614.43 233.245 642.516 165.35 691.111C145.481 705.346 128.803 720.932 114.938 738.472L119.965 738.74Z" fill="#01090F"/>
<path d="M104.627 737.922C117.178 721.391 132.279 706.58 150.232 692.978C216.955 642.415 318.624 613.753 452.385 607.775C572.513 602.344 713.131 616.067 848.339 646.411C906.471 659.54 965.201 674.731 1021.99 689.415C1104.22 710.677 1189.24 732.669 1273.95 748.789C1382.32 769.465 1474.64 777.536 1564.48 774.17C1619.23 772.052 1673.32 764.894 1724.92 753.397L1725.08 750.463C1673.28 762.115 1618.96 769.374 1563.93 771.488C1474.66 774.833 1382.87 766.811 1275.06 746.237C1190.56 730.17 1105.65 708.204 1023.54 686.969C966.696 672.272 907.915 657.068 849.663 643.912C713.841 613.431 572.536 599.651 451.785 605.111C316.796 611.138 214.143 640.12 146.665 691.244C128.153 705.272 112.647 720.569 99.8248 737.666L104.627 737.922Z" fill="#010407"/>
<path d="M89.204 737.1C100.371 721.593 114.21 706.809 131.467 692.994C284.039 570.836 607.112 593.858 837.391 650.687C897.112 665.424 957.644 682.431 1016.17 698.887C1195.5 749.281 1380.94 801.4 1574.14 797.387C1625 796.337 1675.12 791.019 1723.41 781.791L1723.57 778.763C1675.39 788.184 1624.98 793.755 1573.74 794.817C1381.6 798.803 1196.65 746.824 1017.79 696.559C959.218 680.101 898.653 663.071 838.83 648.308C749.359 626.235 645.996 609.245 543.9 603.804C381.573 595.152 222.506 615.687 127.997 691.369C110.199 705.621 96.0078 720.863 84.6078 736.855L89.204 737.1Z" fill="black"/>
</g>
</svg>
