<svg width="48" height="48" viewBox="0 0 48 48" fill="none" xmlns="http://www.w3.org/2000/svg">
<path d="M0 24C0 10.7452 10.7452 0 24 0C37.2548 0 48 10.7452 48 24C48 37.2548 37.2548 48 24 48C10.7452 48 0 37.2548 0 24Z" fill="#D9E6F2"/>
<path d="M23.8811 31.9336C23.9478 31.9336 24.0144 31.9169 24.0811 31.8836C24.1478 31.8503 24.1978 31.8169 24.2311 31.7836L32.4311 23.5836C32.6311 23.3836 32.7769 23.1586 32.8686 22.9086C32.9603 22.6586 33.0061 22.4086 33.0061 22.1586C33.0061 21.8919 32.9603 21.6378 32.8686 21.3961C32.7769 21.1544 32.6311 20.9419 32.4311 20.7586L28.1811 16.5086C27.9978 16.3086 27.7853 16.1628 27.5436 16.0711C27.3019 15.9794 27.0478 15.9336 26.7811 15.9336C26.5311 15.9336 26.2811 15.9794 26.0311 16.0711C25.7811 16.1628 25.5561 16.3086 25.3561 16.5086L25.0811 16.7836L26.9311 18.6586C27.1811 18.8919 27.3644 19.1586 27.4811 19.4586C27.5978 19.7586 27.6561 20.0753 27.6561 20.4086C27.6561 21.1086 27.4186 21.6961 26.9436 22.1711C26.4686 22.6461 25.8811 22.8836 25.1811 22.8836C24.8478 22.8836 24.5269 22.8253 24.2186 22.7086C23.9103 22.5919 23.6394 22.4169 23.4061 22.1836L21.5311 20.3336L17.1561 24.7086C17.1061 24.7586 17.0686 24.8128 17.0436 24.8711C17.0186 24.9294 17.0061 24.9919 17.0061 25.0586C17.0061 25.1919 17.0561 25.3128 17.1561 25.4211C17.2561 25.5294 17.3728 25.5836 17.5061 25.5836C17.5728 25.5836 17.6394 25.5669 17.7061 25.5336C17.7728 25.5003 17.8228 25.4669 17.8561 25.4336L21.2561 22.0336L22.6561 23.4336L19.2811 26.8336C19.2311 26.8836 19.1936 26.9378 19.1686 26.9961C19.1436 27.0544 19.1311 27.1169 19.1311 27.1836C19.1311 27.3169 19.1811 27.4336 19.2811 27.5336C19.3811 27.6336 19.4978 27.6836 19.6311 27.6836C19.6978 27.6836 19.7644 27.6669 19.8311 27.6336C19.8978 27.6003 19.9478 27.5669 19.9811 27.5336L23.3811 24.1586L24.7811 25.5586L21.4061 28.9586C21.3561 28.9919 21.3186 29.0419 21.2936 29.1086C21.2686 29.1753 21.2561 29.2419 21.2561 29.3086C21.2561 29.4419 21.3061 29.5586 21.4061 29.6586C21.5061 29.7586 21.6228 29.8086 21.7561 29.8086C21.8228 29.8086 21.8853 29.7961 21.9436 29.7711C22.0019 29.7461 22.0561 29.7086 22.1061 29.6586L25.5061 26.2836L26.9061 27.6836L23.5061 31.0836C23.4561 31.1336 23.4186 31.1878 23.3936 31.2461C23.3686 31.3044 23.3561 31.3669 23.3561 31.4336C23.3561 31.5669 23.4103 31.6836 23.5186 31.7836C23.6269 31.8836 23.7478 31.9336 23.8811 31.9336ZM23.8561 33.9336C23.2394 33.9336 22.6936 33.7294 22.2186 33.3211C21.7436 32.9128 21.4644 32.4003 21.3811 31.7836C20.8144 31.7003 20.3394 31.4669 19.9561 31.0836C19.5728 30.7003 19.3394 30.2253 19.2561 29.6586C18.6894 29.5753 18.2186 29.3378 17.8436 28.9461C17.4686 28.5544 17.2394 28.0836 17.1561 27.5336C16.5228 27.4503 16.0061 27.1753 15.6061 26.7086C15.2061 26.2419 15.0061 25.6919 15.0061 25.0586C15.0061 24.7253 15.0686 24.4044 15.1936 24.0961C15.3186 23.7878 15.4978 23.5169 15.7311 23.2836L21.5311 17.5086L24.8061 20.7836C24.8394 20.8336 24.8894 20.8711 24.9561 20.8961C25.0228 20.9211 25.0894 20.9336 25.1561 20.9336C25.3061 20.9336 25.4311 20.8878 25.5311 20.7961C25.6311 20.7044 25.6811 20.5836 25.6811 20.4336C25.6811 20.3669 25.6686 20.3003 25.6436 20.2336C25.6186 20.1669 25.5811 20.1169 25.5311 20.0836L21.9561 16.5086C21.7728 16.3086 21.5603 16.1628 21.3186 16.0711C21.0769 15.9794 20.8228 15.9336 20.5561 15.9336C20.3061 15.9336 20.0561 15.9794 19.8061 16.0711C19.5561 16.1628 19.3311 16.3086 19.1311 16.5086L15.6061 20.0586C15.4561 20.2086 15.3311 20.3836 15.2311 20.5836C15.1311 20.7836 15.0644 20.9836 15.0311 21.1836C14.9978 21.3836 14.9978 21.5878 15.0311 21.7961C15.0644 22.0044 15.1311 22.2003 15.2311 22.3836L13.7811 23.8336C13.4978 23.4503 13.2894 23.0294 13.1561 22.5711C13.0228 22.1128 12.9728 21.6503 13.0061 21.1836C13.0394 20.7169 13.1561 20.2628 13.3561 19.8211C13.5561 19.3794 13.8311 18.9836 14.1811 18.6336L17.7061 15.1086C18.1061 14.7253 18.5519 14.4336 19.0436 14.2336C19.5353 14.0336 20.0394 13.9336 20.5561 13.9336C21.0728 13.9336 21.5769 14.0336 22.0686 14.2336C22.5603 14.4336 22.9978 14.7253 23.3811 15.1086L23.6561 15.3836L23.9311 15.1086C24.3311 14.7253 24.7769 14.4336 25.2686 14.2336C25.7603 14.0336 26.2644 13.9336 26.7811 13.9336C27.2978 13.9336 27.8019 14.0336 28.2936 14.2336C28.7853 14.4336 29.2228 14.7253 29.6061 15.1086L33.8311 19.3336C34.2144 19.7169 34.5061 20.1586 34.7061 20.6586C34.9061 21.1586 35.0061 21.6669 35.0061 22.1836C35.0061 22.7003 34.9061 23.2044 34.7061 23.6961C34.5061 24.1878 34.2144 24.6253 33.8311 25.0086L25.6311 33.1836C25.3978 33.4169 25.1269 33.6003 24.8186 33.7336C24.5103 33.8669 24.1894 33.9336 23.8561 33.9336Z" fill="#002B5B"/>
</svg>
