<svg width="48" height="48" viewBox="0 0 48 48" fill="none" xmlns="http://www.w3.org/2000/svg">
<path d="M0 24C0 10.7452 10.7452 0 24 0C37.2548 0 48 10.7452 48 24C48 37.2548 37.2548 48 24 48C10.7452 48 0 37.2548 0 24Z" fill="#D9E6F2"/>
<path d="M23.9998 15C19.5874 15 15.9998 18.5877 15.9998 23C15.9998 24.5133 16.4215 25.9309 17.1541 27.1387L15.1463 29.1465C15.0823 29.2105 15.0369 29.2907 15.015 29.3785C14.993 29.4663 14.9953 29.5584 15.0215 29.645C15.0478 29.7316 15.097 29.8094 15.1641 29.8702C15.2311 29.931 15.3134 29.9725 15.4021 29.9902L17.574 30.4258L18.0095 32.5977C18.0273 32.6864 18.0687 32.7687 18.1295 32.8357C18.1903 32.9027 18.2682 32.952 18.3548 32.9783C18.4414 33.0045 18.5335 33.0068 18.6213 32.9848C18.7091 32.9628 18.7893 32.9175 18.8533 32.8535L21.2088 30.498C22.0781 30.8226 23.0184 31 23.9998 31C24.9811 31 25.9214 30.8226 26.7908 30.498L29.1463 32.8535C29.2103 32.9175 29.2905 32.9628 29.3783 32.9848C29.466 33.0068 29.5582 33.0045 29.6448 32.9783C29.7314 32.952 29.8092 32.9027 29.87 32.8357C29.9308 32.7687 29.9723 32.6864 29.99 32.5977L30.4256 30.4258L32.5974 29.9902C32.6862 29.9725 32.7684 29.931 32.8355 29.8702C32.9025 29.8094 32.9518 29.7316 32.978 29.645C33.0043 29.5584 33.0066 29.4663 32.9846 29.3785C32.9626 29.2907 32.9172 29.2105 32.8533 29.1465L30.8455 27.1387C31.578 25.9309 31.9998 24.5133 31.9998 23C31.9998 18.5877 28.4121 15 23.9998 15ZM23.9998 16C27.8717 16 30.9998 19.1281 30.9998 23C30.9998 26.8719 27.8717 30 23.9998 30C20.1279 30 16.9998 26.8719 16.9998 23C16.9998 19.1281 20.1279 16 23.9998 16ZM17.7381 27.9688C18.4177 28.8234 19.2667 29.5376 20.2361 30.0566L18.8064 31.4863L18.49 29.9023C18.4707 29.8054 18.4231 29.7164 18.3532 29.6466C18.2833 29.5767 18.1943 29.5291 18.0974 29.5098L16.5134 29.1934L17.7381 27.9688ZM30.2615 27.9688L31.4861 29.1934L29.9021 29.5098C29.8052 29.5291 29.7162 29.5767 29.6463 29.6466C29.5765 29.7164 29.5289 29.8054 29.5095 29.9023L29.1931 31.4863L27.7634 30.0566C28.7328 29.5376 29.5819 28.8234 30.2615 27.9688Z" fill="#002B5B"/>
<path d="M23.9999 18C23.8067 18 23.691 18.083 23.6191 18.1426C23.5471 18.2021 23.5051 18.2575 23.4648 18.3125C23.3841 18.4225 23.32 18.5379 23.2538 18.6699C23.1214 18.9339 22.9863 19.2587 22.8534 19.5859C22.7206 19.9132 22.5909 20.2412 22.4843 20.4883C22.437 20.5978 22.398 20.6834 22.3652 20.748C22.2934 20.7594 22.2 20.772 22.08 20.7832C21.8121 20.8083 21.4596 20.8302 21.1073 20.8555C20.755 20.8807 20.4032 20.9088 20.1112 20.9531C19.9653 20.9753 19.8365 20.9983 19.7069 21.041C19.6422 21.0624 19.5768 21.0867 19.498 21.1367C19.4191 21.1867 19.3038 21.2713 19.2441 21.4551C19.1843 21.6389 19.2292 21.7745 19.2636 21.8613C19.298 21.9481 19.337 22.0052 19.3769 22.0605C19.4566 22.1713 19.5472 22.2674 19.6523 22.3711C19.8624 22.5786 20.1282 22.8077 20.3984 23.0352C20.6685 23.2626 20.9405 23.4863 21.1425 23.6641C21.2327 23.7434 21.3021 23.81 21.3534 23.8613C21.342 23.933 21.3249 24.0239 21.2987 24.1406C21.2398 24.4032 21.1512 24.745 21.0663 25.0879C20.9814 25.4307 20.8995 25.7731 20.8515 26.0645C20.8274 26.2101 20.8099 26.3401 20.8105 26.4766C20.8108 26.5448 20.8146 26.6146 20.8378 26.7051C20.861 26.7955 20.9041 26.9313 21.0605 27.0449C21.2168 27.1585 21.3599 27.1582 21.453 27.1523C21.5462 27.1464 21.6127 27.1282 21.6777 27.1074C21.8076 27.0658 21.9274 27.0093 22.0585 26.9414C22.3208 26.8057 22.62 26.6222 22.9198 26.4355C23.2197 26.2489 23.5184 26.0591 23.7499 25.9219C23.8528 25.8609 23.9353 25.8162 23.9999 25.7832C24.0646 25.8162 24.1471 25.8609 24.2499 25.9219C24.4814 26.0591 24.7801 26.2489 25.08 26.4355C25.3798 26.6222 25.6791 26.8057 25.9413 26.9414C26.0725 27.0093 26.1923 27.0658 26.3222 27.1074C26.3871 27.1282 26.4536 27.1464 26.5468 27.1523C26.64 27.1582 26.783 27.1585 26.9394 27.0449C27.0957 26.9313 27.1388 26.7955 27.162 26.7051C27.1852 26.6146 27.1891 26.5448 27.1894 26.4766C27.19 26.3401 27.1724 26.2101 27.1484 26.0645C27.1003 25.7731 27.0184 25.4307 26.9335 25.0879C26.8486 24.745 26.7601 24.4032 26.7011 24.1406C26.6749 24.0239 26.6578 23.933 26.6464 23.8613C26.6978 23.81 26.7671 23.7434 26.8573 23.6641C27.0594 23.4863 27.3313 23.2626 27.6015 23.0352C27.8717 22.8077 28.1374 22.5786 28.3476 22.3711C28.4526 22.2674 28.5433 22.1713 28.623 22.0605C28.6628 22.0052 28.7018 21.9481 28.7362 21.8613C28.7707 21.7745 28.8155 21.6389 28.7558 21.4551C28.6961 21.2713 28.5807 21.1867 28.5019 21.1367C28.423 21.0867 28.3577 21.0624 28.2929 21.041C28.1633 20.9983 28.0346 20.9753 27.8886 20.9531C27.5966 20.9088 27.2448 20.8807 26.8925 20.8555C26.5402 20.8302 26.1878 20.8083 25.9198 20.7832C25.7998 20.772 25.7064 20.7594 25.6347 20.748C25.6018 20.6834 25.5628 20.5978 25.5155 20.4883C25.4089 20.2412 25.2793 19.9132 25.1464 19.5859C25.0135 19.2587 24.8784 18.9339 24.746 18.6699C24.6798 18.5379 24.6157 18.4225 24.5351 18.3125C24.4947 18.2575 24.4527 18.2021 24.3808 18.1426C24.3089 18.083 24.1932 18 23.9999 18ZM23.9999 19.459C24.0727 19.6244 24.1411 19.7718 24.2187 19.9629C24.3489 20.2836 24.4803 20.6129 24.5976 20.8848C24.6562 21.0207 24.7093 21.1417 24.7655 21.248C24.8218 21.3544 24.8223 21.4337 25.0292 21.584C25.2361 21.7343 25.3111 21.7098 25.4296 21.7305C25.5481 21.7511 25.6787 21.7655 25.8261 21.7793C26.1209 21.8069 26.4769 21.8288 26.8222 21.8535C27.0283 21.8683 27.1889 21.8881 27.3691 21.9062C27.234 22.0268 27.115 22.1364 26.9569 22.2695C26.6922 22.4925 26.4175 22.7185 26.1952 22.9141C26.0841 23.0119 25.986 23.1011 25.9023 23.1875C25.8185 23.2739 25.743 23.2978 25.664 23.541C25.5849 23.7842 25.6333 23.8477 25.6503 23.9668C25.6673 24.0859 25.694 24.2149 25.7265 24.3594C25.7913 24.6482 25.8796 24.9921 25.9628 25.3281C26.0124 25.5286 26.0436 25.6884 26.0819 25.8652C25.9255 25.774 25.7829 25.6952 25.6073 25.5859C25.3135 25.403 25.0144 25.2135 24.7597 25.0625C24.6323 24.987 24.5181 24.9202 24.4101 24.8672C24.302 24.8142 24.2557 24.75 23.9999 24.75C23.7442 24.75 23.6978 24.8142 23.5898 24.8672C23.4817 24.9202 23.3675 24.987 23.2402 25.0625C22.9855 25.2135 22.6863 25.403 22.3925 25.5859C22.217 25.6952 22.0744 25.774 21.9179 25.8652C21.9562 25.6884 21.9874 25.5286 22.037 25.3281C22.1202 24.9921 22.2085 24.6482 22.2734 24.3594C22.3058 24.2149 22.3325 24.0859 22.3495 23.9668C22.3665 23.8477 22.4149 23.7842 22.3359 23.541C22.2568 23.2978 22.1813 23.2739 22.0976 23.1875C22.0138 23.1011 21.9157 23.0118 21.8046 22.9141C21.5823 22.7185 21.3077 22.4925 21.0429 22.2695C20.8848 22.1364 20.7658 22.0268 20.6308 21.9062C20.8109 21.8881 20.9715 21.8683 21.1777 21.8535C21.5229 21.8288 21.879 21.8069 22.1737 21.7793C22.3211 21.7655 22.4517 21.7511 22.5702 21.7305C22.6888 21.7098 22.7637 21.7343 22.9706 21.584C23.1775 21.4337 23.178 21.3544 23.2343 21.248C23.2905 21.1417 23.3436 21.0207 23.4023 20.8848C23.5196 20.6129 23.651 20.2836 23.7812 19.9629C23.8587 19.7718 23.9271 19.6244 23.9999 19.459Z" fill="#002B5B"/>
</svg>
