<svg width="48" height="48" viewBox="0 0 48 48" fill="none" xmlns="http://www.w3.org/2000/svg">
<path d="M0 24C0 10.7452 10.7452 0 24 0C37.2548 0 48 10.7452 48 24C48 37.2548 37.2548 48 24 48C10.7452 48 0 37.2548 0 24Z" fill="#D9E6F2"/>
<g clip-path="url(#clip0_1278_46374)">
<mask id="mask0_1278_46374" style="mask-type:luminance" maskUnits="userSpaceOnUse" x="12" y="12" width="24" height="24">
<path d="M12 12H36V36H12V12Z" fill="white"/>
</mask>
<g mask="url(#mask0_1278_46374)">
<path d="M20.4086 29.8984L17.0814 27.4063C16.1542 26.7119 15.5409 25.6776 15.3764 24.531L15.2305 23.5144" stroke="#002B5B" stroke-width="1.5" stroke-miterlimit="10"/>
<path d="M15.4613 24.9627C15.1144 22.5597 14.4484 19.0504 13.526 19.142C12.1266 19.281 12.936 26.024 12.936 26.024C13.3972 29.2897 19.7344 32.4844 19.7344 35.2969H24.0377V30.2289C23.8505 29.2973 23.403 28.4205 22.4647 27.7177C16.3329 23.5169 16.4208 26.9102 17.6918 27.8622" stroke="#002B5B" stroke-width="1.5" stroke-miterlimit="10"/>
<path d="M27.6289 29.8984L30.9561 27.4063C31.8833 26.7119 32.4589 25.6776 32.6235 24.531L32.7694 23.5144" stroke="#002B5B" stroke-width="1.5" stroke-miterlimit="10"/>
<path d="M24 30.2266C24.1872 29.2949 24.6346 28.4181 25.573 27.7153C31.7048 23.5145 31.6169 26.9079 30.3459 27.8598" stroke="#002B5B" stroke-width="1.5" stroke-miterlimit="10"/>
<path d="M32.5387 24.9627C32.8856 22.5597 33.5516 19.0504 34.474 19.142C35.8734 19.281 35.064 26.024 35.064 26.024C34.6028 29.2897 28.2656 32.4844 28.2656 35.2969H24" stroke="#002B5B" stroke-width="1.5" stroke-miterlimit="10"/>
<path d="M31.0781 16.968C31.0781 20.2445 27.8812 21.0883 24 24.4492C20.4844 21.3977 16.9219 20.3148 16.9219 16.968C16.9219 14.6336 18.8063 12.7023 21.1406 12.7023C22.2938 12.7023 23.3531 13.3773 24 14.4179C24.6469 13.3773 25.7062 12.7023 26.8594 12.7023C29.1937 12.7023 31.0781 14.6336 31.0781 16.968Z" stroke="#002B5B" stroke-width="1.5" stroke-miterlimit="10"/>
<path d="M24 16.2188V20.4844" stroke="#002B5B" stroke-width="1.5" stroke-miterlimit="10"/>
<path d="M21.8906 18.375H26.1094" stroke="#002B5B" stroke-width="1.5" stroke-miterlimit="10"/>
</g>
</g>
<defs>
<clipPath id="clip0_1278_46374">
<rect width="24" height="24" fill="white" transform="translate(12 12)"/>
</clipPath>
</defs>
</svg>
