<svg width="48" height="48" viewBox="0 0 48 48" fill="none" xmlns="http://www.w3.org/2000/svg">
<path d="M0 24C0 10.7452 10.7452 0 24 0C37.2548 0 48 10.7452 48 24C48 37.2548 37.2548 48 24 48C10.7452 48 0 37.2548 0 24Z" fill="#FFEEDA"/>
<mask id="mask0_1278_46258" style="mask-type:luminance" maskUnits="userSpaceOnUse" x="12" y="12" width="24" height="24">
<path d="M36 12H12V36H36V12Z" fill="white"/>
<path d="M30.0938 24.1875C30.0938 23.7992 30.4086 23.4844 30.7969 23.4844C31.1852 23.4844 31.5 23.7992 31.5 24.1875C31.5 24.5758 31.1852 24.8906 30.7969 24.8906C30.4086 24.8906 30.0938 24.5758 30.0938 24.1875Z" fill="white"/>
</mask>
<g mask="url(#mask0_1278_46258)">
<mask id="mask1_1278_46258" style="mask-type:luminance" maskUnits="userSpaceOnUse" x="12" y="12" width="24" height="24">
<path d="M12 12H36V36H12V12Z" fill="white"/>
</mask>
<g mask="url(#mask1_1278_46258)">
<path d="M30.0938 24.1875C30.0938 23.7992 30.4086 23.4844 30.7969 23.4844C31.1852 23.4844 31.5 23.7992 31.5 24.1875C31.5 24.5758 31.1852 24.8906 30.7969 24.8906C30.4086 24.8906 30.0938 24.5758 30.0938 24.1875Z" fill="#EC831F"/>
<path d="M19.3125 22.0781H28.6875" stroke="#EC831F" stroke-width="1.5" stroke-miterlimit="10" stroke-linecap="round" stroke-linejoin="round"/>
<path d="M19.3125 17.3906C19.3125 14.8018 21.4112 12.7031 24 12.7031C26.5888 12.7031 28.6875 14.8018 28.6875 17.3906C28.6875 19.9794 26.5888 22.0781 24 22.0781C21.4112 22.0781 19.3125 19.9794 19.3125 17.3906Z" stroke="#EC831F" stroke-width="1.5" stroke-miterlimit="10" stroke-linecap="round" stroke-linejoin="round"/>
<path d="M24 15.5156V17.3906H22.125" stroke="#EC831F" stroke-width="1.5" stroke-miterlimit="10" stroke-linecap="round" stroke-linejoin="round"/>
<path d="M19.5964 18.9845C16.4808 19.7064 14.1562 22.4929 14.1562 25.8281C14.1562 28.5614 15.7192 30.9249 17.997 32.0883L18.375 35.2969H20.7187L21.4554 32.8594H26.5447L27.2812 35.2969H29.625L30.0029 32.0896C31.446 31.3516 32.6024 30.1328 33.2548 28.6406H34.3594C34.8772 28.6406 35.2969 28.2209 35.2969 27.7031V24.8906C35.2969 24.3728 34.8772 23.9531 34.3594 23.9531H33.2548C33.2548 22.8871 32.5325 21.6833 32.0304 21.1259" stroke="#EC831F" stroke-width="1.5" stroke-miterlimit="10" stroke-linecap="round" stroke-linejoin="round"/>
<path d="M32.0285 21.125L33.8419 17.9841L33.2599 17.865C31.8729 17.5812 30.4599 18.2167 29.7521 19.4428C29.324 19.2449 28.8716 19.0913 28.4023 18.9818" stroke="#EC831F" stroke-width="1.5" stroke-miterlimit="10" stroke-linecap="round" stroke-linejoin="round"/>
<path d="M14.5801 23.4258C13.5067 23.185 12.7031 22.23 12.7031 21.084" stroke="#EC831F" stroke-width="1.5" stroke-miterlimit="10" stroke-linecap="round" stroke-linejoin="round"/>
</g>
</g>
</svg>
