<svg width="48" height="48" viewBox="0 0 48 48" fill="none" xmlns="http://www.w3.org/2000/svg">
<path d="M0 24C0 10.7452 10.7452 0 24 0C37.2548 0 48 10.7452 48 24C48 37.2548 37.2548 48 24 48C10.7452 48 0 37.2548 0 24Z" fill="#D9E6F2"/>
<path d="M20.48 35.5H18.52C18.246 35.5 17.9905 35.392 17.8005 35.195C17.61 34.998 17.5105 34.7375 17.52 34.4625L17.952 22.691C16.4705 22.075 15.5 20.637 15.5 19C15.5 16.3495 17.0585 12.5 19.5 12.5C21.9415 12.5 23.5 16.3495 23.5 19C23.5 20.637 22.5295 22.075 21.048 22.691L21.48 34.462C21.4895 34.738 21.39 34.9985 21.1995 35.1955C21.0095 35.3925 20.754 35.5 20.48 35.5ZM19.5 13.5C17.955 13.5 16.5 16.5985 16.5 19C16.5 20.326 17.349 21.4785 18.612 21.867C18.8285 21.9335 18.973 22.137 18.965 22.363L18.52 34.498L20.48 34.4995L20.035 22.363C20.0265 22.137 20.1715 21.9335 20.388 21.867C21.651 21.4785 22.5 20.326 22.5 19C22.5 16.5985 21.045 13.5 19.5 13.5Z" fill="#002B5B"/>
<path d="M29.9795 35.4995H28.0195C27.7455 35.4995 27.49 35.391 27.3005 35.1945C27.11 34.997 27.0105 34.737 27.02 34.462L27.4575 22.641C27.1195 22.476 26.8025 22.249 26.5265 21.9735C25.865 21.318 25.5 20.439 25.5 19.4995C25.5 19.1485 25.5155 18.807 25.547 18.455L26.002 13.4545C26.027 13.18 26.265 12.9805 26.5455 13.002C26.8205 13.027 27.023 13.2705 26.998 13.5455L26.543 18.5455C26.514 18.867 26.5 19.1795 26.5 19.5C26.5 20.1705 26.76 20.7975 27.232 21.265C27.4965 21.5295 27.8085 21.729 28.135 21.843C28.342 21.9155 28.478 22.114 28.4695 22.3335L28.0195 34.4985L29.9795 34.5L29.53 22.3335C29.522 22.1145 29.6575 21.9155 29.8645 21.843C30.191 21.7285 30.503 21.5295 30.766 21.2665C31.2395 20.7975 31.4995 20.1705 31.4995 19.5C31.4995 19.1795 31.4855 18.867 31.4565 18.5445L31.0015 13.545C30.9765 13.27 31.179 13.0265 31.454 13.0015C31.7285 12.9805 31.9725 13.1795 31.9975 13.454L32.4525 18.454C32.484 18.807 32.4995 19.1485 32.4995 19.4995C32.4995 20.4385 32.1345 21.318 31.4715 21.975C31.1965 22.2495 30.8795 22.476 30.542 22.6415L30.9795 34.4615C30.989 34.7375 30.8895 34.998 30.699 35.195C30.5095 35.3915 30.254 35.5 29.98 35.5L29.9795 35.4995Z" fill="#002B5B"/>
<path d="M29.9997 19.0008C29.7292 19.0008 29.5067 18.7853 29.5002 18.5133L29.3752 13.5133C29.3682 13.2373 29.5862 13.0078 29.8627 13.0013C30.1387 12.9803 30.3682 13.2123 30.3747 13.4888L30.4997 18.4888C30.5067 18.7648 30.2887 18.9943 30.0122 19.0008C30.0082 19.0008 30.0037 19.0008 29.9997 19.0008Z" fill="#002B5B"/>
<path d="M28.0002 19.0008C27.9962 19.0008 27.9917 19.0008 27.9877 19.0008C27.7117 18.9938 27.4932 18.7648 27.5002 18.4888L27.6252 13.4888C27.6322 13.2128 27.8627 12.9808 28.1372 13.0013C28.4132 13.0083 28.6317 13.2373 28.6247 13.5133L28.4997 18.5133C28.4932 18.7848 28.2707 19.0008 28.0002 19.0008Z" fill="#002B5B"/>
</svg>
