<svg width="48" height="48" viewBox="0 0 48 48" fill="none" xmlns="http://www.w3.org/2000/svg">
<path d="M0 24C0 10.7452 10.7452 0 24 0C37.2548 0 48 10.7452 48 24C48 37.2548 37.2548 48 24 48C10.7452 48 0 37.2548 0 24Z" fill="#D9E6F2"/>
<path fill-rule="evenodd" clip-rule="evenodd" d="M23.9992 15.1992C24.4411 15.1992 24.7992 15.5574 24.7992 15.9992V17.1992H25.777C26.8549 17.1992 27.8828 17.6641 28.5972 18.4677C28.8907 18.798 28.8609 19.3036 28.5307 19.5971C28.2005 19.8907 27.6948 19.8609 27.4013 19.5307C26.9888 19.0666 26.3953 18.7992 25.777 18.7992H22.9992C21.7842 18.7992 20.7992 19.7842 20.7992 20.9992C20.7992 22.2142 21.7842 23.1992 22.9992 23.1992H24.9992C27.0979 23.1992 28.7992 24.9005 28.7992 26.9992C28.7992 29.0979 27.0979 30.7992 24.9992 30.7992H24.7992V31.9992C24.7992 32.441 24.4411 32.7992 23.9992 32.7992C23.5574 32.7992 23.1992 32.441 23.1992 31.9992V30.7992H22.2214C21.1435 30.7992 20.1157 30.3344 19.4013 29.5307C19.1078 29.2005 19.1375 28.6948 19.4677 28.4013C19.798 28.1078 20.3036 28.1375 20.5972 28.4677C21.0097 28.9318 21.6032 29.1992 22.2214 29.1992H24.9992C26.2143 29.1992 27.1992 28.2142 27.1992 26.9992C27.1992 25.7842 26.2143 24.7992 24.9992 24.7992H22.9992C20.9005 24.7992 19.1992 23.0979 19.1992 20.9992C19.1992 18.9005 20.9005 17.1992 22.9992 17.1992H23.1992V15.9992C23.1992 15.5574 23.5574 15.1992 23.9992 15.1992Z" fill="#002B5B"/>
</svg>
