<svg width="48" height="48" viewBox="0 0 48 48" fill="none" xmlns="http://www.w3.org/2000/svg">
<path d="M0 24C0 10.7452 10.7452 0 24 0C37.2548 0 48 10.7452 48 24C48 37.2548 37.2548 48 24 48C10.7452 48 0 37.2548 0 24Z" fill="#D9E6F2"/>
<path d="M25.7992 14.9992C25.7992 14.5574 25.4411 14.1992 24.9992 14.1992C24.5574 14.1992 24.1992 14.5574 24.1992 14.9992V15.2961C22.9814 15.4251 22.0326 16.4555 22.0326 17.7076C22.0326 19.0468 23.1183 20.1326 24.4576 20.1326H25.5409C25.9965 20.1326 26.3659 20.5019 26.3659 20.9576C26.3659 21.4132 25.9965 21.7826 25.5409 21.7826H24.0363C23.8067 21.7826 23.5848 21.6829 23.4305 21.5094C23.137 21.1792 22.6313 21.1494 22.3011 21.443C21.9708 21.7365 21.9411 22.2421 22.2346 22.5724C22.6908 23.0855 23.347 23.3826 24.0363 23.3826H24.1992V23.6659C24.1992 24.1077 24.5574 24.4659 24.9992 24.4659C25.4411 24.4659 25.7992 24.1077 25.7992 23.6659V23.369C27.0171 23.24 27.9659 22.2096 27.9659 20.9576C27.9659 19.6183 26.8802 18.5326 25.5409 18.5326H24.4576C24.0019 18.5326 23.6326 18.1632 23.6326 17.7076C23.6326 17.2519 24.0019 16.8826 24.4576 16.8826H25.9622C26.1917 16.8826 26.4137 16.9822 26.568 17.1557C26.8615 17.4859 27.3672 17.5157 27.6974 17.2221C28.0276 16.9286 28.0574 16.423 27.7638 16.0927C27.3077 15.5796 26.6514 15.2826 25.9622 15.2826H25.7992V14.9992Z" fill="#002B5B"/>
<path fill-rule="evenodd" clip-rule="evenodd" d="M14.1992 24.9992C14.1992 24.3733 14.7066 23.8659 15.3326 23.8659H16.6659C17.4025 23.8659 18.0519 24.2392 18.4352 24.8069C18.7628 24.6318 19.137 24.5326 19.5344 24.5326C19.9954 24.5326 20.4461 24.669 20.8297 24.9247L22.9391 26.331C23.1363 26.4624 23.3679 26.5326 23.6048 26.5326H25.6659C26.9031 26.5326 27.9275 27.4434 28.1053 28.631L30.4316 27.634C31.5314 27.1627 32.8037 27.6896 33.2481 28.8007C33.685 29.8928 33.1537 31.1324 32.0616 31.5692L28.6539 32.9323C28.3232 33.0646 27.9703 33.1326 27.6141 33.1326H20.4714C20.0367 33.1326 19.608 33.0313 19.2192 32.8369L18.747 32.6009C18.7027 32.5787 18.6592 32.5555 18.6164 32.5312C18.2845 33.2783 17.536 33.7992 16.6659 33.7992H15.3326C14.7066 33.7992 14.1992 33.2918 14.1992 32.6659V24.9992ZM18.7992 30.0965V26.8677C18.7992 26.4617 19.1284 26.1326 19.5344 26.1326C19.6795 26.1326 19.8214 26.1755 19.9422 26.256L22.0516 27.6623C22.5116 27.9689 23.052 28.1326 23.6048 28.1326H25.6659C26.1445 28.1326 26.5326 28.5206 26.5326 28.9992V29.0326H23.3326C22.8907 29.0326 22.5326 29.3907 22.5326 29.8326C22.5326 30.2744 22.8907 30.6326 23.3326 30.6326H27.4968L31.0618 29.1047C31.3355 28.9874 31.652 29.1185 31.7625 29.3949C31.8712 29.6666 31.7391 29.975 31.4673 30.0837L28.0597 31.4467C27.918 31.5034 27.7667 31.5326 27.6141 31.5326H20.4714C20.2851 31.5326 20.1013 31.4892 19.9347 31.4059L19.4626 31.1698C19.056 30.9665 18.7992 30.551 18.7992 30.0965ZM17.1992 25.9992V31.6659C17.1992 31.9604 16.9604 32.1992 16.6659 32.1992H15.7992V25.4659H16.6659C16.9604 25.4659 17.1992 25.7047 17.1992 25.9992Z" fill="#002B5B"/>
</svg>
