<svg width="48" height="48" viewBox="0 0 48 48" fill="none" xmlns="http://www.w3.org/2000/svg">
<path d="M0 24C0 10.7452 10.7452 0 24 0C37.2548 0 48 10.7452 48 24C48 37.2548 37.2548 48 24 48C10.7452 48 0 37.2548 0 24Z" fill="#FFEEDA"/>
<path d="M33.7993 25.332C33.7993 25.7739 33.4414 26.1328 32.9995 26.1328C32.5577 26.1328 32.1997 25.7739 32.1997 25.332V21.9814L25.8609 28.5547C25.7102 28.7108 25.5026 28.7987 25.2857 28.7988C25.0686 28.7988 24.8602 28.7109 24.7095 28.5547L20.1421 23.8174L15.5757 28.5547C15.269 28.8727 14.7619 28.8819 14.4439 28.5752C14.1259 28.2685 14.1167 27.7614 14.4234 27.4434L19.5669 22.1104L19.6255 22.0547C19.7692 21.9331 19.9522 21.8653 20.1421 21.8652C20.3593 21.8652 20.5675 21.954 20.7183 22.1104L25.2847 26.8457L31.1167 20.7988H27.8569C27.4151 20.7988 27.0571 20.4409 27.0571 19.999C27.0571 19.5572 27.4151 19.1992 27.8569 19.1992H32.9995L33.0816 19.2031C33.4849 19.2442 33.7993 19.5849 33.7993 19.999V25.332Z" fill="#EC831F"/>
</svg>
