<svg width="48" height="48" viewBox="0 0 48 48" fill="none" xmlns="http://www.w3.org/2000/svg">
<path d="M0 24C0 10.7452 10.7452 0 24 0C37.2548 0 48 10.7452 48 24C48 37.2548 37.2548 48 24 48C10.7452 48 0 37.2548 0 24Z" fill="#FFEEDA"/>
<path d="M23 30H25M21.2 33H26.8C27.9201 33 28.4802 33 28.908 32.782C29.2843 32.5903 29.5903 32.2843 29.782 31.908C30 31.4802 30 30.9201 30 29.8V18.2C30 17.0799 30 16.5198 29.782 16.092C29.5903 15.7157 29.2843 15.4097 28.908 15.218C28.4802 15 27.9201 15 26.8 15H21.2C20.0799 15 19.5198 15 19.092 15.218C18.7157 15.4097 18.4097 15.7157 18.218 16.092C18 16.5198 18 17.0799 18 18.2V29.8C18 30.9201 18 31.4802 18.218 31.908C18.4097 32.2843 18.7157 32.5903 19.092 32.782C19.5198 33 20.0799 33 21.2 33Z" stroke="#EC831F" stroke-width="2" stroke-linecap="round" stroke-linejoin="round"/>
</svg>
