<svg width="48" height="48" viewBox="0 0 48 48" fill="none" xmlns="http://www.w3.org/2000/svg">
<path d="M0 24C0 10.7452 10.7452 0 24 0C37.2548 0 48 10.7452 48 24C48 37.2548 37.2548 48 24 48C10.7452 48 0 37.2548 0 24Z" fill="#FFEEDA"/>
<path fill-rule="evenodd" clip-rule="evenodd" d="M23.9992 15.7992C19.4705 15.7992 15.7992 19.4705 15.7992 23.9992C15.7992 28.528 19.4705 32.1992 23.9992 32.1992C28.528 32.1992 32.1992 28.528 32.1992 23.9992C32.1992 19.4705 28.528 15.7992 23.9992 15.7992ZM14.1992 23.9992C14.1992 18.5868 18.5868 14.1992 23.9992 14.1992C29.4116 14.1992 33.7992 18.5868 33.7992 23.9992C33.7992 29.4116 29.4116 33.7992 23.9992 33.7992C18.5868 33.7992 14.1992 29.4116 14.1992 23.9992ZM23.9992 18.1992C24.441 18.1992 24.7992 18.5574 24.7992 18.9992V23.5463L26.9108 24.8132C27.2897 25.0405 27.4125 25.532 27.1852 25.9108C26.9579 26.2897 26.4665 26.4125 26.0876 26.1852L23.5876 24.6852C23.3467 24.5406 23.1992 24.2802 23.1992 23.9992V18.9992C23.1992 18.5574 23.5574 18.1992 23.9992 18.1992Z" fill="#EC831F"/>
</svg>
