<svg width="48" height="48" viewBox="0 0 48 48" fill="none" xmlns="http://www.w3.org/2000/svg">
<path d="M0 24C0 10.7452 10.7452 0 24 0C37.2548 0 48 10.7452 48 24C48 37.2548 37.2548 48 24 48C10.7452 48 0 37.2548 0 24Z" fill="#D9E6F2"/>
<path fill-rule="evenodd" clip-rule="evenodd" d="M14.3822 34.7436C13.9762 34.8226 13.5822 34.5576 13.5022 34.1516C13.4232 33.7456 13.6882 33.3506 14.0942 33.2716C14.0942 33.2716 21.4022 31.8126 26.6052 23.6056C26.8262 23.2566 27.2902 23.1526 27.6402 23.3746C27.9892 23.5956 28.0932 24.0596 27.8722 24.4096C22.2792 33.2306 14.3822 34.7436 14.3822 34.7436Z" fill="#002B5B"/>
<path fill-rule="evenodd" clip-rule="evenodd" d="M21.5658 21.1726C21.7528 21.5416 21.6058 21.9936 21.2368 22.1816C20.8678 22.3686 20.4158 22.2216 20.2278 21.8526C19.7828 20.9756 19.3748 20.0476 19.0248 19.0736C18.8848 18.6836 19.0878 18.2546 19.4778 18.1146C19.8668 17.9746 20.2968 18.1776 20.4368 18.5666C20.7648 19.4806 21.1478 20.3506 21.5658 21.1726Z" fill="#002B5B"/>
<path fill-rule="evenodd" clip-rule="evenodd" d="M33.9618 15.8172C33.9618 15.8172 34.8868 19.3082 34.3338 23.2052C33.9568 25.8632 32.8938 28.6982 30.4478 30.7882C27.8808 32.9822 23.7528 34.3812 17.1658 33.7552C16.8018 33.7202 16.5148 33.4272 16.4888 33.0622C16.4888 33.0622 15.9078 24.8792 21.7158 19.5902C24.1918 17.3342 27.8298 15.5882 33.1908 15.2592C33.5478 15.2372 33.8708 15.4712 33.9618 15.8172ZM32.6448 16.8042C28.0658 17.1972 24.9018 18.7172 22.7258 20.6992C18.3738 24.6622 17.9748 30.4162 17.9698 32.3182C23.6108 32.7462 27.2138 31.5792 29.4738 29.6482C31.6148 27.8182 32.5178 25.3222 32.8488 22.9942C33.2248 20.3452 32.8608 17.8992 32.6448 16.8042Z" fill="#002B5B"/>
<path fill-rule="evenodd" clip-rule="evenodd" d="M24.9893 18.0473C25.2443 18.3733 25.1873 18.8443 24.8623 19.1003C24.5363 19.3563 24.0643 19.2993 23.8093 18.9733C22.5203 17.3313 20.5333 15.8683 17.5313 14.8933C17.2233 15.6163 16.7233 16.9663 16.4923 18.5613C16.1583 20.8713 16.3843 23.7223 18.7413 25.8453C19.0493 26.1223 19.0733 26.5963 18.7963 26.9043C18.5193 27.2123 18.0453 27.2363 17.7373 26.9593C14.9443 24.4433 14.6123 21.0853 15.0083 18.3463C15.3923 15.6873 16.4583 13.6393 16.4583 13.6393C16.6223 13.3213 16.9883 13.1643 17.3323 13.2643C21.0613 14.3433 23.4583 16.0963 24.9893 18.0473Z" fill="#002B5B"/>
</svg>
