<svg width="60" height="60" viewBox="0 0 60 60" fill="none" xmlns="http://www.w3.org/2000/svg">
<g clip-path="url(#clip0_1278_44349)">
<path d="M30 60C46.5685 60 60 46.5685 60 30C60 13.4315 46.5685 0 30 0C13.4315 0 0 13.4315 0 30C0 46.5685 13.4315 60 30 60Z" fill="#60B0FF"/>
<path d="M59.9132 32.3205L37.3037 9.71094L22.8949 22.9832L30.0689 30.1572L10.7305 44.3412L26.1444 59.7552C27.4073 59.9173 28.6947 60.0009 30.0016 60.0009C45.7897 60.0009 58.7292 47.8051 59.9132 32.3205Z" fill="#4190DD"/>
<path d="M31.7596 29.1321V22.9844H28.2439V29.1321L18.8086 36.331L20.9412 39.126L30.0018 32.213L39.0623 39.126L41.1949 36.331L31.7596 29.1321Z" fill="#E4F2FF"/>
<path d="M30.0004 32.213L39.061 39.126L41.1936 36.331L31.7582 29.1321V22.9844H29.9922L30.0004 32.213Z" fill="#B2CEE7"/>
<path d="M39.7959 16.2417C39.7959 10.8313 35.41 6.44531 29.9995 6.44531C24.5891 6.44531 20.2031 10.8313 20.2031 16.2417C20.2031 18.8543 21.2259 21.2278 22.8928 22.9842H37.1062C38.7731 21.2278 39.7959 18.8543 39.7959 16.2417Z" fill="white"/>
<path d="M39.7968 16.2417C39.7968 10.8313 35.4108 6.44531 30.0004 6.44531C29.9976 6.44531 29.9949 6.44555 29.9922 6.44555V22.9842H37.1071C38.774 21.2278 39.7968 18.8543 39.7968 16.2417Z" fill="#E9EDF5"/>
<path d="M29.9998 17.4372C32.2671 17.4372 34.1052 15.5992 34.1052 13.3319C34.1052 11.0646 32.2671 9.22656 29.9998 9.22656C27.7325 9.22656 25.8945 11.0646 25.8945 13.3319C25.8945 15.5992 27.7325 17.4372 29.9998 17.4372Z" fill="#FFC268"/>
<path d="M30.0004 9.22656C29.9976 9.22656 29.9949 9.2268 29.9922 9.2268V17.4371C29.995 17.4371 29.9977 17.4373 30.0004 17.4373C32.2677 17.4373 34.1057 15.5992 34.1057 13.332C34.1057 11.0648 32.2677 9.22656 30.0004 9.22656Z" fill="#EEA333"/>
<path d="M30.0013 26.0387C32.9027 26.0387 35.5096 24.7773 37.3034 22.773C35.8669 20.2248 33.135 18.5039 30.0013 18.5039C26.8676 18.5039 24.1357 20.2248 22.6992 22.773C24.493 24.7773 27.0998 26.0387 30.0013 26.0387Z" fill="#FFC268"/>
<path d="M30.0004 18.5039C29.9976 18.5039 29.9949 18.504 29.9922 18.504V26.0386C29.995 26.0386 29.9977 26.0387 30.0004 26.0387C32.9018 26.0387 35.5087 24.7773 37.3025 22.773C35.866 20.2248 33.1341 18.5039 30.0004 18.5039Z" fill="#EEA333"/>
<path d="M51.7647 37.812C51.7647 32.4016 47.3787 28.0156 41.9683 28.0156C36.5578 28.0156 32.1719 32.4016 32.1719 37.812C32.1719 40.4246 33.1947 42.7981 34.8616 44.5545H49.075C50.7419 42.7982 51.7647 40.4246 51.7647 37.812Z" fill="#E9EDF5"/>
<path d="M41.9686 39.0075C44.2359 39.0075 46.0739 37.1695 46.0739 34.9022C46.0739 32.6349 44.2359 30.7969 41.9686 30.7969C39.7013 30.7969 37.8633 32.6349 37.8633 34.9022C37.8633 37.1695 39.7013 39.0075 41.9686 39.0075Z" fill="#EEA333"/>
<path d="M41.97 47.609C44.8715 47.609 47.4783 46.3476 49.2721 44.3434C47.8356 41.7951 45.1037 40.0742 41.97 40.0742C38.8363 40.0742 36.1045 41.7951 34.668 44.3434C36.4616 46.3476 39.0685 47.609 41.97 47.609Z" fill="#EEA333"/>
<path d="M27.8272 37.812C27.8272 32.4016 23.4412 28.0156 18.0308 28.0156C12.6204 28.0156 8.23438 32.4016 8.23438 37.812C8.23438 40.4246 9.25719 42.7981 10.9241 44.5545H25.1375C26.8043 42.7982 27.8272 40.4246 27.8272 37.812Z" fill="white"/>
<path d="M18.0311 39.0075C20.2984 39.0075 22.1364 37.1695 22.1364 34.9022C22.1364 32.6349 20.2984 30.7969 18.0311 30.7969C15.7638 30.7969 13.9258 32.6349 13.9258 34.9022C13.9258 37.1695 15.7638 39.0075 18.0311 39.0075Z" fill="#FFD29A"/>
<path d="M18.0325 47.609C20.934 47.609 23.5408 46.3476 25.3346 44.3434C23.8981 41.7951 21.1662 40.0742 18.0325 40.0742C14.8988 40.0742 12.167 41.7951 10.7305 44.3434C12.5243 46.3476 15.1311 47.609 18.0325 47.609Z" fill="#FFD29A"/>
</g>
<defs>
<clipPath id="clip0_1278_44349">
<rect width="60" height="60" fill="white"/>
</clipPath>
</defs>
</svg>
