<svg width="986" height="653" viewBox="0 0 986 653" fill="none" xmlns="http://www.w3.org/2000/svg">
<g opacity="0.03">
<path d="M9.11038 579.68C70.4062 555.686 137.131 543.25 204.048 544.486C232.187 545.011 261.209 547.816 289.282 550.519C354.666 556.837 422.274 563.366 483.596 541.543C536.519 522.711 579.931 485.457 616.324 427.664C647.083 378.807 668.901 321.846 690.378 262.886C726.203 164.522 788.532 31.055 915.698 7.71365C939.054 3.43337 962.357 3.36385 985.547 6.16173L986 1.93377C962.398 -0.908102 938.631 -0.819674 914.736 3.56584C785.298 27.324 722.224 162.134 686.045 261.48C648.114 365.625 600.915 495.235 481.902 537.591C421.589 559.051 354.539 552.581 289.686 546.312C261.523 543.59 232.399 540.775 204.066 540.255C133.856 538.949 63.8519 552.576 -0.00191348 578.705L9.11038 579.68Z" fill="#1173BF"/>
<path d="M33.3673 582.275C48.0047 576.796 62.8803 571.943 77.9311 567.786C117.477 556.907 157.523 550.865 196.941 549.828C225.546 549.014 255.35 550.652 284.179 552.244C296.43 552.921 309.085 553.615 321.603 554.122C379.783 556.49 428 554.86 474.206 539.193C526.04 521.547 569.206 488.243 606.169 437.384C643.027 387.003 669.059 325.899 689.97 276.811C707.903 234.912 724.843 201.596 743.295 171.955C794.143 89.819 852.823 42.5773 922.685 27.5205C936.585 24.5254 951.077 22.8277 965.758 22.47C971.774 22.3166 977.782 22.4108 983.78 22.684L984.222 18.5492C978.014 18.2535 971.793 18.1622 965.564 18.3186C950.587 18.6789 935.795 20.4131 921.602 23.4711C850.482 38.7962 790.883 86.6765 739.399 169.833C720.837 199.642 703.805 233.128 685.795 275.225C664.96 324.124 639.026 384.998 602.439 435.014C566.005 485.15 523.532 517.945 472.599 535.284C427.093 550.718 379.369 552.323 321.723 549.97C309.251 549.467 296.606 548.766 284.374 548.092C255.453 546.498 225.539 544.849 196.738 545.676C156.94 546.723 116.519 552.82 76.5915 563.803C58.8262 568.707 41.3104 574.563 24.1362 581.288L33.3673 582.275Z" fill="#106FB8"/>
<path d="M55.9502 584.694C62.2713 582.379 68.6181 580.17 74.9961 578.101C113.161 565.79 151.796 558.071 189.824 555.163C219.491 552.895 249.377 553.246 281.017 553.623C291.034 553.743 301.393 553.866 311.688 553.896C361.923 554.059 415.131 552.87 464.807 536.828C517.081 519.821 561.299 488.429 600.001 440.85C635.788 396.85 661.727 346.817 689.545 290.712C709.209 251.38 727.484 219.767 747.038 191.23C801.8 111.303 861.536 64.2174 929.673 47.3049C943.414 43.8986 957.685 41.6717 972.1 40.6941C975.378 40.4621 978.648 40.3148 981.913 40.2099L982.351 36.1175C978.809 36.2185 975.26 36.3873 971.702 36.6323C957.017 37.6324 942.473 39.8988 928.467 43.3709C859.238 60.5522 798.675 108.192 743.31 189.005C723.656 217.703 705.301 249.462 685.546 288.956C657.832 344.858 632.008 394.68 596.477 438.365C558.297 485.297 514.737 516.245 463.295 532.981C414.27 548.818 361.49 549.985 311.625 549.827C301.348 549.799 291.008 549.67 281 549.551C249.249 549.171 219.262 548.817 189.39 551.097C150.998 554.035 112.005 561.818 73.4857 574.246C64.5313 577.153 55.6137 580.322 46.7657 583.703L55.9511 584.685L55.9502 584.694Z" fill="#106AB0"/>
<path d="M76.2701 586.864C111.909 573.879 147.692 564.998 182.703 560.482C214.105 556.428 246.252 555.428 280.284 554.364C287.389 554.138 294.549 553.918 301.778 553.663C349.973 551.98 404.598 550.068 455.402 534.455C508.27 518.043 553.541 488.555 593.818 444.315C633.498 400.731 663.042 349.662 689.106 304.604C709.849 268.747 730.023 237.963 750.757 210.486C809.487 132.707 870.285 85.7944 936.644 67.0977C950.217 63.2792 964.276 60.524 978.435 58.9191C978.931 58.8608 979.425 58.8194 979.921 58.761L980.356 54.6941C979.515 54.784 978.674 54.8654 977.832 54.9638C963.439 56.5951 949.134 59.4012 935.332 63.2895C868.03 82.2537 806.495 129.653 747.212 208.196C726.381 235.799 706.129 266.712 685.297 302.706C659.326 347.593 629.894 398.469 590.497 441.74C550.743 485.419 506.077 514.518 453.974 530.694C403.744 546.129 351.782 547.94 301.536 549.695C294.317 549.952 287.166 550.172 280.062 550.389C245.919 551.459 213.66 552.464 182.034 556.537C145.298 561.28 107.732 570.759 70.3718 584.707C69.3313 585.102 68.2989 585.505 67.2574 585.908L76.2692 586.872L76.2701 586.864Z" fill="#0F66A9"/>
<path d="M93.854 588.746C121.293 578.44 148.245 570.877 175.596 565.807C209.766 559.47 245.536 556.843 283.402 554.064L291.863 553.443C296.093 553.133 300.341 552.825 304.599 552.518C351.215 549.174 399.415 545.709 446.011 532.106C499.471 516.288 545.795 488.713 587.639 447.803C629.132 407.232 662.144 358.051 688.668 318.536C711.069 285.161 732.599 256.133 754.488 229.782C818.364 152.896 878.465 107.495 943.623 86.8872C954.789 83.3596 966.267 80.534 977.821 78.3849L978.262 74.267C966.082 76.4778 953.975 79.4676 942.207 83.1878C876.236 104.043 815.527 149.859 751.132 227.367C729.158 253.819 707.553 282.951 685.075 316.437C658.649 355.808 625.758 404.806 584.554 445.099C543.206 485.522 497.444 512.772 444.68 528.381C398.543 541.854 350.585 545.293 304.21 548.628C299.944 548.934 295.695 549.243 291.465 549.553L283.005 550.173C245.008 552.965 209.118 555.595 174.712 561.976C144.75 567.521 115.294 576.025 85.1713 587.817L93.854 588.746Z" fill="#0E61A2"/>
<path d="M108.478 590.31C128.627 582.387 148.499 576.029 168.484 571.114C203.651 562.458 240.673 557.883 281.941 553.205C291.261 552.153 300.89 551.152 310.191 550.193C351.751 545.89 394.733 541.438 436.603 529.745C489.689 514.916 538.421 488.515 581.443 451.279C621.838 416.308 653.698 376.772 688.216 332.448C712.297 301.515 735.191 274.244 758.214 249.052C805.077 197.77 869.293 135.249 950.603 106.676C958.728 103.826 967.105 101.303 975.609 99.0674L976.048 94.958C966.866 97.318 957.832 100.019 949.081 103.094C866.907 131.977 802.22 194.927 755.042 246.553C731.956 271.816 708.998 299.166 684.853 330.177C650.464 374.344 618.73 413.73 578.601 448.464C536.037 485.304 487.845 511.42 435.359 526.081C393.84 537.683 351.046 542.112 309.673 546.393C300.353 547.359 290.724 548.36 281.377 549.408C239.95 554.103 202.777 558.697 167.364 567.412C145.014 572.914 122.807 580.188 100.215 589.426L108.478 590.31Z" fill="#0E5D9A"/>
<path d="M120.03 591.546C133.929 585.714 147.667 580.688 161.371 576.42C197.357 565.204 235.826 558.521 272.019 552.975C286.154 550.81 300.282 548.971 315.236 547.014C351.968 542.219 389.957 537.259 427.214 527.378C480.797 513.177 530.604 488.733 575.249 454.739C618.112 422.096 652.927 384.84 687.754 346.35C713.566 317.822 737.836 292.292 761.94 268.321C815.705 214.829 880.998 156.143 957.573 126.464C962.771 124.449 968.008 122.593 973.282 120.817L973.727 116.657C967.748 118.631 961.838 120.724 955.956 123C878.686 152.956 813.007 211.961 758.953 265.739C734.806 289.766 710.495 315.334 684.631 343.916C649.92 382.273 615.24 419.39 572.647 451.838C528.426 485.509 479.096 509.721 426.037 523.782C389.046 533.588 351.198 538.529 314.597 543.303C299.616 545.257 285.469 547.103 271.287 549.271C234.924 554.851 196.267 561.565 160.013 572.864C144.196 577.797 128.346 583.72 112.252 590.714L120.03 591.546Z" fill="#0D5893"/>
<path d="M128.632 592.465C137.252 588.537 145.789 584.951 154.251 581.717C183.842 570.399 217.107 561.463 262.099 552.735C280.997 549.075 300.186 546.157 320.504 543.06C352.389 538.201 385.356 533.175 417.826 525.019C471.887 511.443 522.769 488.965 569.056 458.198C615.043 427.638 652.678 393.056 687.295 360.243C715.492 333.522 740.389 310.433 765.668 287.573C825.671 233.317 890.46 177.714 964.535 146.251C966.627 145.36 968.732 144.523 970.838 143.668L971.29 139.449C968.461 140.577 965.648 141.725 962.84 142.915C888.192 174.626 823.12 230.465 762.872 284.935C737.573 307.809 712.646 330.921 684.428 357.666C649.934 390.363 612.432 424.822 566.704 455.212C520.796 485.721 470.331 508.02 416.725 521.482C384.436 529.589 351.573 534.6 319.791 539.445C299.436 542.546 280.208 545.477 261.225 549.154C215.987 557.932 182.512 566.932 152.69 578.336C142.367 582.288 131.953 586.736 121.392 591.699L128.631 592.474L128.632 592.465Z" fill="#0C548C"/>
<path d="M134.453 593.089C138.69 590.98 142.911 588.946 147.121 587.005C176.958 573.297 210.339 562.325 252.159 552.487C275.761 546.947 300.172 542.823 326.015 538.457C352.987 533.904 380.882 529.192 408.428 522.643C462.911 509.704 514.87 489.175 562.844 461.639C610.494 434.291 650.58 403.417 686.808 374.127C713.179 352.806 740.959 330.154 769.385 306.825L777.899 299.826C834.659 253.167 898.868 200.381 968.282 167.554L968.739 163.284C898.018 196.228 832.844 249.82 775.313 297.124L766.799 304.123C738.392 327.454 710.612 350.098 684.251 371.411C648.144 400.602 608.2 431.363 560.777 458.581C513.128 485.929 461.536 506.317 407.422 519.168C380.001 525.679 352.181 530.381 325.274 534.924C299.366 539.3 274.888 543.435 251.163 549.004C209.069 558.907 175.448 569.956 145.368 583.775C139.504 586.482 133.642 589.343 127.735 592.37L134.453 593.089Z" fill="#0C5084"/>
<path d="M137.88 593.455C138.587 593.068 139.286 592.672 139.992 592.293C170.005 575.99 202.492 563.268 242.238 552.248C270.464 544.435 300.278 539.072 331.837 533.381C353.827 529.418 376.563 525.319 399.057 520.287C453.896 507.994 506.93 489.423 556.66 465.091C598.577 444.585 637.364 421.534 686.347 388.021C716.371 367.477 744.764 347.212 773.131 326.08C784.18 317.852 795.278 309.424 807.029 300.508C855.447 263.73 909.887 222.419 965.612 192.515L966.075 188.186C909.253 218.323 853.826 260.394 804.585 297.779C792.843 306.695 781.755 315.116 770.716 323.336C742.389 344.439 714.045 364.674 684.053 385.187C635.229 418.589 596.589 441.562 554.839 461.982C505.382 486.181 452.646 504.646 398.1 516.877C375.699 521.902 353.002 525.987 331.048 529.946C299.397 535.644 269.497 541.033 241.09 548.895C201.058 559.987 168.311 572.818 138.033 589.264C135.913 590.417 133.799 591.596 131.674 592.791L137.88 593.455Z" fill="#0B4B7D"/>
<path d="M139.242 593.601C167.175 576.604 196.951 563.301 232.28 552.006C265.071 541.536 300.488 534.947 337.989 527.972C354.892 524.826 372.37 521.571 389.649 517.927C444.713 506.3 498.813 489.686 550.441 468.531C596.103 449.822 639.136 428.648 685.843 401.893C717.681 383.66 747.449 365.154 776.831 345.329C797.016 331.72 817.576 317.02 839.338 301.454C879.548 272.71 920.906 243.163 962.841 218.417L963.308 214.053C920.391 239.166 878.12 269.377 837.06 298.725C815.309 314.275 794.769 328.96 774.633 342.54C745.321 362.312 715.633 380.767 683.864 398.964C637.295 425.631 594.409 446.736 548.9 465.392C497.485 486.459 443.614 503.003 388.777 514.585C371.544 518.227 354.085 521.475 337.212 524.615C299.587 531.619 264.056 538.231 231.027 548.769C193.859 560.656 162.779 574.754 133.529 592.99L139.242 593.601Z" fill="#0A4776"/>
<path d="M138.913 593.566C164.28 576.534 191.16 563.076 222.341 551.757C259.637 538.238 300.915 530.519 344.608 522.355C356.277 520.176 368.351 517.919 380.27 515.552C435.248 504.645 490.416 489.979 544.242 471.947C596.074 454.584 640.916 436.722 685.36 415.741C718.891 399.909 750.033 383.17 780.56 364.565C811.028 345.997 842.249 324.535 875.296 301.821C903.125 282.696 931.632 263.104 959.982 245.149L960.449 240.777C931.208 259.202 901.803 279.41 873.126 299.121C840.119 321.814 808.938 343.245 778.549 361.762C748.13 380.301 717.097 396.983 683.683 412.76C639.365 433.677 594.649 451.492 542.961 468.802C489.288 486.781 434.281 501.413 379.455 512.285C367.555 514.646 355.5 516.896 343.841 519.077C299.987 527.274 258.557 535.02 220.973 548.645C188.205 560.54 160.142 574.772 133.594 592.997L138.913 593.566Z" fill="#0A426E"/>
<path d="M137.167 593.379C160.163 576.394 184.528 562.855 212.392 551.515C254.162 534.542 301.598 525.87 351.824 516.691C358.16 515.535 364.524 514.373 370.891 513.186C424.869 503.157 481.104 490.431 538.044 475.363C599.197 459.177 643.111 445.493 684.878 429.582C720.072 416.181 752.587 401.2 784.29 383.792C826.669 360.525 871.911 329.928 915.667 300.346C929.319 291.12 943.2 281.738 957.051 272.542L957.516 268.195C942.811 277.935 928.063 287.909 913.565 297.705C869.868 327.25 824.696 357.794 782.455 380.982C750.9 398.311 718.53 413.222 683.491 426.562C641.85 442.418 598.05 456.072 537.021 472.22C480.168 487.263 424.017 499.973 370.134 509.977C363.777 511.157 357.422 512.319 351.077 513.475C300.663 522.685 253.048 531.389 210.93 548.505C181.672 560.432 156.237 574.723 132.195 592.847L137.167 593.379Z" fill="#093E67"/>
<path d="M134.252 593.067C155.109 576.196 177.287 562.62 202.426 551.263C248.679 530.399 302.642 521.028 359.77 511.114L361.493 510.818C422.643 500.203 479.505 489.137 531.846 478.771C591.054 467.031 636.654 457.631 684.397 443.413C721.235 432.442 755.132 419.237 788.02 403.028C842.201 376.318 898.933 338.038 954.071 300.401L954.53 296.114C898.693 334.233 841.166 373.208 786.37 400.212C753.658 416.337 719.944 429.476 683.298 440.382C635.709 454.548 590.193 463.939 531.07 475.654C478.756 486.023 421.913 497.082 360.811 507.686L359.088 507.981C301.725 517.939 247.555 527.339 200.885 548.39C174.519 560.319 151.385 574.624 129.618 592.571L134.252 593.067Z" fill="#093A60"/>
<path d="M130.312 592.646C149.203 575.924 169.231 562.572 192.469 551.012C238.706 528.055 294.365 517.778 352.114 508.444C423.56 496.899 480.325 488.299 525.651 482.153C534.065 481.013 542.346 479.911 550.532 478.824C596.699 472.682 640.314 466.884 683.927 457.221C722.399 448.696 757.67 437.249 791.751 422.238C844.614 398.961 900.162 363.622 951.058 328.565L951.507 324.371C900.072 359.884 843.749 395.894 790.276 419.44C756.398 434.362 721.347 445.738 683.094 454.209C639.632 463.846 596.091 469.635 550 475.759C541.814 476.846 533.533 477.948 525.119 479.088C479.756 485.231 422.963 493.835 351.489 505.386C293.468 514.759 237.515 525.099 190.849 548.268C166.517 560.379 145.674 574.433 125.989 592.183L130.312 592.646Z" fill="#083558"/>
<path d="M125.66 592.148C142.834 575.663 161.233 562.325 182.502 550.769C226.175 527.066 278.145 515.76 342.734 506.086C405.511 496.682 466.627 489.576 519.482 485.555C534.161 484.435 548.602 483.468 562.579 482.53C604.237 479.736 643.586 477.089 683.466 471.037C723.563 464.949 760.207 455.277 795.491 441.466C847.814 420.985 901.331 388.728 948.036 356.822L948.472 352.747C901.37 385.081 847.129 417.964 794.189 438.687C759.146 452.404 722.74 462.015 682.888 468.062C643.148 474.094 603.874 476.732 562.29 479.525C548.314 480.464 533.853 481.436 519.155 482.555C466.217 486.584 405.017 493.69 342.165 503.112C277.218 512.841 224.925 524.232 180.821 548.164C158.58 560.25 139.453 574.256 121.584 591.712L125.66 592.148Z" fill="#073151"/>
<path d="M120.368 591.582C136.026 575.354 152.969 562.067 172.526 550.524C220.468 522.256 280.725 510.996 333.355 503.712C395.228 495.153 457.453 490.043 513.315 488.932C531.991 488.564 550.32 488.494 568.048 488.437C607.564 488.293 644.888 488.164 683.017 484.83C724.738 481.186 762.755 473.28 799.232 460.677C849.714 443.23 900.331 414.759 945.032 384.902L945.452 380.97C900.382 411.26 849.142 440.281 798.084 457.923C761.857 470.442 724.105 478.29 682.663 481.912C644.674 485.236 607.415 485.364 567.973 485.506C550.235 485.571 531.888 485.631 513.184 486.004C457.193 487.11 394.829 492.231 332.834 500.811C279.884 508.138 219.221 519.474 170.794 548.042C150.359 560.108 132.747 574.035 116.484 591.166L120.368 591.582Z" fill="#072C49"/>
<path d="M114.491 590.953C128.807 575.002 144.483 561.802 162.55 550.271C211.897 518.811 274.747 507.597 323.977 501.337C402.09 491.414 466.702 490.947 507.148 492.309C528.638 493.031 549.716 494.231 570.114 495.393C608.696 497.593 645.146 499.666 682.577 498.623C726.507 497.401 764.769 491.441 802.982 479.889C853.243 464.681 901.239 439.195 942.041 412.862L942.442 409.109C901.379 435.808 852.831 461.791 801.978 477.176C764.051 488.648 726.062 494.559 682.429 495.77C645.137 496.812 608.761 494.737 570.243 492.545C549.836 491.382 528.73 490.187 507.203 489.461C466.628 488.094 401.831 488.558 323.502 498.518C273.944 504.821 210.65 516.124 160.778 547.913C141.927 559.943 125.667 573.766 110.835 590.562L114.491 590.953Z" fill="#062842"/>
<path d="M108.203 590.281C121.331 574.631 135.833 561.519 152.565 550.026C191.164 523.543 242.653 507.318 314.598 498.971C375.787 491.874 441.981 490.702 501 495.687C524.573 497.678 547.752 500.32 570.164 502.88C608.521 507.258 644.77 511.393 682.147 512.409C727.708 513.658 767.292 509.425 806.724 499.092C849.228 487.955 894.625 467.668 939.092 440.425L939.476 436.841C894.606 464.563 848.748 485.187 805.873 496.421C766.735 506.674 727.433 510.869 682.185 509.636C644.946 508.618 608.771 504.491 570.476 500.129C548.037 497.574 524.84 494.921 501.211 492.933C441.991 487.935 375.565 489.108 314.17 496.226C241.701 504.637 189.77 521.02 150.751 547.801C133.321 559.768 118.285 573.465 104.703 589.906L108.203 590.281Z" fill="#05233B"/>
<path d="M101.476 589.561C113.545 574.218 127.026 561.237 142.579 549.789C181.62 521.074 233.302 504.167 305.227 496.606C366.794 490.132 434.156 491.005 494.861 499.058C520.064 502.406 544.901 506.58 568.929 510.615C607.533 517.102 644.003 523.223 681.745 526.189C728.928 529.899 769.834 527.394 810.493 518.297C851.191 509.187 894.4 491.459 936.21 467.369L936.573 463.971C894.432 488.481 850.804 506.498 809.757 515.673C769.411 524.7 728.794 527.186 681.931 523.501C644.327 520.541 607.93 514.428 569.389 507.957C545.342 503.919 520.469 499.741 495.221 496.389C434.27 488.3 366.658 487.426 304.848 493.926C232.371 501.547 180.227 518.628 140.754 547.665C124.568 559.586 110.612 573.124 98.1404 589.204L101.476 589.561Z" fill="#051F33"/>
<path d="M94.457 588.81C105.586 573.786 118.1 560.933 132.584 549.542C171.391 519.046 224.79 500.951 295.849 494.232C357.868 488.363 426.371 491.277 488.724 502.421C515.229 507.159 541.452 512.895 566.798 518.443C605.946 527.01 642.926 535.105 681.326 539.959C730.113 546.129 772.361 545.344 814.236 537.491C853.462 530.127 894.192 515.09 933.351 494.092L933.697 490.864C894.249 512.225 853.177 527.517 813.641 534.934C772.076 542.734 730.152 543.519 681.666 537.381C643.404 532.543 606.487 524.463 567.411 515.912C542.028 510.36 515.788 504.614 489.219 499.869C426.602 488.68 357.805 485.751 295.525 491.643C223.896 498.421 169.996 516.702 130.755 547.547C115.696 559.382 102.746 572.763 91.2673 588.469L94.457 588.81Z" fill="#041B2C"/>
<path d="M87.0905 588.022C97.3815 573.311 109.064 560.627 122.589 549.304C161.752 516.515 215.363 497.731 286.478 491.867C348.653 486.529 418.307 491.477 482.604 505.794C510.198 511.934 537.565 519.241 564.043 526.307C602.214 536.492 641.679 547.021 680.942 553.741C731.352 562.373 774.914 563.305 818.016 556.689C855.527 550.924 893.832 538.336 930.554 520.24L930.878 517.215C893.92 535.612 855.317 548.39 817.525 554.194C774.742 560.759 731.477 559.824 681.393 551.253C642.258 544.555 604.617 534.512 564.756 523.872C538.251 516.803 510.847 509.493 483.2 503.33C418.624 488.949 348.648 483.983 286.194 489.343C214.482 495.255 160.358 514.249 120.749 547.411C105.721 559.995 93.7593 573.73 84.0652 587.698L87.0905 588.022Z" fill="#031625"/>
<path d="M79.541 587.214C88.362 573.975 99.16 561.007 112.594 549.066C151.293 514.65 206.647 494.605 277.109 489.493C339.893 484.769 410.707 491.744 476.494 509.16C504.992 516.699 533.359 525.553 560.795 534.118C599.859 546.318 640.267 558.928 680.56 567.515C732.575 578.598 777.458 581.257 821.786 575.886C857.03 571.609 893.152 561.025 927.862 545.404L928.168 542.549C893.264 558.423 856.885 569.16 821.39 573.453C777.38 578.789 732.801 576.137 681.102 565.122C640.936 556.566 600.6 543.972 561.589 531.795C534.126 523.218 505.724 514.352 477.172 506.799C411.088 489.308 339.945 482.298 276.853 487.049C205.776 492.206 149.89 512.469 110.741 547.283C96.8046 559.692 85.6754 573.165 76.6346 586.904L79.541 587.214Z" fill="#03121D"/>
<path d="M71.7542 586.381C79.9987 573.346 90.0777 560.618 102.58 548.826C141.308 512.331 196.868 491.571 267.73 487.119C331.134 483.001 403.107 492.02 470.376 512.516C499.552 521.405 528.709 531.774 556.904 541.8C597.076 556.09 638.621 570.861 680.169 581.279C733.556 594.831 779.752 599.216 825.549 595.066C858.911 592.053 892.709 583.49 925.192 570.365L925.481 567.663C892.828 580.992 858.823 589.678 825.265 592.713C779.786 596.829 733.882 592.475 680.81 578.999C639.388 568.612 597.906 553.865 557.796 539.599C529.574 529.561 500.39 519.189 471.152 510.277C403.578 489.688 331.259 480.623 267.53 484.758C196.034 489.253 139.931 510.247 100.763 547.149C87.789 559.371 77.409 572.58 68.9666 586.083L71.7542 586.381Z" fill="#020D16"/>
<path d="M63.6926 585.519C71.9356 571.806 81.4731 559.646 92.5753 548.587C131.274 510.023 187.051 488.541 258.361 484.745C322.392 481.243 395.524 492.297 464.275 515.883C494.156 526.132 524.105 538 553.078 549.473C594.353 565.817 637.028 582.723 679.804 595.055C733.923 610.759 782.828 617.045 829.329 614.255C860.731 612.284 892.258 605.501 922.592 594.666L922.865 592.115C892.402 603.117 860.698 609.992 829.129 611.98C782.936 614.743 734.322 608.497 680.5 592.875C637.84 580.582 595.227 563.7 554.014 547.379C525.023 535.896 495.039 524.016 465.094 513.751C396.023 490.054 322.545 478.945 258.179 482.472C186.226 486.31 129.898 508.025 90.7553 547.022C79.2998 558.445 69.4683 571.02 61.0238 585.234L63.6926 585.519Z" fill="#01090F"/>
<path d="M55.5494 584.648C63.2325 571.244 72.1752 559.286 82.5701 548.357C121.203 507.729 177.204 485.533 249.001 482.373C313.484 479.484 387.775 492.582 458.192 519.251C488.463 530.785 518.931 544.02 548.392 556.813C591.051 575.336 635.159 594.495 679.449 608.831C736.101 627.215 784.933 635.044 833.118 633.454C862.486 632.431 891.798 627.262 920.043 618.5L920.3 616.094C891.94 624.981 862.499 630.23 832.984 631.246C785.106 632.826 736.555 625.044 680.19 606.751C636.014 592.461 591.96 573.325 549.363 554.825C519.875 542.021 489.381 528.775 459.048 517.218C388.31 490.428 313.655 477.274 248.838 480.179C176.382 483.363 119.837 505.809 80.7676 546.887C70.0494 558.158 60.8612 570.51 52.9994 584.375L55.5494 584.648Z" fill="#010407"/>
<path d="M47.3603 583.772C54.2435 571.191 62.5109 559.237 72.5465 548.125C161.275 449.858 332.466 472.971 452.092 522.618C483.116 535.492 514.438 550.241 544.722 564.51C637.519 608.211 733.475 653.407 836.899 652.635C864.127 652.437 891.212 648.727 917.552 641.784L917.818 639.301C891.525 646.404 864.27 650.319 836.839 650.521C733.979 651.284 638.278 606.21 545.728 562.621C515.417 548.349 484.078 533.581 453.001 520.684C406.522 501.401 352.322 486.107 298.115 480.308C211.927 471.088 125.752 485.866 70.7897 546.745C60.4391 558.21 51.9563 570.535 44.9199 583.511L47.3603 583.772Z" fill="black"/>
</g>
</svg>
