<svg width="60" height="60" viewBox="0 0 60 60" fill="none" xmlns="http://www.w3.org/2000/svg">
<g clip-path="url(#clip0_753_48085)">
<path d="M30 60C46.5685 60 60 46.5685 60 30C60 13.4315 46.5685 0 30 0C13.4315 0 0 13.4315 0 30C0 46.5685 13.4315 60 30 60Z" fill="#60B0FF"/>
<path d="M60.0008 29.9995C60.0008 26.2837 59.3252 22.7258 58.0903 19.4416L49.6604 11.0117L10.5703 25.0616L21.6143 36.1055L17.214 40.2049L22.0566 45.0475L12.5784 47.888L24.1121 59.4218C26.0162 59.8007 27.9853 59.9995 30.0008 59.9995C46.5694 59.9995 60.0008 46.568 60.0008 29.9995Z" fill="#4190DD"/>
<path d="M40.3037 41.1836C42.3181 41.1836 43.9512 39.5506 43.9512 37.5361C43.9512 35.5217 42.3181 33.8887 40.3037 33.8887C38.2893 33.8887 36.6562 35.5217 36.6562 37.5361C36.6562 39.5506 38.2893 41.1836 40.3037 41.1836Z" fill="#BEC2D0"/>
<path d="M40.3031 42.2051C36.8271 42.2051 33.9188 44.635 33.1836 47.8887H47.4226C46.6872 44.635 43.7791 42.2051 40.3031 42.2051Z" fill="#BEC2D0"/>
<path d="M19.6982 41.1836C21.7127 41.1836 23.3457 39.5506 23.3457 37.5361C23.3457 35.5217 21.7127 33.8887 19.6982 33.8887C17.6838 33.8887 16.0508 35.5217 16.0508 37.5361C16.0508 39.5506 17.6838 41.1836 19.6982 41.1836Z" fill="#DCE0EA"/>
<path d="M19.6976 42.2051C16.2216 42.2051 13.3134 44.635 12.5781 47.8887H26.8171C26.0819 44.635 23.1736 42.2051 19.6976 42.2051Z" fill="#DCE0EA"/>
<path d="M29.9989 41.9901C32.7231 41.9901 34.9315 39.7817 34.9315 37.0575C34.9315 34.3334 32.7231 32.125 29.9989 32.125C27.2748 32.125 25.0664 34.3334 25.0664 37.0575C25.0664 39.7817 27.2748 41.9901 29.9989 41.9901Z" fill="white"/>
<path d="M30 32.125V41.9901C32.7241 41.9901 34.9325 39.7817 34.9325 37.0575C34.9325 34.3334 32.7241 32.125 30 32.125Z" fill="#E9ECF4"/>
<path d="M29.9989 43.3711C25.2982 43.3711 21.3654 46.657 20.3711 51.0571H39.6265C38.6323 46.657 34.6995 43.3711 29.9989 43.3711Z" fill="white"/>
<path d="M30 43.373V51.059H39.6278C38.6334 46.659 34.7006 43.373 30 43.373Z" fill="#E9ECF4"/>
<path d="M49.6604 11.0117H10.5703V25.0614H16.7632L19.6979 30.7025L22.6327 25.0614H27.1806L30.0008 30.5829L33.0502 25.0614H37.3689L40.3037 30.7025L43.2384 25.0614H49.6604V11.0117Z" fill="#EEA333"/>
<path d="M30 11.0117V30.5829L33.0493 25.0614H37.368L40.3029 30.7025L43.2376 25.0614H49.6596V11.0117H30Z" fill="#FFC268"/>
<path d="M29.9997 12.6895L31.6316 16.0932L35.2806 16.639L32.6402 19.2884L33.2635 23.0295L29.9997 21.2631L26.7359 23.0295L27.3592 19.2884L24.7188 16.639L28.3677 16.0932L29.9997 12.6895Z" fill="white"/>
<path d="M35.2809 16.639L31.632 16.0932L30 12.6895V21.2631L33.2638 23.0295L32.6405 19.2884L35.2809 16.639Z" fill="#E9ECF4"/>
<path d="M42.4217 12.6895L44.0535 16.0932L47.7026 16.639L45.0622 19.2884L45.6855 23.0295L42.4217 21.2631L39.1578 23.0295L39.7812 19.2884L37.1406 16.639L40.7897 16.0932L42.4217 12.6895Z" fill="#E9ECF4"/>
<path d="M17.5817 12.6895L19.2137 16.0932L22.8628 16.639L20.2222 19.2884L20.8456 23.0295L17.5817 21.2631L14.3179 23.0295L14.9412 19.2884L12.3008 16.639L15.9499 16.0932L17.5817 12.6895Z" fill="white"/>
</g>
<defs>
<clipPath id="clip0_753_48085">
<rect width="60" height="60" fill="white"/>
</clipPath>
</defs>
</svg>
