<svg width="986" height="653" viewBox="0 0 986 653" fill="none" xmlns="http://www.w3.org/2000/svg">
<g opacity="0.03">
<path d="M976.89 72.9638C915.594 96.9583 848.869 109.394 781.952 108.158C753.813 107.633 724.791 104.828 696.718 102.125C631.334 95.8074 563.726 89.2778 502.404 111.101C449.481 129.933 406.069 167.187 369.676 224.98C338.917 273.837 317.099 330.798 295.622 389.758C259.797 488.122 197.468 621.589 70.3023 644.93C46.9462 649.211 23.6431 649.28 0.452644 646.482L0.000359884 650.71C23.6021 653.552 47.3695 653.464 71.2637 649.078C200.702 625.32 263.776 490.51 299.955 391.164C337.886 287.019 385.085 157.409 504.098 115.053C564.411 93.5931 631.461 100.063 696.314 106.332C724.477 109.054 753.601 111.869 781.934 112.389C852.144 113.695 922.148 100.068 986.002 73.9385L976.89 72.9638Z" fill="#1173BF"/>
<path d="M952.633 70.3689C937.995 75.8475 923.12 80.7007 908.069 84.8582C868.523 95.7365 828.477 101.779 789.059 102.816C760.454 103.63 730.65 101.992 701.821 100.4C689.57 99.7233 676.915 99.0294 664.397 98.5215C606.217 96.1542 558 97.7836 511.794 113.451C459.96 131.096 416.794 164.401 379.831 215.259C342.973 265.641 316.941 326.745 296.03 375.833C278.097 417.732 261.157 451.048 242.705 480.689C191.857 562.825 133.177 610.067 63.3155 625.123C49.4152 628.118 34.9234 629.816 20.2421 630.174C14.2261 630.327 8.21817 630.233 2.2201 629.96L1.77778 634.095C7.98607 634.39 14.207 634.482 20.4359 634.325C35.4132 633.965 50.2047 632.231 64.3983 629.173C135.518 613.848 195.117 565.967 246.601 482.811C265.163 453.002 282.195 419.516 300.205 377.419C321.04 328.52 346.974 267.646 383.561 217.63C419.995 167.494 462.468 134.698 513.401 117.36C558.907 101.926 606.631 100.321 664.277 102.674C676.749 103.177 689.394 103.878 701.626 104.552C730.547 106.146 760.461 107.795 789.262 106.968C829.06 105.921 869.481 99.8241 909.409 88.8408C927.174 83.9368 944.69 78.0805 961.864 71.3564L952.633 70.3689Z" fill="#106FB8"/>
<path d="M930.05 67.95C923.729 70.2647 917.382 72.4738 911.004 74.5425C872.839 86.854 834.204 94.5732 796.176 97.481C766.509 99.7493 736.623 99.3974 704.983 99.0208C694.966 98.9005 684.607 98.7778 674.312 98.7478C624.077 98.5844 570.869 99.7742 521.193 115.816C468.919 132.823 424.701 164.215 385.999 211.794C350.212 255.794 324.273 305.827 296.455 361.932C276.791 401.264 258.516 432.877 238.962 461.414C184.2 541.341 124.464 588.427 56.3272 605.339C42.5863 608.745 28.3153 610.972 13.9005 611.95C10.6217 612.182 7.35192 612.329 4.08671 612.434L3.64892 616.526C7.19105 616.425 10.7404 616.257 14.298 616.012C28.9832 615.012 43.5266 612.745 57.5334 609.273C126.762 592.092 187.325 544.452 242.69 463.638C262.344 434.941 280.699 403.182 300.454 363.688C328.168 307.786 353.992 257.964 389.523 214.279C427.703 167.347 471.263 136.399 522.705 119.663C571.73 103.826 624.51 102.659 674.375 102.817C684.652 102.845 694.992 102.974 705 103.093C736.751 103.473 766.738 103.827 796.61 101.547C835.002 98.6092 873.995 90.8255 912.514 78.3977C921.469 75.4905 930.386 72.3224 939.234 68.9411L930.049 67.9585L930.05 67.95Z" fill="#106AB0"/>
<path d="M909.73 65.7801C874.091 78.7646 838.308 87.6459 803.297 92.1621C771.895 96.2158 739.748 97.216 705.716 98.2804C698.611 98.5058 691.451 98.7254 684.222 98.9805C636.027 100.664 581.402 102.576 530.598 118.189C477.73 134.601 432.459 164.089 392.182 208.329C352.502 251.912 322.958 302.982 296.894 348.04C276.151 383.897 255.977 414.681 235.243 442.158C176.513 519.937 115.715 566.85 49.3556 585.546C35.7832 589.365 21.7237 592.12 7.56535 593.725C7.06916 593.783 6.57479 593.825 6.0786 593.883L5.64353 597.95C6.48514 597.86 7.32584 597.778 8.16836 597.68C22.5606 596.049 36.8659 593.243 50.6676 589.354C117.97 570.39 179.505 522.991 238.788 444.448C259.619 416.845 279.871 385.932 300.703 349.938C326.674 305.051 356.106 254.175 395.503 210.903C435.257 167.225 479.923 138.126 532.026 121.949C582.256 106.515 634.218 104.704 684.464 102.948C691.683 102.692 698.834 102.472 705.938 102.255C740.081 101.185 772.34 100.18 803.966 96.1072C840.702 91.3643 878.268 81.8853 915.628 67.9365C916.669 67.5422 917.701 67.1385 918.743 66.7357L909.731 65.7717L909.73 65.7801Z" fill="#0F66A9"/>
<path d="M892.146 63.8983C864.707 74.2035 837.755 81.767 810.404 86.8369C776.234 93.174 740.464 95.8007 702.598 98.5802L694.137 99.2006C689.907 99.5108 685.659 99.8191 681.401 100.126C634.785 103.47 586.585 106.935 539.989 120.538C486.529 136.355 440.205 163.931 398.361 204.841C356.868 245.412 323.856 294.593 297.332 334.108C274.931 367.483 253.401 396.511 231.512 422.861C167.636 499.748 107.535 545.149 42.377 565.757C31.2115 569.284 19.7329 572.11 8.17868 574.259L7.73818 578.377C19.9183 576.166 32.0246 573.176 43.7931 569.456C109.764 548.601 170.473 502.785 234.868 425.277C256.842 398.825 278.447 369.693 300.925 336.207C327.351 296.835 360.242 247.838 401.446 207.545C442.794 167.122 488.556 139.872 541.32 124.263C587.457 110.79 635.415 107.35 681.79 104.016C686.056 103.709 690.305 103.401 694.535 103.091L702.995 102.471C740.992 99.6794 776.882 97.0485 811.288 90.668C841.25 85.1233 870.706 76.6193 900.829 64.8272L892.146 63.8983Z" fill="#0E61A2"/>
<path d="M877.522 62.334C857.373 70.2567 837.501 76.6151 817.516 81.5303C782.349 90.1861 745.327 94.7612 704.059 99.4392C694.739 100.49 685.11 101.491 675.809 102.45C634.249 106.754 591.267 111.206 549.397 122.899C496.311 137.727 447.579 164.129 404.557 201.365C364.162 236.336 332.302 275.872 297.784 320.196C273.703 351.129 250.809 378.4 227.786 403.592C180.923 454.874 116.707 517.395 35.3975 545.968C27.2719 548.818 18.8947 551.341 10.3912 553.577L9.95159 557.686C19.134 555.326 28.1682 552.624 36.9186 549.55C119.093 520.667 183.78 457.717 230.958 406.091C254.044 380.828 277.002 353.478 301.147 322.467C335.536 278.3 367.27 238.914 407.399 204.18C449.963 167.34 498.155 141.224 550.641 126.562C592.16 114.961 634.954 110.532 676.327 106.251C685.647 105.285 695.276 104.284 704.623 103.236C746.05 98.5407 783.223 93.9474 818.636 85.2323C840.986 79.7303 863.193 72.4561 885.785 63.2178L877.522 62.334Z" fill="#0E5D9A"/>
<path d="M865.97 61.0982C852.071 66.9301 838.333 71.9564 824.629 76.2237C788.643 87.4399 750.174 94.1228 713.981 99.6694C699.846 101.834 685.718 103.673 670.764 105.63C634.032 110.425 596.043 115.385 558.786 125.266C505.203 139.467 455.396 163.911 410.751 197.905C367.888 230.547 333.073 267.804 298.246 306.294C272.434 334.821 248.164 360.352 224.06 384.323C170.295 437.815 105.002 496.501 28.4271 526.18C23.2289 528.195 17.9922 530.051 12.7179 531.827L12.2728 535.987C18.2525 534.013 24.1616 531.92 30.0441 529.644C107.314 499.688 172.993 440.683 227.047 386.905C251.194 362.878 275.505 337.31 301.369 308.728C336.08 270.371 370.76 233.254 413.353 200.806C457.574 167.135 506.904 142.923 559.963 128.862C596.954 119.056 634.802 114.115 671.403 109.341C686.384 107.387 700.531 105.541 714.713 103.373C751.076 97.7929 789.733 91.0787 825.987 79.7797C841.804 74.8473 857.654 68.9242 873.748 61.9302L865.97 61.0982Z" fill="#0D5893"/>
<path d="M857.368 60.1788C848.748 64.1072 840.211 67.6932 831.749 70.9271C802.158 82.2448 768.893 91.1812 723.901 99.9086C705.003 103.569 685.814 106.487 665.496 109.584C633.611 114.443 600.644 119.469 568.174 127.625C514.113 141.201 463.231 163.678 416.944 194.446C370.957 225.006 333.322 259.587 298.705 292.401C270.508 319.122 245.611 342.211 220.332 365.071C160.329 419.327 95.5405 474.93 21.465 506.393C19.373 507.284 17.2682 508.121 15.1615 508.976L14.7101 513.195C17.5394 512.067 20.3523 510.919 23.1605 509.729C97.8078 478.018 162.88 422.179 223.128 367.709C248.427 344.835 273.354 321.723 301.572 294.978C336.066 262.281 373.568 227.822 419.296 197.432C465.204 166.923 515.669 144.624 569.275 131.162C601.564 123.055 634.427 118.044 666.209 113.199C686.564 110.098 705.792 107.167 724.775 103.49C770.013 94.7118 803.488 85.7122 833.31 74.3079C843.633 70.356 854.047 65.9081 864.608 60.9447L857.369 60.1703L857.368 60.1788Z" fill="#0C548C"/>
<path d="M851.547 59.5553C847.31 61.6644 843.089 63.6982 838.879 65.6388C809.042 79.3468 775.661 90.319 733.841 100.157C710.239 105.697 685.828 109.821 659.985 114.187C633.013 118.74 605.118 123.452 577.572 130C523.089 142.94 471.13 163.469 423.156 191.005C375.506 218.353 335.42 249.227 299.192 278.517C272.821 299.838 245.041 322.49 216.615 345.819L208.101 352.818C151.341 399.476 87.1319 452.263 17.7175 485.09L17.2607 489.36C87.9818 456.416 153.156 402.824 210.687 355.52L219.201 348.52C247.608 325.19 275.388 302.546 301.749 281.233C337.856 252.042 377.8 221.281 425.223 194.063C472.872 166.714 524.464 146.327 578.578 133.476C605.999 126.965 633.819 122.263 660.726 117.72C686.634 113.344 711.112 109.209 734.837 103.64C776.931 93.7372 810.552 82.6877 840.632 68.8686C846.496 66.1622 852.358 63.3013 858.265 60.2739L851.547 59.5553Z" fill="#0C5084"/>
<path d="M848.12 59.1887C847.413 59.5758 846.714 59.9724 846.008 60.3511C815.995 76.6541 783.508 89.3759 743.762 100.396C715.536 108.208 685.722 113.572 654.163 119.263C632.173 123.226 609.437 127.325 586.943 132.357C532.104 144.65 479.07 163.221 429.34 187.553C387.423 208.059 348.636 231.11 299.653 264.623C269.629 285.167 241.236 305.432 212.869 326.564C201.82 334.792 190.722 343.22 178.971 352.135C130.553 388.914 76.1128 430.225 20.3877 460.129L19.9246 464.458C76.747 434.321 132.174 392.25 181.415 354.865C193.157 345.949 204.245 337.528 215.284 329.308C243.611 308.205 271.955 287.97 301.947 267.457C350.771 234.055 389.411 211.082 431.161 190.662C480.618 166.463 533.354 147.998 587.9 135.767C610.301 130.742 632.998 126.657 654.952 122.698C686.603 117 716.503 111.611 744.91 103.749C784.942 92.6572 817.689 79.8262 847.967 63.3802C850.087 62.2272 852.201 61.0479 854.326 59.8525L848.12 59.1887Z" fill="#0B4B7D"/>
<path d="M846.758 59.043C818.825 76.0398 789.049 89.3431 753.72 100.638C720.929 111.108 685.512 117.697 648.011 124.672C631.108 127.817 613.63 131.073 596.351 134.717C541.287 146.344 487.187 162.958 435.559 184.113C389.897 202.822 346.864 223.996 300.157 250.751C268.319 268.984 238.551 287.49 209.169 307.315C188.984 320.924 168.424 335.624 146.662 351.19C106.452 379.934 65.0941 409.481 23.1586 434.227L22.6918 438.59C65.6094 413.478 107.88 383.266 148.94 353.919C170.691 338.369 191.231 323.684 211.367 310.103C240.679 290.332 270.367 271.877 302.136 253.68C348.705 227.013 391.591 205.908 437.1 187.252C488.515 166.185 542.386 149.641 597.223 138.059C614.456 134.417 631.915 131.169 648.788 128.029C686.413 121.025 721.944 114.413 754.973 103.875C792.141 91.9876 823.221 77.8899 852.471 59.6541L846.758 59.043Z" fill="#0A4776"/>
<path d="M847.087 59.0782C821.72 76.1096 794.84 89.5683 763.659 100.887C726.363 114.406 685.085 122.125 641.392 130.289C629.723 132.468 617.649 134.725 605.73 137.092C550.752 147.999 495.584 162.665 441.758 180.697C389.926 198.06 345.084 215.922 300.64 236.903C267.109 252.735 235.967 269.474 205.44 288.079C174.972 306.647 143.751 328.109 110.704 350.823C82.8753 369.948 54.3684 389.54 26.0182 407.495L25.5505 411.867C54.7922 393.442 84.1969 373.234 112.874 353.523C145.881 330.83 177.062 309.399 207.451 290.882C237.87 272.343 268.903 255.661 302.317 239.884C346.635 218.967 391.351 201.152 443.039 183.842C496.712 165.862 551.719 151.23 606.545 140.358C618.445 137.998 630.5 135.748 642.159 133.567C686.013 125.369 727.443 117.624 765.027 103.999C797.795 92.104 825.858 77.872 852.406 59.6472L847.087 59.0782Z" fill="#0A426E"/>
<path d="M848.833 59.265C825.837 76.2501 801.472 89.7893 773.608 101.129C731.838 118.102 684.402 126.774 634.176 135.953C627.84 137.109 621.476 138.271 615.109 139.458C561.131 149.486 504.896 162.213 447.956 177.281C386.803 193.466 342.889 207.151 301.122 223.062C265.928 236.463 233.413 251.444 201.71 268.852C159.331 292.119 114.089 322.716 70.333 352.298C56.6813 361.524 42.8004 370.906 28.9486 380.102L28.4836 384.449C43.1885 374.709 57.9371 364.735 72.4355 354.939C116.132 325.394 161.304 294.85 203.545 271.662C235.1 254.333 267.47 239.422 302.509 226.082C344.15 210.226 387.95 196.571 448.979 180.424C505.832 165.381 561.983 152.671 615.866 142.667C622.223 141.487 628.578 140.324 634.923 139.169C685.337 129.959 732.952 121.255 775.07 104.139C804.328 92.2116 829.763 77.9212 853.805 59.7968L848.833 59.265Z" fill="#093E67"/>
<path d="M851.748 59.5768C830.891 76.4479 808.713 90.024 783.574 101.381C737.321 122.245 683.358 131.616 626.23 141.53L624.507 141.826C563.357 152.441 506.495 163.507 454.154 173.873C394.946 185.613 349.346 195.013 301.603 209.231C264.765 220.201 230.868 233.407 197.98 249.616C143.799 276.326 87.0667 314.606 31.9288 352.243L31.4701 356.53C87.3068 318.411 144.834 279.436 199.63 252.432C232.342 236.307 266.056 223.168 302.702 212.262C350.291 198.096 395.807 188.705 454.93 176.99C507.244 166.621 564.087 155.562 625.189 144.958L626.912 144.663C684.275 134.705 738.445 125.305 785.115 104.254C811.481 92.3254 834.615 78.0203 856.382 60.0725L851.748 59.5768Z" fill="#093A60"/>
<path d="M855.688 59.9982C836.797 76.7198 816.769 90.0716 793.531 101.632C747.294 124.589 691.635 134.866 633.886 144.2C562.44 155.745 505.675 164.345 460.349 170.491C451.935 171.631 443.654 172.733 435.468 173.82C389.301 179.962 345.686 185.76 302.073 195.423C263.601 203.948 228.33 215.395 194.249 230.406C141.386 253.683 85.8378 289.022 34.9416 324.079L34.4929 328.273C85.9279 292.76 142.251 256.749 195.724 233.204C229.602 218.282 264.653 206.906 302.906 198.435C346.368 188.798 389.909 183.009 436 176.885C444.186 175.798 452.467 174.695 460.881 173.556C506.244 167.413 563.037 158.809 634.511 147.258C692.532 137.885 748.485 127.545 795.151 104.376C819.483 92.2645 840.326 78.2113 860.011 60.4607L855.688 59.9982Z" fill="#083558"/>
<path d="M860.34 60.4959C843.166 76.9811 824.767 90.3187 803.498 101.875C759.825 125.578 707.855 136.884 643.266 146.558C580.489 155.962 519.373 163.068 466.518 167.089C451.839 168.209 437.398 169.176 423.421 170.114C381.763 172.908 342.414 175.555 302.534 181.607C262.437 187.695 225.793 197.367 190.509 211.178C138.186 231.659 84.6686 263.916 37.9644 295.822L37.5284 299.897C84.6298 267.562 138.871 234.68 191.811 213.957C226.854 200.24 263.26 190.629 303.112 184.582C342.852 178.549 382.126 175.912 423.71 173.119C437.686 172.18 452.147 171.208 466.845 170.089C519.783 166.059 580.983 158.954 643.835 149.532C708.782 139.803 761.075 128.412 805.179 104.48C827.42 92.3936 846.547 78.3883 864.416 60.932L860.34 60.4959Z" fill="#073151"/>
<path d="M865.632 61.062C849.974 77.2895 833.031 90.5772 813.474 102.12C765.532 130.388 705.275 141.647 652.645 148.932C590.772 157.491 528.547 162.601 472.685 163.712C454.009 164.08 435.68 164.15 417.952 164.207C378.436 164.351 341.112 164.48 302.983 167.814C261.262 171.458 223.245 179.364 186.768 191.967C136.286 209.414 85.6691 237.885 40.9682 267.742L40.5476 271.674C85.6183 241.384 136.858 212.363 187.916 194.721C224.143 182.202 261.895 174.354 303.337 170.732C341.326 167.408 378.585 167.28 418.027 167.138C435.765 167.073 454.112 167.013 472.816 166.64C528.807 165.534 591.171 160.413 653.166 151.833C706.116 144.505 766.779 133.169 815.206 104.602C835.641 92.5361 853.253 78.6087 869.516 61.4775L865.632 61.062Z" fill="#072C49"/>
<path d="M871.509 61.6907C857.193 77.6418 841.517 90.8422 823.45 102.373C774.103 133.833 711.253 145.046 662.023 151.307C583.91 161.23 519.298 161.697 478.852 160.335C457.362 159.613 436.284 158.413 415.886 157.25C377.304 155.051 340.854 152.978 303.423 154.021C259.493 155.243 221.231 161.203 183.018 172.755C132.757 187.963 84.761 213.449 43.9592 239.782L43.5577 243.535C84.6206 216.836 133.169 190.853 184.022 175.468C221.949 163.996 259.938 158.085 303.571 156.873C340.863 155.832 377.239 157.907 415.757 160.099C436.164 161.262 457.27 162.457 478.797 163.183C519.372 164.55 584.169 164.086 662.498 154.125C712.056 147.823 775.35 136.52 825.222 104.731C844.073 92.7011 860.333 78.8776 875.165 62.0818L871.509 61.6907Z" fill="#062842"/>
<path d="M877.797 62.3633C864.669 78.0131 850.167 91.1248 833.435 102.618C794.836 129.101 743.347 145.326 671.402 153.673C610.213 160.77 544.019 161.942 485 156.957C461.427 154.966 438.248 152.324 415.836 149.764C377.479 145.386 341.23 141.251 303.853 140.235C258.292 138.986 218.708 143.219 179.276 153.552C136.772 164.688 91.3752 184.976 46.9077 212.219L46.5243 215.803C91.3944 188.081 137.252 167.456 180.127 156.223C219.265 145.969 258.567 141.775 303.815 143.008C341.054 144.026 377.229 148.153 415.524 152.515C437.963 155.07 461.16 157.723 484.789 159.711C544.009 164.709 610.435 163.536 671.83 156.418C744.299 148.007 796.23 131.624 835.249 104.843C852.679 92.8761 867.715 79.1788 881.297 62.7378L877.797 62.3633Z" fill="#05233B"/>
<path d="M884.524 63.0829C872.455 78.426 858.974 91.4071 843.421 102.855C804.38 131.57 752.698 148.477 680.773 156.038C619.206 162.512 551.844 161.639 491.139 153.585C465.936 150.238 441.099 146.064 417.071 142.028C378.467 135.542 341.997 129.421 304.255 126.455C257.072 122.744 216.166 125.25 175.507 134.347C134.809 143.457 91.6 161.185 49.79 185.275L49.4266 188.673C91.5679 164.163 135.196 146.146 176.243 136.971C216.589 127.944 257.206 125.458 304.069 129.143C341.673 132.103 378.07 138.216 416.611 144.687C440.658 148.725 465.531 152.903 490.779 156.255C551.73 164.344 619.342 165.218 681.152 158.718C753.629 151.096 805.773 134.016 845.246 104.979C861.432 93.0584 875.388 79.5197 887.86 63.4398L884.524 63.0829Z" fill="#051F33"/>
<path d="M891.543 63.8338C880.414 78.8576 867.9 91.7106 853.416 103.102C814.609 133.598 761.21 151.693 690.151 158.412C628.132 164.281 559.629 161.366 497.276 150.223C470.771 145.485 444.548 139.749 419.202 134.201C380.054 125.634 343.074 117.538 304.674 112.685C255.887 106.515 213.639 107.3 171.764 115.153C132.538 122.517 91.8076 137.554 52.6488 158.552L52.3035 161.78C91.7507 140.419 132.823 125.127 172.359 117.71C213.924 109.91 255.848 109.125 304.334 115.263C342.596 120.101 379.513 128.181 418.589 136.732C443.972 142.284 470.212 148.03 496.781 152.775C559.398 163.964 628.195 166.893 690.475 161C762.104 154.223 816.004 135.941 855.245 105.097C870.304 93.2618 883.254 79.8812 894.733 64.1751L891.543 63.8338Z" fill="#041B2C"/>
<path d="M898.91 64.6219C888.618 79.3324 876.936 92.0173 863.411 103.34C824.248 136.129 770.637 154.913 699.522 160.777C637.347 166.115 567.693 161.166 503.396 146.85C475.802 140.71 448.435 133.403 421.957 126.337C383.786 116.152 344.321 105.623 305.058 98.903C254.648 90.2709 211.086 89.3389 167.984 95.9546C130.473 101.72 92.1681 114.308 55.4459 132.404L55.1223 135.429C92.08 117.032 130.683 104.254 168.475 98.4496C211.258 91.8853 254.523 92.82 304.607 101.391C343.742 108.089 381.383 118.132 421.244 128.772C447.749 135.841 475.153 143.151 502.8 149.314C567.376 163.695 637.352 168.661 699.806 163.301C771.518 157.389 825.642 138.395 865.251 105.233C880.279 92.6492 892.241 78.9144 901.935 64.9455L898.91 64.6219Z" fill="#031625"/>
<path d="M906.459 65.4295C897.638 78.669 886.84 91.6371 873.406 103.578C834.707 137.994 779.353 158.039 708.891 163.151C646.107 167.875 575.293 160.9 509.506 143.484C481.008 135.945 452.641 127.091 425.205 118.526C386.141 106.326 345.733 93.7159 305.44 85.1292C253.425 74.0459 208.542 71.387 164.214 76.7575C128.97 81.0345 92.848 91.6191 58.1379 107.24L57.8324 110.095C92.7361 94.221 129.115 83.4838 164.61 79.1909C208.62 73.8549 253.199 76.507 304.898 87.5222C345.064 96.0782 385.4 108.672 424.411 120.849C451.874 129.426 480.276 138.292 508.828 145.845C574.912 163.336 646.055 170.346 709.147 165.595C780.224 160.437 836.11 140.175 875.259 105.361C889.195 92.9517 900.325 79.4792 909.365 65.7404L906.459 65.4295Z" fill="#03121D"/>
<path d="M914.246 66.2625C906.001 79.298 895.922 92.0259 883.42 103.818C844.692 140.313 789.132 161.073 718.27 165.525C654.866 169.643 582.893 160.624 515.624 140.128C486.448 131.239 457.291 120.87 429.096 110.844C388.924 96.5537 347.379 81.7828 305.831 71.365C252.444 57.8124 206.248 53.4276 160.451 57.5784C127.089 60.5912 93.2915 69.1535 60.8081 82.2785L60.5189 84.9813C93.1722 71.6517 127.177 62.9659 160.735 59.9312C206.214 55.8151 252.118 60.1685 305.19 73.6445C346.612 84.0317 388.094 98.7788 428.204 113.045C456.426 123.083 485.61 133.455 514.848 142.367C582.422 162.956 654.741 172.021 718.47 167.886C789.966 163.391 846.069 142.397 885.237 105.495C898.211 93.2734 908.591 80.0635 917.033 66.5607L914.246 66.2625Z" fill="#020D16"/>
<path d="M922.307 67.1248C914.064 80.8376 904.527 92.9978 893.425 104.057C854.726 142.62 798.949 164.103 727.639 167.898C663.608 171.401 590.476 160.347 521.725 136.761C491.844 126.512 461.895 114.644 432.922 103.171C391.647 86.8268 348.972 69.921 306.196 57.5893C252.077 41.8846 203.172 35.5989 156.671 38.3888C125.269 40.3601 93.7418 47.1428 63.4076 57.9781L63.1348 60.5285C93.5977 49.5269 125.302 42.6517 156.871 40.6641C203.064 37.9013 251.678 44.1472 305.5 59.7688C348.16 72.0624 390.773 88.9444 431.986 105.265C460.977 116.748 490.961 128.628 520.906 138.893C589.977 162.59 663.455 173.699 727.821 170.172C799.774 166.334 856.102 144.619 895.245 105.622C906.7 94.1987 916.532 81.6243 924.976 67.4103L922.307 67.1248Z" fill="#01090F"/>
<path d="M930.451 67.996C922.768 81.4001 913.825 93.3583 903.43 104.287C864.797 144.915 808.796 167.11 736.999 170.271C672.516 173.16 598.225 160.062 527.808 133.392C497.537 121.859 467.069 108.624 437.608 95.8313C394.949 77.3075 350.841 58.1488 306.551 43.8126C249.899 25.4288 201.067 17.5998 152.882 19.1897C123.514 20.2131 94.2023 25.3817 65.9573 34.1438L65.6999 36.5501C94.0599 27.6632 123.501 22.4141 153.016 21.3979C200.894 19.8181 249.445 27.5999 305.81 45.893C349.986 60.1827 394.04 79.3185 436.637 97.8185C466.125 110.623 496.619 123.869 526.952 135.426C597.69 162.216 672.345 175.369 737.162 172.465C809.618 169.281 866.163 146.835 905.232 105.757C915.951 94.4855 925.139 82.1337 933.001 68.2687L930.451 67.996Z" fill="#010407"/>
<path d="M938.64 68.872C931.756 81.4533 923.489 93.4066 913.454 104.519C824.725 202.785 653.534 179.673 533.908 130.026C502.884 117.152 471.562 102.403 441.278 88.1339C348.481 44.4331 252.525 -0.762613 149.101 0.00859509C121.873 0.206845 94.7883 3.9168 68.448 10.8602L68.1825 13.3427C94.475 6.24001 121.73 2.3254 149.161 2.12324C252.021 1.36018 347.722 46.4343 440.272 90.0231C470.583 104.295 501.922 119.063 532.999 131.96C579.478 151.243 633.678 166.537 687.885 172.336C774.073 181.555 860.248 166.778 915.21 105.899C925.561 94.4338 934.044 82.1093 941.08 69.133L938.64 68.872Z" fill="black"/>
</g>
</svg>
