<svg width="60" height="60" viewBox="0 0 60 60" fill="none" xmlns="http://www.w3.org/2000/svg">
<g clip-path="url(#clip0_1278_44290)">
<path d="M30 60C46.5685 60 60 46.5685 60 30C60 13.4315 46.5685 0 30 0C13.4315 0 0 13.4315 0 30C0 46.5685 13.4315 60 30 60Z" fill="#FFD29A"/>
<path d="M35.3194 59.5306C49.3496 57.0192 59.998 44.7537 59.998 30.0011C59.998 26.0006 59.215 22.183 57.7937 18.6931L57.7881 18.6875L36.0688 34.2496L24.0626 22.2436L11.7109 34.595L17.678 40.5621L17.2825 41.4937L35.3194 59.5306Z" fill="#E4AC67"/>
<path d="M58.3684 20.2163C56.7757 15.5974 54.0874 11.4896 50.6131 8.20312C45.9948 13.0208 37.1949 21.8314 37.1949 21.8314C37.1935 21.8325 37.1916 21.8327 37.19 21.8319C35.431 20.9043 33.2145 21.0304 31.5515 22.3349L22.0471 29.7902C21.11 30.5252 20.9538 31.8843 21.6997 32.8127C22.4334 33.7262 23.7656 33.8794 24.6875 33.1562C24.6875 33.1562 30.8401 28.3308 30.8417 28.3325L31.6629 29.3794L25.4496 34.2483C25.409 34.28 25.3679 34.3106 25.3263 34.3399C24.2663 35.0847 22.3147 35.1502 21.5088 34.1359C21.5015 34.1268 19.3789 35.7892 17.1289 37.5561L19.5492 39.7825L24.0506 36.2515L24.7279 37.1149L20.3676 40.5352L22.8655 42.8327L27.5258 39.1771L28.203 40.0405L23.6838 43.5854L26.1816 45.883L31.1836 41.9595L31.8609 42.8229L27.0001 46.6358L29.4113 48.8537L43.3943 37.8854L43.3787 37.8655C44.8742 36.463 45.5162 34.444 45.2195 32.5166C45.2191 32.515 45.2198 32.5134 45.2211 32.5124C45.221 32.5125 53.3378 25.3175 58.3684 20.2163Z" fill="#FFF0EB"/>
<path d="M58.368 20.2161C57.5578 17.8664 56.4626 15.6498 55.1261 13.6055L24.4453 44.2862L26.1813 45.883L31.1832 41.9595L31.8606 42.8229L26.9998 46.6358L29.411 48.8537L43.3939 37.8854L43.3784 37.8655C44.8739 36.463 45.5159 34.444 45.2191 32.5166C45.2188 32.515 45.2195 32.5134 45.2208 32.5124C45.2207 32.5124 53.3375 25.3174 58.368 20.2161Z" fill="#F6D4C9"/>
<path d="M41.6947 38.9772C40.6036 38.123 39.8436 37.5315 39.8393 37.5369C39.0334 38.5511 37.0818 38.4857 36.0218 37.7409C35.9802 37.7116 35.9391 37.681 35.8985 37.6493L29.6852 32.7803L30.5064 31.7335C30.508 31.7316 36.6606 36.5572 36.6606 36.5572C37.5825 37.2803 38.9147 37.1272 39.6484 36.2137C40.3943 35.2851 40.2381 33.9262 39.3009 33.1912L29.7966 25.7359C28.1336 24.4313 25.9171 24.3054 24.1581 25.2329C24.1566 25.2337 24.1547 25.2336 24.1532 25.2324C24.1532 25.2324 12.4699 13.6036 8.35301 9.23047C5.025 12.6982 2.52211 16.9637 1.16016 21.7118C5.70305 26.6735 16.127 35.9137 16.127 35.9137C16.1283 35.9146 16.129 35.9163 16.1286 35.9179C15.8319 37.8452 16.4739 39.8642 17.9694 41.2667L17.9538 41.2866L29.5703 50.3987C30.182 50.8786 31.0486 50.855 31.6334 50.3425C32.3951 49.6752 32.3626 48.4797 31.5657 47.8546L29.487 46.2241L30.1643 45.3605L32.8848 47.4945C33.4965 47.9744 34.3632 47.9509 34.948 47.4384L35.0368 47.3606C35.7986 46.6932 35.7661 45.4977 34.9692 44.8726L33.1448 43.4416L33.8221 42.5782L36.2882 44.5126C36.8999 44.9925 37.7665 44.9689 38.3512 44.4566L38.4402 44.3786C39.2019 43.7113 39.1695 42.5158 38.3726 41.8907L36.6199 40.5159L37.2973 39.6525L39.6916 41.5306C40.3034 42.0105 41.1701 41.9869 41.7548 41.4745L41.764 41.4665C42.5264 40.7989 42.4927 39.602 41.6947 38.9772Z" fill="#DC9E8E"/>
<path d="M33.8221 42.5783L36.2882 44.5127C36.9 44.9926 37.7666 44.969 38.3513 44.4567L38.4403 44.3787C39.202 43.7114 39.1695 42.5159 38.3727 41.8909L36.62 40.516L37.2973 39.6526L39.6917 41.5307C40.3034 42.0106 41.1702 41.9871 41.7549 41.4746L41.7641 41.4666C42.5264 40.7988 42.4926 39.602 41.6946 38.9772C40.6034 38.123 39.8435 37.5315 39.8391 37.5369C39.0332 38.5511 37.0816 38.4857 36.0216 37.7409C35.98 37.7116 35.9389 37.681 35.8984 37.6493L29.6851 32.7803L30.5062 31.7335C30.5079 31.7316 36.6604 36.5572 36.6604 36.5572C37.5823 37.2803 38.9145 37.1272 39.6482 36.2137C40.3941 35.2851 40.2379 33.9262 39.3008 33.1912L29.7964 25.7359C28.1334 24.4313 25.9169 24.3054 24.1579 25.2329C24.1564 25.2337 24.1545 25.2336 24.153 25.2324C24.153 25.2324 12.4698 13.6036 8.35285 9.23047C7.01234 10.6272 5.80602 12.1536 4.75391 13.7886L33.6997 42.7343L33.8221 42.5783Z" fill="#E6B3A6"/>
<path d="M26.3587 41.6492C26.8844 40.9276 27.8956 40.7688 28.6172 41.2944L28.7111 41.3627C29.4329 41.8883 29.5919 42.8996 29.0662 43.6212L26.1185 47.6684C25.5105 48.5033 24.2991 48.5942 23.5733 47.8596C22.9965 47.2757 22.9277 46.3599 23.4108 45.6964L26.3587 41.6492Z" fill="#FFCDBE"/>
<path d="M28.711 41.3602L28.6171 41.2919C28.3517 41.0985 28.0471 40.9986 27.7419 40.9844L24.4256 44.3007L23.4108 45.694C22.9277 46.3574 22.9965 47.2732 23.5733 47.8571C24.2991 48.5917 25.5105 48.5008 26.1185 47.6659L29.0662 43.6188C29.5918 42.897 29.4329 41.8858 28.711 41.3602Z" fill="#F6D4C9"/>
<path d="M23.9631 37.3876C24.4887 36.6658 25.4999 36.507 26.2217 37.0327L26.3155 37.101C27.0374 37.6267 27.1964 38.638 26.6708 39.3596L22.9544 44.4622C22.3463 45.297 21.1351 45.388 20.4092 44.6533C19.8323 44.0695 19.7637 43.1535 20.2468 42.4901L23.9631 37.3876Z" fill="#FFF0EB"/>
<path d="M27.7187 47.3368C28.2443 46.6151 29.2555 46.4562 29.9772 46.9819C30.6991 47.5076 30.858 48.5187 30.3324 49.2405L29.7629 50.0162C29.1833 50.8057 28.0351 50.8898 27.3466 50.1931L27.3112 50.1572C26.7608 49.6001 26.6971 48.7255 27.1612 48.0947L27.7187 47.3368Z" fill="#F6D4C9"/>
<path d="M19.7779 35.7706C20.3044 35.0514 21.313 34.8949 22.0335 35.4197L22.037 35.4223C22.7589 35.948 22.9179 36.9591 22.3922 37.6808L19.7501 41.3085C19.1611 42.1171 17.9878 42.2052 17.2847 41.4936C16.7255 40.9276 16.6593 40.0397 17.1284 39.397C18.1965 37.9331 19.2081 36.5489 19.7779 35.7706Z" fill="#FFF0EB"/>
<path d="M49.5207 7.22266L36.8945 18.9291L48.7707 31.7385L58.9892 22.2644C57.4082 16.3245 54.0514 11.1094 49.5207 7.22266Z" fill="#2882CD"/>
<path d="M58.9914 22.2641C58.1624 19.1494 56.8443 16.2346 55.1255 13.6055L43.1055 25.6255L48.7729 31.7382L58.9914 22.2641Z" fill="#4190DD"/>
<path d="M0.691406 23.5755L11.712 34.5961L24.0636 22.2446L9.71742 7.89844C5.2507 11.9992 2.03168 17.436 0.691406 23.5755Z" fill="#FE8A2C"/>
<path d="M24.0629 22.2448L9.71668 7.89844C7.82141 9.63844 6.15172 11.6197 4.75391 13.7925L18.6344 27.673L24.0629 22.2448Z" fill="#E16C0C"/>
</g>
<defs>
<clipPath id="clip0_1278_44290">
<rect width="60" height="60" fill="white"/>
</clipPath>
</defs>
</svg>
