<svg width="42" height="15" viewBox="0 0 42 15" fill="none" xmlns="http://www.w3.org/2000/svg">
<path d="M0.292893 6.65617C-0.0976311 7.0467 -0.0976311 7.67986 0.292893 8.07039L6.65685 14.4343C7.04738 14.8249 7.68054 14.8249 8.07107 14.4343C8.46159 14.0438 8.46159 13.4107 8.07107 13.0201L2.41421 7.36328L8.07107 1.70643C8.46159 1.3159 8.46159 0.682738 8.07107 0.292213C7.68054 -0.0983109 7.04738 -0.0983109 6.65685 0.292213L0.292893 6.65617ZM41.7071 8.07039C42.0976 7.67986 42.0976 7.0467 41.7071 6.65617L35.3431 0.292213C34.9526 -0.0983109 34.3195 -0.0983109 33.9289 0.292213C33.5384 0.682738 33.5384 1.3159 33.9289 1.70643L39.5858 7.36328L33.9289 13.0201C33.5384 13.4107 33.5384 14.0438 33.9289 14.4343C34.3195 14.8249 34.9526 14.8249 35.3431 14.4343L41.7071 8.07039ZM1 7.36328V8.36328H41V7.36328V6.36328H1V7.36328Z" fill="#8E742E"/>
</svg>
