<svg width="60" height="60" viewBox="0 0 60 60" fill="none" xmlns="http://www.w3.org/2000/svg">
<g clip-path="url(#clip0_1278_44894)">
<path d="M30 59.2969C46.1802 59.2969 59.2969 46.1802 59.2969 30C59.2969 13.8198 46.1802 0.703125 30 0.703125C13.8198 0.703125 0.703125 13.8198 0.703125 30C0.703125 46.1802 13.8198 59.2969 30 59.2969Z" fill="#60B0FF"/>
<path opacity="0.49" d="M58.4129 37.1665L39.0015 17.7552C36.9697 15.7831 34.1204 14.6172 30.8511 14.6172H17.7539V45.3789L31.6243 59.2492C44.6094 58.5402 55.342 49.3758 58.4129 37.1665Z" fill="url(#paint0_linear_1278_44894)"/>
<path d="M42.248 25.7311C42.248 32.182 37.3898 36.8828 30.8511 36.8828H26.2477V45.3789H17.7539V14.6172H30.8511C37.3898 14.6168 42.248 19.2803 42.248 25.7311ZM33.5361 25.75C33.5361 23.5633 32.0658 22.0172 29.8351 22.0172H26.2477V29.4828H29.8351C32.0658 29.4828 33.5361 27.9364 33.5361 25.75Z" fill="white"/>
</g>
<defs>
<linearGradient id="paint0_linear_1278_44894" x1="14.5908" y1="17.7803" x2="49.12" y2="52.3094" gradientUnits="userSpaceOnUse">
<stop/>
<stop offset="1" stop-opacity="0"/>
</linearGradient>
<clipPath id="clip0_1278_44894">
<rect width="60" height="60" fill="white"/>
</clipPath>
</defs>
</svg>
