<svg width="60" height="60" viewBox="0 0 60 60" fill="none" xmlns="http://www.w3.org/2000/svg">
<g clip-path="url(#clip0_1278_44916)">
<path d="M30 59.4375C46.1802 59.4375 59.2969 46.3208 59.2969 30.1406C59.2969 13.9604 46.1802 0.84375 30 0.84375C13.8198 0.84375 0.703125 13.9604 0.703125 30.1406C0.703125 46.3208 13.8198 59.4375 30 59.4375Z" fill="#60B0FF"/>
<path opacity="0.49" d="M58.8072 35.4921L41.727 18.4119C38.789 15.6437 34.6443 13.9805 30.0156 13.9805C20.5394 13.9805 13.7031 20.8052 13.7031 30.1641C13.7031 34.8532 15.4507 38.8935 18.3803 41.758L35.5342 58.9116C41.3164 57.796 46.6289 54.9655 50.7798 50.7884C54.9308 46.6113 57.728 41.2812 58.8072 35.4921Z" fill="url(#paint0_linear_1278_44916)"/>
<path d="M46.2959 29.0839C46.2959 39.1503 39.7243 46.3014 30.0909 46.3014C20.6654 46.3014 13.7031 39.5271 13.7031 30.168C13.7031 20.8088 20.5389 13.9844 30.0156 13.9844C38.0788 13.9844 44.6747 19.0302 45.9759 26.1789H37.0945C35.9812 23.5874 33.2286 21.9214 30.0913 21.9214C25.4836 21.9214 22.3779 25.2534 22.3779 30.1687C22.3779 35.0335 25.433 38.3655 30.0913 38.3655C33.3257 38.3655 36.0992 36.8001 37.0664 34.428H29.4264V29.0848L46.2959 29.0839Z" fill="white"/>
</g>
<defs>
<linearGradient id="paint0_linear_1278_44916" x1="18.4184" y1="18.4502" x2="50.7684" y2="50.8002" gradientUnits="userSpaceOnUse">
<stop/>
<stop offset="1" stop-opacity="0"/>
</linearGradient>
<clipPath id="clip0_1278_44916">
<rect width="60" height="60" fill="white"/>
</clipPath>
</defs>
</svg>
