<svg width="60" height="60" viewBox="0 0 60 60" fill="none" xmlns="http://www.w3.org/2000/svg">
<g clip-path="url(#clip0_1278_44905)">
<path d="M30.043 59.3008C46.2232 59.3008 59.3398 46.1841 59.3398 30.0039C59.3398 13.8237 46.2232 0.707031 30.043 0.707031C13.8628 0.707031 0.746094 13.8237 0.746094 30.0039C0.746094 46.1841 13.8628 59.3008 30.043 59.3008Z" fill="#60B0FF"/>
<path opacity="0.49" d="M58.05 38.6234L34.0517 14.625H25.7675L13.6836 45.3867L27.4873 59.1908C28.3295 59.2636 29.1811 59.303 30.042 59.303C43.223 59.303 54.37 50.5978 58.05 38.6234Z" fill="url(#paint0_linear_1278_44905)"/>
<path d="M35.3731 40.3905H24.4694L22.7656 45.3867H13.6836L25.7675 14.625H34.0517L46.4005 45.3867H37.0684L35.3731 40.3905ZM29.9042 24.2264L26.5336 33.7587H33.3052L29.9042 24.2264Z" fill="white"/>
</g>
<defs>
<linearGradient id="paint0_linear_1278_44905" x1="17.127" y1="23.2655" x2="47.6704" y2="53.8088" gradientUnits="userSpaceOnUse">
<stop/>
<stop offset="1" stop-opacity="0"/>
</linearGradient>
<clipPath id="clip0_1278_44905">
<rect width="60" height="60" fill="white"/>
</clipPath>
</defs>
</svg>
