<svg width="60" height="60" viewBox="0 0 60 60" fill="none" xmlns="http://www.w3.org/2000/svg">
<path fill-rule="evenodd" clip-rule="evenodd" d="M1.75783 30.4797C1.74142 14.8821 14.3719 2.2258 29.9695 2.20705C45.5672 2.1883 58.2246 14.8211 58.2422 30.4188C58.2598 46.0164 45.6281 58.6739 30.0305 58.6914H30C14.4141 58.6961 1.76955 46.0668 1.75783 30.4797Z" fill="#FFD29A"/>
<path fill-rule="evenodd" clip-rule="evenodd" d="M37.8449 14.6102C37.5472 14.4098 37.0492 14.6102 36.5558 14.8094L34.5636 12.8172L34.464 12.7176C33.9671 12.6191 33.2722 13.4207 32.6757 13.7125L31.0738 12.1211H30.9753C30.8757 12.0227 30.7761 11.9219 30.6765 11.9219C30.08 11.9219 29.4835 13.4137 28.887 13.5133C28.2906 13.6129 27.3964 12.1211 26.7988 12.2242C26.2011 12.3273 26.0956 14.0137 25.5097 14.2164C24.9238 14.4191 23.7097 13.3211 23.214 13.6199C22.7183 13.9187 23.0148 15.509 22.5109 15.9062C22.007 16.3035 20.5187 15.4094 20.1238 15.9062C19.7288 16.4031 20.4226 17.7965 20.0253 18.2934C19.6281 18.7902 18.0331 18.4926 17.7378 18.9789C17.4425 19.4652 18.6331 20.6699 18.4351 21.2664C18.237 21.8629 16.5449 22.0609 16.4429 22.5555C16.2343 23.2527 17.732 24.0461 17.6359 24.6449C17.5398 25.2437 16.0351 25.8367 16.1335 26.4332C16.1343 26.5112 16.1537 26.5879 16.1899 26.657C16.2262 26.7261 16.2784 26.7855 16.3421 26.8305L17.8339 28.3117C17.6347 28.9082 16.7394 29.7039 16.9386 30.202C16.9386 30.3004 17.0382 30.3004 17.0382 30.4012L18.9273 32.3934C18.8288 32.8902 18.6296 33.3883 18.8288 33.6824H18.9273L21.414 36.2605C21.44 36.2608 21.4649 36.2713 21.4833 36.2897C21.5017 36.3081 21.5121 36.333 21.5124 36.359H21.6425L22.1394 36.9555L19.4593 46.9926L31.0046 58.6176C37.5847 58.3802 43.8762 55.8568 48.7967 51.4816C53.7171 47.1063 56.9587 41.1529 57.9636 34.6457L37.8519 14.5785" fill="#E4AC67"/>
<path fill-rule="evenodd" clip-rule="evenodd" d="M32.7848 30.9082L27.9027 49.2949L24.2828 45.5953L19.4102 46.9371L24.2828 28.6406L32.7848 30.9082Z" fill="#4190DD"/>
<path fill-rule="evenodd" clip-rule="evenodd" d="M32.7832 30.9102L27.9012 49.2969L24.2812 45.5973L28.5785 29.7266L32.7832 30.9102Z" fill="#2882CD"/>
<path fill-rule="evenodd" clip-rule="evenodd" d="M26.5586 30.9082L31.4418 49.2949L35.0605 45.5953L39.9438 46.9371L35.0605 28.6406L26.5586 30.9082Z" fill="#2882CD"/>
<path fill-rule="evenodd" clip-rule="evenodd" d="M26.5586 30.9102L31.4418 49.2969L35.0605 45.5973L30.7656 29.7266L26.5586 30.9102Z" fill="#4190DD"/>
<path fill-rule="evenodd" clip-rule="evenodd" d="M39.3387 35.0738C38.8406 35.5719 37.4391 34.7762 36.941 35.1734C36.443 35.5707 36.7418 37.1656 36.2449 37.4598C35.748 37.7539 34.4555 36.5656 33.9586 36.7566C33.4617 36.9477 33.1629 38.6375 32.5664 38.7488C31.9699 38.8602 31.1742 37.4656 30.5742 37.4656C29.9742 37.4656 29.3812 39.0477 28.684 39.0477C27.9867 39.0477 27.6926 37.3695 27.0867 37.2652C26.4809 37.1609 25.4953 38.4488 24.8988 38.2602C24.3023 38.0715 24.5016 36.3852 23.9039 36.0828C23.3063 35.7805 22.0137 36.7789 21.5168 36.3805C21.0199 35.982 21.6152 34.4914 21.218 33.9934C20.8207 33.4953 19.1297 34.093 18.8309 33.6957C18.532 33.2984 19.4273 31.8055 19.1297 31.3086C18.832 30.8117 17.1375 30.8105 16.9418 30.2141C16.7461 29.6176 18.0352 28.6332 17.9367 28.0367C17.8383 27.4402 16.1367 27.0418 16.1367 26.4453C16.1367 25.8488 17.6391 25.2523 17.6391 24.6559C17.6391 24.0594 16.2328 23.2637 16.4461 22.5664C16.5445 22.0695 18.1359 21.8703 18.4383 21.2773C18.7406 20.6844 17.4434 19.4973 17.7352 19.0004C18.027 18.5035 19.6242 18.8012 20.0215 18.2973C20.4187 17.7934 19.6242 16.3051 20.1211 15.9102C20.618 15.5152 22.0102 16.209 22.5082 15.9102C23.0062 15.6113 22.6066 13.8219 23.2043 13.6238C23.802 13.4258 24.8953 14.4195 25.4918 14.2203C26.0883 14.0211 26.1879 12.3301 26.7809 12.2281C27.3738 12.1262 28.1871 13.5172 28.8797 13.5172C29.5723 13.5172 30.0727 11.9258 30.6691 11.9258C31.2656 11.9258 31.6641 13.6168 32.2605 13.7152C32.857 13.8137 33.8578 12.5387 34.4543 12.7344C35.0508 12.9301 34.9512 14.6246 35.4492 14.9223C35.9473 15.2199 37.3383 14.2262 37.8363 14.6246C38.3344 15.023 37.8363 16.5137 38.2441 17.0117C38.652 17.5098 40.2363 16.9121 40.6312 17.409C41.0262 17.9059 40.0348 19.1973 40.3336 19.6953C40.6324 20.1934 42.2227 20.1828 42.4219 20.7793C42.6211 21.3758 41.3285 22.3707 41.5277 22.9672C41.727 23.5637 43.2176 23.9621 43.3172 24.5586C43.4168 25.1551 41.8254 25.7516 41.7258 26.348C41.6262 26.9445 43.118 27.8387 43.0148 28.4363C42.9117 29.034 41.2254 29.1219 41.0227 29.7254C40.8199 30.3289 41.918 31.5137 41.6191 32.0117C41.3203 32.5098 39.7301 32.2109 39.3328 32.7078C38.9355 33.2047 39.7301 34.7 39.3328 35.0949" fill="#FE8A2C"/>
<path fill-rule="evenodd" clip-rule="evenodd" d="M36.8197 32.6568C34.9042 34.512 32.3421 35.5494 29.6754 35.5494C27.0087 35.5494 24.4466 34.512 22.5311 32.6568C21.1215 31.2444 20.1623 29.4459 19.7745 27.4885C19.3867 25.5312 19.5878 23.5028 20.3523 21.6597C21.1169 19.8165 22.4106 18.2414 24.07 17.1332C25.7294 16.025 27.68 15.4336 29.6754 15.4336C31.6708 15.4336 33.6214 16.025 35.2808 17.1332C36.9402 18.2414 38.2339 19.8165 38.9985 21.6597C39.763 23.5028 39.9641 25.5312 39.5763 27.4885C39.1885 29.4459 38.2293 31.2444 36.8197 32.6568Z" fill="#E16C0C"/>
<path fill-rule="evenodd" clip-rule="evenodd" d="M36.1342 31.875C34.8715 33.1434 33.2611 34.0088 31.5065 34.362C29.752 34.7151 27.9321 34.54 26.2771 33.8588C24.622 33.1777 23.2061 32.0211 22.2084 30.5352C21.2107 29.0494 20.676 27.3011 20.6719 25.5113C20.6678 23.7216 21.1945 21.9709 22.1854 20.4805C23.1763 18.9901 24.5869 17.827 26.2388 17.1383C27.8907 16.4495 29.7098 16.2661 31.4659 16.6112C33.2221 16.9563 34.8364 17.8144 36.1049 19.077L36.1342 19.1063C36.974 19.9444 37.6402 20.9399 38.0948 22.0358C38.5493 23.1317 38.7833 24.3065 38.7833 25.493C38.7833 26.6794 38.5493 27.8542 38.0948 28.9501C37.6402 30.0461 36.974 31.0416 36.1342 31.8797" fill="#FE8A2C"/>
<path fill-rule="evenodd" clip-rule="evenodd" d="M36.1258 19.0625C37.7756 20.7759 38.6863 23.0689 38.6615 25.4474C38.6367 27.8259 37.6785 30.0994 35.9934 31.7781C34.3082 33.4568 32.031 34.4063 29.6525 34.4219C27.2739 34.4376 24.9844 33.5181 23.2773 31.8617" fill="#E16C0C"/>
</svg>
