<svg width="566" height="308" viewBox="0 0 566 308" fill="none" xmlns="http://www.w3.org/2000/svg">
<g clip-path="url(#clip0_1278_44687)">
<path fill-rule="evenodd" clip-rule="evenodd" d="M427.464 4.66222C427.049 4.06712 426.448 4.28352 426.822 1.70836C428.221 -2.50928 426.439 2.50038 426.605 1.7841C426.811 3.0284 427.575 2.42248 428.043 2.35539C427.899 2.9137 427.706 3.81393 427.464 4.66222Z" fill="#0D71C7" fill-opacity="0.15"/>
<path fill-rule="evenodd" clip-rule="evenodd" d="M516.317 262.732C519.553 257.354 522.192 251.44 524.781 246.164C526.159 248.289 530.106 271.541 535.559 307.998H523.761C520.188 281.236 517.531 264.64 516.317 262.732Z" fill="#0D71C7" fill-opacity="0.15"/>
<path fill-rule="evenodd" clip-rule="evenodd" d="M526.419 247.308C529.035 242.315 531.465 237.561 533.924 233.949C535.262 235.886 540.039 264.386 546.605 307.999H535.941C531.17 272.2 527.701 249.357 526.419 247.308Z" fill="#0D71C7" fill-opacity="0.15"/>
<path fill-rule="evenodd" clip-rule="evenodd" d="M535.1 232.5C537.305 229.36 539.409 226.378 541.487 223.543C543.948 237.771 546.439 251.811 548.83 265.765C551.263 279.935 553.663 294.033 556 307.969L555.843 307.997H546.256C542.683 283.2 538.889 257.948 535.1 232.498V232.5Z" fill="#0D71C7" fill-opacity="0.15"/>
<path fill-rule="evenodd" clip-rule="evenodd" d="M542.352 222.068C544.193 219.131 545.949 216.519 547.62 214.059C550.788 229.678 553.952 245.127 556.998 260.279C560.073 275.585 563.091 290.716 566 305.553V306.161C563.237 306.682 560.397 307.199 557.481 307.671C555.103 293.625 552.588 279.357 550.051 264.967C547.557 250.818 544.902 236.534 542.352 222.068Z" fill="#0D71C7" fill-opacity="0.15"/>
<path fill-rule="evenodd" clip-rule="evenodd" d="M548.451 212.966C550.027 210.614 551.267 208.24 552.364 205.719C556.219 222.514 560.121 239.161 563.731 255.547L566 265.85V299.048C563.424 286.088 560.75 272.939 558.047 259.654C554.931 244.32 551.709 228.694 548.449 212.968L548.451 212.966Z" fill="#0D71C7" fill-opacity="0.15"/>
<path fill-rule="evenodd" clip-rule="evenodd" d="M553.166 204.769C554.502 202.657 555.701 200.651 556.759 198.441C559.864 211.027 562.96 223.505 566 235.859V260.782L564.694 254.995C560.989 238.558 557.114 221.752 553.166 204.771V204.769Z" fill="#0D71C7" fill-opacity="0.15"/>
<path fill-rule="evenodd" clip-rule="evenodd" d="M557.351 197.519C558.408 195.775 559.131 193.726 559.849 191.688C561.922 199.452 563.972 207.171 566 214.838V232.275C563.136 220.815 560.229 209.222 557.351 197.522V197.519Z" fill="#0D71C7" fill-opacity="0.15"/>
<path fill-rule="evenodd" clip-rule="evenodd" d="M560.621 191.142C561.337 189.37 561.983 187.552 562.442 185.797L566 198.452V211.339C564.224 204.643 562.431 197.907 560.621 191.142Z" fill="#0D71C7" fill-opacity="0.15"/>
<path fill-rule="evenodd" clip-rule="evenodd" d="M562.734 184.404C563.308 182.695 563.763 181.059 564.159 179.594L566 185.88V195.99L562.734 184.404Z" fill="#0D71C7" fill-opacity="0.15"/>
<path fill-rule="evenodd" clip-rule="evenodd" d="M564.285 178.682C564.616 177.132 564.764 175.574 564.973 174.07L566 177.479V184.499L564.285 178.682Z" fill="#0D71C7" fill-opacity="0.15"/>
<path fill-rule="evenodd" clip-rule="evenodd" d="M565.058 173.5C565.204 172.017 565.106 170.353 564.953 168.773L566 172.147V176.611L565.058 173.5Z" fill="#0D71C7" fill-opacity="0.15"/>
<path fill-rule="evenodd" clip-rule="evenodd" d="M564.892 167.69C564.877 166.435 564.614 164.97 564.351 163.418L566 168.711V171.245L564.892 167.69Z" fill="#0D71C7" fill-opacity="0.15"/>
<path fill-rule="evenodd" clip-rule="evenodd" d="M564.323 163.022C564.075 161.7 563.657 160.428 563.176 158.984L565.996 168.06V168.361L564.321 163.022H564.323Z" fill="#0D71C7" fill-opacity="0.15"/>
<path fill-rule="evenodd" clip-rule="evenodd" d="M562.904 158.132C562.321 156.877 561.676 155.503 561.226 154.43C562.812 159.569 564.407 164.709 566 169.837V168.089C564.96 164.771 563.924 161.456 562.904 158.132Z" fill="#0D71C7" fill-opacity="0.15"/>
<path fill-rule="evenodd" clip-rule="evenodd" d="M560.732 153.612C560.048 152.42 559.139 151.078 558.234 149.812C560.827 158.298 563.428 166.778 566.004 175.235V170.691C564.241 164.999 562.477 159.297 560.734 153.612H560.732Z" fill="#0D71C7" fill-opacity="0.15"/>
<path fill-rule="evenodd" clip-rule="evenodd" d="M425.502 307.999C431.776 301.905 437.738 296.236 443.395 290.449C446.877 296.169 450.517 302.07 454.148 307.999H425.502Z" fill="#0D71C7" fill-opacity="0.15"/>
<path fill-rule="evenodd" clip-rule="evenodd" d="M446.623 287.527C453.098 280.723 459.106 275.084 464.759 269.875C471.145 278.674 477.064 287.215 483.309 296.683C480.517 300.102 477.666 303.941 474.683 308.003H459.426C455.126 300.976 450.861 294.183 446.623 287.527Z" fill="#0D71C7" fill-opacity="0.15"/>
<path fill-rule="evenodd" clip-rule="evenodd" d="M467.405 267.085C473.006 262.086 477.939 257.334 482.728 252.762C488.327 260.264 494.071 268.267 499.672 276.161C495.396 281.625 490.677 287.213 485.822 293.386C479.651 284.464 473.741 275.815 467.405 267.085Z" fill="#0D71C7" fill-opacity="0.15"/>
<path fill-rule="evenodd" clip-rule="evenodd" d="M485.049 250.658C489.466 246.791 493.7 242.865 497.665 239.219C502.628 245.791 507.777 252.175 512.992 258.985C509.361 263.466 505.657 268.197 501.71 273.518C496.151 265.855 490.53 257.95 485.047 250.658H485.049Z" fill="#0D71C7" fill-opacity="0.15"/>
<path fill-rule="evenodd" clip-rule="evenodd" d="M511.425 225.804C514.465 222.794 517.457 220.109 520.347 217.512C524.444 222.361 528.92 227.696 533.004 232.852C530.689 235.964 528.001 239.288 525.323 243.075C520.671 236.986 516.127 231.675 511.425 225.804Z" fill="#0D71C7" fill-opacity="0.15"/>
<path fill-rule="evenodd" clip-rule="evenodd" d="M522.025 216.618C524.608 214.09 527.221 211.797 529.493 209.234C533.157 213.556 537 218.009 540.57 222.331C538.623 225.25 536.451 228.176 534.184 231.294C530.222 226.438 525.998 221.372 522.025 216.618Z" fill="#0D71C7" fill-opacity="0.15"/>
<path fill-rule="evenodd" clip-rule="evenodd" d="M531.139 207.764C533.239 205.442 535.252 203.328 537.18 201.227C540.528 205.037 543.982 209.065 547.156 212.819C545.618 215.228 543.801 217.669 541.897 220.356C538.329 216.08 534.553 211.798 531.137 207.764H531.139Z" fill="#0D71C7" fill-opacity="0.15"/>
<path fill-rule="evenodd" clip-rule="evenodd" d="M538.391 200.053C540.225 198.252 541.857 196.378 543.6 194.641C546.501 197.906 549.56 201.252 552.465 204.517C551.242 206.869 549.812 209.181 548.498 211.667C545.13 207.884 541.616 203.874 538.391 200.053Z" fill="#0D71C7" fill-opacity="0.15"/>
<path fill-rule="evenodd" clip-rule="evenodd" d="M544.276 193.732C545.81 192.078 547.207 190.159 548.41 188.449C551.111 191.362 553.65 194.231 556.535 197.332C555.349 199.423 554.15 201.399 552.882 203.545C550.047 200.382 547.116 197.099 544.274 193.732H544.276Z" fill="#0D71C7" fill-opacity="0.15"/>
<path fill-rule="evenodd" clip-rule="evenodd" d="M549.186 187.102C550.491 185.581 551.612 184.137 552.783 182.648C555.287 185.364 557.759 188.158 559.922 190.538C559.202 192.419 558.222 194.185 557.428 196.206C554.737 193.172 551.945 190.049 549.184 187.102H549.186Z" fill="#0D71C7" fill-opacity="0.15"/>
<path fill-rule="evenodd" clip-rule="evenodd" d="M553.251 182.18C554.289 180.697 555.136 179.09 556.043 177.789C558.036 179.862 560.049 182.156 562.012 184.372C561.429 186.092 560.906 187.921 560.193 189.693C557.904 187.172 555.625 184.649 553.251 182.18Z" fill="#0D71C7" fill-opacity="0.15"/>
<path fill-rule="evenodd" clip-rule="evenodd" d="M556.428 176.911C557.327 175.667 557.862 174.23 558.393 172.895C560.123 174.701 561.926 176.593 563.617 178.439C563.286 180.018 562.771 181.574 562.444 183.438C560.486 181.319 558.349 178.934 556.426 176.911H556.428Z" fill="#0D71C7" fill-opacity="0.15"/>
<path fill-rule="evenodd" clip-rule="evenodd" d="M558.784 172.315C559.188 170.924 559.658 169.753 560.063 168.441C561.599 170.043 562.966 171.612 564.578 173.304C564.365 174.741 564.156 176.29 563.825 177.786C562.071 175.855 560.389 174.027 558.784 172.317V172.315Z" fill="#0D71C7" fill-opacity="0.15"/>
<path fill-rule="evenodd" clip-rule="evenodd" d="M560.25 167.503C560.476 166.219 560.764 165.083 560.809 163.727C562.215 165.248 563.442 166.579 564.611 167.817C564.763 169.418 564.726 170.82 564.641 172.389C563.275 170.9 561.667 169.095 560.25 167.505V167.503Z" fill="#0D71C7" fill-opacity="0.15"/>
<path fill-rule="evenodd" clip-rule="evenodd" d="M539.548 132.24C537.772 131.286 536.106 130.388 534.278 129.656C534.28 129.918 534.226 130.076 534.06 130.059C536.001 130.968 538.057 132.171 539.672 133.034C539.665 132.682 539.665 132.58 539.548 132.24Z" fill="#0D71C7" fill-opacity="0.15"/>
<path fill-rule="evenodd" clip-rule="evenodd" d="M561.027 159.122C560.787 157.902 560.613 156.731 560.33 155.703C561.048 156.413 562.01 157.452 562.798 158.343C563.22 159.724 563.638 161.074 564.066 162.472C562.909 161.245 562.054 160.263 561.029 159.122H561.027Z" fill="#0D71C7" fill-opacity="0.15"/>
<path fill-rule="evenodd" clip-rule="evenodd" d="M560.004 154.779C559.604 153.649 559.154 152.502 558.703 151.398C559.419 152.223 559.959 152.937 560.677 153.733C561.425 155.058 562.006 156.317 562.594 157.704C561.682 156.631 560.96 155.796 560.002 154.779H560.004Z" fill="#0D71C7" fill-opacity="0.15"/>
<path fill-rule="evenodd" clip-rule="evenodd" d="M551.516 141.418C550.48 140.338 549.394 139.345 548.256 138.453C548.545 138.856 548.837 139.278 549.07 139.617C550.328 140.736 551.529 141.775 552.68 142.844C552.273 142.396 552.038 142.061 551.516 141.418Z" fill="#0D71C7" fill-opacity="0.15"/>
<path fill-rule="evenodd" clip-rule="evenodd" d="M361.011 297.92C371.971 290.543 381.46 283.556 391.363 277.133C397.268 287.152 403.406 297.057 409.605 308.002H366.405C364.623 304.605 362.825 301.244 361.011 297.92Z" fill="#0D71C7" fill-opacity="0.15"/>
<path fill-rule="evenodd" clip-rule="evenodd" d="M395.801 274.286C404.512 268.147 412.658 262.267 420.198 256.879C426.521 266.29 432.783 275.667 439.02 285.623C431.7 292.399 424.208 299.943 415.646 307.268C409.081 295.731 402.257 284.963 395.801 274.286Z" fill="#0D71C7" fill-opacity="0.15"/>
<path fill-rule="evenodd" clip-rule="evenodd" d="M423.806 254.367C431.03 250.186 437.423 245.575 443.64 241.281C449.375 248.959 455.3 257.009 461.027 265.408C455.196 270.872 449.214 276.448 442.51 282.845C436.122 272.826 430.151 263.387 423.806 254.367Z" fill="#0D71C7" fill-opacity="0.15"/>
<path fill-rule="evenodd" clip-rule="evenodd" d="M446.469 239C452.458 235.144 457.917 231.236 463.176 227.953C468.44 234.525 474.04 241.976 479.387 249.576C474.491 253.876 469.273 258.072 463.642 262.889C458.13 254.865 452.244 246.89 446.469 239Z" fill="#0D71C7" fill-opacity="0.15"/>
<path fill-rule="evenodd" clip-rule="evenodd" d="M465.684 226.352C470.693 223.38 475.219 220.217 479.707 217.633C484.699 223.499 489.484 229.6 494.582 236.154C490.574 239.647 486.163 243.209 481.738 247.167C476.446 240.227 470.96 232.876 465.684 226.352Z" fill="#0D71C7" fill-opacity="0.15"/>
<path fill-rule="evenodd" clip-rule="evenodd" d="M525.382 126.309C526.546 126.19 527.599 126.065 528.539 125.883C530.467 127.781 532.236 129.551 534.125 131.351C533.183 131.481 532.295 131.788 531.294 132.022C529.349 130.187 527.471 128.278 525.382 126.309Z" fill="#0D71C7" fill-opacity="0.15"/>
<path fill-rule="evenodd" clip-rule="evenodd" d="M495.406 207.048C498.95 204.929 502.16 202.685 505.458 200.625C509.545 205.481 513.753 210.361 517.883 215.323C514.939 217.692 511.886 220.315 508.6 222.951C504.251 217.602 499.888 212.369 495.406 207.048Z" fill="#0D71C7" fill-opacity="0.15"/>
<path fill-rule="evenodd" clip-rule="evenodd" d="M507.298 199.961C510.237 197.899 513.203 196.042 516.023 194.145C519.533 198.189 523.204 202.42 526.727 206.691C524.329 209.083 521.781 211.348 519.13 213.813C515.238 209.314 511.273 204.629 507.298 199.961Z" fill="#0D71C7" fill-opacity="0.15"/>
<path fill-rule="evenodd" clip-rule="evenodd" d="M517.779 193.02C520.427 191.413 522.56 189.532 524.914 188C528.258 191.731 531.633 195.423 534.797 199.103C532.869 201.12 530.73 203.09 528.437 205.299C524.792 200.858 521.234 196.864 517.781 193.02H517.779Z" fill="#0D71C7" fill-opacity="0.15"/>
<path fill-rule="evenodd" clip-rule="evenodd" d="M526.246 186.978C528.452 185.433 530.456 183.866 532.563 182.656C535.485 185.82 538.555 189.114 541.66 192.816C539.98 194.56 538.22 196.263 536.255 198.246C533.028 194.593 529.59 190.624 526.246 186.978Z" fill="#0D71C7" fill-opacity="0.15"/>
<path fill-rule="evenodd" clip-rule="evenodd" d="M533.309 181.993C535.154 180.528 536.925 179.295 538.444 177.875C541.12 180.773 543.881 183.776 546.547 186.598C545.156 188.238 543.755 190.052 542.093 191.828C539.179 188.42 536.233 185.207 533.309 181.991V181.993Z" fill="#0D71C7" fill-opacity="0.15"/>
<path fill-rule="evenodd" clip-rule="evenodd" d="M539.526 176.901C541.147 175.845 542.455 174.436 543.756 173.227C546.308 175.884 548.885 178.68 551.422 181.525C550.062 182.759 549.004 184.406 547.753 185.905C545.086 182.947 542.2 179.822 539.526 176.903V176.901Z" fill="#0D71C7" fill-opacity="0.15"/>
<path fill-rule="evenodd" clip-rule="evenodd" d="M544.473 172.846C545.885 171.818 546.808 170.448 547.965 169.273C550.15 171.546 552.411 173.965 554.504 176.272C553.473 177.562 552.561 179.003 551.521 180.492C549.173 177.936 546.842 175.374 544.473 172.846Z" fill="#0D71C7" fill-opacity="0.15"/>
<path fill-rule="evenodd" clip-rule="evenodd" d="M554.376 161.489C554.848 160.364 555.266 159.364 555.625 158.332C557.124 159.916 558.449 161.318 559.84 162.803C559.614 164.006 559.263 165.114 559.157 166.523C557.455 164.768 555.936 163.114 554.374 161.491L554.376 161.489Z" fill="#0D71C7" fill-opacity="0.15"/>
<path fill-rule="evenodd" clip-rule="evenodd" d="M556.013 157.968C556.133 156.764 556.494 155.94 556.56 154.934C557.693 156.115 558.892 157.392 560.035 158.636C560.093 159.783 559.982 160.982 559.867 162.125C558.596 160.733 557.332 159.318 556.013 157.968Z" fill="#0D71C7" fill-opacity="0.15"/>
<path fill-rule="evenodd" clip-rule="evenodd" d="M556.381 150.982C556.287 150.233 556.013 149.13 555.809 148.301C556.574 149.147 557.406 150.101 558.115 150.88C558.679 152.051 559.072 153.163 559.414 154.289C558.404 153.261 557.447 152.131 556.383 150.984L556.381 150.982Z" fill="#0D71C7" fill-opacity="0.15"/>
<path fill-rule="evenodd" clip-rule="evenodd" d="M554.45 145.324C554.028 144.597 553.375 143.506 552.496 142.422C552.964 143.034 553.549 143.694 553.789 144.166C554.842 145.428 555.612 146.432 556.445 147.568C555.853 146.865 555.092 146.047 554.448 145.324H554.45Z" fill="#0D71C7" fill-opacity="0.15"/>
<path fill-rule="evenodd" clip-rule="evenodd" d="M548.513 137.811C547.71 136.926 546.859 136.141 546.069 135.438C546.583 136.102 547.042 136.732 547.553 137.277C548.522 138.175 549.494 139.147 550.352 139.923C549.66 139.151 549.144 138.567 548.511 137.811H548.513Z" fill="#0D71C7" fill-opacity="0.15"/>
<path fill-rule="evenodd" clip-rule="evenodd" d="M550.605 142.291C550.47 141.616 550.165 140.889 550.031 140.207C550.84 141.161 551.708 142.12 552.52 142.983C552.824 143.773 553.251 144.637 553.566 145.489C552.633 144.496 551.588 143.434 550.605 142.291Z" fill="#0D71C7" fill-opacity="0.15"/>
<path fill-rule="evenodd" clip-rule="evenodd" d="M179.839 194.214C197.708 190.453 214.128 186.746 229.592 183.219C235.552 192.829 241.635 202.007 247.332 211.855C232.331 216.029 215.781 221.409 197.456 226.888C191.494 215.547 185.714 204.818 179.837 194.214H179.839Z" fill="#0D71C7" fill-opacity="0.15"/>
<path fill-rule="evenodd" clip-rule="evenodd" d="M282.886 183.363C295.36 180.598 306.336 177.871 317.259 175.809C322.616 183.062 328.449 190.576 334.266 198.453C323.608 201.69 312.422 205.165 300.4 209.011C294.799 200.372 288.702 191.5 282.886 183.361V183.363Z" fill="#0D71C7" fill-opacity="0.15"/>
<path fill-rule="evenodd" clip-rule="evenodd" d="M297.563 126.906C307.498 126.507 316.794 125.906 325.763 125.43C330.809 130.939 335.748 136.312 340.496 141.896C331.797 142.685 322.558 143.69 312.729 145.126C307.825 138.834 302.929 132.74 297.563 126.906Z" fill="#0D71C7" fill-opacity="0.15"/>
<path fill-rule="evenodd" clip-rule="evenodd" d="M244.775 308.002C257.511 301.248 269.429 294.86 280.652 288.703C283.859 295.007 287.073 301.436 290.25 308.002H244.778H244.775Z" fill="#0D71C7" fill-opacity="0.15"/>
<path fill-rule="evenodd" clip-rule="evenodd" d="M288.278 284.745C302.9 276.97 315.783 269.474 328.388 262.766C335.001 274.205 341.775 286.507 348.516 298.785C344.39 301.837 340.191 304.897 335.884 307.998H299.627C295.787 300.051 292.011 292.328 288.278 284.745Z" fill="#0D71C7" fill-opacity="0.15"/>
<path fill-rule="evenodd" clip-rule="evenodd" d="M334.217 259.756C345.63 254.156 356.166 248.954 365.844 243.797C372.081 253.264 378.724 263.427 384.723 273.911C375.294 280.442 365.152 287.144 354.001 294.363C347.558 282.271 340.832 271.037 334.217 259.756Z" fill="#0D71C7" fill-opacity="0.15"/>
<path fill-rule="evenodd" clip-rule="evenodd" d="M371.144 242.361C380.573 237.54 389.165 233.324 397.312 229.297C402.928 237.278 408.853 245.536 414.809 253.934C406.986 259.262 398.422 265.135 389.403 271.313C383.214 260.891 377.246 251.673 371.144 242.359V242.361Z" fill="#0D71C7" fill-opacity="0.15"/>
<path fill-rule="evenodd" clip-rule="evenodd" d="M402.338 226.363C409.866 222.892 416.975 219.508 423.707 216.141C429.08 223.024 434.476 230.289 439.879 237.753C433.506 242.165 426.836 246.38 419.556 250.589C413.914 242.609 408.08 234.442 402.338 226.366V226.363Z" fill="#0D71C7" fill-opacity="0.15"/>
<path fill-rule="evenodd" clip-rule="evenodd" d="M427.597 214.166C433.716 210.708 439.573 208.156 445.385 205.629C450.442 212.065 455.632 218.641 460.965 225.287C455.468 228.37 449.722 231.95 443.93 235.925C438.564 228.569 432.959 221.197 427.597 214.166Z" fill="#0D71C7" fill-opacity="0.15"/>
<path fill-rule="evenodd" clip-rule="evenodd" d="M447.93 204.921C453.093 202.422 458.191 200.072 463.155 197.992C467.55 203.536 472.2 209.061 476.789 214.588C472.283 217.377 467.511 220.381 462.672 223.601C457.693 217.273 452.667 210.942 447.932 204.921H447.93Z" fill="#0D71C7" fill-opacity="0.15"/>
<path fill-rule="evenodd" clip-rule="evenodd" d="M480.731 189.714C484.833 188.225 488.414 186.557 491.972 184.914C495.799 189.225 499.779 193.752 503.445 198.017C500.214 200.101 497.072 202.345 493.216 204.321C489.173 199.458 484.996 194.546 480.731 189.712V189.714Z" fill="#0D71C7" fill-opacity="0.15"/>
<path fill-rule="evenodd" clip-rule="evenodd" d="M493.866 184.143C497.321 182.507 500.441 180.877 503.511 179.672C507.076 183.539 510.374 187.304 514.062 191.485C511.251 193.314 508.357 195.08 505.365 197.103C501.447 192.712 497.765 188.391 493.866 184.143Z" fill="#0D71C7" fill-opacity="0.15"/>
<path fill-rule="evenodd" clip-rule="evenodd" d="M505.038 179.07C507.839 177.752 510.38 176.385 513.017 175.242C516.366 178.826 519.693 182.342 522.672 185.891C520.498 187.493 517.941 189.027 515.422 190.674C511.845 186.716 508.422 182.881 505.04 179.07H505.038Z" fill="#0D71C7" fill-opacity="0.15"/>
<path fill-rule="evenodd" clip-rule="evenodd" d="M514.941 174.746C517.496 173.599 519.787 172.519 522.006 171.281C524.661 174.149 527.812 177.518 530.508 180.602C528.584 181.993 526.4 183.378 524.191 184.947C521.206 181.482 517.998 178.07 514.941 174.746Z" fill="#0D71C7" fill-opacity="0.15"/>
<path fill-rule="evenodd" clip-rule="evenodd" d="M523.233 170.656C525.366 169.708 527.492 168.771 529.363 167.816C531.965 170.578 534.468 173.309 537.055 176.007C535.416 177.245 533.525 178.388 531.741 179.915C528.923 176.734 526.188 173.696 523.233 170.658V170.656Z" fill="#0D71C7" fill-opacity="0.15"/>
<path fill-rule="evenodd" clip-rule="evenodd" d="M529.908 167.288C531.768 166.403 533.378 165.414 535.156 164.613C537.408 166.92 539.793 169.458 542.195 171.951C540.711 173.064 539.277 174.319 537.656 175.598C535.132 172.821 532.51 170.106 529.908 167.288Z" fill="#0D71C7" fill-opacity="0.15"/>
<path fill-rule="evenodd" clip-rule="evenodd" d="M535.925 163.836C537.339 162.791 538.742 161.808 540.142 161.07C542.448 163.49 544.535 165.688 546.637 167.93C545.538 169.112 544.313 170.209 543.02 171.377C540.618 168.798 538.235 166.34 535.925 163.834V163.836Z" fill="#0D71C7" fill-opacity="0.15"/>
<path fill-rule="evenodd" clip-rule="evenodd" d="M540.955 160.539C542.228 159.847 543.436 159.12 544.465 158.211C546.419 160.278 548.203 162.147 550.301 164.385C549.396 165.391 548.484 166.374 547.45 167.388C545.351 165.207 543.266 163.06 540.955 160.539Z" fill="#0D71C7" fill-opacity="0.15"/>
<path fill-rule="evenodd" clip-rule="evenodd" d="M346.091 152.939C354.408 151.796 362.332 150.82 370.024 149.617C374.822 155.371 379.655 160.92 384.742 166.695C377.412 168.241 369.609 169.699 361.297 171.751C356.192 165.315 351.074 159.119 346.089 152.939H346.091Z" fill="#0D71C7" fill-opacity="0.15"/>
<path fill-rule="evenodd" clip-rule="evenodd" d="M500.419 123.315C502.682 123.332 504.827 123.336 506.855 123.371C509.231 125.751 511.681 128.073 513.973 130.384C511.993 130.35 510.276 130.681 508.109 130.759C505.606 128.259 503.063 125.766 500.417 123.312L500.419 123.315Z" fill="#0D71C7" fill-opacity="0.15"/>
<path fill-rule="evenodd" clip-rule="evenodd" d="M500.777 115.922C502.829 116.171 504.775 116.359 506.659 116.513C508.965 118.677 511.17 120.756 513.328 122.799C511.594 122.81 509.803 122.788 507.956 122.715C505.641 120.512 503.18 118.188 500.777 115.922Z" fill="#0D71C7" fill-opacity="0.15"/>
<path fill-rule="evenodd" clip-rule="evenodd" d="M106.669 308C112.733 305.445 118.658 302.928 124.437 300.441C125.408 302.924 126.361 305.445 127.301 308H106.667H106.669Z" fill="#0D71C7" fill-opacity="0.15"/>
<path fill-rule="evenodd" clip-rule="evenodd" d="M350.554 98.6367C357.726 99.0111 364.537 99.34 371.023 99.6473C375.022 103.612 378.98 107.632 383.062 111.471C376.574 111.51 370.081 111.419 363.096 111.324C359.045 107.031 354.756 102.833 350.556 98.6367H350.554Z" fill="#0D71C7" fill-opacity="0.15"/>
<path fill-rule="evenodd" clip-rule="evenodd" d="M211.294 263.928C229.546 256.471 246.283 249.877 262.211 243.781C268.416 255.242 275.059 267.557 281.117 280.751C265.481 288.918 249.103 297.21 230.793 306.083C224.602 291.746 217.915 277.542 211.296 263.928H211.294Z" fill="#0D71C7" fill-opacity="0.15"/>
<path fill-rule="evenodd" clip-rule="evenodd" d="M314.629 223.296C326.177 219.007 337.17 215.192 347.362 211.438C353.298 219.923 359.347 228.918 365.23 238.014C355.489 242.995 344.759 248.055 333.795 253.172C327.406 243.153 321.031 232.839 314.632 223.298L314.629 223.296Z" fill="#0D71C7" fill-opacity="0.15"/>
<path fill-rule="evenodd" clip-rule="evenodd" d="M384.707 199.233C392.686 196.534 399.966 194.07 406.899 191.531C411.925 197.716 417.185 204.435 422.23 211.343C415.629 214.528 408.403 217.908 401.107 221.401C395.832 213.727 390.151 206.207 384.705 199.233H384.707Z" fill="#0D71C7" fill-opacity="0.15"/>
<path fill-rule="evenodd" clip-rule="evenodd" d="M410.859 190.308C417.468 188.092 423.658 186.133 429.592 184.344C434.562 190.206 439.386 196.157 444.355 202.076C438.711 204.484 432.96 206.903 426.739 209.914C421.349 203.002 416.186 196.345 410.859 190.308Z" fill="#0D71C7" fill-opacity="0.15"/>
<path fill-rule="evenodd" clip-rule="evenodd" d="M432.15 183.691C437.651 181.919 442.988 180.175 448.226 178.402C452.589 183.57 456.953 188.649 461.414 193.918C456.59 196.076 451.496 198.497 446.313 200.83C441.461 194.985 436.67 189.209 432.152 183.689L432.15 183.691Z" fill="#0D71C7" fill-opacity="0.15"/>
<path fill-rule="evenodd" clip-rule="evenodd" d="M451.682 177.351C456.375 175.938 460.973 174.579 465.173 173.227C469.559 178.111 473.724 182.655 477.832 187.539C473.894 189.091 469.655 190.85 465.014 193.066C460.636 187.507 456.023 182.298 451.682 177.351Z" fill="#0D71C7" fill-opacity="0.15"/>
<path fill-rule="evenodd" clip-rule="evenodd" d="M467.231 172.789C471.498 171.614 475.321 170.268 479.164 169.164C482.928 173.226 486.767 177.593 490.344 181.823C486.873 183.34 483.305 185.026 479.162 186.431C475.315 182.04 471.23 177.286 467.233 172.789H467.231Z" fill="#0D71C7" fill-opacity="0.15"/>
<path fill-rule="evenodd" clip-rule="evenodd" d="M481.211 168.511C484.888 167.522 488.35 166.665 491.618 165.711C495.067 169.47 498.616 173.168 501.891 176.849C498.899 177.985 495.62 179.325 492.364 180.933C488.724 176.672 484.977 172.618 481.211 168.511Z" fill="#0D71C7" fill-opacity="0.15"/>
<path fill-rule="evenodd" clip-rule="evenodd" d="M493.124 165.238C496.24 164.381 499.221 163.472 502.074 162.477C505.261 165.907 508.479 169.326 511.484 172.66C508.973 173.864 506.201 175.058 503.355 176.177C499.95 172.576 496.584 168.873 493.122 165.238H493.124Z" fill="#0D71C7" fill-opacity="0.15"/>
<path fill-rule="evenodd" clip-rule="evenodd" d="M504.028 162.13C506.787 161.295 509.237 160.354 511.605 159.609C514.536 162.546 517.421 165.556 520.273 168.475C518.174 169.776 515.767 170.951 513.163 172.003C510.092 168.64 507.107 165.398 504.026 162.13H504.028Z" fill="#0D71C7" fill-opacity="0.15"/>
<path fill-rule="evenodd" clip-rule="evenodd" d="M513.346 159.469C515.639 158.679 517.92 158.014 520.131 157.406C522.548 159.934 525.216 162.695 527.668 165.381C525.681 166.199 523.743 167.129 521.615 168.038C518.938 165.231 516.162 162.409 513.346 159.466V159.469Z" fill="#0D71C7" fill-opacity="0.15"/>
<path fill-rule="evenodd" clip-rule="evenodd" d="M520.733 156.945C522.641 156.166 524.534 155.445 526.479 154.805C528.79 157.196 531.286 159.871 533.566 162.286C531.847 163.149 530.181 164.069 528.386 164.956C525.875 162.299 523.261 159.685 520.731 156.947L520.733 156.945Z" fill="#0D71C7" fill-opacity="0.15"/>
<path fill-rule="evenodd" clip-rule="evenodd" d="M527.368 154.266C529.124 153.612 530.699 153.035 532.327 152.539C534.583 154.77 536.794 156.951 538.961 159.276C537.507 159.975 536.104 160.821 534.635 161.747C532.235 159.289 529.853 156.744 527.37 154.266H527.368Z" fill="#0D71C7" fill-opacity="0.15"/>
<path fill-rule="evenodd" clip-rule="evenodd" d="M399.537 146.592C405.769 145.956 411.768 145.473 417.521 144.844C421.775 149.421 426.114 154.108 430.441 158.73C424.891 159.661 419.349 160.775 413.125 162.035C408.586 156.787 404.095 151.567 399.537 146.592Z" fill="#0D71C7" fill-opacity="0.15"/>
<path fill-rule="evenodd" clip-rule="evenodd" d="M420.132 144.425C425.556 143.743 430.857 143.282 435.618 142.648C439.787 146.925 443.91 151.298 447.781 155.581C443.068 156.494 438.205 157.416 432.952 158.255C428.783 153.769 424.388 148.987 420.132 144.425Z" fill="#0D71C7" fill-opacity="0.15"/>
<path fill-rule="evenodd" clip-rule="evenodd" d="M437.98 142.39C442.928 141.913 447.365 141.491 451.669 141.078C455.396 144.861 459.307 148.916 463.027 152.801C458.889 153.58 454.609 154.367 450.102 155.322C446.181 150.903 442.045 146.54 437.98 142.39Z" fill="#0D71C7" fill-opacity="0.15"/>
<path fill-rule="evenodd" clip-rule="evenodd" d="M453.699 140.844C457.912 140.441 461.911 140.196 465.73 139.844C469.227 143.371 472.945 147.273 476.32 150.744C472.684 151.356 468.872 151.811 464.966 152.425C461.4 148.705 457.425 144.65 453.697 140.844H453.699Z" fill="#0D71C7" fill-opacity="0.15"/>
<path fill-rule="evenodd" clip-rule="evenodd" d="M467.6 139.709C471.286 139.3 474.73 138.8 478.188 138.664C481.436 141.895 484.763 145.258 488.047 148.733C484.948 149.268 481.65 149.88 478.092 150.54C474.669 146.887 471.04 143.23 467.6 139.709Z" fill="#0D71C7" fill-opacity="0.15"/>
<path fill-rule="evenodd" clip-rule="evenodd" d="M479.791 138.606C483.011 138.299 485.981 138.015 488.995 137.816C492.165 140.878 495.351 144.029 498.105 146.955C495.464 147.483 492.635 148.028 489.511 148.42C486.332 145.029 483.168 141.826 479.793 138.606H479.791Z" fill="#0D71C7" fill-opacity="0.15"/>
<path fill-rule="evenodd" clip-rule="evenodd" d="M490.35 137.716C493.238 137.422 496.051 137.234 498.571 136.961C501.484 139.796 504.352 142.719 507.188 145.543C504.814 146.1 502.092 146.383 499.535 146.76C496.545 143.801 493.584 140.778 490.35 137.718V137.716Z" fill="#0D71C7" fill-opacity="0.15"/>
<path fill-rule="evenodd" clip-rule="evenodd" d="M500.021 137.004C502.582 136.777 504.967 136.55 507.228 136.34C509.704 138.902 512.313 141.479 514.941 143.99C512.781 144.353 510.489 144.905 508.307 145.392C505.585 142.564 502.876 139.878 500.021 137.004Z" fill="#0D71C7" fill-opacity="0.15"/>
<path fill-rule="evenodd" clip-rule="evenodd" d="M508.614 136.194C510.803 136.04 512.759 135.785 514.763 135.688C517.15 137.953 519.548 140.31 521.957 142.701C520.108 143.043 518.367 143.456 516.395 143.781C513.823 141.264 511.154 138.691 508.614 136.192V136.194Z" fill="#0D71C7" fill-opacity="0.15"/>
<path fill-rule="evenodd" clip-rule="evenodd" d="M515.911 135.483C517.795 135.256 519.449 135.052 521.207 134.898C523.49 137.125 525.785 139.283 528.035 141.6C526.49 141.975 524.828 142.247 523.102 142.685C520.748 140.276 518.294 137.85 515.909 135.483H515.911Z" fill="#0D71C7" fill-opacity="0.15"/>
<path fill-rule="evenodd" clip-rule="evenodd" d="M521.95 134.856C523.538 134.594 524.896 134.258 526.306 133.992C528.369 136.054 530.497 138.145 532.414 140.082C531.169 140.452 529.751 140.809 528.441 141.246C526.304 139.11 524.065 136.942 521.95 134.856Z" fill="#0D71C7" fill-opacity="0.15"/>
<path fill-rule="evenodd" clip-rule="evenodd" d="M527.205 133.81C528.441 133.566 529.786 133.492 530.904 133.191C532.858 135.117 534.825 137.026 536.629 138.865C535.621 139.205 534.61 139.575 533.426 139.893C531.455 137.963 529.322 135.963 527.203 133.81H527.205Z" fill="#0D71C7" fill-opacity="0.15"/>
<path fill-rule="evenodd" clip-rule="evenodd" d="M541.255 134.969C541.635 134.645 541.955 134.14 542.227 133.781C543.526 135.155 544.825 136.365 545.909 137.581C545.928 138.179 545.72 138.707 545.456 139.217C544.033 137.808 542.726 136.462 541.257 134.969H541.255Z" fill="#0D71C7" fill-opacity="0.15"/>
<path fill-rule="evenodd" clip-rule="evenodd" d="M515.922 123.751C512.815 123.093 509.762 122.433 506.256 121.74C505.432 121.32 504.655 121.128 503.663 120.758C507.384 121.667 510.769 122.387 514.042 123.16C514.808 123.677 515.319 123.439 515.922 123.751Z" fill="#0D71C7" fill-opacity="0.15"/>
<path fill-rule="evenodd" clip-rule="evenodd" d="M494.766 120.284C490.366 119.903 485.914 119.914 481.068 119.694C480.159 119.609 479.132 119.533 478.07 119.211C483.131 119.694 487.768 119.585 492.242 119.854C493.295 120.245 494.098 120.105 494.766 120.286V120.284Z" fill="#0D71C7" fill-opacity="0.15"/>
<path fill-rule="evenodd" clip-rule="evenodd" d="M406.573 129.428C412.185 129.071 417.753 128.871 422.782 128.547C426.812 132.578 430.793 136.679 434.68 140.854C429.708 141.353 424.409 141.836 419.133 142.448C414.972 137.956 410.668 133.498 406.576 129.425L406.573 129.428Z" fill="#0D71C7" fill-opacity="0.15"/>
<path fill-rule="evenodd" clip-rule="evenodd" d="M425.23 128.406C430.252 128.326 435.02 128.224 439.496 128.031C443.127 131.758 447.122 135.659 450.641 139.379C446.406 139.795 441.806 140.117 437.056 140.505C433.209 136.443 429.156 132.338 425.23 128.408V128.406Z" fill="#0D71C7" fill-opacity="0.15"/>
<path fill-rule="evenodd" clip-rule="evenodd" d="M441.65 128.012C446.085 127.903 450.252 127.91 454.362 127.812C457.852 131.134 461.333 134.668 464.715 138.308C460.855 138.518 456.862 138.797 452.699 139.284C449.235 135.581 445.295 131.662 441.648 128.009L441.65 128.012Z" fill="#0D71C7" fill-opacity="0.15"/>
<path fill-rule="evenodd" clip-rule="evenodd" d="M456.278 127.696C460.193 127.616 463.842 127.685 467.384 127.57C470.733 130.78 473.99 133.978 477.156 137.152C473.821 137.3 470.33 137.719 466.592 138.124C463.185 134.649 459.705 131.059 456.278 127.696Z" fill="#0D71C7" fill-opacity="0.15"/>
<path fill-rule="evenodd" clip-rule="evenodd" d="M469.09 127.493C472.6 127.56 475.655 127.395 478.855 127.426C482.01 130.47 485.078 133.4 488.051 136.382C485.098 136.649 482.017 136.9 478.753 137.103C475.589 133.872 472.371 130.817 469.09 127.493Z" fill="#0D71C7" fill-opacity="0.15"/>
<path fill-rule="evenodd" clip-rule="evenodd" d="M480.321 127.315C483.454 127.28 486.294 127.27 489.129 127.168C492.036 129.973 494.848 132.745 497.672 135.573C495.139 136.062 492.391 136.185 489.514 136.384C486.429 133.322 483.533 130.364 480.319 127.315H480.321Z" fill="#0D71C7" fill-opacity="0.15"/>
<path fill-rule="evenodd" clip-rule="evenodd" d="M490.454 127.199C493.1 127.199 495.789 127.318 498.083 127.255C500.737 129.738 503.457 132.395 506.145 134.94C503.836 135.076 501.46 135.269 498.951 135.565C496.238 132.754 493.307 129.999 490.454 127.199Z" fill="#0D71C7" fill-opacity="0.15"/>
<path fill-rule="evenodd" clip-rule="evenodd" d="M392.515 114.473C398.418 114.535 404.115 114.62 409.437 114.752C413.321 118.643 417.194 122.384 421.02 126.243C415.784 126.418 410.277 126.68 404.748 126.918C400.603 122.733 396.445 118.489 392.515 114.475V114.473Z" fill="#0D71C7" fill-opacity="0.15"/>
<path fill-rule="evenodd" clip-rule="evenodd" d="M411.92 114.93C417.116 114.947 422.144 115.174 426.822 115.328C430.5 118.901 434.203 122.473 437.77 126.022C433.22 125.977 428.343 126.05 423.43 126.278C419.675 122.331 415.836 118.632 411.92 114.93Z" fill="#0D71C7" fill-opacity="0.15"/>
<path fill-rule="evenodd" clip-rule="evenodd" d="M429.19 115.367C433.796 115.458 438.257 115.64 442.469 115.828C445.827 119.055 449.245 122.383 452.668 125.882C448.632 125.91 444.399 125.99 440.035 126.057C436.477 122.456 432.774 118.817 429.192 115.367H429.19Z" fill="#0D71C7" fill-opacity="0.15"/>
<path fill-rule="evenodd" clip-rule="evenodd" d="M444.404 115.848C448.595 116.086 452.213 116.159 456.036 116.376C459.431 119.529 462.512 122.556 465.773 125.707C462.131 125.724 458.425 125.685 454.456 125.763C451.249 122.413 447.824 119.085 444.404 115.848Z" fill="#0D71C7" fill-opacity="0.15"/>
<path fill-rule="evenodd" clip-rule="evenodd" d="M457.995 116.539C461.477 116.606 464.887 116.704 468.279 116.903C471.421 119.93 474.428 122.804 477.344 125.632C474.304 125.786 471.034 125.807 467.474 125.73C464.325 122.566 461.175 119.601 457.995 116.539Z" fill="#0D71C7" fill-opacity="0.15"/>
<path fill-rule="evenodd" clip-rule="evenodd" d="M469.946 116.953C473.264 117.18 476.182 117.306 478.982 117.418C481.948 120.149 484.981 122.904 487.699 125.574C484.927 125.62 482.029 125.711 478.85 125.631C475.932 122.813 472.977 119.946 469.946 116.953Z" fill="#0D71C7" fill-opacity="0.15"/>
<path fill-rule="evenodd" clip-rule="evenodd" d="M480.729 117.75C483.68 117.995 486.291 118.131 488.952 118.289C491.666 120.855 494.503 123.502 497.125 126.151C494.621 125.958 491.985 125.923 489.235 125.811C486.509 123.249 483.797 120.689 480.729 117.752V117.75Z" fill="#0D71C7" fill-opacity="0.15"/>
<path fill-rule="evenodd" clip-rule="evenodd" d="M399.409 102.445C404.812 102.753 409.925 102.963 414.869 103.365C418.533 106.858 422.071 110.238 425.648 113.878C420.77 113.549 415.892 113.514 410.604 113.361C407.012 109.714 403.26 106.074 399.411 102.445H399.409Z" fill="#0D71C7" fill-opacity="0.15"/>
<path fill-rule="evenodd" clip-rule="evenodd" d="M417.343 103.719C422.183 103.939 426.63 104.355 431.117 104.827C434.527 107.962 437.83 111.159 441.211 114.413C436.853 114.05 432.61 114.039 427.896 113.892C424.345 110.421 420.777 106.889 417.343 103.719Z" fill="#0D71C7" fill-opacity="0.15"/>
<path fill-rule="evenodd" clip-rule="evenodd" d="M433.189 105C437.449 105.329 441.398 105.749 445.398 106.182C448.635 109.112 451.762 112.163 455.02 115.223C451.164 114.831 447.378 114.751 443.143 114.439C439.969 111.373 436.594 108.209 433.189 105Z" fill="#0D71C7" fill-opacity="0.15"/>
<path fill-rule="evenodd" clip-rule="evenodd" d="M447.346 106.32C451.115 106.656 454.664 106.859 458.187 107.195C461.229 110.034 464.181 112.84 467.199 115.719C463.809 115.543 460.465 115.394 456.711 115.225C453.504 112.204 450.532 109.268 447.346 106.32Z" fill="#0D71C7" fill-opacity="0.15"/>
<path fill-rule="evenodd" clip-rule="evenodd" d="M459.936 107.406C463.117 107.616 466.285 107.917 469.545 108.378C472.406 110.99 475.272 113.712 478.055 116.318C475.091 116.175 472.019 115.88 468.859 115.8C465.78 112.92 462.819 110.189 459.936 107.406Z" fill="#0D71C7" fill-opacity="0.15"/>
<path fill-rule="evenodd" clip-rule="evenodd" d="M479.282 110.414C482.08 110.76 484.761 111.078 487.222 111.295C489.75 113.617 492.448 116.077 495.051 118.52C492.577 118.3 490.029 118.241 487.487 118.083C484.904 115.549 482.113 112.989 479.282 110.416V110.414Z" fill="#0D71C7" fill-opacity="0.15"/>
<path fill-rule="evenodd" clip-rule="evenodd" d="M488.733 111.422C491.131 111.632 493.418 111.785 495.637 112.065C497.961 114.302 500.304 116.393 502.539 118.578C500.576 118.55 498.335 118.39 496.196 118.323C493.807 116.096 491.216 113.67 488.733 111.422Z" fill="#0D71C7" fill-opacity="0.15"/>
<path fill-rule="evenodd" clip-rule="evenodd" d="M405.256 92.543C410.117 93.1164 414.804 93.6683 419.528 94.2309C422.874 97.3427 426.14 100.359 429.578 103.523C424.943 102.922 420.594 102.66 415.635 102.125C412.247 98.8489 408.726 95.763 405.256 92.543Z" fill="#0D71C7" fill-opacity="0.15"/>
<path fill-rule="evenodd" clip-rule="evenodd" d="M421.696 94.4592C426.024 94.9309 430.372 95.5434 434.504 96.0606C437.57 98.9517 440.764 101.871 443.965 104.864C439.918 104.416 436.01 104.102 431.643 103.738C428.211 100.525 424.934 97.5364 421.696 94.457V94.4592Z" fill="#0D71C7" fill-opacity="0.15"/>
<path fill-rule="evenodd" clip-rule="evenodd" d="M436.481 96.2891C440.324 96.7262 444.093 97.2434 447.957 97.8233C450.901 100.585 453.714 103.112 456.789 105.941C453.271 105.605 449.678 105.322 445.899 105.071C442.759 102.06 439.512 99.072 436.481 96.2891Z" fill="#0D71C7" fill-opacity="0.15"/>
<path fill-rule="evenodd" clip-rule="evenodd" d="M449.639 98.0859C453.051 98.6075 456.461 99.0576 459.699 99.4947C462.512 102.074 465.454 104.662 468.25 107.203C465.038 106.874 461.877 106.528 458.543 106.151C455.46 103.362 452.542 100.722 449.639 98.0859Z" fill="#0D71C7" fill-opacity="0.15"/>
<path fill-rule="evenodd" clip-rule="evenodd" d="M470.137 101.719C473.072 102.191 475.79 102.515 478.342 102.844C480.979 105.257 483.64 107.633 486.141 110.063C483.63 109.801 481.06 109.542 478.209 109.178C475.557 106.713 472.915 104.294 470.137 101.721V101.719Z" fill="#0D71C7" fill-opacity="0.15"/>
<path fill-rule="evenodd" clip-rule="evenodd" d="M480.233 103.565C482.832 103.911 485.147 104.274 487.508 104.712C489.962 106.897 492.371 109.061 494.949 111.39C492.734 111.1 490.338 110.918 487.943 110.719C485.434 108.321 482.884 105.947 480.231 103.562L480.233 103.565Z" fill="#0D71C7" fill-opacity="0.15"/>
<path fill-rule="evenodd" clip-rule="evenodd" d="M394.825 81.049C399.95 81.8519 404.789 82.5682 409.441 83.371C412.783 86.1496 415.954 89.0061 419.383 92.1352C414.694 91.4189 409.959 90.9082 405.122 90.2828C401.673 87.0974 398.268 84.0743 394.828 81.0469L394.825 81.049Z" fill="#0D71C7" fill-opacity="0.15"/>
<path fill-rule="evenodd" clip-rule="evenodd" d="M411.651 83.6016C416.231 84.3893 420.605 85.0038 424.896 85.7461C427.868 88.5009 430.982 91.1582 434.137 94.045C429.974 93.4434 425.677 92.9154 421.331 92.2554C418.148 89.3643 414.967 86.5468 411.651 83.6016Z" fill="#0D71C7" fill-opacity="0.15"/>
<path fill-rule="evenodd" clip-rule="evenodd" d="M399.785 73.3594C404.444 74.1795 408.909 75.0798 413.274 75.8934C416.414 78.6698 419.484 81.3337 422.559 84.0063C418.44 83.3008 413.968 82.6191 409.277 81.8228C406.178 79.068 402.945 76.2202 399.783 73.3594H399.785Z" fill="#0D71C7" fill-opacity="0.15"/>
<path fill-rule="evenodd" clip-rule="evenodd" d="M349.112 76.2773C355.814 77.2014 362.054 78.0605 367.99 78.6772C371.939 82.0769 375.556 85.5652 379.055 88.8372C373.293 88.3546 367.157 87.6621 360.651 86.9632C356.95 83.4337 353.1 79.8566 349.114 76.2795L349.112 76.2773Z" fill="#0D71C7" fill-opacity="0.15"/>
<path fill-rule="evenodd" clip-rule="evenodd" d="M529.968 142.24C531.391 141.849 532.694 141.433 533.939 141.098C535.871 143.006 537.869 144.954 539.762 147.096C538.8 147.596 537.666 148.198 536.47 148.743C534.402 146.659 532.179 144.38 529.968 142.24Z" fill="#0D71C7" fill-opacity="0.15"/>
<path fill-rule="evenodd" clip-rule="evenodd" d="M524.636 143.586C526.305 143.194 527.852 142.768 529.338 142.383C531.608 144.677 533.775 146.882 535.84 148.977C534.639 149.634 533.316 150.249 531.871 150.879C529.521 148.442 527.071 145.949 524.636 143.586Z" fill="#0D71C7" fill-opacity="0.15"/>
<path fill-rule="evenodd" clip-rule="evenodd" d="M518.44 144.993C520.355 144.653 522.096 144.181 523.774 143.703C526.319 146.276 528.77 148.713 531.059 151.093C529.492 151.6 527.917 152.195 526.047 152.666C523.534 150.1 520.921 147.52 518.438 144.993H518.44Z" fill="#0D71C7" fill-opacity="0.15"/>
<path fill-rule="evenodd" clip-rule="evenodd" d="M510.53 146.57C512.769 146.087 514.942 145.576 517.101 145.234C519.64 147.751 522.301 150.573 524.871 153.237C522.928 153.765 521.033 154.537 519.072 155.303C516.283 152.304 513.337 149.454 510.53 146.567V146.57Z" fill="#0D71C7" fill-opacity="0.15"/>
<path fill-rule="evenodd" clip-rule="evenodd" d="M501.939 147.986C504.556 147.595 507.161 147.203 509.354 146.703C512.218 149.542 515.162 152.429 518.008 155.405C515.795 156.125 513.46 156.751 511.049 157.432C508.164 154.342 505.126 151.219 501.939 147.986Z" fill="#0D71C7" fill-opacity="0.15"/>
<path fill-rule="evenodd" clip-rule="evenodd" d="M492.139 149.858C495.153 149.392 497.921 148.869 500.562 148.312C503.861 151.658 506.951 154.872 509.836 157.916C507.412 158.609 504.788 159.472 502.094 160.284C498.71 156.711 495.581 153.428 492.139 149.855V149.858Z" fill="#0D71C7" fill-opacity="0.15"/>
<path fill-rule="evenodd" clip-rule="evenodd" d="M481.075 152.179C484.502 151.594 487.685 150.934 490.79 150.305C494.11 153.832 497.413 157.227 500.738 160.737C497.892 161.664 494.852 162.566 491.739 163.475C488.218 159.64 484.552 155.797 481.075 152.179Z" fill="#0D71C7" fill-opacity="0.15"/>
<path fill-rule="evenodd" clip-rule="evenodd" d="M467.076 154.209C471.01 153.425 474.776 152.839 478.279 152.328C481.874 155.907 485.521 159.824 489.094 163.648C485.78 164.438 482.203 165.288 478.634 166.466C474.704 162.155 470.964 158.151 467.073 154.209H467.076Z" fill="#0D71C7" fill-opacity="0.15"/>
<path fill-rule="evenodd" clip-rule="evenodd" d="M452.684 156.751C457.117 155.887 461.481 154.911 465.311 154.156C469.236 158.274 473.21 162.334 476.961 166.543C473.181 167.696 469.182 168.956 464.817 169.986C460.818 165.543 456.786 161.233 452.684 156.753V156.751Z" fill="#0D71C7" fill-opacity="0.15"/>
<path fill-rule="evenodd" clip-rule="evenodd" d="M435.573 159.805C440.706 158.913 445.798 158.141 450.196 156.875C454.336 161.437 458.569 166.037 462.496 170.517C458.131 171.778 453.547 173.062 448.692 174.282C444.253 169.307 440.004 164.598 435.571 159.805H435.573Z" fill="#0D71C7" fill-opacity="0.15"/>
<path fill-rule="evenodd" clip-rule="evenodd" d="M416.188 163.898C422.22 162.653 427.766 161.541 432.98 160.359C437.456 165.272 441.977 170.18 446.395 175.297C440.955 176.801 435.937 178.678 430.18 180.147C425.423 174.683 420.721 169.243 416.188 163.898Z" fill="#0D71C7" fill-opacity="0.15"/>
<path fill-rule="evenodd" clip-rule="evenodd" d="M393.781 169.02C400.835 167.64 407.087 166.335 413.391 164.965C418.095 170.36 422.788 175.852 427.488 181.221C421.602 183.164 415.368 185.066 408.828 187.014C403.653 180.714 398.736 174.792 393.781 169.02Z" fill="#0D71C7" fill-opacity="0.15"/>
<path fill-rule="evenodd" clip-rule="evenodd" d="M160.576 137.833C165.017 134.288 169.365 130.711 173.338 127.445C179.757 131.074 186.148 134.455 192.602 138.287C189 142.041 185.434 145.978 181.124 150.005C174.165 145.898 167.211 141.814 160.579 137.833H160.576Z" fill="#0D71C7" fill-opacity="0.15"/>
<path fill-rule="evenodd" clip-rule="evenodd" d="M378.419 130.556C380.186 128.779 381.911 127.126 383.706 125.711C386.206 127.459 388.811 129.323 391.383 131.095C389.786 132.776 388.278 134.583 386.657 136.615C383.889 134.549 381.128 132.497 378.417 130.556H378.419Z" fill="#0D71C7" fill-opacity="0.15"/>
<path fill-rule="evenodd" clip-rule="evenodd" d="M448.34 64.9223C449.027 63.8749 449.658 62.7842 450.239 61.6914C452.489 63.5503 454.891 65.5628 457.25 67.5234C456.882 68.7807 456.362 69.9298 455.775 71.1611C453.307 69.0901 450.798 66.9846 448.342 64.9223H448.34Z" fill="#0D71C7" fill-opacity="0.15"/>
<path fill-rule="evenodd" clip-rule="evenodd" d="M83.0876 246.62C88.6384 242.281 93.8737 238.124 98.9588 234.465C105.58 236.499 112.077 238.908 118.895 241.206C113.951 245.205 109.085 249.526 104.085 254.183C96.9743 251.513 89.7002 249.106 83.0854 246.618L83.0876 246.62Z" fill="#0D71C7" fill-opacity="0.15"/>
<path fill-rule="evenodd" clip-rule="evenodd" d="M432.498 78.9963C433.044 78.3969 433.475 77.8126 433.904 77.25C435.366 78.3104 436.837 79.3512 438.258 80.39C437.929 81.0327 437.59 81.7879 437.209 82.4198C435.636 81.2837 434.121 80.1563 432.498 78.9942V78.9963Z" fill="#0D71C7" fill-opacity="0.15"/>
<path fill-rule="evenodd" clip-rule="evenodd" d="M382.11 51.5751C383.429 51.0147 384.677 50.5191 385.913 50.0625C387.778 51.3284 389.641 52.6377 391.547 54.0183C390.507 54.6437 389.364 55.1998 388.065 55.9183C386.124 54.4057 384.116 52.9926 382.11 51.5773V51.5751Z" fill="#0D71C7" fill-opacity="0.15"/>
<path fill-rule="evenodd" clip-rule="evenodd" d="M101.667 102.927C106.893 100.78 111.752 98.9064 116.369 97.1406C122.34 99.6119 127.993 101.979 133.402 104.49C129.231 106.569 124.838 108.699 119.923 111.317C113.612 108.38 107.481 105.468 101.667 102.927Z" fill="#0D71C7" fill-opacity="0.15"/>
<path fill-rule="evenodd" clip-rule="evenodd" d="M403.486 48.2278C404.282 47.8535 404.878 47.3622 405.509 46.9922C407.028 47.9833 408.475 49.1021 409.938 50.1819C409.402 50.6558 408.908 51.2163 408.262 51.6491C406.806 50.539 405.148 49.3639 403.486 48.2278Z" fill="#0D71C7" fill-opacity="0.15"/>
<path fill-rule="evenodd" clip-rule="evenodd" d="M436.712 40.0532C437.134 39.7459 437.595 39.51 438.011 39.2266C439.106 40.0727 440.304 40.9469 441.355 41.7541C440.992 42.083 440.677 42.4163 440.352 42.7972C439.153 41.8948 437.909 40.9751 436.712 40.0532Z" fill="#0D71C7" fill-opacity="0.15"/>
<path fill-rule="evenodd" clip-rule="evenodd" d="M516.934 123.377C517.113 122.923 517.348 122.468 517.47 122.031C518.344 122.629 519.16 123.31 520.035 123.933C519.968 124.461 519.846 124.961 519.724 125.461C518.738 124.762 517.861 124.07 516.934 123.377Z" fill="#0D71C7" fill-opacity="0.15"/>
<path fill-rule="evenodd" clip-rule="evenodd" d="M79.073 173.372C82.7938 171.595 85.8053 169.918 88.9822 168.312C93.6473 169.63 98.1145 170.823 102.566 172.112C99.8356 173.759 96.7437 175.679 93.4711 177.497C88.5949 176.172 83.8187 174.731 79.073 173.372Z" fill="#0D71C7" fill-opacity="0.15"/>
<path fill-rule="evenodd" clip-rule="evenodd" d="M352.89 42.9766C354.195 42.5915 355.529 42.3274 356.658 41.9336C358.475 43.1173 360.394 44.3465 362.113 45.4869C361.019 45.9673 359.994 46.3763 358.784 46.8264C356.976 45.5864 354.861 44.2188 352.89 42.9766Z" fill="#0D71C7" fill-opacity="0.15"/>
<path fill-rule="evenodd" clip-rule="evenodd" d="M400.998 13.7135C401.827 13.5598 402.656 13.4278 403.47 13.3867C404.836 14.2523 406.138 15.2413 407.445 16.1891C406.671 16.3233 405.892 16.4704 405.111 16.6414C403.714 15.62 402.356 14.6483 400.998 13.7135Z" fill="#0D71C7" fill-opacity="0.15"/>
<path fill-rule="evenodd" clip-rule="evenodd" d="M421.639 49.5642C422.392 49.3262 423.134 49.1574 423.828 48.9453C424.997 49.7849 426.32 50.7068 427.547 51.5378C426.848 51.7845 426.204 52.0139 425.502 52.2649C424.179 51.3474 422.958 50.4839 421.637 49.5642H421.639Z" fill="#0D71C7" fill-opacity="0.15"/>
<path fill-rule="evenodd" clip-rule="evenodd" d="M548.625 146.543C548.838 146.197 548.997 145.924 549.212 145.578C549.902 146.05 550.589 146.526 551.223 146.97C551.068 147.327 550.968 147.662 550.753 147.952C550.061 147.504 549.312 147.022 548.625 146.543Z" fill="#0D71C7" fill-opacity="0.15"/>
<path fill-rule="evenodd" clip-rule="evenodd" d="M439.377 68.8682C440.13 68.6215 440.835 68.338 441.527 68.1562C442.628 68.9028 443.838 69.7035 445 70.4479C444.302 70.6946 443.603 70.9543 442.952 71.2486C441.797 70.4631 440.585 69.6732 439.377 68.8682Z" fill="#0D71C7" fill-opacity="0.15"/>
<path fill-rule="evenodd" clip-rule="evenodd" d="M322.251 79.1935C323.885 78.7672 325.452 78.3322 326.958 77.9297C328.94 78.9965 330.87 80.0115 332.961 81.1281C331.414 81.4808 329.895 81.9634 328.378 82.4113C326.407 81.312 324.249 80.2214 322.251 79.1935Z" fill="#0D71C7" fill-opacity="0.15"/>
<path fill-rule="evenodd" clip-rule="evenodd" d="M553.902 139.063C554.104 138.711 554.368 138.405 554.572 138.133C555.249 138.563 555.873 139.014 556.5 139.518C556.298 139.819 556.091 140.132 555.889 140.483C555.205 140 554.524 139.518 553.902 139.063Z" fill="#0D71C7" fill-opacity="0.15"/>
<path fill-rule="evenodd" clip-rule="evenodd" d="M457.609 85.7698C458.308 85.5253 459.013 85.2028 459.655 84.9453C460.736 85.6659 461.711 86.3259 462.742 87.0292C462.155 87.3019 461.563 87.6092 460.914 87.9381C459.831 87.1894 458.743 86.5359 457.609 85.7676V85.7698Z" fill="#0D71C7" fill-opacity="0.15"/>
<path fill-rule="evenodd" clip-rule="evenodd" d="M448.744 57.1241C449.356 56.9661 449.954 56.9055 450.561 56.793C451.451 57.3989 452.385 58.0762 453.281 58.6454C452.781 58.7536 452.172 58.9094 451.662 59.0825C450.675 58.4008 449.737 57.743 448.744 57.1262V57.1241Z" fill="#0D71C7" fill-opacity="0.15"/>
<path fill-rule="evenodd" clip-rule="evenodd" d="M-0.000928879 213.242C4.96452 211.748 10.215 209.976 15.522 208.438C20.4374 209.489 25.7467 210.238 30.7383 211.158C25.9665 212.616 20.7987 214.326 16.0247 216.02C10.4478 215.083 5.28873 214.22 -0.000928879 213.244V213.242Z" fill="#0D71C7" fill-opacity="0.15"/>
<path fill-rule="evenodd" clip-rule="evenodd" d="M381.598 22.6367C382.693 22.68 383.678 22.6908 384.664 22.6995C385.819 23.4331 387.025 24.1991 388.27 25.0193C387.288 24.9738 386.39 25.0561 385.399 25.0474C384.155 24.2294 382.908 23.4028 381.6 22.6367H381.598Z" fill="#0D71C7" fill-opacity="0.15"/>
<path fill-rule="evenodd" clip-rule="evenodd" d="M540.279 143.389C540.614 143.14 540.949 142.883 541.169 142.645C541.794 143.043 542.477 143.497 543.047 143.861C542.827 144.127 542.551 144.354 542.274 144.64C541.591 144.179 540.962 143.794 540.279 143.391V143.389Z" fill="#0D71C7" fill-opacity="0.15"/>
<path fill-rule="evenodd" clip-rule="evenodd" d="M245.231 116.866C247.703 116.264 250.351 115.905 252.873 115.359C255.357 116.223 257.618 116.978 259.84 117.865C257.551 118.285 255.072 118.876 252.485 119.467C250.068 118.575 247.585 117.718 245.233 116.866H245.231Z" fill="#0D71C7" fill-opacity="0.15"/>
<path fill-rule="evenodd" clip-rule="evenodd" d="M253.672 161.701C255.902 160.309 258.108 158.924 260.328 157.719C263.435 158.911 266.603 160.313 269.793 161.666C267.728 163.04 265.676 164.38 263.602 165.942C260.145 164.375 256.87 163.062 253.672 161.698V161.701Z" fill="#0D71C7" fill-opacity="0.15"/>
<path fill-rule="evenodd" clip-rule="evenodd" d="M547.324 154.733C547.537 154.121 547.692 153.495 547.848 152.961C548.721 153.586 549.654 154.279 550.59 154.999C550.496 155.625 550.401 156.335 550.253 156.975C549.313 156.237 548.318 155.486 547.324 154.731V154.733Z" fill="#0D71C7" fill-opacity="0.15"/>
<path fill-rule="evenodd" clip-rule="evenodd" d="M307.675 106.332C309.685 105.185 311.539 104.162 313.26 103.164C315.906 104.629 318.663 106.185 321.418 107.769C319.686 108.832 318.139 110.108 316.209 111.205C313.28 109.563 310.484 107.929 307.675 106.332Z" fill="#0D71C7" fill-opacity="0.15"/>
</g>
<defs>
<clipPath id="clip0_1278_44687">
<rect width="566" height="308" fill="white" transform="matrix(-1 0 0 1 566 0)"/>
</clipPath>
</defs>
</svg>
