<svg width="52" height="52" viewBox="0 0 52 52" fill="none" xmlns="http://www.w3.org/2000/svg">
<path d="M33.1324 42.6406C41.021 34.9986 44.7187 26.8634 44.7187 19.5912C44.7187 13.6747 40.2814 9.36063 35.8441 9.36063C31.8998 9.36063 28.695 12.5654 28.695 16.5097C28.695 21.5633 32.3928 24.1517 37.8162 24.1517C37.8162 30.1914 35.9673 33.766 30.1742 39.6824L33.1324 42.6406ZM12.5481 42.6406C20.4367 34.9986 24.1345 26.8634 24.1345 19.5912C24.1345 13.6747 19.6971 9.36063 15.2598 9.36063C11.3155 9.36063 8.11074 12.5654 8.11074 16.5097C8.11074 21.5633 11.8085 24.1517 17.2319 24.1517C17.2319 30.1914 15.383 33.766 9.58985 39.6824L12.5481 42.6406Z" fill="#FBC17B"/>
</svg>
