<svg width="52" height="52" viewBox="0 0 52 52" fill="none" xmlns="http://www.w3.org/2000/svg">
<path d="M18.8676 42.6406C10.979 34.9986 7.28125 26.8634 7.28125 19.5912C7.28125 13.6747 11.7186 9.36063 16.1559 9.36063C20.1002 9.36063 23.305 12.5654 23.305 16.5097C23.305 21.5633 19.6072 24.1517 14.1838 24.1517C14.1838 30.1914 16.0327 33.766 21.8258 39.6824L18.8676 42.6406ZM39.4519 42.6406C31.5633 34.9986 27.8655 26.8634 27.8655 19.5912C27.8655 13.6747 32.3029 9.36063 36.7402 9.36063C40.6845 9.36063 43.8893 12.5654 43.8893 16.5097C43.8893 21.5633 40.1915 24.1517 34.7681 24.1517C34.7681 30.1914 36.617 33.766 42.4101 39.6824L39.4519 42.6406Z" fill="#FBC17B"/>
</svg>
