<svg width="60" height="60" viewBox="0 0 60 60" fill="none" xmlns="http://www.w3.org/2000/svg">
<g clip-path="url(#clip0_1278_44311)">
<path d="M60 30C60 46.5688 46.5688 60 30 60C13.4312 60 0 46.5688 0 30C0 13.4312 13.4312 0 30 0C46.5688 0 60 13.4312 60 30Z" fill="#60B0FF"/>
<path d="M59.9982 30.0011C59.9982 28.6072 59.9011 27.2357 59.7166 25.8922L45.8739 10L14.4141 50.3006L25.881 59.7186C27.2273 59.9031 28.6011 60.0011 29.9982 60.0011C46.5669 60.0011 59.9982 46.5698 59.9982 30.0011Z" fill="#4190DD"/>
<path d="M43.1247 51.2534H16.8765C14.8587 51.2534 13.2227 49.6178 13.2227 47.5999V12.4034C13.2227 10.3856 14.8587 8.75 16.8765 8.75H43.1247C45.1425 8.75 46.7786 10.3856 46.7786 12.4034V47.5999C46.7786 49.6178 45.1425 51.2534 43.1247 51.2534Z" fill="#FFC268"/>
<path d="M43.1237 8.75H29.9492V51.2534H43.1237C45.1415 51.2534 46.7775 49.6178 46.7775 47.5999V12.4034C46.7775 10.3856 45.1415 8.75 43.1237 8.75Z" fill="#EEA333"/>
<path d="M17.082 12.4805H42.9164V45.6445H17.082V12.4805Z" fill="white"/>
<path d="M29.9531 12.4805H42.9156V45.6445H29.9531V12.4805Z" fill="#FBFBFA"/>
<path d="M19.4883 24.7109H40.5152V28.2266H19.4883V24.7109Z" fill="#C5E2FF"/>
<path d="M19.4883 30.7617H40.5152V34.2773H19.4883V30.7617Z" fill="#C5E2FF"/>
<path d="M19.4883 36.8125H40.5152V40.3281H19.4883V36.8125Z" fill="#C5E2FF"/>
<path d="M29.9531 24.7109H40.5119V28.2266H29.9531V24.7109Z" fill="#94BAE0"/>
<path d="M29.9531 30.7578H40.5119V34.2734H29.9531V30.7578Z" fill="#94BAE0"/>
<path d="M29.9531 36.8125H40.5119V40.3281H29.9531V36.8125Z" fill="#94BAE0"/>
<path d="M40.5125 20.3371L37.1566 18.1696L33.8008 20.3371V12.4805H40.5125V20.3371Z" fill="#4190DD"/>
<path d="M40.5117 12.4805H37.1562V18.17L40.5117 20.3371V12.4805Z" fill="#2882CD"/>
</g>
<defs>
<clipPath id="clip0_1278_44311">
<rect width="60" height="60" fill="white"/>
</clipPath>
</defs>
</svg>
