<svg width="60" height="60" viewBox="0 0 60 60" fill="none" xmlns="http://www.w3.org/2000/svg">
<g clip-path="url(#clip0_753_48154)">
<path d="M60 30C60 46.5688 46.5688 60 30 60C13.4312 60 0 46.5688 0 30C0 13.4312 13.4312 0 30 0C46.5688 0 60 13.4312 60 30Z" fill="#60B0FF"/>
<path d="M59.9982 29.9991C59.9982 28.6052 59.9011 27.2338 59.7166 25.8902L45.8739 9.99805L14.4141 50.2986L25.881 59.7167C27.2273 59.9012 28.6011 59.9991 29.9982 59.9991C46.5669 59.9991 59.9982 46.5679 59.9982 29.9991Z" fill="#4190DD"/>
<path d="M43.1247 51.2514H16.8765C14.8587 51.2514 13.2227 49.6158 13.2227 47.598V12.4015C13.2227 10.3836 14.8587 8.74805 16.8765 8.74805H43.1247C45.1425 8.74805 46.7786 10.3836 46.7786 12.4015V47.598C46.7786 49.6158 45.1425 51.2514 43.1247 51.2514Z" fill="#FFC268"/>
<path d="M43.1237 8.74805H29.9492V51.2514H43.1237C45.1415 51.2514 46.7775 49.6158 46.7775 47.598V12.4015C46.7775 10.3836 45.1415 8.74805 43.1237 8.74805Z" fill="#EEA333"/>
<path d="M17.082 12.4805H42.9164V45.6445H17.082V12.4805Z" fill="white"/>
<path d="M29.9531 12.4805H42.9156V45.6445H29.9531V12.4805Z" fill="#FBFBFA"/>
<path d="M19.4883 24.709H40.5152V28.2246H19.4883V24.709Z" fill="#C5E2FF"/>
<path d="M19.4883 30.7598H40.5152V34.2754H19.4883V30.7598Z" fill="#C5E2FF"/>
<path d="M19.4883 36.8086H40.5152V40.3242H19.4883V36.8086Z" fill="#C5E2FF"/>
<path d="M29.9531 24.709H40.5119V28.2246H29.9531V24.709Z" fill="#94BAE0"/>
<path d="M29.9531 30.7598H40.5119V34.2754H29.9531V30.7598Z" fill="#94BAE0"/>
<path d="M29.9531 36.8105H40.5119V40.3262H29.9531V36.8105Z" fill="#94BAE0"/>
<path d="M40.5125 20.3371L37.1566 18.1696L33.8008 20.3371V12.4805H40.5125V20.3371Z" fill="#4190DD"/>
<path d="M40.5117 12.4805H37.1562V18.17L40.5117 20.3371V12.4805Z" fill="#2882CD"/>
</g>
<defs>
<clipPath id="clip0_753_48154">
<rect width="60" height="60" fill="white"/>
</clipPath>
</defs>
</svg>
