<svg width="60" height="60" viewBox="0 0 60 60" fill="none" xmlns="http://www.w3.org/2000/svg">
<g clip-path="url(#clip0_1278_44242)">
<path d="M30 60C46.5685 60 60 46.5685 60 30C60 13.4315 46.5685 0 30 0C13.4315 0 0 13.4315 0 30C0 46.5685 13.4315 60 30 60Z" fill="#60B0FF"/>
<path d="M60.0008 29.9995C60.0008 26.2837 59.3252 22.7258 58.0903 19.4416L49.6604 11.0117L10.5703 25.0616L21.6143 36.1055L17.214 40.2049L22.0566 45.0475L12.5784 47.888L24.1121 59.4218C26.0162 59.8007 27.9853 59.9995 30.0008 59.9995C46.5694 59.9995 60.0008 46.568 60.0008 29.9995Z" fill="#4190DD"/>
<path d="M40.3037 41.1855C42.3181 41.1855 43.9512 39.5525 43.9512 37.5381C43.9512 35.5236 42.3181 33.8906 40.3037 33.8906C38.2893 33.8906 36.6562 35.5236 36.6562 37.5381C36.6562 39.5525 38.2893 41.1855 40.3037 41.1855Z" fill="#BEC2D0"/>
<path d="M40.3031 42.207C36.8271 42.207 33.9188 44.6369 33.1836 47.8906H47.4226C46.6872 44.6369 43.7791 42.207 40.3031 42.207Z" fill="#BEC2D0"/>
<path d="M19.6982 41.1855C21.7127 41.1855 23.3457 39.5525 23.3457 37.5381C23.3457 35.5236 21.7127 33.8906 19.6982 33.8906C17.6838 33.8906 16.0508 35.5236 16.0508 37.5381C16.0508 39.5525 17.6838 41.1855 19.6982 41.1855Z" fill="#DCE0EA"/>
<path d="M19.6976 42.207C16.2216 42.207 13.3134 44.6369 12.5781 47.8906H26.8171C26.0819 44.6369 23.1736 42.207 19.6976 42.207Z" fill="#DCE0EA"/>
<path d="M29.9989 41.9901C32.7231 41.9901 34.9315 39.7817 34.9315 37.0575C34.9315 34.3334 32.7231 32.125 29.9989 32.125C27.2748 32.125 25.0664 34.3334 25.0664 37.0575C25.0664 39.7817 27.2748 41.9901 29.9989 41.9901Z" fill="white"/>
<path d="M30 32.125V41.9901C32.7241 41.9901 34.9325 39.7817 34.9325 37.0575C34.9325 34.3334 32.7241 32.125 30 32.125Z" fill="#E9ECF4"/>
<path d="M29.9989 43.3711C25.2982 43.3711 21.3654 46.657 20.3711 51.0571H39.6265C38.6323 46.657 34.6995 43.3711 29.9989 43.3711Z" fill="white"/>
<path d="M30 43.375V51.061H39.6278C38.6334 46.6609 34.7006 43.375 30 43.375Z" fill="#E9ECF4"/>
<path d="M49.6604 11.0117H10.5703V25.0614H16.7632L19.6979 30.7025L22.6327 25.0614H27.1806L30.0008 30.5829L33.0502 25.0614H37.3689L40.3037 30.7025L43.2384 25.0614H49.6604V11.0117Z" fill="#EEA333"/>
<path d="M30 11.0117V30.5829L33.0493 25.0614H37.368L40.3029 30.7025L43.2376 25.0614H49.6596V11.0117H30Z" fill="#FFC268"/>
<path d="M29.9997 12.6875L31.6316 16.0912L35.2806 16.6371L32.6402 19.2864L33.2635 23.0275L29.9997 21.2612L26.7359 23.0275L27.3592 19.2864L24.7188 16.6371L28.3677 16.0912L29.9997 12.6875Z" fill="white"/>
<path d="M35.2809 16.6371L31.632 16.0912L30 12.6875V21.2612L33.2638 23.0275L32.6405 19.2864L35.2809 16.6371Z" fill="#E9ECF4"/>
<path d="M42.4217 12.6875L44.0535 16.0912L47.7026 16.6371L45.0622 19.2864L45.6855 23.0275L42.4217 21.2612L39.1578 23.0275L39.7812 19.2864L37.1406 16.6371L40.7897 16.0912L42.4217 12.6875Z" fill="#E9ECF4"/>
<path d="M17.5817 12.6875L19.2137 16.0912L22.8628 16.6371L20.2222 19.2864L20.8456 23.0275L17.5817 21.2612L14.3179 23.0275L14.9412 19.2864L12.3008 16.6371L15.9499 16.0912L17.5817 12.6875Z" fill="white"/>
</g>
<defs>
<clipPath id="clip0_1278_44242">
<rect width="60" height="60" fill="white"/>
</clipPath>
</defs>
</svg>
