<svg width="60" height="60" viewBox="0 0 60 60" fill="none" xmlns="http://www.w3.org/2000/svg">
<g clip-path="url(#clip0_753_48176)">
<path d="M60 30C60 46.5688 46.5688 60 30 60C13.4312 60 0 46.5688 0 30C0 13.4312 13.4312 0 30 0C46.5688 0 60 13.4312 60 30Z" fill="#FFD29A"/>
<path d="M36.6736 13.4492L13.4883 36.7164L36.1416 59.3698C47.7807 56.9487 56.9465 47.7833 59.369 36.1447L36.6736 13.4492Z" fill="#E4AC67"/>
<path d="M30.4922 37.2526L37.2502 30.4941L50.7665 44.0105L44.0086 50.7685L30.4922 37.2526Z" fill="#FE8A2C"/>
<path d="M33.9727 33.7745L37.2525 30.4941L50.7689 44.0105L47.489 47.2904L33.9727 33.7745Z" fill="#E16C0C"/>
<path d="M37.3036 14.0469C30.8817 7.62498 20.4694 7.62498 14.0469 14.0469C7.62498 20.4689 7.62498 30.8812 14.0469 37.3036C20.4694 43.7256 30.8817 43.7256 37.3036 37.3036C43.7256 30.8812 43.7256 20.4689 37.3036 14.0469Z" fill="#2882CD"/>
<path d="M37.3049 14.0486C30.9159 7.65956 20.5782 7.62751 14.1484 13.9506L37.4028 37.205C43.7259 30.7752 43.6939 20.4376 37.3049 14.0486Z" fill="#2F558D"/>
<path d="M33.8723 17.4794C29.345 12.9522 22.0048 12.9522 17.4775 17.4794C12.9502 22.0067 12.9502 29.347 17.4775 33.8743C22.0048 38.4015 29.345 38.4015 33.8723 33.8743C38.3996 29.347 38.3996 22.0067 33.8723 17.4794Z" fill="white"/>
<path d="M33.8752 17.4785C29.3809 12.9841 22.1166 12.9535 17.582 17.3819L33.9718 33.7717C38.3997 29.237 38.3691 21.9723 33.8752 17.4785Z" fill="#E9EDF5"/>
<path d="M22.5826 33.2846L16.5625 27.2641L19.4624 24.3642L22.5826 27.4843L31.2196 18.8477L34.1196 21.7476L22.5826 33.2846Z" fill="#2882CD"/>
<path d="M25.1328 24.935L31.2197 18.8477L34.1201 21.748L28.0332 27.8349L25.1328 24.935Z" fill="#2F558D"/>
</g>
<defs>
<clipPath id="clip0_753_48176">
<rect width="60" height="60" fill="white"/>
</clipPath>
</defs>
</svg>
