<svg preserveAspectRatio="none" width="100%" height="100%" overflow="visible" style="display: block;" viewBox="0 0 72.0005 72" fill="none" xmlns="http://www.w3.org/2000/svg">
<g id="surface1">
<path id="Vector" d="M72 36C72 55.8825 55.8825 72 36 72C16.1175 72 0 55.8825 0 36C0 16.1175 16.1175 0 36 0C55.8825 0 72 16.1175 72 36Z" fill="var(--fill-0, #60B0FF)"/>
<path id="Vector_2" d="M47.8537 70.0006C61.9123 65.0996 72.0005 51.7293 72.0005 36.0001C72.0005 30.9711 70.9678 26.1838 69.1051 21.836L58.4758 11.2067L13.5027 17.5574L26.5369 30.5916L18.8399 36.8439L26.8451 44.8491L26.6737 48.9376L47.8537 70.0006Z" fill="var(--fill-0, #4A88C4)"/>
<path id="Vector_3" d="M41.4141 52.5438V48.9375H30.5859V52.5438C30.5859 54.178 29.5637 55.6381 28.0283 56.1973L11.3785 62.2606C17.8171 68.2998 26.476 72 36 72C45.524 72 54.1829 68.2998 60.6215 62.2606L43.9717 56.1973C42.4363 55.6381 41.4141 54.178 41.4141 52.5438Z" fill="var(--fill-0, #F4D4B0)"/>
<path id="Vector_4" d="M60.621 62.2606L43.9713 56.1973C42.4359 55.6381 41.4136 54.178 41.4136 52.5438V48.9375H35.9392V71.9995C35.9595 71.9995 35.9793 72 35.9996 72C45.5236 72 54.1825 68.2998 60.621 62.2606Z" fill="var(--fill-0, #F6C59A)"/>
<path id="Vector_5" d="M26.9495 33.7355C26.9495 36.3042 24.8676 38.3866 22.299 38.3866C19.7303 38.3866 17.6484 36.3042 17.6484 33.7355C17.6484 31.1675 19.7303 29.085 22.299 29.085C24.8676 29.085 26.9495 31.1675 26.9495 33.7355Z" fill="var(--fill-0, #FFE1BE)"/>
<path id="Vector_6" d="M54.7932 33.7355C54.7932 36.3042 52.7113 38.3866 50.1427 38.3866C47.5741 38.3866 45.4922 36.3042 45.4922 33.7355C45.4922 31.1675 47.5741 29.085 50.1427 29.085C52.7113 29.085 54.7932 31.1675 54.7932 33.7355Z" fill="var(--fill-0, #FAC48E)"/>
<path id="Vector_7" d="M42.1913 51.1474L39.086 52.7426C37.1485 53.738 34.8502 53.738 32.9128 52.7426L29.8075 51.1474C25.2053 48.7831 22.312 44.0442 22.312 38.8702V26.766C22.312 19.2063 28.4397 13.0781 35.9994 13.0781C43.5591 13.0781 49.6867 19.2063 49.6867 26.7654V38.8702C49.6867 44.0442 46.7934 48.7831 42.1913 51.1474Z" fill="var(--fill-0, #FFE1BE)"/>
<path id="Vector_8" d="M35.9996 13.0781C35.9793 13.0781 35.9595 13.0787 35.9392 13.0787V53.4869C37.018 53.4968 38.0991 53.2496 39.0862 52.7426L42.1915 51.1474C46.7936 48.7831 49.6869 44.0442 49.6869 38.8702V26.7654C49.6869 19.2063 43.5593 13.0781 35.9996 13.0781Z" fill="var(--fill-0, #FFD2AA)"/>
<path id="Vector_9" d="M48.1992 26.7891H51.0117V39.0234H48.1992V26.7891Z" fill="var(--fill-0, #E2AD78)"/>
<path id="Vector_10" d="M20.9669 26.7891H23.7794V39.0234H20.9669V26.7891Z" fill="var(--fill-0, #E2AD78)"/>
<path id="Vector_11" d="M51.011 32.7961L35.9888 35.2861L20.9666 32.7961V15.558H51.011V32.7961Z" fill="var(--fill-0, #2F558D)"/>
<path id="Vector_12" d="M35.8824 15.558V35.2686L35.9884 35.2861L51.0105 32.7961V15.558H35.8824Z" fill="var(--fill-0, #22416E)"/>
<path id="Vector_13" d="M55.2913 15.558H56.9101V32.9087H55.2913V15.558Z" fill="var(--fill-0, #555A66)"/>
<path id="Vector_14" d="M56.0553 15.558H56.9095V32.9087H56.0553V15.558Z" fill="var(--fill-0, #414952)"/>
<path id="Vector_15" d="M58.4978 38.3877H53.7039L54.7597 32.0519C54.869 31.3965 55.4364 30.9159 56.1011 30.9159C56.7658 30.9159 57.3327 31.3965 57.442 32.0519L58.4978 38.3877Z" fill="var(--fill-0, #FF8D2A)"/>
<path id="Vector_16" d="M57.4412 32.0519C57.3319 31.3965 56.765 30.9159 56.1003 30.9159C56.085 30.9159 56.0707 30.917 56.0553 30.9175V38.3871H58.497L57.4412 32.0519Z" fill="var(--fill-0, #FFAB61)"/>
<path id="Vector_17" d="M13.5027 11.2066H58.4753V17.5573H13.5027V11.2066Z" fill="var(--fill-0, #2E4B76)"/>
<path id="Vector_18" d="M35.8824 11.2067H58.4746V17.5574H35.8824V11.2067Z" fill="var(--fill-0, #1B3458)"/>
<path id="Vector_19" d="M10.0398 60.9401C16.5602 67.7252 25.7146 71.9594 35.7357 71.9984V67.5L22.9246 56.1094L10.0398 60.9401Z" fill="var(--fill-0, #22416E)"/>
<path id="Vector_20" d="M61.9596 60.9401C55.4392 67.7252 46.2848 71.9594 36.1406 71.9984V67.5L49.0748 56.1094L61.9596 60.9401Z" fill="var(--fill-0, #22416E)"/>
</g>
</svg>
