<svg width="566" height="308" viewBox="0 0 566 308" fill="none" xmlns="http://www.w3.org/2000/svg">
<g clip-path="url(#clip0_1251_40219)">
<path fill-rule="evenodd" clip-rule="evenodd" d="M138.534 4.66222C138.95 4.06712 139.551 4.28352 139.176 1.70836C137.777 -2.50928 139.559 2.50038 139.394 1.7841C139.187 3.0284 138.423 2.42248 137.956 2.35539C138.099 2.9137 138.293 3.81393 138.534 4.66222Z" fill="#0D71C7" fill-opacity="0.07"/>
<path fill-rule="evenodd" clip-rule="evenodd" d="M49.6826 262.732C46.447 257.354 43.8076 251.44 41.2182 246.164C39.8409 248.289 35.8938 271.541 30.4409 307.998H42.2388C45.8116 281.236 48.4684 264.64 49.6826 262.732Z" fill="#0D71C7" fill-opacity="0.07"/>
<path fill-rule="evenodd" clip-rule="evenodd" d="M39.58 247.308C36.9646 242.315 34.5341 237.561 32.0753 233.949C30.7371 235.886 25.961 264.386 19.394 307.999H30.0582C34.83 272.2 38.2984 249.357 39.58 247.308Z" fill="#0D71C7" fill-opacity="0.07"/>
<path fill-rule="evenodd" clip-rule="evenodd" d="M30.8982 232.5C28.694 229.36 26.5899 226.378 24.5119 223.543C22.0509 237.771 19.5595 251.811 17.1682 265.765C14.7355 279.935 12.3355 294.033 9.99854 307.969L10.1552 307.997H19.7423C23.3152 283.2 27.11 257.948 30.8982 232.498V232.5Z" fill="#0D71C7" fill-opacity="0.07"/>
<path fill-rule="evenodd" clip-rule="evenodd" d="M23.6479 222.068C21.8071 219.131 20.0511 216.519 18.38 214.059C15.2118 229.678 12.0481 245.127 9.00178 260.279C5.9272 275.585 2.9092 290.716 0 305.553V306.161C2.76342 306.682 5.60299 307.199 8.51872 307.671C10.897 293.625 13.4124 279.357 15.9495 264.967C18.4431 250.818 21.0977 236.534 23.6479 222.068Z" fill="#0D71C7" fill-opacity="0.07"/>
<path fill-rule="evenodd" clip-rule="evenodd" d="M17.5488 212.966C15.9734 210.614 14.7331 208.24 13.6365 205.719C9.78076 222.514 5.87933 239.161 2.26948 255.547L0 265.85V299.048C2.57629 286.088 5.25049 272.939 7.95298 259.654C11.0689 244.32 14.2914 228.694 17.551 212.968L17.5488 212.966Z" fill="#0D71C7" fill-opacity="0.07"/>
<path fill-rule="evenodd" clip-rule="evenodd" d="M12.8336 204.769C11.4976 202.657 10.2986 200.651 9.24113 198.441C6.13609 211.027 3.03976 223.505 0 235.859V260.782L1.30555 254.995C5.01114 238.558 8.88645 221.752 12.8336 204.771V204.769Z" fill="#0D71C7" fill-opacity="0.07"/>
<path fill-rule="evenodd" clip-rule="evenodd" d="M8.64928 197.519C7.59178 195.775 6.86938 193.726 6.15132 191.688C4.07767 199.452 2.02796 207.171 0 214.838V232.275C2.86351 220.815 5.77054 209.222 8.64928 197.522V197.519Z" fill="#0D71C7" fill-opacity="0.07"/>
<path fill-rule="evenodd" clip-rule="evenodd" d="M5.37887 191.142C4.66299 189.37 4.01675 187.552 3.55763 185.797L0 198.452V211.339C1.77555 204.643 3.56851 197.907 5.37887 191.142Z" fill="#0D71C7" fill-opacity="0.07"/>
<path fill-rule="evenodd" clip-rule="evenodd" d="M3.26605 184.404C2.69161 182.695 2.23684 181.059 1.84083 179.594L0 185.88V195.99L3.26605 184.404Z" fill="#0D71C7" fill-opacity="0.07"/>
<path fill-rule="evenodd" clip-rule="evenodd" d="M1.71462 178.682C1.38388 177.132 1.23592 175.574 1.02703 174.07L0 177.479V184.499L1.71462 178.682Z" fill="#0D71C7" fill-opacity="0.07"/>
<path fill-rule="evenodd" clip-rule="evenodd" d="M0.942173 173.5C0.796386 172.017 0.894303 170.353 1.04662 168.773L0 172.147V176.611L0.942173 173.5Z" fill="#0D71C7" fill-opacity="0.07"/>
<path fill-rule="evenodd" clip-rule="evenodd" d="M1.10754 167.69C1.12277 166.435 1.38606 164.97 1.64935 163.418L0 168.711V171.245L1.10754 167.69Z" fill="#0D71C7" fill-opacity="0.07"/>
<path fill-rule="evenodd" clip-rule="evenodd" d="M1.67523 163.022C1.92329 161.7 2.34107 160.428 2.82194 158.984L0.00195312 168.06V168.361L1.67741 163.022H1.67523Z" fill="#0D71C7" fill-opacity="0.07"/>
<path fill-rule="evenodd" clip-rule="evenodd" d="M3.09633 158.132C3.67948 156.877 4.32355 155.503 4.77397 154.43C3.18772 159.569 1.59277 164.709 0 169.837V168.089C1.04009 164.771 2.07583 161.456 3.09633 158.132Z" fill="#0D71C7" fill-opacity="0.07"/>
<path fill-rule="evenodd" clip-rule="evenodd" d="M5.2703 153.612C5.95354 152.42 6.86307 151.078 7.76825 149.812C5.17456 158.298 2.57433 166.778 -0.00195312 175.235V170.691C1.76054 164.999 3.52521 159.297 5.26812 153.612H5.2703Z" fill="#0D71C7" fill-opacity="0.07"/>
<path fill-rule="evenodd" clip-rule="evenodd" d="M140.499 307.999C134.226 301.905 128.264 296.236 122.606 290.449C119.125 296.169 115.485 302.07 111.853 307.999H140.499Z" fill="#0D71C7" fill-opacity="0.07"/>
<path fill-rule="evenodd" clip-rule="evenodd" d="M119.377 287.527C112.902 280.723 106.894 275.084 101.241 269.875C94.8548 278.674 88.9363 287.215 82.6914 296.683C85.4831 300.102 88.3336 303.941 91.3168 308.003H106.574C110.874 300.976 115.139 294.183 119.377 287.527Z" fill="#0D71C7" fill-opacity="0.07"/>
<path fill-rule="evenodd" clip-rule="evenodd" d="M98.5929 267.085C92.9921 262.086 88.0592 257.334 83.2701 252.762C77.6714 260.264 71.927 268.267 66.3262 276.161C70.6019 281.625 75.3214 287.213 80.1759 293.386C86.3468 284.464 92.2566 275.815 98.5929 267.085Z" fill="#0D71C7" fill-opacity="0.07"/>
<path fill-rule="evenodd" clip-rule="evenodd" d="M80.9505 250.658C76.5334 246.791 72.299 242.865 68.3345 239.219C63.3712 245.791 58.223 252.175 53.0073 258.985C56.6389 263.466 60.3423 268.197 64.2895 273.518C69.8489 265.855 75.4693 257.95 80.9527 250.658H80.9505Z" fill="#0D71C7" fill-opacity="0.07"/>
<path fill-rule="evenodd" clip-rule="evenodd" d="M54.5742 225.804C51.5344 222.794 48.5425 220.109 45.6529 217.512C41.5557 222.361 37.0798 227.696 32.9956 232.852C35.3108 235.964 37.998 239.288 40.6766 243.075C45.3287 236.986 49.872 231.675 54.5742 225.804Z" fill="#0D71C7" fill-opacity="0.07"/>
<path fill-rule="evenodd" clip-rule="evenodd" d="M43.9731 216.622C41.3903 214.094 38.777 211.8 36.5053 209.238C32.8411 213.56 28.9984 218.013 25.4277 222.335C27.3752 225.254 29.5468 228.18 31.8141 231.298C35.7764 226.442 39.9999 221.376 43.9731 216.622Z" fill="#0D71C7" fill-opacity="0.07"/>
<path fill-rule="evenodd" clip-rule="evenodd" d="M34.8602 207.76C32.7604 205.438 30.7477 203.324 28.8198 201.223C25.4711 205.033 22.0179 209.061 18.8433 212.815C20.3816 215.224 22.1985 217.665 24.1025 220.352C27.671 216.076 31.4462 211.794 34.8624 207.76H34.8602Z" fill="#0D71C7" fill-opacity="0.07"/>
<path fill-rule="evenodd" clip-rule="evenodd" d="M27.608 200.053C25.7737 198.252 24.1418 196.378 22.3989 194.641C19.4984 197.906 16.439 201.252 13.5342 204.517C14.757 206.869 16.1866 209.181 17.5009 211.667C20.8692 207.884 24.3833 203.874 27.608 200.053Z" fill="#0D71C7" fill-opacity="0.07"/>
<path fill-rule="evenodd" clip-rule="evenodd" d="M21.722 193.732C20.188 192.078 18.7911 190.159 17.5878 188.449C14.8875 191.362 12.3482 194.231 9.46289 197.332C10.6488 199.423 11.8477 201.399 13.1163 203.545C15.9515 200.382 18.8824 197.099 21.7242 193.732H21.722Z" fill="#0D71C7" fill-opacity="0.07"/>
<path fill-rule="evenodd" clip-rule="evenodd" d="M16.8131 187.102C15.5076 185.581 14.387 184.137 13.2163 182.648C10.7119 185.364 8.24001 188.158 6.07715 190.538C6.79738 192.419 7.77654 194.185 8.57075 196.206C11.2624 193.172 14.0541 190.049 16.8153 187.102H16.8131Z" fill="#0D71C7" fill-opacity="0.07"/>
<path fill-rule="evenodd" clip-rule="evenodd" d="M12.7485 182.18C11.7106 180.697 10.8642 179.09 9.95683 177.789C7.96368 179.862 5.95096 182.156 3.98828 184.372C4.57143 186.092 5.09365 187.921 5.80735 189.693C8.09642 187.172 10.3746 184.649 12.7485 182.18Z" fill="#0D71C7" fill-opacity="0.07"/>
<path fill-rule="evenodd" clip-rule="evenodd" d="M9.57205 176.911C8.67339 175.667 8.13812 174.23 7.60719 172.895C5.87734 174.701 4.0735 176.593 2.38281 178.439C2.71355 180.018 3.22925 181.574 3.55563 183.438C5.51396 181.319 7.65071 178.934 9.57422 176.911H9.57205Z" fill="#0D71C7" fill-opacity="0.07"/>
<path fill-rule="evenodd" clip-rule="evenodd" d="M7.21732 172.315C6.8126 170.924 6.3426 169.753 5.93788 168.441C4.40168 170.043 3.03521 171.612 1.42285 173.304C1.63609 174.741 1.84498 176.29 2.17572 177.786C3.92951 175.855 5.61149 174.027 7.21732 172.317V172.315Z" fill="#0D71C7" fill-opacity="0.07"/>
<path fill-rule="evenodd" clip-rule="evenodd" d="M5.74891 167.503C5.52261 166.219 5.23539 165.083 5.1897 163.727C3.78406 165.248 2.55684 166.579 1.38837 167.817C1.23605 169.418 1.27304 170.82 1.35791 172.389C2.72438 170.9 4.33239 169.095 5.74891 167.505V167.503Z" fill="#0D71C7" fill-opacity="0.07"/>
<path fill-rule="evenodd" clip-rule="evenodd" d="M26.4507 132.236C28.2262 131.282 29.893 130.384 31.7208 129.652C31.7186 129.914 31.773 130.072 31.9384 130.055C29.9974 130.964 27.9412 132.167 26.3267 133.03C26.3332 132.678 26.3332 132.576 26.4507 132.236Z" fill="#0D71C7" fill-opacity="0.07"/>
<path fill-rule="evenodd" clip-rule="evenodd" d="M4.97189 159.122C5.21124 157.902 5.38531 156.731 5.66818 155.703C4.95013 156.413 3.98837 157.452 3.20069 158.343C2.77856 159.724 2.36078 161.074 1.93213 162.472C3.08972 161.245 3.94485 160.263 4.96971 159.122H4.97189Z" fill="#0D71C7" fill-opacity="0.07"/>
<path fill-rule="evenodd" clip-rule="evenodd" d="M5.99706 154.775C6.39743 153.645 6.84784 152.498 7.29826 151.395C6.58238 152.219 6.04275 152.933 5.3247 153.729C4.57618 155.054 3.99521 156.313 3.40771 157.7C4.31942 156.627 5.04183 155.792 5.99923 154.775H5.99706Z" fill="#0D71C7" fill-opacity="0.07"/>
<path fill-rule="evenodd" clip-rule="evenodd" d="M14.483 141.418C15.5187 140.338 16.6045 139.345 17.7425 138.453C17.4531 138.856 17.1615 139.278 16.9287 139.617C15.671 140.736 14.4699 141.775 13.3188 142.844C13.7257 142.396 13.9607 142.061 14.483 141.418Z" fill="#0D71C7" fill-opacity="0.07"/>
<path fill-rule="evenodd" clip-rule="evenodd" d="M204.989 297.92C194.029 290.543 184.54 283.556 174.637 277.133C168.732 287.152 162.593 297.057 156.394 308.002H199.595C201.377 304.605 203.174 301.244 204.989 297.92Z" fill="#0D71C7" fill-opacity="0.07"/>
<path fill-rule="evenodd" clip-rule="evenodd" d="M170.198 274.286C161.488 268.147 153.341 262.267 145.802 256.879C139.478 266.29 133.216 275.667 126.98 285.623C134.3 292.399 141.791 299.943 150.354 307.268C156.918 295.731 163.742 284.963 170.198 274.286Z" fill="#0D71C7" fill-opacity="0.07"/>
<path fill-rule="evenodd" clip-rule="evenodd" d="M142.194 254.367C134.97 250.186 128.577 245.575 122.36 241.281C116.625 248.959 110.7 257.009 104.973 265.408C110.804 270.872 116.786 276.448 123.49 282.845C129.878 272.826 135.849 263.387 142.194 254.367Z" fill="#0D71C7" fill-opacity="0.07"/>
<path fill-rule="evenodd" clip-rule="evenodd" d="M119.53 239C113.541 235.144 108.082 231.236 102.823 227.953C97.5594 234.525 91.9585 241.976 86.6123 249.576C91.5081 253.876 96.726 258.072 102.357 262.889C107.869 254.865 113.755 246.89 119.53 239Z" fill="#0D71C7" fill-opacity="0.07"/>
<path fill-rule="evenodd" clip-rule="evenodd" d="M100.316 226.352C95.3074 223.38 90.7815 220.217 86.2925 217.633C81.301 223.499 76.5161 229.6 71.418 236.154C75.426 239.647 79.8366 243.209 84.2624 247.167C89.5543 240.227 95.0397 232.876 100.316 226.352Z" fill="#0D71C7" fill-opacity="0.07"/>
<path fill-rule="evenodd" clip-rule="evenodd" d="M40.6178 126.309C39.4537 126.19 38.4006 126.065 37.4606 125.883C35.5327 127.781 33.7637 129.551 31.875 131.351C32.8172 131.481 33.7049 131.788 34.7059 132.022C36.6511 130.187 38.529 128.278 40.6178 126.309Z" fill="#0D71C7" fill-opacity="0.07"/>
<path fill-rule="evenodd" clip-rule="evenodd" d="M70.5954 207.044C67.0508 204.925 63.8414 202.681 60.5427 200.621C56.4563 205.477 52.2481 210.357 48.1182 215.319C51.0622 217.689 54.115 220.311 57.4006 222.947C61.7503 217.598 66.113 212.365 70.5954 207.044Z" fill="#0D71C7" fill-opacity="0.07"/>
<path fill-rule="evenodd" clip-rule="evenodd" d="M58.7017 199.961C55.7621 197.899 52.7963 196.042 49.9763 194.145C46.4665 198.189 42.7958 202.42 39.2729 206.691C41.6708 209.083 44.2188 211.348 46.8691 213.813C50.7618 209.314 54.7263 204.629 58.7017 199.961Z" fill="#0D71C7" fill-opacity="0.07"/>
<path fill-rule="evenodd" clip-rule="evenodd" d="M48.2205 193.02C45.5724 191.413 43.44 189.532 41.0857 188C37.7413 191.731 34.3664 195.423 31.2026 199.103C33.1305 201.12 35.2694 203.09 37.5628 205.299C41.2075 200.858 44.7651 196.864 48.2183 193.02H48.2205Z" fill="#0D71C7" fill-opacity="0.07"/>
<path fill-rule="evenodd" clip-rule="evenodd" d="M39.7541 186.978C37.5477 185.433 35.5436 183.866 33.4374 182.656C30.5151 185.82 27.4449 189.114 24.3398 192.816C26.0197 194.56 27.78 196.263 29.7448 198.246C32.9717 194.593 36.4097 190.624 39.7541 186.978Z" fill="#0D71C7" fill-opacity="0.07"/>
<path fill-rule="evenodd" clip-rule="evenodd" d="M32.6934 181.993C30.8482 180.528 29.077 179.295 27.5582 177.875C24.8818 180.773 22.1206 183.776 19.4551 186.598C20.8455 188.238 22.2468 190.052 23.9092 191.828C26.8227 188.42 29.7689 185.207 32.6934 181.991V181.993Z" fill="#0D71C7" fill-opacity="0.07"/>
<path fill-rule="evenodd" clip-rule="evenodd" d="M26.4724 176.901C24.8514 175.845 23.5436 174.436 22.2424 173.227C19.6901 175.884 17.1138 178.68 14.5767 181.525C15.9366 182.759 16.9941 184.406 18.2453 185.905C20.9129 182.947 23.7982 179.822 26.4724 176.903V176.901Z" fill="#0D71C7" fill-opacity="0.07"/>
<path fill-rule="evenodd" clip-rule="evenodd" d="M21.5285 172.846C20.1164 171.818 19.1938 170.448 18.0362 169.273C15.8516 171.546 13.5908 173.965 11.4976 176.272C12.5289 177.562 13.4407 179.003 14.4807 180.492C16.8286 177.936 19.159 175.374 21.5285 172.846Z" fill="#0D71C7" fill-opacity="0.07"/>
<path fill-rule="evenodd" clip-rule="evenodd" d="M11.6239 161.489C11.1517 160.364 10.7339 159.364 10.3749 158.332C8.8757 159.916 7.55057 161.318 6.16016 162.803C6.38645 164.006 6.73677 165.114 6.84339 166.523C8.54496 164.768 10.0638 163.114 11.6261 161.491L11.6239 161.489Z" fill="#0D71C7" fill-opacity="0.07"/>
<path fill-rule="evenodd" clip-rule="evenodd" d="M9.98753 157.968C9.86786 156.764 9.50666 155.94 9.44138 154.934C8.30772 156.115 7.10879 157.392 5.96644 158.636C5.90769 159.783 6.01866 160.982 6.13398 162.125C7.40472 160.733 8.66893 159.318 9.98753 157.968Z" fill="#0D71C7" fill-opacity="0.07"/>
<path fill-rule="evenodd" clip-rule="evenodd" d="M9.6177 150.982C9.71127 150.233 9.98543 149.13 10.19 148.301C9.42405 149.147 8.59285 150.101 7.8835 150.88C7.31993 152.051 6.92609 153.163 6.58447 154.289C7.5941 153.261 8.5515 152.131 9.61553 150.984L9.6177 150.982Z" fill="#0D71C7" fill-opacity="0.07"/>
<path fill-rule="evenodd" clip-rule="evenodd" d="M11.55 145.324C11.9721 144.597 12.6249 143.506 13.504 142.422C13.0362 143.034 12.4508 143.694 12.2115 144.166C11.1583 145.428 10.3881 146.432 9.55469 147.568C10.1465 146.865 10.9081 146.047 11.5522 145.324H11.55Z" fill="#0D71C7" fill-opacity="0.07"/>
<path fill-rule="evenodd" clip-rule="evenodd" d="M17.4856 137.811C18.2885 136.926 19.1393 136.141 19.9292 135.438C19.4157 136.102 18.9565 136.732 18.4452 137.277C17.4769 138.175 16.5043 139.147 15.647 139.923C16.3389 139.151 16.8546 138.567 17.4878 137.811H17.4856Z" fill="#0D71C7" fill-opacity="0.07"/>
<path fill-rule="evenodd" clip-rule="evenodd" d="M15.3945 142.291C15.5294 141.616 15.8341 140.889 15.969 140.207C15.1595 141.161 14.2913 142.12 13.4797 142.983C13.1751 143.773 12.7486 144.637 12.4331 145.489C13.3666 144.496 14.411 143.434 15.3945 142.291Z" fill="#0D71C7" fill-opacity="0.07"/>
<path fill-rule="evenodd" clip-rule="evenodd" d="M386.163 194.214C368.294 190.453 351.874 186.746 336.41 183.219C330.45 192.829 324.366 202.007 318.67 211.855C333.671 216.029 350.221 221.409 368.546 226.888C374.508 215.547 380.288 204.818 386.165 194.214H386.163Z" fill="#0D71C7" fill-opacity="0.07"/>
<path fill-rule="evenodd" clip-rule="evenodd" d="M283.113 183.363C270.639 180.598 259.664 177.871 248.74 175.809C243.383 183.062 237.55 190.576 231.733 198.453C242.391 201.69 253.577 205.165 265.599 209.011C271.2 200.372 277.297 191.5 283.113 183.361V183.363Z" fill="#0D71C7" fill-opacity="0.07"/>
<path fill-rule="evenodd" clip-rule="evenodd" d="M268.436 126.906C258.501 126.507 249.206 125.906 240.237 125.43C235.191 130.939 230.251 136.312 225.503 141.896C234.203 142.685 243.442 143.69 253.27 145.126C258.175 138.834 263.071 132.74 268.436 126.906Z" fill="#0D71C7" fill-opacity="0.07"/>
<path fill-rule="evenodd" clip-rule="evenodd" d="M321.225 308.002C308.489 301.248 296.571 294.86 285.348 288.703C282.141 295.007 278.927 301.436 275.75 308.002H321.222H321.225Z" fill="#0D71C7" fill-opacity="0.07"/>
<path fill-rule="evenodd" clip-rule="evenodd" d="M277.723 284.749C263.101 276.974 250.218 269.478 237.613 262.77C231 274.208 224.226 286.511 217.485 298.789C221.611 301.841 225.81 304.9 230.117 308.001H266.374C270.214 300.055 273.99 292.332 277.723 284.749Z" fill="#0D71C7" fill-opacity="0.07"/>
<path fill-rule="evenodd" clip-rule="evenodd" d="M231.781 259.756C220.368 254.156 209.833 248.954 200.154 243.797C193.918 253.264 187.275 263.427 181.276 273.911C190.704 280.442 200.846 287.144 211.998 294.363C218.441 282.271 225.166 271.037 231.781 259.756Z" fill="#0D71C7" fill-opacity="0.07"/>
<path fill-rule="evenodd" clip-rule="evenodd" d="M194.856 242.361C185.427 237.54 176.835 233.324 168.688 229.297C163.072 237.278 157.147 245.536 151.191 253.934C159.014 259.262 167.578 265.135 176.597 271.313C182.786 260.891 188.754 251.673 194.856 242.359V242.361Z" fill="#0D71C7" fill-opacity="0.07"/>
<path fill-rule="evenodd" clip-rule="evenodd" d="M163.664 226.359C156.135 222.888 149.026 219.504 142.294 216.137C136.922 223.02 131.525 230.285 126.123 237.749C132.496 242.161 139.165 246.376 146.446 250.585C152.088 242.605 157.921 234.438 163.664 226.362V226.359Z" fill="#0D71C7" fill-opacity="0.07"/>
<path fill-rule="evenodd" clip-rule="evenodd" d="M138.401 214.166C132.283 210.708 126.425 208.156 120.613 205.629C115.556 212.065 110.367 218.641 105.034 225.287C110.53 228.37 116.277 231.95 122.069 235.925C127.435 228.569 133.04 221.197 138.401 214.166Z" fill="#0D71C7" fill-opacity="0.07"/>
<path fill-rule="evenodd" clip-rule="evenodd" d="M118.07 204.921C112.906 202.422 107.808 200.072 102.845 197.992C98.4494 203.536 93.7995 209.061 89.2104 214.588C93.7168 217.377 98.4886 220.381 103.328 223.601C108.306 217.273 113.333 210.942 118.067 204.921H118.07Z" fill="#0D71C7" fill-opacity="0.07"/>
<path fill-rule="evenodd" clip-rule="evenodd" d="M85.2676 189.714C81.166 188.225 77.5845 186.557 74.0268 184.914C70.1994 189.225 66.2196 193.752 62.5532 198.017C65.7845 200.101 68.9265 202.345 72.7822 204.321C76.8251 199.458 81.0028 194.546 85.2676 189.712V189.714Z" fill="#0D71C7" fill-opacity="0.07"/>
<path fill-rule="evenodd" clip-rule="evenodd" d="M72.1358 184.147C68.6805 182.511 65.5602 180.881 62.49 179.676C58.9258 183.543 55.6271 187.308 51.939 191.489C54.7503 193.318 57.6442 195.083 60.6361 197.107C64.5549 192.716 68.2366 188.395 72.1358 184.147Z" fill="#0D71C7" fill-opacity="0.07"/>
<path fill-rule="evenodd" clip-rule="evenodd" d="M60.9603 179.074C58.1599 177.756 55.6184 176.389 52.9812 175.246C49.6325 178.83 46.3055 182.346 43.3267 185.895C45.5004 187.497 48.0571 189.031 50.5768 190.678C54.154 186.72 57.5768 182.885 60.9581 179.074H60.9603Z" fill="#0D71C7" fill-opacity="0.07"/>
<path fill-rule="evenodd" clip-rule="evenodd" d="M51.0602 174.746C48.5056 173.599 46.2144 172.519 43.995 171.281C41.3403 174.149 38.1896 177.518 35.4937 180.602C37.4172 181.993 39.6018 183.378 41.8103 184.947C44.7957 181.482 48.003 178.07 51.0602 174.746Z" fill="#0D71C7" fill-opacity="0.07"/>
<path fill-rule="evenodd" clip-rule="evenodd" d="M42.7677 170.656C40.6353 169.708 38.5095 168.771 36.6382 167.816C34.0358 170.578 31.5335 173.309 28.9463 176.007C30.5848 177.245 32.4756 178.388 34.2599 179.915C37.0777 176.734 39.8128 173.696 42.7677 170.658V170.656Z" fill="#0D71C7" fill-opacity="0.07"/>
<path fill-rule="evenodd" clip-rule="evenodd" d="M36.0921 167.288C34.2317 166.403 32.6215 165.414 30.8438 164.613C28.5917 166.92 26.2069 169.458 23.8047 171.951C25.2887 173.064 26.7226 174.319 28.3437 175.598C30.8677 172.821 33.4897 170.106 36.0921 167.288Z" fill="#0D71C7" fill-opacity="0.07"/>
<path fill-rule="evenodd" clip-rule="evenodd" d="M30.0753 163.836C28.661 162.791 27.2575 161.808 25.8584 161.07C23.5519 163.49 21.4652 165.688 19.3633 167.93C20.4621 169.112 21.6872 170.209 22.9797 171.377C25.3819 168.798 27.7645 166.34 30.0753 163.834V163.836Z" fill="#0D71C7" fill-opacity="0.07"/>
<path fill-rule="evenodd" clip-rule="evenodd" d="M25.0448 160.539C23.7719 159.847 22.5642 159.12 21.535 158.211C19.5811 160.278 17.7968 162.147 15.6992 164.385C16.6044 165.391 17.5161 166.374 18.5497 167.388C20.6494 165.207 22.734 163.06 25.0448 160.539Z" fill="#0D71C7" fill-opacity="0.07"/>
<path fill-rule="evenodd" clip-rule="evenodd" d="M219.909 152.939C211.593 151.796 203.668 150.82 195.976 149.617C191.178 155.371 186.346 160.92 181.258 166.695C188.589 168.241 196.392 169.699 204.704 171.751C209.809 165.315 214.926 159.119 219.911 152.939H219.909Z" fill="#0D71C7" fill-opacity="0.07"/>
<path fill-rule="evenodd" clip-rule="evenodd" d="M65.5802 123.315C63.3172 123.332 61.1718 123.336 59.1438 123.371C56.7677 125.751 54.3176 128.073 52.0264 130.384C54.0065 130.35 55.7232 130.681 57.8905 130.759C60.3928 128.259 62.9364 125.766 65.5823 123.312L65.5802 123.315Z" fill="#0D71C7" fill-opacity="0.07"/>
<path fill-rule="evenodd" clip-rule="evenodd" d="M65.2231 115.922C63.1712 116.171 61.2259 116.359 59.3416 116.513C57.0351 118.677 54.8309 120.756 52.6724 122.799C54.4066 122.81 56.1974 122.788 58.0447 122.715C60.3599 120.512 62.8208 118.188 65.2231 115.922Z" fill="#0D71C7" fill-opacity="0.07"/>
<path fill-rule="evenodd" clip-rule="evenodd" d="M459.332 308C453.268 305.445 447.343 302.928 441.564 300.441C440.593 302.924 439.64 305.445 438.7 308H459.334H459.332Z" fill="#0D71C7" fill-opacity="0.07"/>
<path fill-rule="evenodd" clip-rule="evenodd" d="M215.446 98.6367C208.274 99.0111 201.464 99.34 194.977 99.6473C190.978 103.612 187.02 107.632 182.938 111.471C189.427 111.51 195.92 111.419 202.904 111.324C206.956 107.031 211.245 102.833 215.444 98.6367H215.446Z" fill="#0D71C7" fill-opacity="0.07"/>
<path fill-rule="evenodd" clip-rule="evenodd" d="M354.707 263.924C336.456 256.467 319.719 249.873 303.791 243.777C297.585 255.238 290.942 267.553 284.884 280.747C300.52 288.914 316.899 297.207 335.209 306.079C341.399 291.742 348.086 277.538 354.705 263.924H354.707Z" fill="#0D71C7" fill-opacity="0.07"/>
<path fill-rule="evenodd" clip-rule="evenodd" d="M251.371 223.296C239.823 219.007 228.831 215.192 218.639 211.438C212.703 219.923 206.654 228.918 200.77 238.014C210.512 242.995 221.241 248.055 232.206 253.172C238.594 243.153 244.969 232.839 251.369 223.298L251.371 223.296Z" fill="#0D71C7" fill-opacity="0.07"/>
<path fill-rule="evenodd" clip-rule="evenodd" d="M181.293 199.237C173.314 196.538 166.034 194.074 159.101 191.535C154.075 197.72 148.815 204.439 143.77 211.347C150.371 214.532 157.597 217.912 164.893 221.405C170.168 213.731 175.849 206.211 181.295 199.237H181.293Z" fill="#0D71C7" fill-opacity="0.07"/>
<path fill-rule="evenodd" clip-rule="evenodd" d="M155.141 190.308C148.532 188.092 142.342 186.133 136.408 184.344C131.438 190.206 126.614 196.157 121.645 202.076C127.289 204.484 133.04 206.903 139.261 209.914C144.651 203.002 149.814 196.345 155.141 190.308Z" fill="#0D71C7" fill-opacity="0.07"/>
<path fill-rule="evenodd" clip-rule="evenodd" d="M133.852 183.691C128.351 181.919 123.014 180.175 117.776 178.402C113.413 183.57 109.049 188.649 104.588 193.918C109.412 196.076 114.506 198.497 119.689 200.83C124.541 194.985 129.332 189.209 133.85 183.689L133.852 183.691Z" fill="#0D71C7" fill-opacity="0.07"/>
<path fill-rule="evenodd" clip-rule="evenodd" d="M114.316 177.351C109.623 175.938 105.025 174.579 100.826 173.227C96.4389 178.111 92.2742 182.655 88.166 187.539C92.1044 189.091 96.3431 190.85 100.984 193.066C105.362 187.507 109.975 182.298 114.316 177.351Z" fill="#0D71C7" fill-opacity="0.07"/>
<path fill-rule="evenodd" clip-rule="evenodd" d="M98.7669 172.793C94.4999 171.618 90.6768 170.272 86.8342 169.168C83.0698 173.23 79.2315 177.597 75.6543 181.827C79.1249 183.344 82.6934 185.03 86.8363 186.435C90.6834 182.044 94.7676 177.289 98.7647 172.793H98.7669Z" fill="#0D71C7" fill-opacity="0.07"/>
<path fill-rule="evenodd" clip-rule="evenodd" d="M84.7888 168.507C81.1115 167.518 77.6496 166.661 74.3814 165.707C70.9326 169.466 67.3836 173.164 64.1089 176.845C67.1008 177.981 70.3799 179.321 73.6351 180.929C77.2754 176.668 81.0223 172.615 84.7888 168.507Z" fill="#0D71C7" fill-opacity="0.07"/>
<path fill-rule="evenodd" clip-rule="evenodd" d="M72.876 165.238C69.7601 164.381 66.7791 163.472 63.9265 162.477C60.7388 165.907 57.5206 169.326 54.5156 172.66C57.0266 173.864 59.7988 175.058 62.6449 176.177C66.0502 172.576 69.4163 168.873 72.8782 165.238H72.876Z" fill="#0D71C7" fill-opacity="0.07"/>
<path fill-rule="evenodd" clip-rule="evenodd" d="M61.97 162.13C59.211 161.295 56.7609 160.354 54.3935 159.609C51.4625 162.546 48.5772 165.556 45.7246 168.475C47.8244 169.776 50.2309 170.951 52.8355 172.003C55.9057 168.64 58.8911 165.398 61.9722 162.13H61.97Z" fill="#0D71C7" fill-opacity="0.07"/>
<path fill-rule="evenodd" clip-rule="evenodd" d="M52.653 159.469C50.3595 158.679 48.0792 158.014 45.8684 157.406C43.451 159.934 40.7833 162.695 38.3311 165.381C40.3177 166.199 42.2564 167.129 44.3845 168.038C47.0608 165.231 49.8373 162.409 52.653 159.466V159.469Z" fill="#0D71C7" fill-opacity="0.07"/>
<path fill-rule="evenodd" clip-rule="evenodd" d="M45.2657 156.945C43.3574 156.166 41.4644 155.445 39.5191 154.805C37.2083 157.196 34.7125 159.871 32.4321 162.286C34.1511 163.149 35.8179 164.069 37.613 164.956C40.124 162.299 42.7373 159.685 45.2679 156.947L45.2657 156.945Z" fill="#0D71C7" fill-opacity="0.07"/>
<path fill-rule="evenodd" clip-rule="evenodd" d="M38.6333 154.266C36.8774 153.612 35.302 153.035 33.6744 152.539C31.418 154.77 29.2073 156.951 27.04 159.276C28.4936 159.975 29.897 160.821 31.3658 161.747C33.7658 159.289 36.1484 156.744 38.6312 154.266H38.6333Z" fill="#0D71C7" fill-opacity="0.07"/>
<path fill-rule="evenodd" clip-rule="evenodd" d="M166.464 146.592C160.232 145.956 154.233 145.473 148.48 144.844C144.226 149.421 139.887 154.108 135.56 158.73C141.11 159.661 146.652 160.775 152.876 162.035C157.415 156.787 161.906 151.567 166.464 146.592Z" fill="#0D71C7" fill-opacity="0.07"/>
<path fill-rule="evenodd" clip-rule="evenodd" d="M145.867 144.429C140.443 143.747 135.142 143.286 130.381 142.652C126.212 146.928 122.089 151.302 118.218 155.584C122.931 156.498 127.794 157.419 133.047 158.259C137.216 153.773 141.611 148.991 145.867 144.429Z" fill="#0D71C7" fill-opacity="0.07"/>
<path fill-rule="evenodd" clip-rule="evenodd" d="M128.018 142.39C123.07 141.913 118.633 141.491 114.329 141.078C110.602 144.861 106.692 148.916 102.971 152.801C107.11 153.58 111.39 154.367 115.896 155.322C119.817 150.903 123.954 146.54 128.018 142.39Z" fill="#0D71C7" fill-opacity="0.07"/>
<path fill-rule="evenodd" clip-rule="evenodd" d="M112.299 140.844C108.086 140.441 104.087 140.196 100.268 139.844C96.7717 143.371 93.0531 147.273 89.6782 150.744C93.3142 151.356 97.1264 151.811 101.032 152.425C104.598 148.705 108.574 144.65 112.301 140.844H112.299Z" fill="#0D71C7" fill-opacity="0.07"/>
<path fill-rule="evenodd" clip-rule="evenodd" d="M98.3993 139.709C94.7133 139.3 91.2688 138.8 87.8112 138.664C84.5626 141.895 81.2356 145.258 77.9521 148.733C81.0507 149.268 84.3493 149.88 87.907 150.54C91.3297 146.887 94.9591 143.23 98.3993 139.709Z" fill="#0D71C7" fill-opacity="0.07"/>
<path fill-rule="evenodd" clip-rule="evenodd" d="M86.2097 138.606C82.9894 138.299 80.0192 138.015 77.0056 137.816C73.8353 140.878 70.6497 144.029 67.895 146.955C70.5366 147.483 73.3653 148.028 76.4899 148.42C79.6689 145.029 82.8327 141.826 86.2076 138.606H86.2097Z" fill="#0D71C7" fill-opacity="0.07"/>
<path fill-rule="evenodd" clip-rule="evenodd" d="M75.6502 137.716C72.7628 137.422 69.9493 137.234 67.4296 136.961C64.5161 139.796 61.6482 142.719 58.813 145.543C61.1869 146.1 63.909 146.383 66.4657 146.76C69.4554 143.801 72.4168 140.778 75.6502 137.718V137.716Z" fill="#0D71C7" fill-opacity="0.07"/>
<path fill-rule="evenodd" clip-rule="evenodd" d="M65.9784 137.004C63.4173 136.777 61.0325 136.55 58.7717 136.34C56.2955 138.902 53.6866 141.479 51.0581 143.99C53.2188 144.353 55.51 144.905 57.6925 145.392C60.4146 142.564 63.1236 139.878 65.9784 137.004Z" fill="#0D71C7" fill-opacity="0.07"/>
<path fill-rule="evenodd" clip-rule="evenodd" d="M57.3857 136.19C55.1967 136.036 53.2406 135.781 51.2366 135.684C48.8496 137.949 46.4517 140.306 44.043 142.697C45.8925 143.039 47.6332 143.452 49.6046 143.777C52.1766 141.26 54.8464 138.687 57.3857 136.188V136.19Z" fill="#0D71C7" fill-opacity="0.07"/>
<path fill-rule="evenodd" clip-rule="evenodd" d="M50.0876 135.483C48.2033 135.256 46.5496 135.052 44.7914 134.898C42.5089 137.125 40.2133 139.283 37.9634 141.6C39.5083 141.975 41.1707 142.247 42.8962 142.685C45.2505 140.276 47.705 137.85 50.0898 135.483H50.0876Z" fill="#0D71C7" fill-opacity="0.07"/>
<path fill-rule="evenodd" clip-rule="evenodd" d="M44.0514 134.856C42.463 134.594 41.1052 134.258 39.6952 133.992C37.6324 136.054 35.5044 138.145 33.5874 140.082C34.832 140.452 36.2507 140.809 37.5606 141.246C39.6974 139.11 41.9364 136.942 44.0514 134.856Z" fill="#0D71C7" fill-opacity="0.07"/>
<path fill-rule="evenodd" clip-rule="evenodd" d="M38.7965 133.81C37.5605 133.566 36.2158 133.492 35.0974 133.191C33.1434 135.117 31.1764 137.026 29.3726 138.865C30.38 139.205 31.3918 139.575 32.5755 139.893C34.5469 137.963 36.6793 135.963 38.7986 133.81H38.7965Z" fill="#0D71C7" fill-opacity="0.07"/>
<path fill-rule="evenodd" clip-rule="evenodd" d="M24.7444 134.969C24.3636 134.645 24.0438 134.14 23.7718 133.781C22.4728 135.155 21.1737 136.365 20.0901 137.581C20.0706 138.179 20.2794 138.707 20.5427 139.217C21.9658 137.808 23.2735 136.462 24.7423 134.969H24.7444Z" fill="#0D71C7" fill-opacity="0.07"/>
<path fill-rule="evenodd" clip-rule="evenodd" d="M50.0786 123.755C53.1858 123.097 56.2386 122.437 59.744 121.744C60.5687 121.324 61.3455 121.132 62.3377 120.762C58.6169 121.671 55.2312 122.391 51.9586 123.164C51.1927 123.681 50.6813 123.443 50.0786 123.755Z" fill="#0D71C7" fill-opacity="0.07"/>
<path fill-rule="evenodd" clip-rule="evenodd" d="M71.2329 120.284C75.6326 119.903 80.0846 119.914 84.9303 119.694C85.8399 119.609 86.8669 119.533 87.9287 119.211C82.8676 119.694 78.2307 119.585 73.757 119.854C72.7038 120.245 71.9009 120.105 71.2329 120.286V120.284Z" fill="#0D71C7" fill-opacity="0.07"/>
<path fill-rule="evenodd" clip-rule="evenodd" d="M159.425 129.428C153.813 129.071 148.245 128.871 143.217 128.547C139.187 132.578 135.205 136.679 131.319 140.854C136.291 141.353 141.589 141.836 146.866 142.448C151.026 137.956 155.33 133.498 159.423 129.425L159.425 129.428Z" fill="#0D71C7" fill-opacity="0.07"/>
<path fill-rule="evenodd" clip-rule="evenodd" d="M140.771 128.406C135.749 128.326 130.982 128.224 126.506 128.031C122.874 131.758 118.879 135.659 115.361 139.379C119.595 139.795 124.195 140.117 128.945 140.505C132.792 136.443 136.846 132.338 140.771 128.408V128.406Z" fill="#0D71C7" fill-opacity="0.07"/>
<path fill-rule="evenodd" clip-rule="evenodd" d="M124.349 128.015C119.915 127.907 115.748 127.914 111.638 127.816C108.148 131.138 104.666 134.672 101.285 138.312C105.145 138.522 109.138 138.801 113.3 139.288C116.764 135.585 120.705 131.666 124.352 128.013L124.349 128.015Z" fill="#0D71C7" fill-opacity="0.07"/>
<path fill-rule="evenodd" clip-rule="evenodd" d="M109.723 127.696C105.808 127.616 102.159 127.685 98.6168 127.57C95.268 130.78 92.0107 133.978 88.8447 137.152C92.1804 137.3 95.6706 137.719 99.4088 138.124C102.816 134.649 106.296 131.059 109.723 127.696Z" fill="#0D71C7" fill-opacity="0.07"/>
<path fill-rule="evenodd" clip-rule="evenodd" d="M96.9087 127.489C93.399 127.556 90.344 127.391 87.1432 127.422C83.9881 130.466 80.9201 133.397 77.9478 136.379C80.9005 136.645 83.9816 136.896 87.2455 137.099C90.4092 133.868 93.6274 130.813 96.9087 127.489Z" fill="#0D71C7" fill-opacity="0.07"/>
<path fill-rule="evenodd" clip-rule="evenodd" d="M85.6789 127.315C82.5456 127.28 79.706 127.27 76.8708 127.168C73.9638 129.973 71.1525 132.745 68.3281 135.573C70.8609 136.062 73.6091 136.185 76.4856 136.384C79.5711 133.322 82.4672 130.364 85.6811 127.315H85.6789Z" fill="#0D71C7" fill-opacity="0.07"/>
<path fill-rule="evenodd" clip-rule="evenodd" d="M75.548 127.199C72.9021 127.199 70.2126 127.318 67.9192 127.255C65.2646 129.738 62.5447 132.395 59.8574 134.94C62.1661 135.076 64.5422 135.269 67.051 135.565C69.7644 132.754 72.6953 129.999 75.548 127.199Z" fill="#0D71C7" fill-opacity="0.07"/>
<path fill-rule="evenodd" clip-rule="evenodd" d="M173.486 114.473C167.583 114.535 161.886 114.62 156.564 114.752C152.68 118.643 148.807 122.384 144.981 126.243C150.217 126.418 155.724 126.68 161.253 126.918C165.398 122.733 169.556 118.489 173.486 114.475V114.473Z" fill="#0D71C7" fill-opacity="0.07"/>
<path fill-rule="evenodd" clip-rule="evenodd" d="M154.079 114.93C148.883 114.947 143.854 115.174 139.176 115.328C135.499 118.901 131.795 122.473 128.229 126.022C132.779 125.977 137.655 126.05 142.568 126.278C146.324 122.331 150.162 118.632 154.079 114.93Z" fill="#0D71C7" fill-opacity="0.07"/>
<path fill-rule="evenodd" clip-rule="evenodd" d="M136.811 115.363C132.204 115.454 127.744 115.636 123.531 115.824C120.174 119.051 116.755 122.379 113.333 125.878C117.369 125.906 121.601 125.986 125.966 126.053C129.524 122.453 133.227 118.813 136.809 115.363H136.811Z" fill="#0D71C7" fill-opacity="0.07"/>
<path fill-rule="evenodd" clip-rule="evenodd" d="M121.597 115.848C117.406 116.086 113.787 116.159 109.964 116.376C106.57 119.529 103.489 122.556 100.227 125.707C103.87 125.724 107.575 125.685 111.544 125.763C114.751 122.413 118.176 119.085 121.597 115.848Z" fill="#0D71C7" fill-opacity="0.07"/>
<path fill-rule="evenodd" clip-rule="evenodd" d="M108.004 116.539C104.523 116.606 101.113 116.704 97.7206 116.903C94.5786 119.93 91.5715 122.804 88.6558 125.632C91.6955 125.786 94.9659 125.807 98.5257 125.73C101.674 122.566 104.825 119.601 108.004 116.539Z" fill="#0D71C7" fill-opacity="0.07"/>
<path fill-rule="evenodd" clip-rule="evenodd" d="M96.0536 116.957C92.7353 117.184 89.8174 117.31 87.017 117.422C84.0512 120.153 81.018 122.908 78.3003 125.578C81.0724 125.624 83.9707 125.715 87.1498 125.635C90.0677 122.817 93.0226 119.95 96.0536 116.957Z" fill="#0D71C7" fill-opacity="0.07"/>
<path fill-rule="evenodd" clip-rule="evenodd" d="M85.272 117.75C82.3215 117.995 79.7104 118.131 77.0492 118.289C74.3358 120.855 71.4984 123.502 68.8765 126.151C71.3809 125.958 74.016 125.923 76.7663 125.811C79.4928 123.249 82.204 120.689 85.272 117.752V117.75Z" fill="#0D71C7" fill-opacity="0.07"/>
<path fill-rule="evenodd" clip-rule="evenodd" d="M166.59 102.449C161.188 102.757 156.074 102.966 151.131 103.369C147.466 106.862 143.928 110.242 140.351 113.882C145.229 113.553 150.108 113.518 155.395 113.364C158.988 109.718 162.739 106.078 166.588 102.449H166.59Z" fill="#0D71C7" fill-opacity="0.07"/>
<path fill-rule="evenodd" clip-rule="evenodd" d="M148.657 103.715C143.817 103.936 139.37 104.351 134.883 104.823C131.473 107.958 128.17 111.155 124.789 114.409C129.147 114.046 133.39 114.035 138.104 113.888C141.655 110.417 145.223 106.885 148.657 103.715Z" fill="#0D71C7" fill-opacity="0.07"/>
<path fill-rule="evenodd" clip-rule="evenodd" d="M132.811 105C128.551 105.329 124.602 105.749 120.602 106.182C117.365 109.112 114.238 112.163 110.98 115.223C114.836 114.831 118.622 114.751 122.857 114.439C126.031 111.373 129.406 108.209 132.811 105Z" fill="#0D71C7" fill-opacity="0.07"/>
<path fill-rule="evenodd" clip-rule="evenodd" d="M118.655 106.32C114.886 106.656 111.337 106.859 107.814 107.195C104.772 110.034 101.82 112.84 98.8018 115.719C102.192 115.543 105.536 115.394 109.29 115.225C112.497 112.204 115.469 109.268 118.655 106.32Z" fill="#0D71C7" fill-opacity="0.07"/>
<path fill-rule="evenodd" clip-rule="evenodd" d="M106.063 107.406C102.882 107.616 99.7139 107.917 96.4544 108.378C93.593 110.99 90.7273 113.712 87.9443 116.318C90.9079 116.175 93.9803 115.88 97.1398 115.8C100.219 112.92 103.18 110.189 106.063 107.406Z" fill="#0D71C7" fill-opacity="0.07"/>
<path fill-rule="evenodd" clip-rule="evenodd" d="M86.7171 110.41C83.9189 110.756 81.2382 111.074 78.7772 111.291C76.2488 113.613 73.5506 116.073 70.9482 118.516C73.4223 118.296 75.9703 118.237 78.5117 118.079C81.0946 115.545 83.8863 112.985 86.7171 110.412V110.41Z" fill="#0D71C7" fill-opacity="0.07"/>
<path fill-rule="evenodd" clip-rule="evenodd" d="M77.2667 111.422C74.8688 111.632 72.5819 111.785 70.3625 112.065C68.0386 114.302 65.6951 116.393 63.4604 118.578C65.4231 118.55 67.6643 118.39 69.8033 118.323C72.1924 116.096 74.7839 113.67 77.2667 111.422Z" fill="#0D71C7" fill-opacity="0.07"/>
<path fill-rule="evenodd" clip-rule="evenodd" d="M160.746 92.543C155.885 93.1164 151.198 93.6683 146.474 94.2309C143.128 97.3427 139.862 100.359 136.424 103.523C141.059 102.922 145.408 102.66 150.367 102.125C153.755 98.8489 157.276 95.763 160.746 92.543Z" fill="#0D71C7" fill-opacity="0.07"/>
<path fill-rule="evenodd" clip-rule="evenodd" d="M144.303 94.4592C139.975 94.9309 135.627 95.5434 131.495 96.0606C128.429 98.9517 125.235 101.871 122.034 104.864C126.081 104.416 129.989 104.102 134.356 103.738C137.788 100.525 141.065 97.5364 144.303 94.457V94.4592Z" fill="#0D71C7" fill-opacity="0.07"/>
<path fill-rule="evenodd" clip-rule="evenodd" d="M129.517 96.293C125.675 96.7301 121.906 97.2473 118.042 97.8272C115.098 100.589 112.284 103.116 109.209 105.944C112.728 105.609 116.32 105.326 120.1 105.074C123.24 102.064 126.486 99.0759 129.517 96.293Z" fill="#0D71C7" fill-opacity="0.07"/>
<path fill-rule="evenodd" clip-rule="evenodd" d="M116.36 98.0859C112.948 98.6075 109.538 99.0576 106.3 99.4947C103.487 102.074 100.545 104.662 97.749 107.203C100.961 106.874 104.122 106.528 107.456 106.151C110.539 103.362 113.457 100.722 116.36 98.0859Z" fill="#0D71C7" fill-opacity="0.07"/>
<path fill-rule="evenodd" clip-rule="evenodd" d="M95.8642 101.715C92.9289 102.187 90.2112 102.511 87.6588 102.84C85.0216 105.253 82.3605 107.629 79.8604 110.059C82.3714 109.797 84.9411 109.538 87.7916 109.174C90.444 106.709 93.0856 104.29 95.8642 101.717V101.715Z" fill="#0D71C7" fill-opacity="0.07"/>
<path fill-rule="evenodd" clip-rule="evenodd" d="M85.766 103.569C83.168 103.915 80.8528 104.278 78.4919 104.715C76.0375 106.901 73.6288 109.065 71.0503 111.394C73.2654 111.104 75.6611 110.922 78.0568 110.723C80.5656 108.325 83.1158 105.951 85.7682 103.566L85.766 103.569Z" fill="#0D71C7" fill-opacity="0.07"/>
<path fill-rule="evenodd" clip-rule="evenodd" d="M171.175 81.0451C166.051 81.848 161.212 82.5643 156.559 83.3671C153.217 86.1457 150.047 89.0022 146.618 92.1313C151.307 91.415 156.042 90.9043 160.879 90.2789C164.327 87.0935 167.733 84.0704 171.173 81.043L171.175 81.0451Z" fill="#0D71C7" fill-opacity="0.07"/>
<path fill-rule="evenodd" clip-rule="evenodd" d="M154.351 83.6016C149.771 84.3893 145.397 85.0038 141.106 85.7461C138.134 88.5009 135.02 91.1582 131.865 94.045C136.028 93.4434 140.325 92.9154 144.671 92.2554C147.854 89.3643 151.035 86.5468 154.351 83.6016Z" fill="#0D71C7" fill-opacity="0.07"/>
<path fill-rule="evenodd" clip-rule="evenodd" d="M166.214 73.3633C161.555 74.1834 157.09 75.0837 152.726 75.8973C149.586 78.6737 146.515 81.3376 143.441 84.0102C147.56 83.3047 152.031 82.623 156.723 81.8267C159.821 79.0719 163.055 76.2241 166.216 73.3633H166.214Z" fill="#0D71C7" fill-opacity="0.07"/>
<path fill-rule="evenodd" clip-rule="evenodd" d="M216.887 76.2773C210.185 77.2014 203.944 78.0605 198.008 78.6772C194.059 82.0769 190.443 85.5652 186.944 88.8372C192.706 88.3546 198.842 87.6621 205.348 86.9632C209.049 83.4337 212.898 79.8566 216.884 76.2795L216.887 76.2773Z" fill="#0D71C7" fill-opacity="0.07"/>
<path fill-rule="evenodd" clip-rule="evenodd" d="M36.0331 142.24C34.61 141.849 33.3066 141.433 32.062 141.098C30.1298 143.006 28.1323 144.954 26.2393 147.096C27.201 147.596 28.3347 148.198 29.5314 148.743C31.5985 146.659 33.8223 144.38 36.0331 142.24Z" fill="#0D71C7" fill-opacity="0.07"/>
<path fill-rule="evenodd" clip-rule="evenodd" d="M41.3645 143.586C39.6955 143.194 38.1484 142.768 36.6623 142.383C34.3928 144.677 32.2256 146.882 30.1606 148.977C31.3618 149.634 32.6847 150.249 34.1295 150.879C36.4795 148.442 38.9296 145.949 41.3645 143.586Z" fill="#0D71C7" fill-opacity="0.07"/>
<path fill-rule="evenodd" clip-rule="evenodd" d="M47.5591 144.989C45.6443 144.649 43.9035 144.177 42.2259 143.699C39.6801 146.272 37.23 148.709 34.9409 151.089C36.5076 151.596 38.0829 152.191 39.9521 152.663C42.4652 150.096 45.0785 147.517 47.5612 144.989H47.5591Z" fill="#0D71C7" fill-opacity="0.07"/>
<path fill-rule="evenodd" clip-rule="evenodd" d="M55.4684 146.57C53.2294 146.087 51.0557 145.576 48.8972 145.234C46.3579 147.751 43.6967 150.573 41.127 153.237C43.07 153.765 44.9653 154.537 46.9258 155.303C49.7153 152.304 52.6615 149.454 55.4684 146.567V146.57Z" fill="#0D71C7" fill-opacity="0.07"/>
<path fill-rule="evenodd" clip-rule="evenodd" d="M64.0613 147.986C61.4437 147.595 58.8391 147.203 56.6458 146.703C53.7823 149.542 50.8383 152.429 47.9922 155.405C50.2051 156.125 52.5399 156.751 54.9508 157.432C57.836 154.342 60.8736 151.219 64.0613 147.986Z" fill="#0D71C7" fill-opacity="0.07"/>
<path fill-rule="evenodd" clip-rule="evenodd" d="M73.8618 149.858C70.8481 149.392 68.0804 148.869 65.4388 148.312C62.1401 151.658 59.0503 154.872 56.165 157.916C58.589 158.609 61.2132 159.472 63.907 160.284C67.2905 156.711 70.4195 153.428 73.8618 149.855V149.858Z" fill="#0D71C7" fill-opacity="0.07"/>
<path fill-rule="evenodd" clip-rule="evenodd" d="M84.926 152.179C81.4989 151.594 78.3155 150.934 75.2105 150.305C71.8901 153.832 68.587 157.227 65.2622 160.737C68.1083 161.664 71.1481 162.566 74.2618 163.475C77.7824 159.64 81.4489 155.797 84.926 152.179Z" fill="#0D71C7" fill-opacity="0.07"/>
<path fill-rule="evenodd" clip-rule="evenodd" d="M98.9239 154.205C94.9898 153.421 91.2233 152.835 87.7201 152.324C84.1255 155.903 80.4786 159.82 76.9058 163.644C80.2197 164.434 83.7969 165.284 87.3654 166.462C91.2951 162.151 95.0355 158.148 98.9261 154.205H98.9239Z" fill="#0D71C7" fill-opacity="0.07"/>
<path fill-rule="evenodd" clip-rule="evenodd" d="M113.318 156.751C108.885 155.887 104.521 154.911 100.691 154.156C96.7655 158.274 92.7923 162.334 89.041 166.543C92.8206 167.696 96.8199 168.956 101.185 169.986C105.184 165.543 109.216 161.233 113.318 156.753V156.751Z" fill="#0D71C7" fill-opacity="0.07"/>
<path fill-rule="evenodd" clip-rule="evenodd" d="M130.427 159.801C125.294 158.91 120.202 158.137 115.804 156.871C111.664 161.433 107.431 166.033 103.504 170.513C107.869 171.775 112.453 173.058 117.308 174.278C121.747 169.303 125.996 164.594 130.429 159.801H130.427Z" fill="#0D71C7" fill-opacity="0.07"/>
<path fill-rule="evenodd" clip-rule="evenodd" d="M149.812 163.898C143.78 162.653 138.234 161.541 133.021 160.359C128.545 165.272 124.023 170.18 119.606 175.297C125.046 176.801 130.063 178.678 135.821 180.147C140.577 174.683 145.28 169.243 149.812 163.898Z" fill="#0D71C7" fill-opacity="0.07"/>
<path fill-rule="evenodd" clip-rule="evenodd" d="M172.217 169.02C165.163 167.64 158.912 166.335 152.608 164.965C147.904 170.36 143.21 175.852 138.51 181.221C144.396 183.164 150.63 185.066 157.171 187.014C162.345 180.714 167.263 174.792 172.217 169.02Z" fill="#0D71C7" fill-opacity="0.07"/>
<path fill-rule="evenodd" clip-rule="evenodd" d="M405.424 137.833C400.983 134.288 396.635 130.711 392.662 127.445C386.243 131.074 379.852 134.455 373.398 138.287C377 142.041 380.566 145.978 384.876 150.005C391.835 145.898 398.789 141.814 405.421 137.833H405.424Z" fill="#0D71C7" fill-opacity="0.07"/>
<path fill-rule="evenodd" clip-rule="evenodd" d="M187.579 130.56C185.813 128.783 184.087 127.13 182.292 125.715C179.792 127.463 177.187 129.327 174.615 131.099C176.212 132.78 177.72 134.587 179.341 136.619C182.109 134.553 184.87 132.501 187.582 130.56H187.579Z" fill="#0D71C7" fill-opacity="0.07"/>
<path fill-rule="evenodd" clip-rule="evenodd" d="M117.658 64.9223C116.971 63.8749 116.34 62.7842 115.759 61.6914C113.509 63.5503 111.107 65.5628 108.748 67.5234C109.116 68.7807 109.636 69.9298 110.223 71.1611C112.691 69.0901 115.2 66.9846 117.656 64.9223H117.658Z" fill="#0D71C7" fill-opacity="0.07"/>
<path fill-rule="evenodd" clip-rule="evenodd" d="M482.912 246.62C477.362 242.281 472.126 238.124 467.041 234.465C460.42 236.499 453.923 238.908 447.105 241.206C452.049 245.205 456.915 249.526 461.915 254.183C469.026 251.513 476.3 249.106 482.915 246.618L482.912 246.62Z" fill="#0D71C7" fill-opacity="0.07"/>
<path fill-rule="evenodd" clip-rule="evenodd" d="M133.503 78.9963C132.957 78.3969 132.526 77.8126 132.098 77.25C130.635 78.3104 129.165 79.3512 127.744 80.39C128.072 81.0327 128.412 81.7879 128.792 82.4198C130.366 81.2837 131.88 80.1563 133.503 78.9942V78.9963Z" fill="#0D71C7" fill-opacity="0.07"/>
<path fill-rule="evenodd" clip-rule="evenodd" d="M183.889 51.5712C182.571 51.0108 181.322 50.5152 180.086 50.0586C178.221 51.3245 176.358 52.6338 174.452 54.0144C175.492 54.6398 176.635 55.1959 177.934 55.9144C179.875 54.4017 181.883 52.9887 183.889 51.5734V51.5712Z" fill="#0D71C7" fill-opacity="0.07"/>
<path fill-rule="evenodd" clip-rule="evenodd" d="M464.334 102.927C459.108 100.78 454.249 98.9064 449.632 97.1406C443.661 99.6119 438.008 101.979 432.599 104.49C436.77 106.569 441.163 108.699 446.078 111.317C452.389 108.38 458.52 105.468 464.334 102.927Z" fill="#0D71C7" fill-opacity="0.07"/>
<path fill-rule="evenodd" clip-rule="evenodd" d="M162.515 48.2278C161.719 47.8535 161.122 47.3622 160.491 46.9922C158.973 47.9833 157.526 49.1021 156.063 50.1819C156.599 50.6558 157.093 51.2163 157.739 51.6491C159.195 50.539 160.853 49.3639 162.515 48.2278Z" fill="#0D71C7" fill-opacity="0.07"/>
<path fill-rule="evenodd" clip-rule="evenodd" d="M129.289 40.0532C128.867 39.7459 128.405 39.51 127.99 39.2266C126.895 40.0727 125.696 40.9469 124.646 41.7541C125.009 42.083 125.324 42.4163 125.649 42.7972C126.848 41.8948 128.092 40.9751 129.289 40.0532Z" fill="#0D71C7" fill-opacity="0.07"/>
<path fill-rule="evenodd" clip-rule="evenodd" d="M49.0646 123.377C48.8861 122.923 48.6511 122.468 48.5293 122.031C47.6546 122.629 46.8386 123.31 45.9639 123.933C46.0313 124.461 46.1532 124.961 46.275 125.461C47.2607 124.762 48.1376 124.07 49.0646 123.377Z" fill="#0D71C7" fill-opacity="0.07"/>
<path fill-rule="evenodd" clip-rule="evenodd" d="M486.927 173.372C483.206 171.595 480.195 169.918 477.018 168.312C472.353 169.63 467.886 170.823 463.434 172.112C466.164 173.759 469.256 175.679 472.529 177.497C477.405 176.172 482.181 174.731 486.927 173.372Z" fill="#0D71C7" fill-opacity="0.07"/>
<path fill-rule="evenodd" clip-rule="evenodd" d="M213.112 42.9766C211.806 42.5915 210.473 42.3274 209.343 41.9336C207.526 43.1173 205.607 44.3465 203.888 45.4869C204.983 45.9673 206.008 46.3763 207.217 46.8264C209.026 45.5864 211.141 44.2188 213.112 42.9766Z" fill="#0D71C7" fill-opacity="0.07"/>
<path fill-rule="evenodd" clip-rule="evenodd" d="M165.002 13.7135C164.173 13.5598 163.344 13.4278 162.53 13.3867C161.164 14.2523 159.862 15.2413 158.555 16.1891C159.329 16.3233 160.108 16.4704 160.889 16.6414C162.286 15.62 163.644 14.6483 165.002 13.7135Z" fill="#0D71C7" fill-opacity="0.07"/>
<path fill-rule="evenodd" clip-rule="evenodd" d="M144.361 49.5603C143.608 49.3223 142.866 49.1535 142.172 48.9414C141.004 49.781 139.681 50.7029 138.454 51.5339C139.152 51.7806 139.796 52.01 140.499 52.261C141.822 51.3434 143.043 50.48 144.363 49.5603H144.361Z" fill="#0D71C7" fill-opacity="0.07"/>
<path fill-rule="evenodd" clip-rule="evenodd" d="M17.3749 146.547C17.1617 146.201 17.0028 145.928 16.7874 145.582C16.0976 146.054 15.41 146.53 14.7769 146.973C14.9313 147.331 15.0314 147.666 15.2469 147.956C15.9388 147.508 16.6873 147.025 17.3749 146.547Z" fill="#0D71C7" fill-opacity="0.07"/>
<path fill-rule="evenodd" clip-rule="evenodd" d="M126.621 68.8682C125.868 68.6215 125.163 68.338 124.471 68.1562C123.37 68.9028 122.16 69.7035 120.999 70.4479C121.697 70.6946 122.395 70.9543 123.046 71.2486C124.201 70.4631 125.413 69.6732 126.621 68.8682Z" fill="#0D71C7" fill-opacity="0.07"/>
<path fill-rule="evenodd" clip-rule="evenodd" d="M243.751 79.1974C242.117 78.7711 240.55 78.3361 239.044 77.9336C237.062 79.0004 235.132 80.0154 233.041 81.132C234.588 81.4847 236.107 81.9673 237.624 82.4152C239.595 81.3159 241.753 80.2253 243.751 79.1974Z" fill="#0D71C7" fill-opacity="0.07"/>
<path fill-rule="evenodd" clip-rule="evenodd" d="M12.098 139.063C11.8957 138.711 11.6324 138.405 11.4279 138.133C10.7512 138.563 10.1267 139.014 9.5 139.518C9.70236 139.819 9.90907 140.132 10.1114 140.483C10.7947 140 11.4757 139.518 12.098 139.063Z" fill="#0D71C7" fill-opacity="0.07"/>
<path fill-rule="evenodd" clip-rule="evenodd" d="M108.391 85.7698C107.693 85.5253 106.988 85.2028 106.346 84.9453C105.264 85.6659 104.29 86.3259 103.258 87.0292C103.846 87.3019 104.438 87.6092 105.086 87.9381C106.17 87.1894 107.258 86.5359 108.391 85.7676V85.7698Z" fill="#0D71C7" fill-opacity="0.07"/>
<path fill-rule="evenodd" clip-rule="evenodd" d="M117.256 57.1241C116.645 56.9661 116.046 56.9055 115.439 56.793C114.549 57.3989 113.616 58.0762 112.719 58.6454C113.22 58.7536 113.829 58.9094 114.338 59.0825C115.326 58.4008 116.264 57.743 117.256 57.1262V57.1241Z" fill="#0D71C7" fill-opacity="0.07"/>
<path fill-rule="evenodd" clip-rule="evenodd" d="M566 213.242C561.035 211.748 555.784 209.976 550.477 208.438C545.562 209.489 540.252 210.238 535.261 211.158C540.033 212.616 545.2 214.326 549.974 216.02C555.551 215.083 560.71 214.22 566 213.244V213.242Z" fill="#0D71C7" fill-opacity="0.07"/>
<path fill-rule="evenodd" clip-rule="evenodd" d="M184.4 22.6367C183.306 22.68 182.32 22.6908 181.335 22.6995C180.179 23.4331 178.974 24.1991 177.729 25.0193C178.71 24.9738 179.609 25.0561 180.599 25.0474C181.844 24.2294 183.09 23.4028 184.398 22.6367H184.4Z" fill="#0D71C7" fill-opacity="0.07"/>
<path fill-rule="evenodd" clip-rule="evenodd" d="M25.7214 143.389C25.3863 143.14 25.0512 142.883 24.8314 142.645C24.2069 143.043 23.5237 143.497 22.9536 143.861C23.1734 144.127 23.4497 144.354 23.7261 144.64C24.4093 144.179 25.0381 143.794 25.7214 143.391V143.389Z" fill="#0D71C7" fill-opacity="0.07"/>
<path fill-rule="evenodd" clip-rule="evenodd" d="M320.767 116.866C318.295 116.264 315.647 115.905 313.125 115.359C310.641 116.223 308.38 116.978 306.158 117.865C308.447 118.285 310.926 118.876 313.513 119.467C315.93 118.575 318.413 117.718 320.765 116.866H320.767Z" fill="#0D71C7" fill-opacity="0.07"/>
<path fill-rule="evenodd" clip-rule="evenodd" d="M312.329 161.697C310.099 160.305 307.893 158.92 305.673 157.715C302.566 158.907 299.398 160.309 296.208 161.662C298.273 163.036 300.325 164.376 302.398 165.938C305.856 164.371 309.131 163.058 312.329 161.694V161.697Z" fill="#0D71C7" fill-opacity="0.07"/>
<path fill-rule="evenodd" clip-rule="evenodd" d="M18.6757 154.733C18.4625 154.121 18.308 153.495 18.1513 152.961C17.2788 153.586 16.3453 154.279 15.4097 154.999C15.5032 155.625 15.599 156.335 15.7469 156.975C16.6869 156.237 17.6813 155.486 18.6757 154.731V154.733Z" fill="#0D71C7" fill-opacity="0.07"/>
<path fill-rule="evenodd" clip-rule="evenodd" d="M258.325 106.336C256.315 105.189 254.461 104.166 252.74 103.168C250.094 104.633 247.337 106.189 244.582 107.773C246.314 108.835 247.861 110.112 249.791 111.209C252.72 109.567 255.516 107.933 258.325 106.336Z" fill="#0D71C7" fill-opacity="0.07"/>
</g>
<defs>
<clipPath id="clip0_1251_40219">
<rect width="566" height="308" fill="white"/>
</clipPath>
</defs>
</svg>
