<svg width="566" height="308" viewBox="0 0 566 308" fill="none" xmlns="http://www.w3.org/2000/svg">
<g clip-path="url(#clip0_1251_40394)">
<path fill-rule="evenodd" clip-rule="evenodd" d="M427.466 4.66222C427.05 4.06712 426.449 4.28352 426.824 1.70836C428.223 -2.50928 426.441 2.50038 426.606 1.7841C426.813 3.0284 427.577 2.42248 428.044 2.35539C427.901 2.9137 427.707 3.81393 427.466 4.66222Z" fill="#0D71C7" fill-opacity="0.07"/>
<path fill-rule="evenodd" clip-rule="evenodd" d="M516.317 262.732C519.553 257.354 522.192 251.44 524.782 246.164C526.159 248.289 530.106 271.541 535.559 307.998H523.761C520.188 281.236 517.532 264.64 516.317 262.732Z" fill="#0D71C7" fill-opacity="0.07"/>
<path fill-rule="evenodd" clip-rule="evenodd" d="M526.42 247.308C529.035 242.315 531.466 237.561 533.925 233.949C535.263 235.886 540.039 264.386 546.606 307.999H535.942C531.17 272.2 527.702 249.357 526.42 247.308Z" fill="#0D71C7" fill-opacity="0.07"/>
<path fill-rule="evenodd" clip-rule="evenodd" d="M535.102 232.5C537.306 229.36 539.41 226.378 541.488 223.543C543.949 237.771 546.44 251.811 548.832 265.765C551.264 279.935 553.665 294.033 556.001 307.969L555.845 307.997H546.258C542.685 283.2 538.89 257.948 535.102 232.498V232.5Z" fill="#0D71C7" fill-opacity="0.07"/>
<path fill-rule="evenodd" clip-rule="evenodd" d="M542.352 222.068C544.193 219.131 545.949 216.519 547.62 214.059C550.788 229.678 553.952 245.127 556.998 260.279C560.073 275.585 563.091 290.716 566 305.553V306.161C563.237 306.682 560.397 307.199 557.481 307.671C555.103 293.625 552.588 279.357 550.051 264.967C547.557 250.818 544.902 236.534 542.352 222.068Z" fill="#0D71C7" fill-opacity="0.07"/>
<path fill-rule="evenodd" clip-rule="evenodd" d="M548.451 212.966C550.027 210.614 551.267 208.24 552.364 205.719C556.219 222.514 560.121 239.161 563.731 255.547L566 265.85V299.048C563.424 286.088 560.75 272.939 558.047 259.654C554.931 244.32 551.709 228.694 548.449 212.968L548.451 212.966Z" fill="#0D71C7" fill-opacity="0.07"/>
<path fill-rule="evenodd" clip-rule="evenodd" d="M553.166 204.769C554.502 202.657 555.701 200.651 556.759 198.441C559.864 211.027 562.96 223.505 566 235.859V260.782L564.694 254.995C560.989 238.558 557.114 221.752 553.166 204.771V204.769Z" fill="#0D71C7" fill-opacity="0.07"/>
<path fill-rule="evenodd" clip-rule="evenodd" d="M557.351 197.519C558.408 195.775 559.131 193.726 559.849 191.688C561.922 199.452 563.972 207.171 566 214.838V232.275C563.136 220.815 560.229 209.222 557.351 197.522V197.519Z" fill="#0D71C7" fill-opacity="0.07"/>
<path fill-rule="evenodd" clip-rule="evenodd" d="M560.621 191.142C561.337 189.37 561.983 187.552 562.442 185.797L566 198.452V211.339C564.224 204.643 562.431 197.907 560.621 191.142Z" fill="#0D71C7" fill-opacity="0.07"/>
<path fill-rule="evenodd" clip-rule="evenodd" d="M562.734 184.404C563.308 182.695 563.763 181.059 564.159 179.594L566 185.88V195.99L562.734 184.404Z" fill="#0D71C7" fill-opacity="0.07"/>
<path fill-rule="evenodd" clip-rule="evenodd" d="M564.285 178.682C564.616 177.132 564.764 175.574 564.973 174.07L566 177.479V184.499L564.285 178.682Z" fill="#0D71C7" fill-opacity="0.07"/>
<path fill-rule="evenodd" clip-rule="evenodd" d="M565.058 173.5C565.204 172.017 565.106 170.353 564.953 168.773L566 172.147V176.611L565.058 173.5Z" fill="#0D71C7" fill-opacity="0.07"/>
<path fill-rule="evenodd" clip-rule="evenodd" d="M564.892 167.69C564.877 166.435 564.614 164.97 564.351 163.418L566 168.711V171.245L564.892 167.69Z" fill="#0D71C7" fill-opacity="0.07"/>
<path fill-rule="evenodd" clip-rule="evenodd" d="M564.325 163.022C564.077 161.7 563.659 160.428 563.178 158.984L565.998 168.06V168.361L564.323 163.022H564.325Z" fill="#0D71C7" fill-opacity="0.07"/>
<path fill-rule="evenodd" clip-rule="evenodd" d="M562.904 158.132C562.321 156.877 561.676 155.503 561.226 154.43C562.812 159.569 564.407 164.709 566 169.837V168.089C564.96 164.771 563.924 161.456 562.904 158.132Z" fill="#0D71C7" fill-opacity="0.07"/>
<path fill-rule="evenodd" clip-rule="evenodd" d="M560.73 153.612C560.046 152.42 559.137 151.078 558.232 149.812C560.825 158.298 563.426 166.778 566.002 175.235V170.691C564.239 164.999 562.475 159.297 560.732 153.612H560.73Z" fill="#0D71C7" fill-opacity="0.07"/>
<path fill-rule="evenodd" clip-rule="evenodd" d="M425.501 307.999C431.774 301.905 437.736 296.236 443.394 290.449C446.875 296.169 450.515 302.07 454.147 307.999H425.501Z" fill="#0D71C7" fill-opacity="0.07"/>
<path fill-rule="evenodd" clip-rule="evenodd" d="M446.623 287.527C453.098 280.723 459.106 275.084 464.759 269.875C471.145 278.674 477.064 287.215 483.309 296.683C480.517 300.102 477.666 303.941 474.683 308.003H459.426C455.126 300.976 450.861 294.183 446.623 287.527Z" fill="#0D71C7" fill-opacity="0.07"/>
<path fill-rule="evenodd" clip-rule="evenodd" d="M467.407 267.085C473.008 262.086 477.941 257.334 482.73 252.762C488.329 260.264 494.073 268.267 499.674 276.161C495.398 281.625 490.679 287.213 485.824 293.386C479.653 284.464 473.743 275.815 467.407 267.085Z" fill="#0D71C7" fill-opacity="0.07"/>
<path fill-rule="evenodd" clip-rule="evenodd" d="M485.05 250.658C489.467 246.791 493.701 242.865 497.666 239.219C502.629 245.791 507.777 252.175 512.993 258.985C509.361 263.466 505.658 268.197 501.711 273.518C496.151 265.855 490.531 257.95 485.047 250.658H485.05Z" fill="#0D71C7" fill-opacity="0.07"/>
<path fill-rule="evenodd" clip-rule="evenodd" d="M511.426 225.804C514.466 222.794 517.457 220.109 520.347 217.512C524.444 222.361 528.92 227.696 533.004 232.852C530.689 235.964 528.002 239.288 525.323 243.075C520.671 236.986 516.128 231.675 511.426 225.804Z" fill="#0D71C7" fill-opacity="0.07"/>
<path fill-rule="evenodd" clip-rule="evenodd" d="M522.027 216.622C524.61 214.094 527.223 211.8 529.495 209.238C533.159 213.56 537.002 218.013 540.572 222.335C538.625 225.254 536.453 228.18 534.186 231.298C530.224 226.442 526 221.376 522.027 216.622Z" fill="#0D71C7" fill-opacity="0.07"/>
<path fill-rule="evenodd" clip-rule="evenodd" d="M531.14 207.76C533.24 205.438 535.252 203.324 537.18 201.223C540.529 205.033 543.982 209.061 547.157 212.815C545.618 215.224 543.801 217.665 541.898 220.352C538.329 216.076 534.554 211.794 531.138 207.76H531.14Z" fill="#0D71C7" fill-opacity="0.07"/>
<path fill-rule="evenodd" clip-rule="evenodd" d="M538.392 200.053C540.226 198.252 541.858 196.378 543.601 194.641C546.502 197.906 549.561 201.252 552.466 204.517C551.243 206.869 549.813 209.181 548.499 211.667C545.131 207.884 541.617 203.874 538.392 200.053Z" fill="#0D71C7" fill-opacity="0.07"/>
<path fill-rule="evenodd" clip-rule="evenodd" d="M544.278 193.732C545.812 192.078 547.209 190.159 548.412 188.449C551.113 191.362 553.652 194.231 556.537 197.332C555.351 199.423 554.152 201.399 552.884 203.545C550.049 200.382 547.118 197.099 544.276 193.732H544.278Z" fill="#0D71C7" fill-opacity="0.07"/>
<path fill-rule="evenodd" clip-rule="evenodd" d="M549.187 187.102C550.492 185.581 551.613 184.137 552.784 182.648C555.288 185.364 557.76 188.158 559.923 190.538C559.203 192.419 558.223 194.185 557.429 196.206C554.738 193.172 551.946 190.049 549.185 187.102H549.187Z" fill="#0D71C7" fill-opacity="0.07"/>
<path fill-rule="evenodd" clip-rule="evenodd" d="M553.251 182.18C554.289 180.697 555.136 179.09 556.043 177.789C558.036 179.862 560.049 182.156 562.012 184.372C561.429 186.092 560.906 187.921 560.193 189.693C557.904 187.172 555.625 184.649 553.251 182.18Z" fill="#0D71C7" fill-opacity="0.07"/>
<path fill-rule="evenodd" clip-rule="evenodd" d="M556.428 176.911C557.327 175.667 557.862 174.23 558.393 172.895C560.123 174.701 561.926 176.593 563.617 178.439C563.286 180.018 562.771 181.574 562.444 183.438C560.486 181.319 558.349 178.934 556.426 176.911H556.428Z" fill="#0D71C7" fill-opacity="0.07"/>
<path fill-rule="evenodd" clip-rule="evenodd" d="M558.783 172.315C559.187 170.924 559.657 169.753 560.062 168.441C561.598 170.043 562.965 171.612 564.577 173.304C564.364 174.741 564.155 176.29 563.824 177.786C562.07 175.855 560.389 174.027 558.783 172.317V172.315Z" fill="#0D71C7" fill-opacity="0.07"/>
<path fill-rule="evenodd" clip-rule="evenodd" d="M560.251 167.503C560.477 166.219 560.765 165.083 560.81 163.727C562.216 165.248 563.443 166.579 564.612 167.817C564.764 169.418 564.727 170.82 564.642 172.389C563.276 170.9 561.668 169.095 560.251 167.505V167.503Z" fill="#0D71C7" fill-opacity="0.07"/>
<path fill-rule="evenodd" clip-rule="evenodd" d="M539.549 132.236C537.774 131.282 536.107 130.384 534.279 129.652C534.281 129.914 534.227 130.072 534.062 130.055C536.003 130.964 538.059 132.167 539.673 133.03C539.667 132.678 539.667 132.576 539.549 132.236Z" fill="#0D71C7" fill-opacity="0.07"/>
<path fill-rule="evenodd" clip-rule="evenodd" d="M561.028 159.122C560.789 157.902 560.615 156.731 560.332 155.703C561.05 156.413 562.012 157.452 562.799 158.343C563.221 159.724 563.639 161.074 564.068 162.472C562.91 161.245 562.055 160.263 561.03 159.122H561.028Z" fill="#0D71C7" fill-opacity="0.07"/>
<path fill-rule="evenodd" clip-rule="evenodd" d="M560.003 154.775C559.603 153.645 559.152 152.498 558.702 151.395C559.418 152.219 559.957 152.933 560.675 153.729C561.424 155.054 562.005 156.313 562.592 157.7C561.681 156.627 560.958 155.792 560.001 154.775H560.003Z" fill="#0D71C7" fill-opacity="0.07"/>
<path fill-rule="evenodd" clip-rule="evenodd" d="M551.517 141.418C550.481 140.338 549.396 139.345 548.258 138.453C548.547 138.856 548.838 139.278 549.071 139.617C550.329 140.736 551.53 141.775 552.681 142.844C552.274 142.396 552.039 142.061 551.517 141.418Z" fill="#0D71C7" fill-opacity="0.07"/>
<path fill-rule="evenodd" clip-rule="evenodd" d="M361.011 297.92C371.971 290.543 381.46 283.556 391.363 277.133C397.268 287.152 403.407 297.057 409.606 308.002H366.405C364.623 304.605 362.826 301.244 361.011 297.92Z" fill="#0D71C7" fill-opacity="0.07"/>
<path fill-rule="evenodd" clip-rule="evenodd" d="M395.802 274.286C404.512 268.147 412.659 262.267 420.198 256.879C426.522 266.29 432.784 275.667 439.02 285.623C431.7 292.399 424.209 299.943 415.646 307.268C409.082 295.731 402.258 284.963 395.802 274.286Z" fill="#0D71C7" fill-opacity="0.07"/>
<path fill-rule="evenodd" clip-rule="evenodd" d="M423.806 254.367C431.03 250.186 437.423 245.575 443.64 241.281C449.375 248.959 455.3 257.009 461.027 265.408C455.196 270.872 449.214 276.448 442.51 282.845C436.122 272.826 430.151 263.387 423.806 254.367Z" fill="#0D71C7" fill-opacity="0.07"/>
<path fill-rule="evenodd" clip-rule="evenodd" d="M446.47 239C452.459 235.144 457.918 231.236 463.177 227.953C468.441 234.525 474.041 241.976 479.388 249.576C474.492 253.876 469.274 258.072 463.643 262.889C458.131 254.865 452.245 246.89 446.47 239Z" fill="#0D71C7" fill-opacity="0.07"/>
<path fill-rule="evenodd" clip-rule="evenodd" d="M465.684 226.352C470.693 223.38 475.219 220.217 479.707 217.633C484.699 223.499 489.484 229.6 494.582 236.154C490.574 239.647 486.163 243.209 481.738 247.167C476.446 240.227 470.96 232.876 465.684 226.352Z" fill="#0D71C7" fill-opacity="0.07"/>
<path fill-rule="evenodd" clip-rule="evenodd" d="M525.382 126.309C526.546 126.19 527.599 126.065 528.539 125.883C530.467 127.781 532.236 129.551 534.125 131.351C533.183 131.481 532.295 131.788 531.294 132.022C529.349 130.187 527.471 128.278 525.382 126.309Z" fill="#0D71C7" fill-opacity="0.07"/>
<path fill-rule="evenodd" clip-rule="evenodd" d="M495.405 207.044C498.949 204.925 502.159 202.681 505.457 200.621C509.544 205.477 513.752 210.357 517.882 215.319C514.938 217.689 511.885 220.311 508.599 222.947C504.25 217.598 499.887 212.365 495.405 207.044Z" fill="#0D71C7" fill-opacity="0.07"/>
<path fill-rule="evenodd" clip-rule="evenodd" d="M507.298 199.961C510.238 197.899 513.204 196.042 516.024 194.145C519.533 198.189 523.204 202.42 526.727 206.691C524.329 209.083 521.781 211.348 519.131 213.813C515.238 209.314 511.274 204.629 507.298 199.961Z" fill="#0D71C7" fill-opacity="0.07"/>
<path fill-rule="evenodd" clip-rule="evenodd" d="M517.78 193.02C520.428 191.413 522.56 189.532 524.914 188C528.259 191.731 531.634 195.423 534.797 199.103C532.869 201.12 530.731 203.09 528.437 205.299C524.792 200.858 521.235 196.864 517.782 193.02H517.78Z" fill="#0D71C7" fill-opacity="0.07"/>
<path fill-rule="evenodd" clip-rule="evenodd" d="M526.246 186.978C528.452 185.433 530.456 183.866 532.563 182.656C535.485 185.82 538.555 189.114 541.66 192.816C539.98 194.56 538.22 196.263 536.255 198.246C533.028 194.593 529.59 190.624 526.246 186.978Z" fill="#0D71C7" fill-opacity="0.07"/>
<path fill-rule="evenodd" clip-rule="evenodd" d="M533.307 181.993C535.152 180.528 536.923 179.295 538.442 177.875C541.118 180.773 543.879 183.776 546.545 186.598C545.155 188.238 543.753 190.052 542.091 191.828C539.177 188.42 536.231 185.207 533.307 181.991V181.993Z" fill="#0D71C7" fill-opacity="0.07"/>
<path fill-rule="evenodd" clip-rule="evenodd" d="M539.528 176.901C541.149 175.845 542.456 174.436 543.758 173.227C546.31 175.884 548.886 178.68 551.423 181.525C550.063 182.759 549.006 184.406 547.755 185.905C545.087 182.947 542.202 179.822 539.528 176.903V176.901Z" fill="#0D71C7" fill-opacity="0.07"/>
<path fill-rule="evenodd" clip-rule="evenodd" d="M544.471 172.846C545.884 171.818 546.806 170.448 547.964 169.273C550.148 171.546 552.409 173.965 554.502 176.272C553.471 177.562 552.559 179.003 551.519 180.492C549.171 177.936 546.841 175.374 544.471 172.846Z" fill="#0D71C7" fill-opacity="0.07"/>
<path fill-rule="evenodd" clip-rule="evenodd" d="M554.376 161.489C554.848 160.364 555.266 159.364 555.625 158.332C557.124 159.916 558.449 161.318 559.84 162.803C559.614 164.006 559.263 165.114 559.157 166.523C557.455 164.768 555.936 163.114 554.374 161.491L554.376 161.489Z" fill="#0D71C7" fill-opacity="0.07"/>
<path fill-rule="evenodd" clip-rule="evenodd" d="M556.012 157.968C556.132 156.764 556.493 155.94 556.559 154.934C557.692 156.115 558.891 157.392 560.034 158.636C560.092 159.783 559.981 160.982 559.866 162.125C558.595 160.733 557.331 159.318 556.012 157.968Z" fill="#0D71C7" fill-opacity="0.07"/>
<path fill-rule="evenodd" clip-rule="evenodd" d="M556.382 150.982C556.289 150.233 556.015 149.13 555.81 148.301C556.576 149.147 557.407 150.101 558.117 150.88C558.68 152.051 559.074 153.163 559.416 154.289C558.406 153.261 557.448 152.131 556.384 150.984L556.382 150.982Z" fill="#0D71C7" fill-opacity="0.07"/>
<path fill-rule="evenodd" clip-rule="evenodd" d="M554.45 145.324C554.028 144.597 553.375 143.506 552.496 142.422C552.964 143.034 553.549 143.694 553.789 144.166C554.842 145.428 555.612 146.432 556.445 147.568C555.853 146.865 555.092 146.047 554.448 145.324H554.45Z" fill="#0D71C7" fill-opacity="0.07"/>
<path fill-rule="evenodd" clip-rule="evenodd" d="M548.514 137.811C547.711 136.926 546.861 136.141 546.071 135.438C546.584 136.102 547.043 136.732 547.555 137.277C548.523 138.175 549.496 139.147 550.353 139.923C549.661 139.151 549.145 138.567 548.512 137.811H548.514Z" fill="#0D71C7" fill-opacity="0.07"/>
<path fill-rule="evenodd" clip-rule="evenodd" d="M550.605 142.291C550.471 141.616 550.166 140.889 550.031 140.207C550.84 141.161 551.709 142.12 552.52 142.983C552.825 143.773 553.251 144.637 553.567 145.489C552.633 144.496 551.589 143.434 550.605 142.291Z" fill="#0D71C7" fill-opacity="0.07"/>
<path fill-rule="evenodd" clip-rule="evenodd" d="M179.837 194.214C197.706 190.453 214.126 186.746 229.59 183.219C235.55 192.829 241.634 202.007 247.33 211.855C232.329 216.029 215.779 221.409 197.454 226.888C191.492 215.547 185.712 204.818 179.835 194.214H179.837Z" fill="#0D71C7" fill-opacity="0.07"/>
<path fill-rule="evenodd" clip-rule="evenodd" d="M282.887 183.363C295.361 180.598 306.336 177.871 317.26 175.809C322.617 183.062 328.45 190.576 334.267 198.453C323.609 201.69 312.423 205.165 300.401 209.011C294.8 200.372 288.703 191.5 282.887 183.361V183.363Z" fill="#0D71C7" fill-opacity="0.07"/>
<path fill-rule="evenodd" clip-rule="evenodd" d="M297.564 126.906C307.499 126.507 316.794 125.906 325.763 125.43C330.809 130.939 335.749 136.312 340.497 141.896C331.797 142.685 322.558 143.69 312.73 145.126C307.825 138.834 302.929 132.74 297.564 126.906Z" fill="#0D71C7" fill-opacity="0.07"/>
<path fill-rule="evenodd" clip-rule="evenodd" d="M244.775 308.002C257.511 301.248 269.429 294.86 280.652 288.703C283.859 295.007 287.073 301.436 290.25 308.002H244.778H244.775Z" fill="#0D71C7" fill-opacity="0.07"/>
<path fill-rule="evenodd" clip-rule="evenodd" d="M288.277 284.749C302.899 276.974 315.782 269.478 328.387 262.77C335 274.208 341.774 286.511 348.515 298.789C344.389 301.841 340.19 304.9 335.883 308.001H299.626C295.786 300.055 292.01 292.332 288.277 284.749Z" fill="#0D71C7" fill-opacity="0.07"/>
<path fill-rule="evenodd" clip-rule="evenodd" d="M334.219 259.756C345.632 254.156 356.167 248.954 365.846 243.797C372.082 253.264 378.725 263.427 384.724 273.911C375.296 280.442 365.154 287.144 354.002 294.363C347.559 282.271 340.834 271.037 334.219 259.756Z" fill="#0D71C7" fill-opacity="0.07"/>
<path fill-rule="evenodd" clip-rule="evenodd" d="M371.144 242.361C380.573 237.54 389.165 233.324 397.312 229.297C402.928 237.278 408.853 245.536 414.809 253.934C406.986 259.262 398.422 265.135 389.403 271.313C383.214 260.891 377.246 251.673 371.144 242.359V242.361Z" fill="#0D71C7" fill-opacity="0.07"/>
<path fill-rule="evenodd" clip-rule="evenodd" d="M402.336 226.359C409.865 222.888 416.974 219.504 423.706 216.137C429.078 223.02 434.475 230.285 439.877 237.749C433.504 242.161 426.835 246.376 419.554 250.585C413.912 242.605 408.079 234.438 402.336 226.362V226.359Z" fill="#0D71C7" fill-opacity="0.07"/>
<path fill-rule="evenodd" clip-rule="evenodd" d="M427.599 214.166C433.717 210.708 439.575 208.156 445.387 205.629C450.444 212.065 455.633 218.641 460.966 225.287C455.47 228.37 449.723 231.95 443.931 235.925C438.565 228.569 432.96 221.197 427.599 214.166Z" fill="#0D71C7" fill-opacity="0.07"/>
<path fill-rule="evenodd" clip-rule="evenodd" d="M447.93 204.921C453.094 202.422 458.192 200.072 463.155 197.992C467.551 203.536 472.201 209.061 476.79 214.588C472.283 217.377 467.511 220.381 462.672 223.601C457.694 217.273 452.667 210.942 447.933 204.921H447.93Z" fill="#0D71C7" fill-opacity="0.07"/>
<path fill-rule="evenodd" clip-rule="evenodd" d="M480.732 189.714C484.834 188.225 488.416 186.557 491.973 184.914C495.801 189.225 499.78 193.752 503.447 198.017C500.216 200.101 497.074 202.345 493.218 204.321C489.175 199.458 484.997 194.546 480.732 189.712V189.714Z" fill="#0D71C7" fill-opacity="0.07"/>
<path fill-rule="evenodd" clip-rule="evenodd" d="M493.864 184.147C497.32 182.511 500.44 180.881 503.51 179.676C507.074 183.543 510.373 187.308 514.061 191.489C511.25 193.318 508.356 195.083 505.364 197.107C501.445 192.716 497.763 188.395 493.864 184.147Z" fill="#0D71C7" fill-opacity="0.07"/>
<path fill-rule="evenodd" clip-rule="evenodd" d="M505.04 179.074C507.84 177.756 510.382 176.389 513.019 175.246C516.368 178.83 519.695 182.346 522.673 185.895C520.5 187.497 517.943 189.031 515.423 190.678C511.846 186.72 508.423 182.885 505.042 179.074H505.04Z" fill="#0D71C7" fill-opacity="0.07"/>
<path fill-rule="evenodd" clip-rule="evenodd" d="M514.94 174.746C517.494 173.599 519.786 172.519 522.005 171.281C524.66 174.149 527.81 177.518 530.506 180.602C528.583 181.993 526.398 183.378 524.19 184.947C521.204 181.482 517.997 178.07 514.94 174.746Z" fill="#0D71C7" fill-opacity="0.07"/>
<path fill-rule="evenodd" clip-rule="evenodd" d="M523.232 170.656C525.365 169.708 527.491 168.771 529.362 167.816C531.964 170.578 534.467 173.309 537.054 176.007C535.415 177.245 533.524 178.388 531.74 179.915C528.922 176.734 526.187 173.696 523.232 170.658V170.656Z" fill="#0D71C7" fill-opacity="0.07"/>
<path fill-rule="evenodd" clip-rule="evenodd" d="M529.908 167.288C531.768 166.403 533.378 165.414 535.156 164.613C537.408 166.92 539.793 169.458 542.195 171.951C540.711 173.064 539.277 174.319 537.656 175.598C535.132 172.821 532.51 170.106 529.908 167.288Z" fill="#0D71C7" fill-opacity="0.07"/>
<path fill-rule="evenodd" clip-rule="evenodd" d="M535.925 163.836C537.339 162.791 538.742 161.808 540.142 161.07C542.448 163.49 544.535 165.688 546.637 167.93C545.538 169.112 544.313 170.209 543.02 171.377C540.618 168.798 538.235 166.34 535.925 163.834V163.836Z" fill="#0D71C7" fill-opacity="0.07"/>
<path fill-rule="evenodd" clip-rule="evenodd" d="M540.955 160.539C542.228 159.847 543.436 159.12 544.465 158.211C546.419 160.278 548.203 162.147 550.301 164.385C549.396 165.391 548.484 166.374 547.45 167.388C545.351 165.207 543.266 163.06 540.955 160.539Z" fill="#0D71C7" fill-opacity="0.07"/>
<path fill-rule="evenodd" clip-rule="evenodd" d="M346.091 152.939C354.407 151.796 362.332 150.82 370.024 149.617C374.822 155.371 379.654 160.92 384.742 166.695C377.411 168.241 369.608 169.699 361.296 171.751C356.191 165.315 351.074 159.119 346.089 152.939H346.091Z" fill="#0D71C7" fill-opacity="0.07"/>
<path fill-rule="evenodd" clip-rule="evenodd" d="M500.42 123.315C502.683 123.332 504.828 123.336 506.856 123.371C509.232 125.751 511.682 128.073 513.974 130.384C511.994 130.35 510.277 130.681 508.11 130.759C505.607 128.259 503.064 125.766 500.418 123.312L500.42 123.315Z" fill="#0D71C7" fill-opacity="0.07"/>
<path fill-rule="evenodd" clip-rule="evenodd" d="M500.777 115.922C502.829 116.171 504.774 116.359 506.658 116.513C508.965 118.677 511.169 120.756 513.328 122.799C511.593 122.81 509.803 122.788 507.955 122.715C505.64 120.512 503.179 118.188 500.777 115.922Z" fill="#0D71C7" fill-opacity="0.07"/>
<path fill-rule="evenodd" clip-rule="evenodd" d="M106.668 308C112.732 305.445 118.657 302.928 124.436 300.441C125.407 302.924 126.36 305.445 127.3 308H106.666H106.668Z" fill="#0D71C7" fill-opacity="0.07"/>
<path fill-rule="evenodd" clip-rule="evenodd" d="M350.554 98.6367C357.726 99.0111 364.536 99.34 371.023 99.6473C375.022 103.612 378.98 107.632 383.062 111.471C376.573 111.51 370.08 111.419 363.096 111.324C359.044 107.031 354.755 102.833 350.556 98.6367H350.554Z" fill="#0D71C7" fill-opacity="0.07"/>
<path fill-rule="evenodd" clip-rule="evenodd" d="M211.293 263.924C229.544 256.467 246.281 249.873 262.209 243.777C268.415 255.238 275.058 267.553 281.116 280.747C265.48 288.914 249.101 297.207 230.791 306.079C224.601 291.742 217.914 277.538 211.295 263.924H211.293Z" fill="#0D71C7" fill-opacity="0.07"/>
<path fill-rule="evenodd" clip-rule="evenodd" d="M314.629 223.296C326.177 219.007 337.169 215.192 347.361 211.438C353.297 219.923 359.346 228.918 365.23 238.014C355.488 242.995 344.759 248.055 333.794 253.172C327.406 243.153 321.031 232.839 314.631 223.298L314.629 223.296Z" fill="#0D71C7" fill-opacity="0.07"/>
<path fill-rule="evenodd" clip-rule="evenodd" d="M384.707 199.237C392.686 196.538 399.966 194.074 406.899 191.535C411.925 197.72 417.185 204.439 422.23 211.347C415.629 214.532 408.403 217.912 401.107 221.405C395.832 213.731 390.151 206.211 384.705 199.237H384.707Z" fill="#0D71C7" fill-opacity="0.07"/>
<path fill-rule="evenodd" clip-rule="evenodd" d="M410.859 190.308C417.468 188.092 423.658 186.133 429.592 184.344C434.562 190.206 439.386 196.157 444.355 202.076C438.711 204.484 432.96 206.903 426.739 209.914C421.349 203.002 416.186 196.345 410.859 190.308Z" fill="#0D71C7" fill-opacity="0.07"/>
<path fill-rule="evenodd" clip-rule="evenodd" d="M432.148 183.691C437.649 181.919 442.986 180.175 448.224 178.402C452.587 183.57 456.951 188.649 461.412 193.918C456.588 196.076 451.494 198.497 446.311 200.83C441.459 194.985 436.668 189.209 432.15 183.689L432.148 183.691Z" fill="#0D71C7" fill-opacity="0.07"/>
<path fill-rule="evenodd" clip-rule="evenodd" d="M451.684 177.351C456.377 175.938 460.975 174.579 465.174 173.227C469.561 178.111 473.726 182.655 477.834 187.539C473.896 189.091 469.657 190.85 465.016 193.066C460.638 187.507 456.025 182.298 451.684 177.351Z" fill="#0D71C7" fill-opacity="0.07"/>
<path fill-rule="evenodd" clip-rule="evenodd" d="M467.233 172.793C471.5 171.618 475.323 170.272 479.166 169.168C482.93 173.23 486.768 177.597 490.346 181.827C486.875 183.344 483.307 185.03 479.164 186.435C475.317 182.044 471.232 177.289 467.235 172.793H467.233Z" fill="#0D71C7" fill-opacity="0.07"/>
<path fill-rule="evenodd" clip-rule="evenodd" d="M481.211 168.507C484.888 167.518 488.35 166.661 491.619 165.707C495.067 169.466 498.616 173.164 501.891 176.845C498.899 177.981 495.62 179.321 492.365 180.929C488.725 176.668 484.978 172.615 481.211 168.507Z" fill="#0D71C7" fill-opacity="0.07"/>
<path fill-rule="evenodd" clip-rule="evenodd" d="M493.124 165.238C496.24 164.381 499.221 163.472 502.074 162.477C505.261 165.907 508.479 169.326 511.484 172.66C508.973 173.864 506.201 175.058 503.355 176.177C499.95 172.576 496.584 168.873 493.122 165.238H493.124Z" fill="#0D71C7" fill-opacity="0.07"/>
<path fill-rule="evenodd" clip-rule="evenodd" d="M504.03 162.13C506.789 161.295 509.239 160.354 511.607 159.609C514.537 162.546 517.423 165.556 520.275 168.475C518.176 169.776 515.769 170.951 513.164 172.003C510.094 168.64 507.109 165.398 504.028 162.13H504.03Z" fill="#0D71C7" fill-opacity="0.07"/>
<path fill-rule="evenodd" clip-rule="evenodd" d="M513.347 159.469C515.64 158.679 517.921 158.014 520.132 157.406C522.549 159.934 525.217 162.695 527.669 165.381C525.682 166.199 523.744 167.129 521.616 168.038C518.939 165.231 516.163 162.409 513.347 159.466V159.469Z" fill="#0D71C7" fill-opacity="0.07"/>
<path fill-rule="evenodd" clip-rule="evenodd" d="M520.734 156.945C522.643 156.166 524.536 155.445 526.481 154.805C528.792 157.196 531.288 159.871 533.568 162.286C531.849 163.149 530.182 164.069 528.387 164.956C525.876 162.299 523.263 159.685 520.732 156.947L520.734 156.945Z" fill="#0D71C7" fill-opacity="0.07"/>
<path fill-rule="evenodd" clip-rule="evenodd" d="M527.367 154.266C529.123 153.612 530.698 153.035 532.326 152.539C534.582 154.77 536.793 156.951 538.96 159.276C537.506 159.975 536.103 160.821 534.634 161.747C532.234 159.289 529.852 156.744 527.369 154.266H527.367Z" fill="#0D71C7" fill-opacity="0.07"/>
<path fill-rule="evenodd" clip-rule="evenodd" d="M399.536 146.592C405.768 145.956 411.767 145.473 417.52 144.844C421.774 149.421 426.113 154.108 430.44 158.73C424.89 159.661 419.348 160.775 413.124 162.035C408.585 156.787 404.094 151.567 399.536 146.592Z" fill="#0D71C7" fill-opacity="0.07"/>
<path fill-rule="evenodd" clip-rule="evenodd" d="M420.133 144.429C425.557 143.747 430.858 143.286 435.619 142.652C439.788 146.928 443.911 151.302 447.782 155.584C443.069 156.498 438.206 157.419 432.953 158.259C428.784 153.773 424.389 148.991 420.133 144.429Z" fill="#0D71C7" fill-opacity="0.07"/>
<path fill-rule="evenodd" clip-rule="evenodd" d="M437.982 142.39C442.93 141.913 447.367 141.491 451.671 141.078C455.398 144.861 459.308 148.916 463.029 152.801C458.89 153.58 454.61 154.367 450.104 155.322C446.183 150.903 442.046 146.54 437.982 142.39Z" fill="#0D71C7" fill-opacity="0.07"/>
<path fill-rule="evenodd" clip-rule="evenodd" d="M453.701 140.844C457.914 140.441 461.913 140.196 465.732 139.844C469.228 143.371 472.947 147.273 476.322 150.744C472.686 151.356 468.874 151.811 464.968 152.425C461.402 148.705 457.426 144.65 453.699 140.844H453.701Z" fill="#0D71C7" fill-opacity="0.07"/>
<path fill-rule="evenodd" clip-rule="evenodd" d="M467.601 139.709C471.287 139.3 474.731 138.8 478.189 138.664C481.437 141.895 484.764 145.258 488.048 148.733C484.949 149.268 481.651 149.88 478.093 150.54C474.67 146.887 471.041 143.23 467.601 139.709Z" fill="#0D71C7" fill-opacity="0.07"/>
<path fill-rule="evenodd" clip-rule="evenodd" d="M479.79 138.606C483.011 138.299 485.981 138.015 488.994 137.816C492.165 140.878 495.35 144.029 498.105 146.955C495.463 147.483 492.635 148.028 489.51 148.42C486.331 145.029 483.167 141.826 479.792 138.606H479.79Z" fill="#0D71C7" fill-opacity="0.07"/>
<path fill-rule="evenodd" clip-rule="evenodd" d="M490.35 137.716C493.237 137.422 496.051 137.234 498.57 136.961C501.484 139.796 504.352 142.719 507.187 145.543C504.813 146.1 502.091 146.383 499.534 146.76C496.545 143.801 493.583 140.778 490.35 137.718V137.716Z" fill="#0D71C7" fill-opacity="0.07"/>
<path fill-rule="evenodd" clip-rule="evenodd" d="M500.022 137.004C502.583 136.777 504.967 136.55 507.228 136.34C509.704 138.902 512.313 141.479 514.942 143.99C512.781 144.353 510.49 144.905 508.308 145.392C505.585 142.564 502.876 139.878 500.022 137.004Z" fill="#0D71C7" fill-opacity="0.07"/>
<path fill-rule="evenodd" clip-rule="evenodd" d="M508.614 136.19C510.803 136.036 512.759 135.781 514.763 135.684C517.15 137.949 519.548 140.306 521.957 142.697C520.108 143.039 518.367 143.452 516.395 143.777C513.823 141.26 511.154 138.687 508.614 136.188V136.19Z" fill="#0D71C7" fill-opacity="0.07"/>
<path fill-rule="evenodd" clip-rule="evenodd" d="M515.912 135.483C517.797 135.256 519.45 135.052 521.209 134.898C523.491 137.125 525.787 139.283 528.037 141.6C526.492 141.975 524.829 142.247 523.104 142.685C520.749 140.276 518.295 137.85 515.91 135.483H515.912Z" fill="#0D71C7" fill-opacity="0.07"/>
<path fill-rule="evenodd" clip-rule="evenodd" d="M521.949 134.856C523.537 134.594 524.895 134.258 526.305 133.992C528.368 136.054 530.496 138.145 532.413 140.082C531.168 140.452 529.749 140.809 528.439 141.246C526.303 139.11 524.064 136.942 521.949 134.856Z" fill="#0D71C7" fill-opacity="0.07"/>
<path fill-rule="evenodd" clip-rule="evenodd" d="M527.204 133.81C528.439 133.566 529.784 133.492 530.903 133.191C532.857 135.117 534.824 137.026 536.627 138.865C535.62 139.205 534.608 139.575 533.424 139.893C531.453 137.963 529.321 135.963 527.201 133.81H527.204Z" fill="#0D71C7" fill-opacity="0.07"/>
<path fill-rule="evenodd" clip-rule="evenodd" d="M541.256 134.969C541.636 134.645 541.956 134.14 542.228 133.781C543.527 135.155 544.826 136.365 545.91 137.581C545.929 138.179 545.721 138.707 545.457 139.217C544.034 137.808 542.726 136.462 541.258 134.969H541.256Z" fill="#0D71C7" fill-opacity="0.07"/>
<path fill-rule="evenodd" clip-rule="evenodd" d="M515.921 123.755C512.814 123.097 509.761 122.437 506.256 121.744C505.431 121.324 504.654 121.132 503.662 120.762C507.383 121.671 510.769 122.391 514.041 123.164C514.807 123.681 515.319 123.443 515.921 123.755Z" fill="#0D71C7" fill-opacity="0.07"/>
<path fill-rule="evenodd" clip-rule="evenodd" d="M494.767 120.284C490.367 119.903 485.915 119.914 481.07 119.694C480.16 119.609 479.133 119.533 478.071 119.211C483.132 119.694 487.769 119.585 492.243 119.854C493.296 120.245 494.099 120.105 494.767 120.286V120.284Z" fill="#0D71C7" fill-opacity="0.07"/>
<path fill-rule="evenodd" clip-rule="evenodd" d="M406.575 129.428C412.187 129.071 417.755 128.871 422.783 128.547C426.813 132.578 430.795 136.679 434.681 140.854C429.709 141.353 424.411 141.836 419.134 142.448C414.974 137.956 410.67 133.498 406.577 129.425L406.575 129.428Z" fill="#0D71C7" fill-opacity="0.07"/>
<path fill-rule="evenodd" clip-rule="evenodd" d="M425.229 128.406C430.251 128.326 435.018 128.224 439.494 128.031C443.126 131.758 447.121 135.659 450.639 139.379C446.405 139.795 441.805 140.117 437.055 140.505C433.208 136.443 429.154 132.338 425.229 128.408V128.406Z" fill="#0D71C7" fill-opacity="0.07"/>
<path fill-rule="evenodd" clip-rule="evenodd" d="M441.651 128.015C446.085 127.907 450.252 127.914 454.362 127.816C457.852 131.138 461.334 134.672 464.715 138.312C460.855 138.522 456.862 138.801 452.7 139.288C449.236 135.585 445.295 131.666 441.648 128.013L441.651 128.015Z" fill="#0D71C7" fill-opacity="0.07"/>
<path fill-rule="evenodd" clip-rule="evenodd" d="M456.277 127.696C460.192 127.616 463.841 127.685 467.383 127.57C470.732 130.78 473.989 133.978 477.155 137.152C473.82 137.3 470.329 137.719 466.591 138.124C463.184 134.649 459.704 131.059 456.277 127.696Z" fill="#0D71C7" fill-opacity="0.07"/>
<path fill-rule="evenodd" clip-rule="evenodd" d="M469.091 127.489C472.601 127.556 475.656 127.391 478.857 127.422C482.012 130.466 485.08 133.397 488.052 136.379C485.1 136.645 482.018 136.896 478.755 137.099C475.591 133.868 472.373 130.813 469.091 127.489Z" fill="#0D71C7" fill-opacity="0.07"/>
<path fill-rule="evenodd" clip-rule="evenodd" d="M480.321 127.315C483.454 127.28 486.294 127.27 489.129 127.168C492.036 129.973 494.848 132.745 497.672 135.573C495.139 136.062 492.391 136.185 489.514 136.384C486.429 133.322 483.533 130.364 480.319 127.315H480.321Z" fill="#0D71C7" fill-opacity="0.07"/>
<path fill-rule="evenodd" clip-rule="evenodd" d="M490.452 127.199C493.098 127.199 495.787 127.318 498.081 127.255C500.735 129.738 503.455 132.395 506.143 134.94C503.834 135.076 501.458 135.269 498.949 135.565C496.236 132.754 493.305 129.999 490.452 127.199Z" fill="#0D71C7" fill-opacity="0.07"/>
<path fill-rule="evenodd" clip-rule="evenodd" d="M392.514 114.473C398.417 114.535 404.114 114.62 409.436 114.752C413.32 118.643 417.193 122.384 421.019 126.243C415.783 126.418 410.276 126.68 404.747 126.918C400.602 122.733 396.444 118.489 392.514 114.475V114.473Z" fill="#0D71C7" fill-opacity="0.07"/>
<path fill-rule="evenodd" clip-rule="evenodd" d="M411.921 114.93C417.117 114.947 422.146 115.174 426.824 115.328C430.501 118.901 434.205 122.473 437.771 126.022C433.221 125.977 428.345 126.05 423.432 126.278C419.676 122.331 415.838 118.632 411.921 114.93Z" fill="#0D71C7" fill-opacity="0.07"/>
<path fill-rule="evenodd" clip-rule="evenodd" d="M429.189 115.363C433.796 115.454 438.256 115.636 442.469 115.824C445.826 119.051 449.245 122.379 452.667 125.878C448.631 125.906 444.399 125.986 440.034 126.053C436.476 122.453 432.773 118.813 429.191 115.363H429.189Z" fill="#0D71C7" fill-opacity="0.07"/>
<path fill-rule="evenodd" clip-rule="evenodd" d="M444.403 115.848C448.594 116.086 452.213 116.159 456.036 116.376C459.43 119.529 462.511 122.556 465.773 125.707C462.13 125.724 458.425 125.685 454.456 125.763C451.249 122.413 447.824 119.085 444.403 115.848Z" fill="#0D71C7" fill-opacity="0.07"/>
<path fill-rule="evenodd" clip-rule="evenodd" d="M457.996 116.539C461.477 116.606 464.887 116.704 468.279 116.903C471.421 119.93 474.429 122.804 477.344 125.632C474.304 125.786 471.034 125.807 467.474 125.73C464.326 122.566 461.175 119.601 457.996 116.539Z" fill="#0D71C7" fill-opacity="0.07"/>
<path fill-rule="evenodd" clip-rule="evenodd" d="M469.946 116.957C473.265 117.184 476.183 117.31 478.983 117.422C481.949 120.153 484.982 122.908 487.7 125.578C484.928 125.624 482.029 125.715 478.85 125.635C475.932 122.817 472.977 119.95 469.946 116.957Z" fill="#0D71C7" fill-opacity="0.07"/>
<path fill-rule="evenodd" clip-rule="evenodd" d="M480.728 117.75C483.679 117.995 486.29 118.131 488.951 118.289C491.664 120.855 494.502 123.502 497.124 126.151C494.619 125.958 491.984 125.923 489.234 125.811C486.507 123.249 483.796 120.689 480.728 117.752V117.75Z" fill="#0D71C7" fill-opacity="0.07"/>
<path fill-rule="evenodd" clip-rule="evenodd" d="M399.41 102.449C404.812 102.757 409.926 102.966 414.869 103.369C418.534 106.862 422.072 110.242 425.649 113.882C420.771 113.553 415.892 113.518 410.605 113.364C407.012 109.718 403.261 106.078 399.412 102.449H399.41Z" fill="#0D71C7" fill-opacity="0.07"/>
<path fill-rule="evenodd" clip-rule="evenodd" d="M417.343 103.715C422.183 103.936 426.63 104.351 431.117 104.823C434.527 107.958 437.83 111.155 441.211 114.409C436.853 114.046 432.61 114.035 427.896 113.888C424.345 110.417 420.777 106.885 417.343 103.715Z" fill="#0D71C7" fill-opacity="0.07"/>
<path fill-rule="evenodd" clip-rule="evenodd" d="M433.189 105C437.449 105.329 441.398 105.749 445.398 106.182C448.635 109.112 451.762 112.163 455.02 115.223C451.164 114.831 447.378 114.751 443.143 114.439C439.969 111.373 436.594 108.209 433.189 105Z" fill="#0D71C7" fill-opacity="0.07"/>
<path fill-rule="evenodd" clip-rule="evenodd" d="M447.345 106.32C451.114 106.656 454.663 106.859 458.186 107.195C461.228 110.034 464.18 112.84 467.198 115.719C463.808 115.543 460.464 115.394 456.71 115.225C453.503 112.204 450.531 109.268 447.345 106.32Z" fill="#0D71C7" fill-opacity="0.07"/>
<path fill-rule="evenodd" clip-rule="evenodd" d="M459.937 107.406C463.118 107.616 466.286 107.917 469.546 108.378C472.407 110.99 475.273 113.712 478.056 116.318C475.092 116.175 472.02 115.88 468.86 115.8C465.781 112.92 462.82 110.189 459.937 107.406Z" fill="#0D71C7" fill-opacity="0.07"/>
<path fill-rule="evenodd" clip-rule="evenodd" d="M479.283 110.41C482.081 110.756 484.762 111.074 487.223 111.291C489.751 113.613 492.449 116.073 495.052 118.516C492.578 118.296 490.03 118.237 487.488 118.079C484.905 115.545 482.114 112.985 479.283 110.412V110.41Z" fill="#0D71C7" fill-opacity="0.07"/>
<path fill-rule="evenodd" clip-rule="evenodd" d="M488.733 111.422C491.131 111.632 493.418 111.785 495.638 112.065C497.961 114.302 500.305 116.393 502.54 118.578C500.577 118.55 498.336 118.39 496.197 118.323C493.808 116.096 491.216 113.67 488.733 111.422Z" fill="#0D71C7" fill-opacity="0.07"/>
<path fill-rule="evenodd" clip-rule="evenodd" d="M405.254 92.543C410.115 93.1164 414.802 93.6683 419.526 94.2309C422.872 97.3427 426.138 100.359 429.576 103.523C424.941 102.922 420.592 102.66 415.633 102.125C412.245 98.8489 408.724 95.763 405.254 92.543Z" fill="#0D71C7" fill-opacity="0.07"/>
<path fill-rule="evenodd" clip-rule="evenodd" d="M421.697 94.4592C426.025 94.9309 430.373 95.5434 434.505 96.0606C437.571 98.9517 440.765 101.871 443.966 104.864C439.919 104.416 436.011 104.102 431.644 103.738C428.212 100.525 424.935 97.5364 421.697 94.457V94.4592Z" fill="#0D71C7" fill-opacity="0.07"/>
<path fill-rule="evenodd" clip-rule="evenodd" d="M436.483 96.293C440.325 96.7301 444.094 97.2473 447.958 97.8272C450.902 100.589 453.716 103.116 456.791 105.944C453.272 105.609 449.68 105.326 445.9 105.074C442.76 102.064 439.514 99.0759 436.483 96.293Z" fill="#0D71C7" fill-opacity="0.07"/>
<path fill-rule="evenodd" clip-rule="evenodd" d="M449.64 98.0859C453.052 98.6075 456.462 99.0576 459.7 99.4947C462.513 102.074 465.455 104.662 468.251 107.203C465.039 106.874 461.878 106.528 458.544 106.151C455.461 103.362 452.543 100.722 449.64 98.0859Z" fill="#0D71C7" fill-opacity="0.07"/>
<path fill-rule="evenodd" clip-rule="evenodd" d="M470.136 101.715C473.071 102.187 475.789 102.511 478.341 102.84C480.978 105.253 483.64 107.629 486.14 110.059C483.629 109.797 481.059 109.538 478.208 109.174C475.556 106.709 472.914 104.29 470.136 101.717V101.715Z" fill="#0D71C7" fill-opacity="0.07"/>
<path fill-rule="evenodd" clip-rule="evenodd" d="M480.234 103.569C482.832 103.915 485.147 104.278 487.508 104.715C489.962 106.901 492.371 109.065 494.95 111.394C492.735 111.104 490.339 110.922 487.943 110.723C485.434 108.325 482.884 105.951 480.232 103.566L480.234 103.569Z" fill="#0D71C7" fill-opacity="0.07"/>
<path fill-rule="evenodd" clip-rule="evenodd" d="M394.825 81.0451C399.949 81.848 404.788 82.5643 409.441 83.3671C412.783 86.1457 415.953 89.0022 419.382 92.1313C414.693 91.415 409.958 90.9043 405.121 90.2789C401.673 87.0935 398.267 84.0704 394.827 81.043L394.825 81.0451Z" fill="#0D71C7" fill-opacity="0.07"/>
<path fill-rule="evenodd" clip-rule="evenodd" d="M411.649 83.6016C416.229 84.3893 420.603 85.0038 424.894 85.7461C427.866 88.5009 430.98 91.1582 434.135 94.045C429.972 93.4434 425.675 92.9154 421.329 92.2554C418.146 89.3643 414.965 86.5468 411.649 83.6016Z" fill="#0D71C7" fill-opacity="0.07"/>
<path fill-rule="evenodd" clip-rule="evenodd" d="M399.786 73.3633C404.445 74.1834 408.91 75.0837 413.274 75.8973C416.414 78.6737 419.485 81.3376 422.559 84.0102C418.44 83.3047 413.969 82.623 409.277 81.8267C406.179 79.0719 402.945 76.2241 399.784 73.3633H399.786Z" fill="#0D71C7" fill-opacity="0.07"/>
<path fill-rule="evenodd" clip-rule="evenodd" d="M349.113 76.2773C355.815 77.2014 362.056 78.0605 367.992 78.6772C371.941 82.0769 375.557 85.5652 379.056 88.8372C373.294 88.3546 367.158 87.6621 360.652 86.9632C356.951 83.4337 353.102 79.8566 349.116 76.2795L349.113 76.2773Z" fill="#0D71C7" fill-opacity="0.07"/>
<path fill-rule="evenodd" clip-rule="evenodd" d="M529.967 142.24C531.39 141.849 532.693 141.433 533.938 141.098C535.87 143.006 537.868 144.954 539.761 147.096C538.799 147.596 537.665 148.198 536.469 148.743C534.401 146.659 532.178 144.38 529.967 142.24Z" fill="#0D71C7" fill-opacity="0.07"/>
<path fill-rule="evenodd" clip-rule="evenodd" d="M524.636 143.586C526.304 143.194 527.852 142.768 529.338 142.383C531.607 144.677 533.774 146.882 535.839 148.977C534.638 149.634 533.315 150.249 531.87 150.879C529.52 148.442 527.07 145.949 524.636 143.586Z" fill="#0D71C7" fill-opacity="0.07"/>
<path fill-rule="evenodd" clip-rule="evenodd" d="M518.441 144.989C520.356 144.649 522.096 144.177 523.774 143.699C526.32 146.272 528.77 148.709 531.059 151.089C529.492 151.596 527.917 152.191 526.048 152.663C523.535 150.096 520.921 147.517 518.439 144.989H518.441Z" fill="#0D71C7" fill-opacity="0.07"/>
<path fill-rule="evenodd" clip-rule="evenodd" d="M510.532 146.57C512.771 146.087 514.944 145.576 517.103 145.234C519.642 147.751 522.303 150.573 524.873 153.237C522.93 153.765 521.035 154.537 519.074 155.303C516.285 152.304 513.339 149.454 510.532 146.567V146.57Z" fill="#0D71C7" fill-opacity="0.07"/>
<path fill-rule="evenodd" clip-rule="evenodd" d="M501.939 147.986C504.556 147.595 507.161 147.203 509.354 146.703C512.218 149.542 515.162 152.429 518.008 155.405C515.795 156.125 513.46 156.751 511.049 157.432C508.164 154.342 505.126 151.219 501.939 147.986Z" fill="#0D71C7" fill-opacity="0.07"/>
<path fill-rule="evenodd" clip-rule="evenodd" d="M492.138 149.858C495.152 149.392 497.92 148.869 500.561 148.312C503.86 151.658 506.95 154.872 509.835 157.916C507.411 158.609 504.787 159.472 502.093 160.284C498.709 156.711 495.581 153.428 492.138 149.855V149.858Z" fill="#0D71C7" fill-opacity="0.07"/>
<path fill-rule="evenodd" clip-rule="evenodd" d="M481.074 152.179C484.501 151.594 487.684 150.934 490.789 150.305C494.11 153.832 497.413 157.227 500.738 160.737C497.892 161.664 494.852 162.566 491.738 163.475C488.218 159.64 484.551 155.797 481.074 152.179Z" fill="#0D71C7" fill-opacity="0.07"/>
<path fill-rule="evenodd" clip-rule="evenodd" d="M467.076 154.205C471.01 153.421 474.777 152.835 478.28 152.324C481.875 155.903 485.521 159.82 489.094 163.644C485.78 164.434 482.203 165.284 478.635 166.462C474.705 162.151 470.964 158.148 467.074 154.205H467.076Z" fill="#0D71C7" fill-opacity="0.07"/>
<path fill-rule="evenodd" clip-rule="evenodd" d="M452.682 156.751C457.115 155.887 461.479 154.911 465.309 154.156C469.234 158.274 473.208 162.334 476.959 166.543C473.179 167.696 469.18 168.956 464.815 169.986C460.816 165.543 456.784 161.233 452.682 156.753V156.751Z" fill="#0D71C7" fill-opacity="0.07"/>
<path fill-rule="evenodd" clip-rule="evenodd" d="M435.573 159.801C440.706 158.91 445.798 158.137 450.196 156.871C454.336 161.433 458.569 166.033 462.496 170.513C458.131 171.775 453.547 173.058 448.692 174.278C444.253 169.303 440.004 164.594 435.571 159.801H435.573Z" fill="#0D71C7" fill-opacity="0.07"/>
<path fill-rule="evenodd" clip-rule="evenodd" d="M416.188 163.898C422.22 162.653 427.766 161.541 432.979 160.359C437.455 165.272 441.977 170.18 446.394 175.297C440.954 176.801 435.937 178.678 430.179 180.147C425.423 174.683 420.72 169.243 416.188 163.898Z" fill="#0D71C7" fill-opacity="0.07"/>
<path fill-rule="evenodd" clip-rule="evenodd" d="M393.783 169.02C400.837 167.64 407.088 166.335 413.392 164.965C418.096 170.36 422.79 175.852 427.49 181.221C421.604 183.164 415.37 185.066 408.829 187.014C403.655 180.714 398.737 174.792 393.783 169.02Z" fill="#0D71C7" fill-opacity="0.07"/>
<path fill-rule="evenodd" clip-rule="evenodd" d="M160.576 137.833C165.017 134.288 169.365 130.711 173.338 127.445C179.757 131.074 186.148 134.455 192.602 138.287C189 142.041 185.434 145.978 181.124 150.005C174.165 145.898 167.211 141.814 160.579 137.833H160.576Z" fill="#0D71C7" fill-opacity="0.07"/>
<path fill-rule="evenodd" clip-rule="evenodd" d="M378.421 130.56C380.187 128.783 381.913 127.13 383.708 125.715C386.208 127.463 388.813 129.327 391.385 131.099C389.788 132.78 388.28 134.587 386.659 136.619C383.891 134.553 381.13 132.501 378.418 130.56H378.421Z" fill="#0D71C7" fill-opacity="0.07"/>
<path fill-rule="evenodd" clip-rule="evenodd" d="M448.342 64.9223C449.029 63.8749 449.66 62.7842 450.241 61.6914C452.491 63.5503 454.893 65.5628 457.252 67.5234C456.884 68.7807 456.364 69.9298 455.777 71.1611C453.309 69.0901 450.8 66.9846 448.344 64.9223H448.342Z" fill="#0D71C7" fill-opacity="0.07"/>
<path fill-rule="evenodd" clip-rule="evenodd" d="M83.0876 246.62C88.6384 242.281 93.8737 238.124 98.9588 234.465C105.58 236.499 112.077 238.908 118.895 241.206C113.951 245.205 109.085 249.526 104.085 254.183C96.9743 251.513 89.7002 249.106 83.0854 246.618L83.0876 246.62Z" fill="#0D71C7" fill-opacity="0.07"/>
<path fill-rule="evenodd" clip-rule="evenodd" d="M432.497 78.9963C433.043 78.3969 433.474 77.8126 433.902 77.25C435.365 78.3104 436.835 79.3512 438.256 80.39C437.928 81.0327 437.588 81.7879 437.208 82.4198C435.634 81.2837 434.12 80.1563 432.497 78.9942V78.9963Z" fill="#0D71C7" fill-opacity="0.07"/>
<path fill-rule="evenodd" clip-rule="evenodd" d="M382.111 51.5712C383.429 51.0108 384.678 50.5152 385.914 50.0586C387.779 51.3245 389.642 52.6338 391.548 54.0144C390.508 54.6398 389.365 55.1959 388.066 55.9144C386.125 54.4017 384.117 52.9887 382.111 51.5734V51.5712Z" fill="#0D71C7" fill-opacity="0.07"/>
<path fill-rule="evenodd" clip-rule="evenodd" d="M101.666 102.927C106.892 100.78 111.751 98.9064 116.368 97.1406C122.339 99.6119 127.992 101.979 133.401 104.49C129.23 106.569 124.837 108.699 119.922 111.317C113.611 108.38 107.48 105.468 101.666 102.927Z" fill="#0D71C7" fill-opacity="0.07"/>
<path fill-rule="evenodd" clip-rule="evenodd" d="M403.485 48.2278C404.281 47.8535 404.878 47.3622 405.509 46.9922C407.027 47.9833 408.474 49.1021 409.937 50.1819C409.401 50.6558 408.907 51.2163 408.261 51.6491C406.805 50.539 405.147 49.3639 403.485 48.2278Z" fill="#0D71C7" fill-opacity="0.07"/>
<path fill-rule="evenodd" clip-rule="evenodd" d="M436.711 40.0532C437.133 39.7459 437.595 39.51 438.01 39.2266C439.105 40.0727 440.304 40.9469 441.354 41.7541C440.991 42.083 440.676 42.4163 440.351 42.7972C439.152 41.8948 437.908 40.9751 436.711 40.0532Z" fill="#0D71C7" fill-opacity="0.07"/>
<path fill-rule="evenodd" clip-rule="evenodd" d="M516.935 123.377C517.114 122.923 517.349 122.468 517.471 122.031C518.345 122.629 519.161 123.31 520.036 123.933C519.969 124.461 519.847 124.961 519.725 125.461C518.739 124.762 517.862 124.07 516.935 123.377Z" fill="#0D71C7" fill-opacity="0.07"/>
<path fill-rule="evenodd" clip-rule="evenodd" d="M79.073 173.372C82.7938 171.595 85.8053 169.918 88.9822 168.312C93.6473 169.63 98.1145 170.823 102.566 172.112C99.8356 173.759 96.7437 175.679 93.4711 177.497C88.5949 176.172 83.8187 174.731 79.073 173.372Z" fill="#0D71C7" fill-opacity="0.07"/>
<path fill-rule="evenodd" clip-rule="evenodd" d="M352.888 42.9766C354.194 42.5915 355.527 42.3274 356.657 41.9336C358.474 43.1173 360.393 44.3465 362.112 45.4869C361.017 45.9673 359.992 46.3763 358.783 46.8264C356.974 45.5864 354.859 44.2188 352.888 42.9766Z" fill="#0D71C7" fill-opacity="0.07"/>
<path fill-rule="evenodd" clip-rule="evenodd" d="M400.998 13.7135C401.827 13.5598 402.656 13.4278 403.47 13.3867C404.836 14.2523 406.138 15.2413 407.445 16.1891C406.671 16.3233 405.892 16.4704 405.111 16.6414C403.714 15.62 402.356 14.6483 400.998 13.7135Z" fill="#0D71C7" fill-opacity="0.07"/>
<path fill-rule="evenodd" clip-rule="evenodd" d="M421.639 49.5603C422.392 49.3223 423.134 49.1535 423.828 48.9414C424.996 49.781 426.319 50.7029 427.546 51.5339C426.848 51.7806 426.204 52.01 425.501 52.261C424.178 51.3434 422.957 50.48 421.637 49.5603H421.639Z" fill="#0D71C7" fill-opacity="0.07"/>
<path fill-rule="evenodd" clip-rule="evenodd" d="M548.625 146.547C548.838 146.201 548.997 145.928 549.213 145.582C549.902 146.054 550.59 146.53 551.223 146.973C551.069 147.331 550.969 147.666 550.753 147.956C550.061 147.508 549.313 147.025 548.625 146.547Z" fill="#0D71C7" fill-opacity="0.07"/>
<path fill-rule="evenodd" clip-rule="evenodd" d="M439.379 68.8682C440.132 68.6215 440.837 68.338 441.529 68.1562C442.63 68.9028 443.84 69.7035 445.001 70.4479C444.303 70.6946 443.605 70.9543 442.954 71.2486C441.799 70.4631 440.587 69.6732 439.379 68.8682Z" fill="#0D71C7" fill-opacity="0.07"/>
<path fill-rule="evenodd" clip-rule="evenodd" d="M322.249 79.1974C323.883 78.7711 325.45 78.3361 326.956 77.9336C328.938 79.0004 330.868 80.0154 332.959 81.132C331.412 81.4847 329.893 81.9673 328.376 82.4152C326.405 81.3159 324.247 80.2253 322.249 79.1974Z" fill="#0D71C7" fill-opacity="0.07"/>
<path fill-rule="evenodd" clip-rule="evenodd" d="M553.902 139.063C554.104 138.711 554.368 138.405 554.572 138.133C555.249 138.563 555.873 139.014 556.5 139.518C556.298 139.819 556.091 140.132 555.889 140.483C555.205 140 554.524 139.518 553.902 139.063Z" fill="#0D71C7" fill-opacity="0.07"/>
<path fill-rule="evenodd" clip-rule="evenodd" d="M457.609 85.7698C458.307 85.5253 459.012 85.2028 459.654 84.9453C460.736 85.6659 461.71 86.3259 462.742 87.0292C462.154 87.3019 461.562 87.6092 460.914 87.9381C459.83 87.1894 458.742 86.5359 457.609 85.7676V85.7698Z" fill="#0D71C7" fill-opacity="0.07"/>
<path fill-rule="evenodd" clip-rule="evenodd" d="M448.744 57.1241C449.355 56.9661 449.954 56.9055 450.561 56.793C451.451 57.3989 452.384 58.0762 453.281 58.6454C452.78 58.7536 452.171 58.9094 451.662 59.0825C450.674 58.4008 449.736 57.743 448.744 57.1262V57.1241Z" fill="#0D71C7" fill-opacity="0.07"/>
<path fill-rule="evenodd" clip-rule="evenodd" d="M4.76837e-05 213.242C4.96549 211.748 10.216 209.976 15.523 208.438C20.4384 209.489 25.7477 210.238 30.7393 211.158C25.9675 212.616 20.7996 214.326 16.0257 216.02C10.4488 215.083 5.28971 214.22 4.76837e-05 213.244V213.242Z" fill="#0D71C7" fill-opacity="0.07"/>
<path fill-rule="evenodd" clip-rule="evenodd" d="M381.6 22.6367C382.694 22.68 383.68 22.6908 384.665 22.6995C385.821 23.4331 387.026 24.1991 388.271 25.0193C387.29 24.9738 386.391 25.0561 385.401 25.0474C384.156 24.2294 382.91 23.4028 381.602 22.6367H381.6Z" fill="#0D71C7" fill-opacity="0.07"/>
<path fill-rule="evenodd" clip-rule="evenodd" d="M540.279 143.389C540.614 143.14 540.949 142.883 541.169 142.645C541.793 143.043 542.476 143.497 543.046 143.861C542.827 144.127 542.55 144.354 542.274 144.64C541.591 144.179 540.962 143.794 540.279 143.391V143.389Z" fill="#0D71C7" fill-opacity="0.07"/>
<path fill-rule="evenodd" clip-rule="evenodd" d="M245.233 116.866C247.705 116.264 250.353 115.905 252.875 115.359C255.359 116.223 257.62 116.978 259.842 117.865C257.553 118.285 255.074 118.876 252.487 119.467C250.07 118.575 247.587 117.718 245.235 116.866H245.233Z" fill="#0D71C7" fill-opacity="0.07"/>
<path fill-rule="evenodd" clip-rule="evenodd" d="M253.671 161.697C255.901 160.305 258.107 158.92 260.327 157.715C263.434 158.907 266.602 160.309 269.792 161.662C267.727 163.036 265.675 164.376 263.602 165.938C260.144 164.371 256.869 163.058 253.671 161.694V161.697Z" fill="#0D71C7" fill-opacity="0.07"/>
<path fill-rule="evenodd" clip-rule="evenodd" d="M547.324 154.733C547.538 154.121 547.692 153.495 547.849 152.961C548.721 153.586 549.655 154.279 550.59 154.999C550.497 155.625 550.401 156.335 550.253 156.975C549.313 156.237 548.319 155.486 547.324 154.731V154.733Z" fill="#0D71C7" fill-opacity="0.07"/>
<path fill-rule="evenodd" clip-rule="evenodd" d="M307.675 106.336C309.685 105.189 311.539 104.166 313.26 103.168C315.906 104.633 318.663 106.189 321.418 107.773C319.686 108.835 318.139 110.112 316.209 111.209C313.28 109.567 310.484 107.933 307.675 106.336Z" fill="#0D71C7" fill-opacity="0.07"/>
</g>
<defs>
<clipPath id="clip0_1251_40394">
<rect width="566" height="308" fill="white" transform="matrix(-1 0 0 1 566 0)"/>
</clipPath>
</defs>
</svg>
