<svg xmlns="http://www.w3.org/2000/svg" width="60" height="60" viewBox="0 0 60 60" fill="none">
  <path d="M30.0009 58.2362C45.5948 58.2362 58.2362 45.5948 58.2362 30.0009C58.2362 14.407 45.5948 1.76562 30.0009 1.76562C14.407 1.76562 1.76562 14.407 1.76562 30.0009C1.76562 45.5948 14.407 58.2362 30.0009 58.2362Z" fill="#4190DD"/>
  <path d="M53.9488 15.0362C48.9547 23.0039 40.0959 28.298 30.0018 28.298C19.9076 28.298 11.0488 23.0039 6.05469 15.0362C11.04 7.06857 19.9076 1.76562 30.0018 1.76562C40.0959 1.76562 48.9635 7.06857 53.9488 15.0362Z" fill="#60B0FF"/>
  <path d="M16.4861 42.8087C16.2422 42.8087 16.0449 42.6113 16.0449 42.3675V34.9269C16.0449 34.6831 16.2422 34.4858 16.4861 34.4858H29.5577V26.9685C29.5577 26.7247 29.755 26.5273 29.9989 26.5273C30.2427 26.5273 30.44 26.7247 30.44 26.9685V34.9269C30.44 35.1708 30.2427 35.3681 29.9989 35.3681H16.9273V42.3675C16.9273 42.6113 16.73 42.8087 16.4861 42.8087Z" fill="#414952"/>
  <path d="M43.5125 42.8087C43.2687 42.8087 43.0713 42.6113 43.0713 42.3675V35.3681H29.9998C29.7559 35.3681 29.5586 35.1708 29.5586 34.9269V26.9685C29.5586 26.7247 29.7559 26.5273 29.9998 26.5273C30.2436 26.5273 30.4409 26.7247 30.4409 26.9685V34.4858H43.5125C43.7564 34.4858 43.9537 34.6831 43.9537 34.9269V42.3675C43.9537 42.6113 43.7564 42.8087 43.5125 42.8087Z" fill="#414952"/>
  <path d="M20.6332 39.1711V46.3761C20.6332 46.6763 20.3847 46.9144 20.0845 46.9144H12.8899C12.5896 46.9144 12.3516 46.6763 12.3516 46.3761V39.1711C12.3516 38.8813 12.5896 38.6328 12.8899 38.6328H20.0845C20.3847 38.6328 20.6332 38.8813 20.6332 39.1711Z" fill="#FE8A2C"/>
  <path d="M47.6488 39.1711V46.3761C47.6488 46.6763 47.4003 46.9144 47.1001 46.9144H39.9055C39.6053 46.9144 39.3672 46.6763 39.3672 46.3761V39.1711C39.3672 38.8813 39.6053 38.6328 39.9055 38.6328H47.1001C47.4003 38.6328 47.6488 38.8813 47.6488 39.1711Z" fill="#FE8A2C"/>
  <path d="M29.9998 40.8679C29.7559 40.8679 29.5586 40.6706 29.5586 40.4267V34.9275C29.5586 34.6837 29.7559 34.4863 29.9998 34.4863C30.2436 34.4863 30.4409 34.6837 30.4409 34.9275V40.4267C30.4409 40.6706 30.2436 40.8679 29.9998 40.8679Z" fill="#414952"/>
  <path d="M34.141 39.1711V46.3761C34.141 46.6763 33.8925 46.9144 33.5923 46.9144H26.3977C26.0975 46.9144 25.8594 46.6763 25.8594 46.3761V39.1711C25.8594 38.8813 26.0975 38.6328 26.3977 38.6328H33.5923C33.8925 38.6328 34.141 38.8813 34.141 39.1711Z" fill="#FFD29A"/>
  <path d="M18.5828 31.4284C15.0491 31.4284 12.1836 28.5629 12.1836 25.0292C12.1836 21.8778 14.4627 19.261 17.4618 18.7302C17.7254 16.4956 19.6259 14.7659 21.9309 14.7659C22.5582 14.7659 23.1558 14.8921 23.7015 15.126C25.4683 11.8521 28.9315 9.625 32.918 9.625C38.6974 9.625 43.3854 14.3131 43.3854 20.0924V20.2298C45.9206 20.794 47.8174 23.0545 47.8174 25.7604C47.8174 28.8932 45.2785 31.4284 42.1494 31.4284H18.5828Z" fill="white"/>
  <g opacity="0.2">
    <path d="M47.063 50.187C47.063 50.8496 39.3743 51.3872 29.8928 51.3872C20.4114 51.3872 12.7227 50.8496 12.7227 50.187C12.7227 49.5243 20.4114 48.9941 29.8928 48.9941C39.3743 48.9941 47.063 49.5243 47.063 50.187Z" fill="black"/>
  </g>
  <path d="M36.5644 24.1103C36.0736 24.3925 35.5544 24.6053 35.0198 24.7497C34.7313 24.0894 34.0729 23.6279 33.3065 23.6279C32.54 23.6279 31.8816 24.0894 31.5932 24.7497C31.0589 24.6056 30.5394 24.3925 30.0489 24.1107C30.3123 23.4401 30.173 22.6476 29.6307 22.1053C29.0884 21.563 28.2959 21.4237 27.6253 21.6872C27.3435 21.1966 27.1304 20.6771 26.9863 20.1428C27.6466 19.8544 28.1081 19.196 28.1081 18.4295C28.1081 17.6631 27.6466 17.0046 26.9863 16.7162C27.1307 16.1816 27.3435 15.6624 27.6256 15.1715C28.2958 15.4354 29.0884 15.2961 29.6307 14.7538C30.173 14.2114 30.3123 13.4189 30.0485 12.7487C30.5393 12.4665 31.0585 12.2538 31.5931 12.1094C31.8816 12.7697 32.54 13.2311 33.3064 13.2311C34.0729 13.2311 34.7313 12.7696 35.0198 12.1094C35.554 12.2534 36.0735 12.4665 36.564 12.7483C36.3006 13.4189 36.4399 14.2114 36.9822 14.7538C37.5245 15.2961 38.317 15.4353 38.9876 15.1719C39.2694 15.6624 39.4825 16.1819 39.6266 16.7162C38.9663 17.0046 38.5048 17.6631 38.5048 18.4295C38.5048 19.196 38.9663 19.8544 39.6266 20.1428C39.4822 20.6774 39.2694 21.1966 38.9873 21.6875C38.3171 21.4237 37.5245 21.5629 36.9822 22.1053C36.4399 22.6476 36.3006 23.4401 36.5644 24.1103Z" fill="#045599"/>
  <path d="M33.3062 21.5519C35.0308 21.5519 36.4289 20.1539 36.4289 18.4293C36.4289 16.7047 35.0308 15.3066 33.3062 15.3066C31.5817 15.3066 30.1836 16.7047 30.1836 18.4293C30.1836 20.1539 31.5817 21.5519 33.3062 21.5519Z" fill="#4190DD"/>
  <path d="M34.8262 20.3561C35.8794 19.5219 36.0569 17.9919 35.2227 16.9387C34.3885 15.8856 32.8585 15.7081 31.8053 16.5423C30.7522 17.3765 30.5747 18.9065 31.4089 19.9596C32.2431 21.0128 33.7731 21.1903 34.8262 20.3561Z" fill="white"/>
  <path d="M27.5872 29.1072C27.3149 29.2637 27.0269 29.3817 26.7303 29.4619C26.5703 29.0955 26.205 28.8395 25.7798 28.8395C25.3545 28.8395 24.9892 29.0955 24.8292 29.4619C24.5328 29.3819 24.2446 29.2637 23.9725 29.1074C24.1186 28.7354 24.0414 28.2957 23.7405 27.9948C23.4396 27.6939 22.9999 27.6167 22.6279 27.7628C22.4716 27.4907 22.3534 27.2025 22.2734 26.9061C22.6398 26.7461 22.8958 26.3808 22.8958 25.9555C22.8958 25.5303 22.6397 25.165 22.2734 25.005C22.3535 24.7084 22.4716 24.4204 22.6281 24.1481C22.9999 24.2944 23.4396 24.2172 23.7405 23.9163C24.0414 23.6154 24.1186 23.1757 23.9723 22.8039C24.2446 22.6474 24.5326 22.5293 24.8292 22.4492C24.9892 22.8155 25.3545 23.0716 25.7797 23.0716C26.205 23.0716 26.5702 22.8155 26.7303 22.4492C27.0266 22.5291 27.3149 22.6474 27.587 22.8037C27.4409 23.1757 27.5181 23.6154 27.819 23.9163C28.1199 24.2172 28.5595 24.2944 28.9316 24.1482C29.0879 24.4204 29.2061 24.7086 29.286 25.005C28.9197 25.165 28.6637 25.5303 28.6637 25.9555C28.6637 26.3807 28.9197 26.746 29.286 26.9061C29.2059 27.2026 29.0879 27.4907 28.9314 27.763C28.5596 27.6167 28.1199 27.6939 27.819 27.9948C27.5181 28.2957 27.4409 28.7354 27.5872 29.1072Z" fill="#4190DD"/>
  <path d="M25.7809 27.6887C26.7375 27.6887 27.5129 26.9133 27.5129 25.9567C27.5129 25.0001 26.7375 24.2246 25.7809 24.2246C24.8243 24.2246 24.0488 25.0001 24.0488 25.9567C24.0488 26.9133 24.8243 27.6887 25.7809 27.6887Z" fill="#60B0FF"/>
  <path d="M26.6216 27.0352C27.2056 26.5726 27.3041 25.7241 26.8415 25.14C26.3788 24.5559 25.5303 24.4575 24.9462 24.9201C24.3622 25.3828 24.2637 26.2313 24.7264 26.8154C25.189 27.3994 26.0375 27.4979 26.6216 27.0352Z" fill="white"/>
</svg>