<svg preserveAspectRatio="none" width="100%" height="100%" overflow="visible" style="display: block;" viewBox="0 0 656 357" fill="none" xmlns="http://www.w3.org/2000/svg">
<g id="Abstract Design" clip-path="url(#clip0_0_217)">
<path id="Vector" fill-rule="evenodd" clip-rule="evenodd" d="M160.563 5.40282C161.044 4.71305 161.74 4.96387 161.307 1.97903C159.685 -2.9096 161.75 2.89706 161.559 2.06682C161.319 3.50907 160.434 2.80676 159.892 2.729C160.058 3.37614 160.283 4.41958 160.563 5.40282Z" fill="var(--fill-0, #0D71C7)" fill-opacity="0.07"/>
<path id="Vector_2" fill-rule="evenodd" clip-rule="evenodd" d="M57.5828 304.532C53.8328 298.299 50.7737 291.444 47.7726 285.329C46.1762 287.792 41.6015 314.743 35.2816 357H48.9554C53.0964 325.98 56.1756 306.744 57.5828 304.532Z" fill="var(--fill-0, #0D71C7)" fill-opacity="0.07"/>
<path id="Vector_3" fill-rule="evenodd" clip-rule="evenodd" d="M45.8736 286.653C42.8423 280.866 40.0253 275.356 37.1755 271.169C35.6245 273.414 30.0889 306.448 22.4778 357H34.8377C40.3683 315.506 44.3882 289.028 45.8736 286.653Z" fill="var(--fill-0, #0D71C7)" fill-opacity="0.07"/>
<path id="Vector_4" fill-rule="evenodd" clip-rule="evenodd" d="M35.8112 269.489C33.2565 265.849 30.8178 262.393 28.4093 259.107C25.5571 275.599 22.6695 291.873 19.8979 308.046C17.0784 324.47 14.2967 340.812 11.5882 356.965L11.7698 356.997H22.8813C27.0223 328.255 31.4205 298.986 35.8112 269.486V269.489Z" fill="var(--fill-0, #0D71C7)" fill-opacity="0.07"/>
<path id="Vector_5" fill-rule="evenodd" clip-rule="evenodd" d="M27.4082 257.396C25.2746 253.993 23.2394 250.965 21.3026 248.113C17.6307 266.218 13.9638 284.125 10.4332 301.688C6.86969 319.429 3.3718 336.966 0 354.163V354.868C3.20283 355.472 6.49393 356.072 9.87329 356.619C12.6297 340.338 15.5451 323.801 18.4856 307.12C21.3757 290.721 24.4525 274.164 27.4082 257.396Z" fill="var(--fill-0, #0D71C7)" fill-opacity="0.07"/>
<path id="Vector_6" fill-rule="evenodd" clip-rule="evenodd" d="M20.3392 246.849C18.5134 244.123 17.0759 241.371 15.8048 238.449C11.336 257.916 6.81421 277.212 2.63036 296.204L0 308.146V346.626C2.98595 331.604 6.08538 316.363 9.21759 300.965C12.829 283.192 16.5639 265.079 20.3418 246.852L20.3392 246.849Z" fill="var(--fill-0, #0D71C7)" fill-opacity="0.07"/>
<path id="Vector_7" fill-rule="evenodd" clip-rule="evenodd" d="M14.8742 237.345C13.3258 234.897 11.9362 232.572 10.7106 230.011C7.11179 244.599 3.52311 259.062 0 273.382V302.269L1.51315 295.562C5.80797 276.51 10.2995 257.03 14.8742 237.348V237.345Z" fill="var(--fill-0, #0D71C7)" fill-opacity="0.07"/>
<path id="Vector_8" fill-rule="evenodd" clip-rule="evenodd" d="M10.0246 228.945C8.79895 226.923 7.96168 224.548 7.12945 222.185C4.72607 231.185 2.35042 240.132 0 249.019V269.23C3.31884 255.947 6.68811 242.51 10.0246 228.948V228.945Z" fill="var(--fill-0, #0D71C7)" fill-opacity="0.07"/>
<path id="Vector_9" fill-rule="evenodd" clip-rule="evenodd" d="M6.23417 221.551C5.40446 219.496 4.65545 217.389 4.12333 215.355L0 230.024V244.96C2.05788 237.2 4.13594 229.392 6.23417 221.551Z" fill="var(--fill-0, #0D71C7)" fill-opacity="0.07"/>
<path id="Vector_10" fill-rule="evenodd" clip-rule="evenodd" d="M3.78539 213.742C3.11961 211.761 2.59253 209.865 2.13354 208.167L0 215.453V227.172L3.78539 213.742Z" fill="var(--fill-0, #0D71C7)" fill-opacity="0.07"/>
<path id="Vector_11" fill-rule="evenodd" clip-rule="evenodd" d="M1.98727 207.108C1.60394 205.312 1.43245 203.506 1.19034 201.763L0 205.713V213.85L1.98727 207.108Z" fill="var(--fill-0, #0D71C7)" fill-opacity="0.07"/>
<path id="Vector_12" fill-rule="evenodd" clip-rule="evenodd" d="M1.09199 201.103C0.92302 199.385 1.03651 197.456 1.21304 195.625L0 199.536V204.71L1.09199 201.103Z" fill="var(--fill-0, #0D71C7)" fill-opacity="0.07"/>
<path id="Vector_13" fill-rule="evenodd" clip-rule="evenodd" d="M1.28365 194.369C1.30131 192.914 1.60646 191.216 1.91161 189.417L0 195.553V198.49L1.28365 194.369Z" fill="var(--fill-0, #0D71C7)" fill-opacity="0.07"/>
<path id="Vector_14" fill-rule="evenodd" clip-rule="evenodd" d="M1.94187 188.958C2.22937 187.426 2.71358 185.951 3.27092 184.278L0.00252191 194.797V195.146L1.94439 188.958H1.94187Z" fill="var(--fill-0, #0D71C7)" fill-opacity="0.07"/>
<path id="Vector_15" fill-rule="evenodd" clip-rule="evenodd" d="M3.58868 183.29C4.26455 181.835 5.01104 180.242 5.53308 178.998C3.6946 184.955 1.84604 190.912 0 196.857V194.83C1.20547 190.985 2.4059 187.142 3.58868 183.29Z" fill="var(--fill-0, #0D71C7)" fill-opacity="0.07"/>
<path id="Vector_16" fill-rule="evenodd" clip-rule="evenodd" d="M6.10807 178.05C6.89995 176.668 7.95411 175.113 9.00323 173.645C5.99711 183.48 2.98342 193.31 -0.00252191 203.112V197.845C2.04023 191.248 4.0855 184.639 6.10555 178.05H6.10807Z" fill="var(--fill-0, #0D71C7)" fill-opacity="0.07"/>
<path id="Vector_17" fill-rule="evenodd" clip-rule="evenodd" d="M162.84 357C155.569 349.937 148.659 343.365 142.102 336.658C138.067 343.287 133.848 350.127 129.639 357H162.84Z" fill="var(--fill-0, #0D71C7)" fill-opacity="0.07"/>
<path id="Vector_18" fill-rule="evenodd" clip-rule="evenodd" d="M138.36 333.269C130.855 325.383 123.892 318.847 117.34 312.809C109.938 323.008 103.078 332.908 95.8403 343.882C99.0759 347.845 102.38 352.294 105.837 357.003H123.521C128.504 348.858 133.447 340.985 138.36 333.269Z" fill="var(--fill-0, #0D71C7)" fill-opacity="0.07"/>
<path id="Vector_19" fill-rule="evenodd" clip-rule="evenodd" d="M114.27 309.576C107.779 303.782 102.062 298.274 96.5111 292.974C90.0222 301.67 83.3644 310.946 76.873 320.096C81.8285 326.429 87.2985 332.906 92.9249 340.062C100.077 329.72 106.927 319.694 114.27 309.576Z" fill="var(--fill-0, #0D71C7)" fill-opacity="0.07"/>
<path id="Vector_20" fill-rule="evenodd" clip-rule="evenodd" d="M93.8227 290.536C88.7032 286.053 83.7956 281.503 79.2007 277.277C73.4482 284.895 67.4814 292.294 61.4363 300.188C65.6454 305.382 69.9377 310.865 74.5124 317.033C80.9559 308.151 87.47 298.989 93.8253 290.536H93.8227Z" fill="var(--fill-0, #0D71C7)" fill-opacity="0.07"/>
<path id="Vector_21" fill-rule="evenodd" clip-rule="evenodd" d="M63.2521 261.728C59.729 258.239 56.2614 255.126 52.9123 252.117C48.1635 257.738 42.9759 263.92 38.2423 269.898C40.9256 273.505 44.0402 277.357 47.1446 281.747C52.5365 274.689 57.8022 268.533 63.2521 261.728Z" fill="var(--fill-0, #0D71C7)" fill-opacity="0.07"/>
<path id="Vector_22" fill-rule="evenodd" clip-rule="evenodd" d="M50.9653 251.083C47.9718 248.153 44.943 245.495 42.3101 242.525C38.0632 247.534 33.6095 252.696 29.4711 257.705C31.7282 261.089 34.2451 264.48 36.8729 268.094C41.4653 262.466 46.3603 256.594 50.9653 251.083Z" fill="var(--fill-0, #0D71C7)" fill-opacity="0.07"/>
<path id="Vector_23" fill-rule="evenodd" clip-rule="evenodd" d="M40.4036 240.814C37.9699 238.123 35.6372 235.672 33.4027 233.237C29.5215 237.654 25.5192 242.322 21.8398 246.674C23.6228 249.465 25.7286 252.295 27.9352 255.41C32.0712 250.454 36.4467 245.49 40.4061 240.814H40.4036Z" fill="var(--fill-0, #0D71C7)" fill-opacity="0.07"/>
<path id="Vector_24" fill-rule="evenodd" clip-rule="evenodd" d="M31.998 231.88C29.8721 229.793 27.9806 227.621 25.9606 225.607C22.5989 229.392 19.0531 233.269 15.6863 237.054C17.1036 239.781 18.7605 242.46 20.2837 245.342C24.1877 240.957 28.2606 236.309 31.998 231.88Z" fill="var(--fill-0, #0D71C7)" fill-opacity="0.07"/>
<path id="Vector_25" fill-rule="evenodd" clip-rule="evenodd" d="M25.1763 224.553C23.3983 222.637 21.7792 220.412 20.3846 218.43C17.2549 221.807 14.3119 225.133 10.9678 228.727C12.3422 231.15 13.7318 233.44 15.2021 235.928C18.4881 232.261 21.8852 228.456 25.1788 224.553H25.1763Z" fill="var(--fill-0, #0D71C7)" fill-opacity="0.07"/>
<path id="Vector_26" fill-rule="evenodd" clip-rule="evenodd" d="M19.4868 216.87C17.9737 215.107 16.6749 213.434 15.3181 211.708C12.4154 214.856 9.55048 218.094 7.0437 220.853C7.87846 223.033 9.01332 225.08 9.93381 227.423C13.0534 223.906 16.289 220.287 19.4893 216.87H19.4868Z" fill="var(--fill-0, #0D71C7)" fill-opacity="0.07"/>
<path id="Vector_27" fill-rule="evenodd" clip-rule="evenodd" d="M14.7759 211.164C13.5729 209.446 12.5919 207.582 11.5403 206.075C9.2302 208.478 6.89743 211.136 4.62267 213.705C5.29854 215.699 5.9038 217.818 6.73099 219.873C9.38404 216.951 12.0245 214.026 14.7759 211.164Z" fill="var(--fill-0, #0D71C7)" fill-opacity="0.07"/>
<path id="Vector_28" fill-rule="evenodd" clip-rule="evenodd" d="M11.0939 205.054C10.0523 203.612 9.43195 201.946 8.81661 200.398C6.81169 202.493 4.72102 204.685 2.76149 206.825C3.14483 208.656 3.74252 210.459 4.12081 212.619C6.39053 210.163 8.86705 207.399 11.0964 205.054H11.0939Z" fill="var(--fill-0, #0D71C7)" fill-opacity="0.07"/>
<path id="Vector_29" fill-rule="evenodd" clip-rule="evenodd" d="M8.36518 199.729C7.89611 198.116 7.35138 196.759 6.8823 195.239C5.10183 197.095 3.51807 198.914 1.64933 200.875C1.89648 202.541 2.13858 204.336 2.52191 206.07C4.55458 203.832 6.50401 201.713 8.36518 199.731V199.729Z" fill="var(--fill-0, #0D71C7)" fill-opacity="0.07"/>
<path id="Vector_30" fill-rule="evenodd" clip-rule="evenodd" d="M6.66289 194.153C6.40062 192.665 6.06772 191.349 6.01476 189.776C4.38561 191.539 2.96325 193.082 1.60898 194.517C1.43245 196.373 1.47532 197.998 1.57367 199.817C3.15744 198.091 5.02113 195.999 6.66289 194.155V194.153Z" fill="var(--fill-0, #0D71C7)" fill-opacity="0.07"/>
<path id="Vector_31" fill-rule="evenodd" clip-rule="evenodd" d="M30.6564 153.276C32.7143 152.169 34.646 151.128 36.7644 150.281C36.7619 150.584 36.825 150.767 37.0166 150.747C34.7671 151.801 32.3839 153.195 30.5126 154.196C30.5202 153.787 30.5202 153.669 30.6564 153.276Z" fill="var(--fill-0, #0D71C7)" fill-opacity="0.07"/>
<path id="Vector_32" fill-rule="evenodd" clip-rule="evenodd" d="M5.76257 184.436C6.03998 183.021 6.24173 181.664 6.56958 180.473C5.73735 181.295 4.62267 182.499 3.70973 183.533C3.22048 185.133 2.73628 186.698 2.23946 188.319C3.58112 186.896 4.57223 185.758 5.76005 184.436H5.76257Z" fill="var(--fill-0, #0D71C7)" fill-opacity="0.07"/>
<path id="Vector_33" fill-rule="evenodd" clip-rule="evenodd" d="M6.95039 179.399C7.41442 178.09 7.93646 176.76 8.4585 175.481C7.62879 176.437 7.00335 177.265 6.17112 178.188C5.30358 179.723 4.63023 181.183 3.94932 182.79C5.006 181.546 5.84327 180.578 6.95291 179.399H6.95039Z" fill="var(--fill-0, #0D71C7)" fill-opacity="0.07"/>
<path id="Vector_34" fill-rule="evenodd" clip-rule="evenodd" d="M16.7859 163.916C17.9863 162.664 19.2447 161.513 20.5637 160.479C20.2283 160.946 19.8903 161.435 19.6205 161.829C18.1628 163.126 16.7707 164.33 15.4366 165.569C15.9082 165.049 16.1806 164.661 16.7859 163.916Z" fill="var(--fill-0, #0D71C7)" fill-opacity="0.07"/>
<path id="Vector_35" fill-rule="evenodd" clip-rule="evenodd" d="M237.584 345.316C224.882 336.766 213.883 328.667 202.406 321.222C195.562 332.835 188.447 344.316 181.262 357.003H231.333C233.398 353.065 235.481 349.169 237.584 345.316Z" fill="var(--fill-0, #0D71C7)" fill-opacity="0.07"/>
<path id="Vector_36" fill-rule="evenodd" clip-rule="evenodd" d="M197.262 317.924C187.166 310.808 177.724 303.993 168.986 297.747C161.657 308.656 154.399 319.524 147.171 331.064C155.655 338.918 164.338 347.662 174.262 356.152C181.87 342.781 189.779 330.299 197.262 317.924Z" fill="var(--fill-0, #0D71C7)" fill-opacity="0.07"/>
<path id="Vector_37" fill-rule="evenodd" clip-rule="evenodd" d="M164.804 294.835C156.432 289.989 149.022 284.644 141.817 279.667C135.169 288.567 128.302 297.898 121.665 307.632C128.423 313.966 135.356 320.429 143.126 327.844C150.53 316.231 157.451 305.289 164.804 294.835Z" fill="var(--fill-0, #0D71C7)" fill-opacity="0.07"/>
<path id="Vector_38" fill-rule="evenodd" clip-rule="evenodd" d="M138.536 277.021C131.596 272.551 125.268 268.022 119.173 264.216C113.072 271.834 106.581 280.47 100.385 289.279C106.059 294.263 112.107 299.127 118.633 304.71C125.021 295.409 131.843 286.166 138.536 277.021Z" fill="var(--fill-0, #0D71C7)" fill-opacity="0.07"/>
<path id="Vector_39" fill-rule="evenodd" clip-rule="evenodd" d="M116.268 262.36C110.462 258.916 105.217 255.249 100.014 252.255C94.2287 259.054 88.6831 266.125 82.7742 273.723C87.4196 277.771 92.5315 281.9 97.6611 286.487C103.794 278.443 110.152 269.923 116.268 262.36Z" fill="var(--fill-0, #0D71C7)" fill-opacity="0.07"/>
<path id="Vector_40" fill-rule="evenodd" clip-rule="evenodd" d="M47.0765 146.403C45.7273 146.265 44.5067 146.119 43.4173 145.909C41.1828 148.109 39.1325 150.16 36.9435 152.247C38.0355 152.398 39.0644 152.754 40.2245 153.025C42.4791 150.898 44.6555 148.685 47.0765 146.403Z" fill="var(--fill-0, #0D71C7)" fill-opacity="0.07"/>
<path id="Vector_41" fill-rule="evenodd" clip-rule="evenodd" d="M81.8209 239.984C77.7128 237.528 73.9929 234.927 70.1697 232.539C65.4336 238.168 60.5562 243.824 55.7696 249.576C59.1817 252.322 62.72 255.362 66.5281 258.417C71.5694 252.217 76.6258 246.152 81.8209 239.984Z" fill="var(--fill-0, #0D71C7)" fill-opacity="0.07"/>
<path id="Vector_42" fill-rule="evenodd" clip-rule="evenodd" d="M68.0362 231.774C64.6291 229.384 61.1917 227.232 57.9233 225.032C53.8555 229.72 49.601 234.624 45.518 239.575C48.2972 242.347 51.2503 244.973 54.322 247.83C58.8337 242.615 63.4286 237.185 68.0362 231.774Z" fill="var(--fill-0, #0D71C7)" fill-opacity="0.07"/>
<path id="Vector_43" fill-rule="evenodd" clip-rule="evenodd" d="M55.8881 223.73C52.8189 221.867 50.3475 219.687 47.6188 217.911C43.7426 222.235 39.8311 226.515 36.1642 230.781C38.3986 233.119 40.8777 235.401 43.5358 237.962C47.76 232.815 51.8833 228.185 55.8856 223.73H55.8881Z" fill="var(--fill-0, #0D71C7)" fill-opacity="0.07"/>
<path id="Vector_44" fill-rule="evenodd" clip-rule="evenodd" d="M46.0754 216.725C43.5181 214.934 41.1954 213.118 38.7542 211.716C35.3673 215.383 31.8089 219.2 28.2101 223.492C30.157 225.514 32.1973 227.488 34.4746 229.785C38.2145 225.551 42.1992 220.951 46.0754 216.725Z" fill="var(--fill-0, #0D71C7)" fill-opacity="0.07"/>
<path id="Vector_45" fill-rule="evenodd" clip-rule="evenodd" d="M37.8917 210.946C35.7532 209.248 33.7003 207.818 31.94 206.173C28.8381 209.531 25.6378 213.013 22.5484 216.283C24.1599 218.185 25.784 220.287 27.7108 222.346C31.0876 218.395 34.5023 214.671 37.8917 210.943V210.946Z" fill="var(--fill-0, #0D71C7)" fill-opacity="0.07"/>
<path id="Vector_46" fill-rule="evenodd" clip-rule="evenodd" d="M30.6816 205.046C28.8028 203.822 27.2871 202.189 25.779 200.787C22.8208 203.867 19.8348 207.108 16.8943 210.406C18.4705 211.836 19.6961 213.745 21.1462 215.483C24.2381 212.054 27.5822 208.432 30.6816 205.049V205.046Z" fill="var(--fill-0, #0D71C7)" fill-opacity="0.07"/>
<path id="Vector_47" fill-rule="evenodd" clip-rule="evenodd" d="M24.9518 200.346C23.3151 199.154 22.2458 197.567 20.9041 196.205C18.3721 198.838 15.7519 201.643 13.3258 204.316C14.5212 205.811 15.5779 207.482 16.7833 209.208C19.5045 206.245 22.2054 203.275 24.9518 200.346Z" fill="var(--fill-0, #0D71C7)" fill-opacity="0.07"/>
<path id="Vector_48" fill-rule="evenodd" clip-rule="evenodd" d="M13.4721 187.18C12.9248 185.876 12.4406 184.717 12.0245 183.52C10.2869 185.356 8.75104 186.982 7.13954 188.702C7.40181 190.097 7.80784 191.381 7.93142 193.014C9.90355 190.98 11.6638 189.064 13.4746 187.182L13.4721 187.18Z" fill="var(--fill-0, #0D71C7)" fill-opacity="0.07"/>
<path id="Vector_49" fill-rule="evenodd" clip-rule="evenodd" d="M11.5756 183.099C11.4369 181.704 11.0182 180.749 10.9426 179.582C9.62866 180.952 8.23909 182.432 6.91509 183.874C6.84699 185.203 6.97561 186.593 7.10927 187.917C8.58207 186.304 10.0473 184.664 11.5756 183.099Z" fill="var(--fill-0, #0D71C7)" fill-opacity="0.07"/>
<path id="Vector_50" fill-rule="evenodd" clip-rule="evenodd" d="M11.1469 175.002C11.2553 174.134 11.5731 172.855 11.8101 171.894C10.9224 172.875 9.95904 173.981 9.13689 174.884C8.48372 176.241 8.02725 177.531 7.63131 178.835C8.80148 177.643 9.91112 176.334 11.1443 175.005L11.1469 175.002Z" fill="var(--fill-0, #0D71C7)" fill-opacity="0.07"/>
<path id="Vector_51" fill-rule="evenodd" clip-rule="evenodd" d="M13.3863 168.446C13.8756 167.603 14.6321 166.339 15.651 165.082C15.1088 165.792 14.4304 166.557 14.153 167.104C12.9324 168.566 12.0396 169.73 11.0737 171.047C11.7597 170.231 12.6423 169.283 13.3888 168.446H13.3863Z" fill="var(--fill-0, #0D71C7)" fill-opacity="0.07"/>
<path id="Vector_52" fill-rule="evenodd" clip-rule="evenodd" d="M20.2661 159.734C21.1967 158.708 22.1827 157.798 23.0982 156.983C22.503 157.753 21.9709 158.483 21.3783 159.115C20.256 160.156 19.1287 161.282 18.1351 162.182C18.937 161.287 19.5347 160.61 20.2686 159.734H20.2661Z" fill="var(--fill-0, #0D71C7)" fill-opacity="0.07"/>
<path id="Vector_53" fill-rule="evenodd" clip-rule="evenodd" d="M17.8425 164.929C17.9989 164.146 18.352 163.304 18.5083 162.513C17.5702 163.62 16.5639 164.731 15.6233 165.732C15.2702 166.647 14.7759 167.648 14.4102 168.636C15.4921 167.485 16.7026 166.253 17.8425 164.929Z" fill="var(--fill-0, #0D71C7)" fill-opacity="0.07"/>
<path id="Vector_54" fill-rule="evenodd" clip-rule="evenodd" d="M447.566 225.112C426.856 220.753 407.826 216.456 389.903 212.368C382.995 223.507 375.944 234.145 369.342 245.56C386.728 250.398 405.909 256.634 427.149 262.985C434.059 249.839 440.757 237.403 447.569 225.112H447.566Z" fill="var(--fill-0, #0D71C7)" fill-opacity="0.07"/>
<path id="Vector_55" fill-rule="evenodd" clip-rule="evenodd" d="M328.131 212.534C313.673 209.328 300.952 206.167 288.292 203.777C282.084 212.185 275.322 220.894 268.581 230.024C280.934 233.776 293.899 237.804 307.832 242.262C314.324 232.249 321.39 221.965 328.131 212.531V212.534Z" fill="var(--fill-0, #0D71C7)" fill-opacity="0.07"/>
<path id="Vector_56" fill-rule="evenodd" clip-rule="evenodd" d="M311.121 147.095C299.606 146.634 288.832 145.936 278.437 145.385C272.589 151.771 266.864 157.999 261.361 164.47C271.444 165.385 282.152 166.549 293.543 168.215C299.227 160.921 304.902 153.857 311.121 147.095Z" fill="var(--fill-0, #0D71C7)" fill-opacity="0.07"/>
<path id="Vector_57" fill-rule="evenodd" clip-rule="evenodd" d="M372.303 357C357.542 349.171 343.729 341.767 330.721 334.631C327.004 341.937 323.279 349.39 319.597 357H372.3H372.303Z" fill="var(--fill-0, #0D71C7)" fill-opacity="0.07"/>
<path id="Vector_58" fill-rule="evenodd" clip-rule="evenodd" d="M321.884 330.049C304.937 321.036 290.005 312.348 275.395 304.572C267.731 317.831 259.881 332.09 252.068 346.322C256.849 349.859 261.717 353.406 266.707 357H308.73C313.181 347.79 317.557 338.838 321.884 330.049Z" fill="var(--fill-0, #0D71C7)" fill-opacity="0.07"/>
<path id="Vector_59" fill-rule="evenodd" clip-rule="evenodd" d="M268.637 301.083C255.409 294.592 243.198 288.562 231.981 282.585C224.753 293.558 217.053 305.337 210.101 317.49C221.028 325.06 232.783 332.828 245.707 341.195C253.175 327.179 260.97 314.159 268.637 301.083Z" fill="var(--fill-0, #0D71C7)" fill-opacity="0.07"/>
<path id="Vector_60" fill-rule="evenodd" clip-rule="evenodd" d="M225.84 280.919C214.912 275.331 204.953 270.445 195.511 265.777C189.002 275.027 182.135 284.599 175.233 294.333C184.299 300.509 194.225 307.316 204.678 314.477C211.851 302.397 218.768 291.712 225.84 280.917V280.919Z" fill="var(--fill-0, #0D71C7)" fill-opacity="0.07"/>
<path id="Vector_61" fill-rule="evenodd" clip-rule="evenodd" d="M189.688 262.373C180.962 258.35 172.723 254.427 164.921 250.524C158.694 258.503 152.44 266.923 146.178 275.574C153.564 280.688 161.294 285.574 169.732 290.453C176.272 281.202 183.033 271.736 189.688 262.375V262.373Z" fill="var(--fill-0, #0D71C7)" fill-opacity="0.07"/>
<path id="Vector_62" fill-rule="evenodd" clip-rule="evenodd" d="M160.409 248.239C153.317 244.231 146.528 241.273 139.792 238.344C133.931 245.803 127.916 253.426 121.735 261.129C128.106 264.703 134.766 268.852 141.479 273.459C147.698 264.934 154.195 256.388 160.409 248.239Z" fill="var(--fill-0, #0D71C7)" fill-opacity="0.07"/>
<path id="Vector_63" fill-rule="evenodd" clip-rule="evenodd" d="M136.844 237.523C130.86 234.626 124.951 231.902 119.198 229.492C114.104 235.918 108.715 242.322 103.396 248.728C108.619 251.961 114.149 255.443 119.758 259.175C125.528 251.841 131.354 244.501 136.842 237.523H136.844Z" fill="var(--fill-0, #0D71C7)" fill-opacity="0.07"/>
<path id="Vector_64" fill-rule="evenodd" clip-rule="evenodd" d="M98.8262 219.898C94.0724 218.172 89.9213 216.238 85.798 214.334C81.362 219.331 76.7494 224.578 72.5 229.522C76.245 231.937 79.8866 234.539 84.3555 236.829C89.0412 231.193 93.8833 225.499 98.8262 219.895V219.898Z" fill="var(--fill-0, #0D71C7)" fill-opacity="0.07"/>
<path id="Vector_65" fill-rule="evenodd" clip-rule="evenodd" d="M83.6065 213.442C79.6017 211.545 75.9852 209.657 72.4268 208.259C68.2959 212.742 64.4727 217.106 60.1981 221.952C63.4564 224.072 66.8105 226.118 70.2782 228.464C74.8201 223.374 79.0872 218.365 83.6065 213.442Z" fill="var(--fill-0, #0D71C7)" fill-opacity="0.07"/>
<path id="Vector_66" fill-rule="evenodd" clip-rule="evenodd" d="M70.6539 207.562C67.4082 206.035 64.4626 204.449 61.4061 203.125C57.5248 207.279 53.6688 211.355 50.2163 215.468C52.7357 217.324 55.699 219.103 58.6193 221.011C62.7654 216.424 66.7323 211.979 70.6514 207.562H70.6539Z" fill="var(--fill-0, #0D71C7)" fill-opacity="0.07"/>
<path id="Vector_67" fill-rule="evenodd" clip-rule="evenodd" d="M59.1792 202.546C56.2185 201.216 53.5629 199.965 50.9906 198.53C47.9138 201.853 44.2621 205.759 41.1374 209.333C43.3668 210.946 45.8988 212.551 48.4586 214.37C51.9186 210.354 55.6359 206.398 59.1792 202.546Z" fill="var(--fill-0, #0D71C7)" fill-opacity="0.07"/>
<path id="Vector_68" fill-rule="evenodd" clip-rule="evenodd" d="M49.5682 197.805C47.0967 196.706 44.6328 195.62 42.464 194.514C39.4478 197.715 36.5476 200.88 33.549 204.008C35.448 205.443 37.6396 206.767 39.7075 208.538C42.9734 204.851 46.1434 201.329 49.5682 197.807V197.805Z" fill="var(--fill-0, #0D71C7)" fill-opacity="0.07"/>
<path id="Vector_69" fill-rule="evenodd" clip-rule="evenodd" d="M41.831 193.902C39.6747 192.876 37.8085 191.73 35.7481 190.802C33.1379 193.476 30.3739 196.418 27.5897 199.307C29.3097 200.597 30.9716 202.051 32.8504 203.534C35.7759 200.316 38.8148 197.168 41.831 193.902Z" fill="var(--fill-0, #0D71C7)" fill-opacity="0.07"/>
<path id="Vector_70" fill-rule="evenodd" clip-rule="evenodd" d="M34.8579 189.899C33.2186 188.687 31.592 187.549 29.9704 186.693C27.2972 189.498 24.8787 192.046 22.4425 194.644C23.7161 196.014 25.1359 197.286 26.6339 198.64C29.4181 195.65 32.1796 192.801 34.8579 189.896V189.899Z" fill="var(--fill-0, #0D71C7)" fill-opacity="0.07"/>
<path id="Vector_71" fill-rule="evenodd" clip-rule="evenodd" d="M29.0272 186.081C27.5519 185.279 26.1522 184.436 24.9594 183.382C22.6947 185.778 20.6267 187.945 18.1956 190.538C19.2447 191.705 20.3014 192.844 21.4993 194.02C23.933 191.492 26.3489 189.003 29.0272 186.081Z" fill="var(--fill-0, #0D71C7)" fill-opacity="0.07"/>
<path id="Vector_72" fill-rule="evenodd" clip-rule="evenodd" d="M254.877 177.272C245.238 175.948 236.054 174.817 227.139 173.422C221.578 180.092 215.977 186.523 210.08 193.217C218.577 195.008 227.62 196.699 237.254 199.077C243.17 191.617 249.102 184.436 254.88 177.272H254.877Z" fill="var(--fill-0, #0D71C7)" fill-opacity="0.07"/>
<path id="Vector_73" fill-rule="evenodd" clip-rule="evenodd" d="M76.0079 142.934C73.3851 142.954 70.8985 142.959 68.5481 142.999C65.7942 145.758 62.9545 148.45 60.2989 151.128C62.5939 151.088 64.5837 151.472 67.0955 151.562C69.9957 148.665 72.9438 145.776 76.0105 142.931L76.0079 142.934Z" fill="var(--fill-0, #0D71C7)" fill-opacity="0.07"/>
<path id="Vector_74" fill-rule="evenodd" clip-rule="evenodd" d="M75.5943 134.363C73.2162 134.652 70.9616 134.87 68.7776 135.048C66.1044 137.556 63.5497 139.967 61.0479 142.334C63.0579 142.347 65.1334 142.322 67.2746 142.237C69.9579 139.683 72.8101 136.989 75.5943 134.363Z" fill="var(--fill-0, #0D71C7)" fill-opacity="0.07"/>
<path id="Vector_75" fill-rule="evenodd" clip-rule="evenodd" d="M532.371 357C525.342 354.038 518.475 351.121 511.777 348.239C510.652 351.116 509.548 354.038 508.458 357H532.373H532.371Z" fill="var(--fill-0, #0D71C7)" fill-opacity="0.07"/>
<path id="Vector_76" fill-rule="evenodd" clip-rule="evenodd" d="M249.705 114.33C241.392 114.764 233.499 115.145 225.981 115.501C221.346 120.096 216.758 124.756 212.027 129.206C219.548 129.251 227.073 129.146 235.168 129.036C239.864 124.059 244.835 119.193 249.702 114.33H249.705Z" fill="var(--fill-0, #0D71C7)" fill-opacity="0.07"/>
<path id="Vector_77" fill-rule="evenodd" clip-rule="evenodd" d="M411.11 305.914C389.956 297.27 370.557 289.628 352.097 282.562C344.904 295.846 337.205 310.12 330.184 325.413C348.306 334.88 367.289 344.491 388.511 354.775C395.686 338.158 403.435 321.694 411.107 305.914H411.11Z" fill="var(--fill-0, #0D71C7)" fill-opacity="0.07"/>
<path id="Vector_78" fill-rule="evenodd" clip-rule="evenodd" d="M291.341 258.819C277.958 253.847 265.217 249.425 253.404 245.073C246.525 254.908 239.514 265.335 232.694 275.877C243.985 281.651 256.421 287.516 269.128 293.448C276.533 281.835 283.922 269.88 291.339 258.821L291.341 258.819Z" fill="var(--fill-0, #0D71C7)" fill-opacity="0.07"/>
<path id="Vector_79" fill-rule="evenodd" clip-rule="evenodd" d="M210.121 230.932C200.873 227.804 192.435 224.947 184.4 222.005C178.574 229.173 172.479 236.962 166.63 244.968C174.282 248.66 182.657 252.578 191.113 256.626C197.226 247.732 203.811 239.016 210.123 230.932H210.121Z" fill="var(--fill-0, #0D71C7)" fill-opacity="0.07"/>
<path id="Vector_80" fill-rule="evenodd" clip-rule="evenodd" d="M179.81 220.583C172.151 218.014 164.976 215.744 158.099 213.67C152.339 220.465 146.748 227.362 140.988 234.223C147.529 237.014 154.195 239.818 161.405 243.308C167.652 235.296 173.636 227.581 179.81 220.583Z" fill="var(--fill-0, #0D71C7)" fill-opacity="0.07"/>
<path id="Vector_81" fill-rule="evenodd" clip-rule="evenodd" d="M155.135 212.915C148.76 210.86 142.574 208.839 136.504 206.785C131.447 212.774 126.388 218.661 121.218 224.769C126.809 227.27 132.713 230.076 138.72 232.78C144.344 226.005 149.897 219.311 155.133 212.912L155.135 212.915Z" fill="var(--fill-0, #0D71C7)" fill-opacity="0.07"/>
<path id="Vector_82" fill-rule="evenodd" clip-rule="evenodd" d="M132.494 205.568C127.054 203.93 121.725 202.355 116.858 200.787C111.774 206.448 106.947 211.716 102.185 217.377C106.75 219.175 111.663 221.215 117.042 223.783C122.116 217.339 127.463 211.302 132.494 205.568Z" fill="var(--fill-0, #0D71C7)" fill-opacity="0.07"/>
<path id="Vector_83" fill-rule="evenodd" clip-rule="evenodd" d="M114.472 200.281C109.527 198.919 105.096 197.358 100.642 196.079C96.2791 200.787 91.8304 205.849 87.6844 210.753C91.7068 212.511 95.8428 214.465 100.645 216.093C105.103 211.003 109.837 205.493 114.47 200.281H114.472Z" fill="var(--fill-0, #0D71C7)" fill-opacity="0.07"/>
<path id="Vector_84" fill-rule="evenodd" clip-rule="evenodd" d="M98.2714 195.317C94.0094 194.17 89.997 193.177 86.2091 192.071C82.2118 196.428 78.0986 200.715 74.3031 204.981C77.7708 206.298 81.5713 207.851 85.3441 209.714C89.5632 204.775 93.906 200.077 98.2714 195.317Z" fill="var(--fill-0, #0D71C7)" fill-opacity="0.07"/>
<path id="Vector_85" fill-rule="evenodd" clip-rule="evenodd" d="M84.4639 191.524C80.8525 190.531 77.3975 189.477 74.0913 188.324C70.3967 192.299 66.6668 196.262 63.184 200.128C66.0943 201.522 69.3072 202.907 72.6059 204.204C76.5527 200.03 80.4541 195.738 84.4664 191.524H84.4639Z" fill="var(--fill-0, #0D71C7)" fill-opacity="0.07"/>
<path id="Vector_86" fill-rule="evenodd" clip-rule="evenodd" d="M71.8241 187.925C68.6263 186.957 65.7866 185.866 63.0428 185.003C59.6458 188.406 56.3017 191.895 52.9955 195.279C55.4291 196.787 58.2184 198.149 61.2371 199.368C64.7955 195.47 68.2556 191.712 71.8266 187.925H71.8241Z" fill="var(--fill-0, #0D71C7)" fill-opacity="0.07"/>
<path id="Vector_87" fill-rule="evenodd" clip-rule="evenodd" d="M61.0253 184.837C58.3672 183.922 55.7242 183.152 53.1619 182.447C50.3601 185.376 47.2682 188.577 44.426 191.69C46.7285 192.638 48.9756 193.716 51.442 194.77C54.5439 191.517 57.7619 188.246 61.0253 184.835V184.837Z" fill="var(--fill-0, #0D71C7)" fill-opacity="0.07"/>
<path id="Vector_88" fill-rule="evenodd" clip-rule="evenodd" d="M52.4634 181.913C50.2516 181.01 48.0576 180.174 45.803 179.432C43.1247 182.203 40.2321 185.304 37.5891 188.103C39.5814 189.104 41.5132 190.17 43.5938 191.198C46.5041 188.118 49.5329 185.088 52.4659 181.915L52.4634 181.913Z" fill="var(--fill-0, #0D71C7)" fill-opacity="0.07"/>
<path id="Vector_89" fill-rule="evenodd" clip-rule="evenodd" d="M44.7766 178.807C42.7414 178.05 40.9155 177.38 39.0291 176.806C36.4139 179.392 33.8516 181.92 31.3398 184.614C33.0245 185.424 34.6511 186.405 36.3534 187.478C39.135 184.629 41.8965 181.679 44.774 178.807H44.7766Z" fill="var(--fill-0, #0D71C7)" fill-opacity="0.07"/>
<path id="Vector_90" fill-rule="evenodd" clip-rule="evenodd" d="M192.934 169.913C185.711 169.175 178.758 168.616 172.09 167.886C167.16 173.191 162.131 178.624 157.115 183.982C163.549 185.06 169.972 186.352 177.185 187.812C182.445 181.729 187.651 175.679 192.934 169.913Z" fill="var(--fill-0, #0D71C7)" fill-opacity="0.07"/>
<path id="Vector_91" fill-rule="evenodd" clip-rule="evenodd" d="M169.061 167.405C162.774 166.615 156.631 166.08 151.113 165.345C146.281 170.302 141.502 175.371 137.016 180.335C142.478 181.393 148.114 182.462 154.202 183.435C159.034 178.235 164.129 172.692 169.061 167.405Z" fill="var(--fill-0, #0D71C7)" fill-opacity="0.07"/>
<path id="Vector_92" fill-rule="evenodd" clip-rule="evenodd" d="M148.374 165.042C142.639 164.49 137.497 164.001 132.509 163.522C128.189 167.906 123.657 172.607 119.344 177.109C124.141 178.012 129.102 178.925 134.325 180.031C138.869 174.909 143.663 169.853 148.374 165.042Z" fill="var(--fill-0, #0D71C7)" fill-opacity="0.07"/>
<path id="Vector_93" fill-rule="evenodd" clip-rule="evenodd" d="M130.156 163.251C125.274 162.784 120.638 162.501 116.212 162.092C112.16 166.181 107.85 170.703 103.938 174.726C108.152 175.436 112.571 175.963 117.097 176.675C121.231 172.363 125.838 167.663 130.158 163.251H130.156Z" fill="var(--fill-0, #0D71C7)" fill-opacity="0.07"/>
<path id="Vector_94" fill-rule="evenodd" clip-rule="evenodd" d="M114.046 161.934C109.774 161.46 105.782 160.881 101.774 160.723C98.0091 164.467 94.1531 168.365 90.3475 172.394C93.9387 173.013 97.7619 173.723 101.885 174.488C105.852 170.254 110.059 166.015 114.046 161.934Z" fill="var(--fill-0, #0D71C7)" fill-opacity="0.07"/>
<path id="Vector_95" fill-rule="evenodd" clip-rule="evenodd" d="M99.9182 160.657C96.1858 160.301 92.7434 159.973 89.2505 159.742C85.5761 163.291 81.884 166.943 78.6913 170.334C81.7529 170.946 85.0313 171.578 88.6528 172.032C92.3373 168.102 96.0042 164.39 99.9157 160.657H99.9182Z" fill="var(--fill-0, #0D71C7)" fill-opacity="0.07"/>
<path id="Vector_96" fill-rule="evenodd" clip-rule="evenodd" d="M87.6794 159.624C84.3328 159.283 81.0719 159.065 78.1516 158.749C74.7747 162.034 71.4508 165.423 68.1648 168.696C70.9162 169.341 74.0711 169.67 77.0344 170.106C80.4995 166.677 83.9318 163.173 87.6794 159.626V159.624Z" fill="var(--fill-0, #0D71C7)" fill-opacity="0.07"/>
<path id="Vector_97" fill-rule="evenodd" clip-rule="evenodd" d="M76.4694 158.801C73.5012 158.538 70.7371 158.275 68.1169 158.031C65.2469 161.001 62.2232 163.988 59.1767 166.898C61.6809 167.319 64.3365 167.959 66.866 168.523C70.0209 165.245 73.1607 162.132 76.4694 158.801Z" fill="var(--fill-0, #0D71C7)" fill-opacity="0.07"/>
<path id="Vector_98" fill-rule="evenodd" clip-rule="evenodd" d="M66.5104 157.858C63.9734 157.68 61.7062 157.384 59.3835 157.271C56.6169 159.897 53.8378 162.629 51.046 165.401C53.1897 165.797 55.2072 166.276 57.492 166.652C60.4729 163.735 63.5673 160.753 66.5104 157.856V157.858Z" fill="var(--fill-0, #0D71C7)" fill-opacity="0.07"/>
<path id="Vector_99" fill-rule="evenodd" clip-rule="evenodd" d="M58.0519 157.035C55.8679 156.772 53.9513 156.536 51.9136 156.358C49.2681 158.939 46.6075 161.44 43.9998 164.126C45.7904 164.56 47.7171 164.876 49.717 165.383C52.4457 162.591 55.2904 159.78 58.0544 157.035H58.0519Z" fill="var(--fill-0, #0D71C7)" fill-opacity="0.07"/>
<path id="Vector_100" fill-rule="evenodd" clip-rule="evenodd" d="M51.0561 156.311C49.2151 156.007 47.6415 155.618 46.0073 155.31C43.6165 157.7 41.1501 160.123 38.9282 162.368C40.3708 162.797 42.0151 163.211 43.5333 163.717C46.0098 161.242 48.6048 158.729 51.0561 156.311Z" fill="var(--fill-0, #0D71C7)" fill-opacity="0.07"/>
<path id="Vector_101" fill-rule="evenodd" clip-rule="evenodd" d="M44.9657 155.099C43.5333 154.816 41.9747 154.73 40.6785 154.382C38.4138 156.614 36.134 158.826 34.0433 160.958C35.211 161.352 36.3836 161.781 37.7556 162.15C40.0404 159.912 42.5119 157.595 44.9682 155.099H44.9657Z" fill="var(--fill-0, #0D71C7)" fill-opacity="0.07"/>
<path id="Vector_102" fill-rule="evenodd" clip-rule="evenodd" d="M28.6792 156.444C28.2379 156.067 27.8671 155.483 27.5519 155.066C26.0463 156.659 24.5407 158.061 23.2848 159.471C23.2621 160.163 23.5042 160.775 23.8094 161.367C25.4587 159.734 26.9744 158.174 28.6767 156.444H28.6792Z" fill="var(--fill-0, #0D71C7)" fill-opacity="0.07"/>
<path id="Vector_103" fill-rule="evenodd" clip-rule="evenodd" d="M58.0418 143.441C61.6431 142.678 65.1814 141.913 69.2442 141.11C70.2 140.624 71.1003 140.401 72.2503 139.972C67.9378 141.025 64.0137 141.86 60.2208 142.756C59.333 143.355 58.7404 143.079 58.0418 143.441Z" fill="var(--fill-0, #0D71C7)" fill-opacity="0.07"/>
<path id="Vector_104" fill-rule="evenodd" clip-rule="evenodd" d="M82.5599 139.42C87.6592 138.978 92.819 138.991 98.4353 138.735C99.4895 138.637 100.68 138.549 101.911 138.176C96.0445 138.735 90.6703 138.61 85.4853 138.921C84.2647 139.375 83.3341 139.212 82.5599 139.422V139.42Z" fill="var(--fill-0, #0D71C7)" fill-opacity="0.07"/>
<path id="Vector_105" fill-rule="evenodd" clip-rule="evenodd" d="M184.776 150.017C178.271 149.603 171.818 149.373 165.99 148.996C161.319 153.669 156.704 158.423 152.2 163.261C157.963 163.84 164.103 164.4 170.219 165.11C175.041 159.902 180.029 154.735 184.773 150.015L184.776 150.017Z" fill="var(--fill-0, #0D71C7)" fill-opacity="0.07"/>
<path id="Vector_106" fill-rule="evenodd" clip-rule="evenodd" d="M163.155 148.833C157.335 148.741 151.809 148.623 146.622 148.399C142.412 152.719 137.782 157.241 133.704 161.553C138.612 162.034 143.943 162.408 149.449 162.857C153.907 158.149 158.606 153.391 163.155 148.836V148.833Z" fill="var(--fill-0, #0D71C7)" fill-opacity="0.07"/>
<path id="Vector_107" fill-rule="evenodd" clip-rule="evenodd" d="M144.122 148.379C138.983 148.254 134.153 148.262 129.389 148.149C125.344 151.999 121.309 156.095 117.39 160.314C121.864 160.557 126.492 160.881 131.316 161.445C135.331 157.153 139.898 152.611 144.125 148.377L144.122 148.379Z" fill="var(--fill-0, #0D71C7)" fill-opacity="0.07"/>
<path id="Vector_108" fill-rule="evenodd" clip-rule="evenodd" d="M127.17 148.011C122.633 147.918 118.404 147.998 114.298 147.865C110.417 151.585 106.642 155.292 102.972 158.972C106.838 159.142 110.883 159.629 115.216 160.098C119.165 156.07 123.198 151.909 127.17 148.011Z" fill="var(--fill-0, #0D71C7)" fill-opacity="0.07"/>
<path id="Vector_109" fill-rule="evenodd" clip-rule="evenodd" d="M112.318 147.772C108.251 147.85 104.71 147.66 101 147.695C97.3433 151.224 93.7874 154.62 90.3425 158.076C93.7647 158.385 97.3358 158.676 101.119 158.912C104.785 155.167 108.515 151.625 112.318 147.772Z" fill="var(--fill-0, #0D71C7)" fill-opacity="0.07"/>
<path id="Vector_110" fill-rule="evenodd" clip-rule="evenodd" d="M99.3028 147.569C95.6713 147.529 92.3802 147.517 89.0941 147.399C85.7249 150.649 82.4666 153.862 79.1931 157.141C82.1286 157.708 85.3138 157.851 88.6478 158.081C92.2238 154.532 95.5805 151.103 99.3054 147.569H99.3028Z" fill="var(--fill-0, #0D71C7)" fill-opacity="0.07"/>
<path id="Vector_111" fill-rule="evenodd" clip-rule="evenodd" d="M87.5608 147.436C84.4942 147.436 81.3771 147.574 78.719 147.501C75.6423 150.378 72.4899 153.459 69.3753 156.408C72.0511 156.566 74.805 156.79 77.7127 157.133C80.8576 153.875 84.2546 150.682 87.5608 147.436Z" fill="var(--fill-0, #0D71C7)" fill-opacity="0.07"/>
<path id="Vector_112" fill-rule="evenodd" clip-rule="evenodd" d="M201.072 132.685C194.23 132.758 187.628 132.856 181.459 133.009C176.958 137.519 172.469 141.855 168.035 146.328C174.103 146.531 180.486 146.834 186.894 147.11C191.698 142.259 196.518 137.34 201.072 132.688V132.685Z" fill="var(--fill-0, #0D71C7)" fill-opacity="0.07"/>
<path id="Vector_113" fill-rule="evenodd" clip-rule="evenodd" d="M178.579 133.212C172.557 133.232 166.729 133.495 161.307 133.673C157.045 137.815 152.752 141.956 148.619 146.069C153.892 146.017 159.544 146.102 165.238 146.365C169.591 141.79 174.04 137.504 178.579 133.212Z" fill="var(--fill-0, #0D71C7)" fill-opacity="0.07"/>
<path id="Vector_114" fill-rule="evenodd" clip-rule="evenodd" d="M158.565 133.719C153.226 133.824 148.056 134.035 143.174 134.253C139.283 137.993 135.321 141.85 131.354 145.906C136.032 145.939 140.937 146.032 145.996 146.109C150.119 141.936 154.412 137.717 158.563 133.719H158.565Z" fill="var(--fill-0, #0D71C7)" fill-opacity="0.07"/>
<path id="Vector_115" fill-rule="evenodd" clip-rule="evenodd" d="M140.932 134.278C136.075 134.554 131.881 134.639 127.45 134.89C123.516 138.544 119.945 142.054 116.164 145.706C120.386 145.726 124.681 145.68 129.281 145.771C132.998 141.888 136.968 138.03 140.932 134.278Z" fill="var(--fill-0, #0D71C7)" fill-opacity="0.07"/>
<path id="Vector_116" fill-rule="evenodd" clip-rule="evenodd" d="M125.178 135.081C121.143 135.158 117.191 135.271 113.259 135.502C109.617 139.011 106.132 142.342 102.753 145.62C106.276 145.798 110.066 145.823 114.192 145.733C117.841 142.066 121.493 138.63 125.178 135.081Z" fill="var(--fill-0, #0D71C7)" fill-opacity="0.07"/>
<path id="Vector_117" fill-rule="evenodd" clip-rule="evenodd" d="M111.327 135.562C107.481 135.826 104.1 135.971 100.854 136.101C97.4165 139.267 93.9009 142.46 90.751 145.555C93.964 145.608 97.3231 145.713 101.008 145.62C104.39 142.355 107.814 139.031 111.327 135.562Z" fill="var(--fill-0, #0D71C7)" fill-opacity="0.07"/>
<path id="Vector_118" fill-rule="evenodd" clip-rule="evenodd" d="M98.8313 136.483C95.4115 136.766 92.3852 136.924 89.3009 137.107C86.1561 140.082 82.8675 143.15 79.8286 146.22C82.7314 145.997 85.7854 145.956 88.9731 145.826C92.1331 142.856 95.2754 139.889 98.8313 136.485V136.483Z" fill="var(--fill-0, #0D71C7)" fill-opacity="0.07"/>
<path id="Vector_119" fill-rule="evenodd" clip-rule="evenodd" d="M193.08 118.747C186.818 119.103 180.892 119.346 175.162 119.813C170.915 123.861 166.814 127.779 162.668 131.998C168.323 131.617 173.977 131.576 180.105 131.398C184.269 127.172 188.616 122.953 193.078 118.747H193.08Z" fill="var(--fill-0, #0D71C7)" fill-opacity="0.07"/>
<path id="Vector_120" fill-rule="evenodd" clip-rule="evenodd" d="M172.295 120.217C166.686 120.472 161.531 120.954 156.331 121.501C152.379 125.135 148.551 128.84 144.632 132.612C149.683 132.191 154.601 132.178 160.063 132.008C164.179 127.985 168.315 123.891 172.295 120.217Z" fill="var(--fill-0, #0D71C7)" fill-opacity="0.07"/>
<path id="Vector_121" fill-rule="evenodd" clip-rule="evenodd" d="M153.93 121.704C148.992 122.085 144.415 122.572 139.78 123.073C136.027 126.47 132.403 130.006 128.628 133.553C133.096 133.099 137.485 133.006 142.392 132.645C146.072 129.091 149.983 125.424 153.93 121.704Z" fill="var(--fill-0, #0D71C7)" fill-opacity="0.07"/>
<path id="Vector_122" fill-rule="evenodd" clip-rule="evenodd" d="M137.522 123.236C133.154 123.625 129.041 123.861 124.958 124.25C121.433 127.541 118.01 130.794 114.512 134.13C118.442 133.927 122.318 133.754 126.668 133.558C130.385 130.056 133.83 126.653 137.522 123.236Z" fill="var(--fill-0, #0D71C7)" fill-opacity="0.07"/>
<path id="Vector_123" fill-rule="evenodd" clip-rule="evenodd" d="M122.928 124.496C119.241 124.739 115.569 125.088 111.791 125.622C108.475 128.649 105.154 131.805 101.928 134.825C105.363 134.659 108.924 134.318 112.586 134.225C116.154 130.887 119.587 127.721 122.928 124.496Z" fill="var(--fill-0, #0D71C7)" fill-opacity="0.07"/>
<path id="Vector_124" fill-rule="evenodd" clip-rule="evenodd" d="M100.506 127.977C97.2626 128.378 94.1556 128.747 91.3033 128.998C88.3729 131.689 85.2457 134.541 82.2295 137.373C85.0969 137.117 88.0501 137.05 90.9957 136.866C93.9892 133.929 97.2248 130.962 100.506 127.98V127.977Z" fill="var(--fill-0, #0D71C7)" fill-opacity="0.07"/>
<path id="Vector_125" fill-rule="evenodd" clip-rule="evenodd" d="M89.5531 129.148C86.774 129.392 84.1235 129.57 81.5511 129.893C78.8577 132.487 76.1416 134.91 73.5516 137.443C75.8264 137.411 78.4239 137.225 80.903 137.147C83.672 134.566 86.6756 131.755 89.5531 129.148Z" fill="var(--fill-0, #0D71C7)" fill-opacity="0.07"/>
<path id="Vector_126" fill-rule="evenodd" clip-rule="evenodd" d="M186.307 107.266C180.673 107.931 175.24 108.571 169.765 109.223C165.887 112.83 162.101 116.326 158.117 119.993C163.488 119.296 168.53 118.992 174.277 118.373C178.204 114.575 182.284 110.999 186.307 107.266Z" fill="var(--fill-0, #0D71C7)" fill-opacity="0.07"/>
<path id="Vector_127" fill-rule="evenodd" clip-rule="evenodd" d="M167.248 109.486C162.232 110.033 157.193 110.743 152.404 111.342C148.851 114.693 145.149 118.077 141.439 121.546C146.13 121.027 150.659 120.663 155.721 120.242C159.698 116.517 163.496 113.053 167.248 109.484V109.486Z" fill="var(--fill-0, #0D71C7)" fill-opacity="0.07"/>
<path id="Vector_128" fill-rule="evenodd" clip-rule="evenodd" d="M150.112 111.611C145.658 112.117 141.29 112.717 136.811 113.389C133.399 116.59 130.138 119.519 126.575 122.798C130.653 122.409 134.816 122.08 139.197 121.789C142.836 118.3 146.599 114.836 150.112 111.611Z" fill="var(--fill-0, #0D71C7)" fill-opacity="0.07"/>
<path id="Vector_129" fill-rule="evenodd" clip-rule="evenodd" d="M134.862 113.692C130.907 114.297 126.956 114.819 123.203 115.325C119.942 118.315 116.533 121.315 113.292 124.26C117.014 123.879 120.679 123.477 124.542 123.041C128.116 119.808 131.498 116.748 134.862 113.692Z" fill="var(--fill-0, #0D71C7)" fill-opacity="0.07"/>
<path id="Vector_130" fill-rule="evenodd" clip-rule="evenodd" d="M111.108 117.899C107.706 118.446 104.556 118.822 101.598 119.203C98.5412 122 95.4569 124.754 92.5592 127.571C95.4695 127.267 98.4479 126.966 101.752 126.545C104.826 123.688 107.887 120.884 111.108 117.901V117.899Z" fill="var(--fill-0, #0D71C7)" fill-opacity="0.07"/>
<path id="Vector_131" fill-rule="evenodd" clip-rule="evenodd" d="M99.4037 120.043C96.3926 120.445 93.7092 120.866 90.973 121.373C88.1282 123.906 85.3365 126.414 82.348 129.113C84.9153 128.777 87.692 128.567 90.4686 128.336C93.3763 125.557 96.332 122.805 99.4062 120.041L99.4037 120.043Z" fill="var(--fill-0, #0D71C7)" fill-opacity="0.07"/>
<path id="Vector_132" fill-rule="evenodd" clip-rule="evenodd" d="M198.394 93.9398C192.455 94.8704 186.846 95.7006 181.454 96.6312C177.581 99.8518 173.906 103.163 169.932 106.79C175.366 105.959 180.854 105.368 186.46 104.643C190.457 100.95 194.404 97.4464 198.391 93.9373L198.394 93.9398Z" fill="var(--fill-0, #0D71C7)" fill-opacity="0.07"/>
<path id="Vector_133" fill-rule="evenodd" clip-rule="evenodd" d="M178.894 96.8996C173.586 97.8126 168.517 98.525 163.544 99.3853C160.099 102.578 156.49 105.658 152.833 109.005C157.657 108.307 162.638 107.695 167.674 106.93C171.364 103.579 175.051 100.313 178.894 96.8996Z" fill="var(--fill-0, #0D71C7)" fill-opacity="0.07"/>
<path id="Vector_134" fill-rule="evenodd" clip-rule="evenodd" d="M192.644 85.033C187.244 85.9836 182.07 87.027 177.011 87.9701C173.371 91.1883 169.813 94.2759 166.25 97.3737C171.024 96.556 176.206 95.7659 181.643 94.8428C185.235 91.6498 188.982 88.3489 192.646 85.033H192.644Z" fill="var(--fill-0, #0D71C7)" fill-opacity="0.07"/>
<path id="Vector_135" fill-rule="evenodd" clip-rule="evenodd" d="M251.374 88.4116C243.607 89.4826 236.374 90.4784 229.494 91.1933C224.917 95.1338 220.725 99.1771 216.67 102.97C223.348 102.41 230.46 101.608 238 100.797C242.29 96.7065 246.752 92.5603 251.372 88.4141L251.374 88.4116Z" fill="var(--fill-0, #0D71C7)" fill-opacity="0.07"/>
<path id="Vector_136" fill-rule="evenodd" clip-rule="evenodd" d="M41.7629 164.869C40.1136 164.415 38.6029 163.933 37.1604 163.544C34.9209 165.757 32.6058 168.014 30.4117 170.497C31.5264 171.077 32.8404 171.774 34.2274 172.406C36.6232 169.991 39.2006 167.349 41.7629 164.869Z" fill="var(--fill-0, #0D71C7)" fill-opacity="0.07"/>
<path id="Vector_137" fill-rule="evenodd" clip-rule="evenodd" d="M47.9416 166.429C46.0073 165.975 44.2142 165.481 42.4917 165.034C39.8614 167.693 37.3495 170.249 34.9562 172.677C36.3483 173.44 37.8817 174.152 39.5562 174.882C42.2799 172.057 45.1195 169.168 47.9416 166.429Z" fill="var(--fill-0, #0D71C7)" fill-opacity="0.07"/>
<path id="Vector_138" fill-rule="evenodd" clip-rule="evenodd" d="M55.1215 168.057C52.9022 167.663 50.8846 167.116 48.9402 166.562C45.9896 169.544 43.1499 172.369 40.4969 175.128C42.3127 175.715 44.1385 176.404 46.3048 176.951C49.2177 173.976 52.2465 170.986 55.124 168.057H55.1215Z" fill="var(--fill-0, #0D71C7)" fill-opacity="0.07"/>
<path id="Vector_139" fill-rule="evenodd" clip-rule="evenodd" d="M64.2886 169.885C61.6936 169.326 59.1742 168.734 56.6724 168.338C53.7294 171.255 50.6451 174.526 47.6667 177.613C49.9187 178.225 52.1153 179.121 54.3876 180.009C57.6207 176.532 61.0353 173.229 64.2886 169.883V169.885Z" fill="var(--fill-0, #0D71C7)" fill-opacity="0.07"/>
<path id="Vector_140" fill-rule="evenodd" clip-rule="evenodd" d="M74.2476 171.531C71.2138 171.077 68.195 170.623 65.653 170.043C62.3341 173.334 58.922 176.68 55.6233 180.129C58.1881 180.964 60.8941 181.689 63.6884 182.479C67.0324 178.898 70.553 175.278 74.2476 171.531Z" fill="var(--fill-0, #0D71C7)" fill-opacity="0.07"/>
<path id="Vector_141" fill-rule="evenodd" clip-rule="evenodd" d="M85.6063 173.698C82.1135 173.159 78.9056 172.552 75.844 171.907C72.0208 175.785 68.4397 179.51 65.0956 183.039C67.905 183.841 70.9465 184.842 74.0686 185.783C77.9902 181.642 81.6167 177.837 85.6063 173.695V173.698Z" fill="var(--fill-0, #0D71C7)" fill-opacity="0.07"/>
<path id="Vector_142" fill-rule="evenodd" clip-rule="evenodd" d="M98.4303 176.389C94.4582 175.712 90.7687 174.947 87.1699 174.217C83.3215 178.306 79.4932 182.241 75.6397 186.31C78.9384 187.383 82.4615 188.429 86.0704 189.482C90.1508 185.038 94.4002 180.583 98.4303 176.389Z" fill="var(--fill-0, #0D71C7)" fill-opacity="0.07"/>
<path id="Vector_143" fill-rule="evenodd" clip-rule="evenodd" d="M114.654 178.74C110.094 177.832 105.729 177.152 101.668 176.56C97.5022 180.709 93.2755 185.249 89.1345 189.681C92.9754 190.596 97.1214 191.582 101.257 192.946C105.812 187.95 110.147 183.31 114.656 178.74H114.654Z" fill="var(--fill-0, #0D71C7)" fill-opacity="0.07"/>
<path id="Vector_144" fill-rule="evenodd" clip-rule="evenodd" d="M131.336 181.689C126.199 180.688 121.14 179.557 116.702 178.682C112.152 183.455 107.547 188.161 103.199 193.039C107.58 194.376 112.215 195.836 117.274 197.03C121.909 191.88 126.582 186.884 131.336 181.692V181.689Z" fill="var(--fill-0, #0D71C7)" fill-opacity="0.07"/>
<path id="Vector_145" fill-rule="evenodd" clip-rule="evenodd" d="M151.166 185.226C145.217 184.193 139.316 183.297 134.219 181.83C129.42 187.117 124.514 192.45 119.962 197.642C125.021 199.104 130.335 200.592 135.961 202.006C141.106 196.24 146.031 190.782 151.169 185.226H151.166Z" fill="var(--fill-0, #0D71C7)" fill-opacity="0.07"/>
<path id="Vector_146" fill-rule="evenodd" clip-rule="evenodd" d="M173.634 189.972C166.643 188.529 160.215 187.24 154.172 185.871C148.985 191.564 143.744 197.253 138.625 203.185C144.929 204.928 150.745 207.103 157.418 208.806C162.931 202.473 168.381 196.167 173.634 189.972Z" fill="var(--fill-0, #0D71C7)" fill-opacity="0.07"/>
<path id="Vector_147" fill-rule="evenodd" clip-rule="evenodd" d="M199.602 195.909C191.426 194.308 184.18 192.796 176.874 191.208C171.422 197.461 165.982 203.827 160.535 210.05C167.357 212.303 174.582 214.508 182.163 216.765C188.16 209.463 193.859 202.598 199.602 195.909Z" fill="var(--fill-0, #0D71C7)" fill-opacity="0.07"/>
<path id="Vector_148" fill-rule="evenodd" clip-rule="evenodd" d="M469.89 159.762C464.743 155.653 459.704 151.507 455.099 147.722C447.66 151.929 440.253 155.847 432.773 160.289C436.947 164.641 441.08 169.203 446.076 173.871C454.141 169.11 462.201 164.377 469.888 159.762H469.89Z" fill="var(--fill-0, #0D71C7)" fill-opacity="0.07"/>
<path id="Vector_149" fill-rule="evenodd" clip-rule="evenodd" d="M217.407 151.329C215.359 149.27 213.359 147.354 211.278 145.713C208.381 147.74 205.362 149.899 202.381 151.954C204.232 153.903 205.98 155.997 207.859 158.352C211.066 155.957 214.267 153.579 217.409 151.329H217.407Z" fill="var(--fill-0, #0D71C7)" fill-opacity="0.07"/>
<path id="Vector_150" fill-rule="evenodd" clip-rule="evenodd" d="M136.367 75.2507C135.57 74.0367 134.839 72.7725 134.166 71.5058C131.558 73.6605 128.774 75.9931 126.04 78.2656C126.466 79.7229 127.069 81.0548 127.75 82.482C130.61 80.0816 133.518 77.6411 136.365 75.2507H136.367Z" fill="var(--fill-0, #0D71C7)" fill-opacity="0.07"/>
<path id="Vector_151" fill-rule="evenodd" clip-rule="evenodd" d="M559.701 285.855C553.267 280.826 547.2 276.008 541.306 271.766C533.632 274.124 526.101 276.916 518.2 279.58C523.93 284.215 529.569 289.224 535.364 294.622C543.606 291.527 552.037 288.737 559.703 285.853L559.701 285.855Z" fill="var(--fill-0, #0D71C7)" fill-opacity="0.07"/>
<path id="Vector_152" fill-rule="evenodd" clip-rule="evenodd" d="M154.732 91.5645C154.099 90.8697 153.6 90.1925 153.103 89.5403C151.408 90.7694 149.703 91.9759 148.056 93.1798C148.437 93.9248 148.831 94.8002 149.272 95.5326C151.095 94.2157 152.851 92.9089 154.732 91.562V91.5645Z" fill="var(--fill-0, #0D71C7)" fill-opacity="0.07"/>
<path id="Vector_153" fill-rule="evenodd" clip-rule="evenodd" d="M213.129 59.7772C211.601 59.1275 210.154 58.5531 208.721 58.0239C206.56 59.4912 204.401 61.0087 202.192 62.609C203.397 63.3339 204.721 63.9785 206.227 64.8113C208.476 63.058 210.804 61.4201 213.129 59.7797V59.7772Z" fill="var(--fill-0, #0D71C7)" fill-opacity="0.07"/>
<path id="Vector_154" fill-rule="evenodd" clip-rule="evenodd" d="M538.169 119.301C532.111 116.813 526.48 114.641 521.128 112.594C514.208 115.458 507.656 118.202 501.387 121.112C506.221 123.522 511.313 125.991 517.01 129.026C524.323 125.622 531.43 122.246 538.169 119.301Z" fill="var(--fill-0, #0D71C7)" fill-opacity="0.07"/>
<path id="Vector_155" fill-rule="evenodd" clip-rule="evenodd" d="M188.357 55.8994C187.434 55.4654 186.743 54.8961 186.011 54.4671C184.251 55.6159 182.574 56.9127 180.879 58.1643C181.5 58.7137 182.072 59.3633 182.821 59.865C184.508 58.5782 186.43 57.2162 188.357 55.8994Z" fill="var(--fill-0, #0D71C7)" fill-opacity="0.07"/>
<path id="Vector_156" fill-rule="evenodd" clip-rule="evenodd" d="M149.847 46.4231C149.358 46.0669 148.823 45.7935 148.341 45.465C147.073 46.4457 145.683 47.459 144.465 48.3946C144.886 48.7759 145.252 49.1621 145.628 49.6036C147.017 48.5577 148.46 47.4916 149.847 46.4231Z" fill="var(--fill-0, #0D71C7)" fill-opacity="0.07"/>
<path id="Vector_157" fill-rule="evenodd" clip-rule="evenodd" d="M56.8663 143.007C56.6595 142.48 56.3872 141.953 56.2459 141.446C55.2321 142.139 54.2864 142.929 53.2726 143.651C53.3508 144.263 53.492 144.843 53.6332 145.422C54.7757 144.612 55.792 143.809 56.8663 143.007Z" fill="var(--fill-0, #0D71C7)" fill-opacity="0.07"/>
<path id="Vector_158" fill-rule="evenodd" clip-rule="evenodd" d="M564.354 200.953C560.041 198.894 556.551 196.95 552.869 195.088C547.462 196.616 542.284 197.998 537.125 199.493C540.29 201.402 543.873 203.627 547.666 205.734C553.318 204.199 558.853 202.528 564.354 200.953Z" fill="var(--fill-0, #0D71C7)" fill-opacity="0.07"/>
<path id="Vector_159" fill-rule="evenodd" clip-rule="evenodd" d="M246.999 49.8143C245.486 49.3678 243.94 49.0618 242.631 48.6053C240.525 49.9773 238.301 51.402 236.308 52.7239C237.577 53.2807 238.765 53.7548 240.167 54.2765C242.263 52.8393 244.714 51.2541 246.999 49.8143Z" fill="var(--fill-0, #0D71C7)" fill-opacity="0.07"/>
<path id="Vector_160" fill-rule="evenodd" clip-rule="evenodd" d="M191.239 15.8974C190.278 15.7193 189.317 15.5663 188.374 15.5187C186.791 16.522 185.282 17.6683 183.767 18.7669C184.665 18.9224 185.567 19.093 186.473 19.2911C188.092 18.1072 189.665 16.981 191.239 15.8974Z" fill="var(--fill-0, #0D71C7)" fill-opacity="0.07"/>
<path id="Vector_161" fill-rule="evenodd" clip-rule="evenodd" d="M167.316 57.447C166.444 57.1711 165.584 56.9754 164.779 56.7296C163.425 57.7028 161.892 58.7713 160.469 59.7345C161.279 60.0205 162.025 60.2863 162.84 60.5773C164.373 59.5138 165.788 58.513 167.319 57.447H167.316Z" fill="var(--fill-0, #0D71C7)" fill-opacity="0.07"/>
<path id="Vector_162" fill-rule="evenodd" clip-rule="evenodd" d="M20.1375 169.86C19.8903 169.459 19.7062 169.143 19.4566 168.742C18.6571 169.288 17.8602 169.84 17.1263 170.354C17.3054 170.768 17.4214 171.157 17.671 171.493C18.473 170.974 19.3406 170.415 20.1375 169.86Z" fill="var(--fill-0, #0D71C7)" fill-opacity="0.07"/>
<path id="Vector_163" fill-rule="evenodd" clip-rule="evenodd" d="M146.755 79.8258C145.883 79.5398 145.065 79.2113 144.264 79.0006C142.987 79.8659 141.585 80.794 140.239 81.6568C141.048 81.9428 141.858 82.2438 142.612 82.5849C143.951 81.6744 145.355 80.7589 146.755 79.8258Z" fill="var(--fill-0, #0D71C7)" fill-opacity="0.07"/>
<path id="Vector_164" fill-rule="evenodd" clip-rule="evenodd" d="M282.51 91.7953C280.616 91.3011 278.8 90.797 277.055 90.3304C274.757 91.567 272.52 92.7434 270.097 94.0377C271.89 94.4465 273.65 95.0059 275.408 95.5251C277.693 94.2509 280.195 92.9867 282.51 91.7953Z" fill="var(--fill-0, #0D71C7)" fill-opacity="0.07"/>
<path id="Vector_165" fill-rule="evenodd" clip-rule="evenodd" d="M14.0218 161.189C13.7873 160.78 13.4821 160.427 13.2451 160.111C12.4608 160.61 11.737 161.131 11.0107 161.716C11.2452 162.065 11.4848 162.428 11.7193 162.835C12.5112 162.275 13.3006 161.716 14.0218 161.189Z" fill="var(--fill-0, #0D71C7)" fill-opacity="0.07"/>
<path id="Vector_166" fill-rule="evenodd" clip-rule="evenodd" d="M125.627 99.4129C124.817 99.1295 124 98.7557 123.256 98.4572C122.003 99.2925 120.873 100.058 119.677 100.873C120.358 101.189 121.044 101.545 121.796 101.926C123.052 101.058 124.313 100.301 125.627 99.4104V99.4129Z" fill="var(--fill-0, #0D71C7)" fill-opacity="0.07"/>
<path id="Vector_167" fill-rule="evenodd" clip-rule="evenodd" d="M135.901 66.2109C135.192 66.0278 134.499 65.9575 133.795 65.8271C132.764 66.5294 131.682 67.3145 130.643 67.9742C131.223 68.0996 131.929 68.2802 132.519 68.4809C133.664 67.6908 134.751 66.9283 135.901 66.2134V66.2109Z" fill="var(--fill-0, #0D71C7)" fill-opacity="0.07"/>
<path id="Vector_168" fill-rule="evenodd" clip-rule="evenodd" d="M656 247.168C650.245 245.437 644.16 243.383 638.009 241.599C632.312 242.818 626.158 243.686 620.373 244.752C625.903 246.443 631.893 248.424 637.426 250.388C643.89 249.302 649.869 248.301 656 247.17V247.168Z" fill="var(--fill-0, #0D71C7)" fill-opacity="0.07"/>
<path id="Vector_169" fill-rule="evenodd" clip-rule="evenodd" d="M213.722 26.239C212.454 26.2892 211.311 26.3018 210.169 26.3118C208.83 27.1621 207.432 28.05 205.99 29.0007C207.127 28.948 208.169 29.0433 209.316 29.0333C210.759 28.0851 212.204 27.127 213.72 26.239H213.722Z" fill="var(--fill-0, #0D71C7)" fill-opacity="0.07"/>
<path id="Vector_170" fill-rule="evenodd" clip-rule="evenodd" d="M29.8115 166.201C29.4232 165.912 29.0348 165.614 28.7801 165.338C28.0563 165.799 27.2644 166.326 26.6037 166.747C26.8584 167.056 27.1787 167.319 27.4989 167.65C28.2908 167.116 29.0197 166.67 29.8115 166.203V166.201Z" fill="var(--fill-0, #0D71C7)" fill-opacity="0.07"/>
<path id="Vector_171" fill-rule="evenodd" clip-rule="evenodd" d="M371.773 135.457C368.908 134.759 365.839 134.343 362.916 133.711C360.036 134.712 357.416 135.587 354.841 136.616C357.494 137.102 360.366 137.787 363.365 138.472C366.167 137.438 369.044 136.445 371.77 135.457H371.773Z" fill="var(--fill-0, #0D71C7)" fill-opacity="0.07"/>
<path id="Vector_172" fill-rule="evenodd" clip-rule="evenodd" d="M361.993 187.423C359.408 185.81 356.851 184.205 354.278 182.808C350.677 184.19 347.005 185.815 343.308 187.383C345.701 188.976 348.079 190.528 350.483 192.339C354.49 190.523 358.286 189.001 361.993 187.421V187.423Z" fill="var(--fill-0, #0D71C7)" fill-opacity="0.07"/>
<path id="Vector_173" fill-rule="evenodd" clip-rule="evenodd" d="M21.6456 179.352C21.3984 178.642 21.2194 177.917 21.0378 177.297C20.0265 178.022 18.9446 178.825 17.8602 179.66C17.9686 180.385 18.0796 181.208 18.2511 181.95C19.3406 181.095 20.4931 180.224 21.6456 179.349V179.352Z" fill="var(--fill-0, #0D71C7)" fill-opacity="0.07"/>
<path id="Vector_174" fill-rule="evenodd" clip-rule="evenodd" d="M299.402 123.252C297.071 121.922 294.923 120.736 292.928 119.579C289.861 121.278 286.666 123.081 283.473 124.917C285.481 126.149 287.274 127.628 289.511 128.9C292.905 126.996 296.146 125.103 299.402 123.252Z" fill="var(--fill-0, #0D71C7)" fill-opacity="0.07"/>
</g>
<defs>
<clipPath id="clip0_0_217">
<rect width="656" height="357" fill="white"/>
</clipPath>
</defs>
</svg>
