<svg width="60" height="60" viewBox="0 0 60 60" fill="none" xmlns="http://www.w3.org/2000/svg">
<g clip-path="url(#clip0_1278_49492)">
<path d="M30 60C46.5685 60 60 46.5685 60 30C60 13.4315 46.5685 0 30 0C13.4315 0 0 13.4315 0 30C0 46.5685 13.4315 60 30 60Z" fill="#FFD29A"/>
<path d="M58.3262 39.8973C54.2375 51.602 43.0977 59.9996 29.9984 59.9996C28.8944 60 27.7912 59.9397 26.6938 59.8191L14.6773 47.8027L19.5195 41.3305C14.3141 34.9648 17.5895 26.6082 17.5895 26.6082L12.6406 21.6605L24.6078 13.5664L29.7031 18.6605L39.1777 20.7512L58.3262 39.8973Z" fill="#E4AC67"/>
<path d="M59.9965 30.0016C59.999 32.9877 59.5558 35.9576 58.6816 38.8129L35.5781 15.7047L45.0105 13.3281L59.9473 28.2695C59.9801 28.843 59.9965 29.4203 59.9965 30.0016Z" fill="#E4AC67"/>
<path d="M37.0781 42.6406L40.1693 39.5494L45.3293 44.7094C45.7391 45.1192 45.9694 45.6751 45.9694 46.2546C45.9694 46.8342 45.7391 47.39 45.3293 47.7998C44.9195 48.2096 44.3637 48.4398 43.7841 48.4398C43.2046 48.4398 42.6488 48.2096 42.2389 47.7998L37.079 42.6398L37.0781 42.6406Z" fill="#2F558D"/>
<path d="M14.6736 47.8103C14.2638 47.4005 14.0335 46.8447 14.0335 46.2651C14.0335 45.6855 14.2638 45.1297 14.6736 44.7199L19.8336 39.5599L22.9239 42.6503L17.7639 47.8103C17.3541 48.2201 16.7983 48.4503 16.2188 48.4503C15.6392 48.4503 15.0834 48.2201 14.6736 47.8103Z" fill="#2F558D"/>
<path d="M30.0113 47.0422C38.1552 47.0422 44.757 40.4403 44.757 32.2965C44.757 24.1527 38.1552 17.5508 30.0113 17.5508C21.8675 17.5508 15.2656 24.1527 15.2656 32.2965C15.2656 40.4403 21.8675 47.0422 30.0113 47.0422Z" fill="#2882CD"/>
<path d="M30.007 44.6805C27.1422 44.6802 24.366 43.6866 22.1516 41.869C19.9372 40.0513 18.4215 37.5221 17.8628 34.7122C17.3041 31.9024 17.7369 28.9857 19.0876 26.4592C20.4382 23.9327 22.6231 21.9527 25.2699 20.8565C27.9168 19.7602 30.8618 19.6157 33.6033 20.4474C36.3448 21.2791 38.7131 23.0357 40.3046 25.4178C41.8962 27.7999 42.6126 30.6601 42.3318 33.5112C42.0509 36.3623 40.7902 39.0278 38.7645 41.0535C37.617 42.207 36.2522 43.1215 34.749 43.7441C33.2458 44.3667 31.6341 44.6849 30.007 44.6805Z" fill="white"/>
<path d="M30.0125 22.4469C30.5458 22.4469 30.9781 22.0145 30.9781 21.4812C30.9781 20.9479 30.5458 20.5156 30.0125 20.5156C29.4792 20.5156 29.0469 20.9479 29.0469 21.4812C29.0469 22.0145 29.4792 22.4469 30.0125 22.4469Z" fill="#ACACAC"/>
<path d="M24.5984 23.8961C25.1317 23.8961 25.5641 23.4638 25.5641 22.9305C25.5641 22.3972 25.1317 21.9648 24.5984 21.9648C24.0651 21.9648 23.6328 22.3972 23.6328 22.9305C23.6328 23.4638 24.0651 23.8961 24.5984 23.8961Z" fill="#ACACAC"/>
<path d="M20.6453 27.857C21.1786 27.857 21.6109 27.4247 21.6109 26.8914C21.6109 26.3581 21.1786 25.9258 20.6453 25.9258C20.112 25.9258 19.6797 26.3581 19.6797 26.8914C19.6797 27.4247 20.112 27.857 20.6453 27.857Z" fill="#ACACAC"/>
<path d="M19.1922 33.2633C19.7255 33.2633 20.1578 32.831 20.1578 32.2977C20.1578 31.7644 19.7255 31.332 19.1922 31.332C18.6589 31.332 18.2266 31.7644 18.2266 32.2977C18.2266 32.831 18.6589 33.2633 19.1922 33.2633Z" fill="#ACACAC"/>
<path d="M20.6453 38.6734C21.1786 38.6734 21.6109 38.2411 21.6109 37.7078C21.6109 37.1745 21.1786 36.7422 20.6453 36.7422C20.112 36.7422 19.6797 37.1745 19.6797 37.7078C19.6797 38.2411 20.112 38.6734 20.6453 38.6734Z" fill="#ACACAC"/>
<path d="M24.5984 42.6344C25.1317 42.6344 25.5641 42.202 25.5641 41.6687C25.5641 41.1354 25.1317 40.7031 24.5984 40.7031C24.0651 40.7031 23.6328 41.1354 23.6328 41.6687C23.6328 42.202 24.0651 42.6344 24.5984 42.6344Z" fill="#ACACAC"/>
<path d="M30.0125 44.0836C30.5458 44.0836 30.9781 43.6513 30.9781 43.118C30.9781 42.5847 30.5458 42.1523 30.0125 42.1523C29.4792 42.1523 29.0469 42.5847 29.0469 43.118C29.0469 43.6513 29.4792 44.0836 30.0125 44.0836Z" fill="#ACACAC"/>
<path d="M35.4188 42.6344C35.9521 42.6344 36.3844 42.202 36.3844 41.6687C36.3844 41.1354 35.9521 40.7031 35.4188 40.7031C34.8855 40.7031 34.4531 41.1354 34.4531 41.6687C34.4531 42.202 34.8855 42.6344 35.4188 42.6344Z" fill="#ACACAC"/>
<path d="M39.3797 38.6734C39.913 38.6734 40.3453 38.2411 40.3453 37.7078C40.3453 37.1745 39.913 36.7422 39.3797 36.7422C38.8464 36.7422 38.4141 37.1745 38.4141 37.7078C38.4141 38.2411 38.8464 38.6734 39.3797 38.6734Z" fill="#ACACAC"/>
<path d="M40.8328 33.2633C41.3661 33.2633 41.7984 32.831 41.7984 32.2977C41.7984 31.7644 41.3661 31.332 40.8328 31.332C40.2995 31.332 39.8672 31.7644 39.8672 32.2977C39.8672 32.831 40.2995 33.2633 40.8328 33.2633Z" fill="#ACACAC"/>
<path d="M39.3797 27.857C39.913 27.857 40.3453 27.4247 40.3453 26.8914C40.3453 26.3581 39.913 25.9258 39.3797 25.9258C38.8464 25.9258 38.4141 26.3581 38.4141 26.8914C38.4141 27.4247 38.8464 27.857 39.3797 27.857Z" fill="#ACACAC"/>
<path d="M35.4188 23.8961C35.9521 23.8961 36.3844 23.4638 36.3844 22.9305C36.3844 22.3972 35.9521 21.9648 35.4188 21.9648C34.8855 21.9648 34.4531 22.3972 34.4531 22.9305C34.4531 23.4638 34.8855 23.8961 35.4188 23.8961Z" fill="#ACACAC"/>
<path d="M30.5789 31.7805H29.4375L29.9695 23.2691C29.9695 23.2589 29.9736 23.249 29.9809 23.2418C29.9881 23.2345 29.9979 23.2305 30.0082 23.2305C30.0185 23.2305 30.0283 23.2345 30.0355 23.2418C30.0428 23.249 30.0469 23.2589 30.0469 23.2691L30.5789 31.7805Z" fill="#2F558D"/>
<path d="M29.9004 31.2517L29.4832 31.888L24.8566 29.297C24.8132 29.2724 24.775 29.2395 24.7444 29.2001C24.7137 29.1608 24.691 29.1158 24.6777 29.0677C24.6645 29.0195 24.6608 28.9693 24.667 28.9198C24.6731 28.8702 24.689 28.8224 24.7136 28.779C24.7636 28.6913 24.8462 28.6269 24.9435 28.5999C25.0408 28.5729 25.1448 28.5854 25.2328 28.6349L29.9004 31.2517Z" fill="#2F558D"/>
<path d="M30.0102 33.1414C30.7622 33.1414 31.3719 32.5317 31.3719 31.7797C31.3719 31.0276 30.7622 30.418 30.0102 30.418C29.2581 30.418 28.6484 31.0276 28.6484 31.7797C28.6484 32.5317 29.2581 33.1414 30.0102 33.1414Z" fill="#ACACAC"/>
<path d="M24.4359 15.7027C24.6063 15.5874 24.7485 15.4353 24.8523 15.2577C24.956 15.0801 25.0186 14.8814 25.0353 14.6764C25.0521 14.4714 25.0226 14.2652 24.9491 14.0731C24.8756 13.881 24.7599 13.7078 24.6105 13.5664C23.3824 12.4266 21.8046 11.7363 20.134 11.6078C18.4634 11.4793 16.7985 11.9203 15.4106 12.8588C14.0226 13.7974 12.9933 15.1783 12.4904 16.7766C11.9875 18.3748 12.0406 20.0963 12.641 21.6605C12.7167 21.8526 12.8346 22.0252 12.9861 22.1655C13.1376 22.3058 13.3187 22.4102 13.516 22.471C13.7133 22.5317 13.9217 22.5473 14.1259 22.5166C14.33 22.4858 14.5246 22.4095 14.6953 22.2934L24.4359 15.7027Z" fill="#FE8A2C"/>
<path d="M35.5848 15.7035C35.4135 15.5885 35.2703 15.4363 35.1658 15.2584C35.0613 15.0804 34.9982 14.8812 34.9812 14.6756C34.9642 14.4699 34.9938 14.2631 35.0676 14.0704C35.1415 13.8777 35.2578 13.7041 35.4079 13.5625C36.636 12.4227 38.2138 11.7324 39.8844 11.6039C41.555 11.4754 43.2199 11.9164 44.6078 12.8549C45.9958 13.7935 47.0251 15.1744 47.528 16.7727C48.0309 18.3709 47.9778 20.0924 47.3774 21.6566C47.3017 21.8487 47.1838 22.0213 47.0323 22.1616C46.8808 22.3019 46.6997 22.4063 46.5024 22.4671C46.3051 22.5278 46.0967 22.5434 45.8925 22.5127C45.6884 22.4819 45.4937 22.4056 45.3231 22.2894L35.5848 15.7035Z" fill="#FE8A2C"/>
</g>
<defs>
<clipPath id="clip0_1278_49492">
<rect width="60" height="60" fill="white"/>
</clipPath>
</defs>
</svg>
