<svg width="60" height="60" viewBox="0 0 60 60" fill="none" xmlns="http://www.w3.org/2000/svg">
<g clip-path="url(#clip0_404_21248)">
<path d="M30 60C46.5685 60 60 46.5685 60 30C60 13.4315 46.5685 0 30 0C13.4315 0 0 13.4315 0 30C0 46.5685 13.4315 60 30 60Z" fill="#FFD29A"/>
<path d="M58.3281 39.8973C54.2395 51.602 43.0996 59.9996 30.0004 59.9996C28.8964 60 27.7931 59.9397 26.6957 59.8191L14.6793 47.8027L19.5215 41.3305C14.316 34.9648 17.5914 26.6082 17.5914 26.6082L12.6426 21.6605L24.6098 13.5664L29.7051 18.6605L39.1797 20.7512L58.3281 39.8973Z" fill="#E4AC67"/>
<path d="M60.0004 29.9996C60.0029 32.9858 59.5597 35.9556 58.6855 38.8109L35.582 15.7027L45.0145 13.3262L59.9512 28.2676C59.984 28.841 60.0004 29.4184 60.0004 29.9996Z" fill="#E4AC67"/>
<path d="M37.0762 42.6416L40.1674 39.5504L45.3274 44.7104C45.7372 45.1202 45.9674 45.676 45.9674 46.2556C45.9674 46.8351 45.7372 47.391 45.3274 47.8008C44.9176 48.2106 44.3617 48.4408 43.7822 48.4408C43.2026 48.4408 42.6468 48.2106 42.237 47.8008L37.077 42.6408L37.0762 42.6416Z" fill="#2F558D"/>
<path d="M14.6775 47.8103C14.2677 47.4005 14.0374 46.8447 14.0374 46.2651C14.0374 45.6855 14.2677 45.1297 14.6775 44.7199L19.8375 39.5599L22.9278 42.6503L17.7678 47.8103C17.358 48.2201 16.8022 48.4503 16.2227 48.4503C15.6431 48.4503 15.0873 48.2201 14.6775 47.8103Z" fill="#2F558D"/>
<path d="M30.0074 47.0422C38.1512 47.0422 44.7531 40.4403 44.7531 32.2965C44.7531 24.1527 38.1512 17.5508 30.0074 17.5508C21.8636 17.5508 15.2617 24.1527 15.2617 32.2965C15.2617 40.4403 21.8636 47.0422 30.0074 47.0422Z" fill="#2882CD"/>
<path d="M30.009 44.6814C27.1441 44.6812 24.368 43.6876 22.1536 41.8699C19.9391 40.0523 18.4234 37.5231 17.8647 34.7132C17.306 31.9034 17.7389 28.9867 19.0895 26.4602C20.4402 23.9337 22.625 21.9536 25.2719 20.8574C27.9187 19.7612 30.8638 19.6167 33.6053 20.4484C36.3467 21.2801 38.715 23.0367 40.3066 25.4188C41.8982 27.8008 42.6146 30.6611 42.3337 33.5122C42.0529 36.3632 40.7922 39.0287 38.7664 41.0545C37.619 42.208 36.2542 43.1225 34.751 43.7451C33.2478 44.3676 31.636 44.6859 30.009 44.6814Z" fill="white"/>
<path d="M30.0086 22.4449C30.5419 22.4449 30.9742 22.0126 30.9742 21.4793C30.9742 20.946 30.5419 20.5137 30.0086 20.5137C29.4753 20.5137 29.043 20.946 29.043 21.4793C29.043 22.0126 29.4753 22.4449 30.0086 22.4449Z" fill="#ACACAC"/>
<path d="M24.6004 23.8932C25.1337 23.8932 25.566 23.4608 25.566 22.9275C25.566 22.3942 25.1337 21.9619 24.6004 21.9619C24.0671 21.9619 23.6348 22.3942 23.6348 22.9275C23.6348 23.4608 24.0671 23.8932 24.6004 23.8932Z" fill="#ACACAC"/>
<path d="M20.6395 27.8541C21.1728 27.8541 21.6051 27.4218 21.6051 26.8885C21.6051 26.3552 21.1728 25.9229 20.6395 25.9229C20.1062 25.9229 19.6738 26.3552 19.6738 26.8885C19.6738 27.4218 20.1062 27.8541 20.6395 27.8541Z" fill="#ACACAC"/>
<path d="M19.1902 33.2623C19.7235 33.2623 20.1559 32.83 20.1559 32.2967C20.1559 31.7634 19.7235 31.3311 19.1902 31.3311C18.6569 31.3311 18.2246 31.7634 18.2246 32.2967C18.2246 32.83 18.6569 33.2623 19.1902 33.2623Z" fill="#ACACAC"/>
<path d="M20.6395 38.6715C21.1728 38.6715 21.6051 38.2392 21.6051 37.7059C21.6051 37.1726 21.1728 36.7402 20.6395 36.7402C20.1062 36.7402 19.6738 37.1726 19.6738 37.7059C19.6738 38.2392 20.1062 38.6715 20.6395 38.6715Z" fill="#ACACAC"/>
<path d="M24.6004 42.6314C25.1337 42.6314 25.566 42.1991 25.566 41.6658C25.566 41.1325 25.1337 40.7002 24.6004 40.7002C24.0671 40.7002 23.6348 41.1325 23.6348 41.6658C23.6348 42.1991 24.0671 42.6314 24.6004 42.6314Z" fill="#ACACAC"/>
<path d="M30.0086 44.0816C30.5419 44.0816 30.9742 43.6493 30.9742 43.116C30.9742 42.5827 30.5419 42.1504 30.0086 42.1504C29.4753 42.1504 29.043 42.5827 29.043 43.116C29.043 43.6493 29.4753 44.0816 30.0086 44.0816Z" fill="#ACACAC"/>
<path d="M35.4188 42.6314C35.9521 42.6314 36.3844 42.1991 36.3844 41.6658C36.3844 41.1325 35.9521 40.7002 35.4188 40.7002C34.8855 40.7002 34.4531 41.1325 34.4531 41.6658C34.4531 42.1991 34.8855 42.6314 35.4188 42.6314Z" fill="#ACACAC"/>
<path d="M39.3777 38.6715C39.911 38.6715 40.3434 38.2392 40.3434 37.7059C40.3434 37.1726 39.911 36.7402 39.3777 36.7402C38.8444 36.7402 38.4121 37.1726 38.4121 37.7059C38.4121 38.2392 38.8444 38.6715 39.3777 38.6715Z" fill="#ACACAC"/>
<path d="M40.827 33.2623C41.3603 33.2623 41.7926 32.83 41.7926 32.2967C41.7926 31.7634 41.3603 31.3311 40.827 31.3311C40.2937 31.3311 39.8613 31.7634 39.8613 32.2967C39.8613 32.83 40.2937 33.2623 40.827 33.2623Z" fill="#ACACAC"/>
<path d="M39.3777 27.8541C39.911 27.8541 40.3434 27.4218 40.3434 26.8885C40.3434 26.3552 39.911 25.9229 39.3777 25.9229C38.8444 25.9229 38.4121 26.3552 38.4121 26.8885C38.4121 27.4218 38.8444 27.8541 39.3777 27.8541Z" fill="#ACACAC"/>
<path d="M35.4188 23.8932C35.9521 23.8932 36.3844 23.4608 36.3844 22.9275C36.3844 22.3942 35.9521 21.9619 35.4188 21.9619C34.8855 21.9619 34.4531 22.3942 34.4531 22.9275C34.4531 23.4608 34.8855 23.8932 35.4188 23.8932Z" fill="#ACACAC"/>
<path d="M30.5789 31.7785H29.4375L29.9695 23.2672C29.9695 23.2569 29.9736 23.2471 29.9809 23.2398C29.9881 23.2326 29.9979 23.2285 30.0082 23.2285C30.0185 23.2285 30.0283 23.2326 30.0355 23.2398C30.0428 23.2471 30.0469 23.2569 30.0469 23.2672L30.5789 31.7785Z" fill="#2F558D"/>
<path d="M29.8984 31.2517L29.4812 31.888L24.8547 29.297C24.8112 29.2724 24.7731 29.2395 24.7424 29.2001C24.7117 29.1608 24.6891 29.1158 24.6758 29.0677C24.6625 29.0195 24.6589 28.9693 24.665 28.9198C24.6712 28.8702 24.687 28.8224 24.7117 28.779C24.7616 28.6913 24.8443 28.6269 24.9415 28.5999C25.0388 28.5729 25.1428 28.5854 25.2308 28.6349L29.8984 31.2517Z" fill="#2F558D"/>
<path d="M30.0082 33.1404C30.7603 33.1404 31.3699 32.5308 31.3699 31.7787C31.3699 31.0267 30.7603 30.417 30.0082 30.417C29.2561 30.417 28.6465 31.0267 28.6465 31.7787C28.6465 32.5308 29.2561 33.1404 30.0082 33.1404Z" fill="#ACACAC"/>
<path d="M24.434 15.7027C24.6043 15.5874 24.7466 15.4353 24.8503 15.2577C24.9541 15.0801 25.0166 14.8814 25.0334 14.6764C25.0501 14.4714 25.0207 14.2652 24.9472 14.0731C24.8736 13.881 24.7579 13.7078 24.6086 13.5664C23.3805 12.4266 21.8026 11.7363 20.132 11.6078C18.4614 11.4793 16.7966 11.9203 15.4086 12.8588C14.0206 13.7974 12.9914 15.1783 12.4885 16.7766C11.9856 18.3748 12.0386 20.0963 12.639 21.6605C12.7147 21.8526 12.8327 22.0252 12.9842 22.1655C13.1356 22.3058 13.3167 22.4102 13.514 22.471C13.7113 22.5317 13.9198 22.5473 14.1239 22.5166C14.3281 22.4858 14.5227 22.4095 14.6933 22.2934L24.434 15.7027Z" fill="#FE8A2C"/>
<path d="M35.5809 15.7035C35.4096 15.5885 35.2664 15.4363 35.1619 15.2584C35.0574 15.0804 34.9943 14.8812 34.9773 14.6756C34.9603 14.4699 34.9899 14.2631 35.0637 14.0704C35.1376 13.8777 35.2539 13.7041 35.404 13.5625C36.6321 12.4227 38.2099 11.7324 39.8805 11.6039C41.5511 11.4754 43.216 11.9164 44.6039 12.8549C45.9919 13.7935 47.0212 15.1744 47.5241 16.7727C48.027 18.3709 47.9739 20.0924 47.3735 21.6566C47.2978 21.8487 47.1798 22.0213 47.0284 22.1616C46.8769 22.3019 46.6958 22.4063 46.4985 22.4671C46.3012 22.5278 46.0928 22.5434 45.8886 22.5127C45.6845 22.4819 45.4898 22.4056 45.3192 22.2894L35.5809 15.7035Z" fill="#FE8A2C"/>
</g>
<defs>
<clipPath id="clip0_404_21248">
<rect width="60" height="60" fill="white"/>
</clipPath>
</defs>
</svg>
