<svg width="138" height="128" viewBox="0 0 138 128" fill="none" xmlns="http://www.w3.org/2000/svg">
<path d="M137.852 64C137.852 76.658 134.098 89.0317 127.066 99.5565C120.033 110.081 110.038 118.284 98.3433 123.128C86.6488 127.972 73.7806 129.24 61.3658 126.77C48.951 124.301 37.5473 118.205 28.5968 109.255C19.6462 100.304 13.5508 88.9005 11.0813 76.4858C8.61188 64.071 9.87929 51.2027 14.7233 39.5082C19.5673 27.8138 27.7703 17.8184 38.2951 10.7859C48.8198 3.75353 61.1936 9.57931e-07 73.8516 9.57931e-07C82.2566 -0.00145332 90.5795 1.65296 98.345 4.86875C106.111 8.08453 113.166 12.7987 119.11 18.7419C125.053 24.6852 129.767 31.741 132.983 39.5065C136.199 47.272 137.853 55.595 137.852 64Z" fill="#ABE0F9"/>
<mask id="mask0_1786_28934" style="mask-type:luminance" maskUnits="userSpaceOnUse" x="9" y="0" width="129" height="128">
<path d="M137.852 64C137.852 76.658 134.098 89.0317 127.066 99.5565C120.033 110.081 110.038 118.284 98.3433 123.128C86.6488 127.972 73.7806 129.24 61.3658 126.77C48.951 124.301 37.5473 118.205 28.5968 109.255C19.6462 100.304 13.5508 88.9005 11.0813 76.4858C8.61188 64.071 9.87929 51.2027 14.7233 39.5082C19.5673 27.8138 27.7703 17.8184 38.2951 10.7859C48.8198 3.75353 61.1936 9.57931e-07 73.8516 9.57931e-07C82.2566 -0.00145332 90.5795 1.65296 98.345 4.86875C106.111 8.08453 113.166 12.7987 119.11 18.7419C125.053 24.6852 129.767 31.741 132.983 39.5065C136.199 47.272 137.853 55.595 137.852 64Z" fill="white"/>
</mask>
<g mask="url(#mask0_1786_28934)">
<path d="M79.2901 92.0508H68.4297V134.972H79.2901V92.0508Z" fill="#FFFAEF"/>
<path d="M79.2901 91.5508H68.4297V110.836H79.2901V91.5508Z" fill="#E6E7E8"/>
<path d="M94.4436 47.1914C89.2143 47.1914 84.1992 49.2687 80.5015 52.9664C76.8039 56.664 74.7266 61.6791 74.7266 66.9084V97.6076H114.161V66.9084C114.161 64.3191 113.651 61.7552 112.66 59.363C111.669 56.9709 110.216 54.7973 108.386 52.9664C106.555 51.1355 104.381 49.6831 101.989 48.6923C99.5968 47.7014 97.0328 47.1914 94.4436 47.1914Z" fill="#2882CD"/>
<path d="M94.4467 47.1914H53.9609V97.6076H94.4467V47.1914Z" fill="#2882CD"/>
<path d="M53.9592 47.1914C51.3699 47.1914 48.806 47.7014 46.4138 48.6923C44.0216 49.6831 41.8481 51.1355 40.0172 52.9664C38.1863 54.7973 36.7339 56.9709 35.7431 59.363C34.7522 61.7552 34.2422 64.3191 34.2422 66.9084V97.6076H73.6873V66.9084C73.6873 64.3182 73.1769 61.7534 72.1853 59.3605C71.1938 56.9676 69.7404 54.7935 67.9084 52.9625C66.0763 51.1314 63.9014 49.6793 61.508 48.6891C59.1145 47.6989 56.5494 47.19 53.9592 47.1914Z" fill="#ACACAC"/>
<path d="M53.9558 50.3008C49.526 50.3037 45.2785 52.0647 42.1462 55.197C39.0139 58.3293 37.2529 62.5768 37.25 67.0065V94.938H70.6615V67.0065C70.6615 62.5759 68.9014 58.3267 65.7685 55.1938C62.6356 52.0608 58.3864 50.3008 53.9558 50.3008Z" fill="#2F558D"/>
<path d="M113.998 64.3516H72.1172V66.9089H113.998V64.3516Z" fill="#ACACAC"/>
<path d="M79 37.5586V50.5586L97 44.0586L79 37.5586Z" fill="#FFA300"/>
<path d="M81.1707 36.6641H78.2812V72.4004H81.1707V36.6641Z" fill="#E6E7E8"/>
<path d="M84.0596 73.1203C84.0618 73.9577 83.8153 74.7768 83.3515 75.474C82.8876 76.1711 82.2273 76.7149 81.4541 77.0364C80.6809 77.3578 79.8296 77.4425 79.0083 77.2797C78.1869 77.1168 77.4323 76.7138 76.8402 76.1217C76.2481 75.5296 75.8451 74.7751 75.6823 73.9537C75.5195 73.1323 75.6041 72.2811 75.9256 71.5079C76.2471 70.7347 76.7908 70.0743 77.488 69.6105C78.1851 69.1466 79.0043 68.9002 79.8416 68.9024C80.9594 68.9053 82.0306 69.3506 82.821 70.141C83.6113 70.9314 84.0567 72.0025 84.0596 73.1203Z" fill="#FFFAEF"/>
<path d="M81.8422 73.1288C81.8444 73.5283 81.7278 73.9194 81.5073 74.2524C81.2867 74.5854 80.9722 74.8454 80.6035 74.9993C80.2349 75.1531 79.8289 75.194 79.437 75.1166C79.0451 75.0392 78.6851 74.8471 78.4026 74.5646C78.1202 74.2822 77.9281 73.9221 77.8507 73.5303C77.7733 73.1384 77.8141 72.7323 77.968 72.3637C78.1219 71.9951 78.3818 71.6805 78.7149 71.46C79.0479 71.2394 79.439 71.1228 79.8384 71.125C80.369 71.1279 80.877 71.34 81.2521 71.7151C81.6273 72.0903 81.8393 72.5983 81.8422 73.1288Z" fill="#BBBDBF"/>
<path opacity="0.1" d="M113.996 82.25H73.6875V92.4904H113.996V82.25Z" fill="#FFFDF2"/>
<path opacity="0.1" d="M113.996 78.1797H73.6875V80.261H113.996V78.1797Z" fill="#FFFDF2"/>
</g>
<path d="M9.14062 86.8678L58.7044 72.6641L17.1226 92.4696L10.3141 103.186L9.14062 86.8678Z" fill="#BBBDBF"/>
<path d="M31.9266 102.61L17.125 92.4696L58.7067 72.6641L31.9266 102.61Z" fill="#FFFAEF"/>
<path d="M21.4907 95.4429L10.3203 103.181L17.1288 92.4648L21.4907 95.4429Z" fill="#D0D2D3"/>
<path d="M9.14444 86.8678L0 80.2032L58.7082 72.6641L9.14444 86.8678Z" fill="#FFFAEF"/>
<path d="M127.521 91.6537L85.6953 79.6641L120.79 96.3809L126.546 105.437L127.521 91.6537Z" fill="#BBBDBF"/>
<path d="M108.302 104.939L120.79 96.3809L85.6953 79.6641L108.302 104.939Z" fill="#FFFAEF"/>
<path d="M117.117 98.903L126.549 105.435L120.793 96.3789L117.117 98.903Z" fill="#D0D2D3"/>
<path d="M127.521 91.6537L135.248 86.0297L85.6953 79.6641L127.521 91.6537Z" fill="#FFFAEF"/>
<path d="M82.9487 19.625L58.9141 25.5589L80.967 23.8651L86.3695 26.6992L82.9487 19.625Z" fill="#BBBDBF"/>
<path d="M77.2251 31.6239L80.967 23.8633L58.9141 25.5571L77.2251 31.6239Z" fill="#FFFAEF"/>
<path d="M79.8672 26.1439L86.3768 26.6974L80.9743 23.8633L79.8672 26.1439Z" fill="#D0D2D3"/>
<path d="M82.9487 19.6238L85.1628 14.6641L58.9141 25.5577L82.9487 19.6238Z" fill="#FFFAEF"/>
</svg>
