<svg width="60" height="60" viewBox="0 0 60 60" fill="none" xmlns="http://www.w3.org/2000/svg">
<g clip-path="url(#clip0_404_21209)">
<path d="M30 60C46.5685 60 60 46.5685 60 30C60 13.4315 46.5685 0 30 0C13.4315 0 0 13.4315 0 30C0 46.5685 13.4315 60 30 60Z" fill="#60B0FF"/>
<path d="M59.9998 29.9997C59.9998 27.7351 59.7473 25.5296 59.2716 23.4085L43.9451 8.08203L11.6172 48.8461L21.5675 58.7963C24.2426 59.5784 27.0719 59.9997 29.9998 59.9997C46.5684 59.9997 59.9998 46.5683 59.9998 29.9997Z" fill="#4190DD"/>
<path d="M48.3824 27.4023H11.6172V48.8466H48.3824V27.4023Z" fill="#FFCE00"/>
<path d="M48.3826 27.4023H30V48.8466H48.3826V27.4023Z" fill="#FFA300"/>
<path d="M48.3824 27.4025L29.9998 38.1246L11.6172 27.4025L29.9998 10.8799L48.3824 27.4025Z" fill="#2882CD"/>
<path d="M30 38.0969V38.1246L48.3826 27.4025L30 10.8799V38.0969Z" fill="#27488F"/>
<path d="M22.2162 8.08203L16.0547 14.2434V29.9997L30 38.124L43.9453 29.9997V8.08203H22.2162Z" fill="white"/>
<path d="M30 38.0963V38.124L43.9453 29.9997V8.08203H30V38.0963Z" fill="#E9EDF5"/>
<path d="M41.6995 25.5859H18.5332V29.2188H41.6995V25.5859Z" fill="#BFE1FF"/>
<path d="M41.6994 25.5859H30V29.2188H41.6994V25.5859Z" fill="#A3D4FF"/>
<path d="M28.9686 18.7109H18.5332V22.3438H28.9686V18.7109Z" fill="#BFE1FF"/>
<path d="M22.2168 14.2434L22.2181 8.08203L16.0566 14.2436L22.2168 14.2434Z" fill="#E9EDF5"/>
<path d="M36.6246 22.7198C39.4278 22.7198 41.7003 20.4474 41.7003 17.6441C41.7003 14.8408 39.4278 12.5684 36.6246 12.5684C33.8213 12.5684 31.5488 14.8408 31.5488 17.6441C31.5488 20.4474 33.8213 22.7198 36.6246 22.7198Z" fill="#4190DD"/>
<path d="M36.6246 18.8048C37.8292 18.8048 38.8058 17.8282 38.8058 16.6236C38.8058 15.4189 37.8292 14.4424 36.6246 14.4424C35.4199 14.4424 34.4434 15.4189 34.4434 16.6236C34.4434 17.8282 35.4199 18.8048 36.6246 18.8048Z" fill="#DBEEFF"/>
<path d="M36.6243 22.7203C37.9736 22.7203 39.1974 22.1859 40.0982 21.3185C39.5492 19.9371 38.2013 18.96 36.6243 18.96C35.0473 18.96 33.6994 19.9371 33.1504 21.3185C34.0512 22.1859 35.275 22.7203 36.6243 22.7203Z" fill="#DBEEFF"/>
</g>
<defs>
<clipPath id="clip0_404_21209">
<rect width="60" height="60" fill="white"/>
</clipPath>
</defs>
</svg>
