<svg width="60" height="60" viewBox="0 0 60 60" fill="none" xmlns="http://www.w3.org/2000/svg">
<g clip-path="url(#clip0_1278_49453)">
<path d="M30 60C46.5685 60 60 46.5685 60 30C60 13.4315 46.5685 0 30 0C13.4315 0 0 13.4315 0 30C0 46.5685 13.4315 60 30 60Z" fill="#60B0FF"/>
<path d="M59.9998 29.9997C59.9998 27.7351 59.7473 25.5296 59.2716 23.4085L43.9451 8.08203L11.6172 48.8461L21.5675 58.7963C24.2426 59.5784 27.0719 59.9997 29.9998 59.9997C46.5684 59.9997 59.9998 46.5683 59.9998 29.9997Z" fill="#4190DD"/>
<path d="M48.3824 27.4023H11.6172V48.8466H48.3824V27.4023Z" fill="#FFCE00"/>
<path d="M48.3826 27.4023H30V48.8466H48.3826V27.4023Z" fill="#FFA300"/>
<path d="M48.3824 27.4015L29.9998 38.1236L11.6172 27.4015L29.9998 10.8789L48.3824 27.4015Z" fill="#2882CD"/>
<path d="M30 38.0959V38.1236L48.3826 27.4015L30 10.8789V38.0959Z" fill="#27488F"/>
<path d="M22.2162 8.08203L16.0547 14.2434V29.9997L30 38.124L43.9453 29.9997V8.08203H22.2162Z" fill="white"/>
<path d="M30 38.0963V38.124L43.9453 29.9997V8.08203H30V38.0963Z" fill="#E9EDF5"/>
<path d="M41.6976 25.5859H18.5312V29.2188H41.6976V25.5859Z" fill="#BFE1FF"/>
<path d="M41.6994 25.5859H30V29.2188H41.6994V25.5859Z" fill="#A3D4FF"/>
<path d="M28.9667 18.7109H18.5312V22.3438H28.9667V18.7109Z" fill="#BFE1FF"/>
<path d="M22.2149 14.2434L22.2162 8.08203L16.0547 14.2436L22.2149 14.2434Z" fill="#E9EDF5"/>
<path d="M36.6226 22.7218C39.4259 22.7218 41.6984 20.4493 41.6984 17.6461C41.6984 14.8428 39.4259 12.5703 36.6226 12.5703C33.8194 12.5703 31.5469 14.8428 31.5469 17.6461C31.5469 20.4493 33.8194 22.7218 36.6226 22.7218Z" fill="#4190DD"/>
<path d="M36.6187 18.8038C37.8234 18.8038 38.7999 17.8273 38.7999 16.6226C38.7999 15.418 37.8234 14.4414 36.6187 14.4414C35.4141 14.4414 34.4375 15.418 34.4375 16.6226C34.4375 17.8273 35.4141 18.8038 36.6187 18.8038Z" fill="#DBEEFF"/>
<path d="M36.6223 22.7173C37.9716 22.7173 39.1954 22.183 40.0962 21.3155C39.5472 19.9341 38.1993 18.957 36.6223 18.957C35.0454 18.957 33.6975 19.9341 33.1484 21.3155C34.0493 22.183 35.273 22.7173 36.6223 22.7173Z" fill="#DBEEFF"/>
</g>
<defs>
<clipPath id="clip0_1278_49453">
<rect width="60" height="60" fill="white"/>
</clipPath>
</defs>
</svg>
