<svg xmlns="http://www.w3.org/2000/svg" width="60" height="60" viewBox="0 0 60 60" fill="none">
  <path fill-rule="evenodd" clip-rule="evenodd" d="M1.75783 30.4797C1.74142 14.8821 14.3719 2.2258 29.9695 2.20705C45.5672 2.1883 58.2246 14.8211 58.2422 30.4188C58.2598 46.0164 45.6281 58.6739 30.0305 58.6914H30C14.4141 58.6961 1.76955 46.0668 1.75783 30.4797Z" fill="#FFD29A"/>
  <path fill-rule="evenodd" clip-rule="evenodd" d="M37.8449 14.6082C37.5472 14.4078 37.0492 14.6082 36.5558 14.8074L34.5636 12.8152L34.464 12.7156C33.9671 12.6172 33.2722 13.4187 32.6757 13.7105L31.0738 12.1191H30.9753C30.8757 12.0207 30.7761 11.9199 30.6765 11.9199C30.08 11.9199 29.4835 13.4117 28.887 13.5113C28.2906 13.6109 27.3964 12.1191 26.7988 12.2223C26.2011 12.3254 26.0956 14.0117 25.5097 14.2145C24.9238 14.4172 23.7097 13.3191 23.214 13.618C22.7183 13.9168 23.0148 15.507 22.5109 15.9043C22.007 16.3016 20.5187 15.4074 20.1238 15.9043C19.7288 16.4012 20.4226 17.7945 20.0253 18.2914C19.6281 18.7883 18.0331 18.4906 17.7378 18.977C17.4425 19.4633 18.6331 20.668 18.4351 21.2645C18.237 21.8609 16.5449 22.059 16.4429 22.5535C16.2343 23.2508 17.732 24.0441 17.6359 24.643C17.5398 25.2418 16.0351 25.8348 16.1335 26.4312C16.1343 26.5093 16.1537 26.586 16.1899 26.655C16.2262 26.7241 16.2784 26.7836 16.3421 26.8285L17.8339 28.3098C17.6347 28.9062 16.7394 29.702 16.9386 30.2C16.9386 30.2984 17.0382 30.2984 17.0382 30.3992L18.9273 32.3914C18.8288 32.8883 18.6296 33.3863 18.8288 33.6805H18.9273L21.414 36.2586C21.44 36.2589 21.4649 36.2694 21.4833 36.2878C21.5017 36.3062 21.5121 36.331 21.5124 36.357H21.6425L22.1394 36.9535L19.4593 46.9906L31.0046 58.6156C37.5847 58.3783 43.8762 55.8548 48.7967 51.4796C53.7171 47.1044 56.9587 41.1509 57.9636 34.6437L37.8519 14.5766" fill="#E4AC67"/>
  <path fill-rule="evenodd" clip-rule="evenodd" d="M32.7828 30.9082L27.9008 49.2949L24.2809 45.5953L19.4082 46.9371L24.2809 28.6406L32.7828 30.9082Z" fill="#4190DD"/>
  <path fill-rule="evenodd" clip-rule="evenodd" d="M32.7832 30.9082L27.9012 49.2949L24.2812 45.5953L28.5785 29.7246L32.7832 30.9082Z" fill="#2882CD"/>
  <path fill-rule="evenodd" clip-rule="evenodd" d="M26.5586 30.9082L31.4418 49.2949L35.0605 45.5953L39.9438 46.9371L35.0605 28.6406L26.5586 30.9082Z" fill="#2882CD"/>
  <path fill-rule="evenodd" clip-rule="evenodd" d="M26.5586 30.9082L31.4418 49.2949L35.0605 45.5953L30.7656 29.7246L26.5586 30.9082Z" fill="#4190DD"/>
  <path fill-rule="evenodd" clip-rule="evenodd" d="M39.3367 35.0738C38.8387 35.5719 37.4371 34.7762 36.9391 35.1734C36.441 35.5707 36.7398 37.1656 36.243 37.4598C35.7461 37.7539 34.4535 36.5656 33.9566 36.7566C33.4598 36.9477 33.1609 38.6375 32.5645 38.7488C31.968 38.8602 31.1723 37.4656 30.5723 37.4656C29.9723 37.4656 29.3793 39.0477 28.682 39.0477C27.9848 39.0477 27.6906 37.3695 27.0848 37.2652C26.4789 37.1609 25.4934 38.4488 24.8969 38.2602C24.3004 38.0715 24.4996 36.3852 23.902 36.0828C23.3043 35.7805 22.0117 36.7789 21.5148 36.3805C21.018 35.982 21.6133 34.4914 21.216 33.9934C20.8187 33.4953 19.1277 34.093 18.8289 33.6957C18.5301 33.2984 19.4254 31.8055 19.1277 31.3086C18.8301 30.8117 17.1355 30.8105 16.9398 30.2141C16.7441 29.6176 18.0332 28.6332 17.9348 28.0367C17.8363 27.4402 16.1348 27.0418 16.1348 26.4453C16.1348 25.8488 17.6371 25.2523 17.6371 24.6559C17.6371 24.0594 16.2309 23.2637 16.4441 22.5664C16.5426 22.0695 18.134 21.8703 18.4363 21.2773C18.7387 20.6844 17.4414 19.4973 17.7332 19.0004C18.025 18.5035 19.6223 18.8012 20.0195 18.2973C20.4168 17.7934 19.6223 16.3051 20.1191 15.9102C20.616 15.5152 22.0082 16.209 22.5062 15.9102C23.0043 15.6113 22.6047 13.8219 23.2023 13.6238C23.8 13.4258 24.8934 14.4195 25.4898 14.2203C26.0863 14.0211 26.1859 12.3301 26.7789 12.2281C27.3719 12.1262 28.1852 13.5172 28.8777 13.5172C29.5703 13.5172 30.0707 11.9258 30.6672 11.9258C31.2637 11.9258 31.6621 13.6168 32.2586 13.7152C32.8551 13.8137 33.8559 12.5387 34.4523 12.7344C35.0488 12.9301 34.9492 14.6246 35.4473 14.9223C35.9453 15.2199 37.3363 14.2262 37.8344 14.6246C38.3324 15.023 37.8344 16.5137 38.2422 17.0117C38.65 17.5098 40.2344 16.9121 40.6293 17.409C41.0242 17.9059 40.0328 19.1973 40.3316 19.6953C40.6305 20.1934 42.2207 20.1828 42.4199 20.7793C42.6191 21.3758 41.3266 22.3707 41.5258 22.9672C41.725 23.5637 43.2156 23.9621 43.3152 24.5586C43.4148 25.1551 41.8234 25.7516 41.7238 26.348C41.6242 26.9445 43.116 27.8387 43.0129 28.4363C42.9098 29.034 41.2234 29.1219 41.0207 29.7254C40.818 30.3289 41.916 31.5137 41.6172 32.0117C41.3184 32.5098 39.7281 32.2109 39.3309 32.7078C38.9336 33.2047 39.7281 34.7 39.3309 35.0949" fill="#FE8A2C"/>
  <path fill-rule="evenodd" clip-rule="evenodd" d="M36.8197 32.6568C34.9042 34.512 32.3421 35.5494 29.6754 35.5494C27.0087 35.5494 24.4466 34.512 22.5311 32.6568C21.1215 31.2444 20.1623 29.4459 19.7745 27.4885C19.3867 25.5312 19.5878 23.5028 20.3523 21.6597C21.1169 19.8165 22.4106 18.2414 24.07 17.1332C25.7294 16.025 27.68 15.4336 29.6754 15.4336C31.6708 15.4336 33.6214 16.025 35.2808 17.1332C36.9402 18.2414 38.2339 19.8165 38.9985 21.6597C39.763 23.5028 39.9641 25.5312 39.5763 27.4885C39.1885 29.4459 38.2293 31.2444 36.8197 32.6568Z" fill="#E16C0C"/>
  <path fill-rule="evenodd" clip-rule="evenodd" d="M36.1342 31.875C34.8715 33.1434 33.2611 34.0088 31.5065 34.362C29.752 34.7151 27.9321 34.54 26.2771 33.8588C24.622 33.1777 23.2061 32.0211 22.2084 30.5352C21.2107 29.0494 20.676 27.3011 20.6719 25.5113C20.6678 23.7216 21.1945 21.9709 22.1854 20.4805C23.1763 18.9901 24.5869 17.827 26.2388 17.1383C27.8907 16.4495 29.7098 16.2661 31.4659 16.6112C33.2221 16.9563 34.8364 17.8144 36.1049 19.077L36.1342 19.1063C36.974 19.9444 37.6402 20.9399 38.0948 22.0358C38.5493 23.1317 38.7833 24.3065 38.7833 25.493C38.7833 26.6794 38.5493 27.8542 38.0948 28.9501C37.6402 30.0461 36.974 31.0416 36.1342 31.8797" fill="#FE8A2C"/>
  <path fill-rule="evenodd" clip-rule="evenodd" d="M36.1258 19.0625C37.7756 20.7759 38.6863 23.0689 38.6615 25.4474C38.6367 27.8259 37.6785 30.0994 35.9934 31.7781C34.3082 33.4568 32.031 34.4063 29.6525 34.4219C27.2739 34.4376 24.9844 33.5181 23.2773 31.8617" fill="#E16C0C"/>
</svg>