<svg xmlns="http://www.w3.org/2000/svg" width="60" height="60" viewBox="0 0 60 60" fill="none">
  <g clip-path="url(#clip0_753_71573)">
    <path d="M30 60C46.5685 60 60 46.5685 60 30C60 13.4315 46.5685 0 30 0C13.4315 0 0 13.4315 0 30C0 46.5685 13.4315 60 30 60Z" fill="#60B0FF"/>
    <path d="M32.6399 8.08398L27.4839 12.9086L32.0241 17.4235L13.1426 42.8398L23.3502 53.0474L23.2425 53.1259L30.1171 60.0005C44.9214 59.9444 57.1973 49.1651 59.5819 35.026L32.6399 8.08398Z" fill="#4190DD"/>
    <path d="M45.6873 42.8382H13.1426L25.6759 14.0859H33.0302L45.6873 42.8382Z" fill="#FFC268"/>
    <path d="M34.5829 14.087L30.0234 14.082V42.8343L45.6861 42.8393L34.5829 14.087Z" fill="#EEA333"/>
    <path d="M34.7376 53.9846C33.2804 53.9846 32.0224 52.8922 31.8504 51.4095L30.0232 35.6609L28.196 51.4095C28.0107 53.0061 26.5652 54.1502 24.9697 53.965C23.3731 53.7798 22.229 52.3353 22.4142 50.7387L25.3773 25.1998C25.5475 23.7322 26.7907 22.625 28.2682 22.625H31.7782C33.2557 22.625 34.4988 23.7322 34.6691 25.1998L37.6321 50.7387C37.8174 52.3353 36.6733 53.7798 35.0768 53.965C34.9627 53.9782 34.8497 53.9846 34.7376 53.9846Z" fill="#414952"/>
    <path d="M37.6323 50.7387L34.6693 25.1998C34.499 23.7322 33.256 22.625 31.7784 22.625H29.998L30.0234 35.6609L31.8505 51.4095C32.0226 52.8922 33.2806 53.9846 34.7378 53.9846C34.8497 53.9846 34.9629 53.9782 35.0768 53.965C36.6735 53.7799 37.8176 52.3353 37.6323 50.7387Z" fill="#23272B"/>
    <path d="M33.4763 11.2522C33.9228 9.35271 32.7451 7.45086 30.8456 7.00427C28.9461 6.55768 27.0443 7.73547 26.5977 9.63493C26.1511 11.5344 27.3289 13.4363 29.2283 13.8828C31.1278 14.3294 33.0297 13.1516 33.4763 11.2522Z" fill="#FFCDBE"/>
    <path d="M30.0234 6.92383C30.0148 6.92383 30.0065 6.92441 29.998 6.92441V13.9852C30.0066 13.9852 30.0149 13.9858 30.0234 13.9858C31.9735 13.9858 33.5543 12.4049 33.5543 10.4547C33.5545 8.5048 31.9736 6.92383 30.0234 6.92383Z" fill="#FAA68E"/>
    <path d="M41.2022 20.1516L36.0571 14.6432C35.5238 14.1098 34.825 13.9688 34.5823 13.9688H25.674C25.4114 13.9688 24.6026 14.0293 23.9886 14.6432L18.8435 20.1516C18.1777 20.8645 18.1407 21.9596 18.757 22.7159L24.1617 29.3464C24.5474 29.8195 25.1087 30.0648 25.675 30.0648C26.1083 30.0648 26.5444 29.9211 26.9064 29.6261C27.7416 28.9453 27.8667 27.7164 27.186 26.8813L26.9172 26.5514H33.1282L32.8594 26.8813C32.1786 27.7165 32.3038 28.9453 33.139 29.6261C33.501 29.9211 33.937 30.0648 34.3704 30.0648C34.9366 30.0648 35.4981 29.8195 35.8838 29.3464L41.2884 22.7159C41.905 21.9596 41.8681 20.8645 41.2022 20.1516ZM22.8574 21.5706L24.097 20.2433L24.7894 23.9408L22.8574 21.5706ZM35.5674 23.5593L36.0447 20.3461L37.1884 21.5706L35.5674 23.5593Z" fill="white"/>
    <path d="M41.2027 20.1516L36.0576 14.6432C35.5243 14.1098 34.8254 13.9688 34.5828 13.9688H29.998V26.5514H33.1289L32.8601 26.8813C32.1794 27.7165 32.3045 28.9453 33.1397 29.6261C33.5017 29.9211 33.9378 30.0648 34.3711 30.0648C34.9373 30.0648 35.4988 29.8195 35.8845 29.3464L41.2892 22.7159C41.9055 21.9596 41.8686 20.8645 41.2027 20.1516ZM35.5679 23.5593L36.0452 20.3461L37.1889 21.5706L35.5679 23.5593Z" fill="#E9EDF5"/>
  </g>
  <defs>
    <clipPath id="clip0_753_71573">
      <rect width="60" height="60" fill="white"/>
    </clipPath>
  </defs>
</svg>