<svg xmlns="http://www.w3.org/2000/svg" width="60" height="60" viewBox="0 0 60 60" fill="none">
  <g clip-path="url(#clip0_753_71692)">
    <path d="M30 60C46.5685 60 60 46.5685 60 30C60 13.4315 46.5685 0 30 0C13.4315 0 0 13.4315 0 30C0 46.5685 13.4315 60 30 60Z" fill="#FFD29A"/>
    <path d="M35.3214 59.5287C49.3515 57.0172 60 44.7518 60 29.9992C60 25.9986 59.217 22.181 57.7957 18.6912L57.7901 18.6855L36.0708 34.2477L24.0646 22.2416L11.7129 34.593L17.68 40.5601L17.2845 41.4918L35.3214 59.5287Z" fill="#E4AC67"/>
    <path d="M58.3664 20.2163C56.7737 15.5974 54.0854 11.4896 50.6112 8.20312C45.9928 13.0208 37.193 21.8314 37.193 21.8314C37.1916 21.8325 37.1897 21.8327 37.188 21.8319C35.4291 20.9043 33.2126 21.0304 31.5496 22.3349L22.0452 29.7902C21.108 30.5252 20.9518 31.8843 21.6977 32.8127C22.4314 33.7262 23.7636 33.8794 24.6855 33.1562C24.6855 33.1562 30.8381 28.3308 30.8398 28.3325L31.6609 29.3794L25.4476 34.2483C25.4071 34.28 25.3659 34.3106 25.3243 34.3399C24.2644 35.0847 22.3127 35.1502 21.5068 34.1359C21.4996 34.1268 19.377 35.7892 17.127 37.5561L19.5472 39.7825L24.0486 36.2515L24.726 37.1149L20.3657 40.5352L22.8635 42.8327L27.5238 39.1771L28.2011 40.0405L23.6818 43.5854L26.1797 45.883L31.1816 41.9595L31.8589 42.8229L26.9981 46.6358L29.4094 48.8537L43.3923 37.8854L43.3767 37.8655C44.8723 36.463 45.5142 34.444 45.2175 32.5166C45.2171 32.515 45.2178 32.5134 45.2191 32.5124C45.219 32.5125 53.3359 25.3175 58.3664 20.2163Z" fill="#FFF0EB"/>
    <path d="M58.3661 20.2161C57.5559 17.8664 56.4606 15.6498 55.1241 13.6055L24.4434 44.2862L26.1794 45.883L31.1813 41.9595L31.8586 42.8229L26.9978 46.6358L29.4091 48.8537L43.392 37.8854L43.3764 37.8655C44.872 36.463 45.5139 34.444 45.2172 32.5166C45.2168 32.515 45.2175 32.5134 45.2188 32.5124C45.2187 32.5124 53.3356 25.3174 58.3661 20.2161Z" fill="#F6D4C9"/>
    <path d="M41.6947 38.9772C40.6036 38.123 39.8436 37.5315 39.8393 37.5369C39.0334 38.5511 37.0818 38.4857 36.0218 37.7409C35.9802 37.7116 35.9391 37.681 35.8985 37.6493L29.6852 32.7803L30.5064 31.7335C30.508 31.7316 36.6606 36.5572 36.6606 36.5572C37.5825 37.2803 38.9147 37.1272 39.6484 36.2137C40.3943 35.2851 40.2381 33.9262 39.3009 33.1912L29.7966 25.7359C28.1336 24.4313 25.9171 24.3054 24.1581 25.2329C24.1566 25.2337 24.1547 25.2336 24.1532 25.2324C24.1532 25.2324 12.4699 13.6036 8.35301 9.23047C5.025 12.6982 2.52211 16.9637 1.16016 21.7118C5.70305 26.6735 16.127 35.9137 16.127 35.9137C16.1283 35.9146 16.129 35.9163 16.1286 35.9179C15.8319 37.8452 16.4739 39.8642 17.9694 41.2667L17.9538 41.2866L29.5703 50.3987C30.182 50.8786 31.0486 50.855 31.6334 50.3425C32.3951 49.6752 32.3626 48.4797 31.5657 47.8546L29.487 46.2241L30.1643 45.3605L32.8848 47.4945C33.4965 47.9744 34.3632 47.9509 34.948 47.4384L35.0368 47.3606C35.7986 46.6932 35.7661 45.4977 34.9692 44.8726L33.1448 43.4416L33.8221 42.5782L36.2882 44.5126C36.8999 44.9925 37.7665 44.9689 38.3512 44.4566L38.4402 44.3786C39.2019 43.7113 39.1695 42.5158 38.3726 41.8907L36.6199 40.5159L37.2973 39.6525L39.6916 41.5306C40.3034 42.0105 41.1701 41.9869 41.7548 41.4745L41.764 41.4665C42.5264 40.7989 42.4927 39.602 41.6947 38.9772Z" fill="#DC9E8E"/>
    <path d="M33.8221 42.5783L36.2882 44.5127C36.9 44.9926 37.7666 44.969 38.3513 44.4567L38.4403 44.3787C39.202 43.7114 39.1695 42.5159 38.3727 41.8909L36.62 40.516L37.2973 39.6526L39.6917 41.5307C40.3034 42.0106 41.1702 41.9871 41.7549 41.4746L41.7641 41.4666C42.5264 40.7988 42.4926 39.602 41.6946 38.9772C40.6034 38.123 39.8435 37.5315 39.8391 37.5369C39.0332 38.5511 37.0816 38.4857 36.0216 37.7409C35.98 37.7116 35.9389 37.681 35.8984 37.6493L29.6851 32.7803L30.5062 31.7335C30.5079 31.7316 36.6604 36.5572 36.6604 36.5572C37.5823 37.2803 38.9145 37.1272 39.6482 36.2137C40.3941 35.2851 40.2379 33.9262 39.3008 33.1912L29.7964 25.7359C28.1334 24.4313 25.9169 24.3054 24.1579 25.2329C24.1564 25.2337 24.1545 25.2336 24.153 25.2324C24.153 25.2324 12.4698 13.6036 8.35285 9.23047C7.01234 10.6272 5.80602 12.1536 4.75391 13.7886L33.6997 42.7343L33.8221 42.5783Z" fill="#E6B3A6"/>
    <path d="M26.3606 41.6492C26.8863 40.9276 27.8976 40.7688 28.6192 41.2944L28.7131 41.3627C29.4348 41.8883 29.5938 42.8996 29.0681 43.6212L26.1204 47.6684C25.5124 48.5033 24.3011 48.5942 23.5752 47.8596C22.9984 47.2757 22.9296 46.3599 23.4128 45.6964L26.3606 41.6492Z" fill="#FFCDBE"/>
    <path d="M28.713 41.3621L28.6191 41.2938C28.3537 41.1005 28.0491 41.0005 27.7438 40.9863L24.4275 44.3026L23.4128 45.696C22.9296 46.3594 22.9984 47.2752 23.5752 47.859C24.3011 48.5937 25.5124 48.5027 26.1204 47.6679L29.0681 43.6207C29.5937 42.8989 29.4348 41.8877 28.713 41.3621Z" fill="#F6D4C9"/>
    <path d="M23.9611 37.3876C24.4867 36.6658 25.4979 36.507 26.2198 37.0327L26.3135 37.101C27.0354 37.6267 27.1944 38.638 26.6688 39.3596L22.9525 44.4622C22.3444 45.297 21.1331 45.388 20.4073 44.6533C19.8304 44.0695 19.7617 43.1535 20.2449 42.4901L23.9611 37.3876Z" fill="#FFF0EB"/>
    <path d="M27.7206 47.3368C28.2462 46.6151 29.2574 46.4562 29.9792 46.9819C30.7011 47.5076 30.86 48.5187 30.3344 49.2405L29.7648 50.0162C29.1852 50.8057 28.037 50.8898 27.3486 50.1931L27.3132 50.1572C26.7627 49.6001 26.6991 48.7255 27.1632 48.0947L27.7206 47.3368Z" fill="#F6D4C9"/>
    <path d="M19.7779 35.7686C20.3044 35.0494 21.313 34.893 22.0335 35.4177L22.037 35.4203C22.7589 35.946 22.9179 36.9571 22.3922 37.6789L19.7501 41.3065C19.1611 42.1151 17.9878 42.2033 17.2847 41.4917C16.7255 40.9257 16.6593 40.0377 17.1284 39.3951C18.1965 37.9312 19.2081 36.547 19.7779 35.7686Z" fill="#FFF0EB"/>
    <path d="M49.5226 7.22266L36.8965 18.9291L48.7726 31.7385L58.9911 22.2644C57.4102 16.3245 54.0533 11.1094 49.5226 7.22266Z" fill="#2882CD"/>
    <path d="M58.9914 22.2641C58.1624 19.1494 56.8443 16.2346 55.1255 13.6055L43.1055 25.6255L48.7729 31.7382L58.9914 22.2641Z" fill="#4190DD"/>
    <path d="M0.691406 23.5736L11.712 34.5941L24.0636 22.2427L9.71742 7.89648C5.2507 11.9972 2.03168 17.434 0.691406 23.5736Z" fill="#FE8A2C"/>
    <path d="M24.0648 22.2428L9.71863 7.89648C7.82336 9.63648 6.15367 11.6178 4.75586 13.7905L18.6364 27.6711L24.0648 22.2428Z" fill="#E16C0C"/>
  </g>
  <defs>
    <clipPath id="clip0_753_71692">
      <rect width="60" height="60" fill="white"/>
    </clipPath>
  </defs>
</svg>