<svg preserveAspectRatio="none" width="100%" height="100%" overflow="visible" style="display: block;" viewBox="0 0 85.091 85.091" fill="none" xmlns="http://www.w3.org/2000/svg">
<g id="Group">
<path id="Vector" d="M63.8183 63.8183C75.5669 52.0696 75.5669 33.0214 63.8183 21.2728C52.0697 9.52414 33.0214 9.52414 21.2728 21.2728C9.52414 33.0214 9.52414 52.0697 21.2728 63.8183C33.0214 75.5669 52.0697 75.5669 63.8183 63.8183Z" fill="var(--fill-0, #60B0FF)"/>
<path id="Vector_2" fill-rule="evenodd" clip-rule="evenodd" d="M72.3176 46.6449C70.3204 61.2915 57.8329 72.5868 42.6977 72.6627L27.5794 57.5007C27.0113 57.0296 26.6482 56.318 26.6482 55.5258V45.414C27.5315 45.9469 28.7126 46.4014 30.1038 46.7774L26.4364 43.0994C25.6502 42.3909 25.091 41.4994 25.091 40.3395V34.8237C25.091 34.1002 25.6818 33.5111 26.4024 33.5111H36.0157L34.2703 31.7607V30.2889C34.2703 28.4576 35.766 26.9596 37.5895 26.9596H47.4995C48.4683 26.9596 49.3446 27.3823 49.9532 28.0532L55.3952 33.511H58.6868C59.094 33.511 59.4581 33.6973 59.6986 33.9892L72.3176 46.6449Z" fill="var(--fill-0, #4190DD)"/>
<path id="Vector_3" fill-rule="evenodd" clip-rule="evenodd" d="M26.649 45.4399C28.8321 46.7581 32.8325 47.5974 37.3285 47.9573V49.2099C37.3285 50.5792 38.4388 51.6931 39.8019 51.6931H45.3022C46.6654 51.6931 47.7757 50.5792 47.7757 49.2099V47.9573C52.2716 47.5965 56.2721 46.7581 58.4552 45.4399V55.5659C58.4552 56.9768 57.3073 58.1314 55.8998 58.1314H29.2045C27.797 58.1314 26.6491 56.9761 26.6491 55.5659L26.649 45.4399ZM39.8019 42.9588C39.4022 42.9588 39.0742 43.2868 39.0742 43.6893V49.2098C39.0742 49.6121 39.4022 49.9401 39.8019 49.9401H45.3022C45.702 49.9401 46.03 49.6121 46.03 49.2098V43.6893C46.03 43.2868 45.702 42.9588 45.3022 42.9588H39.8019ZM50.8298 31.7674V30.2936C50.8298 28.4597 49.3335 26.9596 47.5091 26.9596H37.5949C35.7706 26.9596 34.2743 28.4596 34.2743 30.2936V31.7674H37.2158V30.2936C37.2158 30.0892 37.3935 29.9109 37.5951 29.9109H47.5092C47.7108 29.9109 47.8885 30.0892 47.8885 30.2936V31.7674H50.8298ZM57.6591 43.8761C58.9299 43.0699 60.0129 41.9745 60.0129 40.3583V34.8348C60.0129 34.1102 59.4254 33.5203 58.701 33.5203C47.755 33.5203 37.3489 33.5203 26.4029 33.5203C25.6821 33.5203 25.091 34.1102 25.091 34.8348V40.3583C25.091 41.9745 26.174 43.0699 27.4449 43.8761C29.3443 45.0835 33.0784 45.856 37.3283 46.1972V43.6893C37.3283 42.3192 38.4387 41.2062 39.8018 41.2062H45.3021C46.6652 41.2062 47.7756 42.3192 47.7756 43.6893V46.1942C52.0324 45.851 55.7699 45.0776 57.6591 43.8761Z" fill="url(#paint0_linear_0_43)"/>
</g>
<defs>
<linearGradient id="paint0_linear_0_43" x1="42.552" y1="26.9596" x2="42.552" y2="58.1314" gradientUnits="userSpaceOnUse">
<stop stop-color="white"/>
<stop offset="1" stop-color="#FFDDBC"/>
</linearGradient>
</defs>
</svg>
