<svg preserveAspectRatio="none" width="100%" height="100%" overflow="visible" style="display: block;" viewBox="0 0 60 60" fill="none" xmlns="http://www.w3.org/2000/svg">
<g id="surface1">
<path id="Vector" d="M60 30C60 46.5688 46.5688 60 30 60C13.4312 60 0 46.5688 0 30C0 13.4312 13.4312 0 30 0C46.5688 0 60 13.4312 60 30Z" fill="var(--fill-0, #7DBFFF)"/>
<path id="Vector_2" d="M39.8776 58.3337C51.5932 54.2496 60 43.1076 60 30C60 25.8092 59.1394 21.8198 57.5871 18.1966L48.7294 9.33884L11.2518 14.631L22.1136 25.4929L15.6995 30.7031L22.3705 37.3741L22.2276 40.7812L39.8776 58.3337Z" fill="var(--fill-0, #4A88C4)"/>
<path id="Vector_3" d="M34.5117 43.7865V40.7812H25.4883V43.7865C25.4883 45.1483 24.6364 46.3651 23.3569 46.8311L9.48212 51.8839C14.8476 56.9165 22.0633 60 30 60C37.9367 60 45.1524 56.9165 50.5179 51.8839L36.6431 46.8311C35.3636 46.3651 34.5117 45.1483 34.5117 43.7865Z" fill="var(--fill-0, #F4D4B0)"/>
<path id="Vector_4" d="M50.5179 51.8839L36.6431 46.8311C35.3636 46.3651 34.5117 45.1483 34.5117 43.7865V40.7812H29.9496V59.9995C29.9666 59.9995 29.9831 60 30 60C37.9367 60 45.1524 56.9165 50.5179 51.8839Z" fill="var(--fill-0, #F6C59A)"/>
<path id="Vector_5" d="M22.4579 28.1136C22.4579 30.2541 20.723 31.9894 18.5825 31.9894C16.442 31.9894 14.707 30.2541 14.707 28.1136C14.707 25.9735 16.442 24.2381 18.5825 24.2381C20.723 24.2381 22.4579 25.9735 22.4579 28.1136Z" fill="var(--fill-0, #FFE1BE)"/>
<path id="Vector_6" d="M45.661 28.1136C45.661 30.2541 43.9261 31.9894 41.7856 31.9894C39.6451 31.9894 37.9102 30.2541 37.9102 28.1136C37.9102 25.9735 39.6451 24.2381 41.7856 24.2381C43.9261 24.2381 45.661 25.9735 45.661 28.1136Z" fill="var(--fill-0, #FAC48E)"/>
<path id="Vector_7" d="M35.1599 42.6228L32.5722 43.9522C30.9576 44.7816 29.0424 44.7816 27.4278 43.9522L24.8401 42.6228C21.0049 40.6526 18.5939 36.7035 18.5939 32.3918V22.305C18.5939 16.0052 23.7003 10.8984 30 10.8984C36.2997 10.8984 41.4061 16.0052 41.4061 22.3045V32.3918C41.4061 36.7035 38.9951 40.6526 35.1599 42.6228Z" fill="var(--fill-0, #FFE1BE)"/>
<path id="Vector_8" d="M30 10.8984C29.9831 10.8984 29.9666 10.8989 29.9496 10.8989V44.5724C30.8487 44.5807 31.7496 44.3747 32.5722 43.9522L35.1599 42.6228C38.9951 40.6526 41.4061 36.7035 41.4061 32.3918V22.3045C41.4061 16.0052 36.2997 10.8984 30 10.8984Z" fill="var(--fill-0, #FFD2AA)"/>
<path id="Vector_9" d="M40.1656 22.3242H42.5093V32.5195H40.1656V22.3242Z" fill="var(--fill-0, #E2AD78)"/>
<path id="Vector_10" d="M17.4724 22.3242H19.8161V32.5195H17.4724V22.3242Z" fill="var(--fill-0, #E2AD78)"/>
<path id="Vector_11" d="M42.5093 27.3294L29.9908 29.4044L17.4724 27.3294V12.9643H42.5093V27.3294Z" fill="var(--fill-0, #2F558D)"/>
<path id="Vector_12" d="M29.9025 12.9643V29.3898L29.9908 29.4044L42.5093 27.3294V12.9643H29.9025Z" fill="var(--fill-0, #22416E)"/>
<path id="Vector_13" d="M46.0757 12.9643H47.4248V27.4232H46.0757V12.9643Z" fill="var(--fill-0, #555A66)"/>
<path id="Vector_14" d="M46.7129 12.9643H47.4248V27.4232H46.7129V12.9643Z" fill="var(--fill-0, #414952)"/>
<path id="Vector_15" d="M48.7477 31.9894H44.7528L45.6326 26.7096C45.7237 26.1635 46.1966 25.7629 46.7505 25.7629C47.3044 25.7629 47.7768 26.1635 47.8679 26.7096L48.7477 31.9894Z" fill="var(--fill-0, #FF8D2A)"/>
<path id="Vector_16" d="M47.8679 26.7096C47.7768 26.1635 47.3044 25.7629 46.7505 25.7629C46.7377 25.7629 46.7258 25.7639 46.7129 25.7643V31.989H48.7477L47.8679 26.7096Z" fill="var(--fill-0, #FFAB61)"/>
<path id="Vector_17" d="M11.2523 9.33884H48.7294V14.631H11.2523V9.33884Z" fill="var(--fill-0, #2E4B76)"/>
<path id="Vector_18" d="M29.9025 9.33884H48.7294V14.631H29.9025V9.33884Z" fill="var(--fill-0, #1B3458)"/>
<path id="Vector_19" d="M8.367 50.7834C13.8007 56.4377 21.4293 59.9661 29.7803 59.9986V56.25L19.1043 46.7578L8.367 50.7834Z" fill="var(--fill-0, #22416E)"/>
<path id="Vector_20" d="M51.633 50.7834C46.1993 56.4377 38.5707 59.9661 30.1172 59.9986V56.25L40.8957 46.7578L51.633 50.7834Z" fill="var(--fill-0, #22416E)"/>
</g>
</svg>
