<svg preserveAspectRatio="none" width="100%" height="100%" overflow="visible" style="display: block;" viewBox="0 0 32 32" fill="none" xmlns="http://www.w3.org/2000/svg">
<g id="click (1) 1" clip-path="url(#clip0_0_16)">
<path id="Vector" d="M28.3304 11.7626C27.668 11.7626 27.048 11.9517 26.5181 12.2796C25.865 11.4701 24.8644 10.9507 23.744 10.9507C22.9483 10.9507 22.2128 11.2124 21.6194 11.6541C20.9762 11.0265 20.0941 10.6384 19.1219 10.6384C18.7562 10.6384 18.3993 10.6921 18.06 10.7947V3.58026C18.06 1.61711 16.4629 0.0199875 14.4998 0.0199875C12.5366 0.0199875 10.9395 1.61711 10.9395 3.58026V19.0991C10.9395 19.7347 10.5253 20.6322 9.84773 20.6923C9.84398 20.691 9.83979 20.6896 9.83498 20.6878L5.19108 18.9154L5.14973 18.9004C3.88745 18.469 2.80107 18.4707 1.92081 18.9056C1.1393 19.2918 0.578521 19.9785 0.253911 20.9466C-0.590999 23.4666 0.93105 24.744 2.36272 25.5743L10.5165 30.7067C11.7006 31.553 13.0901 32 14.538 32H25.0244C26.901 32 28.657 31.2657 29.969 29.9324C31.2715 28.6087 31.9888 26.8458 31.9888 24.9685V15.3006C31.9888 13.2506 30.4502 11.7626 28.3304 11.7626ZM29.4903 24.9685C29.4903 27.4681 27.4869 29.5016 25.0244 29.5016H14.5379C13.6054 29.5016 12.7094 29.2099 11.9467 28.658L11.9141 28.6343L3.67396 23.4475L3.63305 23.4228C2.88677 22.992 2.6333 22.6941 2.55204 22.5199C2.51887 22.4487 2.44123 22.2822 2.62274 21.7408C2.72811 21.4264 2.86428 21.2262 3.02755 21.1455C3.27558 21.0229 3.7466 21.0638 4.32181 21.2578L8.95222 23.0251L8.96465 23.0298C9.29051 23.1502 9.59713 23.203 9.90219 23.1914C12.0861 23.108 13.4379 21.0022 13.4379 19.099V3.58026C13.4379 2.99475 13.9142 2.51843 14.4997 2.51843C15.0852 2.51843 15.5615 2.99475 15.5615 3.58026V14.1362V14.9457V16.5097H18.06V14.9457V14.1362C18.06 13.5758 18.5264 13.1368 19.1218 13.1368C19.7172 13.1368 20.1836 13.5875 20.1836 14.163V16.5097H22.6821V14.5017C22.6821 13.9114 23.1485 13.4491 23.7439 13.4491C24.3393 13.4491 24.8058 13.9114 24.8058 14.5017V15.3854V16.3223V16.5097H27.3042V16.3223V15.3854C27.3042 14.8424 27.7166 14.2611 28.3304 14.2611C28.7636 14.2611 29.4903 14.3961 29.4903 15.3006V24.9685ZM20.8813 3.60031L20.2355 1.18676L24.6702 0L25.3161 2.41355L20.8813 3.60031ZM24.6702 8.65965L20.2355 7.47289L20.8813 5.05934L25.3161 6.2461L24.6702 8.65965ZM8.0556 3.66277L3.62087 2.47601L4.26672 0.062461L8.70144 1.24922L8.0556 3.66277ZM4.26672 8.72211L3.62087 6.30856L8.0556 5.1218L8.70144 7.53535L4.26672 8.72211Z" fill="url(#paint0_linear_0_16)"/>
</g>
<defs>
<linearGradient id="paint0_linear_0_16" x1="16" y1="3.89248e-10" x2="16" y2="32" gradientUnits="userSpaceOnUse">
<stop stop-color="#0E72C4"/>
<stop offset="1" stop-color="#014786"/>
</linearGradient>
<clipPath id="clip0_0_16">
<rect width="32" height="32" fill="white"/>
</clipPath>
</defs>
</svg>
