<svg preserveAspectRatio="none" width="100%" height="100%" overflow="visible" style="display: block;" viewBox="0 0 30 28" fill="none" xmlns="http://www.w3.org/2000/svg">
<g id="office_bag">
<path id="Vector" d="M27 4H21V3C21 1.3457 19.6543 0 18 0H12C10.3457 0 9 1.3457 9 3V4H3C1.3457 4 0 5.3457 0 7V13C0 13.5522 0.447266 14 1 14V25C1 26.6543 2.3457 28 4 28H26C27.6543 28 29 26.6543 29 25V14C29.5527 14 30 13.5522 30 13V7C30 5.3457 28.6543 4 27 4ZM11 3C11 2.44873 11.4482 2 12 2H18C18.5518 2 19 2.44873 19 3V4H11V3ZM3 6H27C27.5518 6 28 6.44873 28 7V11.9995H2V7C2 6.44873 2.44824 6 3 6ZM26 26H4C3.44824 26 3 25.5513 3 25V13.9995H7V16C7 16.5522 7.44727 17 8 17C8.55273 17 9 16.5522 9 16V13.9995H21V16C21 16.5522 21.4473 17 22 17C22.5527 17 23 16.5522 23 16V13.9995H27V25C27 25.5513 26.5518 26 26 26Z" fill="url(#paint0_linear_0_7)"/>
</g>
<defs>
<linearGradient id="paint0_linear_0_7" x1="15" y1="0" x2="15" y2="28" gradientUnits="userSpaceOnUse">
<stop stop-color="#187BCE"/>
<stop offset="1" stop-color="#0D5799"/>
</linearGradient>
</defs>
</svg>
