<svg preserveAspectRatio="none" width="100%" height="100%" overflow="visible" style="display: block;" viewBox="0 0 20 20" fill="none" xmlns="http://www.w3.org/2000/svg">
<g id="Frame 1618872935">
<path id="Icon" d="M5.5 19C4.875 19 4.34375 18.7717 3.90625 18.3152C3.46875 17.8587 3.25 17.3043 3.25 16.6522C3.25 16 3.46875 15.4457 3.90625 14.9891C4.34375 14.5326 4.875 14.3043 5.5 14.3043C5.675 14.3043 5.8375 14.3239 5.9875 14.363C6.1375 14.4022 6.28125 14.4543 6.41875 14.5196L7.4875 13.1304C7.1375 12.7261 6.89375 12.2696 6.75625 11.7609C6.61875 11.2522 6.5875 10.7435 6.6625 10.2348L5.14375 9.70652C4.93125 10.0326 4.6625 10.2935 4.3375 10.4891C4.0125 10.6848 3.65 10.7826 3.25 10.7826C2.625 10.7826 2.09375 10.5543 1.65625 10.0978C1.21875 9.6413 1 9.08696 1 8.43478C1 7.78261 1.21875 7.22826 1.65625 6.77174C2.09375 6.31522 2.625 6.08696 3.25 6.08696C3.875 6.08696 4.40625 6.31522 4.84375 6.77174C5.28125 7.22826 5.5 7.78261 5.5 8.43478C5.5 8.46087 5.5 8.48696 5.5 8.51304C5.5 8.53913 5.5 8.56522 5.5 8.5913L7.01875 9.13913C7.26875 8.66957 7.60313 8.27174 8.02188 7.94565C8.44063 7.61957 8.9125 7.41087 9.4375 7.31957V5.61739C8.95 5.47391 8.54688 5.19674 8.22813 4.78587C7.90938 4.375 7.75 3.89565 7.75 3.34783C7.75 2.69565 7.96875 2.1413 8.40625 1.68478C8.84375 1.22826 9.375 1 10 1C10.625 1 11.1563 1.22826 11.5938 1.68478C12.0313 2.1413 12.25 2.69565 12.25 3.34783C12.25 3.89565 12.0875 4.375 11.7625 4.78587C11.4375 5.19674 11.0375 5.47391 10.5625 5.61739V7.31957C11.0875 7.41087 11.5594 7.61957 11.9781 7.94565C12.3969 8.27174 12.7313 8.66957 12.9813 9.13913L14.5 8.5913C14.5 8.56522 14.5 8.53913 14.5 8.51304C14.5 8.48696 14.5 8.46087 14.5 8.43478C14.5 7.78261 14.7188 7.22826 15.1563 6.77174C15.5938 6.31522 16.125 6.08696 16.75 6.08696C17.375 6.08696 17.9063 6.31522 18.3438 6.77174C18.7813 7.22826 19 7.78261 19 8.43478C19 9.08696 18.7813 9.6413 18.3438 10.0978C17.9063 10.5543 17.375 10.7826 16.75 10.7826C16.35 10.7826 15.9844 10.6848 15.6531 10.4891C15.3219 10.2935 15.0563 10.0326 14.8563 9.70652L13.3375 10.2348C13.4125 10.7435 13.3813 11.2489 13.2438 11.7511C13.1063 12.2533 12.8625 12.713 12.5125 13.1304L13.5813 14.5C13.7188 14.4348 13.8625 14.3859 14.0125 14.3533C14.1625 14.3207 14.325 14.3043 14.5 14.3043C15.125 14.3043 15.6563 14.5326 16.0938 14.9891C16.5313 15.4457 16.75 16 16.75 16.6522C16.75 17.3043 16.5313 17.8587 16.0938 18.3152C15.6563 18.7717 15.125 19 14.5 19C13.875 19 13.3438 18.7717 12.9063 18.3152C12.4688 17.8587 12.25 17.3043 12.25 16.6522C12.25 16.3913 12.2906 16.1402 12.3719 15.8989C12.4531 15.6576 12.5625 15.4391 12.7 15.2435L11.6313 13.8543C11.1188 14.1543 10.5719 14.3043 9.99063 14.3043C9.40938 14.3043 8.8625 14.1543 8.35 13.8543L7.3 15.2435C7.4375 15.4391 7.54688 15.6576 7.62813 15.8989C7.70938 16.1402 7.75 16.3913 7.75 16.6522C7.75 17.3043 7.53125 17.8587 7.09375 18.3152C6.65625 18.7717 6.125 19 5.5 19V19M3.25 9.21739C3.4625 9.21739 3.64063 9.14239 3.78438 8.99239C3.92813 8.84239 4 8.65652 4 8.43478C4 8.21304 3.92813 8.02717 3.78438 7.87717C3.64063 7.72717 3.4625 7.65217 3.25 7.65217C3.0375 7.65217 2.85938 7.72717 2.71563 7.87717C2.57188 8.02717 2.5 8.21304 2.5 8.43478C2.5 8.65652 2.57188 8.84239 2.71563 8.99239C2.85938 9.14239 3.0375 9.21739 3.25 9.21739V9.21739M5.5 17.4348C5.7125 17.4348 5.89063 17.3598 6.03438 17.2098C6.17813 17.0598 6.25 16.8739 6.25 16.6522C6.25 16.4304 6.17813 16.2446 6.03438 16.0946C5.89063 15.9446 5.7125 15.8696 5.5 15.8696C5.2875 15.8696 5.10938 15.9446 4.96563 16.0946C4.82188 16.2446 4.75 16.4304 4.75 16.6522C4.75 16.8739 4.82188 17.0598 4.96563 17.2098C5.10938 17.3598 5.2875 17.4348 5.5 17.4348V17.4348M10 4.13043C10.2125 4.13043 10.3906 4.05543 10.5344 3.90543C10.6781 3.75543 10.75 3.56957 10.75 3.34783C10.75 3.12609 10.6781 2.94022 10.5344 2.79022C10.3906 2.64022 10.2125 2.56522 10 2.56522C9.7875 2.56522 9.60938 2.64022 9.46563 2.79022C9.32188 2.94022 9.25 3.12609 9.25 3.34783C9.25 3.56957 9.32188 3.75543 9.46563 3.90543C9.60938 4.05543 9.7875 4.13043 10 4.13043V4.13043M10 12.7391C10.525 12.7391 10.9688 12.55 11.3313 12.1717C11.6938 11.7935 11.875 11.3304 11.875 10.7826C11.875 10.2348 11.6938 9.77174 11.3313 9.39348C10.9688 9.01522 10.525 8.82609 10 8.82609C9.475 8.82609 9.03125 9.01522 8.66875 9.39348C8.30625 9.77174 8.125 10.2348 8.125 10.7826C8.125 11.3304 8.30625 11.7935 8.66875 12.1717C9.03125 12.55 9.475 12.7391 10 12.7391V12.7391M14.5 17.4348C14.7125 17.4348 14.8906 17.3598 15.0344 17.2098C15.1781 17.0598 15.25 16.8739 15.25 16.6522C15.25 16.4304 15.1781 16.2446 15.0344 16.0946C14.8906 15.9446 14.7125 15.8696 14.5 15.8696C14.2875 15.8696 14.1094 15.9446 13.9656 16.0946C13.8219 16.2446 13.75 16.4304 13.75 16.6522C13.75 16.8739 13.8219 17.0598 13.9656 17.2098C14.1094 17.3598 14.2875 17.4348 14.5 17.4348V17.4348M16.75 9.21739C16.9625 9.21739 17.1406 9.14239 17.2844 8.99239C17.4281 8.84239 17.5 8.65652 17.5 8.43478C17.5 8.21304 17.4281 8.02717 17.2844 7.87717C17.1406 7.72717 16.9625 7.65217 16.75 7.65217C16.5375 7.65217 16.3594 7.72717 16.2156 7.87717C16.0719 8.02717 16 8.21304 16 8.43478C16 8.65652 16.0719 8.84239 16.2156 8.99239C16.3594 9.14239 16.5375 9.21739 16.75 9.21739V9.21739M10 3.34783V3.34783V3.34783V3.34783V3.34783V3.34783V3.34783V3.34783V3.34783V3.34783M3.25 8.43478V8.43478V8.43478V8.43478V8.43478V8.43478V8.43478V8.43478V8.43478V8.43478M10 10.7826V10.7826V10.7826V10.7826V10.7826V10.7826V10.7826V10.7826V10.7826V10.7826M16.75 8.43478V8.43478V8.43478V8.43478V8.43478V8.43478V8.43478V8.43478V8.43478V8.43478M5.5 16.6522V16.6522V16.6522V16.6522V16.6522V16.6522V16.6522V16.6522V16.6522V16.6522M14.5 16.6522V16.6522V16.6522V16.6522V16.6522V16.6522V16.6522V16.6522V16.6522V16.6522" fill="var(--fill-0, #FBC17B)"/>
</g>
</svg>
