<svg preserveAspectRatio="none" width="100%" height="100%" overflow="visible" style="display: block;" viewBox="0 0 20 20" fill="none" xmlns="http://www.w3.org/2000/svg">
<g id="Frame 1618872936">
<path id="Icon" d="M4.18255 19V15.13C3.33308 14.35 2.67362 13.4388 2.20417 12.3963C1.73472 11.3538 1.5 10.255 1.5 9.1C1.5 6.85 2.28241 4.9375 3.84723 3.3625C5.41205 1.7875 7.31219 1 9.54765 1C11.4105 1 13.061 1.55125 14.4992 2.65375C15.9373 3.75625 16.8725 5.1925 17.3047 6.9625L18.4671 11.575C18.5416 11.86 18.4895 12.1188 18.3106 12.3513C18.1318 12.5838 17.8934 12.7 17.5953 12.7H15.8069V15.4C15.8069 15.895 15.6318 16.3188 15.2816 16.6713C14.9314 17.0238 14.5104 17.2 14.0186 17.2H12.2302V19H10.4418V15.4H14.0186V15.4V15.4V10.9H16.4329L15.5834 7.4125C15.2406 6.0475 14.5104 4.9375 13.3926 4.0825C12.2749 3.2275 10.9932 2.8 9.54765 2.8C7.81889 2.8 6.34349 3.4075 5.12144 4.6225C3.89939 5.8375 3.28837 7.315 3.28837 9.055C3.28837 9.955 3.47093 10.81 3.83605 11.62C4.20118 12.43 4.71906 13.15 5.3897 13.78L5.97092 14.32V19H4.18255V19M9.86061 10.9V10.9V10.9V10.9V10.9V10.9V10.9V10.9V10.9V10.9V10.9V10.9V10.9V10.9V10.9V10.9V10.9V10.9M8.65347 12.7H10.4418L10.576 11.575C10.6952 11.53 10.8032 11.4775 10.9001 11.4175C10.997 11.3575 11.0827 11.29 11.1572 11.215L12.1855 11.665L13.0797 10.135L12.1855 9.46C12.2153 9.34 12.2302 9.22 12.2302 9.1C12.2302 8.98 12.2153 8.86 12.1855 8.74L13.0797 8.065L12.1855 6.535L11.1572 6.985C11.0827 6.91 10.997 6.8425 10.9001 6.7825C10.8032 6.7225 10.6952 6.67 10.576 6.625L10.4418 5.5H8.65347L8.51934 6.625C8.40011 6.67 8.29207 6.7225 8.1952 6.7825C8.09833 6.8425 8.01263 6.91 7.93812 6.985L6.90981 6.535L6.01562 8.065L6.90981 8.74C6.88 8.86 6.8651 8.98 6.8651 9.1C6.8651 9.22 6.88 9.34 6.90981 9.46L6.01562 10.135L6.90981 11.665L7.93812 11.215C8.01263 11.29 8.09833 11.3575 8.1952 11.4175C8.29207 11.4775 8.40011 11.53 8.51934 11.575L8.65347 12.7V12.7M9.54765 10.45C9.17507 10.45 8.85838 10.3188 8.59758 10.0563C8.33678 9.79375 8.20637 9.475 8.20637 9.1C8.20637 8.725 8.33678 8.40625 8.59758 8.14375C8.85838 7.88125 9.17507 7.75 9.54765 7.75C9.92022 7.75 10.2369 7.88125 10.4977 8.14375C10.7585 8.40625 10.8889 8.725 10.8889 9.1C10.8889 9.475 10.7585 9.79375 10.4977 10.0563C10.2369 10.3188 9.92022 10.45 9.54765 10.45V10.45" fill="var(--fill-0, #FBC17B)"/>
</g>
</svg>
