<svg preserveAspectRatio="none" width="100%" height="100%" overflow="visible" style="display: block;" viewBox="0 0 20 20" fill="none" xmlns="http://www.w3.org/2000/svg">
<g id="Frame 1618872936">
<path id="Icon" d="M4.23244 8.17071L5.98335 8.9106C6.19286 8.49207 6.40985 8.0885 6.63433 7.69987C6.85881 7.31124 7.10573 6.92261 7.3751 6.53398L6.11804 6.28735V6.28735V6.28735L4.23244 8.17071V8.17071M7.41999 10.0316L9.97901 12.5652C10.6075 12.326 11.281 11.9598 11.9993 11.4666C12.7176 10.9733 13.391 10.4128 14.0196 9.78501C15.0671 8.7387 15.8865 7.57655 16.4776 6.29856C17.0687 5.02057 17.3268 3.84348 17.252 2.76727C16.1745 2.69254 14.9923 2.95038 13.7053 3.54079C12.4183 4.13121 11.251 4.94957 10.2035 5.99588C9.57496 6.62367 9.01377 7.29629 8.51992 8.01376C8.02608 8.73123 7.65943 9.40386 7.41999 10.0316V10.0316M11.4157 8.57428C11.0715 8.2305 10.8994 7.80824 10.8994 7.3075C10.8994 6.80677 11.0715 6.38451 11.4157 6.04072C11.7598 5.69694 12.1864 5.52504 12.6952 5.52504C13.204 5.52504 13.6305 5.69694 13.9747 6.04072C14.3189 6.38451 14.491 6.80677 14.491 7.3075C14.491 7.80824 14.3189 8.2305 13.9747 8.57428C13.6305 8.91807 13.204 9.08996 12.6952 9.08996C12.1864 9.08996 11.7598 8.91807 11.4157 8.57428V8.57428M11.8422 15.7714L13.7277 13.888V13.888V13.888L13.4808 12.6325C13.0917 12.9015 12.7026 13.1444 12.3136 13.3611C11.9245 13.5779 11.5204 13.7909 11.1014 14.0001L11.8422 15.7714V15.7714M18.8682 1.13055C19.1526 2.93917 18.9767 4.69921 18.3407 6.41067C17.7047 8.12213 16.6085 9.75512 15.0522 11.3096V11.3096V11.3096L15.5011 13.5293C15.561 13.8282 15.546 14.1197 15.4562 14.4037C15.3664 14.6877 15.2168 14.9343 15.0073 15.1436L11.2361 18.9103L9.35048 14.4934L5.51195 10.6594L1.08979 8.77607L4.83853 5.00936C5.04804 4.8001 5.2987 4.65063 5.59052 4.56094C5.88234 4.47126 6.1779 4.45631 6.4772 4.5161L8.6995 4.96452V4.96452V4.96452C10.2559 3.41001 11.8871 2.31138 13.5931 1.66865C15.2991 1.02592 17.0575 0.846549 18.8682 1.13055V1.13055M2.68356 13.5069C3.20734 12.9837 3.8471 12.7184 4.60283 12.7109C5.35856 12.7035 5.99832 12.9613 6.52209 13.4845C7.04587 14.0076 7.30401 14.6466 7.29653 15.4014C7.28905 16.1563 7.02342 16.7953 6.49964 17.3184C6.12552 17.6921 5.50073 18.0135 4.62528 18.2825C3.74982 18.5516 2.5414 18.7907 1 19C1.20951 17.4604 1.44895 16.2534 1.71832 15.379C1.98769 14.5046 2.30944 13.8806 2.68356 13.5069V13.5069M3.96307 14.7625C3.81342 14.9119 3.66377 15.1847 3.51412 15.5808C3.36447 15.9769 3.25972 16.3768 3.19986 16.7803C3.60391 16.7205 4.00423 16.6196 4.4008 16.4776C4.79737 16.3357 5.07049 16.1899 5.22014 16.0404C5.39972 15.8611 5.49699 15.6443 5.51195 15.3902C5.52692 15.1361 5.44461 14.9194 5.26503 14.74C5.08545 14.5607 4.86846 14.4747 4.61405 14.4822C4.35965 14.4897 4.14265 14.5831 3.96307 14.7625V14.7625" fill="var(--fill-0, #FBC17B)"/>
</g>
</svg>
