<svg width="60" height="60" viewBox="0 0 60 60" fill="none" xmlns="http://www.w3.org/2000/svg">
<path d="M21.7673 49.1992C12.6651 40.3814 8.39844 30.9948 8.39844 22.6037C8.39844 15.777 13.5184 10.7992 18.6384 10.7992C23.1895 10.7992 26.8873 14.497 26.8873 19.0481C26.8873 24.8792 22.6207 27.8659 16.3629 27.8659C16.3629 34.8348 18.4962 38.9592 25.1807 45.7859L21.7673 49.1992ZM45.5184 49.1992C36.4162 40.3814 32.1495 30.9948 32.1495 22.6037C32.1495 15.777 37.2696 10.7992 42.3896 10.7992C46.9407 10.7992 50.6384 14.497 50.6384 19.0481C50.6384 24.8792 46.3718 27.8659 40.114 27.8659C40.114 34.8348 42.2473 38.9592 48.9318 45.7859L45.5184 49.1992Z" fill="#013A72"/>
</svg>
