<svg width="60" height="60" viewBox="0 0 60 60" fill="none" xmlns="http://www.w3.org/2000/svg">
<path d="M38.2327 49.1992C47.3349 40.3814 51.6016 30.9948 51.6016 22.6037C51.6016 15.777 46.4816 10.7992 41.3616 10.7992C36.8105 10.7992 33.1127 14.497 33.1127 19.0481C33.1127 24.8792 37.3793 27.8659 43.6371 27.8659C43.6371 34.8348 41.5038 38.9592 34.8193 45.7859L38.2327 49.1992ZM14.4816 49.1992C23.5838 40.3814 27.8505 30.9948 27.8505 22.6037C27.8505 15.777 22.7304 10.7992 17.6104 10.7992C13.0593 10.7992 9.36156 14.497 9.36156 19.0481C9.36156 24.8792 13.6282 27.8659 19.886 27.8659C19.886 34.8348 17.7527 38.9592 11.0682 45.7859L14.4816 49.1992Z" fill="#013A72"/>
</svg>
